<svg version="1.1" xmlns="http://www.w3.org/2000/svg" xmlns:xlink="http://www.w3.org/1999/xlink" width="888" height="507"><defs/><g><g/><g/><g/><g/><g/><g/><g/><g/><g><rect fill="white" stroke="none" x="0" y="0" width="888" height="507"/></g><g><text fill="black" stroke="none" font-family="sans-serif" font-size="16.5pt" font-style="normal" font-weight="normal" text-decoration="normal" x="298.3651851147461" y="24.50280495" text-anchor="start" dominant-baseline="alphabetic" xml:space="preserve">Get Workspace Channel Data</text></g><g><g><path fill="#9F5F9F" stroke="black" paint-order="fill stroke markers" d=" M 8.167601650000003 58.5617038305 L 111.41756935429687 58.5617038305 L 111.41756935429687 472.74078350200006 L 8.167601650000003 472.74078350200006 L 8.167601650000003 58.5617038305" stroke-miterlimit="10" stroke-width="1.3612669416666667" stroke-dasharray=""/></g><g><text fill="black" stroke="none" font-family="sans-serif" font-size="11pt" font-style="normal" font-weight="bold" text-decoration="normal" x="40.63725865888672" y="81.43098845050001" text-anchor="start" dominant-baseline="alphabetic" xml:space="preserve">Slack</text></g><g><path fill="none" stroke="black" paint-order="fill stroke markers" d=" M 250.85485187864583 50.394102180500006 L 880.4172607669922 50.394102180500006 L 880.4172607669922 472.74078350200006 L 250.85485187864583 472.74078350200006 L 250.85485187864583 50.394102180500006" stroke-miterlimit="10" stroke-width="1.3612669416666667" stroke-dasharray=""/></g><g><text fill="black" stroke="none" font-family="sans-serif" font-size="11pt" font-style="normal" font-weight="bold" text-decoration="normal" x="484.5480283687175" y="73.2633868005" text-anchor="start" dominant-baseline="alphabetic" xml:space="preserve">Service Provider Slack </text></g></g><g><path fill="none" stroke="black" paint-order="fill stroke markers" d=" M 59.79258550214844 167.272481792 L 59.79258550214844 507.04471043200004" stroke-miterlimit="10" stroke-width="1.3612669416666667" stroke-dasharray="12.565541,5.445067766666667"/><path fill="none" stroke="black" paint-order="fill stroke markers" d=" M 320.96230338216145 167.272481792 L 320.96230338216145 507.04471043200004" stroke-miterlimit="10" stroke-width="1.3612669416666667" stroke-dasharray="12.565541,5.445067766666667"/><path fill="none" stroke="black" paint-order="fill stroke markers" d=" M 502.27531566119785 167.272481792 L 502.27531566119785 507.04471043200004" stroke-miterlimit="10" stroke-width="1.3612669416666667" stroke-dasharray="12.565541,5.445067766666667"/><path fill="none" stroke="black" paint-order="fill stroke markers" d=" M 831.9060769636718 167.272481792 L 831.9060769636718 507.04471043200004" stroke-miterlimit="10" stroke-width="1.3612669416666667" stroke-dasharray="12.565541,5.445067766666667"/></g><g><g><path fill="white" stroke="black" paint-order="fill stroke markers" d=" M 92.21796405264844 120.39044832100001 A 24.2577769005 24.2577769005 0 1 1 92.21795192376099 120.36619054814246 M 28.755699232148434 94.74417914 L 28.755699232148434 146.03671750200002 M 27.367206951648434 120.39044832100001 L 43.70241025164844 120.39044832100001" stroke-miterlimit="10" stroke-width="2.7769845610000004" stroke-dasharray=""/></g><g><g/><text fill="black" stroke="none" font-family="sans-serif" font-size="11pt" font-style="normal" font-weight="normal" text-decoration="normal" x="16.335203300000003" y="162.371920802" text-anchor="start" dominant-baseline="alphabetic" xml:space="preserve">SlackWebApi</text></g><g><path fill="white" stroke="black" paint-order="fill stroke markers" d=" M 353.38768193266145 120.39044832100001 A 24.2577769005 24.2577769005 0 1 1 353.38766980377403 120.36619054814246 M 289.9254171121614 94.74417914 L 289.9254171121614 146.03671750200002 M 288.53692483166145 120.39044832100001 L 304.87212813166144 120.39044832100001" stroke-miterlimit="10" stroke-width="2.7769845610000004" stroke-dasharray=""/></g><g><g/><text fill="black" stroke="none" font-family="sans-serif" font-size="11pt" font-style="normal" font-weight="normal" text-decoration="normal" x="259.0224535286458" y="162.371920802" text-anchor="start" dominant-baseline="alphabetic" xml:space="preserve">SpChannelHandler</text></g><g><path fill="white" stroke="black" paint-order="fill stroke markers" d=" M 526.5330925616978 120.39044832100001 A 24.2577769005 24.2577769005 0 1 1 526.5330804328104 120.36619054814246 M 499.00827500119783 96.1326714205 L 508.80939698119784 87.96506977050001 M 499.00827500119783 96.1326714205 L 508.80939698119784 104.3002730705" stroke-miterlimit="10" stroke-width="2.7769845610000004" stroke-dasharray=""/></g><g><g/><text fill="black" stroke="none" font-family="sans-serif" font-size="11pt" font-style="normal" font-weight="normal" text-decoration="normal" x="441.56310405231113" y="162.371920802" text-anchor="start" dominant-baseline="alphabetic" xml:space="preserve">SpChannelService</text></g><g><path fill="white" stroke="black" paint-order="fill stroke markers" d=" M 808.0566801456719 135.255483324 L 808.0566801456719 100.95155639400002 L 855.7554737816718 100.95155639400002 L 855.7554737816718 135.255483324" stroke-miterlimit="10" stroke-width="2.7769845610000004" stroke-dasharray=""/><path fill="white" stroke="black" paint-order="fill stroke markers" d=" M 855.7554737816718 99.75908655310002 L 855.7542813217681 99.86689709801664 L 855.750704061302 99.97469686196861 L 855.7447423579968 100.08247506506937 L 855.7363968080174 100.19022092958842 L 855.7256682459122 100.2979236810291 L 855.7125577445283 100.40557254920603 L 855.6970666149051 100.51315676932207 L 855.6791964061425 100.62066558304487 L 855.6589489052465 100.72808823958268 L 855.6363261369503 100.83541399675931 L 855.6113303635119 100.94263212208854 L 855.5839640844879 101.04973189384714 L 855.5542300364833 101.1567026021472 L 855.5221311928782 101.26353355000704 L 855.4876707635301 101.37021405442088 L 855.4508521944533 101.4767334474272 L 855.411679167474 101.58308107717545 L 855.3701555998622 101.68924630899127 L 855.3262856439402 101.79521852643998 L 855.2800736866668 101.90098713238812 L 855.2315243491995 102.00654155006325 L 855.1806424864315 102.11187122411154 L 855.1274331865066 102.21696562165339 L 855.0719017703103 102.32181423333661 L 855.0140537909383 102.4264065743874 L 854.9538950331402 102.53073218565882 L 854.8914315127415 102.63478063467669 L 854.8266694760423 102.7385415166828 L 854.7596153991923 102.84200445567542 L 854.6902759875434 102.94515910544688 L 854.6186581749787 103.04799515061815 L 854.54476912322 103.15050230767042 L 854.468616221111 103.2526703259734 L 854.3902070838782 103.3544889888104 L 854.3095495523701 103.4559481144 L 854.2266516922726 103.55703755691417 L 854.1415217933028 103.6577472074929 L 854.0541683683794 103.75806699525508 L 853.9646001527722 103.8579868883055 L 853.8728261032281 103.95749689473814 L 853.7788553970756 104.05658706363529 L 853.6826974313071 104.15524748606262 L 853.584361821639 104.25346829606012 L 853.4838584015502 104.35123967162862 L 853.3811972212991 104.44855183571204 L 853.276388546918 104.54539505717509 L 853.1694428591871 104.6417596517763 L 853.0603708525862 104.73763598313651 L 852.9491834342249 104.83301446370251 L 852.8358917227523 104.92788555570571 L 852.7205070472454 105.02223977211597 L 852.6030409460753 105.11606767759027 L 852.4835051657544 105.20935988941625 L 852.3619116597612 105.30210707845049 L 852.2382725873448 105.39429997005135 L 852.1126003123094 105.48592934500653 L 851.984907401778 105.57698604045486 L 851.8552066249349 105.66746095080268 L 851.72351095175 105.75734502863436 L 851.5898335516807 105.84662928561703 L 851.4541877923558 105.93530479339938 L 851.316587238238 106.02336268450453 L 851.177045649268 106.11079415321676 L 851.0355769794887 106.19759045646204 L 850.892195375649 106.28374291468239 L 850.7469151757898 106.36924291270377 L 850.59975090781 106.45408190059764 L 850.4507172880138 106.5382513945359 L 850.2998292196389 106.62174297763931 L 850.1471017913666 106.70454830081913 L 849.9925502758124 106.78665908361204 L 849.8361901279989 106.86806711500819 L 849.6780369838106 106.94876425427228 L 849.5181066584303 107.02874243175762 L 849.3564151447571 107.10799364971314 L 849.1929786118078 107.18650998308306 L 849.0278134030992 107.26428358029946 L 848.8609360350149 107.34130666406747 L 848.6923631951524 107.41757153214289 L 848.5221117406553 107.49307055810243 L 848.3501986965272 107.56779619210644 L 848.1766412539291 107.6417409616538 L 848.0014567684608 107.71489747232916 L 847.8246627584248 107.7872584085424 L 847.6462769030747 107.85881653426023 L 847.4663170408475 107.9295646937297 L 847.2848011675794 107.9994958121938 L 847.1017474347065 108.06860289659899 L 846.9171741474495 108.1368790362944 L 846.7310997629833 108.20431740372297 L 846.5435428885913 108.27091125510412 L 846.3545222798047 108.33665393110826 L 846.1640568385268 108.40153885752254 L 845.9721656111429 108.46555954590839 L 845.7788677866162 108.52870959425034 L 845.5841826945676 108.59098268759617 L 845.3881298033444 108.65237259868843 L 845.1907287180723 108.71287318858718 L 844.9919991786952 108.77247840728386 L 844.7919610580014 108.83118229430623 L 844.5906343596365 108.88897897931456 L 844.3880392161025 108.94586268268847 L 844.1841958867446 109.00182771610504 L 843.9791247557264 109.05686848310758 L 843.7728463299896 109.11097947966525 L 843.5653812372053 109.16415529472346 L 843.3567502237096 109.21639061074505 L 843.1469741524302 109.26768020424194 L 842.9360740007992 109.31801894629751 L 842.7240708586561 109.36740180307952 L 842.5109859261385 109.41582383634344 L 842.2968405115621 109.46328020392627 L 842.0816560292898 109.50976616023082 L 841.8654539975905 109.55527705670022 L 841.6482560364874 109.5998083422827 L 841.4300838655954 109.64335556388684 L 841.2109593019499 109.68591436682678 L 840.9909042578245 109.72748049525767 L 840.7699407385404 109.7680497926013 L 840.5480908402654 109.80761820196176 L 840.3253767478044 109.84618176653109 L 840.1018207323809 109.88373662998495 L 839.8774451494105 109.92027903686831 L 839.6522724362642 109.95580533297093 L 839.4263251100258 109.99031196569278 L 839.1996257652396 110.02379548439939 L 838.9721970716512 110.05625254076675 L 838.7440617719403 110.08767988911629 L 838.515242679447 110.11807438673935 L 838.2857626758897 110.14743299421153 L 838.0556447090777 110.17575277569651 L 837.8249117906156 110.20303089923975 L 837.5935869936033 110.22926463705164 L 837.3616934503274 110.25445136578027 L 837.1292543499493 110.27858856677372 L 836.8962929361852 110.30167382633203 L 836.6628325049822 110.32370483594849 L 836.4288964021893 110.34467939254047 L 836.1945080212213 110.3645953986698 L 835.9596908007213 110.38345086275248 L 835.7244682222157 110.40124389925779 L 835.488863807766 110.41797272889693 L 835.2529011176177 110.43363567880087 L 835.0166037478431 110.44823118268765 L 834.7799953279821 110.46175778101907 L 834.5430995186795 110.47421412114657 L 834.305940009319 110.4855989574465 L 834.0685405156538 110.49591115144473 L 833.8309247774354 110.50514967193044 L 833.5931165560397 110.5133135950593 L 833.3551396320906 110.5204021044458 L 833.1170178030823 110.52641449124488 L 832.8787748809991 110.53135015422289 L 832.6404346899348 110.53520859981765 L 832.4020210637098 110.53798944218781 L 832.163557843488 110.53969240325145 L 831.9250688753929 110.54031731271388 L 831.6865780081223 110.53986410808467 L 831.4481090905645 110.53833283468393 L 831.2096859694122 110.5357236456377 L 830.9713324867793 110.53203680186272 L 830.7330724778149 110.52727267204028 L 830.4949297683216 110.52143173257942 L 830.256928172372 110.5145145675692 L 830.0190914899272 110.50652186872036 L 829.7814435044572 110.4974544352961 L 829.5440079805627 110.48731317403227 L 829.306808661598 110.47609909904648 L 829.0698692672976 110.46381333173692 L 828.8332134914033 110.45045710067006 L 828.5968649992955 110.4360317414579 L 828.3608474256264 110.42053869662433 L 828.1251843719568 110.40397951546092 L 827.8898994043957 110.38635585387198 L 827.6550160512437 110.367669474209 L 827.4205578006404 110.34792224509437 L 827.1865480982156 110.32711614123453 L 826.9530103447441 110.30525324322254 L 826.7199678938073 110.28233573732997 L 826.4874440494556 110.25836591528834 L 826.2554620638797 110.23334617405986 L 826.0240451350851 110.2072790155978 L 825.7932164045716 110.18016704659628 L 825.56299895502 110.15201297822964 L 825.3334158079834 110.1228196258812 L 825.1044899215851 110.09258990886192 L 824.8762441882232 110.06132685011828 L 824.6487014322805 110.0290335759301 L 824.4218844078432 109.99571331559791 L 824.1958157964248 109.96136940111997 L 823.9705182046978 109.9260052668591 L 823.7460141622337 109.88962444919923 L 823.5223261192498 109.85223058619187 L 823.2994764443639 109.81382741719212 L 823.0774874223578 109.77441878248487 L 822.8563812519487 109.73400862290077 L 822.6361800435693 109.6926009794221 L 822.4169058171572 109.6501999927787 L 822.198580499952 109.60680990303389 L 821.9812259243035 109.56243504916051 L 821.7648638254885 109.51707986860694 L 821.5495158395362 109.47074889685346 L 821.335203501066 109.42344676695863 L 821.1219482411328 109.37517820909602 L 820.9097713850854 109.3259480500812 L 820.6986941504321 109.27576121288904 L 820.4887376447207 109.22462271616142 L 820.2799228634268 109.17253767370543 L 820.0722706878545 109.1195112939819 L 819.8658018830483 109.0655488795846 L 819.6605370957167 109.01065582671 L 819.4564968521672 108.95483762461768 L 819.2537015562542 108.89809985508128 L 819.0521714873385 108.84044819183053 L 818.8519267982588 108.78188839998367 L 818.6529875133172 108.7224263354711 L 818.4553735262764 108.66206794444972 L 818.2591045983705 108.60081926270831 L 818.0642003563287 108.53868641506405 L 817.8706802904128 108.47567561474989 L 817.678563752468 108.41179316279337 L 817.4878699539883 108.34704544738645 L 817.2986179641942 108.2814389432467 L 817.1108267081273 108.21498021096988 L 816.9245149647567 108.14767589637383 L 816.7397013651013 108.07953272983391 L 816.5564043903672 108.01055752561001 L 816.3746423700991 107.94075718116505 L 816.1944334803475 107.87013867647532 L 816.0157957418512 107.79870907333245 L 815.8387470182353 107.72647551463722 L 815.6633050142244 107.6534452236853 L 815.489487273873 107.57962550344493 L 815.3173111788101 107.50502373582663 L 815.1467939465017 107.42964738094497 L 814.9779526285291 107.35350397637264 L 814.8108041088832 107.27660113638665 L 814.6453651022769 107.1989465512069 L 814.4816521524726 107.12054798622721 L 814.3196816306294 107.04141328123873 L 814.1594697336641 106.96155034964602 L 814.0010324826329 106.8809671776757 L 813.8443857211291 106.7996718235778 L 813.6895451136983 106.71767241681998 L 813.5365261442719 106.63497715727459 L 813.3853441146197 106.55159431439867 L 813.2360141428184 106.46753222640703 L 813.0885511617408 106.38279929943842 L 812.9429699175623 106.29740400671491 L 812.7992849682859 106.21135488769461 L 812.6575106822867 106.12466054721774 L 812.5176612368753 106.03732965464607 L 812.3797506168795 105.94937094299611 L 812.2437926132465 105.8607932080657 L 812.1098008216634 105.77160530755455 L 811.9777886411977 105.68181616017836 L 811.8477692729573 105.59143474477705 L 811.7197557187708 105.50047009941686 L 811.5937607798869 105.40893132048649 L 811.4697970556946 105.31682756178758 L 811.3478769424629 105.22416803361924 L 811.2280126321015 105.13096200185706 L 811.1102161109416 105.03721878702656 L 810.9944991585371 104.94294776337108 L 810.8808733464869 104.84815835791446 L 810.7693500372775 104.75286004951823 L 810.6599403831468 104.65706236793383 L 810.5526553249691 104.56077489284957 L 810.4475055911608 104.46400725293273 L 810.3445016966078 104.36676912486666 L 810.2436539416135 104.26907023238314 L 810.1449724108694 104.17092034529 L 810.0484669724465 104.07232927849415 L 809.954147276808 103.97330689102013 L 809.862022755845 103.87386308502415 L 809.7721026219328 103.77400780480394 L 809.6843958670099 103.67375103580433 L 809.5989112616786 103.57310280361865 L 809.5156573543284 103.47207317298626 L 809.4346424702803 103.37067224678601 L 809.3558747109555 103.26891016502606 L 809.2793619530643 103.16679710382974 L 809.2051118478184 103.0643432744181 L 809.1331318201669 102.96155892208871 L 809.0634290680522 102.85845432519113 L 808.9960105616917 102.75503979409915 L 808.9308830428797 102.65132567017969 L 808.8680530243138 102.5473223247587 L 808.8075267889436 102.44304015808407 L 808.7493103893421 102.33848959828556 L 808.6934096471009 102.23368110033203 L 808.6398301522474 102.12862514498595 L 808.5885772626866 102.02333223775527 L 808.5396561036648 101.91781290784299 L 808.493071567257 101.81207770709416 L 808.4488283118781 101.70613720894077 L 808.4069307618166 101.60000200734433 L 808.3673831067929 101.49368271573654 L 808.3301893015392 101.387189965958 L 808.2953530654054 101.2805344071949 L 808.2628778819857 101.17372670491429 L 808.2327669987717 101.06677753979733 L 808.2050234268264 100.95969760667145 L 808.1796499404841 100.85249761344073 L 808.1566490770721 100.74518828001514 L 808.1360231366576 100.63778033723861 L 808.1177741818175 100.5302845258159 L 808.1019040374321 100.42271159523858 L 808.0884142905026 100.31507230271008 L 808.0773062899923 100.20737741206993 L 808.0685811466923 100.09963769271747 L 808.0622397331093 99.99186391853482 L 808.0582826833797 99.88406686680962 L 808.056710393205 99.77625731715719 L 808.057523019813 99.66844605044267 L 808.0607204819415 99.56064384770288 L 808.0663024598472 99.45286148906825 L 808.0742683953368 99.34510975268485 L 808.0846174918236 99.23739941363651 L 808.0973487144064 99.12974124286738 L 808.1124607899735 99.02214600610482 L 808.1299522073301 98.91462446278284 L 808.149821217349 98.80718736496618 L 808.1720658331456 98.69984545627509 L 808.196683830277 98.59260947081098 L 808.223672746964 98.48549013208303 L 808.2530298843374 98.37849815193587 L 808.2847523067079 98.27164422947833 L 808.3188368418598 98.16493905001363 L 808.3552800813678 98.05839328397077 L 808.3940783809386 97.9520175858376 L 808.4352278607743 97.84582259309526 L 808.4787244059613 97.73981892515455 L 808.5245636668814 97.6340171822939 L 808.5727410596465 97.52842794459946 L 808.6232517665578 97.423061770907 L 808.6760907365864 97.31792919774607 L 808.7312526858796 97.21304073828638 L 808.7887320982882 97.10840688128647 L 808.8485232259189 97.00403809004486 L 808.9106200897088 96.89994480135368 L 808.9750164800233 96.79613742445507 L 809.0417059572771 96.6926263400002 L 809.110681852578 96.58942189901128 L 809.1819372683938 96.48653442184639 L 809.2554650792424 96.38397419716749 L 809.331257932404 96.28175148091161 L 809.4093082486564 96.17987649526519 L 809.4896082230332 96.07835942764187 L 809.5721498256036 95.97721042966384 L 809.6569248022763 95.8764396161466 L 809.7439246756243 95.77605706408754 L 809.8331407457326 95.67607281165819 L 809.9245640910688 95.57649685720048 L 810.0181855693743 95.47733915822688 L 810.1139958185793 95.37860963042466 L 810.2119852577389 95.28031814666433 L 810.3121440879908 95.18247453601234 L 810.4144622935353 95.08508858274823 L 810.5189296426371 94.98817002538617 L 810.6255356886486 94.89172855570112 L 810.7342697710538 94.79577381775971 L 810.8451210165351 94.70031540695574 L 810.9580783400605 94.60536286905077 L 811.0731304459916 94.51092569921943 L 811.1902658292138 94.41701334110004 L 811.3094727762862 94.32363518585014 L 811.4307393666136 94.23080057120742 L 811.5540534736381 94.13851878055601 L 811.6794027660515 94.04679904199807 L 811.8067747090291 93.955650527431 L 811.936156565483 93.86508235163033 L 812.0675353973351 93.77510357133815 L 812.2008980668116 93.68572318435751 L 812.336231237757 93.59695012865262 L 812.4735213769669 93.5087932814551 L 812.6127547555417 93.42126145837616 L 812.7539174502596 93.33436341252519 L 812.8969953449687 93.24810783363438 L 813.0419741319988 93.1625033471897 L 813.1888393135921 93.07755851356848 L 813.3375762033528 92.9932818271833 L 813.4881699277157 92.90968171563254 L 813.6406054274341 92.82676653885773 L 813.7948674590849 92.74454458830742 L 813.9509405965936 92.66302408610815 L 814.1088092327764 92.58221318424222 L 814.2684575809013 92.50211996373247 L 814.4298696762664 92.4227524338342 L 814.5930293777969 92.34411853123427 L 814.7579203696584 92.26622611925741 L 814.9245261628894 92.1890829870799 L 815.0928300970492 92.11269684895069 L 815.2628153418844 92.0370753434199 L 815.4344648990127 91.9622260325751 L 815.6077616036212 91.888156401285 L 815.7826881261836 91.81487385645099 L 815.9592269741938 91.74238572626649 L 816.1373604939139 91.67069925948411 L 816.3170708721404 91.59982162469079 L 816.4983401379853 91.52975990959095 L 816.681150164673 91.4605211202977 L 816.8654826713532 91.3921121806323 L 817.051319224929 91.32453993143167 L 817.2386412418996 91.25781112986445 L 817.4274299902195 91.1919324487552 L 817.6176665911713 91.12691047591709 L 817.8093320212535 91.06275171349324 L 818.0024071140825 90.99946257730645 L 818.1968725623102 90.93704939621756 L 818.3927089195538 90.87551841149269 L 818.5898966023406 90.81487577617904 L 818.7884158920668 90.75512755448958 L 818.9882469369688 90.69627972119672 L 819.1893697541086 90.63833816103474 L 819.3917642313722 90.58130866811136 L 819.5954101294806 90.52519694532836 L 819.8002870840133 90.47000860381125 L 820.006374607446 90.41574916234819 L 820.2136520911979 90.36242404683813 L 820.4220988076934 90.31003858974816 L 820.6316939124346 90.25859802958036 L 820.8424164460855 90.20810751034786 L 821.0542453365686 90.1585720810605 L 821.2671594011712 90.10999669521995 L 821.4811373486643 90.0623862103243 L 821.6961577814316 90.01574538738238 L 821.9121991976087 89.9700788904376 L 822.1292399932343 89.92539128610161 L 822.3472584644096 89.88168704309761 L 822.5662328094692 89.83897053181346 L 822.786141131161 89.79724602386472 L 823.0069614388361 89.75651769166738 L 823.2286716506478 89.71678960802075 L 823.4512495957597 89.67806574570005 L 823.6746730165627 89.64034997705929 L 823.8989195709008 89.60364607364387 L 824.1239668343057 89.56795770581357 L 824.3497923022385 89.53328844237541 L 824.5763733923405 89.49964175022686 L 824.8036874466917 89.46702099400908 L 825.0317117340758 89.43542943577052 L 825.2604234522543 89.40487023464067 L 825.4897997302459 89.37534644651419 L 825.719817630614 89.34686102374526 L 825.9504541517601 89.31941681485246 L 826.1816862302245 89.29301656423378 L 826.4134907429918 89.2676629118923 L 826.6458445098042 89.2433583931721 L 826.8787242954784 89.22010543850483 L 827.11210681223 89.19790637316656 L 827.3459687220018 89.17676341704532 L 827.5802866387976 89.15667868441913 L 827.8150371310211 89.13765418374449 L 828.0501967238187 89.11969181745562 L 828.2857419014271 89.10279338177418 L 828.5216491095247 89.08696056652965 L 828.7578947575875 89.0721949549904 L 828.9944552212472 89.05849802370521 L 829.231306844655 89.04587114235585 L 829.4684259428457 89.03431557361992 L 829.7057888041071 89.02383247304465 L 829.9433716923509 89.01442288893136 L 830.1811508494861 89.00608776223065 L 830.4191024977955 88.99882792644821 L 830.6572028423122 88.9926441075616 L 830.8954280732004 88.98753692394752 L 831.1337543681354 88.9835068863201 L 831.3721578946864 88.98055439767974 L 831.6106148126993 88.97867975327284 L 831.8491012766812 88.97788314056228 L 832.0875934381842 88.97816463920867 L 832.326067448191 88.97952422106238 L 832.5644994594994 88.98196175016635 L 832.8028656291069 88.98547698276971 L 833.0411421205952 88.99006956735212 L 833.2793051065137 88.99573904465896 L 833.5173307707622 89.00248484774721 L 833.7551953109727 89.0103063020422 L 833.9928749408894 89.019202625405 L 834.2303458927474 89.0291729282107 L 834.4675844196494 89.04021621343732 L 834.7045667979403 89.05233137676555 L 834.9412693295799 89.06551720668914 L 835.1776683445122 89.0797723846361 L 835.4137402030328 89.0950954851005 L 835.6494612981525 89.11148497578507 L 835.8848080579581 89.12893921775441 L 836.11975694797 89.14745646559885 L 836.3542844734948 89.16703486760905 L 836.5883671819755 89.18767246596111 L 836.8219816653362 89.20936719691241 L 837.0551045623233 89.23211689100792 L 837.2877125608414 89.2559192732972 L 837.5197824002845 89.28077196356185 L 837.751290873862 89.30667247655354 L 837.9822148309195 89.33361822224259 L 838.2125311792537 89.36160650607685 L 838.4422168874216 89.39063452925127 L 838.671248987044 89.42069938898774 L 838.8996045751016 89.45179807882532 L 839.1272608162261 89.48392748892095 L 839.3541949449829 89.5170844063604 L 839.5803842681482 89.55126551547954 L 839.8058061669785 89.58646739819596 L 840.0304380994714 89.62268653435072 L 840.2542576026211 89.65991930206037 L 840.4772422946637 89.69816197807918 L 840.6993698773157 89.73741073817143 L 840.9206181380042 89.7776616574938 L 841.1409649520873 89.8189107109879 L 841.3603882850672 89.86115377378276 L 841.5788661947936 89.9043866216073 L 841.7963768336575 89.94860493121277 L 842.0128984507763 89.99380428080505 L 842.2284093941687 90.03998015048685 L 842.44288811292 90.0871279227097 L 842.656313159337 90.13524288273562 L 842.8686631910929 90.18432021910876 L 843.0799169733616 90.23435502413635 L 843.2900533809408 90.28534229437957 L 843.4990514003648 90.33727693115392 L 843.706890132006 90.39015374103897 L 843.9135487921643 90.44396743639781 L 844.119006715146 90.49871263590576 L 844.32324335533 90.55438386508847 L 844.5262382892223 90.6109755568694 L 844.7279712174989 90.66848205212658 L 844.928421967035 90.72689760025837 L 845.1275704929226 90.78621635975864 L 845.3253968804752 90.84643239880089 L 845.5218813472188 90.90753969583137 L 845.7170042448706 90.96953214017132 L 845.9107460613034 91.03240353262795 L 846.1030874224967 91.09614758611443 L 846.2940090944752 91.1607579262785 L 846.4834919852303 91.22622809214002 L 846.6715171466312 91.29255153673692 L 846.8580657763183 91.35972162778006 L 847.043119219584 91.42773164831627 L 847.2266589712383 91.49657479740019 L 847.408666677459 91.56624419077427 L 847.5891241376271 91.63673286155725 L 847.7680133061469 91.70803376094076 L 847.9453162942507 91.78013975889431 L 848.1210153717875 91.85304364487818 L 848.2950929689958 91.92673812856452 L 848.4675316782611 92.00121584056639 L 848.6383142558561 92.07646933317463 L 848.8074236236654 92.15249108110271 L 848.974842870893 92.22927348223918 L 849.1405552557538 92.3068088584079 L 849.3045442071475 92.3850894561359 L 849.4667933263155 92.4641074474286 L 849.6272863884811 92.54385493055275 L 849.786007344472 92.62432393082648 L 849.9429403223245 92.70550640141681 L 850.0980696288718 92.78739422414436 L 850.2513797513127 92.86997921029509 L 850.4028553587624 92.95325310143917 L 850.5524813037865 93.03720757025692 L 850.7002426239153 93.12183422137142 L 850.8461245431398 93.20712459218805 L 850.9901124733897 93.29307015374081 L 851.1321920159919 93.3796623115452 L 851.2723489631106 93.46689240645757 L 851.4105692991678 93.55475171554113 L 851.5468392022452 93.64323145293818 L 851.681145045466 93.73232277074871 L 851.8134733983578 93.8220167599152 L 851.9438110281955 93.91230445111346 L 852.0721449013248 94.00317681564962 L 852.1984621844655 94.09462476636294 L 852.3227502459941 94.18663915853458 L 852.4449966572085 94.27921079080198 L 852.5651891935693 94.37233040607906 L 852.6833158359229 94.46598869248189 L 852.7993647717036 94.56017628425988 L 852.9133243961145 94.65488376273235 L 853.0251833132882 94.75010165723037 L 853.134930337426 94.84582044604385 L 853.2425544939172 94.94203055737364 L 853.3480450204356 95.03872237028881 L 853.4513913680166 95.13588621568863 L 853.5525832021116 95.23351237726953 L 853.6516104036215 95.33159109249674 L 853.7484630699084 95.43011255358043 L 853.8431315157868 95.5290669084566 L 853.9356062744907 95.62844426177223 L 854.0258780986215 95.72823467587482 L 854.1139379610719 95.82842817180608 L 854.199777055929 95.92901473029994 L 854.283386799355 96.02998429278436 L 854.3647588304449 96.13132676238725 L 854.4438850120638 96.23303200494607 L 854.5207574316593 96.33508985002135 L 854.5953684020534 96.4374900919136 L 854.6677104622115 96.54022249068399 L 854.7377763779876 96.64327677317824 L 854.8055591428487 96.746642634054 L 854.8710519785747 96.85030973681128 L 854.9342483359364 96.95426771482623 L 854.9951418953513 97.05850617238767 L 855.0537265675136 97.1630146857367 L 855.1099964940053 97.26778280410907 L 855.1639460478805 97.37280005078027 L 855.2155698342287 97.47805592411314 L 855.2648626907144 97.58353989860805 L 855.311819688093 97.68924142595546 L 855.3564361307039 97.79514993609072 L 855.3987075569399 97.90125483825108 L 855.4386297396937 98.00754552203473 L 855.4761986867804 98.11401135846187 L 855.5114106413364 98.22064170103758 L 855.5442620821957 98.32742588681647 L 855.5747497242417 98.43435323746894 L 855.6028705187354 98.54141306034904 L 855.6286216536207 98.64859464956368 L 855.6520005538059 98.75588728704328 L 855.6730048814202 98.86328024361347 L 855.6916325360485 98.97076278006811 L 855.7078816549407 99.07832414824313 L 855.7217506131987 99.18595359209134 L 855.7332380239379 99.29364034875802 L 855.742342738427 99.40137364965727 L 855.7490638462023 99.50914272154878 L 855.7534006751582 99.61693678761516 L 855.7553527916158 99.72474506853963 M 855.7554737816718 134.0630134831 L 855.7542813217681 134.17082402801663 L 855.750704061302 134.2786237919686 L 855.7447423579968 134.38640199506935 L 855.7363968080174 134.49414785958842 L 855.7256682459122 134.60185061102908 L 855.7125577445283 134.70949947920602 L 855.6970666149051 134.81708369932204 L 855.6791964061425 134.92459251304487 L 855.6589489052465 135.03201516958265 L 855.6363261369503 135.1393409267593 L 855.6113303635119 135.24655905208851 L 855.5839640844879 135.35365882384713 L 855.5542300364833 135.46062953214718 L 855.5221311928782 135.56746048000701 L 855.4876707635301 135.67414098442086 L 855.4508521944533 135.78066037742718 L 855.411679167474 135.88700800717544 L 855.3701555998622 135.99317323899126 L 855.3262856439402 136.09914545643997 L 855.2800736866668 136.2049140623881 L 855.2315243491995 136.31046848006324 L 855.1806424864315 136.41579815411154 L 855.1274331865066 136.5208925516534 L 855.0719017703103 136.62574116333658 L 855.0140537909383 136.7303335043874 L 854.9538950331402 136.8346591156588 L 854.8914315127415 136.9387075646767 L 854.8266694760423 137.0424684466828 L 854.7596153991923 137.14593138567542 L 854.6902759875434 137.24908603544688 L 854.6186581749787 137.35192208061815 L 854.54476912322 137.4544292376704 L 854.468616221111 137.5565972559734 L 854.3902070838782 137.6584159188104 L 854.3095495523701 137.7598750444 L 854.2266516922726 137.86096448691416 L 854.1415217933028 137.96167413749288 L 854.0541683683794 138.06199392525505 L 853.9646001527722 138.1619138183055 L 853.8728261032281 138.26142382473813 L 853.7788553970756 138.3605139936353 L 853.6826974313071 138.4591744160626 L 853.584361821639 138.5573952260601 L 853.4838584015502 138.6551666016286 L 853.3811972212991 138.75247876571203 L 853.276388546918 138.84932198717507 L 853.1694428591871 138.94568658177627 L 853.0603708525862 139.04156291313652 L 852.9491834342249 139.1369413937025 L 852.8358917227523 139.2318124857057 L 852.7205070472454 139.32616670211596 L 852.6030409460753 139.41999460759027 L 852.4835051657544 139.51328681941624 L 852.3619116597612 139.60603400845048 L 852.2382725873448 139.69822690005134 L 852.1126003123094 139.7898562750065 L 851.984907401778 139.88091297045483 L 851.8552066249349 139.97138788080267 L 851.72351095175 140.06127195863436 L 851.5898335516807 140.15055621561703 L 851.4541877923558 140.23923172339937 L 851.316587238238 140.3272896145045 L 851.177045649268 140.41472108321673 L 851.0355769794887 140.501517386462 L 850.892195375649 140.58766984468238 L 850.7469151757898 140.67316984270377 L 850.59975090781 140.75800883059765 L 850.4507172880138 140.8421783245359 L 850.2998292196389 140.9256699076393 L 850.1471017913666 141.00847523081913 L 849.9925502758124 141.09058601361204 L 849.8361901279989 141.17199404500818 L 849.6780369838106 141.25269118427227 L 849.5181066584303 141.3326693617576 L 849.3564151447571 141.41192057971313 L 849.1929786118078 141.49043691308304 L 849.0278134030992 141.56821051029945 L 848.8609360350149 141.64523359406746 L 848.6923631951524 141.72149846214288 L 848.5221117406553 141.79699748810242 L 848.3501986965272 141.87172312210643 L 848.1766412539291 141.94566789165378 L 848.0014567684608 142.01882440232913 L 847.8246627584248 142.0911853385424 L 847.6462769030747 142.16274346426022 L 847.4663170408475 142.2334916237297 L 847.2848011675794 142.3034227421938 L 847.1017474347065 142.372529826599 L 846.9171741474495 142.4408059662944 L 846.7310997629833 142.50824433372296 L 846.5435428885913 142.5748381851041 L 846.3545222798047 142.64058086110825 L 846.1640568385268 142.70546578752254 L 845.9721656111429 142.7694864759084 L 845.7788677866162 142.83263652425032 L 845.5841826945676 142.89490961759617 L 845.3881298033444 142.95629952868842 L 845.1907287180723 143.01680011858718 L 844.9919991786952 143.07640533728383 L 844.7919610580014 143.13510922430623 L 844.5906343596365 143.19290590931453 L 844.3880392161025 143.24978961268846 L 844.1841958867446 143.30575464610504 L 843.9791247557264 143.36079541310758 L 843.7728463299896 143.41490640966524 L 843.5653812372053 143.46808222472345 L 843.3567502237096 143.52031754074505 L 843.1469741524302 143.57160713424193 L 842.9360740007992 143.6219458762975 L 842.7240708586561 143.67132873307952 L 842.5109859261385 143.71975076634342 L 842.2968405115621 143.76720713392626 L 842.0816560292898 143.81369309023083 L 841.8654539975905 143.8592039867002 L 841.6482560364874 143.9037352722827 L 841.4300838655954 143.94728249388683 L 841.2109593019499 143.98984129682677 L 840.9909042578245 144.03140742525764 L 840.7699407385404 144.07197672260128 L 840.5480908402654 144.11154513196175 L 840.3253767478044 144.15010869653108 L 840.1018207323809 144.18766355998494 L 839.8774451494105 144.2242059668683 L 839.6522724362642 144.2597322629709 L 839.4263251100258 144.29423889569279 L 839.1996257652396 144.32772241439937 L 838.9721970716512 144.36017947076672 L 838.7440617719403 144.39160681911628 L 838.515242679447 144.42200131673934 L 838.2857626758897 144.45135992421152 L 838.0556447090777 144.4796797056965 L 837.8249117906156 144.50695782923975 L 837.5935869936033 144.53319156705163 L 837.3616934503274 144.55837829578024 L 837.1292543499493 144.5825154967737 L 836.8962929361852 144.60560075633202 L 836.6628325049822 144.62763176594848 L 836.4288964021893 144.64860632254045 L 836.1945080212213 144.66852232866978 L 835.9596908007213 144.68737779275247 L 835.7244682222157 144.70517082925778 L 835.488863807766 144.72189965889692 L 835.2529011176177 144.73756260880086 L 835.0166037478431 144.75215811268765 L 834.7799953279821 144.76568471101908 L 834.5430995186795 144.77814105114655 L 834.305940009319 144.7895258874465 L 834.0685405156538 144.7998380814447 L 833.8309247774354 144.80907660193043 L 833.5931165560397 144.8172405250593 L 833.3551396320906 144.82432903444578 L 833.1170178030823 144.83034142124487 L 832.8787748809991 144.83527708422287 L 832.6404346899348 144.83913552981764 L 832.4020210637098 144.8419163721878 L 832.163557843488 144.84361933325144 L 831.9250688753929 144.84424424271387 L 831.6865780081223 144.84379103808467 L 831.4481090905645 144.84225976468392 L 831.2096859694122 144.83965057563768 L 830.9713324867793 144.8359637318627 L 830.7330724778149 144.83119960204027 L 830.4949297683216 144.82535866257942 L 830.256928172372 144.81844149756918 L 830.0190914899272 144.81044879872033 L 829.7814435044572 144.8013813652961 L 829.5440079805627 144.79124010403225 L 829.306808661598 144.78002602904647 L 829.0698692672976 144.7677402617369 L 828.8332134914033 144.75438403067005 L 828.5968649992955 144.73995867145788 L 828.3608474256264 144.72446562662432 L 828.1251843719568 144.7079064454609 L 827.8898994043957 144.69028278387196 L 827.6550160512437 144.671596404209 L 827.4205578006404 144.65184917509436 L 827.1865480982156 144.6310430712345 L 826.9530103447441 144.6091801732225 L 826.7199678938073 144.58626266732998 L 826.4874440494556 144.56229284528834 L 826.2554620638797 144.53727310405984 L 826.0240451350851 144.5112059455978 L 825.7932164045716 144.48409397659628 L 825.56299895502 144.45593990822962 L 825.3334158079834 144.4267465558812 L 825.1044899215851 144.3965168388619 L 824.8762441882232 144.36525378011828 L 824.6487014322805 144.3329605059301 L 824.4218844078432 144.2996402455979 L 824.1958157964248 144.26529633111994 L 823.9705182046978 144.22993219685907 L 823.7460141622337 144.19355137919922 L 823.5223261192498 144.15615751619185 L 823.2994764443639 144.1177543471921 L 823.0774874223578 144.07834571248486 L 822.8563812519487 144.03793555290076 L 822.6361800435693 143.9965279094221 L 822.4169058171572 143.9541269227787 L 822.198580499952 143.9107368330339 L 821.9812259243035 143.8663619791605 L 821.7648638254885 143.82100679860693 L 821.5495158395362 143.77467582685347 L 821.335203501066 143.72737369695864 L 821.1219482411328 143.679105139096 L 820.9097713850854 143.62987498008118 L 820.6986941504321 143.579688142889 L 820.4887376447207 143.52854964616142 L 820.2799228634268 143.4764646037054 L 820.0722706878545 143.4234382239819 L 819.8658018830483 143.36947580958457 L 819.6605370957167 143.31458275671 L 819.4564968521672 143.25876455461767 L 819.2537015562542 143.20202678508127 L 819.0521714873385 143.1443751218305 L 818.8519267982588 143.08581532998366 L 818.6529875133172 143.02635326547107 L 818.4553735262764 142.9659948744497 L 818.2591045983705 142.9047461927083 L 818.0642003563287 142.84261334506402 L 817.8706802904128 142.77960254474988 L 817.678563752468 142.71572009279336 L 817.4878699539883 142.65097237738644 L 817.2986179641942 142.5853658732467 L 817.1108267081273 142.51890714096987 L 816.9245149647567 142.4516028263738 L 816.7397013651013 142.3834596598339 L 816.5564043903672 142.31448445561 L 816.3746423700991 142.24468411116504 L 816.1944334803475 142.17406560647532 L 816.0157957418512 142.10263600333244 L 815.8387470182353 142.03040244463722 L 815.6633050142244 141.9573721536853 L 815.489487273873 141.88355243344492 L 815.3173111788101 141.80895066582661 L 815.1467939465017 141.73357431094496 L 814.9779526285291 141.65743090637264 L 814.8108041088832 141.58052806638665 L 814.6453651022769 141.5028734812069 L 814.4816521524726 141.42447491622718 L 814.3196816306294 141.34534021123872 L 814.1594697336641 141.265477279646 L 814.0010324826329 141.1848941076757 L 813.8443857211291 141.10359875357778 L 813.6895451136983 141.02159934681995 L 813.5365261442719 140.93890408727458 L 813.3853441146197 140.85552124439866 L 813.2360141428184 140.77145915640702 L 813.0885511617408 140.68672622943842 L 812.9429699175623 140.6013309367149 L 812.7992849682859 140.5152818176946 L 812.6575106822867 140.42858747721772 L 812.5176612368753 140.34125658464606 L 812.3797506168795 140.2532978729961 L 812.2437926132465 140.1647201380657 L 812.1098008216634 140.07553223755454 L 811.9777886411977 139.98574309017835 L 811.8477692729573 139.89536167477704 L 811.7197557187708 139.80439702941683 L 811.5937607798869 139.71285825048648 L 811.4697970556946 139.62075449178758 L 811.3478769424629 139.52809496361922 L 811.2280126321015 139.43488893185705 L 811.1102161109416 139.34114571702654 L 810.9944991585371 139.24687469337107 L 810.8808733464869 139.15208528791445 L 810.7693500372775 139.05678697951822 L 810.6599403831468 138.96098929793382 L 810.5526553249691 138.86470182284955 L 810.4475055911608 138.76793418293272 L 810.3445016966078 138.67069605486665 L 810.2436539416135 138.57299716238313 L 810.1449724108694 138.47484727529 L 810.0484669724465 138.37625620849414 L 809.954147276808 138.27723382102013 L 809.862022755845 138.17779001502413 L 809.7721026219328 138.07793473480393 L 809.6843958670099 137.9776779658043 L 809.5989112616786 137.87702973361863 L 809.5156573543284 137.77600010298625 L 809.4346424702803 137.67459917678602 L 809.3558747109555 137.57283709502605 L 809.2793619530643 137.47072403382973 L 809.2051118478184 137.3682702044181 L 809.1331318201669 137.26548585208872 L 809.0634290680522 137.16238125519112 L 808.9960105616917 137.05896672409915 L 808.9308830428797 136.95525260017968 L 808.8680530243138 136.8512492547587 L 808.8075267889436 136.74696708808406 L 808.7493103893421 136.64241652828557 L 808.6934096471009 136.53760803033202 L 808.6398301522474 136.43255207498592 L 808.5885772626866 136.32725916775524 L 808.5396561036648 136.22173983784296 L 808.493071567257 136.11600463709416 L 808.4488283118781 136.01006413894075 L 808.4069307618166 135.90392893734432 L 808.3673831067929 135.79760964573654 L 808.3301893015392 135.69111689595798 L 808.2953530654054 135.5844613371949 L 808.2628778819857 135.47765363491428 L 808.2327669987717 135.37070446979732 L 808.2050234268264 135.26362453667144 L 808.1796499404841 135.15642454344072 L 808.1566490770721 135.04911521001512 L 808.1360231366576 134.9417072672386 L 808.1177741818175 134.83421145581588 L 808.1019040374321 134.72663852523857 L 808.0884142905026 134.61899923271008 L 808.0773062899923 134.5113043420699 L 808.0685811466923 134.40356462271745 L 808.0622397331093 134.2957908485348 L 808.0582826833797 134.1879937968096 L 808.056710393205 134.08018424715718" stroke-miterlimit="10" stroke-width="2.7769845610000004" stroke-dasharray=""/></g><g><g/><text fill="black" stroke="none" font-family="sans-serif" font-size="11pt" font-style="normal" font-weight="normal" text-decoration="normal" x="791.5624948103515" y="162.371920802" text-anchor="start" dominant-baseline="alphabetic" xml:space="preserve">SpDatabase</text></g></g><g><path fill="white" stroke="black" paint-order="fill stroke markers" d=" M 51.62498385214844 175.440083442 L 67.96018715214844 175.440083442 L 67.96018715214844 490.70950713200006 L 51.62498385214844 490.70950713200006 L 51.62498385214844 175.440083442" stroke-miterlimit="10" stroke-width="1.3612669416666667" stroke-dasharray=""/><path fill="white" stroke="black" paint-order="fill stroke markers" d=" M 494.10771401119786 175.440083442 L 510.44291731119785 175.440083442 L 510.44291731119785 449.871498882 L 494.10771401119786 449.871498882 L 494.10771401119786 175.440083442" stroke-miterlimit="10" stroke-width="1.3612669416666667" stroke-dasharray=""/><path fill="white" stroke="black" paint-order="fill stroke markers" d=" M 312.79470173216146 221.178652682 L 329.12990503216145 221.178652682 L 329.12990503216145 358.394360402 L 312.79470173216146 358.394360402 L 312.79470173216146 221.178652682" stroke-miterlimit="10" stroke-width="1.3612669416666667" stroke-dasharray=""/><path fill="white" stroke="black" paint-order="fill stroke markers" d=" M 823.7384753136718 404.132929642 L 840.0736786136719 404.132929642 L 840.0736786136719 449.871498882 L 823.7384753136718 449.871498882 L 823.7384753136718 404.132929642" stroke-miterlimit="10" stroke-width="1.3612669416666667" stroke-dasharray=""/><g><text fill="black" stroke="none" font-family="sans-serif" font-size="11pt" font-style="normal" font-weight="normal" text-decoration="normal" x="361.09627991962884" y="214.644571362" text-anchor="start" dominant-baseline="alphabetic" xml:space="preserve">Get channel list</text></g><g><path fill="none" stroke="black" paint-order="fill stroke markers" d=" M 494.10771401119786 221.178652682 L 331.85243891549476 221.178652682" stroke-miterlimit="10" stroke-width="1.3612669416666667" stroke-dasharray=""/><g transform="translate(329.12990503216145,221.178652682) translate(-329.12990503216145,-221.178652682)"><path fill="black" stroke="none" paint-order="stroke fill markers" d=" M 342.7425744488281 214.37231797366667 L 329.12990503216145 221.178652682 L 342.7425744488281 227.98498739033334 Z"/></g></g><g><text fill="black" stroke="none" font-family="sans-serif" font-size="11pt" font-style="normal" font-weight="normal" text-decoration="normal" x="124.36816709840497" y="260.383140602" text-anchor="start" dominant-baseline="alphabetic" xml:space="preserve">Request channel list</text></g><g><path fill="none" stroke="black" paint-order="fill stroke markers" d=" M 312.79470173216146 266.917221922 L 70.68272103548176 266.917221922" stroke-miterlimit="10" stroke-width="1.3612669416666667" stroke-dasharray=""/><g transform="translate(67.96018715214844,266.917221922) translate(-67.96018715214844,-266.917221922)"><path fill="black" stroke="none" paint-order="stroke fill markers" d=" M 81.5728565688151 260.1108872136667 L 67.96018715214844 266.917221922 L 81.5728565688151 273.72355663033335 Z"/></g></g><g><text fill="black" stroke="none" font-family="sans-serif" font-size="11pt" font-style="normal" font-weight="normal" text-decoration="normal" x="116.62658232057294" y="306.121709842" text-anchor="start" dominant-baseline="alphabetic" xml:space="preserve">Responds channel list </text></g><g><path fill="none" stroke="black" paint-order="fill stroke markers" d=" M 67.96018715214844 312.655791162 L 310.07216784882814 312.655791162" stroke-miterlimit="10" stroke-width="1.3612669416666667" stroke-dasharray="6.53408132"/><g transform="translate(312.79470173216146,312.655791162) translate(-312.79470173216146,-312.655791162)"><path fill="black" stroke="none" paint-order="stroke fill markers" d=" M 299.1820323154948 305.8494564536667 L 312.79470173216146 312.655791162 L 299.1820323154948 319.46212587033335 Z"/></g></g><g><text fill="black" stroke="none" font-family="sans-serif" font-size="11pt" font-style="normal" font-weight="normal" text-decoration="normal" x="350.91017609882806" y="351.860279082" text-anchor="start" dominant-baseline="alphabetic" xml:space="preserve">Return channel list</text></g><g><path fill="none" stroke="black" paint-order="fill stroke markers" d=" M 329.12990503216145 358.394360402 L 491.38518012786454 358.394360402" stroke-miterlimit="10" stroke-width="1.3612669416666667" stroke-dasharray="6.53408132"/><g transform="translate(494.10771401119786,358.394360402) translate(-494.10771401119786,-358.394360402)"><path fill="black" stroke="none" paint-order="stroke fill markers" d=" M 480.4950445945312 351.5880256936667 L 494.10771401119786 358.394360402 L 480.4950445945312 365.20069511033336 Z"/></g></g><g><text fill="black" stroke="none" font-family="sans-serif" font-size="11pt" font-style="normal" font-weight="normal" text-decoration="normal" x="532.2231883778645" y="397.598848322" text-anchor="start" dominant-baseline="alphabetic" xml:space="preserve">Create channels (bulk update or iteration)</text></g><g><path fill="none" stroke="black" paint-order="fill stroke markers" d=" M 510.44291731119785 404.132929642 L 821.0159414303384 404.132929642" stroke-miterlimit="10" stroke-width="1.3612669416666667" stroke-dasharray=""/><g transform="translate(823.7384753136718,404.132929642) translate(-823.7384753136718,-404.132929642)"><path fill="black" stroke="none" paint-order="stroke fill markers" d=" M 810.1258058970051 397.3265949336667 L 823.7384753136718 404.132929642 L 810.1258058970051 410.93926435033336 Z"/></g></g><g><text fill="black" stroke="none" font-family="sans-serif" font-size="11pt" font-style="normal" font-weight="normal" text-decoration="normal" x="564.4243068471028" y="443.337417562" text-anchor="start" dominant-baseline="alphabetic" xml:space="preserve">Return instances / Confirmation</text></g><g><path fill="none" stroke="black" paint-order="fill stroke markers" d=" M 823.7384753136718 449.871498882 L 513.1654511945312 449.871498882" stroke-miterlimit="10" stroke-width="1.3612669416666667" stroke-dasharray="6.53408132"/><g transform="translate(510.44291731119785,449.871498882) translate(-510.44291731119785,-449.871498882)"><path fill="black" stroke="none" paint-order="stroke fill markers" d=" M 524.0555867278645 443.0651641736667 L 510.44291731119785 449.871498882 L 524.0555867278645 456.67783359033336 Z"/></g></g></g><g/><g/><g/><g/></g></svg>