<svg version="1.1" xmlns="http://www.w3.org/2000/svg" xmlns:xlink="http://www.w3.org/1999/xlink" width="1280" height="1238"><defs/><g><g/><g/><g/><g/><g/><g/><g/><g/><g/><g/><g/><g/><g/><g/><g/><g/><g/><g/><g/><g/><g/><g/><g/><g/><g><rect fill="white" stroke="none" x="0" y="0" width="1280" height="1238"/></g><g><text fill="black" stroke="none" font-family="sans-serif" font-size="16.5pt" font-style="normal" font-weight="normal" text-decoration="normal" x="538.4809557977917" y="24.50280495" text-anchor="start" dominant-baseline="alphabetic" xml:space="preserve">Get Workspace Data</text></g><g><g><path fill="#9F5F9F" stroke="black" paint-order="fill stroke markers" d=" M 8.167601650000003 58.5617038305 L 111.41756935429687 58.5617038305 L 111.41756935429687 1204.5578913419995 L 8.167601650000003 1204.5578913419995 L 8.167601650000003 58.5617038305" stroke-miterlimit="10" stroke-width="1.3612669416666667" stroke-dasharray=""/></g><g><text fill="black" stroke="none" font-family="sans-serif" font-size="11pt" font-style="normal" font-weight="bold" text-decoration="normal" x="40.63725865888672" y="81.43098845050001" text-anchor="start" dominant-baseline="alphabetic" xml:space="preserve">Slack</text></g><g><path fill="none" stroke="black" paint-order="fill stroke markers" d=" M 228.02021137571614 50.394102180500006 L 1272.5843490080833 50.394102180500006 L 1272.5843490080833 1204.5578913419995 L 228.02021137571614 1204.5578913419995 L 228.02021137571614 50.394102180500006" stroke-miterlimit="10" stroke-width="1.3612669416666667" stroke-dasharray=""/></g><g><text fill="black" stroke="none" font-family="sans-serif" font-size="11pt" font-style="normal" font-weight="bold" text-decoration="normal" x="671.2507588906302" y="73.2633868005" text-anchor="start" dominant-baseline="alphabetic" xml:space="preserve">Service Provider Slack</text></g></g><g><path fill="none" stroke="black" paint-order="fill stroke markers" d=" M 59.79258550214844 167.272481792 L 59.79258550214844 1238.8618182719995" stroke-miterlimit="10" stroke-width="1.3612669416666667" stroke-dasharray="12.565541,5.445067766666667"/><path fill="none" stroke="black" paint-order="fill stroke markers" d=" M 286.2987444222005 167.272481792 L 286.2987444222005 1238.8618182719995" stroke-miterlimit="10" stroke-width="1.3612669416666667" stroke-dasharray="12.565541,5.445067766666667"/><path fill="none" stroke="black" paint-order="fill stroke markers" d=" M 417.7176932151367 167.272481792 L 417.7176932151367 1238.8618182719995" stroke-miterlimit="10" stroke-width="1.3612669416666667" stroke-dasharray="12.565541,5.445067766666667"/><path fill="none" stroke="black" paint-order="fill stroke markers" d=" M 521.6390155496523 167.272481792 L 521.6390155496523 1238.8618182719995" stroke-miterlimit="10" stroke-width="1.3612669416666667" stroke-dasharray="12.565541,5.445067766666667"/><path fill="none" stroke="black" paint-order="fill stroke markers" d=" M 709.4588332486106 167.272481792 L 709.4588332486106 1238.8618182719995" stroke-miterlimit="10" stroke-width="1.3612669416666667" stroke-dasharray="12.565541,5.445067766666667"/><path fill="none" stroke="black" paint-order="fill stroke markers" d=" M 843.096700777289 167.272481792 L 843.096700777289 1238.8618182719995" stroke-miterlimit="10" stroke-width="1.3612669416666667" stroke-dasharray="12.565541,5.445067766666667"/><path fill="none" stroke="black" paint-order="fill stroke markers" d=" M 1033.584932991026 167.272481792 L 1033.584932991026 1238.8618182719995" stroke-miterlimit="10" stroke-width="1.3612669416666667" stroke-dasharray="12.565541,5.445067766666667"/><path fill="none" stroke="black" paint-order="fill stroke markers" d=" M 1224.073165204763 167.272481792 L 1224.073165204763 1238.8618182719995" stroke-miterlimit="10" stroke-width="1.3612669416666667" stroke-dasharray="12.565541,5.445067766666667"/></g><g><g><path fill="white" stroke="black" paint-order="fill stroke markers" d=" M 92.21796405264844 120.39044832100001 A 24.2577769005 24.2577769005 0 1 1 92.21795192376099 120.36619054814246 M 28.755699232148434 94.74417914 L 28.755699232148434 146.03671750200002 M 27.367206951648434 120.39044832100001 L 43.70241025164844 120.39044832100001" stroke-miterlimit="10" stroke-width="2.7769845610000004" stroke-dasharray=""/></g><g><g/><text fill="black" stroke="none" font-family="sans-serif" font-size="11pt" font-style="normal" font-weight="normal" text-decoration="normal" x="16.335203300000003" y="162.371920802" text-anchor="start" dominant-baseline="alphabetic" xml:space="preserve">SlackWebApi</text></g><g><path fill="white" stroke="black" paint-order="fill stroke markers" d=" M 318.7241229727005 120.39044832100001 A 24.2577769005 24.2577769005 0 1 1 318.7241108438131 120.36619054814246 M 255.26185815220052 94.74417914 L 255.26185815220052 146.03671750200002 M 253.8733658717005 120.39044832100001 L 270.2085691717005 120.39044832100001" stroke-miterlimit="10" stroke-width="2.7769845610000004" stroke-dasharray=""/></g><g><g/><text fill="black" stroke="none" font-family="sans-serif" font-size="11pt" font-style="normal" font-weight="normal" text-decoration="normal" x="236.18781302571614" y="162.371920802" text-anchor="start" dominant-baseline="alphabetic" xml:space="preserve">SpUserHandler</text></g><g><path fill="white" stroke="black" paint-order="fill stroke markers" d=" M 450.1430717656367 120.39044832100001 A 24.2577769005 24.2577769005 0 1 1 450.1430596367493 120.36619054814246 M 386.6808069451367 94.74417914 L 386.6808069451367 146.03671750200002 M 385.2923146646367 120.39044832100001 L 401.6275179646367 120.39044832100001" stroke-miterlimit="10" stroke-width="2.7769845610000004" stroke-dasharray=""/></g><g><g/><text fill="black" stroke="none" font-family="sans-serif" font-size="11pt" font-style="normal" font-weight="normal" text-decoration="normal" x="355.7778433616211" y="162.371920802" text-anchor="start" dominant-baseline="alphabetic" xml:space="preserve">SpChannelHandler</text></g><g><path fill="white" stroke="black" paint-order="fill stroke markers" d=" M 545.8967924501522 118.16886067220001 A 24.2577769005 24.2577769005 0 1 1 545.8967803212648 118.14460289934246 M 495.9927463686523 144.6482252215 L 544.5083001696522 144.6482252215" stroke-miterlimit="10" stroke-width="2.7769845610000004" stroke-dasharray=""/></g><g><g/><text fill="black" stroke="none" font-family="sans-serif" font-size="11pt" font-style="normal" font-weight="normal" text-decoration="normal" x="499.6311496438906" y="162.371920802" text-anchor="start" dominant-baseline="alphabetic" xml:space="preserve">SpApp</text></g><g><path fill="white" stroke="black" paint-order="fill stroke markers" d=" M 733.7166101491106 120.39044832100001 A 24.2577769005 24.2577769005 0 1 1 733.7165980202232 120.36619054814246 M 706.1917925886106 96.1326714205 L 715.9929145686106 87.96506977050001 M 706.1917925886106 96.1326714205 L 715.9929145686106 104.3002730705" stroke-miterlimit="10" stroke-width="2.7769845610000004" stroke-dasharray=""/></g><g><g/><text fill="black" stroke="none" font-family="sans-serif" font-size="11pt" font-style="normal" font-weight="normal" text-decoration="normal" x="660.5755400967552" y="162.371920802" text-anchor="start" dominant-baseline="alphabetic" xml:space="preserve">SpUserService</text></g><g><path fill="white" stroke="black" paint-order="fill stroke markers" d=" M 867.354477677789 120.39044832100001 A 24.2577769005 24.2577769005 0 1 1 867.3544655489015 120.36619054814246 M 839.829660117289 96.1326714205 L 849.6307820972889 87.96506977050001 M 839.829660117289 96.1326714205 L 849.6307820972889 104.3002730705" stroke-miterlimit="10" stroke-width="2.7769845610000004" stroke-dasharray=""/></g><g><g/><text fill="black" stroke="none" font-family="sans-serif" font-size="11pt" font-style="normal" font-weight="normal" text-decoration="normal" x="782.3844891684023" y="162.371920802" text-anchor="start" dominant-baseline="alphabetic" xml:space="preserve">SpChannelService</text></g><g><path fill="white" stroke="black" paint-order="fill stroke markers" d=" M 1057.842709891526 118.16886067220001 A 24.2577769005 24.2577769005 0 1 1 1057.8426977626386 118.14460289934246 M 1007.9386638100261 144.6482252215 L 1056.454217611026 144.6482252215" stroke-miterlimit="10" stroke-width="2.7769845610000004" stroke-dasharray=""/></g><g><g/><text fill="black" stroke="none" font-family="sans-serif" font-size="11pt" font-style="normal" font-weight="normal" text-decoration="normal" x="1003.4310404739363" y="162.371920802" text-anchor="start" dominant-baseline="alphabetic" xml:space="preserve">SpCache</text></g><g><path fill="white" stroke="black" paint-order="fill stroke markers" d=" M 1200.223768386763 135.255483324 L 1200.223768386763 100.95155639400002 L 1247.922562022763 100.95155639400002 L 1247.922562022763 135.255483324" stroke-miterlimit="10" stroke-width="2.7769845610000004" stroke-dasharray=""/><path fill="white" stroke="black" paint-order="fill stroke markers" d=" M 1247.922562022763 99.75908655310002 L 1247.9213695628594 99.86689709801664 L 1247.9177923023933 99.97469686196861 L 1247.9118305990878 100.08247506506937 L 1247.9034850491087 100.19022092958842 L 1247.8927564870035 100.2979236810291 L 1247.8796459856196 100.40557254920603 L 1247.8641548559963 100.51315676932207 L 1247.8462846472337 100.62066558304487 L 1247.8260371463377 100.72808823958268 L 1247.8034143780415 100.83541399675931 L 1247.778418604603 100.94263212208854 L 1247.7510523255792 101.04973189384714 L 1247.7213182775745 101.1567026021472 L 1247.6892194339694 101.26353355000704 L 1247.6547590046212 101.37021405442088 L 1247.6179404355444 101.4767334474272 L 1247.5787674085652 101.58308107717545 L 1247.5372438409534 101.68924630899127 L 1247.4933738850314 101.79521852643998 L 1247.447161927758 101.90098713238812 L 1247.3986125902907 102.00654155006325 L 1247.3477307275227 102.11187122411154 L 1247.2945214275976 102.21696562165339 L 1247.2389900114015 102.32181423333661 L 1247.1811420320296 102.4264065743874 L 1247.1209832742313 102.53073218565882 L 1247.0585197538326 102.63478063467669 L 1246.9937577171336 102.7385415166828 L 1246.9267036402834 102.84200445567542 L 1246.8573642286344 102.94515910544688 L 1246.78574641607 103.04799515061815 L 1246.7118573643113 103.15050230767042 L 1246.635704462202 103.2526703259734 L 1246.5572953249693 103.3544889888104 L 1246.4766377934614 103.4559481144 L 1246.3937399333638 103.55703755691417 L 1246.308610034394 103.6577472074929 L 1246.2212566094706 103.75806699525508 L 1246.1316883938634 103.8579868883055 L 1246.0399143443192 103.95749689473814 L 1245.945943638167 104.05658706363529 L 1245.8497856723984 104.15524748606262 L 1245.75145006273 104.25346829606012 L 1245.6509466426414 104.35123967162862 L 1245.5482854623901 104.44855183571204 L 1245.443476788009 104.54539505717509 L 1245.3365311002783 104.6417596517763 L 1245.2274590936775 104.73763598313651 L 1245.116271675316 104.83301446370251 L 1245.0029799638435 104.92788555570571 L 1244.8875952883366 105.02223977211597 L 1244.7701291871665 105.11606767759027 L 1244.6505934068457 105.20935988941625 L 1244.5289999008523 105.30210707845049 L 1244.405360828436 105.39429997005135 L 1244.2796885534005 105.48592934500653 L 1244.151995642869 105.57698604045486 L 1244.0222948660262 105.66746095080268 L 1243.8905991928411 105.75734502863436 L 1243.756921792772 105.84662928561703 L 1243.621276033447 105.93530479339938 L 1243.4836754793291 106.02336268450453 L 1243.3441338903592 106.11079415321676 L 1243.20266522058 106.19759045646204 L 1243.0592836167402 106.28374291468239 L 1242.9140034168809 106.36924291270377 L 1242.7668391489012 106.45408190059764 L 1242.617805529105 106.5382513945359 L 1242.4669174607302 106.62174297763931 L 1242.3141900324579 106.70454830081913 L 1242.1596385169034 106.78665908361204 L 1242.00327836909 106.86806711500819 L 1241.8451252249017 106.94876425427228 L 1241.6851948995215 107.02874243175762 L 1241.5235033858482 107.10799364971314 L 1241.3600668528989 107.18650998308306 L 1241.1949016441904 107.26428358029946 L 1241.0280242761062 107.34130666406747 L 1240.8594514362437 107.41757153214289 L 1240.6891999817465 107.49307055810243 L 1240.5172869376183 107.56779619210644 L 1240.3437294950204 107.6417409616538 L 1240.168545009552 107.71489747232916 L 1239.991750999516 107.7872584085424 L 1239.8133651441658 107.85881653426023 L 1239.6334052819386 107.9295646937297 L 1239.4518894086705 107.9994958121938 L 1239.2688356757976 108.06860289659899 L 1239.0842623885405 108.1368790362944 L 1238.8981880040744 108.20431740372297 L 1238.7106311296825 108.27091125510412 L 1238.5216105208958 108.33665393110826 L 1238.331145079618 108.40153885752254 L 1238.139253852234 108.46555954590839 L 1237.9459560277073 108.52870959425034 L 1237.7512709356588 108.59098268759617 L 1237.5552180444356 108.65237259868843 L 1237.3578169591635 108.71287318858718 L 1237.1590874197864 108.77247840728386 L 1236.9590492990926 108.83118229430623 L 1236.7577226007277 108.88897897931456 L 1236.5551274571935 108.94586268268847 L 1236.351284127836 109.00182771610504 L 1236.1462129968174 109.05686848310758 L 1235.9399345710808 109.11097947966525 L 1235.7324694782965 109.16415529472346 L 1235.5238384648007 109.21639061074505 L 1235.3140623935212 109.26768020424194 L 1235.1031622418902 109.31801894629751 L 1234.8911590997473 109.36740180307952 L 1234.6780741672296 109.41582383634344 L 1234.4639287526531 109.46328020392627 L 1234.248744270381 109.50976616023082 L 1234.0325422386818 109.55527705670022 L 1233.8153442775786 109.5998083422827 L 1233.5971721066865 109.64335556388684 L 1233.378047543041 109.68591436682678 L 1233.1579924989157 109.72748049525767 L 1232.9370289796316 109.7680497926013 L 1232.7151790813566 109.80761820196176 L 1232.4924649888956 109.84618176653109 L 1232.2689089734722 109.88373662998495 L 1232.0445333905016 109.92027903686831 L 1231.8193606773552 109.95580533297093 L 1231.5934133511169 109.99031196569278 L 1231.3667140063308 110.02379548439939 L 1231.1392853127422 110.05625254076675 L 1230.9111500130316 110.08767988911629 L 1230.682330920538 110.11807438673935 L 1230.4528509169809 110.14743299421153 L 1230.2227329501688 110.17575277569651 L 1229.9920000317068 110.20303089923975 L 1229.7606752346944 110.22926463705164 L 1229.5287816914185 110.25445136578027 L 1229.2963425910405 110.27858856677372 L 1229.0633811772764 110.30167382633203 L 1228.8299207460734 110.32370483594849 L 1228.5959846432804 110.34467939254047 L 1228.3615962623126 110.3645953986698 L 1228.1267790418126 110.38345086275248 L 1227.8915564633069 110.40124389925779 L 1227.6559520488572 110.41797272889693 L 1227.419989358709 110.43363567880087 L 1227.1836919889342 110.44823118268765 L 1226.9470835690731 110.46175778101907 L 1226.7101877597706 110.47421412114657 L 1226.4730282504102 110.4855989574465 L 1226.235628756745 110.49591115144473 L 1225.9980130185265 110.50514967193044 L 1225.7602047971309 110.5133135950593 L 1225.522227873182 110.5204021044458 L 1225.2841060441735 110.52641449124488 L 1225.0458631220902 110.53135015422289 L 1224.807522931026 110.53520859981765 L 1224.5691093048008 110.53798944218781 L 1224.3306460845793 110.53969240325145 L 1224.092157116484 110.54031731271388 L 1223.8536662492136 110.53986410808467 L 1223.6151973316557 110.53833283468393 L 1223.3767742105035 110.5357236456377 L 1223.1384207278704 110.53203680186272 L 1222.9001607189061 110.52727267204028 L 1222.6620180094128 110.52143173257942 L 1222.424016413463 110.5145145675692 L 1222.1861797310182 110.50652186872036 L 1221.9485317455483 110.4974544352961 L 1221.7110962216539 110.48731317403227 L 1221.4738969026891 110.47609909904648 L 1221.2369575083887 110.46381333173692 L 1221.0003017324943 110.45045710067006 L 1220.7639532403866 110.4360317414579 L 1220.5279356667177 110.42053869662433 L 1220.292272613048 110.40397951546092 L 1220.056987645487 110.38635585387198 L 1219.8221042923349 110.367669474209 L 1219.5876460417317 110.34792224509437 L 1219.3536363393066 110.32711614123453 L 1219.1200985858354 110.30525324322254 L 1218.8870561348983 110.28233573732997 L 1218.6545322905467 110.25836591528834 L 1218.4225503049709 110.23334617405986 L 1218.1911333761761 110.2072790155978 L 1217.9603046456627 110.18016704659628 L 1217.730087196111 110.15201297822964 L 1217.5005040490746 110.1228196258812 L 1217.2715781626764 110.09258990886192 L 1217.0433324293144 110.06132685011828 L 1216.8157896733717 110.0290335759301 L 1216.5889726489345 109.99571331559791 L 1216.3629040375158 109.96136940111997 L 1216.1376064457888 109.9260052668591 L 1215.913102403325 109.88962444919923 L 1215.689414360341 109.85223058619187 L 1215.466564685455 109.81382741719212 L 1215.244575663449 109.77441878248487 L 1215.0234694930398 109.73400862290077 L 1214.8032682846606 109.6926009794221 L 1214.5839940582482 109.6501999927787 L 1214.365668741043 109.60680990303389 L 1214.1483141653948 109.56243504916051 L 1213.9319520665797 109.51707986860694 L 1213.7166040806273 109.47074889685346 L 1213.502291742157 109.42344676695863 L 1213.289036482224 109.37517820909602 L 1213.0768596261764 109.3259480500812 L 1212.8657823915232 109.27576121288904 L 1212.655825885812 109.22462271616142 L 1212.447011104518 109.17253767370543 L 1212.2393589289456 109.1195112939819 L 1212.0328901241394 109.0655488795846 L 1211.8276253368078 109.01065582671 L 1211.6235850932583 108.95483762461768 L 1211.4207897973454 108.89809985508128 L 1211.2192597284297 108.84044819183053 L 1211.0190150393498 108.78188839998367 L 1210.8200757544084 108.7224263354711 L 1210.6224617673677 108.66206794444972 L 1210.4261928394617 108.60081926270831 L 1210.23128859742 108.53868641506405 L 1210.0377685315038 108.47567561474989 L 1209.8456519935592 108.41179316279337 L 1209.6549581950794 108.34704544738645 L 1209.4657062052854 108.2814389432467 L 1209.2779149492185 108.21498021096988 L 1209.0916032058478 108.14767589637383 L 1208.9067896061924 108.07953272983391 L 1208.7234926314584 108.01055752561001 L 1208.5417306111901 107.94075718116505 L 1208.3615217214385 107.87013867647532 L 1208.1828839829423 107.79870907333245 L 1208.0058352593264 107.72647551463722 L 1207.8303932553156 107.6534452236853 L 1207.656575514964 107.57962550344493 L 1207.4843994199011 107.50502373582663 L 1207.313882187593 107.42964738094497 L 1207.1450408696203 107.35350397637264 L 1206.9778923499744 107.27660113638665 L 1206.812453343368 107.1989465512069 L 1206.648740393564 107.12054798622721 L 1206.4867698717205 107.04141328123873 L 1206.3265579747551 106.96155034964602 L 1206.168120723724 106.8809671776757 L 1206.0114739622204 106.7996718235778 L 1205.8566333547894 106.71767241681998 L 1205.7036143853632 106.63497715727459 L 1205.5524323557108 106.55159431439867 L 1205.4031023839095 106.46753222640703 L 1205.255639402832 106.38279929943842 L 1205.1100581586536 106.29740400671491 L 1204.966373209377 106.21135488769461 L 1204.8245989233778 106.12466054721774 L 1204.6847494779663 106.03732965464607 L 1204.5468388579707 105.94937094299611 L 1204.4108808543376 105.8607932080657 L 1204.2768890627547 105.77160530755455 L 1204.1448768822888 105.68181616017836 L 1204.0148575140486 105.59143474477705 L 1203.886843959862 105.50047009941686 L 1203.7608490209782 105.40893132048649 L 1203.6368852967857 105.31682756178758 L 1203.514965183554 105.22416803361924 L 1203.3951008731926 105.13096200185706 L 1203.2773043520326 105.03721878702656 L 1203.1615873996282 104.94294776337108 L 1203.0479615875781 104.84815835791446 L 1202.9364382783685 104.75286004951823 L 1202.827028624238 104.65706236793383 L 1202.7197435660603 104.56077489284957 L 1202.614593832252 104.46400725293273 L 1202.511589937699 104.36676912486666 L 1202.4107421827048 104.26907023238314 L 1202.3120606519606 104.17092034529 L 1202.2155552135378 104.07232927849415 L 1202.121235517899 103.97330689102013 L 1202.0291109969362 103.87386308502415 L 1201.9391908630241 103.77400780480394 L 1201.851484108101 103.67375103580433 L 1201.7659995027698 103.57310280361865 L 1201.6827455954194 103.47207317298626 L 1201.6017307113716 103.37067224678601 L 1201.5229629520468 103.26891016502606 L 1201.4464501941554 103.16679710382974 L 1201.3722000889097 103.0643432744181 L 1201.300220061258 102.96155892208871 L 1201.2305173091434 102.85845432519113 L 1201.1630988027828 102.75503979409915 L 1201.0979712839708 102.65132567017969 L 1201.035141265405 102.5473223247587 L 1200.9746150300348 102.44304015808407 L 1200.9163986304334 102.33848959828556 L 1200.860497888192 102.23368110033203 L 1200.8069183933385 102.12862514498595 L 1200.755665503778 102.02333223775527 L 1200.7067443447559 101.91781290784299 L 1200.6601598083482 101.81207770709416 L 1200.615916552969 101.70613720894077 L 1200.5740190029078 101.60000200734433 L 1200.534471347884 101.49368271573654 L 1200.4972775426304 101.387189965958 L 1200.4624413064964 101.2805344071949 L 1200.4299661230768 101.17372670491429 L 1200.3998552398627 101.06677753979733 L 1200.3721116679176 100.95969760667145 L 1200.3467381815751 100.85249761344073 L 1200.3237373181632 100.74518828001514 L 1200.3031113777488 100.63778033723861 L 1200.2848624229086 100.5302845258159 L 1200.2689922785232 100.42271159523858 L 1200.2555025315937 100.31507230271008 L 1200.2443945310836 100.20737741206993 L 1200.2356693877834 100.09963769271747 L 1200.2293279742005 99.99186391853482 L 1200.2253709244708 99.88406686680962 L 1200.2237986342961 99.77625731715719 L 1200.224611260904 99.66844605044267 L 1200.2278087230327 99.56064384770288 L 1200.2333907009383 99.45286148906825 L 1200.241356636428 99.34510975268485 L 1200.2517057329148 99.23739941363651 L 1200.2644369554976 99.12974124286738 L 1200.2795490310648 99.02214600610482 L 1200.2970404484213 98.91462446278284 L 1200.31690945844 98.80718736496618 L 1200.3391540742368 98.69984545627509 L 1200.3637720713682 98.59260947081098 L 1200.3907609880553 98.48549013208303 L 1200.4201181254286 98.37849815193587 L 1200.451840547799 98.27164422947833 L 1200.4859250829509 98.16493905001363 L 1200.522368322459 98.05839328397077 L 1200.5611666220298 97.9520175858376 L 1200.6023161018654 97.84582259309526 L 1200.6458126470525 97.73981892515455 L 1200.6916519079725 97.6340171822939 L 1200.7398293007377 97.52842794459946 L 1200.7903400076489 97.423061770907 L 1200.8431789776776 97.31792919774607 L 1200.8983409269706 97.21304073828638 L 1200.9558203393792 97.10840688128647 L 1201.01561146701 97.00403809004486 L 1201.0777083308 96.89994480135368 L 1201.1421047211145 96.79613742445507 L 1201.2087941983682 96.6926263400002 L 1201.277770093669 96.58942189901128 L 1201.3490255094848 96.48653442184639 L 1201.4225533203335 96.38397419716749 L 1201.498346173495 96.28175148091161 L 1201.5763964897476 96.17987649526519 L 1201.6566964641243 96.07835942764187 L 1201.7392380666947 95.97721042966384 L 1201.8240130433676 95.8764396161466 L 1201.9110129167154 95.77605706408754 L 1202.000228986824 95.67607281165819 L 1202.0916523321598 95.57649685720048 L 1202.1852738104653 95.47733915822688 L 1202.2810840596705 95.37860963042466 L 1202.3790734988302 95.28031814666433 L 1202.479232329082 95.18247453601234 L 1202.5815505346263 95.08508858274823 L 1202.6860178837283 94.98817002538617 L 1202.7926239297396 94.89172855570112 L 1202.901358012145 94.79577381775971 L 1203.0122092576264 94.70031540695574 L 1203.1251665811517 94.60536286905077 L 1203.2402186870827 94.51092569921943 L 1203.3573540703048 94.41701334110004 L 1203.4765610173774 94.32363518585014 L 1203.5978276077049 94.23080057120742 L 1203.7211417147291 94.13851878055601 L 1203.8464910071427 94.04679904199807 L 1203.9738629501203 93.955650527431 L 1204.1032448065741 93.86508235163033 L 1204.2346236384262 93.77510357133815 L 1204.3679863079028 93.68572318435751 L 1204.5033194788482 93.59695012865262 L 1204.640609618058 93.5087932814551 L 1204.7798429966329 93.42126145837616 L 1204.9210056913507 93.33436341252519 L 1205.06408358606 93.24810783363438 L 1205.20906237309 93.1625033471897 L 1205.3559275546834 93.07755851356848 L 1205.504664444444 92.9932818271833 L 1205.655258168807 92.90968171563254 L 1205.8076936685252 92.82676653885773 L 1205.961955700176 92.74454458830742 L 1206.1180288376847 92.66302408610815 L 1206.2758974738676 92.58221318424222 L 1206.4355458219925 92.50211996373247 L 1206.5969579173577 92.4227524338342 L 1206.760117618888 92.34411853123427 L 1206.9250086107497 92.26622611925741 L 1207.0916144039807 92.1890829870799 L 1207.2599183381403 92.11269684895069 L 1207.4299035829756 92.0370753434199 L 1207.601553140104 91.9622260325751 L 1207.7748498447122 91.888156401285 L 1207.9497763672748 91.81487385645099 L 1208.1263152152849 91.74238572626649 L 1208.304448735005 91.67069925948411 L 1208.4841591132315 91.59982162469079 L 1208.6654283790765 91.52975990959095 L 1208.8482384057643 91.4605211202977 L 1209.0325709124445 91.3921121806323 L 1209.2184074660202 91.32453993143167 L 1209.4057294829906 91.25781112986445 L 1209.5945182313108 91.1919324487552 L 1209.7847548322625 91.12691047591709 L 1209.9764202623446 91.06275171349324 L 1210.1694953551737 90.99946257730645 L 1210.3639608034014 90.93704939621756 L 1210.5597971606448 90.87551841149269 L 1210.7569848434318 90.81487577617904 L 1210.955504133158 90.75512755448958 L 1211.1553351780599 90.69627972119672 L 1211.3564579952 90.63833816103474 L 1211.5588524724635 90.58130866811136 L 1211.7624983705716 90.52519694532836 L 1211.9673753251045 90.47000860381125 L 1212.1734628485372 90.41574916234819 L 1212.3807403322892 90.36242404683813 L 1212.5891870487847 90.31003858974816 L 1212.7987821535257 90.25859802958036 L 1213.0095046871768 90.20810751034786 L 1213.2213335776598 90.1585720810605 L 1213.4342476422623 90.10999669521995 L 1213.6482255897554 90.0623862103243 L 1213.8632460225226 90.01574538738238 L 1214.0792874386998 89.9700788904376 L 1214.2963282343255 89.92539128610161 L 1214.5143467055007 89.88168704309761 L 1214.7333210505603 89.83897053181346 L 1214.953229372252 89.79724602386472 L 1215.1740496799273 89.75651769166738 L 1215.3957598917389 89.71678960802075 L 1215.6183378368507 89.67806574570005 L 1215.8417612576538 89.64034997705929 L 1216.066007811992 89.60364607364387 L 1216.291055075397 89.56795770581357 L 1216.5168805433298 89.53328844237541 L 1216.7434616334317 89.49964175022686 L 1216.9707756877829 89.46702099400908 L 1217.198799975167 89.43542943577052 L 1217.4275116933454 89.40487023464067 L 1217.656887971337 89.37534644651419 L 1217.886905871705 89.34686102374526 L 1218.1175423928512 89.31941681485246 L 1218.3487744713157 89.29301656423378 L 1218.580578984083 89.2676629118923 L 1218.8129327508955 89.2433583931721 L 1219.0458125365697 89.22010543850483 L 1219.2791950533212 89.19790637316656 L 1219.5130569630928 89.17676341704532 L 1219.7473748798886 89.15667868441913 L 1219.9821253721123 89.13765418374449 L 1220.2172849649098 89.11969181745562 L 1220.4528301425182 89.10279338177418 L 1220.6887373506158 89.08696056652965 L 1220.9249829986786 89.0721949549904 L 1221.1615434623384 89.05849802370521 L 1221.3983950857462 89.04587114235585 L 1221.6355141839367 89.03431557361992 L 1221.8728770451983 89.02383247304465 L 1222.110459933442 89.01442288893136 L 1222.3482390905774 89.00608776223065 L 1222.5861907388867 88.99882792644821 L 1222.8242910834035 88.9926441075616 L 1223.0625163142915 88.98753692394752 L 1223.3008426092265 88.9835068863201 L 1223.5392461357776 88.98055439767974 L 1223.7777030537904 88.97867975327284 L 1224.0161895177723 88.97788314056228 L 1224.2546816792753 88.97816463920867 L 1224.4931556892823 88.97952422106238 L 1224.7315877005906 88.98196175016635 L 1224.969953870198 88.98547698276971 L 1225.2082303616864 88.99006956735212 L 1225.4463933476047 88.99573904465896 L 1225.6844190118534 89.00248484774721 L 1225.9222835520638 89.0103063020422 L 1226.1599631819806 89.019202625405 L 1226.3974341338385 89.0291729282107 L 1226.6346726607405 89.04021621343732 L 1226.8716550390316 89.05233137676555 L 1227.1083575706712 89.06551720668914 L 1227.3447565856034 89.0797723846361 L 1227.5808284441239 89.0950954851005 L 1227.8165495392436 89.11148497578507 L 1228.0518962990493 89.12893921775441 L 1228.286845189061 89.14745646559885 L 1228.521372714586 89.16703486760905 L 1228.7554554230667 89.18767246596111 L 1228.9890699064274 89.20936719691241 L 1229.2221928034146 89.23211689100792 L 1229.4548008019326 89.2559192732972 L 1229.6868706413757 89.28077196356185 L 1229.9183791149533 89.30667247655354 L 1230.1493030720105 89.33361822224259 L 1230.3796194203449 89.36160650607685 L 1230.6093051285127 89.39063452925127 L 1230.838337228135 89.42069938898774 L 1231.0666928161927 89.45179807882532 L 1231.2943490573173 89.48392748892095 L 1231.521283186074 89.5170844063604 L 1231.7474725092395 89.55126551547954 L 1231.9728944080696 89.58646739819596 L 1232.1975263405627 89.62268653435072 L 1232.4213458437123 89.65991930206037 L 1232.6443305357548 89.69816197807918 L 1232.8664581184069 89.73741073817143 L 1233.0877063790954 89.7776616574938 L 1233.3080531931785 89.8189107109879 L 1233.5274765261584 89.86115377378276 L 1233.7459544358849 89.9043866216073 L 1233.9634650747487 89.94860493121277 L 1234.1799866918675 89.99380428080505 L 1234.39549763526 90.03998015048685 L 1234.6099763540112 90.0871279227097 L 1234.823401400428 90.13524288273562 L 1235.035751432184 90.18432021910876 L 1235.2470052144527 90.23435502413635 L 1235.457141622032 90.28534229437957 L 1235.666139641456 90.33727693115392 L 1235.873978373097 90.39015374103897 L 1236.0806370332555 90.44396743639781 L 1236.286094956237 90.49871263590576 L 1236.4903315964211 90.55438386508847 L 1236.6933265303135 90.6109755568694 L 1236.8950594585901 90.66848205212658 L 1237.0955102081261 90.72689760025837 L 1237.2946587340139 90.78621635975864 L 1237.4924851215665 90.84643239880089 L 1237.68896958831 90.90753969583137 L 1237.8840924859617 90.96953214017132 L 1238.0778343023944 91.03240353262795 L 1238.270175663588 91.09614758611443 L 1238.4610973355664 91.1607579262785 L 1238.6505802263216 91.22622809214002 L 1238.8386053877225 91.29255153673692 L 1239.0251540174095 91.35972162778006 L 1239.2102074606753 91.42773164831627 L 1239.3937472123296 91.49657479740019 L 1239.5757549185503 91.56624419077427 L 1239.7562123787181 91.63673286155725 L 1239.935101547238 91.70803376094076 L 1240.112404535342 91.78013975889431 L 1240.2881036128786 91.85304364487818 L 1240.462181210087 91.92673812856452 L 1240.6346199193522 92.00121584056639 L 1240.8054024969472 92.07646933317463 L 1240.9745118647566 92.15249108110271 L 1241.1419311119841 92.22927348223918 L 1241.307643496845 92.3068088584079 L 1241.4716324482388 92.3850894561359 L 1241.6338815674067 92.4641074474286 L 1241.7943746295723 92.54385493055275 L 1241.953095585563 92.62432393082648 L 1242.1100285634157 92.70550640141681 L 1242.265157869963 92.78739422414436 L 1242.4184679924037 92.86997921029509 L 1242.5699435998536 92.95325310143917 L 1242.7195695448777 93.03720757025692 L 1242.8673308650066 93.12183422137142 L 1243.013212784231 93.20712459218805 L 1243.157200714481 93.29307015374081 L 1243.299280257083 93.3796623115452 L 1243.4394372042018 93.46689240645757 L 1243.577657540259 93.55475171554113 L 1243.7139274433364 93.64323145293818 L 1243.8482332865572 93.73232277074871 L 1243.980561639449 93.8220167599152 L 1244.1108992692866 93.91230445111346 L 1244.239233142416 94.00317681564962 L 1244.3655504255566 94.09462476636294 L 1244.4898384870853 94.18663915853458 L 1244.6120848982998 94.27921079080198 L 1244.7322774346605 94.37233040607906 L 1244.850404077014 94.46598869248189 L 1244.9664530127948 94.56017628425988 L 1245.0804126372057 94.65488376273235 L 1245.1922715543792 94.75010165723037 L 1245.3020185785172 94.84582044604385 L 1245.4096427350082 94.94203055737364 L 1245.5151332615267 95.03872237028881 L 1245.618479609108 95.13588621568863 L 1245.7196714432027 95.23351237726953 L 1245.8186986447126 95.33159109249674 L 1245.9155513109997 95.43011255358043 L 1246.010219756878 95.5290669084566 L 1246.102694515582 95.62844426177223 L 1246.1929663397127 95.72823467587482 L 1246.281026202163 95.82842817180608 L 1246.3668652970202 95.92901473029994 L 1246.450475040446 96.02998429278436 L 1246.531847071536 96.13132676238725 L 1246.610973253155 96.23303200494607 L 1246.6878456727504 96.33508985002135 L 1246.7624566431446 96.4374900919136 L 1246.8347987033026 96.54022249068399 L 1246.9048646190788 96.64327677317824 L 1246.9726473839398 96.746642634054 L 1247.0381402196658 96.85030973681128 L 1247.1013365770277 96.95426771482623 L 1247.1622301364423 97.05850617238767 L 1247.2208148086047 97.1630146857367 L 1247.2770847350964 97.26778280410907 L 1247.3310342889718 97.37280005078027 L 1247.3826580753198 97.47805592411314 L 1247.4319509318057 97.58353989860805 L 1247.478907929184 97.68924142595546 L 1247.523524371795 97.79514993609072 L 1247.565795798031 97.90125483825108 L 1247.605717980785 98.00754552203473 L 1247.6432869278715 98.11401135846187 L 1247.6784988824277 98.22064170103758 L 1247.711350323287 98.32742588681647 L 1247.7418379653327 98.43435323746894 L 1247.7699587598265 98.54141306034904 L 1247.795709894712 98.64859464956368 L 1247.819088794897 98.75588728704328 L 1247.8400931225115 98.86328024361347 L 1247.8587207771395 98.97076278006811 L 1247.8749698960319 99.07832414824313 L 1247.8888388542898 99.18595359209134 L 1247.900326265029 99.29364034875802 L 1247.9094309795182 99.40137364965727 L 1247.9161520872933 99.50914272154878 L 1247.9204889162495 99.61693678761516 L 1247.922441032707 99.72474506853963 M 1247.922562022763 134.0630134831 L 1247.9213695628594 134.17082402801663 L 1247.9177923023933 134.2786237919686 L 1247.9118305990878 134.38640199506935 L 1247.9034850491087 134.49414785958842 L 1247.8927564870035 134.60185061102908 L 1247.8796459856196 134.70949947920602 L 1247.8641548559963 134.81708369932204 L 1247.8462846472337 134.92459251304487 L 1247.8260371463377 135.03201516958265 L 1247.8034143780415 135.1393409267593 L 1247.778418604603 135.24655905208851 L 1247.7510523255792 135.35365882384713 L 1247.7213182775745 135.46062953214718 L 1247.6892194339694 135.56746048000701 L 1247.6547590046212 135.67414098442086 L 1247.6179404355444 135.78066037742718 L 1247.5787674085652 135.88700800717544 L 1247.5372438409534 135.99317323899126 L 1247.4933738850314 136.09914545643997 L 1247.447161927758 136.2049140623881 L 1247.3986125902907 136.31046848006324 L 1247.3477307275227 136.41579815411154 L 1247.2945214275976 136.5208925516534 L 1247.2389900114015 136.62574116333658 L 1247.1811420320296 136.7303335043874 L 1247.1209832742313 136.8346591156588 L 1247.0585197538326 136.9387075646767 L 1246.9937577171336 137.0424684466828 L 1246.9267036402834 137.14593138567542 L 1246.8573642286344 137.24908603544688 L 1246.78574641607 137.35192208061815 L 1246.7118573643113 137.4544292376704 L 1246.635704462202 137.5565972559734 L 1246.5572953249693 137.6584159188104 L 1246.4766377934614 137.7598750444 L 1246.3937399333638 137.86096448691416 L 1246.308610034394 137.96167413749288 L 1246.2212566094706 138.06199392525505 L 1246.1316883938634 138.1619138183055 L 1246.0399143443192 138.26142382473813 L 1245.945943638167 138.3605139936353 L 1245.8497856723984 138.4591744160626 L 1245.75145006273 138.5573952260601 L 1245.6509466426414 138.6551666016286 L 1245.5482854623901 138.75247876571203 L 1245.443476788009 138.84932198717507 L 1245.3365311002783 138.94568658177627 L 1245.2274590936775 139.04156291313652 L 1245.116271675316 139.1369413937025 L 1245.0029799638435 139.2318124857057 L 1244.8875952883366 139.32616670211596 L 1244.7701291871665 139.41999460759027 L 1244.6505934068457 139.51328681941624 L 1244.5289999008523 139.60603400845048 L 1244.405360828436 139.69822690005134 L 1244.2796885534005 139.7898562750065 L 1244.151995642869 139.88091297045483 L 1244.0222948660262 139.97138788080267 L 1243.8905991928411 140.06127195863436 L 1243.756921792772 140.15055621561703 L 1243.621276033447 140.23923172339937 L 1243.4836754793291 140.3272896145045 L 1243.3441338903592 140.41472108321673 L 1243.20266522058 140.501517386462 L 1243.0592836167402 140.58766984468238 L 1242.9140034168809 140.67316984270377 L 1242.7668391489012 140.75800883059765 L 1242.617805529105 140.8421783245359 L 1242.4669174607302 140.9256699076393 L 1242.3141900324579 141.00847523081913 L 1242.1596385169034 141.09058601361204 L 1242.00327836909 141.17199404500818 L 1241.8451252249017 141.25269118427227 L 1241.6851948995215 141.3326693617576 L 1241.5235033858482 141.41192057971313 L 1241.3600668528989 141.49043691308304 L 1241.1949016441904 141.56821051029945 L 1241.0280242761062 141.64523359406746 L 1240.8594514362437 141.72149846214288 L 1240.6891999817465 141.79699748810242 L 1240.5172869376183 141.87172312210643 L 1240.3437294950204 141.94566789165378 L 1240.168545009552 142.01882440232913 L 1239.991750999516 142.0911853385424 L 1239.8133651441658 142.16274346426022 L 1239.6334052819386 142.2334916237297 L 1239.4518894086705 142.3034227421938 L 1239.2688356757976 142.372529826599 L 1239.0842623885405 142.4408059662944 L 1238.8981880040744 142.50824433372296 L 1238.7106311296825 142.5748381851041 L 1238.5216105208958 142.64058086110825 L 1238.331145079618 142.70546578752254 L 1238.139253852234 142.7694864759084 L 1237.9459560277073 142.83263652425032 L 1237.7512709356588 142.89490961759617 L 1237.5552180444356 142.95629952868842 L 1237.3578169591635 143.01680011858718 L 1237.1590874197864 143.07640533728383 L 1236.9590492990926 143.13510922430623 L 1236.7577226007277 143.19290590931453 L 1236.5551274571935 143.24978961268846 L 1236.351284127836 143.30575464610504 L 1236.1462129968174 143.36079541310758 L 1235.9399345710808 143.41490640966524 L 1235.7324694782965 143.46808222472345 L 1235.5238384648007 143.52031754074505 L 1235.3140623935212 143.57160713424193 L 1235.1031622418902 143.6219458762975 L 1234.8911590997473 143.67132873307952 L 1234.6780741672296 143.71975076634342 L 1234.4639287526531 143.76720713392626 L 1234.248744270381 143.81369309023083 L 1234.0325422386818 143.8592039867002 L 1233.8153442775786 143.9037352722827 L 1233.5971721066865 143.94728249388683 L 1233.378047543041 143.98984129682677 L 1233.1579924989157 144.03140742525764 L 1232.9370289796316 144.07197672260128 L 1232.7151790813566 144.11154513196175 L 1232.4924649888956 144.15010869653108 L 1232.2689089734722 144.18766355998494 L 1232.0445333905016 144.2242059668683 L 1231.8193606773552 144.2597322629709 L 1231.5934133511169 144.29423889569279 L 1231.3667140063308 144.32772241439937 L 1231.1392853127422 144.36017947076672 L 1230.9111500130316 144.39160681911628 L 1230.682330920538 144.42200131673934 L 1230.4528509169809 144.45135992421152 L 1230.2227329501688 144.4796797056965 L 1229.9920000317068 144.50695782923975 L 1229.7606752346944 144.53319156705163 L 1229.5287816914185 144.55837829578024 L 1229.2963425910405 144.5825154967737 L 1229.0633811772764 144.60560075633202 L 1228.8299207460734 144.62763176594848 L 1228.5959846432804 144.64860632254045 L 1228.3615962623126 144.66852232866978 L 1228.1267790418126 144.68737779275247 L 1227.8915564633069 144.70517082925778 L 1227.6559520488572 144.72189965889692 L 1227.419989358709 144.73756260880086 L 1227.1836919889342 144.75215811268765 L 1226.9470835690731 144.76568471101908 L 1226.7101877597706 144.77814105114655 L 1226.4730282504102 144.7895258874465 L 1226.235628756745 144.7998380814447 L 1225.9980130185265 144.80907660193043 L 1225.7602047971309 144.8172405250593 L 1225.522227873182 144.82432903444578 L 1225.2841060441735 144.83034142124487 L 1225.0458631220902 144.83527708422287 L 1224.807522931026 144.83913552981764 L 1224.5691093048008 144.8419163721878 L 1224.3306460845793 144.84361933325144 L 1224.092157116484 144.84424424271387 L 1223.8536662492136 144.84379103808467 L 1223.6151973316557 144.84225976468392 L 1223.3767742105035 144.83965057563768 L 1223.1384207278704 144.8359637318627 L 1222.9001607189061 144.83119960204027 L 1222.6620180094128 144.82535866257942 L 1222.424016413463 144.81844149756918 L 1222.1861797310182 144.81044879872033 L 1221.9485317455483 144.8013813652961 L 1221.7110962216539 144.79124010403225 L 1221.4738969026891 144.78002602904647 L 1221.2369575083887 144.7677402617369 L 1221.0003017324943 144.75438403067005 L 1220.7639532403866 144.73995867145788 L 1220.5279356667177 144.72446562662432 L 1220.292272613048 144.7079064454609 L 1220.056987645487 144.69028278387196 L 1219.8221042923349 144.671596404209 L 1219.5876460417317 144.65184917509436 L 1219.3536363393066 144.6310430712345 L 1219.1200985858354 144.6091801732225 L 1218.8870561348983 144.58626266732998 L 1218.6545322905467 144.56229284528834 L 1218.4225503049709 144.53727310405984 L 1218.1911333761761 144.5112059455978 L 1217.9603046456627 144.48409397659628 L 1217.730087196111 144.45593990822962 L 1217.5005040490746 144.4267465558812 L 1217.2715781626764 144.3965168388619 L 1217.0433324293144 144.36525378011828 L 1216.8157896733717 144.3329605059301 L 1216.5889726489345 144.2996402455979 L 1216.3629040375158 144.26529633111994 L 1216.1376064457888 144.22993219685907 L 1215.913102403325 144.19355137919922 L 1215.689414360341 144.15615751619185 L 1215.466564685455 144.1177543471921 L 1215.244575663449 144.07834571248486 L 1215.0234694930398 144.03793555290076 L 1214.8032682846606 143.9965279094221 L 1214.5839940582482 143.9541269227787 L 1214.365668741043 143.9107368330339 L 1214.1483141653948 143.8663619791605 L 1213.9319520665797 143.82100679860693 L 1213.7166040806273 143.77467582685347 L 1213.502291742157 143.72737369695864 L 1213.289036482224 143.679105139096 L 1213.0768596261764 143.62987498008118 L 1212.8657823915232 143.579688142889 L 1212.655825885812 143.52854964616142 L 1212.447011104518 143.4764646037054 L 1212.2393589289456 143.4234382239819 L 1212.0328901241394 143.36947580958457 L 1211.8276253368078 143.31458275671 L 1211.6235850932583 143.25876455461767 L 1211.4207897973454 143.20202678508127 L 1211.2192597284297 143.1443751218305 L 1211.0190150393498 143.08581532998366 L 1210.8200757544084 143.02635326547107 L 1210.6224617673677 142.9659948744497 L 1210.4261928394617 142.9047461927083 L 1210.23128859742 142.84261334506402 L 1210.0377685315038 142.77960254474988 L 1209.8456519935592 142.71572009279336 L 1209.6549581950794 142.65097237738644 L 1209.4657062052854 142.5853658732467 L 1209.2779149492185 142.51890714096987 L 1209.0916032058478 142.4516028263738 L 1208.9067896061924 142.3834596598339 L 1208.7234926314584 142.31448445561 L 1208.5417306111901 142.24468411116504 L 1208.3615217214385 142.17406560647532 L 1208.1828839829423 142.10263600333244 L 1208.0058352593264 142.03040244463722 L 1207.8303932553156 141.9573721536853 L 1207.656575514964 141.88355243344492 L 1207.4843994199011 141.80895066582661 L 1207.313882187593 141.73357431094496 L 1207.1450408696203 141.65743090637264 L 1206.9778923499744 141.58052806638665 L 1206.812453343368 141.5028734812069 L 1206.648740393564 141.42447491622718 L 1206.4867698717205 141.34534021123872 L 1206.3265579747551 141.265477279646 L 1206.168120723724 141.1848941076757 L 1206.0114739622204 141.10359875357778 L 1205.8566333547894 141.02159934681995 L 1205.7036143853632 140.93890408727458 L 1205.5524323557108 140.85552124439866 L 1205.4031023839095 140.77145915640702 L 1205.255639402832 140.68672622943842 L 1205.1100581586536 140.6013309367149 L 1204.966373209377 140.5152818176946 L 1204.8245989233778 140.42858747721772 L 1204.6847494779663 140.34125658464606 L 1204.5468388579707 140.2532978729961 L 1204.4108808543376 140.1647201380657 L 1204.2768890627547 140.07553223755454 L 1204.1448768822888 139.98574309017835 L 1204.0148575140486 139.89536167477704 L 1203.886843959862 139.80439702941683 L 1203.7608490209782 139.71285825048648 L 1203.6368852967857 139.62075449178758 L 1203.514965183554 139.52809496361922 L 1203.3951008731926 139.43488893185705 L 1203.2773043520326 139.34114571702654 L 1203.1615873996282 139.24687469337107 L 1203.0479615875781 139.15208528791445 L 1202.9364382783685 139.05678697951822 L 1202.827028624238 138.96098929793382 L 1202.7197435660603 138.86470182284955 L 1202.614593832252 138.76793418293272 L 1202.511589937699 138.67069605486665 L 1202.4107421827048 138.57299716238313 L 1202.3120606519606 138.47484727529 L 1202.2155552135378 138.37625620849414 L 1202.121235517899 138.27723382102013 L 1202.0291109969362 138.17779001502413 L 1201.9391908630241 138.07793473480393 L 1201.851484108101 137.9776779658043 L 1201.7659995027698 137.87702973361863 L 1201.6827455954194 137.77600010298625 L 1201.6017307113716 137.67459917678602 L 1201.5229629520468 137.57283709502605 L 1201.4464501941554 137.47072403382973 L 1201.3722000889097 137.3682702044181 L 1201.300220061258 137.26548585208872 L 1201.2305173091434 137.16238125519112 L 1201.1630988027828 137.05896672409915 L 1201.0979712839708 136.95525260017968 L 1201.035141265405 136.8512492547587 L 1200.9746150300348 136.74696708808406 L 1200.9163986304334 136.64241652828557 L 1200.860497888192 136.53760803033202 L 1200.8069183933385 136.43255207498592 L 1200.755665503778 136.32725916775524 L 1200.7067443447559 136.22173983784296 L 1200.6601598083482 136.11600463709416 L 1200.615916552969 136.01006413894075 L 1200.5740190029078 135.90392893734432 L 1200.534471347884 135.79760964573654 L 1200.4972775426304 135.69111689595798 L 1200.4624413064964 135.5844613371949 L 1200.4299661230768 135.47765363491428 L 1200.3998552398627 135.37070446979732 L 1200.3721116679176 135.26362453667144 L 1200.3467381815751 135.15642454344072 L 1200.3237373181632 135.04911521001512 L 1200.3031113777488 134.9417072672386 L 1200.2848624229086 134.83421145581588 L 1200.2689922785232 134.72663852523857 L 1200.2555025315937 134.61899923271008 L 1200.2443945310836 134.5113043420699 L 1200.2356693877834 134.40356462271745 L 1200.2293279742005 134.2957908485348 L 1200.2253709244708 134.1879937968096 L 1200.2237986342961 134.08018424715718" stroke-miterlimit="10" stroke-width="2.7769845610000004" stroke-dasharray=""/></g><g><g/><text fill="black" stroke="none" font-family="sans-serif" font-size="11pt" font-style="normal" font-weight="normal" text-decoration="normal" x="1183.7295830514427" y="162.371920802" text-anchor="start" dominant-baseline="alphabetic" xml:space="preserve">SpDatabase</text></g></g><g><path fill="white" stroke="black" paint-order="fill stroke markers" d=" M 51.62498385214844 175.440083442 L 67.96018715214844 175.440083442 L 67.96018715214844 1222.5266149719994 L 51.62498385214844 1222.5266149719994 L 51.62498385214844 175.440083442" stroke-miterlimit="10" stroke-width="1.3612669416666667" stroke-dasharray=""/><path fill="white" stroke="black" paint-order="fill stroke markers" d=" M 513.4714138996522 175.440083442 L 529.8066171996524 175.440083442 L 529.8066171996524 1222.5266149719994 L 513.4714138996522 1222.5266149719994 L 513.4714138996522 175.440083442" stroke-miterlimit="10" stroke-width="1.3612669416666667" stroke-dasharray=""/><path fill="white" stroke="black" paint-order="fill stroke markers" d=" M 701.2912315986106 221.178652682 L 717.6264348986107 221.178652682 L 717.6264348986107 541.348637362 L 701.2912315986106 541.348637362 L 701.2912315986106 221.178652682" stroke-miterlimit="10" stroke-width="1.3612669416666667" stroke-dasharray=""/><path fill="white" stroke="black" paint-order="fill stroke markers" d=" M 278.1311427722005 266.917221922 L 294.4663460722005 266.917221922 L 294.4663460722005 404.132929642 L 278.1311427722005 404.132929642 L 278.1311427722005 266.917221922" stroke-miterlimit="10" stroke-width="1.3612669416666667" stroke-dasharray=""/><path fill="white" stroke="black" paint-order="fill stroke markers" d=" M 1215.905563554763 449.871498882 L 1232.240766854763 449.871498882 L 1232.240766854763 495.61006812200003 L 1215.905563554763 495.61006812200003 L 1215.905563554763 449.871498882" stroke-miterlimit="10" stroke-width="1.3612669416666667" stroke-dasharray=""/><path fill="white" stroke="black" paint-order="fill stroke markers" d=" M 834.929099127289 587.0872066019999 L 851.2643024272891 587.0872066019999 L 851.2643024272891 1090.2114682419995 L 834.929099127289 1090.2114682419995 L 834.929099127289 587.0872066019999" stroke-miterlimit="10" stroke-width="1.3612669416666667" stroke-dasharray=""/><path fill="white" stroke="black" paint-order="fill stroke markers" d=" M 409.5500915651367 632.8257758419999 L 425.8852948651367 632.8257758419999 L 425.8852948651367 770.0414835619997 L 409.5500915651367 770.0414835619997 L 409.5500915651367 632.8257758419999" stroke-miterlimit="10" stroke-width="1.3612669416666667" stroke-dasharray=""/><path fill="white" stroke="black" paint-order="fill stroke markers" d=" M 409.5500915651367 815.7800528019997 L 425.8852948651367 815.7800528019997 L 425.8852948651367 952.9957605219995 L 409.5500915651367 952.9957605219995 L 409.5500915651367 815.7800528019997" stroke-miterlimit="10" stroke-width="1.3612669416666667" stroke-dasharray=""/><path fill="white" stroke="black" paint-order="fill stroke markers" d=" M 1215.905563554763 998.7343297619994 L 1232.240766854763 998.7343297619994 L 1232.240766854763 1044.4728990019994 L 1215.905563554763 1044.4728990019994 L 1215.905563554763 998.7343297619994" stroke-miterlimit="10" stroke-width="1.3612669416666667" stroke-dasharray=""/><g><text fill="black" stroke="none" font-family="sans-serif" font-size="11pt" font-style="normal" font-weight="normal" text-decoration="normal" x="569.9226045138776" y="214.644571362" text-anchor="start" dominant-baseline="alphabetic" xml:space="preserve">Refresh users</text></g><g><path fill="none" stroke="black" paint-order="fill stroke markers" d=" M 529.8066171996524 221.178652682 L 698.5686977152773 221.178652682" stroke-miterlimit="10" stroke-width="1.3612669416666667" stroke-dasharray=""/><g transform="translate(701.2912315986106,221.178652682) translate(-701.2912315986106,-221.178652682)"><path fill="none" stroke="black" paint-order="fill stroke markers" d=" M 687.6785621819439 214.37231797366667 L 699.9299646569439 221.178652682 L 687.6785621819439 227.98498739033334" stroke-miterlimit="10" stroke-width="1.3612669416666667"/></g></g><g><text fill="black" stroke="none" font-family="sans-serif" font-size="11pt" font-style="normal" font-weight="normal" text-decoration="normal" x="458.7735794848196" y="260.383140602" text-anchor="start" dominant-baseline="alphabetic" xml:space="preserve">Get user list</text></g><g><path fill="none" stroke="black" paint-order="fill stroke markers" d=" M 701.2912315986106 266.917221922 L 297.1888799555338 266.917221922" stroke-miterlimit="10" stroke-width="1.3612669416666667" stroke-dasharray=""/><g transform="translate(294.4663460722005,266.917221922) translate(-294.4663460722005,-266.917221922)"><path fill="black" stroke="none" paint-order="stroke fill markers" d=" M 308.0790154888672 260.1108872136667 L 294.4663460722005 266.917221922 L 308.0790154888672 273.72355663033335 Z"/></g></g><g><text fill="black" stroke="none" font-family="sans-serif" font-size="11pt" font-style="normal" font-weight="normal" text-decoration="normal" x="118.45370786988934" y="306.121709842" text-anchor="start" dominant-baseline="alphabetic" xml:space="preserve">Request user list</text></g><g><path fill="none" stroke="black" paint-order="fill stroke markers" d=" M 278.1311427722005 312.655791162 L 70.68272103548176 312.655791162" stroke-miterlimit="10" stroke-width="1.3612669416666667" stroke-dasharray=""/><g transform="translate(67.96018715214844,312.655791162) translate(-67.96018715214844,-312.655791162)"><path fill="black" stroke="none" paint-order="stroke fill markers" d=" M 81.5728565688151 305.8494564536667 L 67.96018715214844 312.655791162 L 81.5728565688151 319.46212587033335 Z"/></g></g><g><text fill="black" stroke="none" font-family="sans-serif" font-size="11pt" font-style="normal" font-weight="normal" text-decoration="normal" x="110.71212309205731" y="351.860279082" text-anchor="start" dominant-baseline="alphabetic" xml:space="preserve">Responds user list </text></g><g><path fill="none" stroke="black" paint-order="fill stroke markers" d=" M 67.96018715214844 358.394360402 L 275.4086088888672 358.394360402" stroke-miterlimit="10" stroke-width="1.3612669416666667" stroke-dasharray="6.53408132"/><g transform="translate(278.1311427722005,358.394360402) translate(-278.1311427722005,-358.394360402)"><path fill="black" stroke="none" paint-order="stroke fill markers" d=" M 264.51847335553384 351.5880256936667 L 278.1311427722005 358.394360402 L 264.51847335553384 365.20069511033336 Z"/></g></g><g><text fill="black" stroke="none" font-family="sans-serif" font-size="11pt" font-style="normal" font-weight="normal" text-decoration="normal" x="448.5874756640188" y="397.598848322" text-anchor="start" dominant-baseline="alphabetic" xml:space="preserve">Return user list</text></g><g><path fill="none" stroke="black" paint-order="fill stroke markers" d=" M 294.4663460722005 404.132929642 L 698.5686977152773 404.132929642" stroke-miterlimit="10" stroke-width="1.3612669416666667" stroke-dasharray="6.53408132"/><g transform="translate(701.2912315986106,404.132929642) translate(-701.2912315986106,-404.132929642)"><path fill="black" stroke="none" paint-order="stroke fill markers" d=" M 687.6785621819439 397.3265949336667 L 701.2912315986106 404.132929642 L 687.6785621819439 410.93926435033336 Z"/></g></g><g><text fill="black" stroke="none" font-family="sans-serif" font-size="11pt" font-style="normal" font-weight="normal" text-decoration="normal" x="817.6429523516867" y="443.337417562" text-anchor="start" dominant-baseline="alphabetic" xml:space="preserve">Create/Update users (bulk update or iteration)</text></g><g><path fill="none" stroke="black" paint-order="fill stroke markers" d=" M 717.6264348986107 449.871498882 L 1213.1830296714295 449.871498882" stroke-miterlimit="10" stroke-width="1.3612669416666667" stroke-dasharray=""/><g transform="translate(1215.905563554763,449.871498882) translate(-1215.905563554763,-449.871498882)"><path fill="black" stroke="none" paint-order="stroke fill markers" d=" M 1202.2928941380962 443.0651641736667 L 1215.905563554763 449.871498882 L 1202.2928941380962 456.67783359033336 Z"/></g></g><g><text fill="black" stroke="none" font-family="sans-serif" font-size="11pt" font-style="normal" font-weight="normal" text-decoration="normal" x="902.8039630938742" y="489.075986802" text-anchor="start" dominant-baseline="alphabetic" xml:space="preserve">Return confirmation</text></g><g><path fill="none" stroke="black" paint-order="fill stroke markers" d=" M 1215.905563554763 495.61006812200003 L 720.348968781944 495.61006812200003" stroke-miterlimit="10" stroke-width="1.3612669416666667" stroke-dasharray="6.53408132"/><g transform="translate(717.6264348986107,495.61006812200003) translate(-717.6264348986107,-495.61006812200003)"><path fill="black" stroke="none" paint-order="stroke fill markers" d=" M 731.2391043152774 488.8037334136667 L 717.6264348986107 495.61006812200003 L 731.2391043152774 502.41640283033337 Z"/></g></g><g><text fill="black" stroke="none" font-family="sans-serif" font-size="11pt" font-style="normal" font-weight="normal" text-decoration="normal" x="551.586888266319" y="534.8145560419999" text-anchor="start" dominant-baseline="alphabetic" xml:space="preserve">Return confirmation</text></g><g><path fill="none" stroke="black" paint-order="fill stroke markers" d=" M 701.2912315986106 541.348637362 L 532.5291510829857 541.348637362" stroke-miterlimit="10" stroke-width="1.3612669416666667" stroke-dasharray="6.53408132"/><g transform="translate(529.8066171996524,541.348637362) translate(-529.8066171996524,-541.348637362)"><path fill="none" stroke="black" paint-order="fill stroke markers" d=" M 543.419286616319 534.5423026536666 L 531.1678841413191 541.348637362 L 543.419286616319 548.1549720703333" stroke-miterlimit="10" stroke-width="1.3612669416666667"/></g></g><g><text fill="black" stroke="none" font-family="sans-serif" font-size="11pt" font-style="normal" font-weight="normal" text-decoration="normal" x="625.3242180267519" y="580.5531252819999" text-anchor="start" dominant-baseline="alphabetic" xml:space="preserve">Refresh channels</text></g><g><path fill="none" stroke="black" paint-order="fill stroke markers" d=" M 529.8066171996524 587.0872066019999 L 832.2065652439557 587.0872066019999" stroke-miterlimit="10" stroke-width="1.3612669416666667" stroke-dasharray=""/><g transform="translate(834.929099127289,587.0872066019999) translate(-834.929099127289,-587.0872066019999)"><path fill="none" stroke="black" paint-order="fill stroke markers" d=" M 821.3164297106223 580.2808718936666 L 833.5678321856223 587.0872066019999 L 821.3164297106223 593.8935413103333" stroke-miterlimit="10" stroke-width="1.3612669416666667"/></g></g><g><text fill="black" stroke="none" font-family="sans-serif" font-size="11pt" font-style="normal" font-weight="normal" text-decoration="normal" x="579.8846673941621" y="626.2916945219998" text-anchor="start" dominant-baseline="alphabetic" xml:space="preserve">Get channel list</text></g><g><path fill="none" stroke="black" paint-order="fill stroke markers" d=" M 834.929099127289 632.8257758419999 L 428.60782874847 632.8257758419999" stroke-miterlimit="10" stroke-width="1.3612669416666667" stroke-dasharray=""/><g transform="translate(425.8852948651367,632.8257758419999) translate(-425.8852948651367,-632.8257758419999)"><path fill="black" stroke="none" paint-order="stroke fill markers" d=" M 439.4979642818034 626.0194411336665 L 425.8852948651367 632.8257758419999 L 439.4979642818034 639.6321105503332 Z"/></g></g><g><text fill="black" stroke="none" font-family="sans-serif" font-size="11pt" font-style="normal" font-weight="normal" text-decoration="normal" x="172.74586201489257" y="672.0302637619998" text-anchor="start" dominant-baseline="alphabetic" xml:space="preserve">Request channel list</text></g><g><path fill="none" stroke="black" paint-order="fill stroke markers" d=" M 409.5500915651367 678.5643450819998 L 70.68272103548176 678.5643450819998" stroke-miterlimit="10" stroke-width="1.3612669416666667" stroke-dasharray=""/><g transform="translate(67.96018715214844,678.5643450819998) translate(-67.96018715214844,-678.5643450819998)"><path fill="black" stroke="none" paint-order="stroke fill markers" d=" M 81.5728565688151 671.7580103736665 L 67.96018715214844 678.5643450819998 L 81.5728565688151 685.3706797903332 Z"/></g></g><g><text fill="black" stroke="none" font-family="sans-serif" font-size="11pt" font-style="normal" font-weight="normal" text-decoration="normal" x="165.00427723706053" y="717.7688330019997" text-anchor="start" dominant-baseline="alphabetic" xml:space="preserve">Responds channel list </text></g><g><path fill="none" stroke="black" paint-order="fill stroke markers" d=" M 67.96018715214844 724.3029143219998 L 406.8275576818034 724.3029143219998" stroke-miterlimit="10" stroke-width="1.3612669416666667" stroke-dasharray="6.53408132"/><g transform="translate(409.5500915651367,724.3029143219998) translate(-409.5500915651367,-724.3029143219998)"><path fill="black" stroke="none" paint-order="stroke fill markers" d=" M 395.93742214847003 717.4965796136664 L 409.5500915651367 724.3029143219998 L 395.93742214847003 731.1092490303331 Z"/></g></g><g><text fill="black" stroke="none" font-family="sans-serif" font-size="11pt" font-style="normal" font-weight="normal" text-decoration="normal" x="569.6985635733613" y="763.5074022419997" text-anchor="start" dominant-baseline="alphabetic" xml:space="preserve">Return channel list</text></g><g><path fill="none" stroke="black" paint-order="fill stroke markers" d=" M 425.8852948651367 770.0414835619997 L 832.2065652439557 770.0414835619997" stroke-miterlimit="10" stroke-width="1.3612669416666667" stroke-dasharray="6.53408132"/><g transform="translate(834.929099127289,770.0414835619997) translate(-834.929099127289,-770.0414835619997)"><path fill="black" stroke="none" paint-order="stroke fill markers" d=" M 821.3164297106223 763.2351488536664 L 834.929099127289 770.0414835619997 L 821.3164297106223 776.847818270333 Z"/></g></g><g><text fill="black" stroke="none" font-family="sans-serif" font-size="11pt" font-style="normal" font-weight="normal" text-decoration="normal" x="546.4809503531465" y="809.2459714819996" text-anchor="start" dominant-baseline="alphabetic" xml:space="preserve">Get members of channels</text></g><g><path fill="none" stroke="black" paint-order="fill stroke markers" d=" M 834.929099127289 815.7800528019997 L 428.60782874847 815.7800528019997" stroke-miterlimit="10" stroke-width="1.3612669416666667" stroke-dasharray=""/><g transform="translate(425.8852948651367,815.7800528019997) translate(-425.8852948651367,-815.7800528019997)"><path fill="black" stroke="none" paint-order="stroke fill markers" d=" M 439.4979642818034 808.9737180936663 L 425.8852948651367 815.7800528019997 L 439.4979642818034 822.586387510333 Z"/></g></g><g><text fill="black" stroke="none" font-family="sans-serif" font-size="11pt" font-style="normal" font-weight="normal" text-decoration="normal" x="151.15674305737303" y="854.9845407219996" text-anchor="start" dominant-baseline="alphabetic" xml:space="preserve">Request channel members</text></g><g><path fill="none" stroke="black" paint-order="fill stroke markers" d=" M 409.5500915651367 861.5186220419996 L 70.68272103548176 861.5186220419996" stroke-miterlimit="10" stroke-width="1.3612669416666667" stroke-dasharray=""/><g transform="translate(67.96018715214844,861.5186220419996) translate(-67.96018715214844,-861.5186220419996)"><path fill="black" stroke="none" paint-order="stroke fill markers" d=" M 81.5728565688151 854.7122873336663 L 67.96018715214844 861.5186220419996 L 81.5728565688151 868.324956750333 Z"/></g></g><g><text fill="black" stroke="none" font-family="sans-serif" font-size="11pt" font-style="normal" font-weight="normal" text-decoration="normal" x="145.45166493237303" y="900.7231099619995" text-anchor="start" dominant-baseline="alphabetic" xml:space="preserve">Responds channel members</text></g><g><path fill="none" stroke="black" paint-order="fill stroke markers" d=" M 67.96018715214844 907.2571912819996 L 406.8275576818034 907.2571912819996" stroke-miterlimit="10" stroke-width="1.3612669416666667" stroke-dasharray="6.53408132"/><g transform="translate(409.5500915651367,907.2571912819996) translate(-409.5500915651367,-907.2571912819996)"><path fill="black" stroke="none" paint-order="stroke fill markers" d=" M 395.93742214847003 900.4508565736662 L 409.5500915651367 907.2571912819996 L 395.93742214847003 914.0635259903329 Z"/></g></g><g><text fill="black" stroke="none" font-family="sans-serif" font-size="11pt" font-style="normal" font-weight="normal" text-decoration="normal" x="536.2948465323457" y="946.4616792019995" text-anchor="start" dominant-baseline="alphabetic" xml:space="preserve">Return members of channels</text></g><g><path fill="none" stroke="black" paint-order="fill stroke markers" d=" M 425.8852948651367 952.9957605219995 L 832.2065652439557 952.9957605219995" stroke-miterlimit="10" stroke-width="1.3612669416666667" stroke-dasharray="6.53408132"/><g transform="translate(834.929099127289,952.9957605219995) translate(-834.929099127289,-952.9957605219995)"><path fill="black" stroke="none" paint-order="stroke fill markers" d=" M 821.3164297106223 946.1894258136662 L 834.929099127289 952.9957605219995 L 821.3164297106223 959.8020952303328 Z"/></g></g><g><text fill="black" stroke="none" font-family="sans-serif" font-size="11pt" font-style="normal" font-weight="normal" text-decoration="normal" x="873.0445734939558" y="992.2002484419994" text-anchor="start" dominant-baseline="alphabetic" xml:space="preserve">Create/Update channels (bulk update or iteration)</text></g><g><path fill="none" stroke="black" paint-order="fill stroke markers" d=" M 851.2643024272891 998.7343297619994 L 1213.1830296714295 998.7343297619994" stroke-miterlimit="10" stroke-width="1.3612669416666667" stroke-dasharray=""/><g transform="translate(1215.905563554763,998.7343297619994) translate(-1215.905563554763,-998.7343297619994)"><path fill="black" stroke="none" paint-order="stroke fill markers" d=" M 1202.2928941380962 991.9279950536661 L 1215.905563554763 998.7343297619994 L 1202.2928941380962 1005.5406644703328 Z"/></g></g><g><text fill="black" stroke="none" font-family="sans-serif" font-size="11pt" font-style="normal" font-weight="normal" text-decoration="normal" x="969.6228968582136" y="1037.9388176819994" text-anchor="start" dominant-baseline="alphabetic" xml:space="preserve">Return confirmation</text></g><g><path fill="none" stroke="black" paint-order="fill stroke markers" d=" M 1215.905563554763 1044.4728990019994 L 853.9868363106224 1044.4728990019994" stroke-miterlimit="10" stroke-width="1.3612669416666667" stroke-dasharray="6.53408132"/><g transform="translate(851.2643024272891,1044.4728990019994) translate(-851.2643024272891,-1044.4728990019994)"><path fill="black" stroke="none" paint-order="stroke fill markers" d=" M 864.8769718439557 1037.6665642936662 L 851.2643024272891 1044.4728990019994 L 864.8769718439557 1051.2792337103326 Z"/></g></g><g><text fill="black" stroke="none" font-family="sans-serif" font-size="11pt" font-style="normal" font-weight="normal" text-decoration="normal" x="618.4058220306581" y="1083.6773869219996" text-anchor="start" dominant-baseline="alphabetic" xml:space="preserve">Return confirmation</text></g><g><path fill="none" stroke="black" paint-order="fill stroke markers" d=" M 834.929099127289 1090.2114682419995 L 532.5291510829857 1090.2114682419995" stroke-miterlimit="10" stroke-width="1.3612669416666667" stroke-dasharray="6.53408132"/><g transform="translate(529.8066171996524,1090.2114682419995) translate(-529.8066171996524,-1090.2114682419995)"><path fill="none" stroke="black" paint-order="fill stroke markers" d=" M 543.419286616319 1083.4051335336662 L 531.1678841413191 1090.2114682419995 L 543.419286616319 1097.0178029503327" stroke-miterlimit="10" stroke-width="1.3612669416666667"/></g></g><g><text fill="black" stroke="none" font-family="sans-serif" font-size="11pt" font-style="normal" font-weight="normal" text-decoration="normal" x="742.1753893531518" y="1129.4159561619997" text-anchor="start" dominant-baseline="alphabetic" xml:space="preserve">Flush cache</text></g><g><path fill="none" stroke="black" paint-order="fill stroke markers" d=" M 529.8066171996524 1135.9500374819995 L 1030.8623991076927 1135.9500374819995" stroke-miterlimit="10" stroke-width="1.3612669416666667" stroke-dasharray=""/><g transform="translate(1033.584932991026,1135.9500374819995) translate(-1033.584932991026,-1135.9500374819995)"><path fill="black" stroke="none" paint-order="stroke fill markers" d=" M 1019.9722635743594 1129.1437027736663 L 1033.584932991026 1135.9500374819995 L 1019.9722635743594 1142.7563721903327 Z"/></g></g><g><text fill="black" stroke="none" font-family="sans-serif" font-size="11pt" font-style="normal" font-weight="normal" text-decoration="normal" x="740.1424608863549" y="1175.1545254019998" text-anchor="start" dominant-baseline="alphabetic" xml:space="preserve">Confirmation</text></g><g><path fill="none" stroke="black" paint-order="fill stroke markers" d=" M 1033.584932991026 1181.6886067219996 L 532.5291510829857 1181.6886067219996" stroke-miterlimit="10" stroke-width="1.3612669416666667" stroke-dasharray="6.53408132"/><g transform="translate(529.8066171996524,1181.6886067219996) translate(-529.8066171996524,-1181.6886067219996)"><path fill="black" stroke="none" paint-order="stroke fill markers" d=" M 543.419286616319 1174.8822720136664 L 529.8066171996524 1181.6886067219996 L 543.419286616319 1188.4949414303328 Z"/></g></g></g><g/><g/><g/><g/><g/><g/><g/><g/></g></svg>
