<svg version="1.1" xmlns="http://www.w3.org/2000/svg" xmlns:xlink="http://www.w3.org/1999/xlink" width="808" height="507"><defs/><g><g/><g/><g/><g/><g/><g/><g/><g/><g><rect fill="white" stroke="none" x="0" y="0" width="808" height="507"/></g><g><text fill="black" stroke="none" font-family="sans-serif" font-size="16.5pt" font-style="normal" font-weight="normal" text-decoration="normal" x="275.950229975586" y="24.50280495" text-anchor="start" dominant-baseline="alphabetic" xml:space="preserve">Get Workspace User Data</text></g><g><g><path fill="#9F5F9F" stroke="black" paint-order="fill stroke markers" d=" M 8.167601650000003 58.5617038305 L 111.41756935429687 58.5617038305 L 111.41756935429687 472.74078350200006 L 8.167601650000003 472.74078350200006 L 8.167601650000003 58.5617038305" stroke-miterlimit="10" stroke-width="1.3612669416666667" stroke-dasharray=""/></g><g><text fill="black" stroke="none" font-family="sans-serif" font-size="11pt" font-style="normal" font-weight="bold" text-decoration="normal" x="40.63725865888672" y="81.43098845050001" text-anchor="start" dominant-baseline="alphabetic" xml:space="preserve">Slack</text></g><g><path fill="none" stroke="black" paint-order="fill stroke markers" d=" M 228.02021137571614 50.394102180500006 L 800.084420801172 50.394102180500006 L 800.084420801172 472.74078350200006 L 228.02021137571614 472.74078350200006 L 228.02021137571614 50.394102180500006" stroke-miterlimit="10" stroke-width="1.3612669416666667" stroke-dasharray=""/></g><g><text fill="black" stroke="none" font-family="sans-serif" font-size="11pt" font-style="normal" font-weight="bold" text-decoration="normal" x="432.9642881343425" y="73.2633868005" text-anchor="start" dominant-baseline="alphabetic" xml:space="preserve">Service Provider Slack </text></g></g><g><path fill="none" stroke="black" paint-order="fill stroke markers" d=" M 59.79258550214844 167.272481792 L 59.79258550214844 507.04471043200004" stroke-miterlimit="10" stroke-width="1.3612669416666667" stroke-dasharray="12.565541,5.445067766666667"/><path fill="none" stroke="black" paint-order="fill stroke markers" d=" M 286.2987444222005 167.272481792 L 286.2987444222005 507.04471043200004" stroke-miterlimit="10" stroke-width="1.3612669416666667" stroke-dasharray="12.565541,5.445067766666667"/><path fill="none" stroke="black" paint-order="fill stroke markers" d=" M 444.7771161983073 167.272481792 L 444.7771161983073 507.04471043200004" stroke-miterlimit="10" stroke-width="1.3612669416666667" stroke-dasharray="12.565541,5.445067766666667"/><path fill="none" stroke="black" paint-order="fill stroke markers" d=" M 751.5732369978516 167.272481792 L 751.5732369978516 507.04471043200004" stroke-miterlimit="10" stroke-width="1.3612669416666667" stroke-dasharray="12.565541,5.445067766666667"/></g><g><g><path fill="white" stroke="black" paint-order="fill stroke markers" d=" M 92.21796405264844 120.39044832100001 A 24.2577769005 24.2577769005 0 1 1 92.21795192376099 120.36619054814246 M 28.755699232148434 94.74417914 L 28.755699232148434 146.03671750200002 M 27.367206951648434 120.39044832100001 L 43.70241025164844 120.39044832100001" stroke-miterlimit="10" stroke-width="2.7769845610000004" stroke-dasharray=""/></g><g><g/><text fill="black" stroke="none" font-family="sans-serif" font-size="11pt" font-style="normal" font-weight="normal" text-decoration="normal" x="16.335203300000003" y="162.371920802" text-anchor="start" dominant-baseline="alphabetic" xml:space="preserve">SlackWebApi</text></g><g><path fill="white" stroke="black" paint-order="fill stroke markers" d=" M 318.7241229727005 120.39044832100001 A 24.2577769005 24.2577769005 0 1 1 318.7241108438131 120.36619054814246 M 255.26185815220052 94.74417914 L 255.26185815220052 146.03671750200002 M 253.8733658717005 120.39044832100001 L 270.2085691717005 120.39044832100001" stroke-miterlimit="10" stroke-width="2.7769845610000004" stroke-dasharray=""/></g><g><g/><text fill="black" stroke="none" font-family="sans-serif" font-size="11pt" font-style="normal" font-weight="normal" text-decoration="normal" x="236.18781302571614" y="162.371920802" text-anchor="start" dominant-baseline="alphabetic" xml:space="preserve">SpUserHandler</text></g><g><path fill="white" stroke="black" paint-order="fill stroke markers" d=" M 469.0348930988073 120.39044832100001 A 24.2577769005 24.2577769005 0 1 1 469.03488096991987 120.36619054814246 M 441.51007553830726 96.1326714205 L 451.31119751830727 87.96506977050001 M 441.51007553830726 96.1326714205 L 451.31119751830727 104.3002730705" stroke-miterlimit="10" stroke-width="2.7769845610000004" stroke-dasharray=""/></g><g><g/><text fill="black" stroke="none" font-family="sans-serif" font-size="11pt" font-style="normal" font-weight="normal" text-decoration="normal" x="395.8938230464518" y="162.371920802" text-anchor="start" dominant-baseline="alphabetic" xml:space="preserve">SpUserService</text></g><g><path fill="white" stroke="black" paint-order="fill stroke markers" d=" M 727.7238401798517 135.255483324 L 727.7238401798517 100.95155639400002 L 775.4226338158516 100.95155639400002 L 775.4226338158516 135.255483324" stroke-miterlimit="10" stroke-width="2.7769845610000004" stroke-dasharray=""/><path fill="white" stroke="black" paint-order="fill stroke markers" d=" M 775.4226338158516 99.75908655310002 L 775.4214413559479 99.86689709801664 L 775.4178640954818 99.97469686196861 L 775.4119023921766 100.08247506506937 L 775.4035568421972 100.19022092958842 L 775.392828280092 100.2979236810291 L 775.3797177787081 100.40557254920603 L 775.3642266490849 100.51315676932207 L 775.3463564403223 100.62066558304487 L 775.3261089394263 100.72808823958268 L 775.3034861711301 100.83541399675931 L 775.2784903976917 100.94263212208854 L 775.2511241186677 101.04973189384714 L 775.2213900706631 101.1567026021472 L 775.189291227058 101.26353355000704 L 775.1548307977099 101.37021405442088 L 775.1180122286331 101.4767334474272 L 775.0788392016538 101.58308107717545 L 775.037315634042 101.68924630899127 L 774.99344567812 101.79521852643998 L 774.9472337208466 101.90098713238812 L 774.8986843833793 102.00654155006325 L 774.8478025206113 102.11187122411154 L 774.7945932206864 102.21696562165339 L 774.7390618044901 102.32181423333661 L 774.6812138251181 102.4264065743874 L 774.62105506732 102.53073218565882 L 774.5585915469213 102.63478063467669 L 774.4938295102221 102.7385415166828 L 774.4267754333721 102.84200445567542 L 774.3574360217232 102.94515910544688 L 774.2858182091585 103.04799515061815 L 774.2119291573998 103.15050230767042 L 774.1357762552908 103.2526703259734 L 774.057367118058 103.3544889888104 L 773.9767095865499 103.4559481144 L 773.8938117264524 103.55703755691417 L 773.8086818274826 103.6577472074929 L 773.7213284025592 103.75806699525508 L 773.631760186952 103.8579868883055 L 773.5399861374079 103.95749689473814 L 773.4460154312555 104.05658706363529 L 773.3498574654869 104.15524748606262 L 773.2515218558189 104.25346829606012 L 773.1510184357301 104.35123967162862 L 773.0483572554789 104.44855183571204 L 772.9435485810978 104.54539505717509 L 772.836602893367 104.6417596517763 L 772.727530886766 104.73763598313651 L 772.6163434684047 104.83301446370251 L 772.5030517569321 104.92788555570571 L 772.3876670814252 105.02223977211597 L 772.2702009802551 105.11606767759027 L 772.1506651999342 105.20935988941625 L 772.029071693941 105.30210707845049 L 771.9054326215246 105.39429997005135 L 771.7797603464892 105.48592934500653 L 771.6520674359577 105.57698604045486 L 771.5223666591147 105.66746095080268 L 771.3906709859298 105.75734502863436 L 771.2569935858605 105.84662928561703 L 771.1213478265356 105.93530479339938 L 770.9837472724178 106.02336268450453 L 770.8442056834479 106.11079415321676 L 770.7027370136685 106.19759045646204 L 770.5593554098288 106.28374291468239 L 770.4140752099696 106.36924291270377 L 770.2669109419897 106.45408190059764 L 770.1178773221936 106.5382513945359 L 769.9669892538187 106.62174297763931 L 769.8142618255464 106.70454830081913 L 769.6597103099922 106.78665908361204 L 769.5033501621787 106.86806711500819 L 769.3451970179904 106.94876425427228 L 769.1852666926101 107.02874243175762 L 769.0235751789369 107.10799364971314 L 768.8601386459876 107.18650998308306 L 768.694973437279 107.26428358029946 L 768.5280960691947 107.34130666406747 L 768.3595232293322 107.41757153214289 L 768.1892717748351 107.49307055810243 L 768.017358730707 107.56779619210644 L 767.8438012881089 107.6417409616538 L 767.6686168026406 107.71489747232916 L 767.4918227926046 107.7872584085424 L 767.3134369372546 107.85881653426023 L 767.1334770750273 107.9295646937297 L 766.9519612017592 107.9994958121938 L 766.7689074688863 108.06860289659899 L 766.5843341816293 108.1368790362944 L 766.3982597971631 108.20431740372297 L 766.2107029227711 108.27091125510412 L 766.0216823139845 108.33665393110826 L 765.8312168727066 108.40153885752254 L 765.6393256453227 108.46555954590839 L 765.446027820796 108.52870959425034 L 765.2513427287474 108.59098268759617 L 765.0552898375242 108.65237259868843 L 764.857888752252 108.71287318858718 L 764.659159212875 108.77247840728386 L 764.4591210921812 108.83118229430623 L 764.2577943938163 108.88897897931456 L 764.0551992502823 108.94586268268847 L 763.8513559209244 109.00182771610504 L 763.6462847899062 109.05686848310758 L 763.4400063641694 109.11097947966525 L 763.2325412713851 109.16415529472346 L 763.0239102578894 109.21639061074505 L 762.81413418661 109.26768020424194 L 762.603234034979 109.31801894629751 L 762.3912308928359 109.36740180307952 L 762.1781459603183 109.41582383634344 L 761.9640005457419 109.46328020392627 L 761.7488160634696 109.50976616023082 L 761.5326140317703 109.55527705670022 L 761.3154160706672 109.5998083422827 L 761.0972438997752 109.64335556388684 L 760.8781193361297 109.68591436682678 L 760.6580642920043 109.72748049525767 L 760.4371007727202 109.7680497926013 L 760.2152508744452 109.80761820196176 L 759.9925367819842 109.84618176653109 L 759.7689807665607 109.88373662998495 L 759.5446051835903 109.92027903686831 L 759.319432470444 109.95580533297093 L 759.0934851442056 109.99031196569278 L 758.8667857994194 110.02379548439939 L 758.639357105831 110.05625254076675 L 758.4112218061201 110.08767988911629 L 758.1824027136269 110.11807438673935 L 757.9529227100695 110.14743299421153 L 757.7228047432575 110.17575277569651 L 757.4920718247954 110.20303089923975 L 757.260747027783 110.22926463705164 L 757.0288534845072 110.25445136578027 L 756.7964143841291 110.27858856677372 L 756.563452970365 110.30167382633203 L 756.329992539162 110.32370483594849 L 756.096056436369 110.34467939254047 L 755.8616680554011 110.3645953986698 L 755.6268508349011 110.38345086275248 L 755.3916282563955 110.40124389925779 L 755.1560238419459 110.41797272889693 L 754.9200611517975 110.43363567880087 L 754.6837637820229 110.44823118268765 L 754.4471553621619 110.46175778101907 L 754.2102595528593 110.47421412114657 L 753.9731000434988 110.4855989574465 L 753.7357005498336 110.49591115144473 L 753.4980848116152 110.50514967193044 L 753.2602765902195 110.5133135950593 L 753.0222996662704 110.5204021044458 L 752.7841778372621 110.52641449124488 L 752.5459349151789 110.53135015422289 L 752.3075947241146 110.53520859981765 L 752.0691810978896 110.53798944218781 L 751.8307178776678 110.53969240325145 L 751.5922289095727 110.54031731271388 L 751.3537380423021 110.53986410808467 L 751.1152691247443 110.53833283468393 L 750.876846003592 110.5357236456377 L 750.6384925209591 110.53203680186272 L 750.4002325119947 110.52727267204028 L 750.1620898025014 110.52143173257942 L 749.9240882065518 110.5145145675692 L 749.686251524107 110.50652186872036 L 749.448603538637 110.4974544352961 L 749.2111680147425 110.48731317403227 L 748.9739686957778 110.47609909904648 L 748.7370293014774 110.46381333173692 L 748.5003735255831 110.45045710067006 L 748.2640250334753 110.4360317414579 L 748.0280074598062 110.42053869662433 L 747.7923444061366 110.40397951546092 L 747.5570594385755 110.38635585387198 L 747.3221760854235 110.367669474209 L 747.0877178348202 110.34792224509437 L 746.8537081323954 110.32711614123453 L 746.620170378924 110.30525324322254 L 746.3871279279871 110.28233573732997 L 746.1546040836354 110.25836591528834 L 745.9226220980595 110.23334617405986 L 745.6912051692649 110.2072790155978 L 745.4603764387514 110.18016704659628 L 745.2301589891998 110.15201297822964 L 745.0005758421632 110.1228196258812 L 744.7716499557649 110.09258990886192 L 744.543404222403 110.06132685011828 L 744.3158614664603 110.0290335759301 L 744.089044442023 109.99571331559791 L 743.8629758306046 109.96136940111997 L 743.6376782388776 109.9260052668591 L 743.4131741964135 109.88962444919923 L 743.1894861534296 109.85223058619187 L 742.9666364785437 109.81382741719212 L 742.7446474565376 109.77441878248487 L 742.5235412861285 109.73400862290077 L 742.3033400777491 109.6926009794221 L 742.084065851337 109.6501999927787 L 741.8657405341318 109.60680990303389 L 741.6483859584833 109.56243504916051 L 741.4320238596683 109.51707986860694 L 741.216675873716 109.47074889685346 L 741.0023635352458 109.42344676695863 L 740.7891082753126 109.37517820909602 L 740.5769314192652 109.3259480500812 L 740.3658541846119 109.27576121288904 L 740.1558976789005 109.22462271616142 L 739.9470828976066 109.17253767370543 L 739.7394307220343 109.1195112939819 L 739.5329619172281 109.0655488795846 L 739.3276971298965 109.01065582671 L 739.123656886347 108.95483762461768 L 738.920861590434 108.89809985508128 L 738.7193315215183 108.84044819183053 L 738.5190868324386 108.78188839998367 L 738.320147547497 108.7224263354711 L 738.1225335604562 108.66206794444972 L 737.9262646325503 108.60081926270831 L 737.7313603905085 108.53868641506405 L 737.5378403245926 108.47567561474989 L 737.3457237866478 108.41179316279337 L 737.155029988168 108.34704544738645 L 736.965777998374 108.2814389432467 L 736.7779867423071 108.21498021096988 L 736.5916749989365 108.14767589637383 L 736.4068613992811 108.07953272983391 L 736.223564424547 108.01055752561001 L 736.0418024042788 107.94075718116505 L 735.8615935145273 107.87013867647532 L 735.682955776031 107.79870907333245 L 735.5059070524151 107.72647551463722 L 735.3304650484042 107.6534452236853 L 735.1566473080528 107.57962550344493 L 734.9844712129899 107.50502373582663 L 734.8139539806815 107.42964738094497 L 734.6451126627089 107.35350397637264 L 734.477964143063 107.27660113638665 L 734.3125251364567 107.1989465512069 L 734.1488121866524 107.12054798622721 L 733.9868416648092 107.04141328123873 L 733.8266297678439 106.96155034964602 L 733.6681925168127 106.8809671776757 L 733.5115457553089 106.7996718235778 L 733.3567051478781 106.71767241681998 L 733.2036861784518 106.63497715727459 L 733.0525041487995 106.55159431439867 L 732.9031741769982 106.46753222640703 L 732.7557111959206 106.38279929943842 L 732.6101299517421 106.29740400671491 L 732.4664450024657 106.21135488769461 L 732.3246707164665 106.12466054721774 L 732.1848212710551 106.03732965464607 L 732.0469106510593 105.94937094299611 L 731.9109526474263 105.8607932080657 L 731.7769608558432 105.77160530755455 L 731.6449486753775 105.68181616017836 L 731.5149293071371 105.59143474477705 L 731.3869157529506 105.50047009941686 L 731.2609208140667 105.40893132048649 L 731.1369570898744 105.31682756178758 L 731.0150369766427 105.22416803361924 L 730.8951726662813 105.13096200185706 L 730.7773761451214 105.03721878702656 L 730.6616591927169 104.94294776337108 L 730.5480333806667 104.84815835791446 L 730.4365100714573 104.75286004951823 L 730.3271004173266 104.65706236793383 L 730.2198153591489 104.56077489284957 L 730.1146656253406 104.46400725293273 L 730.0116617307876 104.36676912486666 L 729.9108139757933 104.26907023238314 L 729.8121324450492 104.17092034529 L 729.7156270066263 104.07232927849415 L 729.6213073109878 103.97330689102013 L 729.5291827900248 103.87386308502415 L 729.4392626561126 103.77400780480394 L 729.3515559011897 103.67375103580433 L 729.2660712958584 103.57310280361865 L 729.1828173885082 103.47207317298626 L 729.1018025044601 103.37067224678601 L 729.0230347451353 103.26891016502606 L 728.9465219872441 103.16679710382974 L 728.8722718819982 103.0643432744181 L 728.8002918543467 102.96155892208871 L 728.730589102232 102.85845432519113 L 728.6631705958715 102.75503979409915 L 728.5980430770595 102.65132567017969 L 728.5352130584936 102.5473223247587 L 728.4746868231234 102.44304015808407 L 728.4164704235219 102.33848959828556 L 728.3605696812807 102.23368110033203 L 728.3069901864272 102.12862514498595 L 728.2557372968664 102.02333223775527 L 728.2068161378446 101.91781290784299 L 728.1602316014367 101.81207770709416 L 728.1159883460579 101.70613720894077 L 728.0740907959964 101.60000200734433 L 728.0345431409727 101.49368271573654 L 727.997349335719 101.387189965958 L 727.9625130995852 101.2805344071949 L 727.9300379161655 101.17372670491429 L 727.8999270329515 101.06677753979733 L 727.8721834610062 100.95969760667145 L 727.8468099746639 100.85249761344073 L 727.8238091112519 100.74518828001514 L 727.8031831708374 100.63778033723861 L 727.7849342159973 100.5302845258159 L 727.7690640716119 100.42271159523858 L 727.7555743246824 100.31507230271008 L 727.7444663241721 100.20737741206993 L 727.7357411808721 100.09963769271747 L 727.7293997672891 99.99186391853482 L 727.7254427175595 99.88406686680962 L 727.7238704273848 99.77625731715719 L 727.7246830539927 99.66844605044267 L 727.7278805161213 99.56064384770288 L 727.733462494027 99.45286148906825 L 727.7414284295166 99.34510975268485 L 727.7517775260034 99.23739941363651 L 727.7645087485862 99.12974124286738 L 727.7796208241533 99.02214600610482 L 727.7971122415099 98.91462446278284 L 727.8169812515287 98.80718736496618 L 727.8392258673254 98.69984545627509 L 727.8638438644568 98.59260947081098 L 727.8908327811438 98.48549013208303 L 727.9201899185172 98.37849815193587 L 727.9519123408877 98.27164422947833 L 727.9859968760396 98.16493905001363 L 728.0224401155476 98.05839328397077 L 728.0612384151184 97.9520175858376 L 728.1023878949541 97.84582259309526 L 728.1458844401411 97.73981892515455 L 728.1917237010612 97.6340171822939 L 728.2399010938263 97.52842794459946 L 728.2904118007376 97.423061770907 L 728.3432507707662 97.31792919774607 L 728.3984127200594 97.21304073828638 L 728.455892132468 97.10840688128647 L 728.5156832600987 97.00403809004486 L 728.5777801238886 96.89994480135368 L 728.6421765142031 96.79613742445507 L 728.708865991457 96.6926263400002 L 728.7778418867578 96.58942189901128 L 728.8490973025736 96.48653442184639 L 728.9226251134222 96.38397419716749 L 728.9984179665838 96.28175148091161 L 729.0764682828362 96.17987649526519 L 729.156768257213 96.07835942764187 L 729.2393098597834 95.97721042966384 L 729.3240848364561 95.8764396161466 L 729.4110847098041 95.77605706408754 L 729.5003007799124 95.67607281165819 L 729.5917241252486 95.57649685720048 L 729.6853456035541 95.47733915822688 L 729.7811558527591 95.37860963042466 L 729.8791452919187 95.28031814666433 L 729.9793041221706 95.18247453601234 L 730.0816223277151 95.08508858274823 L 730.1860896768169 94.98817002538617 L 730.2926957228284 94.89172855570112 L 730.4014298052336 94.79577381775971 L 730.5122810507149 94.70031540695574 L 730.6252383742403 94.60536286905077 L 730.7402904801714 94.51092569921943 L 730.8574258633936 94.41701334110004 L 730.976632810466 94.32363518585014 L 731.0978994007934 94.23080057120742 L 731.2212135078178 94.13851878055601 L 731.3465628002313 94.04679904199807 L 731.4739347432089 93.955650527431 L 731.6033165996628 93.86508235163033 L 731.7346954315149 93.77510357133815 L 731.8680581009914 93.68572318435751 L 732.0033912719368 93.59695012865262 L 732.1406814111467 93.5087932814551 L 732.2799147897215 93.42126145837616 L 732.4210774844394 93.33436341252519 L 732.5641553791485 93.24810783363438 L 732.7091341661786 93.1625033471897 L 732.8559993477719 93.07755851356848 L 733.0047362375326 92.9932818271833 L 733.1553299618955 92.90968171563254 L 733.3077654616139 92.82676653885773 L 733.4620274932647 92.74454458830742 L 733.6181006307734 92.66302408610815 L 733.7759692669562 92.58221318424222 L 733.9356176150811 92.50211996373247 L 734.0970297104462 92.4227524338342 L 734.2601894119767 92.34411853123427 L 734.4250804038383 92.26622611925741 L 734.5916861970692 92.1890829870799 L 734.759990131229 92.11269684895069 L 734.9299753760642 92.0370753434199 L 735.1016249331925 91.9622260325751 L 735.274921637801 91.888156401285 L 735.4498481603634 91.81487385645099 L 735.6263870083736 91.74238572626649 L 735.8045205280937 91.67069925948411 L 735.9842309063202 91.59982162469079 L 736.1655001721651 91.52975990959095 L 736.3483101988528 91.4605211202977 L 736.532642705533 91.3921121806323 L 736.7184792591088 91.32453993143167 L 736.9058012760794 91.25781112986445 L 737.0945900243993 91.1919324487552 L 737.2848266253511 91.12691047591709 L 737.4764920554333 91.06275171349324 L 737.6695671482623 90.99946257730645 L 737.86403259649 90.93704939621756 L 738.0598689537336 90.87551841149269 L 738.2570566365204 90.81487577617904 L 738.4555759262466 90.75512755448958 L 738.6554069711486 90.69627972119672 L 738.8565297882884 90.63833816103474 L 739.058924265552 90.58130866811136 L 739.2625701636604 90.52519694532836 L 739.4674471181931 90.47000860381125 L 739.6735346416258 90.41574916234819 L 739.8808121253777 90.36242404683813 L 740.0892588418732 90.31003858974816 L 740.2988539466144 90.25859802958036 L 740.5095764802653 90.20810751034786 L 740.7214053707484 90.1585720810605 L 740.934319435351 90.10999669521995 L 741.1482973828441 90.0623862103243 L 741.3633178156114 90.01574538738238 L 741.5793592317885 89.9700788904376 L 741.796400027414 89.92539128610161 L 742.0144184985894 89.88168704309761 L 742.233392843649 89.83897053181346 L 742.4533011653407 89.79724602386472 L 742.6741214730159 89.75651769166738 L 742.8958316848276 89.71678960802075 L 743.1184096299395 89.67806574570005 L 743.3418330507425 89.64034997705929 L 743.5660796050806 89.60364607364387 L 743.7911268684855 89.56795770581357 L 744.0169523364183 89.53328844237541 L 744.2435334265203 89.49964175022686 L 744.4708474808715 89.46702099400908 L 744.6988717682556 89.43542943577052 L 744.9275834864341 89.40487023464067 L 745.1569597644257 89.37534644651419 L 745.3869776647938 89.34686102374526 L 745.6176141859399 89.31941681485246 L 745.8488462644043 89.29301656423378 L 746.0806507771716 89.2676629118923 L 746.313004543984 89.2433583931721 L 746.5458843296582 89.22010543850483 L 746.7792668464098 89.19790637316656 L 747.0131287561816 89.17676341704532 L 747.2474466729774 89.15667868441913 L 747.4821971652009 89.13765418374449 L 747.7173567579985 89.11969181745562 L 747.9529019356069 89.10279338177418 L 748.1888091437045 89.08696056652965 L 748.4250547917673 89.0721949549904 L 748.661615255427 89.05849802370521 L 748.8984668788348 89.04587114235585 L 749.1355859770255 89.03431557361992 L 749.3729488382869 89.02383247304465 L 749.6105317265307 89.01442288893136 L 749.8483108836659 89.00608776223065 L 750.0862625319753 88.99882792644821 L 750.324362876492 88.9926441075616 L 750.5625881073802 88.98753692394752 L 750.8009144023152 88.9835068863201 L 751.0393179288662 88.98055439767974 L 751.2777748468791 88.97867975327284 L 751.516261310861 88.97788314056228 L 751.754753472364 88.97816463920867 L 751.9932274823708 88.97952422106238 L 752.2316594936792 88.98196175016635 L 752.4700256632867 88.98547698276971 L 752.708302154775 88.99006956735212 L 752.9464651406935 88.99573904465896 L 753.184490804942 89.00248484774721 L 753.4223553451525 89.0103063020422 L 753.6600349750692 89.019202625405 L 753.8975059269272 89.0291729282107 L 754.1347444538292 89.04021621343732 L 754.3717268321201 89.05233137676555 L 754.6084293637597 89.06551720668914 L 754.844828378692 89.0797723846361 L 755.0809002372126 89.0950954851005 L 755.3166213323323 89.11148497578507 L 755.5519680921379 89.12893921775441 L 755.7869169821498 89.14745646559885 L 756.0214445076746 89.16703486760905 L 756.2555272161553 89.18767246596111 L 756.489141699516 89.20936719691241 L 756.7222645965031 89.23211689100792 L 756.9548725950212 89.2559192732972 L 757.1869424344643 89.28077196356185 L 757.4184509080418 89.30667247655354 L 757.6493748650993 89.33361822224259 L 757.8796912134335 89.36160650607685 L 758.1093769216014 89.39063452925127 L 758.3384090212238 89.42069938898774 L 758.5667646092814 89.45179807882532 L 758.7944208504059 89.48392748892095 L 759.0213549791627 89.5170844063604 L 759.247544302328 89.55126551547954 L 759.4729662011583 89.58646739819596 L 759.6975981336512 89.62268653435072 L 759.9214176368009 89.65991930206037 L 760.1444023288435 89.69816197807918 L 760.3665299114955 89.73741073817143 L 760.587778172184 89.7776616574938 L 760.8081249862671 89.8189107109879 L 761.027548319247 89.86115377378276 L 761.2460262289734 89.9043866216073 L 761.4635368678373 89.94860493121277 L 761.6800584849561 89.99380428080505 L 761.8955694283485 90.03998015048685 L 762.1100481470997 90.0871279227097 L 762.3234731935167 90.13524288273562 L 762.5358232252727 90.18432021910876 L 762.7470770075414 90.23435502413635 L 762.9572134151206 90.28534229437957 L 763.1662114345446 90.33727693115392 L 763.3740501661858 90.39015374103897 L 763.5807088263441 90.44396743639781 L 763.7861667493258 90.49871263590576 L 763.9904033895098 90.55438386508847 L 764.1933983234021 90.6109755568694 L 764.3951312516787 90.66848205212658 L 764.5955820012148 90.72689760025837 L 764.7947305271024 90.78621635975864 L 764.992556914655 90.84643239880089 L 765.1890413813986 90.90753969583137 L 765.3841642790504 90.96953214017132 L 765.5779060954832 91.03240353262795 L 765.7702474566765 91.09614758611443 L 765.961169128655 91.1607579262785 L 766.1506520194101 91.22622809214002 L 766.338677180811 91.29255153673692 L 766.5252258104981 91.35972162778006 L 766.7102792537638 91.42773164831627 L 766.8938190054181 91.49657479740019 L 767.0758267116388 91.56624419077427 L 767.2562841718069 91.63673286155725 L 767.4351733403267 91.70803376094076 L 767.6124763284305 91.78013975889431 L 767.7881754059673 91.85304364487818 L 767.9622530031756 91.92673812856452 L 768.1346917124409 92.00121584056639 L 768.3054742900359 92.07646933317463 L 768.4745836578452 92.15249108110271 L 768.6420029050728 92.22927348223918 L 768.8077152899336 92.3068088584079 L 768.9717042413273 92.3850894561359 L 769.1339533604953 92.4641074474286 L 769.2944464226609 92.54385493055275 L 769.4531673786518 92.62432393082648 L 769.6101003565043 92.70550640141681 L 769.7652296630516 92.78739422414436 L 769.9185397854925 92.86997921029509 L 770.0700153929422 92.95325310143917 L 770.2196413379663 93.03720757025692 L 770.3674026580951 93.12183422137142 L 770.5132845773196 93.20712459218805 L 770.6572725075695 93.29307015374081 L 770.7993520501717 93.3796623115452 L 770.9395089972904 93.46689240645757 L 771.0777293333476 93.55475171554113 L 771.213999236425 93.64323145293818 L 771.3483050796458 93.73232277074871 L 771.4806334325376 93.8220167599152 L 771.6109710623753 93.91230445111346 L 771.7393049355046 94.00317681564962 L 771.8656222186453 94.09462476636294 L 771.989910280174 94.18663915853458 L 772.1121566913883 94.27921079080198 L 772.2323492277491 94.37233040607906 L 772.3504758701027 94.46598869248189 L 772.4665248058834 94.56017628425988 L 772.5804844302943 94.65488376273235 L 772.692343347468 94.75010165723037 L 772.8020903716058 94.84582044604385 L 772.909714528097 94.94203055737364 L 773.0152050546154 95.03872237028881 L 773.1185514021964 95.13588621568863 L 773.2197432362914 95.23351237726953 L 773.3187704378013 95.33159109249674 L 773.4156231040882 95.43011255358043 L 773.5102915499666 95.5290669084566 L 773.6027663086705 95.62844426177223 L 773.6930381328013 95.72823467587482 L 773.7810979952517 95.82842817180608 L 773.8669370901088 95.92901473029994 L 773.9505468335348 96.02998429278436 L 774.0319188646247 96.13132676238725 L 774.1110450462436 96.23303200494607 L 774.1879174658391 96.33508985002135 L 774.2625284362332 96.4374900919136 L 774.3348704963912 96.54022249068399 L 774.4049364121674 96.64327677317824 L 774.4727191770285 96.746642634054 L 774.5382120127545 96.85030973681128 L 774.6014083701164 96.95426771482623 L 774.662301929531 97.05850617238767 L 774.7208866016935 97.1630146857367 L 774.7771565281851 97.26778280410907 L 774.8311060820603 97.37280005078027 L 774.8827298684085 97.47805592411314 L 774.9320227248942 97.58353989860805 L 774.9789797222728 97.68924142595546 L 775.0235961648837 97.79514993609072 L 775.0658675911197 97.90125483825108 L 775.1057897738735 98.00754552203473 L 775.1433587209602 98.11401135846187 L 775.1785706755162 98.22064170103758 L 775.2114221163756 98.32742588681647 L 775.2419097584215 98.43435323746894 L 775.2700305529152 98.54141306034904 L 775.2957816878005 98.64859464956368 L 775.3191605879857 98.75588728704328 L 775.3401649156 98.86328024361347 L 775.3587925702283 98.97076278006811 L 775.3750416891205 99.07832414824313 L 775.3889106473785 99.18595359209134 L 775.4003980581177 99.29364034875802 L 775.4095027726069 99.40137364965727 L 775.4162238803821 99.50914272154878 L 775.420560709338 99.61693678761516 L 775.4225128257956 99.72474506853963 M 775.4226338158516 134.0630134831 L 775.4214413559479 134.17082402801663 L 775.4178640954818 134.2786237919686 L 775.4119023921766 134.38640199506935 L 775.4035568421972 134.49414785958842 L 775.392828280092 134.60185061102908 L 775.3797177787081 134.70949947920602 L 775.3642266490849 134.81708369932204 L 775.3463564403223 134.92459251304487 L 775.3261089394263 135.03201516958265 L 775.3034861711301 135.1393409267593 L 775.2784903976917 135.24655905208851 L 775.2511241186677 135.35365882384713 L 775.2213900706631 135.46062953214718 L 775.189291227058 135.56746048000701 L 775.1548307977099 135.67414098442086 L 775.1180122286331 135.78066037742718 L 775.0788392016538 135.88700800717544 L 775.037315634042 135.99317323899126 L 774.99344567812 136.09914545643997 L 774.9472337208466 136.2049140623881 L 774.8986843833793 136.31046848006324 L 774.8478025206113 136.41579815411154 L 774.7945932206864 136.5208925516534 L 774.7390618044901 136.62574116333658 L 774.6812138251181 136.7303335043874 L 774.62105506732 136.8346591156588 L 774.5585915469213 136.9387075646767 L 774.4938295102221 137.0424684466828 L 774.4267754333721 137.14593138567542 L 774.3574360217232 137.24908603544688 L 774.2858182091585 137.35192208061815 L 774.2119291573998 137.4544292376704 L 774.1357762552908 137.5565972559734 L 774.057367118058 137.6584159188104 L 773.9767095865499 137.7598750444 L 773.8938117264524 137.86096448691416 L 773.8086818274826 137.96167413749288 L 773.7213284025592 138.06199392525505 L 773.631760186952 138.1619138183055 L 773.5399861374079 138.26142382473813 L 773.4460154312555 138.3605139936353 L 773.3498574654869 138.4591744160626 L 773.2515218558189 138.5573952260601 L 773.1510184357301 138.6551666016286 L 773.0483572554789 138.75247876571203 L 772.9435485810978 138.84932198717507 L 772.836602893367 138.94568658177627 L 772.727530886766 139.04156291313652 L 772.6163434684047 139.1369413937025 L 772.5030517569321 139.2318124857057 L 772.3876670814252 139.32616670211596 L 772.2702009802551 139.41999460759027 L 772.1506651999342 139.51328681941624 L 772.029071693941 139.60603400845048 L 771.9054326215246 139.69822690005134 L 771.7797603464892 139.7898562750065 L 771.6520674359577 139.88091297045483 L 771.5223666591147 139.97138788080267 L 771.3906709859298 140.06127195863436 L 771.2569935858605 140.15055621561703 L 771.1213478265356 140.23923172339937 L 770.9837472724178 140.3272896145045 L 770.8442056834479 140.41472108321673 L 770.7027370136685 140.501517386462 L 770.5593554098288 140.58766984468238 L 770.4140752099696 140.67316984270377 L 770.2669109419897 140.75800883059765 L 770.1178773221936 140.8421783245359 L 769.9669892538187 140.9256699076393 L 769.8142618255464 141.00847523081913 L 769.6597103099922 141.09058601361204 L 769.5033501621787 141.17199404500818 L 769.3451970179904 141.25269118427227 L 769.1852666926101 141.3326693617576 L 769.0235751789369 141.41192057971313 L 768.8601386459876 141.49043691308304 L 768.694973437279 141.56821051029945 L 768.5280960691947 141.64523359406746 L 768.3595232293322 141.72149846214288 L 768.1892717748351 141.79699748810242 L 768.017358730707 141.87172312210643 L 767.8438012881089 141.94566789165378 L 767.6686168026406 142.01882440232913 L 767.4918227926046 142.0911853385424 L 767.3134369372546 142.16274346426022 L 767.1334770750273 142.2334916237297 L 766.9519612017592 142.3034227421938 L 766.7689074688863 142.372529826599 L 766.5843341816293 142.4408059662944 L 766.3982597971631 142.50824433372296 L 766.2107029227711 142.5748381851041 L 766.0216823139845 142.64058086110825 L 765.8312168727066 142.70546578752254 L 765.6393256453227 142.7694864759084 L 765.446027820796 142.83263652425032 L 765.2513427287474 142.89490961759617 L 765.0552898375242 142.95629952868842 L 764.857888752252 143.01680011858718 L 764.659159212875 143.07640533728383 L 764.4591210921812 143.13510922430623 L 764.2577943938163 143.19290590931453 L 764.0551992502823 143.24978961268846 L 763.8513559209244 143.30575464610504 L 763.6462847899062 143.36079541310758 L 763.4400063641694 143.41490640966524 L 763.2325412713851 143.46808222472345 L 763.0239102578894 143.52031754074505 L 762.81413418661 143.57160713424193 L 762.603234034979 143.6219458762975 L 762.3912308928359 143.67132873307952 L 762.1781459603183 143.71975076634342 L 761.9640005457419 143.76720713392626 L 761.7488160634696 143.81369309023083 L 761.5326140317703 143.8592039867002 L 761.3154160706672 143.9037352722827 L 761.0972438997752 143.94728249388683 L 760.8781193361297 143.98984129682677 L 760.6580642920043 144.03140742525764 L 760.4371007727202 144.07197672260128 L 760.2152508744452 144.11154513196175 L 759.9925367819842 144.15010869653108 L 759.7689807665607 144.18766355998494 L 759.5446051835903 144.2242059668683 L 759.319432470444 144.2597322629709 L 759.0934851442056 144.29423889569279 L 758.8667857994194 144.32772241439937 L 758.639357105831 144.36017947076672 L 758.4112218061201 144.39160681911628 L 758.1824027136269 144.42200131673934 L 757.9529227100695 144.45135992421152 L 757.7228047432575 144.4796797056965 L 757.4920718247954 144.50695782923975 L 757.260747027783 144.53319156705163 L 757.0288534845072 144.55837829578024 L 756.7964143841291 144.5825154967737 L 756.563452970365 144.60560075633202 L 756.329992539162 144.62763176594848 L 756.096056436369 144.64860632254045 L 755.8616680554011 144.66852232866978 L 755.6268508349011 144.68737779275247 L 755.3916282563955 144.70517082925778 L 755.1560238419459 144.72189965889692 L 754.9200611517975 144.73756260880086 L 754.6837637820229 144.75215811268765 L 754.4471553621619 144.76568471101908 L 754.2102595528593 144.77814105114655 L 753.9731000434988 144.7895258874465 L 753.7357005498336 144.7998380814447 L 753.4980848116152 144.80907660193043 L 753.2602765902195 144.8172405250593 L 753.0222996662704 144.82432903444578 L 752.7841778372621 144.83034142124487 L 752.5459349151789 144.83527708422287 L 752.3075947241146 144.83913552981764 L 752.0691810978896 144.8419163721878 L 751.8307178776678 144.84361933325144 L 751.5922289095727 144.84424424271387 L 751.3537380423021 144.84379103808467 L 751.1152691247443 144.84225976468392 L 750.876846003592 144.83965057563768 L 750.6384925209591 144.8359637318627 L 750.4002325119947 144.83119960204027 L 750.1620898025014 144.82535866257942 L 749.9240882065518 144.81844149756918 L 749.686251524107 144.81044879872033 L 749.448603538637 144.8013813652961 L 749.2111680147425 144.79124010403225 L 748.9739686957778 144.78002602904647 L 748.7370293014774 144.7677402617369 L 748.5003735255831 144.75438403067005 L 748.2640250334753 144.73995867145788 L 748.0280074598062 144.72446562662432 L 747.7923444061366 144.7079064454609 L 747.5570594385755 144.69028278387196 L 747.3221760854235 144.671596404209 L 747.0877178348202 144.65184917509436 L 746.8537081323954 144.6310430712345 L 746.620170378924 144.6091801732225 L 746.3871279279871 144.58626266732998 L 746.1546040836354 144.56229284528834 L 745.9226220980595 144.53727310405984 L 745.6912051692649 144.5112059455978 L 745.4603764387514 144.48409397659628 L 745.2301589891998 144.45593990822962 L 745.0005758421632 144.4267465558812 L 744.7716499557649 144.3965168388619 L 744.543404222403 144.36525378011828 L 744.3158614664603 144.3329605059301 L 744.089044442023 144.2996402455979 L 743.8629758306046 144.26529633111994 L 743.6376782388776 144.22993219685907 L 743.4131741964135 144.19355137919922 L 743.1894861534296 144.15615751619185 L 742.9666364785437 144.1177543471921 L 742.7446474565376 144.07834571248486 L 742.5235412861285 144.03793555290076 L 742.3033400777491 143.9965279094221 L 742.084065851337 143.9541269227787 L 741.8657405341318 143.9107368330339 L 741.6483859584833 143.8663619791605 L 741.4320238596683 143.82100679860693 L 741.216675873716 143.77467582685347 L 741.0023635352458 143.72737369695864 L 740.7891082753126 143.679105139096 L 740.5769314192652 143.62987498008118 L 740.3658541846119 143.579688142889 L 740.1558976789005 143.52854964616142 L 739.9470828976066 143.4764646037054 L 739.7394307220343 143.4234382239819 L 739.5329619172281 143.36947580958457 L 739.3276971298965 143.31458275671 L 739.123656886347 143.25876455461767 L 738.920861590434 143.20202678508127 L 738.7193315215183 143.1443751218305 L 738.5190868324386 143.08581532998366 L 738.320147547497 143.02635326547107 L 738.1225335604562 142.9659948744497 L 737.9262646325503 142.9047461927083 L 737.7313603905085 142.84261334506402 L 737.5378403245926 142.77960254474988 L 737.3457237866478 142.71572009279336 L 737.155029988168 142.65097237738644 L 736.965777998374 142.5853658732467 L 736.7779867423071 142.51890714096987 L 736.5916749989365 142.4516028263738 L 736.4068613992811 142.3834596598339 L 736.223564424547 142.31448445561 L 736.0418024042788 142.24468411116504 L 735.8615935145273 142.17406560647532 L 735.682955776031 142.10263600333244 L 735.5059070524151 142.03040244463722 L 735.3304650484042 141.9573721536853 L 735.1566473080528 141.88355243344492 L 734.9844712129899 141.80895066582661 L 734.8139539806815 141.73357431094496 L 734.6451126627089 141.65743090637264 L 734.477964143063 141.58052806638665 L 734.3125251364567 141.5028734812069 L 734.1488121866524 141.42447491622718 L 733.9868416648092 141.34534021123872 L 733.8266297678439 141.265477279646 L 733.6681925168127 141.1848941076757 L 733.5115457553089 141.10359875357778 L 733.3567051478781 141.02159934681995 L 733.2036861784518 140.93890408727458 L 733.0525041487995 140.85552124439866 L 732.9031741769982 140.77145915640702 L 732.7557111959206 140.68672622943842 L 732.6101299517421 140.6013309367149 L 732.4664450024657 140.5152818176946 L 732.3246707164665 140.42858747721772 L 732.1848212710551 140.34125658464606 L 732.0469106510593 140.2532978729961 L 731.9109526474263 140.1647201380657 L 731.7769608558432 140.07553223755454 L 731.6449486753775 139.98574309017835 L 731.5149293071371 139.89536167477704 L 731.3869157529506 139.80439702941683 L 731.2609208140667 139.71285825048648 L 731.1369570898744 139.62075449178758 L 731.0150369766427 139.52809496361922 L 730.8951726662813 139.43488893185705 L 730.7773761451214 139.34114571702654 L 730.6616591927169 139.24687469337107 L 730.5480333806667 139.15208528791445 L 730.4365100714573 139.05678697951822 L 730.3271004173266 138.96098929793382 L 730.2198153591489 138.86470182284955 L 730.1146656253406 138.76793418293272 L 730.0116617307876 138.67069605486665 L 729.9108139757933 138.57299716238313 L 729.8121324450492 138.47484727529 L 729.7156270066263 138.37625620849414 L 729.6213073109878 138.27723382102013 L 729.5291827900248 138.17779001502413 L 729.4392626561126 138.07793473480393 L 729.3515559011897 137.9776779658043 L 729.2660712958584 137.87702973361863 L 729.1828173885082 137.77600010298625 L 729.1018025044601 137.67459917678602 L 729.0230347451353 137.57283709502605 L 728.9465219872441 137.47072403382973 L 728.8722718819982 137.3682702044181 L 728.8002918543467 137.26548585208872 L 728.730589102232 137.16238125519112 L 728.6631705958715 137.05896672409915 L 728.5980430770595 136.95525260017968 L 728.5352130584936 136.8512492547587 L 728.4746868231234 136.74696708808406 L 728.4164704235219 136.64241652828557 L 728.3605696812807 136.53760803033202 L 728.3069901864272 136.43255207498592 L 728.2557372968664 136.32725916775524 L 728.2068161378446 136.22173983784296 L 728.1602316014367 136.11600463709416 L 728.1159883460579 136.01006413894075 L 728.0740907959964 135.90392893734432 L 728.0345431409727 135.79760964573654 L 727.997349335719 135.69111689595798 L 727.9625130995852 135.5844613371949 L 727.9300379161655 135.47765363491428 L 727.8999270329515 135.37070446979732 L 727.8721834610062 135.26362453667144 L 727.8468099746639 135.15642454344072 L 727.8238091112519 135.04911521001512 L 727.8031831708374 134.9417072672386 L 727.7849342159973 134.83421145581588 L 727.7690640716119 134.72663852523857 L 727.7555743246824 134.61899923271008 L 727.7444663241721 134.5113043420699 L 727.7357411808721 134.40356462271745 L 727.7293997672891 134.2957908485348 L 727.7254427175595 134.1879937968096 L 727.7238704273848 134.08018424715718" stroke-miterlimit="10" stroke-width="2.7769845610000004" stroke-dasharray=""/></g><g><g/><text fill="black" stroke="none" font-family="sans-serif" font-size="11pt" font-style="normal" font-weight="normal" text-decoration="normal" x="711.2296548445313" y="162.371920802" text-anchor="start" dominant-baseline="alphabetic" xml:space="preserve">SpDatabase</text></g></g><g><path fill="white" stroke="black" paint-order="fill stroke markers" d=" M 51.62498385214844 175.440083442 L 67.96018715214844 175.440083442 L 67.96018715214844 490.70950713200006 L 51.62498385214844 490.70950713200006 L 51.62498385214844 175.440083442" stroke-miterlimit="10" stroke-width="1.3612669416666667" stroke-dasharray=""/><path fill="white" stroke="black" paint-order="fill stroke markers" d=" M 436.6095145483073 175.440083442 L 452.9447178483073 175.440083442 L 452.9447178483073 449.871498882 L 436.6095145483073 449.871498882 L 436.6095145483073 175.440083442" stroke-miterlimit="10" stroke-width="1.3612669416666667" stroke-dasharray=""/><path fill="white" stroke="black" paint-order="fill stroke markers" d=" M 278.1311427722005 221.178652682 L 294.4663460722005 221.178652682 L 294.4663460722005 358.394360402 L 278.1311427722005 358.394360402 L 278.1311427722005 221.178652682" stroke-miterlimit="10" stroke-width="1.3612669416666667" stroke-dasharray=""/><path fill="white" stroke="black" paint-order="fill stroke markers" d=" M 743.4056353478516 404.132929642 L 759.7408386478517 404.132929642 L 759.7408386478517 449.871498882 L 743.4056353478516 449.871498882 L 743.4056353478516 404.132929642" stroke-miterlimit="10" stroke-width="1.3612669416666667" stroke-dasharray=""/><g><text fill="black" stroke="none" font-family="sans-serif" font-size="11pt" font-style="normal" font-weight="normal" text-decoration="normal" x="326.43272095966796" y="214.644571362" text-anchor="start" dominant-baseline="alphabetic" xml:space="preserve">Get user list</text></g><g><path fill="none" stroke="black" paint-order="fill stroke markers" d=" M 436.6095145483073 221.178652682 L 297.1888799555338 221.178652682" stroke-miterlimit="10" stroke-width="1.3612669416666667" stroke-dasharray=""/><g transform="translate(294.4663460722005,221.178652682) translate(-294.4663460722005,-221.178652682)"><path fill="black" stroke="none" paint-order="stroke fill markers" d=" M 308.0790154888672 214.37231797366667 L 294.4663460722005 221.178652682 L 308.0790154888672 227.98498739033334 Z"/></g></g><g><text fill="black" stroke="none" font-family="sans-serif" font-size="11pt" font-style="normal" font-weight="normal" text-decoration="normal" x="118.45370786988934" y="260.383140602" text-anchor="start" dominant-baseline="alphabetic" xml:space="preserve">Request user list</text></g><g><path fill="none" stroke="black" paint-order="fill stroke markers" d=" M 278.1311427722005 266.917221922 L 70.68272103548176 266.917221922" stroke-miterlimit="10" stroke-width="1.3612669416666667" stroke-dasharray=""/><g transform="translate(67.96018715214844,266.917221922) translate(-67.96018715214844,-266.917221922)"><path fill="black" stroke="none" paint-order="stroke fill markers" d=" M 81.5728565688151 260.1108872136667 L 67.96018715214844 266.917221922 L 81.5728565688151 273.72355663033335 Z"/></g></g><g><text fill="black" stroke="none" font-family="sans-serif" font-size="11pt" font-style="normal" font-weight="normal" text-decoration="normal" x="110.71212309205731" y="306.121709842" text-anchor="start" dominant-baseline="alphabetic" xml:space="preserve">Responds user list </text></g><g><path fill="none" stroke="black" paint-order="fill stroke markers" d=" M 67.96018715214844 312.655791162 L 275.4086088888672 312.655791162" stroke-miterlimit="10" stroke-width="1.3612669416666667" stroke-dasharray="6.53408132"/><g transform="translate(278.1311427722005,312.655791162) translate(-278.1311427722005,-312.655791162)"><path fill="black" stroke="none" paint-order="stroke fill markers" d=" M 264.51847335553384 305.8494564536667 L 278.1311427722005 312.655791162 L 264.51847335553384 319.46212587033335 Z"/></g></g><g><text fill="black" stroke="none" font-family="sans-serif" font-size="11pt" font-style="normal" font-weight="normal" text-decoration="normal" x="316.2466171388672" y="351.860279082" text-anchor="start" dominant-baseline="alphabetic" xml:space="preserve">Return user list</text></g><g><path fill="none" stroke="black" paint-order="fill stroke markers" d=" M 294.4663460722005 358.394360402 L 433.886980664974 358.394360402" stroke-miterlimit="10" stroke-width="1.3612669416666667" stroke-dasharray="6.53408132"/><g transform="translate(436.6095145483073,358.394360402) translate(-436.6095145483073,-358.394360402)"><path fill="black" stroke="none" paint-order="stroke fill markers" d=" M 422.9968451316406 351.5880256936667 L 436.6095145483073 358.394360402 L 422.9968451316406 365.20069511033336 Z"/></g></g><g><text fill="black" stroke="none" font-family="sans-serif" font-size="11pt" font-style="normal" font-weight="normal" text-decoration="normal" x="474.7249889149739" y="397.598848322" text-anchor="start" dominant-baseline="alphabetic" xml:space="preserve">Create users (bulk update or iteration)</text></g><g><path fill="none" stroke="black" paint-order="fill stroke markers" d=" M 452.9447178483073 404.132929642 L 740.6831014645182 404.132929642" stroke-miterlimit="10" stroke-width="1.3612669416666667" stroke-dasharray=""/><g transform="translate(743.4056353478516,404.132929642) translate(-743.4056353478516,-404.132929642)"><path fill="black" stroke="none" paint-order="stroke fill markers" d=" M 729.7929659311849 397.3265949336667 L 743.4056353478516 404.132929642 L 729.7929659311849 410.93926435033336 Z"/></g></g><g><text fill="black" stroke="none" font-family="sans-serif" font-size="11pt" font-style="normal" font-weight="normal" text-decoration="normal" x="495.50878713274733" y="443.337417562" text-anchor="start" dominant-baseline="alphabetic" xml:space="preserve">Return instances / Confirmation</text></g><g><path fill="none" stroke="black" paint-order="fill stroke markers" d=" M 743.4056353478516 449.871498882 L 455.6672517316406 449.871498882" stroke-miterlimit="10" stroke-width="1.3612669416666667" stroke-dasharray="6.53408132"/><g transform="translate(452.9447178483073,449.871498882) translate(-452.9447178483073,-449.871498882)"><path fill="black" stroke="none" paint-order="stroke fill markers" d=" M 466.55738726497395 443.0651641736667 L 452.9447178483073 449.871498882 L 466.55738726497395 456.67783359033336 Z"/></g></g></g><g/><g/><g/><g/></g></svg>