<svg version="1.1" xmlns="http://www.w3.org/2000/svg" xmlns:xlink="http://www.w3.org/1999/xlink" width="1277" height="1055"><defs/><g><g/><g/><g/><g/><g/><g/><g/><g/><g/><g/><g/><g/><g/><g/><g/><g/><g/><g/><g/><g/><g><rect fill="white" stroke="none" x="0" y="0" width="1277" height="1055"/></g><g><text fill="black" stroke="none" font-family="sans-serif" font-size="16.5pt" font-style="normal" font-weight="normal" text-decoration="normal" x="536.9644736763237" y="24.50280495" text-anchor="start" dominant-baseline="alphabetic" xml:space="preserve">Get Workspace Data</text></g><g><g><path fill="#9F5F9F" stroke="black" paint-order="fill stroke markers" d=" M 8.167601650000003 58.5617038305 L 111.41756935429687 58.5617038305 L 111.41756935429687 1021.6036143819995 L 8.167601650000003 1021.6036143819995 L 8.167601650000003 58.5617038305" stroke-miterlimit="10" stroke-width="1.3612669416666667" stroke-dasharray=""/></g><g><text fill="black" stroke="none" font-family="sans-serif" font-size="11pt" font-style="normal" font-weight="bold" text-decoration="normal" x="40.63725865888672" y="81.43098845050001" text-anchor="start" dominant-baseline="alphabetic" xml:space="preserve">Slack</text></g><g><path fill="none" stroke="black" paint-order="fill stroke markers" d=" M 228.02021137571614 50.394102180500006 L 1269.5513847651473 50.394102180500006 L 1269.5513847651473 1021.6036143819995 L 228.02021137571614 1021.6036143819995 L 228.02021137571614 50.394102180500006" stroke-miterlimit="10" stroke-width="1.3612669416666667" stroke-dasharray=""/></g><g><text fill="black" stroke="none" font-family="sans-serif" font-size="11pt" font-style="normal" font-weight="bold" text-decoration="normal" x="669.7342767691622" y="73.2633868005" text-anchor="start" dominant-baseline="alphabetic" xml:space="preserve">Service Provider Slack</text></g></g><g><path fill="none" stroke="black" paint-order="fill stroke markers" d=" M 59.79258550214844 167.272481792 L 59.79258550214844 1055.9075413119995" stroke-miterlimit="10" stroke-width="1.3612669416666667" stroke-dasharray="12.565541,5.445067766666667"/><path fill="none" stroke="black" paint-order="fill stroke markers" d=" M 286.2987444222005 167.272481792 L 286.2987444222005 1055.9075413119995" stroke-miterlimit="10" stroke-width="1.3612669416666667" stroke-dasharray="12.565541,5.445067766666667"/><path fill="none" stroke="black" paint-order="fill stroke markers" d=" M 414.6847289722005 167.272481792 L 414.6847289722005 1055.9075413119995" stroke-miterlimit="10" stroke-width="1.3612669416666667" stroke-dasharray="12.565541,5.445067766666667"/><path fill="none" stroke="black" paint-order="fill stroke markers" d=" M 518.6060513067162 167.272481792 L 518.6060513067162 1055.9075413119995" stroke-miterlimit="10" stroke-width="1.3612669416666667" stroke-dasharray="12.565541,5.445067766666667"/><path fill="none" stroke="black" paint-order="fill stroke markers" d=" M 706.4258690056745 167.272481792 L 706.4258690056745 1055.9075413119995" stroke-miterlimit="10" stroke-width="1.3612669416666667" stroke-dasharray="12.565541,5.445067766666667"/><path fill="none" stroke="black" paint-order="fill stroke markers" d=" M 840.0637365343529 167.272481792 L 840.0637365343529 1055.9075413119995" stroke-miterlimit="10" stroke-width="1.3612669416666667" stroke-dasharray="12.565541,5.445067766666667"/><path fill="none" stroke="black" paint-order="fill stroke markers" d=" M 1030.5519687480898 167.272481792 L 1030.5519687480898 1055.9075413119995" stroke-miterlimit="10" stroke-width="1.3612669416666667" stroke-dasharray="12.565541,5.445067766666667"/><path fill="none" stroke="black" paint-order="fill stroke markers" d=" M 1221.040200961827 167.272481792 L 1221.040200961827 1055.9075413119995" stroke-miterlimit="10" stroke-width="1.3612669416666667" stroke-dasharray="12.565541,5.445067766666667"/></g><g><g><path fill="white" stroke="black" paint-order="fill stroke markers" d=" M 92.21796405264844 120.39044832100001 A 24.2577769005 24.2577769005 0 1 1 92.21795192376099 120.36619054814246 M 28.755699232148434 94.74417914 L 28.755699232148434 146.03671750200002 M 27.367206951648434 120.39044832100001 L 43.70241025164844 120.39044832100001" stroke-miterlimit="10" stroke-width="2.7769845610000004" stroke-dasharray=""/></g><g><g/><text fill="black" stroke="none" font-family="sans-serif" font-size="11pt" font-style="normal" font-weight="normal" text-decoration="normal" x="16.335203300000003" y="162.371920802" text-anchor="start" dominant-baseline="alphabetic" xml:space="preserve">SlackWebApi</text></g><g><path fill="white" stroke="black" paint-order="fill stroke markers" d=" M 318.7241229727005 120.39044832100001 A 24.2577769005 24.2577769005 0 1 1 318.7241108438131 120.36619054814246 M 255.26185815220052 94.74417914 L 255.26185815220052 146.03671750200002 M 253.8733658717005 120.39044832100001 L 270.2085691717005 120.39044832100001" stroke-miterlimit="10" stroke-width="2.7769845610000004" stroke-dasharray=""/></g><g><g/><text fill="black" stroke="none" font-family="sans-serif" font-size="11pt" font-style="normal" font-weight="normal" text-decoration="normal" x="236.18781302571614" y="162.371920802" text-anchor="start" dominant-baseline="alphabetic" xml:space="preserve">SpUserHandler</text></g><g><path fill="white" stroke="black" paint-order="fill stroke markers" d=" M 447.1101075227005 120.39044832100001 A 24.2577769005 24.2577769005 0 1 1 447.1100953938131 120.36619054814246 M 383.6478427022005 94.74417914 L 383.6478427022005 146.03671750200002 M 382.2593504217005 120.39044832100001 L 398.5945537217005 120.39044832100001" stroke-miterlimit="10" stroke-width="2.7769845610000004" stroke-dasharray=""/></g><g><g/><text fill="black" stroke="none" font-family="sans-serif" font-size="11pt" font-style="normal" font-weight="normal" text-decoration="normal" x="352.7448791186849" y="162.371920802" text-anchor="start" dominant-baseline="alphabetic" xml:space="preserve">SpChannelHandler</text></g><g><path fill="white" stroke="black" paint-order="fill stroke markers" d=" M 542.8638282072161 118.16886067220001 A 24.2577769005 24.2577769005 0 1 1 542.8638160783287 118.14460289934246 M 492.9597821257162 144.6482252215 L 541.4753359267161 144.6482252215" stroke-miterlimit="10" stroke-width="2.7769845610000004" stroke-dasharray=""/></g><g><g/><text fill="black" stroke="none" font-family="sans-serif" font-size="11pt" font-style="normal" font-weight="normal" text-decoration="normal" x="496.59818540095443" y="162.371920802" text-anchor="start" dominant-baseline="alphabetic" xml:space="preserve">SpApp</text></g><g><path fill="white" stroke="black" paint-order="fill stroke markers" d=" M 730.6836459061744 120.39044832100001 A 24.2577769005 24.2577769005 0 1 1 730.683633777287 120.36619054814246 M 703.1588283456745 96.1326714205 L 712.9599503256744 87.96506977050001 M 703.1588283456745 96.1326714205 L 712.9599503256744 104.3002730705" stroke-miterlimit="10" stroke-width="2.7769845610000004" stroke-dasharray=""/></g><g><g/><text fill="black" stroke="none" font-family="sans-serif" font-size="11pt" font-style="normal" font-weight="normal" text-decoration="normal" x="657.542575853819" y="162.371920802" text-anchor="start" dominant-baseline="alphabetic" xml:space="preserve">SpUserService</text></g><g><path fill="white" stroke="black" paint-order="fill stroke markers" d=" M 864.3215134348528 120.39044832100001 A 24.2577769005 24.2577769005 0 1 1 864.3215013059654 120.36619054814246 M 836.7966958743528 96.1326714205 L 846.5978178543528 87.96506977050001 M 836.7966958743528 96.1326714205 L 846.5978178543528 104.3002730705" stroke-miterlimit="10" stroke-width="2.7769845610000004" stroke-dasharray=""/></g><g><g/><text fill="black" stroke="none" font-family="sans-serif" font-size="11pt" font-style="normal" font-weight="normal" text-decoration="normal" x="779.3515249254662" y="162.371920802" text-anchor="start" dominant-baseline="alphabetic" xml:space="preserve">SpChannelService</text></g><g><path fill="white" stroke="black" paint-order="fill stroke markers" d=" M 1054.8097456485898 118.16886067220001 A 24.2577769005 24.2577769005 0 1 1 1054.8097335197024 118.14460289934246 M 1004.9056995670899 144.6482252215 L 1053.4212533680898 144.6482252215" stroke-miterlimit="10" stroke-width="2.7769845610000004" stroke-dasharray=""/></g><g><g/><text fill="black" stroke="none" font-family="sans-serif" font-size="11pt" font-style="normal" font-weight="normal" text-decoration="normal" x="1000.398076231" y="162.371920802" text-anchor="start" dominant-baseline="alphabetic" xml:space="preserve">SpCache</text></g><g><path fill="white" stroke="black" paint-order="fill stroke markers" d=" M 1197.1908041438269 135.255483324 L 1197.1908041438269 100.95155639400002 L 1244.889597779827 100.95155639400002 L 1244.889597779827 135.255483324" stroke-miterlimit="10" stroke-width="2.7769845610000004" stroke-dasharray=""/><path fill="white" stroke="black" paint-order="fill stroke markers" d=" M 1244.889597779827 99.75908655310002 L 1244.8884053199233 99.86689709801664 L 1244.8848280594573 99.97469686196861 L 1244.8788663561518 100.08247506506937 L 1244.8705208061726 100.19022092958842 L 1244.8597922440674 100.2979236810291 L 1244.8466817426836 100.40557254920603 L 1244.8311906130602 100.51315676932207 L 1244.8133204042977 100.62066558304487 L 1244.7930729034017 100.72808823958268 L 1244.7704501351054 100.83541399675931 L 1244.745454361667 100.94263212208854 L 1244.7180880826431 101.04973189384714 L 1244.6883540346385 101.1567026021472 L 1244.6562551910333 101.26353355000704 L 1244.6217947616851 101.37021405442088 L 1244.5849761926083 101.4767334474272 L 1244.5458031656292 101.58308107717545 L 1244.5042795980173 101.68924630899127 L 1244.4604096420953 101.79521852643998 L 1244.414197684822 101.90098713238812 L 1244.3656483473546 102.00654155006325 L 1244.3147664845867 102.11187122411154 L 1244.2615571846616 102.21696562165339 L 1244.2060257684655 102.32181423333661 L 1244.1481777890936 102.4264065743874 L 1244.0880190312953 102.53073218565882 L 1244.0255555108965 102.63478063467669 L 1243.9607934741975 102.7385415166828 L 1243.8937393973474 102.84200445567542 L 1243.8243999856984 102.94515910544688 L 1243.752782173134 103.04799515061815 L 1243.6788931213753 103.15050230767042 L 1243.602740219266 103.2526703259734 L 1243.5243310820333 103.3544889888104 L 1243.4436735505253 103.4559481144 L 1243.3607756904278 103.55703755691417 L 1243.275645791458 103.6577472074929 L 1243.1882923665346 103.75806699525508 L 1243.0987241509274 103.8579868883055 L 1243.0069501013832 103.95749689473814 L 1242.9129793952309 104.05658706363529 L 1242.8168214294624 104.15524748606262 L 1242.718485819794 104.25346829606012 L 1242.6179823997054 104.35123967162862 L 1242.515321219454 104.44855183571204 L 1242.410512545073 104.54539505717509 L 1242.3035668573423 104.6417596517763 L 1242.1944948507414 104.73763598313651 L 1242.08330743238 104.83301446370251 L 1241.9700157209074 104.92788555570571 L 1241.8546310454005 105.02223977211597 L 1241.7371649442305 105.11606767759027 L 1241.6176291639097 105.20935988941625 L 1241.4960356579163 105.30210707845049 L 1241.3723965855 105.39429997005135 L 1241.2467243104645 105.48592934500653 L 1241.119031399933 105.57698604045486 L 1240.9893306230902 105.66746095080268 L 1240.857634949905 105.75734502863436 L 1240.7239575498359 105.84662928561703 L 1240.588311790511 105.93530479339938 L 1240.450711236393 106.02336268450453 L 1240.3111696474232 106.11079415321676 L 1240.169700977644 106.19759045646204 L 1240.0263193738042 106.28374291468239 L 1239.8810391739448 106.36924291270377 L 1239.7338749059652 106.45408190059764 L 1239.584841286169 106.5382513945359 L 1239.4339532177942 106.62174297763931 L 1239.2812257895218 106.70454830081913 L 1239.1266742739674 106.78665908361204 L 1238.9703141261539 106.86806711500819 L 1238.8121609819657 106.94876425427228 L 1238.6522306565855 107.02874243175762 L 1238.4905391429122 107.10799364971314 L 1238.3271026099628 107.18650998308306 L 1238.1619374012544 107.26428358029946 L 1237.9950600331701 107.34130666406747 L 1237.8264871933077 107.41757153214289 L 1237.6562357388104 107.49307055810243 L 1237.4843226946823 107.56779619210644 L 1237.3107652520844 107.6417409616538 L 1237.135580766616 107.71489747232916 L 1236.95878675658 107.7872584085424 L 1236.7804009012298 107.85881653426023 L 1236.6004410390026 107.9295646937297 L 1236.4189251657344 107.9994958121938 L 1236.2358714328616 108.06860289659899 L 1236.0512981456045 108.1368790362944 L 1235.8652237611384 108.20431740372297 L 1235.6776668867465 108.27091125510412 L 1235.4886462779598 108.33665393110826 L 1235.298180836682 108.40153885752254 L 1235.106289609298 108.46555954590839 L 1234.9129917847713 108.52870959425034 L 1234.7183066927228 108.59098268759617 L 1234.5222538014996 108.65237259868843 L 1234.3248527162275 108.71287318858718 L 1234.1261231768503 108.77247840728386 L 1233.9260850561566 108.83118229430623 L 1233.7247583577916 108.88897897931456 L 1233.5221632142575 108.94586268268847 L 1233.3183198849 109.00182771610504 L 1233.1132487538814 109.05686848310758 L 1232.9069703281448 109.11097947966525 L 1232.6995052353604 109.16415529472346 L 1232.4908742218647 109.21639061074505 L 1232.2810981505852 109.26768020424194 L 1232.0701979989542 109.31801894629751 L 1231.8581948568112 109.36740180307952 L 1231.6451099242936 109.41582383634344 L 1231.4309645097171 109.46328020392627 L 1231.215780027445 109.50976616023082 L 1230.9995779957458 109.55527705670022 L 1230.7823800346425 109.5998083422827 L 1230.5642078637504 109.64335556388684 L 1230.345083300105 109.68591436682678 L 1230.1250282559797 109.72748049525767 L 1229.9040647366955 109.7680497926013 L 1229.6822148384206 109.80761820196176 L 1229.4595007459595 109.84618176653109 L 1229.2359447305362 109.88373662998495 L 1229.0115691475655 109.92027903686831 L 1228.7863964344192 109.95580533297093 L 1228.5604491081808 109.99031196569278 L 1228.3337497633947 110.02379548439939 L 1228.1063210698062 110.05625254076675 L 1227.8781857700956 110.08767988911629 L 1227.649366677602 110.11807438673935 L 1227.4198866740448 110.14743299421153 L 1227.1897687072328 110.17575277569651 L 1226.9590357887707 110.20303089923975 L 1226.7277109917584 110.22926463705164 L 1226.4958174484825 110.25445136578027 L 1226.2633783481044 110.27858856677372 L 1226.0304169343403 110.30167382633203 L 1225.7969565031374 110.32370483594849 L 1225.5630204003444 110.34467939254047 L 1225.3286320193765 110.3645953986698 L 1225.0938147988766 110.38345086275248 L 1224.8585922203708 110.40124389925779 L 1224.6229878059212 110.41797272889693 L 1224.387025115773 110.43363567880087 L 1224.1507277459982 110.44823118268765 L 1223.914119326137 110.46175778101907 L 1223.6772235168346 110.47421412114657 L 1223.4400640074741 110.4855989574465 L 1223.202664513809 110.49591115144473 L 1222.9650487755905 110.50514967193044 L 1222.7272405541949 110.5133135950593 L 1222.489263630246 110.5204021044458 L 1222.2511418012375 110.52641449124488 L 1222.0128988791541 110.53135015422289 L 1221.7745586880899 110.53520859981765 L 1221.5361450618648 110.53798944218781 L 1221.2976818416432 110.53969240325145 L 1221.059192873548 110.54031731271388 L 1220.8207020062775 110.53986410808467 L 1220.5822330887197 110.53833283468393 L 1220.3438099675675 110.5357236456377 L 1220.1054564849344 110.53203680186272 L 1219.86719647597 110.52727267204028 L 1219.6290537664768 110.52143173257942 L 1219.391052170527 110.5145145675692 L 1219.1532154880822 110.50652186872036 L 1218.9155675026122 110.4974544352961 L 1218.6781319787178 110.48731317403227 L 1218.4409326597531 110.47609909904648 L 1218.2039932654527 110.46381333173692 L 1217.9673374895583 110.45045710067006 L 1217.7309889974506 110.4360317414579 L 1217.4949714237816 110.42053869662433 L 1217.259308370112 110.40397951546092 L 1217.024023402551 110.38635585387198 L 1216.7891400493988 110.367669474209 L 1216.5546817987956 110.34792224509437 L 1216.3206720963706 110.32711614123453 L 1216.0871343428994 110.30525324322254 L 1215.8540918919623 110.28233573732997 L 1215.6215680476107 110.25836591528834 L 1215.3895860620348 110.23334617405986 L 1215.15816913324 110.2072790155978 L 1214.9273404027267 110.18016704659628 L 1214.697122953175 110.15201297822964 L 1214.4675398061386 110.1228196258812 L 1214.2386139197404 110.09258990886192 L 1214.0103681863784 110.06132685011828 L 1213.7828254304357 110.0290335759301 L 1213.5560084059985 109.99571331559791 L 1213.3299397945798 109.96136940111997 L 1213.1046422028528 109.9260052668591 L 1212.880138160389 109.88962444919923 L 1212.656450117405 109.85223058619187 L 1212.433600442519 109.81382741719212 L 1212.211611420513 109.77441878248487 L 1211.9905052501038 109.73400862290077 L 1211.7703040417246 109.6926009794221 L 1211.5510298153122 109.6501999927787 L 1211.332704498107 109.60680990303389 L 1211.1153499224588 109.56243504916051 L 1210.8989878236437 109.51707986860694 L 1210.6836398376913 109.47074889685346 L 1210.469327499221 109.42344676695863 L 1210.256072239288 109.37517820909602 L 1210.0438953832404 109.3259480500812 L 1209.8328181485872 109.27576121288904 L 1209.622861642876 109.22462271616142 L 1209.414046861582 109.17253767370543 L 1209.2063946860096 109.1195112939819 L 1208.9999258812034 109.0655488795846 L 1208.7946610938718 109.01065582671 L 1208.5906208503222 108.95483762461768 L 1208.3878255544093 108.89809985508128 L 1208.1862954854937 108.84044819183053 L 1207.9860507964138 108.78188839998367 L 1207.7871115114724 108.7224263354711 L 1207.5894975244316 108.66206794444972 L 1207.3932285965257 108.60081926270831 L 1207.198324354484 108.53868641506405 L 1207.0048042885678 108.47567561474989 L 1206.8126877506231 108.41179316279337 L 1206.6219939521434 108.34704544738645 L 1206.4327419623494 108.2814389432467 L 1206.2449507062825 108.21498021096988 L 1206.0586389629118 108.14767589637383 L 1205.8738253632564 108.07953272983391 L 1205.6905283885224 108.01055752561001 L 1205.508766368254 107.94075718116505 L 1205.3285574785025 107.87013867647532 L 1205.1499197400062 107.79870907333245 L 1204.9728710163904 107.72647551463722 L 1204.7974290123796 107.6534452236853 L 1204.623611272028 107.57962550344493 L 1204.451435176965 107.50502373582663 L 1204.280917944657 107.42964738094497 L 1204.1120766266843 107.35350397637264 L 1203.9449281070383 107.27660113638665 L 1203.7794891004319 107.1989465512069 L 1203.6157761506279 107.12054798622721 L 1203.4538056287845 107.04141328123873 L 1203.293593731819 106.96155034964602 L 1203.135156480788 106.8809671776757 L 1202.9785097192844 106.7996718235778 L 1202.8236691118534 106.71767241681998 L 1202.6706501424271 106.63497715727459 L 1202.5194681127748 106.55159431439867 L 1202.3701381409735 106.46753222640703 L 1202.222675159896 106.38279929943842 L 1202.0770939157176 106.29740400671491 L 1201.933408966441 106.21135488769461 L 1201.7916346804418 106.12466054721774 L 1201.6517852350303 106.03732965464607 L 1201.5138746150346 105.94937094299611 L 1201.3779166114016 105.8607932080657 L 1201.2439248198186 105.77160530755455 L 1201.1119126393528 105.68181616017836 L 1200.9818932711125 105.59143474477705 L 1200.853879716926 105.50047009941686 L 1200.7278847780422 105.40893132048649 L 1200.6039210538497 105.31682756178758 L 1200.482000940618 105.22416803361924 L 1200.3621366302566 105.13096200185706 L 1200.2443401090966 105.03721878702656 L 1200.1286231566921 104.94294776337108 L 1200.014997344642 104.84815835791446 L 1199.9034740354325 104.75286004951823 L 1199.794064381302 104.65706236793383 L 1199.6867793231243 104.56077489284957 L 1199.581629589316 104.46400725293273 L 1199.478625694763 104.36676912486666 L 1199.3777779397687 104.26907023238314 L 1199.2790964090245 104.17092034529 L 1199.1825909706017 104.07232927849415 L 1199.088271274963 103.97330689102013 L 1198.9961467540002 103.87386308502415 L 1198.906226620088 103.77400780480394 L 1198.818519865165 103.67375103580433 L 1198.7330352598337 103.57310280361865 L 1198.6497813524834 103.47207317298626 L 1198.5687664684356 103.37067224678601 L 1198.4899987091108 103.26891016502606 L 1198.4134859512194 103.16679710382974 L 1198.3392358459737 103.0643432744181 L 1198.267255818322 102.96155892208871 L 1198.1975530662073 102.85845432519113 L 1198.1301345598467 102.75503979409915 L 1198.0650070410347 102.65132567017969 L 1198.002177022469 102.5473223247587 L 1197.9416507870988 102.44304015808407 L 1197.8834343874973 102.33848959828556 L 1197.827533645256 102.23368110033203 L 1197.7739541504025 102.12862514498595 L 1197.7227012608419 102.02333223775527 L 1197.6737801018198 101.91781290784299 L 1197.6271955654122 101.81207770709416 L 1197.582952310033 101.70613720894077 L 1197.5410547599718 101.60000200734433 L 1197.501507104948 101.49368271573654 L 1197.4643132996944 101.387189965958 L 1197.4294770635604 101.2805344071949 L 1197.3970018801408 101.17372670491429 L 1197.3668909969267 101.06677753979733 L 1197.3391474249815 100.95969760667145 L 1197.313773938639 100.85249761344073 L 1197.2907730752272 100.74518828001514 L 1197.2701471348128 100.63778033723861 L 1197.2518981799726 100.5302845258159 L 1197.2360280355872 100.42271159523858 L 1197.2225382886577 100.31507230271008 L 1197.2114302881475 100.20737741206993 L 1197.2027051448474 100.09963769271747 L 1197.1963637312645 99.99186391853482 L 1197.1924066815347 99.88406686680962 L 1197.19083439136 99.77625731715719 L 1197.191647017968 99.66844605044267 L 1197.1948444800967 99.56064384770288 L 1197.2004264580023 99.45286148906825 L 1197.208392393492 99.34510975268485 L 1197.2187414899788 99.23739941363651 L 1197.2314727125615 99.12974124286738 L 1197.2465847881288 99.02214600610482 L 1197.2640762054853 98.91462446278284 L 1197.283945215504 98.80718736496618 L 1197.3061898313008 98.69984545627509 L 1197.3308078284322 98.59260947081098 L 1197.3577967451192 98.48549013208303 L 1197.3871538824926 98.37849815193587 L 1197.418876304863 98.27164422947833 L 1197.4529608400148 98.16493905001363 L 1197.489404079523 98.05839328397077 L 1197.5282023790937 97.9520175858376 L 1197.5693518589294 97.84582259309526 L 1197.6128484041164 97.73981892515455 L 1197.6586876650365 97.6340171822939 L 1197.7068650578017 97.52842794459946 L 1197.7573757647128 97.423061770907 L 1197.8102147347415 97.31792919774607 L 1197.8653766840346 97.21304073828638 L 1197.9228560964432 97.10840688128647 L 1197.982647224074 97.00403809004486 L 1198.044744087864 96.89994480135368 L 1198.1091404781785 96.79613742445507 L 1198.1758299554322 96.6926263400002 L 1198.244805850733 96.58942189901128 L 1198.3160612665488 96.48653442184639 L 1198.3895890773974 96.38397419716749 L 1198.465381930559 96.28175148091161 L 1198.5434322468116 96.17987649526519 L 1198.6237322211882 96.07835942764187 L 1198.7062738237587 95.97721042966384 L 1198.7910488004316 95.8764396161466 L 1198.8780486737794 95.77605706408754 L 1198.9672647438879 95.67607281165819 L 1199.0586880892238 95.57649685720048 L 1199.1523095675293 95.47733915822688 L 1199.2481198167345 95.37860963042466 L 1199.3461092558941 95.28031814666433 L 1199.446268086146 95.18247453601234 L 1199.5485862916903 95.08508858274823 L 1199.6530536407922 94.98817002538617 L 1199.7596596868036 94.89172855570112 L 1199.868393769209 94.79577381775971 L 1199.9792450146904 94.70031540695574 L 1200.0922023382157 94.60536286905077 L 1200.2072544441467 94.51092569921943 L 1200.3243898273688 94.41701334110004 L 1200.4435967744414 94.32363518585014 L 1200.5648633647688 94.23080057120742 L 1200.688177471793 94.13851878055601 L 1200.8135267642067 94.04679904199807 L 1200.9408987071843 93.955650527431 L 1201.070280563638 93.86508235163033 L 1201.2016593954902 93.77510357133815 L 1201.3350220649668 93.68572318435751 L 1201.4703552359122 93.59695012865262 L 1201.607645375122 93.5087932814551 L 1201.7468787536968 93.42126145837616 L 1201.8880414484147 93.33436341252519 L 1202.031119343124 93.24810783363438 L 1202.176098130154 93.1625033471897 L 1202.3229633117473 93.07755851356848 L 1202.471700201508 92.9932818271833 L 1202.622293925871 92.90968171563254 L 1202.7747294255892 92.82676653885773 L 1202.92899145724 92.74454458830742 L 1203.0850645947487 92.66302408610815 L 1203.2429332309316 92.58221318424222 L 1203.4025815790565 92.50211996373247 L 1203.5639936744217 92.4227524338342 L 1203.727153375952 92.34411853123427 L 1203.8920443678137 92.26622611925741 L 1204.0586501610446 92.1890829870799 L 1204.2269540952043 92.11269684895069 L 1204.3969393400396 92.0370753434199 L 1204.568588897168 91.9622260325751 L 1204.7418856017762 91.888156401285 L 1204.9168121243388 91.81487385645099 L 1205.0933509723488 91.74238572626649 L 1205.271484492069 91.67069925948411 L 1205.4511948702955 91.59982162469079 L 1205.6324641361405 91.52975990959095 L 1205.8152741628282 91.4605211202977 L 1205.9996066695085 91.3921121806323 L 1206.1854432230841 91.32453993143167 L 1206.3727652400546 91.25781112986445 L 1206.5615539883747 91.1919324487552 L 1206.7517905893264 91.12691047591709 L 1206.9434560194086 91.06275171349324 L 1207.1365311122377 90.99946257730645 L 1207.3309965604653 90.93704939621756 L 1207.5268329177088 90.87551841149269 L 1207.7240206004958 90.81487577617904 L 1207.922539890222 90.75512755448958 L 1208.1223709351239 90.69627972119672 L 1208.3234937522639 90.63833816103474 L 1208.5258882295275 90.58130866811136 L 1208.7295341276356 90.52519694532836 L 1208.9344110821685 90.47000860381125 L 1209.1404986056011 90.41574916234819 L 1209.3477760893531 90.36242404683813 L 1209.5562228058486 90.31003858974816 L 1209.7658179105897 90.25859802958036 L 1209.9765404442408 90.20810751034786 L 1210.1883693347238 90.1585720810605 L 1210.4012833993263 90.10999669521995 L 1210.6152613468194 90.0623862103243 L 1210.8302817795866 90.01574538738238 L 1211.0463231957638 89.9700788904376 L 1211.2633639913895 89.92539128610161 L 1211.4813824625646 89.88168704309761 L 1211.7003568076243 89.83897053181346 L 1211.920265129316 89.79724602386472 L 1212.1410854369913 89.75651769166738 L 1212.3627956488028 89.71678960802075 L 1212.5853735939147 89.67806574570005 L 1212.8087970147178 89.64034997705929 L 1213.033043569056 89.60364607364387 L 1213.258090832461 89.56795770581357 L 1213.4839163003937 89.53328844237541 L 1213.7104973904957 89.49964175022686 L 1213.9378114448468 89.46702099400908 L 1214.165835732231 89.43542943577052 L 1214.3945474504094 89.40487023464067 L 1214.623923728401 89.37534644651419 L 1214.853941628769 89.34686102374526 L 1215.0845781499152 89.31941681485246 L 1215.3158102283796 89.29301656423378 L 1215.547614741147 89.2676629118923 L 1215.7799685079594 89.2433583931721 L 1216.0128482936336 89.22010543850483 L 1216.2462308103852 89.19790637316656 L 1216.4800927201568 89.17676341704532 L 1216.7144106369526 89.15667868441913 L 1216.9491611291762 89.13765418374449 L 1217.1843207219738 89.11969181745562 L 1217.4198658995822 89.10279338177418 L 1217.6557731076798 89.08696056652965 L 1217.8920187557426 89.0721949549904 L 1218.1285792194024 89.05849802370521 L 1218.3654308428102 89.04587114235585 L 1218.6025499410007 89.03431557361992 L 1218.8399128022622 89.02383247304465 L 1219.0774956905059 89.01442288893136 L 1219.3152748476414 89.00608776223065 L 1219.5532264959506 88.99882792644821 L 1219.7913268404675 88.9926441075616 L 1220.0295520713555 88.98753692394752 L 1220.2678783662905 88.9835068863201 L 1220.5062818928416 88.98055439767974 L 1220.7447388108544 88.97867975327284 L 1220.9832252748363 88.97788314056228 L 1221.2217174363393 88.97816463920867 L 1221.4601914463462 88.97952422106238 L 1221.6986234576545 88.98196175016635 L 1221.936989627262 88.98547698276971 L 1222.1752661187504 88.99006956735212 L 1222.4134291046687 88.99573904465896 L 1222.6514547689173 89.00248484774721 L 1222.8893193091278 89.0103063020422 L 1223.1269989390446 89.019202625405 L 1223.3644698909025 89.0291729282107 L 1223.6017084178045 89.04021621343732 L 1223.8386907960955 89.05233137676555 L 1224.0753933277351 89.06551720668914 L 1224.3117923426673 89.0797723846361 L 1224.5478642011878 89.0950954851005 L 1224.7835852963076 89.11148497578507 L 1225.0189320561133 89.12893921775441 L 1225.253880946125 89.14745646559885 L 1225.48840847165 89.16703486760905 L 1225.7224911801306 89.18767246596111 L 1225.9561056634914 89.20936719691241 L 1226.1892285604786 89.23211689100792 L 1226.4218365589966 89.2559192732972 L 1226.6539063984396 89.28077196356185 L 1226.8854148720172 89.30667247655354 L 1227.1163388290745 89.33361822224259 L 1227.3466551774088 89.36160650607685 L 1227.5763408855767 89.39063452925127 L 1227.805372985199 89.42069938898774 L 1228.0337285732567 89.45179807882532 L 1228.2613848143812 89.48392748892095 L 1228.488318943138 89.5170844063604 L 1228.7145082663035 89.55126551547954 L 1228.9399301651335 89.58646739819596 L 1229.1645620976267 89.62268653435072 L 1229.3883816007763 89.65991930206037 L 1229.6113662928187 89.69816197807918 L 1229.8334938754708 89.73741073817143 L 1230.0547421361593 89.7776616574938 L 1230.2750889502424 89.8189107109879 L 1230.4945122832223 89.86115377378276 L 1230.7129901929488 89.9043866216073 L 1230.9305008318127 89.94860493121277 L 1231.1470224489315 89.99380428080505 L 1231.362533392324 90.03998015048685 L 1231.5770121110752 90.0871279227097 L 1231.790437157492 90.13524288273562 L 1232.002787189248 90.18432021910876 L 1232.2140409715166 90.23435502413635 L 1232.424177379096 90.28534229437957 L 1232.63317539852 90.33727693115392 L 1232.841014130161 90.39015374103897 L 1233.0476727903194 90.44396743639781 L 1233.253130713301 90.49871263590576 L 1233.457367353485 90.55438386508847 L 1233.6603622873774 90.6109755568694 L 1233.862095215654 90.66848205212658 L 1234.06254596519 90.72689760025837 L 1234.2616944910778 90.78621635975864 L 1234.4595208786304 90.84643239880089 L 1234.656005345374 90.90753969583137 L 1234.8511282430256 90.96953214017132 L 1235.0448700594584 91.03240353262795 L 1235.2372114206519 91.09614758611443 L 1235.4281330926303 91.1607579262785 L 1235.6176159833856 91.22622809214002 L 1235.8056411447865 91.29255153673692 L 1235.9921897744734 91.35972162778006 L 1236.1772432177393 91.42773164831627 L 1236.3607829693935 91.49657479740019 L 1236.5427906756142 91.56624419077427 L 1236.7232481357821 91.63673286155725 L 1236.902137304302 91.70803376094076 L 1237.079440292406 91.78013975889431 L 1237.2551393699425 91.85304364487818 L 1237.429216967151 91.92673812856452 L 1237.6016556764162 92.00121584056639 L 1237.7724382540111 92.07646933317463 L 1237.9415476218205 92.15249108110271 L 1238.1089668690481 92.22927348223918 L 1238.274679253909 92.3068088584079 L 1238.4386682053027 92.3850894561359 L 1238.6009173244706 92.4641074474286 L 1238.7614103866363 92.54385493055275 L 1238.920131342627 92.62432393082648 L 1239.0770643204796 92.70550640141681 L 1239.232193627027 92.78739422414436 L 1239.3855037494677 92.86997921029509 L 1239.5369793569175 92.95325310143917 L 1239.6866053019417 93.03720757025692 L 1239.8343666220705 93.12183422137142 L 1239.980248541295 93.20712459218805 L 1240.124236471545 93.29307015374081 L 1240.266316014147 93.3796623115452 L 1240.4064729612658 93.46689240645757 L 1240.544693297323 93.55475171554113 L 1240.6809632004004 93.64323145293818 L 1240.8152690436211 93.73232277074871 L 1240.947597396513 93.8220167599152 L 1241.0779350263506 93.91230445111346 L 1241.20626889948 94.00317681564962 L 1241.3325861826206 94.09462476636294 L 1241.4568742441493 94.18663915853458 L 1241.5791206553638 94.27921079080198 L 1241.6993131917245 94.37233040607906 L 1241.817439834078 94.46598869248189 L 1241.9334887698587 94.56017628425988 L 1242.0474483942696 94.65488376273235 L 1242.1593073114432 94.75010165723037 L 1242.2690543355811 94.84582044604385 L 1242.3766784920722 94.94203055737364 L 1242.4821690185906 95.03872237028881 L 1242.5855153661719 95.13588621568863 L 1242.6867072002667 95.23351237726953 L 1242.7857344017766 95.33159109249674 L 1242.8825870680637 95.43011255358043 L 1242.977255513942 95.5290669084566 L 1243.069730272646 95.62844426177223 L 1243.1600020967767 95.72823467587482 L 1243.248061959227 95.82842817180608 L 1243.3339010540842 95.92901473029994 L 1243.41751079751 96.02998429278436 L 1243.4988828286 96.13132676238725 L 1243.578009010219 96.23303200494607 L 1243.6548814298144 96.33508985002135 L 1243.7294924002085 96.4374900919136 L 1243.8018344603665 96.54022249068399 L 1243.8719003761428 96.64327677317824 L 1243.9396831410038 96.746642634054 L 1244.0051759767298 96.85030973681128 L 1244.0683723340917 96.95426771482623 L 1244.1292658935063 97.05850617238767 L 1244.1878505656687 97.1630146857367 L 1244.2441204921604 97.26778280410907 L 1244.2980700460357 97.37280005078027 L 1244.3496938323838 97.47805592411314 L 1244.3989866888696 97.58353989860805 L 1244.445943686248 97.68924142595546 L 1244.490560128859 97.79514993609072 L 1244.532831555095 97.90125483825108 L 1244.5727537378489 98.00754552203473 L 1244.6103226849355 98.11401135846187 L 1244.6455346394916 98.22064170103758 L 1244.678386080351 98.32742588681647 L 1244.7088737223967 98.43435323746894 L 1244.7369945168905 98.54141306034904 L 1244.762745651776 98.64859464956368 L 1244.786124551961 98.75588728704328 L 1244.8071288795754 98.86328024361347 L 1244.8257565342035 98.97076278006811 L 1244.8420056530958 99.07832414824313 L 1244.8558746113538 99.18595359209134 L 1244.867362022093 99.29364034875802 L 1244.8764667365822 99.40137364965727 L 1244.8831878443573 99.50914272154878 L 1244.8875246733135 99.61693678761516 L 1244.889476789771 99.72474506853963 M 1244.889597779827 134.0630134831 L 1244.8884053199233 134.17082402801663 L 1244.8848280594573 134.2786237919686 L 1244.8788663561518 134.38640199506935 L 1244.8705208061726 134.49414785958842 L 1244.8597922440674 134.60185061102908 L 1244.8466817426836 134.70949947920602 L 1244.8311906130602 134.81708369932204 L 1244.8133204042977 134.92459251304487 L 1244.7930729034017 135.03201516958265 L 1244.7704501351054 135.1393409267593 L 1244.745454361667 135.24655905208851 L 1244.7180880826431 135.35365882384713 L 1244.6883540346385 135.46062953214718 L 1244.6562551910333 135.56746048000701 L 1244.6217947616851 135.67414098442086 L 1244.5849761926083 135.78066037742718 L 1244.5458031656292 135.88700800717544 L 1244.5042795980173 135.99317323899126 L 1244.4604096420953 136.09914545643997 L 1244.414197684822 136.2049140623881 L 1244.3656483473546 136.31046848006324 L 1244.3147664845867 136.41579815411154 L 1244.2615571846616 136.5208925516534 L 1244.2060257684655 136.62574116333658 L 1244.1481777890936 136.7303335043874 L 1244.0880190312953 136.8346591156588 L 1244.0255555108965 136.9387075646767 L 1243.9607934741975 137.0424684466828 L 1243.8937393973474 137.14593138567542 L 1243.8243999856984 137.24908603544688 L 1243.752782173134 137.35192208061815 L 1243.6788931213753 137.4544292376704 L 1243.602740219266 137.5565972559734 L 1243.5243310820333 137.6584159188104 L 1243.4436735505253 137.7598750444 L 1243.3607756904278 137.86096448691416 L 1243.275645791458 137.96167413749288 L 1243.1882923665346 138.06199392525505 L 1243.0987241509274 138.1619138183055 L 1243.0069501013832 138.26142382473813 L 1242.9129793952309 138.3605139936353 L 1242.8168214294624 138.4591744160626 L 1242.718485819794 138.5573952260601 L 1242.6179823997054 138.6551666016286 L 1242.515321219454 138.75247876571203 L 1242.410512545073 138.84932198717507 L 1242.3035668573423 138.94568658177627 L 1242.1944948507414 139.04156291313652 L 1242.08330743238 139.1369413937025 L 1241.9700157209074 139.2318124857057 L 1241.8546310454005 139.32616670211596 L 1241.7371649442305 139.41999460759027 L 1241.6176291639097 139.51328681941624 L 1241.4960356579163 139.60603400845048 L 1241.3723965855 139.69822690005134 L 1241.2467243104645 139.7898562750065 L 1241.119031399933 139.88091297045483 L 1240.9893306230902 139.97138788080267 L 1240.857634949905 140.06127195863436 L 1240.7239575498359 140.15055621561703 L 1240.588311790511 140.23923172339937 L 1240.450711236393 140.3272896145045 L 1240.3111696474232 140.41472108321673 L 1240.169700977644 140.501517386462 L 1240.0263193738042 140.58766984468238 L 1239.8810391739448 140.67316984270377 L 1239.7338749059652 140.75800883059765 L 1239.584841286169 140.8421783245359 L 1239.4339532177942 140.9256699076393 L 1239.2812257895218 141.00847523081913 L 1239.1266742739674 141.09058601361204 L 1238.9703141261539 141.17199404500818 L 1238.8121609819657 141.25269118427227 L 1238.6522306565855 141.3326693617576 L 1238.4905391429122 141.41192057971313 L 1238.3271026099628 141.49043691308304 L 1238.1619374012544 141.56821051029945 L 1237.9950600331701 141.64523359406746 L 1237.8264871933077 141.72149846214288 L 1237.6562357388104 141.79699748810242 L 1237.4843226946823 141.87172312210643 L 1237.3107652520844 141.94566789165378 L 1237.135580766616 142.01882440232913 L 1236.95878675658 142.0911853385424 L 1236.7804009012298 142.16274346426022 L 1236.6004410390026 142.2334916237297 L 1236.4189251657344 142.3034227421938 L 1236.2358714328616 142.372529826599 L 1236.0512981456045 142.4408059662944 L 1235.8652237611384 142.50824433372296 L 1235.6776668867465 142.5748381851041 L 1235.4886462779598 142.64058086110825 L 1235.298180836682 142.70546578752254 L 1235.106289609298 142.7694864759084 L 1234.9129917847713 142.83263652425032 L 1234.7183066927228 142.89490961759617 L 1234.5222538014996 142.95629952868842 L 1234.3248527162275 143.01680011858718 L 1234.1261231768503 143.07640533728383 L 1233.9260850561566 143.13510922430623 L 1233.7247583577916 143.19290590931453 L 1233.5221632142575 143.24978961268846 L 1233.3183198849 143.30575464610504 L 1233.1132487538814 143.36079541310758 L 1232.9069703281448 143.41490640966524 L 1232.6995052353604 143.46808222472345 L 1232.4908742218647 143.52031754074505 L 1232.2810981505852 143.57160713424193 L 1232.0701979989542 143.6219458762975 L 1231.8581948568112 143.67132873307952 L 1231.6451099242936 143.71975076634342 L 1231.4309645097171 143.76720713392626 L 1231.215780027445 143.81369309023083 L 1230.9995779957458 143.8592039867002 L 1230.7823800346425 143.9037352722827 L 1230.5642078637504 143.94728249388683 L 1230.345083300105 143.98984129682677 L 1230.1250282559797 144.03140742525764 L 1229.9040647366955 144.07197672260128 L 1229.6822148384206 144.11154513196175 L 1229.4595007459595 144.15010869653108 L 1229.2359447305362 144.18766355998494 L 1229.0115691475655 144.2242059668683 L 1228.7863964344192 144.2597322629709 L 1228.5604491081808 144.29423889569279 L 1228.3337497633947 144.32772241439937 L 1228.1063210698062 144.36017947076672 L 1227.8781857700956 144.39160681911628 L 1227.649366677602 144.42200131673934 L 1227.4198866740448 144.45135992421152 L 1227.1897687072328 144.4796797056965 L 1226.9590357887707 144.50695782923975 L 1226.7277109917584 144.53319156705163 L 1226.4958174484825 144.55837829578024 L 1226.2633783481044 144.5825154967737 L 1226.0304169343403 144.60560075633202 L 1225.7969565031374 144.62763176594848 L 1225.5630204003444 144.64860632254045 L 1225.3286320193765 144.66852232866978 L 1225.0938147988766 144.68737779275247 L 1224.8585922203708 144.70517082925778 L 1224.6229878059212 144.72189965889692 L 1224.387025115773 144.73756260880086 L 1224.1507277459982 144.75215811268765 L 1223.914119326137 144.76568471101908 L 1223.6772235168346 144.77814105114655 L 1223.4400640074741 144.7895258874465 L 1223.202664513809 144.7998380814447 L 1222.9650487755905 144.80907660193043 L 1222.7272405541949 144.8172405250593 L 1222.489263630246 144.82432903444578 L 1222.2511418012375 144.83034142124487 L 1222.0128988791541 144.83527708422287 L 1221.7745586880899 144.83913552981764 L 1221.5361450618648 144.8419163721878 L 1221.2976818416432 144.84361933325144 L 1221.059192873548 144.84424424271387 L 1220.8207020062775 144.84379103808467 L 1220.5822330887197 144.84225976468392 L 1220.3438099675675 144.83965057563768 L 1220.1054564849344 144.8359637318627 L 1219.86719647597 144.83119960204027 L 1219.6290537664768 144.82535866257942 L 1219.391052170527 144.81844149756918 L 1219.1532154880822 144.81044879872033 L 1218.9155675026122 144.8013813652961 L 1218.6781319787178 144.79124010403225 L 1218.4409326597531 144.78002602904647 L 1218.2039932654527 144.7677402617369 L 1217.9673374895583 144.75438403067005 L 1217.7309889974506 144.73995867145788 L 1217.4949714237816 144.72446562662432 L 1217.259308370112 144.7079064454609 L 1217.024023402551 144.69028278387196 L 1216.7891400493988 144.671596404209 L 1216.5546817987956 144.65184917509436 L 1216.3206720963706 144.6310430712345 L 1216.0871343428994 144.6091801732225 L 1215.8540918919623 144.58626266732998 L 1215.6215680476107 144.56229284528834 L 1215.3895860620348 144.53727310405984 L 1215.15816913324 144.5112059455978 L 1214.9273404027267 144.48409397659628 L 1214.697122953175 144.45593990822962 L 1214.4675398061386 144.4267465558812 L 1214.2386139197404 144.3965168388619 L 1214.0103681863784 144.36525378011828 L 1213.7828254304357 144.3329605059301 L 1213.5560084059985 144.2996402455979 L 1213.3299397945798 144.26529633111994 L 1213.1046422028528 144.22993219685907 L 1212.880138160389 144.19355137919922 L 1212.656450117405 144.15615751619185 L 1212.433600442519 144.1177543471921 L 1212.211611420513 144.07834571248486 L 1211.9905052501038 144.03793555290076 L 1211.7703040417246 143.9965279094221 L 1211.5510298153122 143.9541269227787 L 1211.332704498107 143.9107368330339 L 1211.1153499224588 143.8663619791605 L 1210.8989878236437 143.82100679860693 L 1210.6836398376913 143.77467582685347 L 1210.469327499221 143.72737369695864 L 1210.256072239288 143.679105139096 L 1210.0438953832404 143.62987498008118 L 1209.8328181485872 143.579688142889 L 1209.622861642876 143.52854964616142 L 1209.414046861582 143.4764646037054 L 1209.2063946860096 143.4234382239819 L 1208.9999258812034 143.36947580958457 L 1208.7946610938718 143.31458275671 L 1208.5906208503222 143.25876455461767 L 1208.3878255544093 143.20202678508127 L 1208.1862954854937 143.1443751218305 L 1207.9860507964138 143.08581532998366 L 1207.7871115114724 143.02635326547107 L 1207.5894975244316 142.9659948744497 L 1207.3932285965257 142.9047461927083 L 1207.198324354484 142.84261334506402 L 1207.0048042885678 142.77960254474988 L 1206.8126877506231 142.71572009279336 L 1206.6219939521434 142.65097237738644 L 1206.4327419623494 142.5853658732467 L 1206.2449507062825 142.51890714096987 L 1206.0586389629118 142.4516028263738 L 1205.8738253632564 142.3834596598339 L 1205.6905283885224 142.31448445561 L 1205.508766368254 142.24468411116504 L 1205.3285574785025 142.17406560647532 L 1205.1499197400062 142.10263600333244 L 1204.9728710163904 142.03040244463722 L 1204.7974290123796 141.9573721536853 L 1204.623611272028 141.88355243344492 L 1204.451435176965 141.80895066582661 L 1204.280917944657 141.73357431094496 L 1204.1120766266843 141.65743090637264 L 1203.9449281070383 141.58052806638665 L 1203.7794891004319 141.5028734812069 L 1203.6157761506279 141.42447491622718 L 1203.4538056287845 141.34534021123872 L 1203.293593731819 141.265477279646 L 1203.135156480788 141.1848941076757 L 1202.9785097192844 141.10359875357778 L 1202.8236691118534 141.02159934681995 L 1202.6706501424271 140.93890408727458 L 1202.5194681127748 140.85552124439866 L 1202.3701381409735 140.77145915640702 L 1202.222675159896 140.68672622943842 L 1202.0770939157176 140.6013309367149 L 1201.933408966441 140.5152818176946 L 1201.7916346804418 140.42858747721772 L 1201.6517852350303 140.34125658464606 L 1201.5138746150346 140.2532978729961 L 1201.3779166114016 140.1647201380657 L 1201.2439248198186 140.07553223755454 L 1201.1119126393528 139.98574309017835 L 1200.9818932711125 139.89536167477704 L 1200.853879716926 139.80439702941683 L 1200.7278847780422 139.71285825048648 L 1200.6039210538497 139.62075449178758 L 1200.482000940618 139.52809496361922 L 1200.3621366302566 139.43488893185705 L 1200.2443401090966 139.34114571702654 L 1200.1286231566921 139.24687469337107 L 1200.014997344642 139.15208528791445 L 1199.9034740354325 139.05678697951822 L 1199.794064381302 138.96098929793382 L 1199.6867793231243 138.86470182284955 L 1199.581629589316 138.76793418293272 L 1199.478625694763 138.67069605486665 L 1199.3777779397687 138.57299716238313 L 1199.2790964090245 138.47484727529 L 1199.1825909706017 138.37625620849414 L 1199.088271274963 138.27723382102013 L 1198.9961467540002 138.17779001502413 L 1198.906226620088 138.07793473480393 L 1198.818519865165 137.9776779658043 L 1198.7330352598337 137.87702973361863 L 1198.6497813524834 137.77600010298625 L 1198.5687664684356 137.67459917678602 L 1198.4899987091108 137.57283709502605 L 1198.4134859512194 137.47072403382973 L 1198.3392358459737 137.3682702044181 L 1198.267255818322 137.26548585208872 L 1198.1975530662073 137.16238125519112 L 1198.1301345598467 137.05896672409915 L 1198.0650070410347 136.95525260017968 L 1198.002177022469 136.8512492547587 L 1197.9416507870988 136.74696708808406 L 1197.8834343874973 136.64241652828557 L 1197.827533645256 136.53760803033202 L 1197.7739541504025 136.43255207498592 L 1197.7227012608419 136.32725916775524 L 1197.6737801018198 136.22173983784296 L 1197.6271955654122 136.11600463709416 L 1197.582952310033 136.01006413894075 L 1197.5410547599718 135.90392893734432 L 1197.501507104948 135.79760964573654 L 1197.4643132996944 135.69111689595798 L 1197.4294770635604 135.5844613371949 L 1197.3970018801408 135.47765363491428 L 1197.3668909969267 135.37070446979732 L 1197.3391474249815 135.26362453667144 L 1197.313773938639 135.15642454344072 L 1197.2907730752272 135.04911521001512 L 1197.2701471348128 134.9417072672386 L 1197.2518981799726 134.83421145581588 L 1197.2360280355872 134.72663852523857 L 1197.2225382886577 134.61899923271008 L 1197.2114302881475 134.5113043420699 L 1197.2027051448474 134.40356462271745 L 1197.1963637312645 134.2957908485348 L 1197.1924066815347 134.1879937968096 L 1197.19083439136 134.08018424715718" stroke-miterlimit="10" stroke-width="2.7769845610000004" stroke-dasharray=""/></g><g><g/><text fill="black" stroke="none" font-family="sans-serif" font-size="11pt" font-style="normal" font-weight="normal" text-decoration="normal" x="1180.6966188085066" y="162.371920802" text-anchor="start" dominant-baseline="alphabetic" xml:space="preserve">SpDatabase</text></g></g><g><path fill="white" stroke="black" paint-order="fill stroke markers" d=" M 51.62498385214844 175.440083442 L 67.96018715214844 175.440083442 L 67.96018715214844 1039.5723380119994 L 51.62498385214844 1039.5723380119994 L 51.62498385214844 175.440083442" stroke-miterlimit="10" stroke-width="1.3612669416666667" stroke-dasharray=""/><path fill="white" stroke="black" paint-order="fill stroke markers" d=" M 510.43844965671616 175.440083442 L 526.7736529567162 175.440083442 L 526.7736529567162 1039.5723380119994 L 510.43844965671616 1039.5723380119994 L 510.43844965671616 175.440083442" stroke-miterlimit="10" stroke-width="1.3612669416666667" stroke-dasharray=""/><path fill="white" stroke="black" paint-order="fill stroke markers" d=" M 698.2582673556744 221.178652682 L 714.5934706556745 221.178652682 L 714.5934706556745 541.348637362 L 698.2582673556744 541.348637362 L 698.2582673556744 221.178652682" stroke-miterlimit="10" stroke-width="1.3612669416666667" stroke-dasharray=""/><path fill="white" stroke="black" paint-order="fill stroke markers" d=" M 278.1311427722005 266.917221922 L 294.4663460722005 266.917221922 L 294.4663460722005 404.132929642 L 278.1311427722005 404.132929642 L 278.1311427722005 266.917221922" stroke-miterlimit="10" stroke-width="1.3612669416666667" stroke-dasharray=""/><path fill="white" stroke="black" paint-order="fill stroke markers" d=" M 1212.872599311827 449.871498882 L 1229.207802611827 449.871498882 L 1229.207802611827 495.61006812200003 L 1212.872599311827 495.61006812200003 L 1212.872599311827 449.871498882" stroke-miterlimit="10" stroke-width="1.3612669416666667" stroke-dasharray=""/><path fill="white" stroke="black" paint-order="fill stroke markers" d=" M 831.8961348843528 587.0872066019999 L 848.2313381843529 587.0872066019999 L 848.2313381843529 907.2571912819996 L 831.8961348843528 907.2571912819996 L 831.8961348843528 587.0872066019999" stroke-miterlimit="10" stroke-width="1.3612669416666667" stroke-dasharray=""/><path fill="white" stroke="black" paint-order="fill stroke markers" d=" M 406.5171273222005 632.8257758419999 L 422.8523306222005 632.8257758419999 L 422.8523306222005 770.0414835619997 L 406.5171273222005 770.0414835619997 L 406.5171273222005 632.8257758419999" stroke-miterlimit="10" stroke-width="1.3612669416666667" stroke-dasharray=""/><path fill="white" stroke="black" paint-order="fill stroke markers" d=" M 1212.872599311827 815.7800528019997 L 1229.207802611827 815.7800528019997 L 1229.207802611827 861.5186220419996 L 1212.872599311827 861.5186220419996 L 1212.872599311827 815.7800528019997" stroke-miterlimit="10" stroke-width="1.3612669416666667" stroke-dasharray=""/><g><text fill="black" stroke="none" font-family="sans-serif" font-size="11pt" font-style="normal" font-weight="normal" text-decoration="normal" x="566.8896402709414" y="214.644571362" text-anchor="start" dominant-baseline="alphabetic" xml:space="preserve">Refresh users</text></g><g><path fill="none" stroke="black" paint-order="fill stroke markers" d=" M 526.7736529567162 221.178652682 L 695.5357334723411 221.178652682" stroke-miterlimit="10" stroke-width="1.3612669416666667" stroke-dasharray=""/><g transform="translate(698.2582673556744,221.178652682) translate(-698.2582673556744,-221.178652682)"><path fill="none" stroke="black" paint-order="fill stroke markers" d=" M 684.6455979390078 214.37231797366667 L 696.8970004140077 221.178652682 L 684.6455979390078 227.98498739033334" stroke-miterlimit="10" stroke-width="1.3612669416666667"/></g></g><g><text fill="black" stroke="none" font-family="sans-serif" font-size="11pt" font-style="normal" font-weight="normal" text-decoration="normal" x="457.25709736335153" y="260.383140602" text-anchor="start" dominant-baseline="alphabetic" xml:space="preserve">Get user list</text></g><g><path fill="none" stroke="black" paint-order="fill stroke markers" d=" M 698.2582673556744 266.917221922 L 297.1888799555338 266.917221922" stroke-miterlimit="10" stroke-width="1.3612669416666667" stroke-dasharray=""/><g transform="translate(294.4663460722005,266.917221922) translate(-294.4663460722005,-266.917221922)"><path fill="black" stroke="none" paint-order="stroke fill markers" d=" M 308.0790154888672 260.1108872136667 L 294.4663460722005 266.917221922 L 308.0790154888672 273.72355663033335 Z"/></g></g><g><text fill="black" stroke="none" font-family="sans-serif" font-size="11pt" font-style="normal" font-weight="normal" text-decoration="normal" x="118.45370786988934" y="306.121709842" text-anchor="start" dominant-baseline="alphabetic" xml:space="preserve">Request user list</text></g><g><path fill="none" stroke="black" paint-order="fill stroke markers" d=" M 278.1311427722005 312.655791162 L 70.68272103548176 312.655791162" stroke-miterlimit="10" stroke-width="1.3612669416666667" stroke-dasharray=""/><g transform="translate(67.96018715214844,312.655791162) translate(-67.96018715214844,-312.655791162)"><path fill="black" stroke="none" paint-order="stroke fill markers" d=" M 81.5728565688151 305.8494564536667 L 67.96018715214844 312.655791162 L 81.5728565688151 319.46212587033335 Z"/></g></g><g><text fill="black" stroke="none" font-family="sans-serif" font-size="11pt" font-style="normal" font-weight="normal" text-decoration="normal" x="110.71212309205731" y="351.860279082" text-anchor="start" dominant-baseline="alphabetic" xml:space="preserve">Responds user list </text></g><g><path fill="none" stroke="black" paint-order="fill stroke markers" d=" M 67.96018715214844 358.394360402 L 275.4086088888672 358.394360402" stroke-miterlimit="10" stroke-width="1.3612669416666667" stroke-dasharray="6.53408132"/><g transform="translate(278.1311427722005,358.394360402) translate(-278.1311427722005,-358.394360402)"><path fill="black" stroke="none" paint-order="stroke fill markers" d=" M 264.51847335553384 351.5880256936667 L 278.1311427722005 358.394360402 L 264.51847335553384 365.20069511033336 Z"/></g></g><g><text fill="black" stroke="none" font-family="sans-serif" font-size="11pt" font-style="normal" font-weight="normal" text-decoration="normal" x="447.07099354255075" y="397.598848322" text-anchor="start" dominant-baseline="alphabetic" xml:space="preserve">Return user list</text></g><g><path fill="none" stroke="black" paint-order="fill stroke markers" d=" M 294.4663460722005 404.132929642 L 695.5357334723411 404.132929642" stroke-miterlimit="10" stroke-width="1.3612669416666667" stroke-dasharray="6.53408132"/><g transform="translate(698.2582673556744,404.132929642) translate(-698.2582673556744,-404.132929642)"><path fill="black" stroke="none" paint-order="stroke fill markers" d=" M 684.6455979390078 397.3265949336667 L 698.2582673556744 404.132929642 L 684.6455979390078 410.93926435033336 Z"/></g></g><g><text fill="black" stroke="none" font-family="sans-serif" font-size="11pt" font-style="normal" font-weight="normal" text-decoration="normal" x="814.6099881087507" y="443.337417562" text-anchor="start" dominant-baseline="alphabetic" xml:space="preserve">Create/Update users (bulk update or iteration)</text></g><g><path fill="none" stroke="black" paint-order="fill stroke markers" d=" M 714.5934706556745 449.871498882 L 1210.1500654284935 449.871498882" stroke-miterlimit="10" stroke-width="1.3612669416666667" stroke-dasharray=""/><g transform="translate(1212.872599311827,449.871498882) translate(-1212.872599311827,-449.871498882)"><path fill="black" stroke="none" paint-order="stroke fill markers" d=" M 1199.2599298951602 443.0651641736667 L 1212.872599311827 449.871498882 L 1199.2599298951602 456.67783359033336 Z"/></g></g><g><text fill="black" stroke="none" font-family="sans-serif" font-size="11pt" font-style="normal" font-weight="normal" text-decoration="normal" x="899.7709988509382" y="489.075986802" text-anchor="start" dominant-baseline="alphabetic" xml:space="preserve">Return confirmation</text></g><g><path fill="none" stroke="black" paint-order="fill stroke markers" d=" M 1212.872599311827 495.61006812200003 L 717.3160045390078 495.61006812200003" stroke-miterlimit="10" stroke-width="1.3612669416666667" stroke-dasharray="6.53408132"/><g transform="translate(714.5934706556745,495.61006812200003) translate(-714.5934706556745,-495.61006812200003)"><path fill="black" stroke="none" paint-order="stroke fill markers" d=" M 728.2061400723412 488.8037334136667 L 714.5934706556745 495.61006812200003 L 728.2061400723412 502.41640283033337 Z"/></g></g><g><text fill="black" stroke="none" font-family="sans-serif" font-size="11pt" font-style="normal" font-weight="normal" text-decoration="normal" x="548.5539240233828" y="534.8145560419999" text-anchor="start" dominant-baseline="alphabetic" xml:space="preserve">Return confirmation</text></g><g><path fill="none" stroke="black" paint-order="fill stroke markers" d=" M 698.2582673556744 541.348637362 L 529.4961868400495 541.348637362" stroke-miterlimit="10" stroke-width="1.3612669416666667" stroke-dasharray="6.53408132"/><g transform="translate(526.7736529567162,541.348637362) translate(-526.7736529567162,-541.348637362)"><path fill="none" stroke="black" paint-order="fill stroke markers" d=" M 540.3863223733829 534.5423026536666 L 528.1349198983829 541.348637362 L 540.3863223733829 548.1549720703333" stroke-miterlimit="10" stroke-width="1.3612669416666667"/></g></g><g><text fill="black" stroke="none" font-family="sans-serif" font-size="11pt" font-style="normal" font-weight="normal" text-decoration="normal" x="622.2912537838158" y="580.5531252819999" text-anchor="start" dominant-baseline="alphabetic" xml:space="preserve">Refresh channels</text></g><g><path fill="none" stroke="black" paint-order="fill stroke markers" d=" M 526.7736529567162 587.0872066019999 L 829.1736010010195 587.0872066019999" stroke-miterlimit="10" stroke-width="1.3612669416666667" stroke-dasharray=""/><g transform="translate(831.8961348843528,587.0872066019999) translate(-831.8961348843528,-587.0872066019999)"><path fill="none" stroke="black" paint-order="fill stroke markers" d=" M 818.2834654676861 580.2808718936666 L 830.5348679426861 587.0872066019999 L 818.2834654676861 593.8935413103333" stroke-miterlimit="10" stroke-width="1.3612669416666667"/></g></g><g><text fill="black" stroke="none" font-family="sans-serif" font-size="11pt" font-style="normal" font-weight="normal" text-decoration="normal" x="576.8517031512258" y="626.2916945219998" text-anchor="start" dominant-baseline="alphabetic" xml:space="preserve">Get channel list</text></g><g><path fill="none" stroke="black" paint-order="fill stroke markers" d=" M 831.8961348843528 632.8257758419999 L 425.5748645055338 632.8257758419999" stroke-miterlimit="10" stroke-width="1.3612669416666667" stroke-dasharray=""/><g transform="translate(422.8523306222005,632.8257758419999) translate(-422.8523306222005,-632.8257758419999)"><path fill="black" stroke="none" paint-order="stroke fill markers" d=" M 436.4650000388672 626.0194411336665 L 422.8523306222005 632.8257758419999 L 436.4650000388672 639.6321105503332 Z"/></g></g><g><text fill="black" stroke="none" font-family="sans-serif" font-size="11pt" font-style="normal" font-weight="normal" text-decoration="normal" x="171.2293798934245" y="672.0302637619998" text-anchor="start" dominant-baseline="alphabetic" xml:space="preserve">Request channel list</text></g><g><path fill="none" stroke="black" paint-order="fill stroke markers" d=" M 406.5171273222005 678.5643450819998 L 70.68272103548176 678.5643450819998" stroke-miterlimit="10" stroke-width="1.3612669416666667" stroke-dasharray=""/><g transform="translate(67.96018715214844,678.5643450819998) translate(-67.96018715214844,-678.5643450819998)"><path fill="black" stroke="none" paint-order="stroke fill markers" d=" M 81.5728565688151 671.7580103736665 L 67.96018715214844 678.5643450819998 L 81.5728565688151 685.3706797903332 Z"/></g></g><g><text fill="black" stroke="none" font-family="sans-serif" font-size="11pt" font-style="normal" font-weight="normal" text-decoration="normal" x="163.48779511559246" y="717.7688330019997" text-anchor="start" dominant-baseline="alphabetic" xml:space="preserve">Responds channel list </text></g><g><path fill="none" stroke="black" paint-order="fill stroke markers" d=" M 67.96018715214844 724.3029143219998 L 403.7945934388672 724.3029143219998" stroke-miterlimit="10" stroke-width="1.3612669416666667" stroke-dasharray="6.53408132"/><g transform="translate(406.5171273222005,724.3029143219998) translate(-406.5171273222005,-724.3029143219998)"><path fill="black" stroke="none" paint-order="stroke fill markers" d=" M 392.90445790553383 717.4965796136664 L 406.5171273222005 724.3029143219998 L 392.90445790553383 731.1092490303331 Z"/></g></g><g><text fill="black" stroke="none" font-family="sans-serif" font-size="11pt" font-style="normal" font-weight="normal" text-decoration="normal" x="566.665599330425" y="763.5074022419997" text-anchor="start" dominant-baseline="alphabetic" xml:space="preserve">Return channel list</text></g><g><path fill="none" stroke="black" paint-order="fill stroke markers" d=" M 422.8523306222005 770.0414835619997 L 829.1736010010195 770.0414835619997" stroke-miterlimit="10" stroke-width="1.3612669416666667" stroke-dasharray="6.53408132"/><g transform="translate(831.8961348843528,770.0414835619997) translate(-831.8961348843528,-770.0414835619997)"><path fill="black" stroke="none" paint-order="stroke fill markers" d=" M 818.2834654676861 763.2351488536664 L 831.8961348843528 770.0414835619997 L 818.2834654676861 776.847818270333 Z"/></g></g><g><text fill="black" stroke="none" font-family="sans-serif" font-size="11pt" font-style="normal" font-weight="normal" text-decoration="normal" x="870.0116092510195" y="809.2459714819996" text-anchor="start" dominant-baseline="alphabetic" xml:space="preserve">Create/Update channels (bulk update or iteration)</text></g><g><path fill="none" stroke="black" paint-order="fill stroke markers" d=" M 848.2313381843529 815.7800528019997 L 1210.1500654284935 815.7800528019997" stroke-miterlimit="10" stroke-width="1.3612669416666667" stroke-dasharray=""/><g transform="translate(1212.872599311827,815.7800528019997) translate(-1212.872599311827,-815.7800528019997)"><path fill="black" stroke="none" paint-order="stroke fill markers" d=" M 1199.2599298951602 808.9737180936663 L 1212.872599311827 815.7800528019997 L 1199.2599298951602 822.586387510333 Z"/></g></g><g><text fill="black" stroke="none" font-family="sans-serif" font-size="11pt" font-style="normal" font-weight="normal" text-decoration="normal" x="966.5899326152773" y="854.9845407219996" text-anchor="start" dominant-baseline="alphabetic" xml:space="preserve">Return confirmation</text></g><g><path fill="none" stroke="black" paint-order="fill stroke markers" d=" M 1212.872599311827 861.5186220419996 L 850.9538720676862 861.5186220419996" stroke-miterlimit="10" stroke-width="1.3612669416666667" stroke-dasharray="6.53408132"/><g transform="translate(848.2313381843529,861.5186220419996) translate(-848.2313381843529,-861.5186220419996)"><path fill="black" stroke="none" paint-order="stroke fill markers" d=" M 861.8440076010196 854.7122873336663 L 848.2313381843529 861.5186220419996 L 861.8440076010196 868.324956750333 Z"/></g></g><g><text fill="black" stroke="none" font-family="sans-serif" font-size="11pt" font-style="normal" font-weight="normal" text-decoration="normal" x="615.3728577877221" y="900.7231099619995" text-anchor="start" dominant-baseline="alphabetic" xml:space="preserve">Return confirmation</text></g><g><path fill="none" stroke="black" paint-order="fill stroke markers" d=" M 831.8961348843528 907.2571912819996 L 529.4961868400495 907.2571912819996" stroke-miterlimit="10" stroke-width="1.3612669416666667" stroke-dasharray="6.53408132"/><g transform="translate(526.7736529567162,907.2571912819996) translate(-526.7736529567162,-907.2571912819996)"><path fill="none" stroke="black" paint-order="fill stroke markers" d=" M 540.3863223733829 900.4508565736662 L 528.1349198983829 907.2571912819996 L 540.3863223733829 914.0635259903329" stroke-miterlimit="10" stroke-width="1.3612669416666667"/></g></g><g><text fill="black" stroke="none" font-family="sans-serif" font-size="11pt" font-style="normal" font-weight="normal" text-decoration="normal" x="739.1424251102155" y="946.4616792019995" text-anchor="start" dominant-baseline="alphabetic" xml:space="preserve">Flush cache</text></g><g><path fill="none" stroke="black" paint-order="fill stroke markers" d=" M 526.7736529567162 952.9957605219995 L 1027.8294348647564 952.9957605219995" stroke-miterlimit="10" stroke-width="1.3612669416666667" stroke-dasharray=""/><g transform="translate(1030.5519687480898,952.9957605219995) translate(-1030.5519687480898,-952.9957605219995)"><path fill="black" stroke="none" paint-order="stroke fill markers" d=" M 1016.9392993314232 946.1894258136662 L 1030.5519687480898 952.9957605219995 L 1016.9392993314232 959.8020952303328 Z"/></g></g><g><text fill="black" stroke="none" font-family="sans-serif" font-size="11pt" font-style="normal" font-weight="normal" text-decoration="normal" x="737.1094966434187" y="992.2002484419994" text-anchor="start" dominant-baseline="alphabetic" xml:space="preserve">Confirmation</text></g><g><path fill="none" stroke="black" paint-order="fill stroke markers" d=" M 1030.5519687480898 998.7343297619994 L 529.4961868400495 998.7343297619994" stroke-miterlimit="10" stroke-width="1.3612669416666667" stroke-dasharray="6.53408132"/><g transform="translate(526.7736529567162,998.7343297619994) translate(-526.7736529567162,-998.7343297619994)"><path fill="black" stroke="none" paint-order="stroke fill markers" d=" M 540.3863223733829 991.9279950536661 L 526.7736529567162 998.7343297619994 L 540.3863223733829 1005.5406644703328 Z"/></g></g></g><g/><g/><g/><g/><g/><g/><g/><g/></g></svg>
