<svg version="1.1" xmlns="http://www.w3.org/2000/svg" xmlns:xlink="http://www.w3.org/1999/xlink" width="1700" height="1805"><defs/><g><g/><g/><g/><g/><g/><g/><g/><g/><g/><g/><g/><g/><g/><g/><g/><g/><g/><g/><g/><g/><g/><g/><g/><g/><g/><g/><g/><g/><g/><g/><g><rect fill="white" stroke="none" x="0" y="0" width="1700" height="1805"/></g><g><text fill="black" stroke="none" font-family="sans-serif" font-size="16.5pt" font-style="normal" font-weight="normal" text-decoration="normal" x="756.6595474491211" y="24.50280495" text-anchor="start" dominant-baseline="alphabetic" xml:space="preserve">Message Received</text></g><g><g><path fill="#9F5F9F" stroke="black" paint-order="fill stroke markers" d=" M 8.167601650000003 58.5617038305 L 222.27669843554685 58.5617038305 L 222.27669843554685 1771.389445852 L 8.167601650000003 1771.389445852 L 8.167601650000003 58.5617038305" stroke-miterlimit="10" stroke-width="1.3612669416666667" stroke-dasharray=""/></g><g><text fill="black" stroke="none" font-family="sans-serif" font-size="11pt" font-style="normal" font-weight="bold" text-decoration="normal" x="96.0668231995117" y="81.43098845050001" text-anchor="start" dominant-baseline="alphabetic" xml:space="preserve">Slack</text></g><g><path fill="none" stroke="black" paint-order="fill stroke markers" d=" M 238.61190173554684 50.394102180500006 L 1581.645902163281 50.394102180500006 L 1581.645902163281 1771.389445852 L 238.61190173554684 1771.389445852 L 238.61190173554684 50.394102180500006" stroke-miterlimit="10" stroke-width="1.3612669416666667" stroke-dasharray=""/></g><g><text fill="black" stroke="none" font-family="sans-serif" font-size="11pt" font-style="normal" font-weight="bold" text-decoration="normal" x="829.0408739953124" y="73.2633868005" text-anchor="start" dominant-baseline="alphabetic" xml:space="preserve">Service Provider Slack </text></g><g><path fill="#42b983" stroke="black" paint-order="fill stroke markers" d=" M 1606.6431332099608 58.5617038305 L 1692.248172935742 58.5617038305 L 1692.248172935742 1771.389445852 L 1606.6431332099608 1771.389445852 L 1606.6431332099608 58.5617038305" stroke-miterlimit="10" stroke-width="1.3612669416666667" stroke-dasharray=""/></g><g><text fill="black" stroke="none" font-family="sans-serif" font-size="11pt" font-style="normal" font-weight="bold" text-decoration="normal" x="1623.7906695523436" y="81.43098845050001" text-anchor="start" dominant-baseline="alphabetic" xml:space="preserve">Hopper</text></g></g><g><path fill="none" stroke="black" paint-order="fill stroke markers" d=" M 63.597166190625 167.272481792 L 63.597166190625 1805.693372782" stroke-miterlimit="10" stroke-width="1.3612669416666667" stroke-dasharray="12.565541,5.445067766666667"/><path fill="none" stroke="black" paint-order="fill stroke markers" d=" M 170.65171458339842 167.272481792 L 170.65171458339842 1805.693372782" stroke-miterlimit="10" stroke-width="1.3612669416666667" stroke-dasharray="12.565541,5.445067766666667"/><path fill="none" stroke="black" paint-order="fill stroke markers" d=" M 311.1567159099609 167.272481792 L 311.1567159099609 1805.693372782" stroke-miterlimit="10" stroke-width="1.3612669416666667" stroke-dasharray="12.565541,5.445067766666667"/><path fill="none" stroke="black" paint-order="fill stroke markers" d=" M 587.7954117827474 167.272481792 L 587.7954117827474 1805.693372782" stroke-miterlimit="10" stroke-width="1.3612669416666667" stroke-dasharray="12.565541,5.445067766666667"/><path fill="none" stroke="black" paint-order="fill stroke markers" d=" M 716.163482514388 167.272481792 L 716.163482514388 1805.693372782" stroke-miterlimit="10" stroke-width="1.3612669416666667" stroke-dasharray="12.565541,5.445067766666667"/><path fill="none" stroke="black" paint-order="fill stroke markers" d=" M 842.0941905751301 167.272481792 L 842.0941905751301 1805.693372782" stroke-miterlimit="10" stroke-width="1.3612669416666667" stroke-dasharray="12.565541,5.445067766666667"/><path fill="none" stroke="black" paint-order="fill stroke markers" d=" M 992.8852959747395 167.272481792 L 992.8852959747395 1805.693372782" stroke-miterlimit="10" stroke-width="1.3612669416666667" stroke-dasharray="12.565541,5.445067766666667"/><path fill="none" stroke="black" paint-order="fill stroke markers" d=" M 1226.3171131854165 167.272481792 L 1226.3171131854165 1805.693372782" stroke-miterlimit="10" stroke-width="1.3612669416666667" stroke-dasharray="12.565541,5.445067766666667"/><path fill="none" stroke="black" paint-order="fill stroke markers" d=" M 1533.1347183599607 167.272481792 L 1533.1347183599607 1805.693372782" stroke-miterlimit="10" stroke-width="1.3612669416666667" stroke-dasharray="12.565541,5.445067766666667"/><path fill="none" stroke="black" paint-order="fill stroke markers" d=" M 1649.4456530728514 167.272481792 L 1649.4456530728514 1805.693372782" stroke-miterlimit="10" stroke-width="1.3612669416666667" stroke-dasharray="12.565541,5.445067766666667"/></g><g><g><path fill="white" stroke="black" paint-order="fill stroke markers" d=" M 96.022544741125 120.39044832100001 A 24.2577769005 24.2577769005 0 1 1 96.02253261223755 120.36619054814246 M 32.560279920625 94.74417914 L 32.560279920625 146.03671750200002 M 31.171787640124997 120.39044832100001 L 47.506990940125 120.39044832100001" stroke-miterlimit="10" stroke-width="2.7769845610000004" stroke-dasharray=""/></g><g><g/><text fill="black" stroke="none" font-family="sans-serif" font-size="11pt" font-style="normal" font-weight="normal" text-decoration="normal" x="16.335203300000003" y="162.371920802" text-anchor="start" dominant-baseline="alphabetic" xml:space="preserve">SlackEventApi</text></g><g><path fill="white" stroke="black" paint-order="fill stroke markers" d=" M 203.07709313389842 120.39044832100001 A 24.2577769005 24.2577769005 0 1 1 203.07708100501097 120.36619054814246 M 139.61482831339842 94.74417914 L 139.61482831339842 146.03671750200002 M 138.22633603289842 120.39044832100001 L 154.5615393328984 120.39044832100001" stroke-miterlimit="10" stroke-width="2.7769845610000004" stroke-dasharray=""/></g><g><g/><text fill="black" stroke="none" font-family="sans-serif" font-size="11pt" font-style="normal" font-weight="normal" text-decoration="normal" x="127.19433238124998" y="162.371920802" text-anchor="start" dominant-baseline="alphabetic" xml:space="preserve">SlackWebApi</text></g><g><path fill="white" stroke="black" paint-order="fill stroke markers" d=" M 343.5820944604609 120.39044832100001 A 24.2577769005 24.2577769005 0 1 1 343.5820823315735 120.36619054814246 M 280.11982963996087 94.74417914 L 280.11982963996087 146.03671750200002 M 278.7313373594609 120.39044832100001 L 295.0665406594609 120.39044832100001" stroke-miterlimit="10" stroke-width="2.7769845610000004" stroke-dasharray=""/></g><g><g/><text fill="black" stroke="none" font-family="sans-serif" font-size="11pt" font-style="normal" font-weight="normal" text-decoration="normal" x="246.77950338554683" y="162.371920802" text-anchor="start" dominant-baseline="alphabetic" xml:space="preserve">SpMessageHandler</text></g><g><path fill="white" stroke="black" paint-order="fill stroke markers" d=" M 612.0531886832473 120.39044832100001 A 24.2577769005 24.2577769005 0 1 1 612.0531765543599 120.36619054814246 M 584.5283711227473 96.1326714205 L 594.3294931027473 87.96506977050001 M 584.5283711227473 96.1326714205 L 594.3294931027473 104.3002730705" stroke-miterlimit="10" stroke-width="2.7769845610000004" stroke-dasharray=""/></g><g><g/><text fill="black" stroke="none" font-family="sans-serif" font-size="11pt" font-style="normal" font-weight="normal" text-decoration="normal" x="524.6458375029622" y="162.371920802" text-anchor="start" dominant-baseline="alphabetic" xml:space="preserve">SpMessageService</text></g><g><path fill="white" stroke="black" paint-order="fill stroke markers" d=" M 740.4212594148879 120.39044832100001 A 24.2577769005 24.2577769005 0 1 1 740.4212472860005 120.36619054814246 M 712.896441854388 96.1326714205 L 722.6975638343879 87.96506977050001 M 712.896441854388 96.1326714205 L 722.6975638343879 104.3002730705" stroke-miterlimit="10" stroke-width="2.7769845610000004" stroke-dasharray=""/></g><g><g/><text fill="black" stroke="none" font-family="sans-serif" font-size="11pt" font-style="normal" font-weight="normal" text-decoration="normal" x="667.2801893625325" y="162.371920802" text-anchor="start" dominant-baseline="alphabetic" xml:space="preserve">SpUserService</text></g><g><path fill="white" stroke="black" paint-order="fill stroke markers" d=" M 866.3519674756301 120.39044832100001 A 24.2577769005 24.2577769005 0 1 1 866.3519553467427 120.36619054814246 M 838.8271499151301 96.1326714205 L 848.6282718951301 87.96506977050001 M 838.8271499151301 96.1326714205 L 848.6282718951301 104.3002730705" stroke-miterlimit="10" stroke-width="2.7769845610000004" stroke-dasharray=""/></g><g><g/><text fill="black" stroke="none" font-family="sans-serif" font-size="11pt" font-style="normal" font-weight="normal" text-decoration="normal" x="781.3819789662434" y="162.371920802" text-anchor="start" dominant-baseline="alphabetic" xml:space="preserve">SpChannelService</text></g><g><path fill="white" stroke="black" paint-order="fill stroke markers" d=" M 1017.1430728752395 120.39044832100001 A 24.2577769005 24.2577769005 0 1 1 1017.143060746352 120.36619054814246 M 989.6182553147395 96.1326714205 L 999.4193772947394 87.96506977050001 M 989.6182553147395 96.1326714205 L 999.4193772947394 104.3002730705" stroke-miterlimit="10" stroke-width="2.7769845610000004" stroke-dasharray=""/></g><g><g/><text fill="black" stroke="none" font-family="sans-serif" font-size="11pt" font-style="normal" font-weight="normal" text-decoration="normal" x="919.1416054840168" y="162.371920802" text-anchor="start" dominant-baseline="alphabetic" xml:space="preserve">SpSubscriptionService</text></g><g><path fill="white" stroke="black" paint-order="fill stroke markers" d=" M 1250.5748900859164 118.16886067220001 A 24.2577769005 24.2577769005 0 1 1 1250.574877957029 118.14460289934246 M 1200.6708440044165 144.6482252215 L 1249.1863978054164 144.6482252215" stroke-miterlimit="10" stroke-width="2.7769845610000004" stroke-dasharray=""/></g><g><g/><text fill="black" stroke="none" font-family="sans-serif" font-size="11pt" font-style="normal" font-weight="normal" text-decoration="normal" x="1196.1632206683266" y="162.371920802" text-anchor="start" dominant-baseline="alphabetic" xml:space="preserve">SpCache</text></g><g><path fill="white" stroke="black" paint-order="fill stroke markers" d=" M 1509.2853215419607 135.255483324 L 1509.2853215419607 100.95155639400002 L 1556.9841151779608 100.95155639400002 L 1556.9841151779608 135.255483324" stroke-miterlimit="10" stroke-width="2.7769845610000004" stroke-dasharray=""/><path fill="white" stroke="black" paint-order="fill stroke markers" d=" M 1556.9841151779608 99.75908655310002 L 1556.9829227180571 99.86689709801664 L 1556.979345457591 99.97469686196861 L 1556.9733837542856 100.08247506506937 L 1556.9650382043064 100.19022092958842 L 1556.9543096422012 100.2979236810291 L 1556.9411991408174 100.40557254920603 L 1556.925708011194 100.51315676932207 L 1556.9078378024315 100.62066558304487 L 1556.8875903015355 100.72808823958268 L 1556.8649675332392 100.83541399675931 L 1556.8399717598008 100.94263212208854 L 1556.812605480777 101.04973189384714 L 1556.7828714327723 101.1567026021472 L 1556.7507725891671 101.26353355000704 L 1556.716312159819 101.37021405442088 L 1556.6794935907421 101.4767334474272 L 1556.640320563763 101.58308107717545 L 1556.5987969961511 101.68924630899127 L 1556.5549270402291 101.79521852643998 L 1556.5087150829559 101.90098713238812 L 1556.4601657454884 102.00654155006325 L 1556.4092838827205 102.11187122411154 L 1556.3560745827954 102.21696562165339 L 1556.3005431665993 102.32181423333661 L 1556.2426951872274 102.4264065743874 L 1556.182536429429 102.53073218565882 L 1556.1200729090303 102.63478063467669 L 1556.0553108723313 102.7385415166828 L 1555.9882567954812 102.84200445567542 L 1555.9189173838322 102.94515910544688 L 1555.8472995712677 103.04799515061815 L 1555.773410519509 103.15050230767042 L 1555.6972576173998 103.2526703259734 L 1555.6188484801671 103.3544889888104 L 1555.5381909486591 103.4559481144 L 1555.4552930885616 103.55703755691417 L 1555.3701631895917 103.6577472074929 L 1555.2828097646684 103.75806699525508 L 1555.1932415490612 103.8579868883055 L 1555.101467499517 103.95749689473814 L 1555.0074967933647 104.05658706363529 L 1554.9113388275962 104.15524748606262 L 1554.8130032179279 104.25346829606012 L 1554.7124997978392 104.35123967162862 L 1554.609838617588 104.44855183571204 L 1554.5050299432069 104.54539505717509 L 1554.398084255476 104.6417596517763 L 1554.2890122488752 104.73763598313651 L 1554.1778248305138 104.83301446370251 L 1554.0645331190412 104.92788555570571 L 1553.9491484435343 105.02223977211597 L 1553.8316823423643 105.11606767759027 L 1553.7121465620435 105.20935988941625 L 1553.59055305605 105.30210707845049 L 1553.4669139836337 105.39429997005135 L 1553.3412417085983 105.48592934500653 L 1553.2135487980668 105.57698604045486 L 1553.083848021224 105.66746095080268 L 1552.952152348039 105.75734502863436 L 1552.8184749479697 105.84662928561703 L 1552.6828291886447 105.93530479339938 L 1552.545228634527 106.02336268450453 L 1552.405687045557 106.11079415321676 L 1552.2642183757778 106.19759045646204 L 1552.120836771938 106.28374291468239 L 1551.9755565720786 106.36924291270377 L 1551.828392304099 106.45408190059764 L 1551.6793586843028 106.5382513945359 L 1551.528470615928 106.62174297763931 L 1551.3757431876556 106.70454830081913 L 1551.2211916721012 106.78665908361204 L 1551.0648315242877 106.86806711500819 L 1550.9066783800995 106.94876425427228 L 1550.7467480547193 107.02874243175762 L 1550.585056541046 107.10799364971314 L 1550.4216200080966 107.18650998308306 L 1550.2564547993882 107.26428358029946 L 1550.089577431304 107.34130666406747 L 1549.9210045914415 107.41757153214289 L 1549.7507531369442 107.49307055810243 L 1549.578840092816 107.56779619210644 L 1549.4052826502182 107.6417409616538 L 1549.2300981647497 107.71489747232916 L 1549.0533041547137 107.7872584085424 L 1548.8749182993636 107.85881653426023 L 1548.6949584371364 107.9295646937297 L 1548.5134425638682 107.9994958121938 L 1548.3303888309954 108.06860289659899 L 1548.1458155437383 108.1368790362944 L 1547.9597411592722 108.20431740372297 L 1547.7721842848803 108.27091125510412 L 1547.5831636760936 108.33665393110826 L 1547.3926982348157 108.40153885752254 L 1547.2008070074319 108.46555954590839 L 1547.007509182905 108.52870959425034 L 1546.8128240908566 108.59098268759617 L 1546.6167711996334 108.65237259868843 L 1546.4193701143613 108.71287318858718 L 1546.2206405749841 108.77247840728386 L 1546.0206024542904 108.83118229430623 L 1545.8192757559254 108.88897897931456 L 1545.6166806123913 108.94586268268847 L 1545.4128372830337 109.00182771610504 L 1545.2077661520152 109.05686848310758 L 1545.0014877262786 109.11097947966525 L 1544.7940226334943 109.16415529472346 L 1544.5853916199985 109.21639061074505 L 1544.375615548719 109.26768020424194 L 1544.164715397088 109.31801894629751 L 1543.952712254945 109.36740180307952 L 1543.7396273224274 109.41582383634344 L 1543.525481907851 109.46328020392627 L 1543.3102974255787 109.50976616023082 L 1543.0940953938796 109.55527705670022 L 1542.8768974327763 109.5998083422827 L 1542.6587252618842 109.64335556388684 L 1542.4396006982388 109.68591436682678 L 1542.2195456541135 109.72748049525767 L 1541.9985821348293 109.7680497926013 L 1541.7767322365544 109.80761820196176 L 1541.5540181440933 109.84618176653109 L 1541.33046212867 109.88373662998495 L 1541.1060865456993 109.92027903686831 L 1540.880913832553 109.95580533297093 L 1540.6549665063146 109.99031196569278 L 1540.4282671615285 110.02379548439939 L 1540.20083846794 110.05625254076675 L 1539.9727031682294 110.08767988911629 L 1539.7438840757359 110.11807438673935 L 1539.5144040721786 110.14743299421153 L 1539.2842861053666 110.17575277569651 L 1539.0535531869045 110.20303089923975 L 1538.8222283898922 110.22926463705164 L 1538.5903348466163 110.25445136578027 L 1538.3578957462382 110.27858856677372 L 1538.1249343324741 110.30167382633203 L 1537.8914739012712 110.32370483594849 L 1537.6575377984782 110.34467939254047 L 1537.4231494175103 110.3645953986698 L 1537.1883321970104 110.38345086275248 L 1536.9531096185046 110.40124389925779 L 1536.717505204055 110.41797272889693 L 1536.4815425139068 110.43363567880087 L 1536.245245144132 110.44823118268765 L 1536.008636724271 110.46175778101907 L 1535.7717409149684 110.47421412114657 L 1535.534581405608 110.4855989574465 L 1535.2971819119427 110.49591115144473 L 1535.0595661737243 110.50514967193044 L 1534.8217579523287 110.5133135950593 L 1534.5837810283797 110.5204021044458 L 1534.3456591993713 110.52641449124488 L 1534.107416277288 110.53135015422289 L 1533.8690760862237 110.53520859981765 L 1533.6306624599986 110.53798944218781 L 1533.392199239777 110.53969240325145 L 1533.1537102716818 110.54031731271388 L 1532.9152194044113 110.53986410808467 L 1532.6767504868535 110.53833283468393 L 1532.4383273657013 110.5357236456377 L 1532.1999738830682 110.53203680186272 L 1531.961713874104 110.52727267204028 L 1531.7235711646106 110.52143173257942 L 1531.4855695686608 110.5145145675692 L 1531.247732886216 110.50652186872036 L 1531.010084900746 110.4974544352961 L 1530.7726493768516 110.48731317403227 L 1530.535450057887 110.47609909904648 L 1530.2985106635865 110.46381333173692 L 1530.061854887692 110.45045710067006 L 1529.8255063955844 110.4360317414579 L 1529.5894888219154 110.42053869662433 L 1529.3538257682458 110.40397951546092 L 1529.1185408006847 110.38635585387198 L 1528.8836574475326 110.367669474209 L 1528.6491991969294 110.34792224509437 L 1528.4151894945044 110.32711614123453 L 1528.1816517410332 110.30525324322254 L 1527.948609290096 110.28233573732997 L 1527.7160854457445 110.25836591528834 L 1527.4841034601686 110.23334617405986 L 1527.252686531374 110.2072790155978 L 1527.0218578008605 110.18016704659628 L 1526.7916403513088 110.15201297822964 L 1526.5620572042724 110.1228196258812 L 1526.3331313178742 110.09258990886192 L 1526.1048855845122 110.06132685011828 L 1525.8773428285695 110.0290335759301 L 1525.6505258041323 109.99571331559791 L 1525.4244571927136 109.96136940111997 L 1525.1991596009866 109.9260052668591 L 1524.9746555585227 109.88962444919923 L 1524.7509675155388 109.85223058619187 L 1524.5281178406528 109.81382741719212 L 1524.3061288186468 109.77441878248487 L 1524.0850226482376 109.73400862290077 L 1523.8648214398584 109.6926009794221 L 1523.645547213446 109.6501999927787 L 1523.4272218962408 109.60680990303389 L 1523.2098673205926 109.56243504916051 L 1522.9935052217775 109.51707986860694 L 1522.7781572358251 109.47074889685346 L 1522.5638448973548 109.42344676695863 L 1522.3505896374218 109.37517820909602 L 1522.1384127813742 109.3259480500812 L 1521.927335546721 109.27576121288904 L 1521.7173790410097 109.22462271616142 L 1521.5085642597157 109.17253767370543 L 1521.3009120841434 109.1195112939819 L 1521.0944432793372 109.0655488795846 L 1520.8891784920056 109.01065582671 L 1520.685138248456 108.95483762461768 L 1520.4823429525431 108.89809985508128 L 1520.2808128836275 108.84044819183053 L 1520.0805681945476 108.78188839998367 L 1519.8816289096062 108.7224263354711 L 1519.6840149225654 108.66206794444972 L 1519.4877459946595 108.60081926270831 L 1519.2928417526177 108.53868641506405 L 1519.0993216867016 108.47567561474989 L 1518.907205148757 108.41179316279337 L 1518.7165113502772 108.34704544738645 L 1518.5272593604832 108.2814389432467 L 1518.3394681044163 108.21498021096988 L 1518.1531563610456 108.14767589637383 L 1517.9683427613902 108.07953272983391 L 1517.7850457866562 108.01055752561001 L 1517.603283766388 107.94075718116505 L 1517.4230748766363 107.87013867647532 L 1517.24443713814 107.79870907333245 L 1517.0673884145242 107.72647551463722 L 1516.8919464105134 107.6534452236853 L 1516.7181286701618 107.57962550344493 L 1516.545952575099 107.50502373582663 L 1516.3754353427908 107.42964738094497 L 1516.206594024818 107.35350397637264 L 1516.0394455051721 107.27660113638665 L 1515.8740064985657 107.1989465512069 L 1515.7102935487617 107.12054798622721 L 1515.5483230269183 107.04141328123873 L 1515.388111129953 106.96155034964602 L 1515.2296738789219 106.8809671776757 L 1515.0730271174182 106.7996718235778 L 1514.9181865099872 106.71767241681998 L 1514.765167540561 106.63497715727459 L 1514.6139855109086 106.55159431439867 L 1514.4646555391073 106.46753222640703 L 1514.3171925580298 106.38279929943842 L 1514.1716113138514 106.29740400671491 L 1514.0279263645748 106.21135488769461 L 1513.8861520785756 106.12466054721774 L 1513.746302633164 106.03732965464607 L 1513.6083920131684 105.94937094299611 L 1513.4724340095354 105.8607932080657 L 1513.3384422179524 105.77160530755455 L 1513.2064300374866 105.68181616017836 L 1513.0764106692463 105.59143474477705 L 1512.9483971150598 105.50047009941686 L 1512.822402176176 105.40893132048649 L 1512.6984384519835 105.31682756178758 L 1512.5765183387518 105.22416803361924 L 1512.4566540283904 105.13096200185706 L 1512.3388575072304 105.03721878702656 L 1512.223140554826 104.94294776337108 L 1512.109514742776 104.84815835791446 L 1511.9979914335663 104.75286004951823 L 1511.8885817794358 104.65706236793383 L 1511.781296721258 104.56077489284957 L 1511.6761469874498 104.46400725293273 L 1511.5731430928968 104.36676912486666 L 1511.4722953379026 104.26907023238314 L 1511.3736138071583 104.17092034529 L 1511.2771083687355 104.07232927849415 L 1511.1827886730969 103.97330689102013 L 1511.090664152134 103.87386308502415 L 1511.0007440182217 103.77400780480394 L 1510.9130372632987 103.67375103580433 L 1510.8275526579675 103.57310280361865 L 1510.7442987506172 103.47207317298626 L 1510.6632838665694 103.37067224678601 L 1510.5845161072446 103.26891016502606 L 1510.5080033493532 103.16679710382974 L 1510.4337532441075 103.0643432744181 L 1510.3617732164557 102.96155892208871 L 1510.2920704643411 102.85845432519113 L 1510.2246519579805 102.75503979409915 L 1510.1595244391685 102.65132567017969 L 1510.0966944206027 102.5473223247587 L 1510.0361681852326 102.44304015808407 L 1509.9779517856311 102.33848959828556 L 1509.9220510433897 102.23368110033203 L 1509.8684715485363 102.12862514498595 L 1509.8172186589757 102.02333223775527 L 1509.7682974999536 101.91781290784299 L 1509.721712963546 101.81207770709416 L 1509.6774697081669 101.70613720894077 L 1509.6355721581056 101.60000200734433 L 1509.5960245030817 101.49368271573654 L 1509.5588306978282 101.387189965958 L 1509.5239944616942 101.2805344071949 L 1509.4915192782746 101.17372670491429 L 1509.4614083950605 101.06677753979733 L 1509.4336648231154 100.95969760667145 L 1509.408291336773 100.85249761344073 L 1509.385290473361 100.74518828001514 L 1509.3646645329466 100.63778033723861 L 1509.3464155781064 100.5302845258159 L 1509.330545433721 100.42271159523858 L 1509.3170556867915 100.31507230271008 L 1509.3059476862813 100.20737741206993 L 1509.2972225429812 100.09963769271747 L 1509.2908811293983 99.99186391853482 L 1509.2869240796686 99.88406686680962 L 1509.285351789494 99.77625731715719 L 1509.2861644161019 99.66844605044267 L 1509.2893618782305 99.56064384770288 L 1509.2949438561361 99.45286148906825 L 1509.3029097916258 99.34510975268485 L 1509.3132588881126 99.23739941363651 L 1509.3259901106953 99.12974124286738 L 1509.3411021862626 99.02214600610482 L 1509.358593603619 98.91462446278284 L 1509.3784626136378 98.80718736496618 L 1509.4007072294346 98.69984545627509 L 1509.425325226566 98.59260947081098 L 1509.452314143253 98.48549013208303 L 1509.4816712806264 98.37849815193587 L 1509.5133937029968 98.27164422947833 L 1509.5474782381486 98.16493905001363 L 1509.5839214776568 98.05839328397077 L 1509.6227197772275 97.9520175858376 L 1509.6638692570632 97.84582259309526 L 1509.7073658022503 97.73981892515455 L 1509.7532050631703 97.6340171822939 L 1509.8013824559355 97.52842794459946 L 1509.8518931628466 97.423061770907 L 1509.9047321328753 97.31792919774607 L 1509.9598940821684 97.21304073828638 L 1510.017373494577 97.10840688128647 L 1510.0771646222079 97.00403809004486 L 1510.1392614859978 96.89994480135368 L 1510.2036578763123 96.79613742445507 L 1510.270347353566 96.6926263400002 L 1510.3393232488668 96.58942189901128 L 1510.4105786646826 96.48653442184639 L 1510.4841064755312 96.38397419716749 L 1510.5598993286928 96.28175148091161 L 1510.6379496449454 96.17987649526519 L 1510.718249619322 96.07835942764187 L 1510.8007912218925 95.97721042966384 L 1510.8855661985654 95.8764396161466 L 1510.9725660719132 95.77605706408754 L 1511.0617821420217 95.67607281165819 L 1511.1532054873576 95.57649685720048 L 1511.246826965663 95.47733915822688 L 1511.3426372148683 95.37860963042466 L 1511.440626654028 95.28031814666433 L 1511.5407854842797 95.18247453601234 L 1511.643103689824 95.08508858274823 L 1511.747571038926 94.98817002538617 L 1511.8541770849374 94.89172855570112 L 1511.9629111673428 94.79577381775971 L 1512.0737624128242 94.70031540695574 L 1512.1867197363495 94.60536286905077 L 1512.3017718422805 94.51092569921943 L 1512.4189072255026 94.41701334110004 L 1512.5381141725752 94.32363518585014 L 1512.6593807629026 94.23080057120742 L 1512.782694869927 94.13851878055601 L 1512.9080441623405 94.04679904199807 L 1513.035416105318 93.955650527431 L 1513.164797961772 93.86508235163033 L 1513.296176793624 93.77510357133815 L 1513.4295394631006 93.68572318435751 L 1513.564872634046 93.59695012865262 L 1513.7021627732558 93.5087932814551 L 1513.8413961518306 93.42126145837616 L 1513.9825588465485 93.33436341252519 L 1514.1256367412577 93.24810783363438 L 1514.2706155282879 93.1625033471897 L 1514.4174807098811 93.07755851356848 L 1514.5662175996417 92.9932818271833 L 1514.7168113240048 92.90968171563254 L 1514.869246823723 92.82676653885773 L 1515.0235088553738 92.74454458830742 L 1515.1795819928825 92.66302408610815 L 1515.3374506290654 92.58221318424222 L 1515.4970989771903 92.50211996373247 L 1515.6585110725555 92.4227524338342 L 1515.8216707740858 92.34411853123427 L 1515.9865617659475 92.26622611925741 L 1516.1531675591784 92.1890829870799 L 1516.321471493338 92.11269684895069 L 1516.4914567381734 92.0370753434199 L 1516.6631062953018 91.9622260325751 L 1516.83640299991 91.888156401285 L 1517.0113295224726 91.81487385645099 L 1517.1878683704826 91.74238572626649 L 1517.3660018902028 91.67069925948411 L 1517.5457122684293 91.59982162469079 L 1517.7269815342743 91.52975990959095 L 1517.909791560962 91.4605211202977 L 1518.0941240676423 91.3921121806323 L 1518.279960621218 91.32453993143167 L 1518.4672826381884 91.25781112986445 L 1518.6560713865085 91.1919324487552 L 1518.8463079874602 91.12691047591709 L 1519.0379734175424 91.06275171349324 L 1519.2310485103715 90.99946257730645 L 1519.4255139585991 90.93704939621756 L 1519.6213503158426 90.87551841149269 L 1519.8185379986296 90.81487577617904 L 1520.0170572883558 90.75512755448958 L 1520.2168883332577 90.69627972119672 L 1520.4180111503977 90.63833816103474 L 1520.6204056276613 90.58130866811136 L 1520.8240515257694 90.52519694532836 L 1521.0289284803023 90.47000860381125 L 1521.235016003735 90.41574916234819 L 1521.442293487487 90.36242404683813 L 1521.6507402039824 90.31003858974816 L 1521.8603353087235 90.25859802958036 L 1522.0710578423746 90.20810751034786 L 1522.2828867328576 90.1585720810605 L 1522.49580079746 90.10999669521995 L 1522.7097787449532 90.0623862103243 L 1522.9247991777204 90.01574538738238 L 1523.1408405938976 89.9700788904376 L 1523.3578813895233 89.92539128610161 L 1523.5758998606984 89.88168704309761 L 1523.794874205758 89.83897053181346 L 1524.0147825274498 89.79724602386472 L 1524.235602835125 89.75651769166738 L 1524.4573130469366 89.71678960802075 L 1524.6798909920485 89.67806574570005 L 1524.9033144128516 89.64034997705929 L 1525.1275609671898 89.60364607364387 L 1525.3526082305948 89.56795770581357 L 1525.5784336985275 89.53328844237541 L 1525.8050147886295 89.49964175022686 L 1526.0323288429806 89.46702099400908 L 1526.2603531303648 89.43542943577052 L 1526.4890648485432 89.40487023464067 L 1526.7184411265348 89.37534644651419 L 1526.9484590269028 89.34686102374526 L 1527.179095548049 89.31941681485246 L 1527.4103276265134 89.29301656423378 L 1527.6421321392809 89.2676629118923 L 1527.8744859060932 89.2433583931721 L 1528.1073656917674 89.22010543850483 L 1528.340748208519 89.19790637316656 L 1528.5746101182906 89.17676341704532 L 1528.8089280350864 89.15667868441913 L 1529.04367852731 89.13765418374449 L 1529.2788381201076 89.11969181745562 L 1529.514383297716 89.10279338177418 L 1529.7502905058136 89.08696056652965 L 1529.9865361538764 89.0721949549904 L 1530.2230966175362 89.05849802370521 L 1530.459948240944 89.04587114235585 L 1530.6970673391345 89.03431557361992 L 1530.934430200396 89.02383247304465 L 1531.1720130886397 89.01442288893136 L 1531.4097922457752 89.00608776223065 L 1531.6477438940844 88.99882792644821 L 1531.8858442386013 88.9926441075616 L 1532.1240694694893 88.98753692394752 L 1532.3623957644243 88.9835068863201 L 1532.6007992909754 88.98055439767974 L 1532.8392562089882 88.97867975327284 L 1533.07774267297 88.97788314056228 L 1533.316234834473 88.97816463920867 L 1533.55470884448 88.97952422106238 L 1533.7931408557884 88.98196175016635 L 1534.0315070253957 88.98547698276971 L 1534.2697835168842 88.99006956735212 L 1534.5079465028025 88.99573904465896 L 1534.7459721670511 89.00248484774721 L 1534.9838367072616 89.0103063020422 L 1535.2215163371784 89.019202625405 L 1535.4589872890363 89.0291729282107 L 1535.6962258159383 89.04021621343732 L 1535.9332081942293 89.05233137676555 L 1536.169910725869 89.06551720668914 L 1536.4063097408011 89.0797723846361 L 1536.6423815993217 89.0950954851005 L 1536.8781026944414 89.11148497578507 L 1537.113449454247 89.12893921775441 L 1537.3483983442588 89.14745646559885 L 1537.5829258697838 89.16703486760905 L 1537.8170085782644 89.18767246596111 L 1538.0506230616252 89.20936719691241 L 1538.2837459586124 89.23211689100792 L 1538.5163539571304 89.2559192732972 L 1538.7484237965734 89.28077196356185 L 1538.979932270151 89.30667247655354 L 1539.2108562272083 89.33361822224259 L 1539.4411725755426 89.36160650607685 L 1539.6708582837105 89.39063452925127 L 1539.8998903833328 89.42069938898774 L 1540.1282459713905 89.45179807882532 L 1540.355902212515 89.48392748892095 L 1540.5828363412718 89.5170844063604 L 1540.8090256644373 89.55126551547954 L 1541.0344475632673 89.58646739819596 L 1541.2590794957605 89.62268653435072 L 1541.48289899891 89.65991930206037 L 1541.7058836909525 89.69816197807918 L 1541.9280112736046 89.73741073817143 L 1542.1492595342932 89.7776616574938 L 1542.3696063483762 89.8189107109879 L 1542.5890296813561 89.86115377378276 L 1542.8075075910826 89.9043866216073 L 1543.0250182299465 89.94860493121277 L 1543.2415398470653 89.99380428080505 L 1543.4570507904577 90.03998015048685 L 1543.671529509209 90.0871279227097 L 1543.8849545556259 90.13524288273562 L 1544.0973045873818 90.18432021910876 L 1544.3085583696504 90.23435502413635 L 1544.5186947772297 90.28534229437957 L 1544.7276927966539 90.33727693115392 L 1544.9355315282949 90.39015374103897 L 1545.1421901884532 90.44396743639781 L 1545.3476481114349 90.49871263590576 L 1545.551884751619 90.55438386508847 L 1545.7548796855112 90.6109755568694 L 1545.956612613788 90.66848205212658 L 1546.157063363324 90.72689760025837 L 1546.3562118892116 90.78621635975864 L 1546.5540382767642 90.84643239880089 L 1546.7505227435079 90.90753969583137 L 1546.9456456411594 90.96953214017132 L 1547.1393874575922 91.03240353262795 L 1547.3317288187857 91.09614758611443 L 1547.5226504907641 91.1607579262785 L 1547.7121333815194 91.22622809214002 L 1547.9001585429203 91.29255153673692 L 1548.0867071726072 91.35972162778006 L 1548.271760615873 91.42773164831627 L 1548.4553003675273 91.49657479740019 L 1548.637308073748 91.56624419077427 L 1548.817765533916 91.63673286155725 L 1548.9966547024358 91.70803376094076 L 1549.1739576905397 91.78013975889431 L 1549.3496567680763 91.85304364487818 L 1549.5237343652848 91.92673812856452 L 1549.69617307455 92.00121584056639 L 1549.866955652145 92.07646933317463 L 1550.0360650199543 92.15249108110271 L 1550.203484267182 92.22927348223918 L 1550.3691966520428 92.3068088584079 L 1550.5331856034366 92.3850894561359 L 1550.6954347226044 92.4641074474286 L 1550.85592778477 92.54385493055275 L 1551.0146487407608 92.62432393082648 L 1551.1715817186134 92.70550640141681 L 1551.3267110251609 92.78739422414436 L 1551.4800211476015 92.86997921029509 L 1551.6314967550513 92.95325310143917 L 1551.7811227000755 93.03720757025692 L 1551.9288840202044 93.12183422137142 L 1552.0747659394287 93.20712459218805 L 1552.2187538696787 93.29307015374081 L 1552.360833412281 93.3796623115452 L 1552.5009903593996 93.46689240645757 L 1552.6392106954568 93.55475171554113 L 1552.7754805985342 93.64323145293818 L 1552.909786441755 93.73232277074871 L 1553.0421147946467 93.8220167599152 L 1553.1724524244844 93.91230445111346 L 1553.3007862976137 94.00317681564962 L 1553.4271035807544 94.09462476636294 L 1553.551391642283 94.18663915853458 L 1553.6736380534976 94.27921079080198 L 1553.7938305898583 94.37233040607906 L 1553.9119572322118 94.46598869248189 L 1554.0280061679925 94.56017628425988 L 1554.1419657924034 94.65488376273235 L 1554.253824709577 94.75010165723037 L 1554.363571733715 94.84582044604385 L 1554.471195890206 94.94203055737364 L 1554.5766864167244 95.03872237028881 L 1554.6800327643057 95.13588621568863 L 1554.7812245984005 95.23351237726953 L 1554.8802517999104 95.33159109249674 L 1554.9771044661975 95.43011255358043 L 1555.0717729120759 95.5290669084566 L 1555.1642476707798 95.62844426177223 L 1555.2545194949105 95.72823467587482 L 1555.3425793573608 95.82842817180608 L 1555.428418452218 95.92901473029994 L 1555.5120281956438 96.02998429278436 L 1555.5934002267338 96.13132676238725 L 1555.6725264083527 96.23303200494607 L 1555.7493988279482 96.33508985002135 L 1555.8240097983423 96.4374900919136 L 1555.8963518585003 96.54022249068399 L 1555.9664177742766 96.64327677317824 L 1556.0342005391376 96.746642634054 L 1556.0996933748636 96.85030973681128 L 1556.1628897322255 96.95426771482623 L 1556.22378329164 97.05850617238767 L 1556.2823679638027 97.1630146857367 L 1556.3386378902942 97.26778280410907 L 1556.3925874441695 97.37280005078027 L 1556.4442112305176 97.47805592411314 L 1556.4935040870034 97.58353989860805 L 1556.5404610843818 97.68924142595546 L 1556.5850775269928 97.79514993609072 L 1556.6273489532289 97.90125483825108 L 1556.6672711359827 98.00754552203473 L 1556.7048400830693 98.11401135846187 L 1556.7400520376254 98.22064170103758 L 1556.7729034784847 98.32742588681647 L 1556.8033911205305 98.43435323746894 L 1556.8315119150243 98.54141306034904 L 1556.8572630499098 98.64859464956368 L 1556.8806419500947 98.75588728704328 L 1556.9016462777092 98.86328024361347 L 1556.9202739323373 98.97076278006811 L 1556.9365230512296 99.07832414824313 L 1556.9503920094876 99.18595359209134 L 1556.9618794202268 99.29364034875802 L 1556.970984134716 99.40137364965727 L 1556.977705242491 99.50914272154878 L 1556.9820420714473 99.61693678761516 L 1556.9839941879047 99.72474506853963 M 1556.9841151779608 134.0630134831 L 1556.9829227180571 134.17082402801663 L 1556.979345457591 134.2786237919686 L 1556.9733837542856 134.38640199506935 L 1556.9650382043064 134.49414785958842 L 1556.9543096422012 134.60185061102908 L 1556.9411991408174 134.70949947920602 L 1556.925708011194 134.81708369932204 L 1556.9078378024315 134.92459251304487 L 1556.8875903015355 135.03201516958265 L 1556.8649675332392 135.1393409267593 L 1556.8399717598008 135.24655905208851 L 1556.812605480777 135.35365882384713 L 1556.7828714327723 135.46062953214718 L 1556.7507725891671 135.56746048000701 L 1556.716312159819 135.67414098442086 L 1556.6794935907421 135.78066037742718 L 1556.640320563763 135.88700800717544 L 1556.5987969961511 135.99317323899126 L 1556.5549270402291 136.09914545643997 L 1556.5087150829559 136.2049140623881 L 1556.4601657454884 136.31046848006324 L 1556.4092838827205 136.41579815411154 L 1556.3560745827954 136.5208925516534 L 1556.3005431665993 136.62574116333658 L 1556.2426951872274 136.7303335043874 L 1556.182536429429 136.8346591156588 L 1556.1200729090303 136.9387075646767 L 1556.0553108723313 137.0424684466828 L 1555.9882567954812 137.14593138567542 L 1555.9189173838322 137.24908603544688 L 1555.8472995712677 137.35192208061815 L 1555.773410519509 137.4544292376704 L 1555.6972576173998 137.5565972559734 L 1555.6188484801671 137.6584159188104 L 1555.5381909486591 137.7598750444 L 1555.4552930885616 137.86096448691416 L 1555.3701631895917 137.96167413749288 L 1555.2828097646684 138.06199392525505 L 1555.1932415490612 138.1619138183055 L 1555.101467499517 138.26142382473813 L 1555.0074967933647 138.3605139936353 L 1554.9113388275962 138.4591744160626 L 1554.8130032179279 138.5573952260601 L 1554.7124997978392 138.6551666016286 L 1554.609838617588 138.75247876571203 L 1554.5050299432069 138.84932198717507 L 1554.398084255476 138.94568658177627 L 1554.2890122488752 139.04156291313652 L 1554.1778248305138 139.1369413937025 L 1554.0645331190412 139.2318124857057 L 1553.9491484435343 139.32616670211596 L 1553.8316823423643 139.41999460759027 L 1553.7121465620435 139.51328681941624 L 1553.59055305605 139.60603400845048 L 1553.4669139836337 139.69822690005134 L 1553.3412417085983 139.7898562750065 L 1553.2135487980668 139.88091297045483 L 1553.083848021224 139.97138788080267 L 1552.952152348039 140.06127195863436 L 1552.8184749479697 140.15055621561703 L 1552.6828291886447 140.23923172339937 L 1552.545228634527 140.3272896145045 L 1552.405687045557 140.41472108321673 L 1552.2642183757778 140.501517386462 L 1552.120836771938 140.58766984468238 L 1551.9755565720786 140.67316984270377 L 1551.828392304099 140.75800883059765 L 1551.6793586843028 140.8421783245359 L 1551.528470615928 140.9256699076393 L 1551.3757431876556 141.00847523081913 L 1551.2211916721012 141.09058601361204 L 1551.0648315242877 141.17199404500818 L 1550.9066783800995 141.25269118427227 L 1550.7467480547193 141.3326693617576 L 1550.585056541046 141.41192057971313 L 1550.4216200080966 141.49043691308304 L 1550.2564547993882 141.56821051029945 L 1550.089577431304 141.64523359406746 L 1549.9210045914415 141.72149846214288 L 1549.7507531369442 141.79699748810242 L 1549.578840092816 141.87172312210643 L 1549.4052826502182 141.94566789165378 L 1549.2300981647497 142.01882440232913 L 1549.0533041547137 142.0911853385424 L 1548.8749182993636 142.16274346426022 L 1548.6949584371364 142.2334916237297 L 1548.5134425638682 142.3034227421938 L 1548.3303888309954 142.372529826599 L 1548.1458155437383 142.4408059662944 L 1547.9597411592722 142.50824433372296 L 1547.7721842848803 142.5748381851041 L 1547.5831636760936 142.64058086110825 L 1547.3926982348157 142.70546578752254 L 1547.2008070074319 142.7694864759084 L 1547.007509182905 142.83263652425032 L 1546.8128240908566 142.89490961759617 L 1546.6167711996334 142.95629952868842 L 1546.4193701143613 143.01680011858718 L 1546.2206405749841 143.07640533728383 L 1546.0206024542904 143.13510922430623 L 1545.8192757559254 143.19290590931453 L 1545.6166806123913 143.24978961268846 L 1545.4128372830337 143.30575464610504 L 1545.2077661520152 143.36079541310758 L 1545.0014877262786 143.41490640966524 L 1544.7940226334943 143.46808222472345 L 1544.5853916199985 143.52031754074505 L 1544.375615548719 143.57160713424193 L 1544.164715397088 143.6219458762975 L 1543.952712254945 143.67132873307952 L 1543.7396273224274 143.71975076634342 L 1543.525481907851 143.76720713392626 L 1543.3102974255787 143.81369309023083 L 1543.0940953938796 143.8592039867002 L 1542.8768974327763 143.9037352722827 L 1542.6587252618842 143.94728249388683 L 1542.4396006982388 143.98984129682677 L 1542.2195456541135 144.03140742525764 L 1541.9985821348293 144.07197672260128 L 1541.7767322365544 144.11154513196175 L 1541.5540181440933 144.15010869653108 L 1541.33046212867 144.18766355998494 L 1541.1060865456993 144.2242059668683 L 1540.880913832553 144.2597322629709 L 1540.6549665063146 144.29423889569279 L 1540.4282671615285 144.32772241439937 L 1540.20083846794 144.36017947076672 L 1539.9727031682294 144.39160681911628 L 1539.7438840757359 144.42200131673934 L 1539.5144040721786 144.45135992421152 L 1539.2842861053666 144.4796797056965 L 1539.0535531869045 144.50695782923975 L 1538.8222283898922 144.53319156705163 L 1538.5903348466163 144.55837829578024 L 1538.3578957462382 144.5825154967737 L 1538.1249343324741 144.60560075633202 L 1537.8914739012712 144.62763176594848 L 1537.6575377984782 144.64860632254045 L 1537.4231494175103 144.66852232866978 L 1537.1883321970104 144.68737779275247 L 1536.9531096185046 144.70517082925778 L 1536.717505204055 144.72189965889692 L 1536.4815425139068 144.73756260880086 L 1536.245245144132 144.75215811268765 L 1536.008636724271 144.76568471101908 L 1535.7717409149684 144.77814105114655 L 1535.534581405608 144.7895258874465 L 1535.2971819119427 144.7998380814447 L 1535.0595661737243 144.80907660193043 L 1534.8217579523287 144.8172405250593 L 1534.5837810283797 144.82432903444578 L 1534.3456591993713 144.83034142124487 L 1534.107416277288 144.83527708422287 L 1533.8690760862237 144.83913552981764 L 1533.6306624599986 144.8419163721878 L 1533.392199239777 144.84361933325144 L 1533.1537102716818 144.84424424271387 L 1532.9152194044113 144.84379103808467 L 1532.6767504868535 144.84225976468392 L 1532.4383273657013 144.83965057563768 L 1532.1999738830682 144.8359637318627 L 1531.961713874104 144.83119960204027 L 1531.7235711646106 144.82535866257942 L 1531.4855695686608 144.81844149756918 L 1531.247732886216 144.81044879872033 L 1531.010084900746 144.8013813652961 L 1530.7726493768516 144.79124010403225 L 1530.535450057887 144.78002602904647 L 1530.2985106635865 144.7677402617369 L 1530.061854887692 144.75438403067005 L 1529.8255063955844 144.73995867145788 L 1529.5894888219154 144.72446562662432 L 1529.3538257682458 144.7079064454609 L 1529.1185408006847 144.69028278387196 L 1528.8836574475326 144.671596404209 L 1528.6491991969294 144.65184917509436 L 1528.4151894945044 144.6310430712345 L 1528.1816517410332 144.6091801732225 L 1527.948609290096 144.58626266732998 L 1527.7160854457445 144.56229284528834 L 1527.4841034601686 144.53727310405984 L 1527.252686531374 144.5112059455978 L 1527.0218578008605 144.48409397659628 L 1526.7916403513088 144.45593990822962 L 1526.5620572042724 144.4267465558812 L 1526.3331313178742 144.3965168388619 L 1526.1048855845122 144.36525378011828 L 1525.8773428285695 144.3329605059301 L 1525.6505258041323 144.2996402455979 L 1525.4244571927136 144.26529633111994 L 1525.1991596009866 144.22993219685907 L 1524.9746555585227 144.19355137919922 L 1524.7509675155388 144.15615751619185 L 1524.5281178406528 144.1177543471921 L 1524.3061288186468 144.07834571248486 L 1524.0850226482376 144.03793555290076 L 1523.8648214398584 143.9965279094221 L 1523.645547213446 143.9541269227787 L 1523.4272218962408 143.9107368330339 L 1523.2098673205926 143.8663619791605 L 1522.9935052217775 143.82100679860693 L 1522.7781572358251 143.77467582685347 L 1522.5638448973548 143.72737369695864 L 1522.3505896374218 143.679105139096 L 1522.1384127813742 143.62987498008118 L 1521.927335546721 143.579688142889 L 1521.7173790410097 143.52854964616142 L 1521.5085642597157 143.4764646037054 L 1521.3009120841434 143.4234382239819 L 1521.0944432793372 143.36947580958457 L 1520.8891784920056 143.31458275671 L 1520.685138248456 143.25876455461767 L 1520.4823429525431 143.20202678508127 L 1520.2808128836275 143.1443751218305 L 1520.0805681945476 143.08581532998366 L 1519.8816289096062 143.02635326547107 L 1519.6840149225654 142.9659948744497 L 1519.4877459946595 142.9047461927083 L 1519.2928417526177 142.84261334506402 L 1519.0993216867016 142.77960254474988 L 1518.907205148757 142.71572009279336 L 1518.7165113502772 142.65097237738644 L 1518.5272593604832 142.5853658732467 L 1518.3394681044163 142.51890714096987 L 1518.1531563610456 142.4516028263738 L 1517.9683427613902 142.3834596598339 L 1517.7850457866562 142.31448445561 L 1517.603283766388 142.24468411116504 L 1517.4230748766363 142.17406560647532 L 1517.24443713814 142.10263600333244 L 1517.0673884145242 142.03040244463722 L 1516.8919464105134 141.9573721536853 L 1516.7181286701618 141.88355243344492 L 1516.545952575099 141.80895066582661 L 1516.3754353427908 141.73357431094496 L 1516.206594024818 141.65743090637264 L 1516.0394455051721 141.58052806638665 L 1515.8740064985657 141.5028734812069 L 1515.7102935487617 141.42447491622718 L 1515.5483230269183 141.34534021123872 L 1515.388111129953 141.265477279646 L 1515.2296738789219 141.1848941076757 L 1515.0730271174182 141.10359875357778 L 1514.9181865099872 141.02159934681995 L 1514.765167540561 140.93890408727458 L 1514.6139855109086 140.85552124439866 L 1514.4646555391073 140.77145915640702 L 1514.3171925580298 140.68672622943842 L 1514.1716113138514 140.6013309367149 L 1514.0279263645748 140.5152818176946 L 1513.8861520785756 140.42858747721772 L 1513.746302633164 140.34125658464606 L 1513.6083920131684 140.2532978729961 L 1513.4724340095354 140.1647201380657 L 1513.3384422179524 140.07553223755454 L 1513.2064300374866 139.98574309017835 L 1513.0764106692463 139.89536167477704 L 1512.9483971150598 139.80439702941683 L 1512.822402176176 139.71285825048648 L 1512.6984384519835 139.62075449178758 L 1512.5765183387518 139.52809496361922 L 1512.4566540283904 139.43488893185705 L 1512.3388575072304 139.34114571702654 L 1512.223140554826 139.24687469337107 L 1512.109514742776 139.15208528791445 L 1511.9979914335663 139.05678697951822 L 1511.8885817794358 138.96098929793382 L 1511.781296721258 138.86470182284955 L 1511.6761469874498 138.76793418293272 L 1511.5731430928968 138.67069605486665 L 1511.4722953379026 138.57299716238313 L 1511.3736138071583 138.47484727529 L 1511.2771083687355 138.37625620849414 L 1511.1827886730969 138.27723382102013 L 1511.090664152134 138.17779001502413 L 1511.0007440182217 138.07793473480393 L 1510.9130372632987 137.9776779658043 L 1510.8275526579675 137.87702973361863 L 1510.7442987506172 137.77600010298625 L 1510.6632838665694 137.67459917678602 L 1510.5845161072446 137.57283709502605 L 1510.5080033493532 137.47072403382973 L 1510.4337532441075 137.3682702044181 L 1510.3617732164557 137.26548585208872 L 1510.2920704643411 137.16238125519112 L 1510.2246519579805 137.05896672409915 L 1510.1595244391685 136.95525260017968 L 1510.0966944206027 136.8512492547587 L 1510.0361681852326 136.74696708808406 L 1509.9779517856311 136.64241652828557 L 1509.9220510433897 136.53760803033202 L 1509.8684715485363 136.43255207498592 L 1509.8172186589757 136.32725916775524 L 1509.7682974999536 136.22173983784296 L 1509.721712963546 136.11600463709416 L 1509.6774697081669 136.01006413894075 L 1509.6355721581056 135.90392893734432 L 1509.5960245030817 135.79760964573654 L 1509.5588306978282 135.69111689595798 L 1509.5239944616942 135.5844613371949 L 1509.4915192782746 135.47765363491428 L 1509.4614083950605 135.37070446979732 L 1509.4336648231154 135.26362453667144 L 1509.408291336773 135.15642454344072 L 1509.385290473361 135.04911521001512 L 1509.3646645329466 134.9417072672386 L 1509.3464155781064 134.83421145581588 L 1509.330545433721 134.72663852523857 L 1509.3170556867915 134.61899923271008 L 1509.3059476862813 134.5113043420699 L 1509.2972225429812 134.40356462271745 L 1509.2908811293983 134.2957908485348 L 1509.2869240796686 134.1879937968096 L 1509.285351789494 134.08018424715718" stroke-miterlimit="10" stroke-width="2.7769845610000004" stroke-dasharray=""/></g><g><g/><text fill="black" stroke="none" font-family="sans-serif" font-size="11pt" font-style="normal" font-weight="normal" text-decoration="normal" x="1492.7911362066404" y="162.371920802" text-anchor="start" dominant-baseline="alphabetic" xml:space="preserve">SpDatabase</text></g><g><path fill="white" stroke="black" paint-order="fill stroke markers" d=" M 1681.8710316233514 120.39044832100001 A 24.2577769005 24.2577769005 0 1 1 1681.871019494464 120.36619054814246 M 1618.4087668028515 94.74417914 L 1618.4087668028515 146.03671750200002 M 1617.0202745223514 120.39044832100001 L 1633.3554778223515 120.39044832100001" stroke-miterlimit="10" stroke-width="2.7769845610000004" stroke-dasharray=""/></g><g><g/><text fill="black" stroke="none" font-family="sans-serif" font-size="11pt" font-style="normal" font-weight="normal" text-decoration="normal" x="1614.8107348599608" y="162.371920802" text-anchor="start" dominant-baseline="alphabetic" xml:space="preserve">HopperApi</text></g></g><g><path fill="white" stroke="black" paint-order="fill stroke markers" d=" M 55.429564540625 175.440083442 L 71.764767840625 175.440083442 L 71.764767840625 1789.358169482 L 55.429564540625 1789.358169482 L 55.429564540625 175.440083442" stroke-miterlimit="10" stroke-width="1.3612669416666667" stroke-dasharray=""/><path fill="white" stroke="black" paint-order="fill stroke markers" d=" M 162.48411293339842 175.440083442 L 178.8193162333984 175.440083442 L 178.8193162333984 1789.358169482 L 162.48411293339842 1789.358169482 L 162.48411293339842 175.440083442" stroke-miterlimit="10" stroke-width="1.3612669416666667" stroke-dasharray=""/><path fill="white" stroke="black" paint-order="fill stroke markers" d=" M 1641.2780514228514 175.440083442 L 1657.6132547228515 175.440083442 L 1657.6132547228515 1789.358169482 L 1641.2780514228514 1789.358169482 L 1641.2780514228514 175.440083442" stroke-miterlimit="10" stroke-width="1.3612669416666667" stroke-dasharray=""/><path fill="white" stroke="black" paint-order="fill stroke markers" d=" M 302.9891142599609 221.178652682 L 319.3243175599609 221.178652682 L 319.3243175599609 1748.5201612320002 L 302.9891142599609 1748.5201612320002 L 302.9891142599609 221.178652682" stroke-miterlimit="10" stroke-width="1.3612669416666667" stroke-dasharray=""/><path fill="white" stroke="black" paint-order="fill stroke markers" d=" M 707.9958808643879 266.917221922 L 724.331084164388 266.917221922 L 724.331084164388 699.8001093719998 L 707.9958808643879 699.8001093719998 L 707.9958808643879 266.917221922" stroke-miterlimit="10" stroke-width="1.3612669416666667" stroke-dasharray=""/><path fill="white" stroke="black" paint-order="fill stroke markers" d=" M 1218.1495115354164 358.394360402 L 1234.4847148354165 358.394360402 L 1234.4847148354165 448.237978552 L 1218.1495115354164 448.237978552 L 1218.1495115354164 358.394360402" stroke-miterlimit="10" stroke-width="1.3612669416666667" stroke-dasharray=""/><path fill="white" stroke="black" paint-order="fill stroke markers" d=" M 1218.1495115354164 492.343027462 L 1234.4847148354165 492.343027462 L 1234.4847148354165 629.5587351819999 L 1218.1495115354164 629.5587351819999 L 1218.1495115354164 492.343027462" stroke-miterlimit="10" stroke-width="1.3612669416666667" stroke-dasharray=""/><path fill="white" stroke="black" paint-order="fill stroke markers" d=" M 1524.9671167099607 538.081596702 L 1541.3023200099608 538.081596702 L 1541.3023200099608 583.8201659419999 L 1524.9671167099607 583.8201659419999 L 1524.9671167099607 538.081596702" stroke-miterlimit="10" stroke-width="1.3612669416666667" stroke-dasharray=""/><path fill="white" stroke="black" paint-order="fill stroke markers" d=" M 833.9265889251301 745.5386786119998 L 850.2617922251302 745.5386786119998 L 850.2617922251302 1132.6829968219995 L 833.9265889251301 1132.6829968219995 L 833.9265889251301 745.5386786119998" stroke-miterlimit="10" stroke-width="1.3612669416666667" stroke-dasharray=""/><path fill="white" stroke="black" paint-order="fill stroke markers" d=" M 1218.1495115354164 791.2772478519997 L 1234.4847148354165 791.2772478519997 L 1234.4847148354165 881.1208660019996 L 1218.1495115354164 881.1208660019996 L 1218.1495115354164 791.2772478519997" stroke-miterlimit="10" stroke-width="1.3612669416666667" stroke-dasharray=""/><path fill="white" stroke="black" paint-order="fill stroke markers" d=" M 1218.1495115354164 925.2259149119996 L 1234.4847148354165 925.2259149119996 L 1234.4847148354165 1062.4416226319995 L 1218.1495115354164 1062.4416226319995 L 1218.1495115354164 925.2259149119996" stroke-miterlimit="10" stroke-width="1.3612669416666667" stroke-dasharray=""/><path fill="white" stroke="black" paint-order="fill stroke markers" d=" M 1524.9671167099607 970.9644841519995 L 1541.3023200099608 970.9644841519995 L 1541.3023200099608 1016.7030533919994 L 1524.9671167099607 1016.7030533919994 L 1524.9671167099607 970.9644841519995" stroke-miterlimit="10" stroke-width="1.3612669416666667" stroke-dasharray=""/><path fill="white" stroke="black" paint-order="fill stroke markers" d=" M 984.7176943247395 1178.4215660619996 L 1001.0528976247396 1178.4215660619996 L 1001.0528976247396 1565.565884272 L 984.7176943247395 1565.565884272 L 984.7176943247395 1178.4215660619996" stroke-miterlimit="10" stroke-width="1.3612669416666667" stroke-dasharray=""/><path fill="white" stroke="black" paint-order="fill stroke markers" d=" M 1218.1495115354164 1224.1601353019996 L 1234.4847148354165 1224.1601353019996 L 1234.4847148354165 1314.0037534519997 L 1218.1495115354164 1314.0037534519997 L 1218.1495115354164 1224.1601353019996" stroke-miterlimit="10" stroke-width="1.3612669416666667" stroke-dasharray=""/><path fill="white" stroke="black" paint-order="fill stroke markers" d=" M 1218.1495115354164 1358.1088023619998 L 1234.4847148354165 1358.1088023619998 L 1234.4847148354165 1495.324510082 L 1218.1495115354164 1495.324510082 L 1218.1495115354164 1358.1088023619998" stroke-miterlimit="10" stroke-width="1.3612669416666667" stroke-dasharray=""/><path fill="white" stroke="black" paint-order="fill stroke markers" d=" M 1524.9671167099607 1403.8473716019998 L 1541.3023200099608 1403.8473716019998 L 1541.3023200099608 1449.585940842 L 1524.9671167099607 1449.585940842 L 1524.9671167099607 1403.8473716019998" stroke-miterlimit="10" stroke-width="1.3612669416666667" stroke-dasharray=""/><path fill="white" stroke="black" paint-order="fill stroke markers" d=" M 579.6278101327473 1611.304453512 L 595.9630134327474 1611.304453512 L 595.9630134327474 1657.043022752 L 579.6278101327473 1657.043022752 L 579.6278101327473 1611.304453512" stroke-miterlimit="10" stroke-width="1.3612669416666667" stroke-dasharray=""/><g><text fill="black" stroke="none" font-family="sans-serif" font-size="11pt" font-style="normal" font-weight="normal" text-decoration="normal" x="137.66686567187497" y="214.644571362" text-anchor="start" dominant-baseline="alphabetic" xml:space="preserve">Message event</text></g><g><path fill="none" stroke="black" paint-order="fill stroke markers" d=" M 71.764767840625 221.178652682 L 300.2665803766276 221.178652682" stroke-miterlimit="10" stroke-width="1.3612669416666667" stroke-dasharray=""/><g transform="translate(302.9891142599609,221.178652682) translate(-302.9891142599609,-221.178652682)"><path fill="none" stroke="black" paint-order="fill stroke markers" d=" M 289.3764448432942 214.37231797366667 L 301.62784731829424 221.178652682 L 289.3764448432942 227.98498739033334" stroke-miterlimit="10" stroke-width="1.3612669416666667"/></g></g><g><text fill="black" stroke="none" font-family="sans-serif" font-size="11pt" font-style="normal" font-weight="normal" text-decoration="normal" x="466.4052774348306" y="260.383140602" text-anchor="start" dominant-baseline="alphabetic" xml:space="preserve">Get user by ID</text></g><g><path fill="none" stroke="black" paint-order="fill stroke markers" d=" M 319.3243175599609 266.917221922 L 705.2733469810546 266.917221922" stroke-miterlimit="10" stroke-width="1.3612669416666667" stroke-dasharray=""/><g transform="translate(707.9958808643879,266.917221922) translate(-707.9958808643879,-266.917221922)"><path fill="none" stroke="black" paint-order="fill stroke markers" d=" M 694.3832114477212 260.1108872136667 L 706.6346139227212 266.917221922 L 694.3832114477212 273.72355663033335" stroke-miterlimit="10" stroke-width="1.3612669416666667"/></g></g><g><text fill="black" stroke="none" font-family="sans-serif" font-size="11pt" font-style="normal" font-weight="normal" text-decoration="normal" x="138.89092573046872" y="306.121709842" text-anchor="start" dominant-baseline="alphabetic" xml:space="preserve">Event received</text></g><g><path fill="none" stroke="black" paint-order="fill stroke markers" d=" M 302.9891142599609 312.655791162 L 74.48730172395832 312.655791162" stroke-miterlimit="10" stroke-width="1.3612669416666667" stroke-dasharray="6.53408132"/><g transform="translate(71.764767840625,312.655791162) translate(-71.764767840625,-312.655791162)"><path fill="none" stroke="black" paint-order="fill stroke markers" d=" M 85.37743725729167 305.8494564536667 L 73.12603478229167 312.655791162 L 85.37743725729167 319.46212587033335" stroke-miterlimit="10" stroke-width="1.3612669416666667"/></g></g><g><text fill="black" stroke="none" font-family="sans-serif" font-size="11pt" font-style="normal" font-weight="normal" text-decoration="normal" x="923.9854760725584" y="351.860279082" text-anchor="start" dominant-baseline="alphabetic" xml:space="preserve">Get user by ID</text></g><g><path fill="none" stroke="black" paint-order="fill stroke markers" d=" M 724.331084164388 358.394360402 L 1215.426977652083 358.394360402" stroke-miterlimit="10" stroke-width="1.3612669416666667" stroke-dasharray=""/><g transform="translate(1218.1495115354164,358.394360402) translate(-1218.1495115354164,-358.394360402)"><path fill="black" stroke="none" paint-order="stroke fill markers" d=" M 1204.5368421187497 351.5880256936667 L 1218.1495115354164 358.394360402 L 1204.5368421187497 365.20069511033336 Z"/></g></g><g><text fill="black" stroke="none" font-family="sans-serif" font-size="11pt" font-style="normal" font-weight="normal" text-decoration="normal" x="932.9439645369139" y="441.703897232" text-anchor="start" dominant-baseline="alphabetic" xml:space="preserve">Return user</text></g><g><path fill="none" stroke="black" paint-order="fill stroke markers" d=" M 1218.1495115354164 448.237978552 L 727.0536180477213 448.237978552" stroke-miterlimit="10" stroke-width="1.3612669416666667" stroke-dasharray="6.53408132"/><g transform="translate(724.331084164388,448.237978552) translate(-724.331084164388,-448.237978552)"><path fill="black" stroke="none" paint-order="stroke fill markers" d=" M 737.9437535810547 441.4316438436667 L 724.331084164388 448.237978552 L 737.9437535810547 455.04431326033335 Z"/></g></g><g><text fill="black" stroke="none" font-family="sans-serif" font-size="11pt" font-style="normal" font-weight="normal" text-decoration="normal" x="1332.4710939953447" y="531.5475153819999" text-anchor="start" dominant-baseline="alphabetic" xml:space="preserve">Get user by ID</text></g><g><path fill="none" stroke="black" paint-order="fill stroke markers" d=" M 1234.4847148354165 538.081596702 L 1522.2445828266273 538.081596702" stroke-miterlimit="10" stroke-width="1.3612669416666667" stroke-dasharray=""/><g transform="translate(1524.9671167099607,538.081596702) translate(-1524.9671167099607,-538.081596702)"><path fill="black" stroke="none" paint-order="stroke fill markers" d=" M 1511.354447293294 531.2752619936666 L 1524.9671167099607 538.081596702 L 1511.354447293294 544.8879314103333 Z"/></g></g><g><text fill="black" stroke="none" font-family="sans-serif" font-size="11pt" font-style="normal" font-weight="normal" text-decoration="normal" x="1275.8175829479815" y="577.2860846219999" text-anchor="start" dominant-baseline="alphabetic" xml:space="preserve">Return user and load into cache</text></g><g><path fill="none" stroke="black" paint-order="fill stroke markers" d=" M 1524.9671167099607 583.8201659419999 L 1237.20724871875 583.8201659419999" stroke-miterlimit="10" stroke-width="1.3612669416666667" stroke-dasharray="6.53408132"/><g transform="translate(1234.4847148354165,583.8201659419999) translate(-1234.4847148354165,-583.8201659419999)"><path fill="black" stroke="none" paint-order="stroke fill markers" d=" M 1248.0973842520832 577.0138312336666 L 1234.4847148354165 583.8201659419999 L 1248.0973842520832 590.6265006503332 Z"/></g></g><g><text fill="black" stroke="none" font-family="sans-serif" font-size="11pt" font-style="normal" font-weight="normal" text-decoration="normal" x="932.9439645369139" y="623.0246538619998" text-anchor="start" dominant-baseline="alphabetic" xml:space="preserve">Return user</text></g><g><path fill="none" stroke="black" paint-order="fill stroke markers" d=" M 1218.1495115354164 629.5587351819999 L 727.0536180477213 629.5587351819999" stroke-miterlimit="10" stroke-width="1.3612669416666667" stroke-dasharray="6.53408132"/><g transform="translate(724.331084164388,629.5587351819999) translate(-724.331084164388,-629.5587351819999)"><path fill="black" stroke="none" paint-order="stroke fill markers" d=" M 737.9437535810547 622.7524004736665 L 724.331084164388 629.5587351819999 L 737.9437535810547 636.3650698903332 Z"/></g></g><g><text fill="black" stroke="none" font-family="sans-serif" font-size="11pt" font-style="normal" font-weight="normal" text-decoration="normal" x="475.3637658991861" y="693.2660280519998" text-anchor="start" dominant-baseline="alphabetic" xml:space="preserve">Return user</text></g><g><path fill="none" stroke="black" paint-order="fill stroke markers" d=" M 707.9958808643879 699.8001093719998 L 322.0468514432942 699.8001093719998" stroke-miterlimit="10" stroke-width="1.3612669416666667" stroke-dasharray="6.53408132"/><g transform="translate(319.3243175599609,699.8001093719998) translate(-319.3243175599609,-699.8001093719998)"><path fill="none" stroke="black" paint-order="fill stroke markers" d=" M 332.93698697662757 692.9937746636665 L 320.68558450162755 699.8001093719998 L 332.93698697662757 706.6064440803332" stroke-miterlimit="10" stroke-width="1.3612669416666667"/></g></g><g><text fill="black" stroke="none" font-family="sans-serif" font-size="11pt" font-style="normal" font-weight="normal" text-decoration="normal" x="517.9533112137369" y="739.0045972919997" text-anchor="start" dominant-baseline="alphabetic" xml:space="preserve">Get channel by ID</text></g><g><path fill="none" stroke="black" paint-order="fill stroke markers" d=" M 319.3243175599609 745.5386786119998 L 831.2040550417968 745.5386786119998" stroke-miterlimit="10" stroke-width="1.3612669416666667" stroke-dasharray=""/><g transform="translate(833.9265889251301,745.5386786119998) translate(-833.9265889251301,-745.5386786119998)"><path fill="none" stroke="black" paint-order="fill stroke markers" d=" M 820.3139195084634 738.7323439036664 L 832.5653219834634 745.5386786119998 L 820.3139195084634 752.3450133203331" stroke-miterlimit="10" stroke-width="1.3612669416666667"/></g></g><g><text fill="black" stroke="none" font-family="sans-serif" font-size="11pt" font-style="normal" font-weight="normal" text-decoration="normal" x="975.5335098514647" y="784.7431665319997" text-anchor="start" dominant-baseline="alphabetic" xml:space="preserve">Get channel by ID</text></g><g><path fill="none" stroke="black" paint-order="fill stroke markers" d=" M 850.2617922251302 791.2772478519997 L 1215.426977652083 791.2772478519997" stroke-miterlimit="10" stroke-width="1.3612669416666667" stroke-dasharray=""/><g transform="translate(1218.1495115354164,791.2772478519997) translate(-1218.1495115354164,-791.2772478519997)"><path fill="black" stroke="none" paint-order="stroke fill markers" d=" M 1204.5368421187497 784.4709131436664 L 1218.1495115354164 791.2772478519997 L 1204.5368421187497 798.0835825603331 Z"/></g></g><g><text fill="black" stroke="none" font-family="sans-serif" font-size="11pt" font-style="normal" font-weight="normal" text-decoration="normal" x="984.4919983158202" y="874.5867846819996" text-anchor="start" dominant-baseline="alphabetic" xml:space="preserve">Return channel</text></g><g><path fill="none" stroke="black" paint-order="fill stroke markers" d=" M 1218.1495115354164 881.1208660019996 L 852.9843261084635 881.1208660019996" stroke-miterlimit="10" stroke-width="1.3612669416666667" stroke-dasharray="6.53408132"/><g transform="translate(850.2617922251302,881.1208660019996) translate(-850.2617922251302,-881.1208660019996)"><path fill="black" stroke="none" paint-order="stroke fill markers" d=" M 863.8744616417969 874.3145312936663 L 850.2617922251302 881.1208660019996 L 863.8744616417969 887.927200710333 Z"/></g></g><g><text fill="black" stroke="none" font-family="sans-serif" font-size="11pt" font-style="normal" font-weight="normal" text-decoration="normal" x="1321.05377374388" y="964.4304028319995" text-anchor="start" dominant-baseline="alphabetic" xml:space="preserve">Get channel by ID</text></g><g><path fill="none" stroke="black" paint-order="fill stroke markers" d=" M 1234.4847148354165 970.9644841519995 L 1522.2445828266273 970.9644841519995" stroke-miterlimit="10" stroke-width="1.3612669416666667" stroke-dasharray=""/><g transform="translate(1524.9671167099607,970.9644841519995) translate(-1524.9671167099607,-970.9644841519995)"><path fill="black" stroke="none" paint-order="stroke fill markers" d=" M 1511.354447293294 964.1581494436662 L 1524.9671167099607 970.9644841519995 L 1511.354447293294 977.7708188603328 Z"/></g></g><g><text fill="black" stroke="none" font-family="sans-serif" font-size="11pt" font-style="normal" font-weight="normal" text-decoration="normal" x="1264.4002626965166" y="1010.1689720719994" text-anchor="start" dominant-baseline="alphabetic" xml:space="preserve">Return channel and load into cache</text></g><g><path fill="none" stroke="black" paint-order="fill stroke markers" d=" M 1524.9671167099607 1016.7030533919994 L 1237.20724871875 1016.7030533919994" stroke-miterlimit="10" stroke-width="1.3612669416666667" stroke-dasharray="6.53408132"/><g transform="translate(1234.4847148354165,1016.7030533919994) translate(-1234.4847148354165,-1016.7030533919994)"><path fill="black" stroke="none" paint-order="stroke fill markers" d=" M 1248.0973842520832 1009.8967186836661 L 1234.4847148354165 1016.7030533919994 L 1248.0973842520832 1023.5093881003328 Z"/></g></g><g><text fill="black" stroke="none" font-family="sans-serif" font-size="11pt" font-style="normal" font-weight="normal" text-decoration="normal" x="984.4919983158202" y="1055.9075413119997" text-anchor="start" dominant-baseline="alphabetic" xml:space="preserve">Return channel</text></g><g><path fill="none" stroke="black" paint-order="fill stroke markers" d=" M 1218.1495115354164 1062.4416226319995 L 852.9843261084635 1062.4416226319995" stroke-miterlimit="10" stroke-width="1.3612669416666667" stroke-dasharray="6.53408132"/><g transform="translate(850.2617922251302,1062.4416226319995) translate(-850.2617922251302,-1062.4416226319995)"><path fill="black" stroke="none" paint-order="stroke fill markers" d=" M 863.8744616417969 1055.6352879236663 L 850.2617922251302 1062.4416226319995 L 863.8744616417969 1069.2479573403327 Z"/></g></g><g><text fill="black" stroke="none" font-family="sans-serif" font-size="11pt" font-style="normal" font-weight="normal" text-decoration="normal" x="526.9117996780924" y="1126.1489155019997" text-anchor="start" dominant-baseline="alphabetic" xml:space="preserve">Return channel</text></g><g><path fill="none" stroke="black" paint-order="fill stroke markers" d=" M 833.9265889251301 1132.6829968219995 L 322.0468514432942 1132.6829968219995" stroke-miterlimit="10" stroke-width="1.3612669416666667" stroke-dasharray="6.53408132"/><g transform="translate(319.3243175599609,1132.6829968219995) translate(-319.3243175599609,-1132.6829968219995)"><path fill="none" stroke="black" paint-order="fill stroke markers" d=" M 332.93698697662757 1125.8766621136663 L 320.68558450162755 1132.6829968219995 L 332.93698697662757 1139.4893315303327" stroke-miterlimit="10" stroke-width="1.3612669416666667"/></g></g><g><text fill="black" stroke="none" font-family="sans-serif" font-size="11pt" font-style="normal" font-weight="normal" text-decoration="normal" x="512.679636313444" y="1171.8874847419997" text-anchor="start" dominant-baseline="alphabetic" xml:space="preserve">Get all subscribers that are user in channel</text></g><g><path fill="none" stroke="black" paint-order="fill stroke markers" d=" M 319.3243175599609 1178.4215660619996 L 981.9951604414061 1178.4215660619996" stroke-miterlimit="10" stroke-width="1.3612669416666667" stroke-dasharray=""/><g transform="translate(984.7176943247395,1178.4215660619996) translate(-984.7176943247395,-1178.4215660619996)"><path fill="black" stroke="none" paint-order="stroke fill markers" d=" M 971.1050249080728 1171.6152313536663 L 984.7176943247395 1178.4215660619996 L 971.1050249080728 1185.2279007703328 Z"/></g></g><g><text fill="black" stroke="none" font-family="sans-serif" font-size="11pt" font-style="normal" font-weight="normal" text-decoration="normal" x="1022.8331686914062" y="1217.6260539819998" text-anchor="start" dominant-baseline="alphabetic" xml:space="preserve">Get subscribers by user ID</text></g><g><path fill="none" stroke="black" paint-order="fill stroke markers" d=" M 1001.0528976247396 1224.1601353019996 L 1215.426977652083 1224.1601353019996" stroke-miterlimit="10" stroke-width="1.3612669416666667" stroke-dasharray=""/><g transform="translate(1218.1495115354164,1224.1601353019996) translate(-1218.1495115354164,-1224.1601353019996)"><path fill="black" stroke="none" paint-order="stroke fill markers" d=" M 1204.5368421187497 1217.3538005936664 L 1218.1495115354164 1224.1601353019996 L 1204.5368421187497 1230.9664700103328 Z"/></g></g><g><text fill="black" stroke="none" font-family="sans-serif" font-size="11pt" font-style="normal" font-weight="normal" text-decoration="normal" x="1051.7522742211913" y="1307.469672132" text-anchor="start" dominant-baseline="alphabetic" xml:space="preserve">Return subscriber</text></g><g><path fill="none" stroke="black" paint-order="fill stroke markers" d=" M 1218.1495115354164 1314.0037534519997 L 1003.7754315080729 1314.0037534519997" stroke-miterlimit="10" stroke-width="1.3612669416666667" stroke-dasharray="6.53408132"/><g transform="translate(1001.0528976247396,1314.0037534519997) translate(-1001.0528976247396,-1314.0037534519997)"><path fill="black" stroke="none" paint-order="stroke fill markers" d=" M 1014.6655670414062 1307.1974187436665 L 1001.0528976247396 1314.0037534519997 L 1014.6655670414062 1320.810088160333 Z"/></g></g><g><text fill="black" stroke="none" font-family="sans-serif" font-size="11pt" font-style="normal" font-weight="normal" text-decoration="normal" x="1296.6228731701494" y="1397.313290282" text-anchor="start" dominant-baseline="alphabetic" xml:space="preserve">Get subscriber by user ID</text></g><g><path fill="none" stroke="black" paint-order="fill stroke markers" d=" M 1234.4847148354165 1403.8473716019998 L 1522.2445828266273 1403.8473716019998" stroke-miterlimit="10" stroke-width="1.3612669416666667" stroke-dasharray=""/><g transform="translate(1524.9671167099607,1403.8473716019998) translate(-1524.9671167099607,-1403.8473716019998)"><path fill="black" stroke="none" paint-order="stroke fill markers" d=" M 1511.354447293294 1397.0410368936666 L 1524.9671167099607 1403.8473716019998 L 1511.354447293294 1410.653706310333 Z"/></g></g><g><text fill="black" stroke="none" font-family="sans-serif" font-size="11pt" font-style="normal" font-weight="normal" text-decoration="normal" x="1256.264985902083" y="1443.051859522" text-anchor="start" dominant-baseline="alphabetic" xml:space="preserve">Return subscriber and load into cache</text></g><g><path fill="none" stroke="black" paint-order="fill stroke markers" d=" M 1524.9671167099607 1449.585940842 L 1237.20724871875 1449.585940842" stroke-miterlimit="10" stroke-width="1.3612669416666667" stroke-dasharray="6.53408132"/><g transform="translate(1234.4847148354165,1449.585940842) translate(-1234.4847148354165,-1449.585940842)"><path fill="black" stroke="none" paint-order="stroke fill markers" d=" M 1248.0973842520832 1442.7796061336667 L 1234.4847148354165 1449.585940842 L 1248.0973842520832 1456.3922755503331 Z"/></g></g><g><text fill="black" stroke="none" font-family="sans-serif" font-size="11pt" font-style="normal" font-weight="normal" text-decoration="normal" x="1051.7522742211913" y="1488.7904287620001" text-anchor="start" dominant-baseline="alphabetic" xml:space="preserve">Return subscriber</text></g><g><path fill="none" stroke="black" paint-order="fill stroke markers" d=" M 1218.1495115354164 1495.324510082 L 1003.7754315080729 1495.324510082" stroke-miterlimit="10" stroke-width="1.3612669416666667" stroke-dasharray="6.53408132"/><g transform="translate(1001.0528976247396,1495.324510082) translate(-1001.0528976247396,-1495.324510082)"><path fill="black" stroke="none" paint-order="stroke fill markers" d=" M 1014.6655670414062 1488.5181753736667 L 1001.0528976247396 1495.324510082 L 1014.6655670414062 1502.1308447903332 Z"/></g></g><g><text fill="black" stroke="none" font-family="sans-serif" font-size="11pt" font-style="normal" font-weight="normal" text-decoration="normal" x="590.5070822973307" y="1559.0318029520001" text-anchor="start" dominant-baseline="alphabetic" xml:space="preserve">Return subscribers</text></g><g><path fill="none" stroke="black" paint-order="fill stroke markers" d=" M 984.7176943247395 1565.565884272 L 322.0468514432942 1565.565884272" stroke-miterlimit="10" stroke-width="1.3612669416666667" stroke-dasharray="6.53408132"/><g transform="translate(319.3243175599609,1565.565884272) translate(-319.3243175599609,-1565.565884272)"><path fill="none" stroke="black" paint-order="fill stroke markers" d=" M 332.93698697662757 1558.7595495636667 L 320.68558450162755 1565.565884272 L 332.93698697662757 1572.3722189803332" stroke-miterlimit="10" stroke-width="1.3612669416666667"/></g></g><g><text fill="black" stroke="none" font-family="sans-serif" font-size="11pt" font-style="normal" font-weight="normal" text-decoration="normal" x="395.69655334830725" y="1604.7703721920002" text-anchor="start" dominant-baseline="alphabetic" xml:space="preserve">Create message</text></g><g><path fill="none" stroke="black" paint-order="fill stroke markers" d=" M 319.3243175599609 1611.304453512 L 576.905276249414 1611.304453512" stroke-miterlimit="10" stroke-width="1.3612669416666667" stroke-dasharray=""/><g transform="translate(579.6278101327473,1611.304453512) translate(-579.6278101327473,-1611.304453512)"><path fill="black" stroke="none" paint-order="stroke fill markers" d=" M 566.0151407160806 1604.4981188036668 L 579.6278101327473 1611.304453512 L 566.0151407160806 1618.1107882203332 Z"/></g></g><g><text fill="black" stroke="none" font-family="sans-serif" font-size="11pt" font-style="normal" font-weight="normal" text-decoration="normal" x="341.10458862662756" y="1650.5089414320003" text-anchor="start" dominant-baseline="alphabetic" xml:space="preserve">Return Hopper conform message</text></g><g><path fill="none" stroke="black" paint-order="fill stroke markers" d=" M 579.6278101327473 1657.043022752 L 322.0468514432942 1657.043022752" stroke-miterlimit="10" stroke-width="1.3612669416666667" stroke-dasharray="6.53408132"/><g transform="translate(319.3243175599609,1657.043022752) translate(-319.3243175599609,-1657.043022752)"><path fill="black" stroke="none" paint-order="stroke fill markers" d=" M 332.93698697662757 1650.2366880436668 L 319.3243175599609 1657.043022752 L 332.93698697662757 1663.8493574603333 Z"/></g></g><g><text fill="black" stroke="none" font-family="sans-serif" font-size="11pt" font-style="normal" font-weight="normal" text-decoration="normal" x="871.5217197697264" y="1696.2475106720003" text-anchor="start" dominant-baseline="alphabetic" xml:space="preserve">Post notification to all subscribers</text></g><g><path fill="none" stroke="black" paint-order="fill stroke markers" d=" M 319.3243175599609 1702.7815919920001 L 1638.555517539518 1702.7815919920001" stroke-miterlimit="10" stroke-width="1.3612669416666667" stroke-dasharray=""/><g transform="translate(1641.2780514228514,1702.7815919920001) translate(-1641.2780514228514,-1702.7815919920001)"><path fill="black" stroke="none" paint-order="stroke fill markers" d=" M 1627.6653820061847 1695.975257283667 L 1641.2780514228514 1702.7815919920001 L 1627.6653820061847 1709.5879267003334 Z"/></g></g><g><text fill="black" stroke="none" font-family="sans-serif" font-size="11pt" font-style="normal" font-weight="normal" text-decoration="normal" x="902.8853214542967" y="1741.9860799120004" text-anchor="start" dominant-baseline="alphabetic" xml:space="preserve">Responds conformation</text></g><g><path fill="none" stroke="black" paint-order="fill stroke markers" d=" M 1641.2780514228514 1748.5201612320002 L 322.0468514432942 1748.5201612320002" stroke-miterlimit="10" stroke-width="1.3612669416666667" stroke-dasharray="6.53408132"/><g transform="translate(319.3243175599609,1748.5201612320002) translate(-319.3243175599609,-1748.5201612320002)"><path fill="black" stroke="none" paint-order="stroke fill markers" d=" M 332.93698697662757 1741.713826523667 L 319.3243175599609 1748.5201612320002 L 332.93698697662757 1755.3264959403334 Z"/></g></g><g><g/><path fill="none" stroke="black" paint-order="fill stroke markers" d=" M 650.8226693143879 382.897165352 L 1590.3079299099606 382.897165352 L 1590.3079299099606 654.0615401319999 L 650.8226693143879 654.0615401319999 L 650.8226693143879 382.897165352 Z" stroke-miterlimit="10" stroke-width="2.3336004714285714" stroke-dasharray=""/><path fill="white" stroke="black" paint-order="fill stroke markers" d=" M 650.8226693143879 382.897165352 L 650.8226693143879 402.499409312 L 697.1818729114582 402.499409312 L 706.9829948914581 392.698287332 L 706.9829948914581 382.897165352 L 650.8226693143879 382.897165352" stroke-miterlimit="10" stroke-width="2.3336004714285714" stroke-dasharray=""/><text fill="black" stroke="none" font-family="sans-serif" font-size="8.8pt" font-style="normal" font-weight="bold" text-decoration="normal" x="667.1578726143879" y="395.965327992" text-anchor="start" dominant-baseline="alphabetic" xml:space="preserve">alt</text><text fill="black" stroke="none" font-family="sans-serif" font-size="8.8pt" font-style="normal" font-weight="bold" text-decoration="normal" x="723.3181981914581" y="395.965327992" text-anchor="start" dominant-baseline="alphabetic" xml:space="preserve">[User in cache]</text><g><path fill="none" stroke="black" paint-order="fill stroke markers" d=" M 650.8226693143879 472.740783502 L 1590.3079299099606 472.740783502" stroke-miterlimit="10" stroke-width="2.3336004714285714" stroke-dasharray="4.083800825"/></g><g/><text fill="black" stroke="none" font-family="sans-serif" font-size="8.8pt" font-style="normal" font-weight="bold" text-decoration="normal" x="723.3181981914581" y="485.808946142" text-anchor="start" dominant-baseline="alphabetic" xml:space="preserve">[User not in cache]</text></g><g/><g><g/><path fill="none" stroke="black" paint-order="fill stroke markers" d=" M 776.7533773751301 815.7800528019997 L 1590.3079299099606 815.7800528019997 L 1590.3079299099606 1086.9444275819994 L 776.7533773751301 1086.9444275819994 L 776.7533773751301 815.7800528019997 Z" stroke-miterlimit="10" stroke-width="2.3336004714285714" stroke-dasharray=""/><path fill="white" stroke="black" paint-order="fill stroke markers" d=" M 776.7533773751301 815.7800528019997 L 776.7533773751301 835.3822967619997 L 823.1125809722004 835.3822967619997 L 832.9137029522003 825.5811747819996 L 832.9137029522003 815.7800528019997 L 776.7533773751301 815.7800528019997" stroke-miterlimit="10" stroke-width="2.3336004714285714" stroke-dasharray=""/><text fill="black" stroke="none" font-family="sans-serif" font-size="8.8pt" font-style="normal" font-weight="bold" text-decoration="normal" x="793.0885806751301" y="828.8482154419996" text-anchor="start" dominant-baseline="alphabetic" xml:space="preserve">alt</text><text fill="black" stroke="none" font-family="sans-serif" font-size="8.8pt" font-style="normal" font-weight="bold" text-decoration="normal" x="849.2489062522003" y="828.8482154419996" text-anchor="start" dominant-baseline="alphabetic" xml:space="preserve">[Channel in cache]</text><g><path fill="none" stroke="black" paint-order="fill stroke markers" d=" M 776.7533773751301 905.6236709519995 L 1590.3079299099606 905.6236709519995" stroke-miterlimit="10" stroke-width="2.3336004714285714" stroke-dasharray="4.083800825"/></g><g/><text fill="black" stroke="none" font-family="sans-serif" font-size="8.8pt" font-style="normal" font-weight="bold" text-decoration="normal" x="849.2489062522003" y="918.6918335919995" text-anchor="start" dominant-baseline="alphabetic" xml:space="preserve">[Channel not in cache]</text></g><g/><g><g/><path fill="none" stroke="black" paint-order="fill stroke markers" d=" M 927.5444827747394 1248.6629402519998 L 1590.3079299099606 1248.6629402519998 L 1590.3079299099606 1519.827315032 L 927.5444827747394 1519.827315032 L 927.5444827747394 1248.6629402519998 Z" stroke-miterlimit="10" stroke-width="2.3336004714285714" stroke-dasharray=""/><path fill="white" stroke="black" paint-order="fill stroke markers" d=" M 927.5444827747394 1248.6629402519998 L 927.5444827747394 1268.2651842119997 L 973.9036863718097 1268.2651842119997 L 983.7048083518097 1258.4640622319998 L 983.7048083518097 1248.6629402519998 L 927.5444827747394 1248.6629402519998" stroke-miterlimit="10" stroke-width="2.3336004714285714" stroke-dasharray=""/><text fill="black" stroke="none" font-family="sans-serif" font-size="8.8pt" font-style="normal" font-weight="bold" text-decoration="normal" x="943.8796860747394" y="1261.7311028919996" text-anchor="start" dominant-baseline="alphabetic" xml:space="preserve">alt</text><text fill="black" stroke="none" font-family="sans-serif" font-size="8.8pt" font-style="normal" font-weight="bold" text-decoration="normal" x="1000.0400116518097" y="1261.7311028919996" text-anchor="start" dominant-baseline="alphabetic" xml:space="preserve">[Subscriber in cache]</text><g><path fill="none" stroke="black" paint-order="fill stroke markers" d=" M 927.5444827747394 1338.5065584019999 L 1590.3079299099606 1338.5065584019999" stroke-miterlimit="10" stroke-width="2.3336004714285714" stroke-dasharray="4.083800825"/></g><g/><text fill="black" stroke="none" font-family="sans-serif" font-size="8.8pt" font-style="normal" font-weight="bold" text-decoration="normal" x="1000.0400116518097" y="1351.5747210419997" text-anchor="start" dominant-baseline="alphabetic" xml:space="preserve">[Subscriber not in cache]</text></g><g/></g><g/><g/><g/><g/><g/><g/><g/><g/><g/><g/></g></svg>
