<svg version="1.1" xmlns="http://www.w3.org/2000/svg" xmlns:xlink="http://www.w3.org/1999/xlink" width="1170" height="1394"><defs/><g><g/><g/><g/><g/><g/><g/><g/><g/><g/><g/><g/><g/><g/><g/><g/><g/><g/><g/><g/><g/><g/><g/><g/><g><rect fill="white" stroke="none" x="0" y="0" width="1170" height="1394"/></g><g><text fill="black" stroke="none" font-family="sans-serif" font-size="16.5pt" font-style="normal" font-weight="normal" text-decoration="normal" x="491.87022966075847" y="24.50280495" text-anchor="start" dominant-baseline="alphabetic" xml:space="preserve">Message Received</text></g><g><g><path fill="#9F5F9F" stroke="black" paint-order="fill stroke markers" d=" M 8.167601650000003 58.5617038305 L 222.27669843554685 58.5617038305 L 222.27669843554685 1359.7423226919998 L 8.167601650000003 1359.7423226919998 L 8.167601650000003 58.5617038305" stroke-miterlimit="10" stroke-width="1.3612669416666667" stroke-dasharray=""/></g><g><text fill="black" stroke="none" font-family="sans-serif" font-size="11pt" font-style="normal" font-weight="bold" text-decoration="normal" x="96.0668231995117" y="81.43098845050001" text-anchor="start" dominant-baseline="alphabetic" xml:space="preserve">Slack</text></g><g><path fill="none" stroke="black" paint-order="fill stroke markers" d=" M 291.44769457340493 50.394102180500006 L 1013.1937699494466 50.394102180500006 L 1013.1937699494466 1359.7423226919998 L 291.44769457340493 1359.7423226919998 L 291.44769457340493 50.394102180500006" stroke-miterlimit="10" stroke-width="1.3612669416666667" stroke-dasharray=""/></g><g><text fill="black" stroke="none" font-family="sans-serif" font-size="11pt" font-style="normal" font-weight="bold" text-decoration="normal" x="571.2327043073242" y="73.2633868005" text-anchor="start" dominant-baseline="alphabetic" xml:space="preserve">Service Provider Slack </text></g><g><path fill="#42b983" stroke="black" paint-order="fill stroke markers" d=" M 1038.1910009961261 58.5617038305 L 1123.7960407219075 58.5617038305 L 1123.7960407219075 1359.7423226919998 L 1038.1910009961261 1359.7423226919998 L 1038.1910009961261 58.5617038305" stroke-miterlimit="10" stroke-width="1.3612669416666667" stroke-dasharray=""/></g><g><text fill="black" stroke="none" font-family="sans-serif" font-size="11pt" font-style="normal" font-weight="bold" text-decoration="normal" x="1055.338537338509" y="81.43098845050001" text-anchor="start" dominant-baseline="alphabetic" xml:space="preserve">Hopper</text></g></g><g><path fill="none" stroke="black" paint-order="fill stroke markers" d=" M 63.597166190625 167.272481792 L 63.597166190625 1394.0462496219998" stroke-miterlimit="10" stroke-width="1.3612669416666667" stroke-dasharray="12.565541,5.445067766666667"/><path fill="none" stroke="black" paint-order="fill stroke markers" d=" M 170.65171458339842 167.272481792 L 170.65171458339842 1394.0462496219998" stroke-miterlimit="10" stroke-width="1.3612669416666667" stroke-dasharray="12.565541,5.445067766666667"/><path fill="none" stroke="black" paint-order="fill stroke markers" d=" M 363.992508747819 167.272481792 L 363.992508747819 1394.0462496219998" stroke-miterlimit="10" stroke-width="1.3612669416666667" stroke-dasharray="12.565541,5.445067766666667"/><path fill="none" stroke="black" paint-order="fill stroke markers" d=" M 506.64477442574866 167.272481792 L 506.64477442574866 1394.0462496219998" stroke-miterlimit="10" stroke-width="1.3612669416666667" stroke-dasharray="12.565541,5.445067766666667"/><path fill="none" stroke="black" paint-order="fill stroke markers" d=" M 742.5604936139648 167.272481792 L 742.5604936139648 1394.0462496219998" stroke-miterlimit="10" stroke-width="1.3612669416666667" stroke-dasharray="12.565541,5.445067766666667"/><path fill="none" stroke="black" paint-order="fill stroke markers" d=" M 964.6825861461263 167.272481792 L 964.6825861461263 1394.0462496219998" stroke-miterlimit="10" stroke-width="1.3612669416666667" stroke-dasharray="12.565541,5.445067766666667"/><path fill="none" stroke="black" paint-order="fill stroke markers" d=" M 1080.9935208590168 167.272481792 L 1080.9935208590168 1394.0462496219998" stroke-miterlimit="10" stroke-width="1.3612669416666667" stroke-dasharray="12.565541,5.445067766666667"/></g><g><g><path fill="white" stroke="black" paint-order="fill stroke markers" d=" M 96.022544741125 120.39044832100001 A 24.2577769005 24.2577769005 0 1 1 96.02253261223755 120.36619054814246 M 32.560279920625 94.74417914 L 32.560279920625 146.03671750200002 M 31.171787640124997 120.39044832100001 L 47.506990940125 120.39044832100001" stroke-miterlimit="10" stroke-width="2.7769845610000004" stroke-dasharray=""/></g><g><g/><text fill="black" stroke="none" font-family="sans-serif" font-size="11pt" font-style="normal" font-weight="normal" text-decoration="normal" x="16.335203300000003" y="162.371920802" text-anchor="start" dominant-baseline="alphabetic" xml:space="preserve">SlackEventApi</text></g><g><path fill="white" stroke="black" paint-order="fill stroke markers" d=" M 203.07709313389842 120.39044832100001 A 24.2577769005 24.2577769005 0 1 1 203.07708100501097 120.36619054814246 M 139.61482831339842 94.74417914 L 139.61482831339842 146.03671750200002 M 138.22633603289842 120.39044832100001 L 154.5615393328984 120.39044832100001" stroke-miterlimit="10" stroke-width="2.7769845610000004" stroke-dasharray=""/></g><g><g/><text fill="black" stroke="none" font-family="sans-serif" font-size="11pt" font-style="normal" font-weight="normal" text-decoration="normal" x="127.19433238124998" y="162.371920802" text-anchor="start" dominant-baseline="alphabetic" xml:space="preserve">SlackWebApi</text></g><g><path fill="white" stroke="black" paint-order="fill stroke markers" d=" M 396.417887298319 120.39044832100001 A 24.2577769005 24.2577769005 0 1 1 396.41787516943157 120.36619054814246 M 332.95562247781896 94.74417914 L 332.95562247781896 146.03671750200002 M 331.567130197319 120.39044832100001 L 347.902333497319 120.39044832100001" stroke-miterlimit="10" stroke-width="2.7769845610000004" stroke-dasharray=""/></g><g><g/><text fill="black" stroke="none" font-family="sans-serif" font-size="11pt" font-style="normal" font-weight="normal" text-decoration="normal" x="299.6152962234049" y="162.371920802" text-anchor="start" dominant-baseline="alphabetic" xml:space="preserve">SpMessageHandler</text></g><g><path fill="white" stroke="black" paint-order="fill stroke markers" d=" M 539.0701529762487 120.39044832100001 A 24.2577769005 24.2577769005 0 1 1 539.0701408473612 120.36619054814246 M 475.60788815574864 94.74417914 L 475.60788815574864 146.03671750200002 M 474.21939587524867 120.39044832100001 L 490.55459917524865 120.39044832100001" stroke-miterlimit="10" stroke-width="2.7769845610000004" stroke-dasharray=""/></g><g><g/><text fill="black" stroke="none" font-family="sans-serif" font-size="11pt" font-style="normal" font-weight="normal" text-decoration="normal" x="444.70492457223304" y="162.371920802" text-anchor="start" dominant-baseline="alphabetic" xml:space="preserve">SpChannelHandler</text></g><g><path fill="white" stroke="black" paint-order="fill stroke markers" d=" M 766.8182705144648 120.39044832100001 A 24.2577769005 24.2577769005 0 1 1 766.8182583855773 120.36619054814246 M 739.2934529539648 96.1326714205 L 749.0945749339647 87.96506977050001 M 739.2934529539648 96.1326714205 L 749.0945749339647 104.3002730705" stroke-miterlimit="10" stroke-width="2.7769845610000004" stroke-dasharray=""/></g><g><g/><text fill="black" stroke="none" font-family="sans-serif" font-size="11pt" font-style="normal" font-weight="normal" text-decoration="normal" x="679.4109193341797" y="162.371920802" text-anchor="start" dominant-baseline="alphabetic" xml:space="preserve">SpMessageService</text></g><g><path fill="white" stroke="black" paint-order="fill stroke markers" d=" M 940.8331893281263 135.255483324 L 940.8331893281263 100.95155639400002 L 988.5319829641262 100.95155639400002 L 988.5319829641262 135.255483324" stroke-miterlimit="10" stroke-width="2.7769845610000004" stroke-dasharray=""/><path fill="white" stroke="black" paint-order="fill stroke markers" d=" M 988.5319829641262 99.75908655310002 L 988.5307905042225 99.86689709801664 L 988.5272132437565 99.97469686196861 L 988.5212515404512 100.08247506506937 L 988.5129059904718 100.19022092958842 L 988.5021774283666 100.2979236810291 L 988.4890669269828 100.40557254920603 L 988.4735757973596 100.51315676932207 L 988.455705588597 100.62066558304487 L 988.4354580877009 100.72808823958268 L 988.4128353194047 100.83541399675931 L 988.3878395459664 100.94263212208854 L 988.3604732669423 101.04973189384714 L 988.3307392189378 101.1567026021472 L 988.2986403753326 101.26353355000704 L 988.2641799459846 101.37021405442088 L 988.2273613769078 101.4767334474272 L 988.1881883499284 101.58308107717545 L 988.1466647823166 101.68924630899127 L 988.1027948263946 101.79521852643998 L 988.0565828691213 101.90098713238812 L 988.008033531654 102.00654155006325 L 987.9571516688859 102.11187122411154 L 987.903942368961 102.21696562165339 L 987.8484109527648 102.32181423333661 L 987.7905629733928 102.4264065743874 L 987.7304042155946 102.53073218565882 L 987.667940695196 102.63478063467669 L 987.6031786584967 102.7385415166828 L 987.5361245816467 102.84200445567542 L 987.4667851699978 102.94515910544688 L 987.3951673574331 103.04799515061815 L 987.3212783056745 103.15050230767042 L 987.2451254035655 103.2526703259734 L 987.1667162663326 103.3544889888104 L 987.0860587348245 103.4559481144 L 987.0031608747271 103.55703755691417 L 986.9180309757572 103.6577472074929 L 986.8306775508338 103.75806699525508 L 986.7411093352266 103.8579868883055 L 986.6493352856826 103.95749689473814 L 986.5553645795301 104.05658706363529 L 986.4592066137616 104.15524748606262 L 986.3608710040935 104.25346829606012 L 986.2603675840046 104.35123967162862 L 986.1577064037535 104.44855183571204 L 986.0528977293725 104.54539505717509 L 985.9459520416416 104.6417596517763 L 985.8368800350406 104.73763598313651 L 985.7256926166793 104.83301446370251 L 985.6124009052068 104.92788555570571 L 985.4970162296999 105.02223977211597 L 985.3795501285298 105.11606767759027 L 985.2600143482089 105.20935988941625 L 985.1384208422156 105.30210707845049 L 985.0147817697992 105.39429997005135 L 984.8891094947638 105.48592934500653 L 984.7614165842324 105.57698604045486 L 984.6317158073894 105.66746095080268 L 984.5000201342044 105.75734502863436 L 984.3663427341352 105.84662928561703 L 984.2306969748103 105.93530479339938 L 984.0930964206924 106.02336268450453 L 983.9535548317225 106.11079415321676 L 983.8120861619432 106.19759045646204 L 983.6687045581034 106.28374291468239 L 983.5234243582443 106.36924291270377 L 983.3762600902644 106.45408190059764 L 983.2272264704683 106.5382513945359 L 983.0763384020934 106.62174297763931 L 982.923610973821 106.70454830081913 L 982.7690594582668 106.78665908361204 L 982.6126993104533 106.86806711500819 L 982.454546166265 106.94876425427228 L 982.2946158408847 107.02874243175762 L 982.1329243272115 107.10799364971314 L 981.9694877942622 107.18650998308306 L 981.8043225855537 107.26428358029946 L 981.6374452174693 107.34130666406747 L 981.4688723776069 107.41757153214289 L 981.2986209231098 107.49307055810243 L 981.1267078789816 107.56779619210644 L 980.9531504363836 107.6417409616538 L 980.7779659509152 107.71489747232916 L 980.6011719408792 107.7872584085424 L 980.4227860855292 107.85881653426023 L 980.2428262233019 107.9295646937297 L 980.0613103500339 107.9994958121938 L 979.8782566171609 108.06860289659899 L 979.6936833299039 108.1368790362944 L 979.5076089454377 108.20431740372297 L 979.3200520710458 108.27091125510412 L 979.1310314622591 108.33665393110826 L 978.9405660209812 108.40153885752254 L 978.7486747935974 108.46555954590839 L 978.5553769690706 108.52870959425034 L 978.3606918770221 108.59098268759617 L 978.1646389857989 108.65237259868843 L 977.9672379005267 108.71287318858718 L 977.7685083611497 108.77247840728386 L 977.5684702404559 108.83118229430623 L 977.367143542091 108.88897897931456 L 977.1645483985569 108.94586268268847 L 976.9607050691991 109.00182771610504 L 976.7556339381808 109.05686848310758 L 976.5493555124441 109.11097947966525 L 976.3418904196598 109.16415529472346 L 976.133259406164 109.21639061074505 L 975.9234833348846 109.26768020424194 L 975.7125831832536 109.31801894629751 L 975.5005800411105 109.36740180307952 L 975.2874951085929 109.41582383634344 L 975.0733496940165 109.46328020392627 L 974.8581652117442 109.50976616023082 L 974.641963180045 109.55527705670022 L 974.4247652189418 109.5998083422827 L 974.2065930480499 109.64335556388684 L 973.9874684844043 109.68591436682678 L 973.7674134402789 109.72748049525767 L 973.5464499209949 109.7680497926013 L 973.3246000227199 109.80761820196176 L 973.1018859302588 109.84618176653109 L 972.8783299148354 109.88373662998495 L 972.653954331865 109.92027903686831 L 972.4287816187186 109.95580533297093 L 972.2028342924802 109.99031196569278 L 971.976134947694 110.02379548439939 L 971.7487062541056 110.05625254076675 L 971.5205709543948 110.08767988911629 L 971.2917518619015 110.11807438673935 L 971.0622718583442 110.14743299421153 L 970.8321538915321 110.17575277569651 L 970.60142097307 110.20303089923975 L 970.3700961760577 110.22926463705164 L 970.1382026327818 110.25445136578027 L 969.9057635324037 110.27858856677372 L 969.6728021186397 110.30167382633203 L 969.4393416874367 110.32370483594849 L 969.2054055846437 110.34467939254047 L 968.9710172036757 110.3645953986698 L 968.7361999831758 110.38345086275248 L 968.5009774046702 110.40124389925779 L 968.2653729902205 110.41797272889693 L 968.0294103000722 110.43363567880087 L 967.7931129302975 110.44823118268765 L 967.5565045104365 110.46175778101907 L 967.3196087011339 110.47421412114657 L 967.0824491917734 110.4855989574465 L 966.8450496981083 110.49591115144473 L 966.6074339598898 110.50514967193044 L 966.3696257384942 110.5133135950593 L 966.1316488145451 110.5204021044458 L 965.8935269855367 110.52641449124488 L 965.6552840634536 110.53135015422289 L 965.4169438723892 110.53520859981765 L 965.1785302461642 110.53798944218781 L 964.9400670259424 110.53969240325145 L 964.7015780578473 110.54031731271388 L 964.4630871905767 110.53986410808467 L 964.2246182730189 110.53833283468393 L 963.9861951518667 110.5357236456377 L 963.7478416692337 110.53203680186272 L 963.5095816602693 110.52727267204028 L 963.2714389507761 110.52143173257942 L 963.0334373548264 110.5145145675692 L 962.7956006723816 110.50652186872036 L 962.5579526869117 110.4974544352961 L 962.3205171630171 110.48731317403227 L 962.0833178440524 110.47609909904648 L 961.846378449752 110.46381333173692 L 961.6097226738577 110.45045710067006 L 961.3733741817499 110.4360317414579 L 961.1373566080808 110.42053869662433 L 960.9016935544113 110.40397951546092 L 960.6664085868501 110.38635585387198 L 960.4315252336982 110.367669474209 L 960.1970669830948 110.34792224509437 L 959.96305728067 110.32711614123453 L 959.7295195271986 110.30525324322254 L 959.4964770762617 110.28233573732997 L 959.26395323191 110.25836591528834 L 959.0319712463341 110.23334617405986 L 958.8005543175395 110.2072790155978 L 958.569725587026 110.18016704659628 L 958.3395081374745 110.15201297822964 L 958.1099249904379 110.1228196258812 L 957.8809991040396 110.09258990886192 L 957.6527533706776 110.06132685011828 L 957.425210614735 110.0290335759301 L 957.1983935902977 109.99571331559791 L 956.9723249788792 109.96136940111997 L 956.7470273871522 109.9260052668591 L 956.5225233446881 109.88962444919923 L 956.2988353017042 109.85223058619187 L 956.0759856268184 109.81382741719212 L 955.8539966048122 109.77441878248487 L 955.6328904344032 109.73400862290077 L 955.4126892260238 109.6926009794221 L 955.1934149996116 109.6501999927787 L 954.9750896824064 109.60680990303389 L 954.757735106758 109.56243504916051 L 954.541373007943 109.51707986860694 L 954.3260250219906 109.47074889685346 L 954.1117126835204 109.42344676695863 L 953.8984574235873 109.37517820909602 L 953.6862805675398 109.3259480500812 L 953.4752033328865 109.27576121288904 L 953.2652468271751 109.22462271616142 L 953.0564320458813 109.17253767370543 L 952.8487798703089 109.1195112939819 L 952.6423110655028 109.0655488795846 L 952.4370462781711 109.01065582671 L 952.2330060346217 108.95483762461768 L 952.0302107387087 108.89809985508128 L 951.8286806697929 108.84044819183053 L 951.6284359807132 108.78188839998367 L 951.4294966957716 108.7224263354711 L 951.2318827087308 108.66206794444972 L 951.035613780825 108.60081926270831 L 950.8407095387831 108.53868641506405 L 950.6471894728672 108.47567561474989 L 950.4550729349224 108.41179316279337 L 950.2643791364427 108.34704544738645 L 950.0751271466487 108.2814389432467 L 949.8873358905818 108.21498021096988 L 949.7010241472111 108.14767589637383 L 949.5162105475557 108.07953272983391 L 949.3329135728217 108.01055752561001 L 949.1511515525535 107.94075718116505 L 948.9709426628019 107.87013867647532 L 948.7923049243057 107.79870907333245 L 948.6152562006897 107.72647551463722 L 948.4398141966789 107.6534452236853 L 948.2659964563275 107.57962550344493 L 948.0938203612645 107.50502373582663 L 947.9233031289561 107.42964738094497 L 947.7544618109836 107.35350397637264 L 947.5873132913376 107.27660113638665 L 947.4218742847313 107.1989465512069 L 947.2581613349271 107.12054798622721 L 947.0961908130838 107.04141328123873 L 946.9359789161185 106.96155034964602 L 946.7775416650874 106.8809671776757 L 946.6208949035836 106.7996718235778 L 946.4660542961527 106.71767241681998 L 946.3130353267263 106.63497715727459 L 946.1618532970741 106.55159431439867 L 946.0125233252728 106.46753222640703 L 945.8650603441953 106.38279929943842 L 945.7194791000168 106.29740400671491 L 945.5757941507403 106.21135488769461 L 945.4340198647411 106.12466054721774 L 945.2941704193297 106.03732965464607 L 945.156259799334 105.94937094299611 L 945.0203017957009 105.8607932080657 L 944.8863100041178 105.77160530755455 L 944.7542978236521 105.68181616017836 L 944.6242784554117 105.59143474477705 L 944.4962649012252 105.50047009941686 L 944.3702699623414 105.40893132048649 L 944.246306238149 105.31682756178758 L 944.1243861249174 105.22416803361924 L 944.0045218145559 105.13096200185706 L 943.886725293396 105.03721878702656 L 943.7710083409916 104.94294776337108 L 943.6573825289413 104.84815835791446 L 943.5458592197319 104.75286004951823 L 943.4364495656013 104.65706236793383 L 943.3291645074236 104.56077489284957 L 943.2240147736153 104.46400725293273 L 943.1210108790623 104.36676912486666 L 943.020163124068 104.26907023238314 L 942.9214815933238 104.17092034529 L 942.8249761549009 104.07232927849415 L 942.7306564592625 103.97330689102013 L 942.6385319382995 103.87386308502415 L 942.5486118043873 103.77400780480394 L 942.4609050494644 103.67375103580433 L 942.375420444133 103.57310280361865 L 942.2921665367828 103.47207317298626 L 942.2111516527348 103.37067224678601 L 942.13238389341 103.26891016502606 L 942.0558711355187 103.16679710382974 L 941.9816210302729 103.0643432744181 L 941.9096410026214 102.96155892208871 L 941.8399382505066 102.85845432519113 L 941.7725197441462 102.75503979409915 L 941.7073922253342 102.65132567017969 L 941.6445622067682 102.5473223247587 L 941.5840359713981 102.44304015808407 L 941.5258195717965 102.33848959828556 L 941.4699188295554 102.23368110033203 L 941.4163393347019 102.12862514498595 L 941.3650864451411 102.02333223775527 L 941.3161652861193 101.91781290784299 L 941.2695807497114 101.81207770709416 L 941.2253374943325 101.70613720894077 L 941.1834399442711 101.60000200734433 L 941.1438922892473 101.49368271573654 L 941.1066984839937 101.387189965958 L 941.0718622478598 101.2805344071949 L 941.0393870644401 101.17372670491429 L 941.0092761812261 101.06677753979733 L 940.9815326092809 100.95969760667145 L 940.9561591229385 100.85249761344073 L 940.9331582595265 100.74518828001514 L 940.9125323191121 100.63778033723861 L 940.8942833642719 100.5302845258159 L 940.8784132198865 100.42271159523858 L 940.864923472957 100.31507230271008 L 940.8538154724467 100.20737741206993 L 940.8450903291467 100.09963769271747 L 940.8387489155638 99.99186391853482 L 940.8347918658342 99.88406686680962 L 940.8332195756594 99.77625731715719 L 940.8340322022674 99.66844605044267 L 940.837229664396 99.56064384770288 L 940.8428116423016 99.45286148906825 L 940.8507775777913 99.34510975268485 L 940.861126674278 99.23739941363651 L 940.8738578968608 99.12974124286738 L 940.888969972428 99.02214600610482 L 940.9064613897846 98.91462446278284 L 940.9263303998034 98.80718736496618 L 940.9485750156 98.69984545627509 L 940.9731930127315 98.59260947081098 L 941.0001819294184 98.48549013208303 L 941.0295390667918 98.37849815193587 L 941.0612614891623 98.27164422947833 L 941.0953460243143 98.16493905001363 L 941.1317892638223 98.05839328397077 L 941.170587563393 97.9520175858376 L 941.2117370432287 97.84582259309526 L 941.2552335884158 97.73981892515455 L 941.3010728493358 97.6340171822939 L 941.349250242101 97.52842794459946 L 941.3997609490123 97.423061770907 L 941.4525999190408 97.31792919774607 L 941.507761868334 97.21304073828638 L 941.5652412807426 97.10840688128647 L 941.6250324083734 97.00403809004486 L 941.6871292721632 96.89994480135368 L 941.7515256624778 96.79613742445507 L 941.8182151397316 96.6926263400002 L 941.8871910350324 96.58942189901128 L 941.9584464508482 96.48653442184639 L 942.0319742616969 96.38397419716749 L 942.1077671148585 96.28175148091161 L 942.1858174311109 96.17987649526519 L 942.2661174054876 96.07835942764187 L 942.348659008058 95.97721042966384 L 942.4334339847308 95.8764396161466 L 942.5204338580787 95.77605706408754 L 942.6096499281871 95.67607281165819 L 942.7010732735232 95.57649685720048 L 942.7946947518287 95.47733915822688 L 942.8905050010337 95.37860963042466 L 942.9884944401933 95.28031814666433 L 943.0886532704452 95.18247453601234 L 943.1909714759897 95.08508858274823 L 943.2954388250915 94.98817002538617 L 943.402044871103 94.89172855570112 L 943.5107789535083 94.79577381775971 L 943.6216301989896 94.70031540695574 L 943.734587522515 94.60536286905077 L 943.8496396284461 94.51092569921943 L 943.9667750116682 94.41701334110004 L 944.0859819587406 94.32363518585014 L 944.207248549068 94.23080057120742 L 944.3305626560925 94.13851878055601 L 944.4559119485059 94.04679904199807 L 944.5832838914836 93.955650527431 L 944.7126657479374 93.86508235163033 L 944.8440445797895 93.77510357133815 L 944.9774072492661 93.68572318435751 L 945.1127404202115 93.59695012865262 L 945.2500305594214 93.5087932814551 L 945.3892639379961 93.42126145837616 L 945.530426632714 93.33436341252519 L 945.6735045274231 93.24810783363438 L 945.8184833144533 93.1625033471897 L 945.9653484960465 93.07755851356848 L 946.1140853858072 92.9932818271833 L 946.2646791101702 92.90968171563254 L 946.4171146098886 92.82676653885773 L 946.5713766415394 92.74454458830742 L 946.727449779048 92.66302408610815 L 946.8853184152308 92.58221318424222 L 947.0449667633558 92.50211996373247 L 947.2063788587209 92.4227524338342 L 947.3695385602514 92.34411853123427 L 947.5344295521129 92.26622611925741 L 947.7010353453438 92.1890829870799 L 947.8693392795036 92.11269684895069 L 948.0393245243389 92.0370753434199 L 948.2109740814672 91.9622260325751 L 948.3842707860756 91.888156401285 L 948.5591973086381 91.81487385645099 L 948.7357361566483 91.74238572626649 L 948.9138696763683 91.67069925948411 L 949.0935800545949 91.59982162469079 L 949.2748493204398 91.52975990959095 L 949.4576593471274 91.4605211202977 L 949.6419918538077 91.3921121806323 L 949.8278284073834 91.32453993143167 L 950.015150424354 91.25781112986445 L 950.2039391726739 91.1919324487552 L 950.3941757736258 91.12691047591709 L 950.5858412037079 91.06275171349324 L 950.778916296537 90.99946257730645 L 950.9733817447647 90.93704939621756 L 951.1692181020082 90.87551841149269 L 951.366405784795 90.81487577617904 L 951.5649250745213 90.75512755448958 L 951.7647561194233 90.69627972119672 L 951.9658789365631 90.63833816103474 L 952.1682734138267 90.58130866811136 L 952.371919311935 90.52519694532836 L 952.5767962664678 90.47000860381125 L 952.7828837899004 90.41574916234819 L 952.9901612736523 90.36242404683813 L 953.1986079901478 90.31003858974816 L 953.408203094889 90.25859802958036 L 953.61892562854 90.20810751034786 L 953.830754519023 90.1585720810605 L 954.0436685836256 90.10999669521995 L 954.2576465311188 90.0623862103243 L 954.472666963886 90.01574538738238 L 954.6887083800632 89.9700788904376 L 954.9057491756887 89.92539128610161 L 955.123767646864 89.88168704309761 L 955.3427419919236 89.83897053181346 L 955.5626503136154 89.79724602386472 L 955.7834706212906 89.75651769166738 L 956.0051808331023 89.71678960802075 L 956.2277587782141 89.67806574570005 L 956.4511821990171 89.64034997705929 L 956.6754287533553 89.60364607364387 L 956.9004760167602 89.56795770581357 L 957.1263014846929 89.53328844237541 L 957.352882574795 89.49964175022686 L 957.5801966291461 89.46702099400908 L 957.8082209165302 89.43542943577052 L 958.0369326347087 89.40487023464067 L 958.2663089127003 89.37534644651419 L 958.4963268130684 89.34686102374526 L 958.7269633342146 89.31941681485246 L 958.958195412679 89.29301656423378 L 959.1899999254463 89.2676629118923 L 959.4223536922586 89.2433583931721 L 959.6552334779328 89.22010543850483 L 959.8886159946844 89.19790637316656 L 960.1224779044562 89.17676341704532 L 960.356795821252 89.15667868441913 L 960.5915463134755 89.13765418374449 L 960.8267059062731 89.11969181745562 L 961.0622510838815 89.10279338177418 L 961.2981582919791 89.08696056652965 L 961.5344039400419 89.0721949549904 L 961.7709644037017 89.05849802370521 L 962.0078160271095 89.04587114235585 L 962.2449351253001 89.03431557361992 L 962.4822979865615 89.02383247304465 L 962.7198808748053 89.01442288893136 L 962.9576600319406 89.00608776223065 L 963.19561168025 88.99882792644821 L 963.4337120247667 88.9926441075616 L 963.6719372556548 88.98753692394752 L 963.9102635505899 88.9835068863201 L 964.1486670771409 88.98055439767974 L 964.3871239951537 88.97867975327284 L 964.6256104591356 88.97788314056228 L 964.8641026206386 88.97816463920867 L 965.1025766306454 88.97952422106238 L 965.3410086419539 88.98196175016635 L 965.5793748115614 88.98547698276971 L 965.8176513030496 88.99006956735212 L 966.0558142889681 88.99573904465896 L 966.2938399532167 89.00248484774721 L 966.5317044934271 89.0103063020422 L 966.7693841233438 89.019202625405 L 967.0068550752019 89.0291729282107 L 967.2440936021038 89.04021621343732 L 967.4810759803947 89.05233137676555 L 967.7177785120343 89.06551720668914 L 967.9541775269666 89.0797723846361 L 968.1902493854873 89.0950954851005 L 968.4259704806069 89.11148497578507 L 968.6613172404126 89.12893921775441 L 968.8962661304245 89.14745646559885 L 969.1307936559492 89.16703486760905 L 969.36487636443 89.18767246596111 L 969.5984908477907 89.20936719691241 L 969.8316137447778 89.23211689100792 L 970.0642217432959 89.2559192732972 L 970.296291582739 89.28077196356185 L 970.5278000563164 89.30667247655354 L 970.7587240133739 89.33361822224259 L 970.9890403617081 89.36160650607685 L 971.2187260698761 89.39063452925127 L 971.4477581694985 89.42069938898774 L 971.6761137575561 89.45179807882532 L 971.9037699986806 89.48392748892095 L 972.1307041274373 89.5170844063604 L 972.3568934506027 89.55126551547954 L 972.582315349433 89.58646739819596 L 972.8069472819259 89.62268653435072 L 973.0307667850756 89.65991930206037 L 973.2537514771182 89.69816197807918 L 973.4758790597701 89.73741073817143 L 973.6971273204587 89.7776616574938 L 973.9174741345417 89.8189107109879 L 974.1368974675216 89.86115377378276 L 974.355375377248 89.9043866216073 L 974.572886016112 89.94860493121277 L 974.7894076332308 89.99380428080505 L 975.0049185766231 90.03998015048685 L 975.2193972953744 90.0871279227097 L 975.4328223417914 90.13524288273562 L 975.6451723735473 90.18432021910876 L 975.856426155816 90.23435502413635 L 976.0665625633952 90.28534229437957 L 976.2755605828193 90.33727693115392 L 976.4833993144605 90.39015374103897 L 976.6900579746188 90.44396743639781 L 976.8955158976005 90.49871263590576 L 977.0997525377844 90.55438386508847 L 977.3027474716768 90.6109755568694 L 977.5044803999533 90.66848205212658 L 977.7049311494894 90.72689760025837 L 977.904079675377 90.78621635975864 L 978.1019060629296 90.84643239880089 L 978.2983905296733 90.90753969583137 L 978.4935134273251 90.96953214017132 L 978.6872552437578 91.03240353262795 L 978.8795966049512 91.09614758611443 L 979.0705182769296 91.1607579262785 L 979.2600011676848 91.22622809214002 L 979.4480263290857 91.29255153673692 L 979.6345749587728 91.35972162778006 L 979.8196284020385 91.42773164831627 L 980.0031681536927 91.49657479740019 L 980.1851758599134 91.56624419077427 L 980.3656333200815 91.63673286155725 L 980.5445224886014 91.70803376094076 L 980.7218254767051 91.78013975889431 L 980.897524554242 91.85304364487818 L 981.0716021514503 91.92673812856452 L 981.2440408607156 92.00121584056639 L 981.4148234383106 92.07646933317463 L 981.5839328061198 92.15249108110271 L 981.7513520533474 92.22927348223918 L 981.9170644382083 92.3068088584079 L 982.081053389602 92.3850894561359 L 982.24330250877 92.4641074474286 L 982.4037955709356 92.54385493055275 L 982.5625165269264 92.62432393082648 L 982.7194495047789 92.70550640141681 L 982.8745788113263 92.78739422414436 L 983.0278889337671 92.86997921029509 L 983.1793645412168 92.95325310143917 L 983.328990486241 93.03720757025692 L 983.4767518063697 93.12183422137142 L 983.6226337255943 93.20712459218805 L 983.7666216558441 93.29307015374081 L 983.9087011984464 93.3796623115452 L 984.0488581455651 93.46689240645757 L 984.1870784816223 93.55475171554113 L 984.3233483846997 93.64323145293818 L 984.4576542279204 93.73232277074871 L 984.5899825808123 93.8220167599152 L 984.7203202106499 93.91230445111346 L 984.8486540837793 94.00317681564962 L 984.9749713669199 94.09462476636294 L 985.0992594284486 94.18663915853458 L 985.221505839663 94.27921079080198 L 985.3416983760237 94.37233040607906 L 985.4598250183774 94.46598869248189 L 985.575873954158 94.56017628425988 L 985.6898335785689 94.65488376273235 L 985.8016924957426 94.75010165723037 L 985.9114395198804 94.84582044604385 L 986.0190636763716 94.94203055737364 L 986.1245542028901 95.03872237028881 L 986.2279005504711 95.13588621568863 L 986.329092384566 95.23351237726953 L 986.4281195860759 95.33159109249674 L 986.5249722523629 95.43011255358043 L 986.6196406982413 95.5290669084566 L 986.7121154569452 95.62844426177223 L 986.802387281076 95.72823467587482 L 986.8904471435263 95.82842817180608 L 986.9762862383834 95.92901473029994 L 987.0598959818094 96.02998429278436 L 987.1412680128993 96.13132676238725 L 987.2203941945182 96.23303200494607 L 987.2972666141137 96.33508985002135 L 987.3718775845078 96.4374900919136 L 987.444219644666 96.54022249068399 L 987.5142855604421 96.64327677317824 L 987.5820683253031 96.746642634054 L 987.6475611610291 96.85030973681128 L 987.7107575183909 96.95426771482623 L 987.7716510778057 97.05850617238767 L 987.8302357499681 97.1630146857367 L 987.8865056764597 97.26778280410907 L 987.9404552303349 97.37280005078027 L 987.9920790166832 97.47805592411314 L 988.0413718731688 97.58353989860805 L 988.0883288705475 97.68924142595546 L 988.1329453131583 97.79514993609072 L 988.1752167393944 97.90125483825108 L 988.2151389221482 98.00754552203473 L 988.2527078692349 98.11401135846187 L 988.2879198237908 98.22064170103758 L 988.3207712646501 98.32742588681647 L 988.3512589066961 98.43435323746894 L 988.3793797011898 98.54141306034904 L 988.4051308360752 98.64859464956368 L 988.4285097362604 98.75588728704328 L 988.4495140638746 98.86328024361347 L 988.4681417185029 98.97076278006811 L 988.4843908373952 99.07832414824313 L 988.4982597956531 99.18595359209134 L 988.5097472063924 99.29364034875802 L 988.5188519208815 99.40137364965727 L 988.5255730286567 99.50914272154878 L 988.5299098576127 99.61693678761516 L 988.5318619740702 99.72474506853963 M 988.5319829641262 134.0630134831 L 988.5307905042225 134.17082402801663 L 988.5272132437565 134.2786237919686 L 988.5212515404512 134.38640199506935 L 988.5129059904718 134.49414785958842 L 988.5021774283666 134.60185061102908 L 988.4890669269828 134.70949947920602 L 988.4735757973596 134.81708369932204 L 988.455705588597 134.92459251304487 L 988.4354580877009 135.03201516958265 L 988.4128353194047 135.1393409267593 L 988.3878395459664 135.24655905208851 L 988.3604732669423 135.35365882384713 L 988.3307392189378 135.46062953214718 L 988.2986403753326 135.56746048000701 L 988.2641799459846 135.67414098442086 L 988.2273613769078 135.78066037742718 L 988.1881883499284 135.88700800717544 L 988.1466647823166 135.99317323899126 L 988.1027948263946 136.09914545643997 L 988.0565828691213 136.2049140623881 L 988.008033531654 136.31046848006324 L 987.9571516688859 136.41579815411154 L 987.903942368961 136.5208925516534 L 987.8484109527648 136.62574116333658 L 987.7905629733928 136.7303335043874 L 987.7304042155946 136.8346591156588 L 987.667940695196 136.9387075646767 L 987.6031786584967 137.0424684466828 L 987.5361245816467 137.14593138567542 L 987.4667851699978 137.24908603544688 L 987.3951673574331 137.35192208061815 L 987.3212783056745 137.4544292376704 L 987.2451254035655 137.5565972559734 L 987.1667162663326 137.6584159188104 L 987.0860587348245 137.7598750444 L 987.0031608747271 137.86096448691416 L 986.9180309757572 137.96167413749288 L 986.8306775508338 138.06199392525505 L 986.7411093352266 138.1619138183055 L 986.6493352856826 138.26142382473813 L 986.5553645795301 138.3605139936353 L 986.4592066137616 138.4591744160626 L 986.3608710040935 138.5573952260601 L 986.2603675840046 138.6551666016286 L 986.1577064037535 138.75247876571203 L 986.0528977293725 138.84932198717507 L 985.9459520416416 138.94568658177627 L 985.8368800350406 139.04156291313652 L 985.7256926166793 139.1369413937025 L 985.6124009052068 139.2318124857057 L 985.4970162296999 139.32616670211596 L 985.3795501285298 139.41999460759027 L 985.2600143482089 139.51328681941624 L 985.1384208422156 139.60603400845048 L 985.0147817697992 139.69822690005134 L 984.8891094947638 139.7898562750065 L 984.7614165842324 139.88091297045483 L 984.6317158073894 139.97138788080267 L 984.5000201342044 140.06127195863436 L 984.3663427341352 140.15055621561703 L 984.2306969748103 140.23923172339937 L 984.0930964206924 140.3272896145045 L 983.9535548317225 140.41472108321673 L 983.8120861619432 140.501517386462 L 983.6687045581034 140.58766984468238 L 983.5234243582443 140.67316984270377 L 983.3762600902644 140.75800883059765 L 983.2272264704683 140.8421783245359 L 983.0763384020934 140.9256699076393 L 982.923610973821 141.00847523081913 L 982.7690594582668 141.09058601361204 L 982.6126993104533 141.17199404500818 L 982.454546166265 141.25269118427227 L 982.2946158408847 141.3326693617576 L 982.1329243272115 141.41192057971313 L 981.9694877942622 141.49043691308304 L 981.8043225855537 141.56821051029945 L 981.6374452174693 141.64523359406746 L 981.4688723776069 141.72149846214288 L 981.2986209231098 141.79699748810242 L 981.1267078789816 141.87172312210643 L 980.9531504363836 141.94566789165378 L 980.7779659509152 142.01882440232913 L 980.6011719408792 142.0911853385424 L 980.4227860855292 142.16274346426022 L 980.2428262233019 142.2334916237297 L 980.0613103500339 142.3034227421938 L 979.8782566171609 142.372529826599 L 979.6936833299039 142.4408059662944 L 979.5076089454377 142.50824433372296 L 979.3200520710458 142.5748381851041 L 979.1310314622591 142.64058086110825 L 978.9405660209812 142.70546578752254 L 978.7486747935974 142.7694864759084 L 978.5553769690706 142.83263652425032 L 978.3606918770221 142.89490961759617 L 978.1646389857989 142.95629952868842 L 977.9672379005267 143.01680011858718 L 977.7685083611497 143.07640533728383 L 977.5684702404559 143.13510922430623 L 977.367143542091 143.19290590931453 L 977.1645483985569 143.24978961268846 L 976.9607050691991 143.30575464610504 L 976.7556339381808 143.36079541310758 L 976.5493555124441 143.41490640966524 L 976.3418904196598 143.46808222472345 L 976.133259406164 143.52031754074505 L 975.9234833348846 143.57160713424193 L 975.7125831832536 143.6219458762975 L 975.5005800411105 143.67132873307952 L 975.2874951085929 143.71975076634342 L 975.0733496940165 143.76720713392626 L 974.8581652117442 143.81369309023083 L 974.641963180045 143.8592039867002 L 974.4247652189418 143.9037352722827 L 974.2065930480499 143.94728249388683 L 973.9874684844043 143.98984129682677 L 973.7674134402789 144.03140742525764 L 973.5464499209949 144.07197672260128 L 973.3246000227199 144.11154513196175 L 973.1018859302588 144.15010869653108 L 972.8783299148354 144.18766355998494 L 972.653954331865 144.2242059668683 L 972.4287816187186 144.2597322629709 L 972.2028342924802 144.29423889569279 L 971.976134947694 144.32772241439937 L 971.7487062541056 144.36017947076672 L 971.5205709543948 144.39160681911628 L 971.2917518619015 144.42200131673934 L 971.0622718583442 144.45135992421152 L 970.8321538915321 144.4796797056965 L 970.60142097307 144.50695782923975 L 970.3700961760577 144.53319156705163 L 970.1382026327818 144.55837829578024 L 969.9057635324037 144.5825154967737 L 969.6728021186397 144.60560075633202 L 969.4393416874367 144.62763176594848 L 969.2054055846437 144.64860632254045 L 968.9710172036757 144.66852232866978 L 968.7361999831758 144.68737779275247 L 968.5009774046702 144.70517082925778 L 968.2653729902205 144.72189965889692 L 968.0294103000722 144.73756260880086 L 967.7931129302975 144.75215811268765 L 967.5565045104365 144.76568471101908 L 967.3196087011339 144.77814105114655 L 967.0824491917734 144.7895258874465 L 966.8450496981083 144.7998380814447 L 966.6074339598898 144.80907660193043 L 966.3696257384942 144.8172405250593 L 966.1316488145451 144.82432903444578 L 965.8935269855367 144.83034142124487 L 965.6552840634536 144.83527708422287 L 965.4169438723892 144.83913552981764 L 965.1785302461642 144.8419163721878 L 964.9400670259424 144.84361933325144 L 964.7015780578473 144.84424424271387 L 964.4630871905767 144.84379103808467 L 964.2246182730189 144.84225976468392 L 963.9861951518667 144.83965057563768 L 963.7478416692337 144.8359637318627 L 963.5095816602693 144.83119960204027 L 963.2714389507761 144.82535866257942 L 963.0334373548264 144.81844149756918 L 962.7956006723816 144.81044879872033 L 962.5579526869117 144.8013813652961 L 962.3205171630171 144.79124010403225 L 962.0833178440524 144.78002602904647 L 961.846378449752 144.7677402617369 L 961.6097226738577 144.75438403067005 L 961.3733741817499 144.73995867145788 L 961.1373566080808 144.72446562662432 L 960.9016935544113 144.7079064454609 L 960.6664085868501 144.69028278387196 L 960.4315252336982 144.671596404209 L 960.1970669830948 144.65184917509436 L 959.96305728067 144.6310430712345 L 959.7295195271986 144.6091801732225 L 959.4964770762617 144.58626266732998 L 959.26395323191 144.56229284528834 L 959.0319712463341 144.53727310405984 L 958.8005543175395 144.5112059455978 L 958.569725587026 144.48409397659628 L 958.3395081374745 144.45593990822962 L 958.1099249904379 144.4267465558812 L 957.8809991040396 144.3965168388619 L 957.6527533706776 144.36525378011828 L 957.425210614735 144.3329605059301 L 957.1983935902977 144.2996402455979 L 956.9723249788792 144.26529633111994 L 956.7470273871522 144.22993219685907 L 956.5225233446881 144.19355137919922 L 956.2988353017042 144.15615751619185 L 956.0759856268184 144.1177543471921 L 955.8539966048122 144.07834571248486 L 955.6328904344032 144.03793555290076 L 955.4126892260238 143.9965279094221 L 955.1934149996116 143.9541269227787 L 954.9750896824064 143.9107368330339 L 954.757735106758 143.8663619791605 L 954.541373007943 143.82100679860693 L 954.3260250219906 143.77467582685347 L 954.1117126835204 143.72737369695864 L 953.8984574235873 143.679105139096 L 953.6862805675398 143.62987498008118 L 953.4752033328865 143.579688142889 L 953.2652468271751 143.52854964616142 L 953.0564320458813 143.4764646037054 L 952.8487798703089 143.4234382239819 L 952.6423110655028 143.36947580958457 L 952.4370462781711 143.31458275671 L 952.2330060346217 143.25876455461767 L 952.0302107387087 143.20202678508127 L 951.8286806697929 143.1443751218305 L 951.6284359807132 143.08581532998366 L 951.4294966957716 143.02635326547107 L 951.2318827087308 142.9659948744497 L 951.035613780825 142.9047461927083 L 950.8407095387831 142.84261334506402 L 950.6471894728672 142.77960254474988 L 950.4550729349224 142.71572009279336 L 950.2643791364427 142.65097237738644 L 950.0751271466487 142.5853658732467 L 949.8873358905818 142.51890714096987 L 949.7010241472111 142.4516028263738 L 949.5162105475557 142.3834596598339 L 949.3329135728217 142.31448445561 L 949.1511515525535 142.24468411116504 L 948.9709426628019 142.17406560647532 L 948.7923049243057 142.10263600333244 L 948.6152562006897 142.03040244463722 L 948.4398141966789 141.9573721536853 L 948.2659964563275 141.88355243344492 L 948.0938203612645 141.80895066582661 L 947.9233031289561 141.73357431094496 L 947.7544618109836 141.65743090637264 L 947.5873132913376 141.58052806638665 L 947.4218742847313 141.5028734812069 L 947.2581613349271 141.42447491622718 L 947.0961908130838 141.34534021123872 L 946.9359789161185 141.265477279646 L 946.7775416650874 141.1848941076757 L 946.6208949035836 141.10359875357778 L 946.4660542961527 141.02159934681995 L 946.3130353267263 140.93890408727458 L 946.1618532970741 140.85552124439866 L 946.0125233252728 140.77145915640702 L 945.8650603441953 140.68672622943842 L 945.7194791000168 140.6013309367149 L 945.5757941507403 140.5152818176946 L 945.4340198647411 140.42858747721772 L 945.2941704193297 140.34125658464606 L 945.156259799334 140.2532978729961 L 945.0203017957009 140.1647201380657 L 944.8863100041178 140.07553223755454 L 944.7542978236521 139.98574309017835 L 944.6242784554117 139.89536167477704 L 944.4962649012252 139.80439702941683 L 944.3702699623414 139.71285825048648 L 944.246306238149 139.62075449178758 L 944.1243861249174 139.52809496361922 L 944.0045218145559 139.43488893185705 L 943.886725293396 139.34114571702654 L 943.7710083409916 139.24687469337107 L 943.6573825289413 139.15208528791445 L 943.5458592197319 139.05678697951822 L 943.4364495656013 138.96098929793382 L 943.3291645074236 138.86470182284955 L 943.2240147736153 138.76793418293272 L 943.1210108790623 138.67069605486665 L 943.020163124068 138.57299716238313 L 942.9214815933238 138.47484727529 L 942.8249761549009 138.37625620849414 L 942.7306564592625 138.27723382102013 L 942.6385319382995 138.17779001502413 L 942.5486118043873 138.07793473480393 L 942.4609050494644 137.9776779658043 L 942.375420444133 137.87702973361863 L 942.2921665367828 137.77600010298625 L 942.2111516527348 137.67459917678602 L 942.13238389341 137.57283709502605 L 942.0558711355187 137.47072403382973 L 941.9816210302729 137.3682702044181 L 941.9096410026214 137.26548585208872 L 941.8399382505066 137.16238125519112 L 941.7725197441462 137.05896672409915 L 941.7073922253342 136.95525260017968 L 941.6445622067682 136.8512492547587 L 941.5840359713981 136.74696708808406 L 941.5258195717965 136.64241652828557 L 941.4699188295554 136.53760803033202 L 941.4163393347019 136.43255207498592 L 941.3650864451411 136.32725916775524 L 941.3161652861193 136.22173983784296 L 941.2695807497114 136.11600463709416 L 941.2253374943325 136.01006413894075 L 941.1834399442711 135.90392893734432 L 941.1438922892473 135.79760964573654 L 941.1066984839937 135.69111689595798 L 941.0718622478598 135.5844613371949 L 941.0393870644401 135.47765363491428 L 941.0092761812261 135.37070446979732 L 940.9815326092809 135.26362453667144 L 940.9561591229385 135.15642454344072 L 940.9331582595265 135.04911521001512 L 940.9125323191121 134.9417072672386 L 940.8942833642719 134.83421145581588 L 940.8784132198865 134.72663852523857 L 940.864923472957 134.61899923271008 L 940.8538154724467 134.5113043420699 L 940.8450903291467 134.40356462271745 L 940.8387489155638 134.2957908485348 L 940.8347918658342 134.1879937968096 L 940.8332195756594 134.08018424715718" stroke-miterlimit="10" stroke-width="2.7769845610000004" stroke-dasharray=""/></g><g><g/><text fill="black" stroke="none" font-family="sans-serif" font-size="11pt" font-style="normal" font-weight="normal" text-decoration="normal" x="924.3390039928059" y="162.371920802" text-anchor="start" dominant-baseline="alphabetic" xml:space="preserve">SpDatabase</text></g><g><path fill="white" stroke="black" paint-order="fill stroke markers" d=" M 1113.4188994095168 120.39044832100001 A 24.2577769005 24.2577769005 0 1 1 1113.4188872806294 120.36619054814246 M 1049.9566345890169 94.74417914 L 1049.9566345890169 146.03671750200002 M 1048.5681423085168 120.39044832100001 L 1064.903345608517 120.39044832100001" stroke-miterlimit="10" stroke-width="2.7769845610000004" stroke-dasharray=""/></g><g><g/><text fill="black" stroke="none" font-family="sans-serif" font-size="11pt" font-style="normal" font-weight="normal" text-decoration="normal" x="1046.3586026461262" y="162.371920802" text-anchor="start" dominant-baseline="alphabetic" xml:space="preserve">HopperApi</text></g></g><g><path fill="white" stroke="black" paint-order="fill stroke markers" d=" M 55.429564540625 175.440083442 L 71.764767840625 175.440083442 L 71.764767840625 1377.7110463219997 L 55.429564540625 1377.7110463219997 L 55.429564540625 175.440083442" stroke-miterlimit="10" stroke-width="1.3612669416666667" stroke-dasharray=""/><path fill="white" stroke="black" paint-order="fill stroke markers" d=" M 162.48411293339842 175.440083442 L 178.8193162333984 175.440083442 L 178.8193162333984 1377.7110463219997 L 162.48411293339842 1377.7110463219997 L 162.48411293339842 175.440083442" stroke-miterlimit="10" stroke-width="1.3612669416666667" stroke-dasharray=""/><path fill="white" stroke="black" paint-order="fill stroke markers" d=" M 1072.8259192090168 175.440083442 L 1089.1611225090169 175.440083442 L 1089.1611225090169 1377.7110463219997 L 1072.8259192090168 1377.7110463219997 L 1072.8259192090168 175.440083442" stroke-miterlimit="10" stroke-width="1.3612669416666667" stroke-dasharray=""/><path fill="white" stroke="black" paint-order="fill stroke markers" d=" M 355.824907097819 221.178652682 L 372.160110397819 221.178652682 L 372.160110397819 1176.7880457319998 L 355.824907097819 1176.7880457319998 L 355.824907097819 221.178652682" stroke-miterlimit="10" stroke-width="1.3612669416666667" stroke-dasharray=""/><path fill="white" stroke="black" paint-order="fill stroke markers" d=" M 734.3928919639648 266.917221922 L 750.7280952639649 266.917221922 L 750.7280952639649 1085.3109072519997 L 734.3928919639648 1085.3109072519997 L 734.3928919639648 266.917221922" stroke-miterlimit="10" stroke-width="1.3612669416666667" stroke-dasharray=""/><path fill="white" stroke="black" paint-order="fill stroke markers" d=" M 956.5149844961262 358.394360402 L 972.8501877961263 358.394360402 L 972.8501877961263 448.237978552 L 956.5149844961262 448.237978552 L 956.5149844961262 358.394360402" stroke-miterlimit="10" stroke-width="1.3612669416666667" stroke-dasharray=""/><path fill="white" stroke="black" paint-order="fill stroke markers" d=" M 956.5149844961262 493.976547792 L 972.8501877961263 493.976547792 L 972.8501877961263 583.820165942 L 956.5149844961262 583.820165942 L 956.5149844961262 493.976547792" stroke-miterlimit="10" stroke-width="1.3612669416666667" stroke-dasharray=""/><path fill="white" stroke="black" paint-order="fill stroke markers" d=" M 956.5149844961262 627.925214852 L 972.8501877961263 627.925214852 L 972.8501877961263 673.6637840919999 L 956.5149844961262 673.6637840919999 L 956.5149844961262 627.925214852" stroke-miterlimit="10" stroke-width="1.3612669416666667" stroke-dasharray=""/><path fill="white" stroke="black" paint-order="fill stroke markers" d=" M 498.47717277574867 719.4023533319998 L 514.8123760757487 719.4023533319998 L 514.8123760757487 856.6180610519997 L 498.47717277574867 856.6180610519997 L 498.47717277574867 719.4023533319998" stroke-miterlimit="10" stroke-width="1.3612669416666667" stroke-dasharray=""/><path fill="white" stroke="black" paint-order="fill stroke markers" d=" M 956.5149844961262 902.3566302919996 L 972.8501877961263 902.3566302919996 L 972.8501877961263 948.0951995319996 L 956.5149844961262 948.0951995319996 L 956.5149844961262 902.3566302919996" stroke-miterlimit="10" stroke-width="1.3612669416666667" stroke-dasharray=""/><path fill="white" stroke="black" paint-order="fill stroke markers" d=" M 956.5149844961262 1220.8930946419998 L 972.8501877961263 1220.8930946419998 L 972.8501877961263 1266.6316638819999 L 956.5149844961262 1266.6316638819999 L 956.5149844961262 1220.8930946419998" stroke-miterlimit="10" stroke-width="1.3612669416666667" stroke-dasharray=""/><path fill="white" stroke="black" paint-order="fill stroke markers" d=" M 734.3928919639648 1220.8930946419998 L 750.7280952639649 1220.8930946419998 L 750.7280952639649 1312.370233122 L 734.3928919639648 1312.370233122 L 734.3928919639648 1220.8930946419998" stroke-miterlimit="10" stroke-width="1.3612669416666667" stroke-dasharray=""/><path fill="white" stroke="black" paint-order="fill stroke markers" d=" M 355.824907097819 1220.8930946419998 L 372.160110397819 1220.8930946419998 L 372.160110397819 1312.370233122 L 355.824907097819 1312.370233122 L 355.824907097819 1220.8930946419998" stroke-miterlimit="10" stroke-width="1.3612669416666667" stroke-dasharray=""/><g><text fill="black" stroke="none" font-family="sans-serif" font-size="11pt" font-style="normal" font-weight="normal" text-decoration="normal" x="164.08476209080402" y="214.644571362" text-anchor="start" dominant-baseline="alphabetic" xml:space="preserve">Message event</text></g><g><path fill="none" stroke="black" paint-order="fill stroke markers" d=" M 71.764767840625 221.178652682 L 353.1023732144857 221.178652682" stroke-miterlimit="10" stroke-width="1.3612669416666667" stroke-dasharray=""/><g transform="translate(355.824907097819,221.178652682) translate(-355.824907097819,-221.178652682)"><path fill="none" stroke="black" paint-order="fill stroke markers" d=" M 342.2122376811523 214.37231797366667 L 354.46364015615234 221.178652682 L 342.2122376811523 227.98498739033334" stroke-miterlimit="10" stroke-width="1.3612669416666667"/></g></g><g><text fill="black" stroke="none" font-family="sans-serif" font-size="11pt" font-style="normal" font-weight="normal" text-decoration="normal" x="497.4533276579426" y="260.383140602" text-anchor="start" dominant-baseline="alphabetic" xml:space="preserve">Message content</text></g><g><path fill="none" stroke="black" paint-order="fill stroke markers" d=" M 372.160110397819 266.917221922 L 731.6703580806314 266.917221922" stroke-miterlimit="10" stroke-width="1.3612669416666667" stroke-dasharray=""/><g transform="translate(734.3928919639648,266.917221922) translate(-734.3928919639648,-266.917221922)"><path fill="black" stroke="none" paint-order="stroke fill markers" d=" M 720.7802225472981 260.1108872136667 L 734.3928919639648 266.917221922 L 720.7802225472981 273.72355663033335 Z"/></g></g><g><text fill="black" stroke="none" font-family="sans-serif" font-size="11pt" font-style="normal" font-weight="normal" text-decoration="normal" x="165.30882214939777" y="306.121709842" text-anchor="start" dominant-baseline="alphabetic" xml:space="preserve">Event received</text></g><g><path fill="none" stroke="black" paint-order="fill stroke markers" d=" M 355.824907097819 312.655791162 L 74.48730172395832 312.655791162" stroke-miterlimit="10" stroke-width="1.3612669416666667" stroke-dasharray="6.53408132"/><g transform="translate(71.764767840625,312.655791162) translate(-71.764767840625,-312.655791162)"><path fill="none" stroke="black" paint-order="fill stroke markers" d=" M 85.37743725729167 305.8494564536667 L 73.12603478229167 312.655791162 L 85.37743725729167 319.46212587033335" stroke-miterlimit="10" stroke-width="1.3612669416666667"/></g></g><g><text fill="black" stroke="none" font-family="sans-serif" font-size="11pt" font-style="normal" font-weight="normal" text-decoration="normal" x="806.3667181027017" y="351.860279082" text-anchor="start" dominant-baseline="alphabetic" xml:space="preserve">Get user by ID</text></g><g><path fill="none" stroke="black" paint-order="fill stroke markers" d=" M 750.7280952639649 358.394360402 L 953.7924506127929 358.394360402" stroke-miterlimit="10" stroke-width="1.3612669416666667" stroke-dasharray=""/><g transform="translate(956.5149844961262,358.394360402) translate(-956.5149844961262,-358.394360402)"><path fill="black" stroke="none" paint-order="stroke fill markers" d=" M 942.9023150794595 351.5880256936667 L 956.5149844961262 358.394360402 L 942.9023150794595 365.20069511033336 Z"/></g></g><g><text fill="black" stroke="none" font-family="sans-serif" font-size="11pt" font-style="normal" font-weight="normal" text-decoration="normal" x="815.3252065670572" y="441.703897232" text-anchor="start" dominant-baseline="alphabetic" xml:space="preserve">Return user</text></g><g><path fill="none" stroke="black" paint-order="fill stroke markers" d=" M 956.5149844961262 448.237978552 L 753.4506291472982 448.237978552" stroke-miterlimit="10" stroke-width="1.3612669416666667" stroke-dasharray="6.53408132"/><g transform="translate(750.7280952639649,448.237978552) translate(-750.7280952639649,-448.237978552)"><path fill="black" stroke="none" paint-order="stroke fill markers" d=" M 764.3407646806315 441.4316438436667 L 750.7280952639649 448.237978552 L 764.3407646806315 455.04431326033335 Z"/></g></g><g><text fill="black" stroke="none" font-family="sans-serif" font-size="11pt" font-style="normal" font-weight="normal" text-decoration="normal" x="794.9493978512369" y="487.442466472" text-anchor="start" dominant-baseline="alphabetic" xml:space="preserve">Get channel by ID</text></g><g><path fill="none" stroke="black" paint-order="fill stroke markers" d=" M 750.7280952639649 493.976547792 L 953.7924506127929 493.976547792" stroke-miterlimit="10" stroke-width="1.3612669416666667" stroke-dasharray=""/><g transform="translate(956.5149844961262,493.976547792) translate(-956.5149844961262,-493.976547792)"><path fill="black" stroke="none" paint-order="stroke fill markers" d=" M 942.9023150794595 487.1702130836667 L 956.5149844961262 493.976547792 L 942.9023150794595 500.78288250033336 Z"/></g></g><g><text fill="black" stroke="none" font-family="sans-serif" font-size="11pt" font-style="normal" font-weight="normal" text-decoration="normal" x="803.9078863155924" y="577.286084622" text-anchor="start" dominant-baseline="alphabetic" xml:space="preserve">Return channel</text></g><g><path fill="none" stroke="black" paint-order="fill stroke markers" d=" M 956.5149844961262 583.820165942 L 753.4506291472982 583.820165942" stroke-miterlimit="10" stroke-width="1.3612669416666667" stroke-dasharray="6.53408132"/><g transform="translate(750.7280952639649,583.820165942) translate(-750.7280952639649,-583.820165942)"><path fill="black" stroke="none" paint-order="stroke fill markers" d=" M 764.3407646806315 577.0138312336667 L 750.7280952639649 583.820165942 L 764.3407646806315 590.6265006503334 Z"/></g></g><g><text fill="black" stroke="none" font-family="sans-serif" font-size="11pt" font-style="normal" font-weight="normal" text-decoration="normal" x="784.7597688056314" y="667.1297027719999" text-anchor="start" dominant-baseline="alphabetic" xml:space="preserve">Could not find channel</text></g><g><path fill="none" stroke="black" paint-order="fill stroke markers" d=" M 956.5149844961262 673.6637840919999 L 767.063298563965 673.6637840919999" stroke-miterlimit="10" stroke-width="1.3612669416666667" stroke-dasharray=""/><path fill="none" stroke="black" paint-order="fill stroke markers" d=" M 758.8956969139649 665.4961824419998 L 775.230900213965 681.831385742 M 758.8956969139649 681.831385742 L 775.230900213965 665.4961824419998" stroke-miterlimit="10" stroke-width="1.3612669416666667"/></g><g><text fill="black" stroke="none" font-family="sans-serif" font-size="11pt" font-style="normal" font-weight="normal" text-decoration="normal" x="546.7787509632161" y="712.8682720119998" text-anchor="start" dominant-baseline="alphabetic" xml:space="preserve">Get channel information</text></g><g><path fill="none" stroke="black" paint-order="fill stroke markers" d=" M 734.3928919639648 719.4023533319998 L 517.534909959082 719.4023533319998" stroke-miterlimit="10" stroke-width="1.3612669416666667" stroke-dasharray=""/><g transform="translate(514.8123760757487,719.4023533319998) translate(-514.8123760757487,-719.4023533319998)"><path fill="black" stroke="none" paint-order="stroke fill markers" d=" M 528.4250454924154 712.5960186236665 L 514.8123760757487 719.4023533319998 L 528.4250454924154 726.2086880403332 Z"/></g></g><g><text fill="black" stroke="none" font-family="sans-serif" font-size="11pt" font-style="normal" font-weight="normal" text-decoration="normal" x="245.3376137062337" y="758.6068412519998" text-anchor="start" dominant-baseline="alphabetic" xml:space="preserve">Request channel information</text></g><g><path fill="none" stroke="black" paint-order="fill stroke markers" d=" M 498.47717277574867 765.1409225719998 L 181.54185011673175 765.1409225719998" stroke-miterlimit="10" stroke-width="1.3612669416666667" stroke-dasharray=""/><g transform="translate(178.8193162333984,765.1409225719998) translate(-178.8193162333984,-765.1409225719998)"><path fill="black" stroke="none" paint-order="stroke fill markers" d=" M 192.4319856500651 758.3345878636665 L 178.8193162333984 765.1409225719998 L 192.4319856500651 771.9472572803331 Z"/></g></g><g><text fill="black" stroke="none" font-family="sans-serif" font-size="11pt" font-style="normal" font-weight="normal" text-decoration="normal" x="239.6325355812337" y="804.3454104919997" text-anchor="start" dominant-baseline="alphabetic" xml:space="preserve">Response channel information</text></g><g><path fill="none" stroke="black" paint-order="fill stroke markers" d=" M 178.8193162333984 810.8794918119997 L 495.75463889241536 810.8794918119997" stroke-miterlimit="10" stroke-width="1.3612669416666667" stroke-dasharray="6.53408132"/><g transform="translate(498.47717277574867,810.8794918119997) translate(-498.47717277574867,-810.8794918119997)"><path fill="black" stroke="none" paint-order="stroke fill markers" d=" M 484.864503359082 804.0731571036664 L 498.47717277574867 810.8794918119997 L 484.864503359082 817.6858265203331 Z"/></g></g><g><text fill="black" stroke="none" font-family="sans-serif" font-size="11pt" font-style="normal" font-weight="normal" text-decoration="normal" x="536.5926471424153" y="850.0839797319996" text-anchor="start" dominant-baseline="alphabetic" xml:space="preserve">Return channel information</text></g><g><path fill="none" stroke="black" paint-order="fill stroke markers" d=" M 514.8123760757487 856.6180610519997 L 731.6703580806314 856.6180610519997" stroke-miterlimit="10" stroke-width="1.3612669416666667" stroke-dasharray="6.53408132"/><g transform="translate(734.3928919639648,856.6180610519997) translate(-734.3928919639648,-856.6180610519997)"><path fill="black" stroke="none" paint-order="stroke fill markers" d=" M 720.7802225472981 849.8117263436664 L 734.3928919639648 856.6180610519997 L 720.7802225472981 863.424395760333 Z"/></g></g><g><text fill="black" stroke="none" font-family="sans-serif" font-size="11pt" font-style="normal" font-weight="normal" text-decoration="normal" x="803.9078863155924" y="895.8225489719996" text-anchor="start" dominant-baseline="alphabetic" xml:space="preserve">Create channel</text></g><g><path fill="none" stroke="black" paint-order="fill stroke markers" d=" M 750.7280952639649 902.3566302919996 L 953.7924506127929 902.3566302919996" stroke-miterlimit="10" stroke-width="1.3612669416666667" stroke-dasharray=""/><g transform="translate(956.5149844961262,902.3566302919996) translate(-956.5149844961262,-902.3566302919996)"><path fill="black" stroke="none" paint-order="stroke fill markers" d=" M 942.9023150794595 895.5502955836663 L 956.5149844961262 902.3566302919996 L 942.9023150794595 909.162965000333 Z"/></g></g><g><text fill="black" stroke="none" font-family="sans-serif" font-size="11pt" font-style="normal" font-weight="normal" text-decoration="normal" x="803.9078863155924" y="941.5611182119995" text-anchor="start" dominant-baseline="alphabetic" xml:space="preserve">Return channel</text></g><g><path fill="none" stroke="black" paint-order="fill stroke markers" d=" M 956.5149844961262 948.0951995319996 L 753.4506291472982 948.0951995319996" stroke-miterlimit="10" stroke-width="1.3612669416666667" stroke-dasharray="6.53408132"/><g transform="translate(750.7280952639649,948.0951995319996) translate(-750.7280952639649,-948.0951995319996)"><path fill="black" stroke="none" paint-order="stroke fill markers" d=" M 764.3407646806315 941.2888648236662 L 750.7280952639649 948.0951995319996 L 764.3407646806315 954.9015342403329 Z"/></g></g><g><text fill="black" stroke="none" font-family="sans-serif" font-size="11pt" font-style="normal" font-weight="normal" text-decoration="normal" x="772.5083663306316" y="1011.8024924019995" text-anchor="start" dominant-baseline="alphabetic" xml:space="preserve">createMessage()</text></g><g><path fill="none" stroke="black" paint-order="fill stroke markers" d=" M 750.7280952639649 1018.3365737219996 L 816.0689084639648 1018.3365737219996 L 816.0689084639648 1039.5723380119996 L 753.4506291472982 1039.5723380119996" stroke-miterlimit="10" stroke-width="1.3612669416666667" stroke-dasharray=""/><g transform="translate(750.7280952639649,1039.5723380119996) translate(-750.7280952639649,-1039.5723380119996)"><path fill="black" stroke="none" paint-order="stroke fill markers" d=" M 764.3407646806315 1032.7660033036664 L 750.7280952639649 1039.5723380119996 L 764.3407646806315 1046.3786727203328 Z"/></g></g><g><text fill="black" stroke="none" font-family="sans-serif" font-size="11pt" font-style="normal" font-weight="normal" text-decoration="normal" x="468.9422421476887" y="1078.7768259319998" text-anchor="start" dominant-baseline="alphabetic" xml:space="preserve">Hopper conform message</text></g><g><path fill="none" stroke="black" paint-order="fill stroke markers" d=" M 734.3928919639648 1085.3109072519997 L 374.8826442811523 1085.3109072519997" stroke-miterlimit="10" stroke-width="1.3612669416666667" stroke-dasharray="6.53408132"/><g transform="translate(372.160110397819,1085.3109072519997) translate(-372.160110397819,-1085.3109072519997)"><path fill="black" stroke="none" paint-order="stroke fill markers" d=" M 385.77277981448566 1078.5045725436664 L 372.160110397819 1085.3109072519997 L 385.77277981448566 1092.1172419603329 Z"/></g></g><g><text fill="black" stroke="none" font-family="sans-serif" font-size="11pt" font-style="normal" font-weight="normal" text-decoration="normal" x="676.0470766930664" y="1124.515395172" text-anchor="start" dominant-baseline="alphabetic" xml:space="preserve">Post message</text></g><g><path fill="none" stroke="black" paint-order="fill stroke markers" d=" M 372.160110397819 1131.0494764919997 L 1070.1033853256833 1131.0494764919997" stroke-miterlimit="10" stroke-width="1.3612669416666667" stroke-dasharray=""/><g transform="translate(1072.8259192090168,1131.0494764919997) translate(-1072.8259192090168,-1131.0494764919997)"><path fill="none" stroke="black" paint-order="fill stroke markers" d=" M 1059.21324979235 1124.2431417836665 L 1071.4646522673502 1131.0494764919997 L 1059.21324979235 1137.855811200333" stroke-miterlimit="10" stroke-width="1.3612669416666667"/></g></g><g><text fill="black" stroke="none" font-family="sans-serif" font-size="11pt" font-style="normal" font-weight="normal" text-decoration="normal" x="609.6440920739258" y="1170.253964412" text-anchor="start" dominant-baseline="alphabetic" xml:space="preserve">HTTP message received response</text></g><g><path fill="none" stroke="black" paint-order="fill stroke markers" d=" M 1072.8259192090168 1176.7880457319998 L 374.8826442811523 1176.7880457319998" stroke-miterlimit="10" stroke-width="1.3612669416666667" stroke-dasharray="6.53408132"/><g transform="translate(372.160110397819,1176.7880457319998) translate(-372.160110397819,-1176.7880457319998)"><path fill="none" stroke="black" paint-order="fill stroke markers" d=" M 385.77277981448566 1169.9817110236665 L 373.52137733948564 1176.7880457319998 L 385.77277981448566 1183.594380440333" stroke-miterlimit="10" stroke-width="1.3612669416666667"/></g></g><g><text fill="black" stroke="none" font-family="sans-serif" font-size="11pt" font-style="normal" font-weight="normal" text-decoration="normal" x="796.1770890570963" y="1260.097582562" text-anchor="start" dominant-baseline="alphabetic" xml:space="preserve">Could not find user</text></g><g><path fill="none" stroke="black" paint-order="fill stroke markers" d=" M 956.5149844961262 1266.6316638819999 L 767.063298563965 1266.6316638819999" stroke-miterlimit="10" stroke-width="1.3612669416666667" stroke-dasharray=""/><path fill="none" stroke="black" paint-order="fill stroke markers" d=" M 758.8956969139649 1258.4640622319998 L 775.230900213965 1274.799265532 M 758.8956969139649 1274.799265532 L 775.230900213965 1258.4640622319998" stroke-miterlimit="10" stroke-width="1.3612669416666667"/></g><g><text fill="black" stroke="none" font-family="sans-serif" font-size="11pt" font-style="normal" font-weight="normal" text-decoration="normal" x="488.09042024827465" y="1305.8361518020001" text-anchor="start" dominant-baseline="alphabetic" xml:space="preserve">User not subscribed</text></g><g><path fill="none" stroke="black" paint-order="fill stroke markers" d=" M 734.3928919639648 1312.370233122 L 374.8826442811523 1312.370233122" stroke-miterlimit="10" stroke-width="1.3612669416666667" stroke-dasharray="6.53408132"/><g transform="translate(372.160110397819,1312.370233122) translate(-372.160110397819,-1312.370233122)"><path fill="black" stroke="none" paint-order="stroke fill markers" d=" M 385.77277981448566 1305.5638984136667 L 372.160110397819 1312.370233122 L 385.77277981448566 1319.1765678303332 Z"/></g></g><g><g/><path fill="none" stroke="black" paint-order="fill stroke markers" d=" M 88.97569808339843 382.897165352 L 1138.1667324090167 382.897165352 L 1138.1667324090167 1336.8730380719999 L 88.97569808339843 1336.8730380719999 L 88.97569808339843 382.897165352 Z" stroke-miterlimit="10" stroke-width="2.3336004714285714" stroke-dasharray=""/><path fill="white" stroke="black" paint-order="fill stroke markers" d=" M 88.97569808339843 382.897165352 L 88.97569808339843 402.499409312 L 135.33490168046873 402.499409312 L 145.13602366046874 392.698287332 L 145.13602366046874 382.897165352 L 88.97569808339843 382.897165352" stroke-miterlimit="10" stroke-width="2.3336004714285714" stroke-dasharray=""/><text fill="black" stroke="none" font-family="sans-serif" font-size="8.8pt" font-style="normal" font-weight="bold" text-decoration="normal" x="105.31090138339843" y="395.965327992" text-anchor="start" dominant-baseline="alphabetic" xml:space="preserve">alt</text><text fill="black" stroke="none" font-family="sans-serif" font-size="8.8pt" font-style="normal" font-weight="bold" text-decoration="normal" x="161.47122696046873" y="395.965327992" text-anchor="start" dominant-baseline="alphabetic" xml:space="preserve">[User subscribed]</text><g><path fill="none" stroke="black" paint-order="fill stroke markers" d=" M 88.97569808339843 1201.290850682 L 1138.1667324090167 1201.290850682" stroke-miterlimit="10" stroke-width="2.3336004714285714" stroke-dasharray="4.083800825"/></g><g/><text fill="black" stroke="none" font-family="sans-serif" font-size="8.8pt" font-style="normal" font-weight="bold" text-decoration="normal" x="161.47122696046873" y="1214.3590133219998" text-anchor="start" dominant-baseline="alphabetic" xml:space="preserve">[User not subscribed]</text></g><g><g/><path fill="none" stroke="black" paint-order="fill stroke markers" d=" M 105.31090138339843 518.4793527420001 L 1021.8557976961263 518.4793527420001 L 1021.8557976961263 972.5980044819996 L 105.31090138339843 972.5980044819996 L 105.31090138339843 518.4793527420001 Z" stroke-miterlimit="10" stroke-width="2.3336004714285714" stroke-dasharray=""/><path fill="white" stroke="black" paint-order="fill stroke markers" d=" M 105.31090138339843 518.4793527420001 L 105.31090138339843 538.0815967020001 L 151.67010498046875 538.0815967020001 L 161.47122696046875 528.280474722 L 161.47122696046875 518.4793527420001 L 105.31090138339843 518.4793527420001" stroke-miterlimit="10" stroke-width="2.3336004714285714" stroke-dasharray=""/><text fill="black" stroke="none" font-family="sans-serif" font-size="8.8pt" font-style="normal" font-weight="bold" text-decoration="normal" x="121.64610468339843" y="531.547515382" text-anchor="start" dominant-baseline="alphabetic" xml:space="preserve">alt</text><text fill="black" stroke="none" font-family="sans-serif" font-size="8.8pt" font-style="normal" font-weight="bold" text-decoration="normal" x="177.80643026046874" y="531.547515382" text-anchor="start" dominant-baseline="alphabetic" xml:space="preserve">[Channel exist]</text><g><path fill="none" stroke="black" paint-order="fill stroke markers" d=" M 105.31090138339843 608.322970892 L 1021.8557976961263 608.322970892" stroke-miterlimit="10" stroke-width="2.3336004714285714" stroke-dasharray="4.083800825"/></g><g/><text fill="black" stroke="none" font-family="sans-serif" font-size="8.8pt" font-style="normal" font-weight="bold" text-decoration="normal" x="177.80643026046874" y="621.3911335319999" text-anchor="start" dominant-baseline="alphabetic" xml:space="preserve">[Channel not exist]</text></g><g/><g/></g><g/><g/><g/><g/><g/><g/><g/></g></svg>
