<svg version="1.1" xmlns="http://www.w3.org/2000/svg" xmlns:xlink="http://www.w3.org/1999/xlink" width="1233" height="1689"><defs/><g><g/><g/><g/><g/><g/><g/><g/><g/><g/><g/><g/><g/><g/><g/><g/><g/><g/><g/><g/><g/><g/><g/><g/><g/><g/><g/><g/><g/><g/><g><rect fill="white" stroke="none" x="0" y="0" width="1233" height="1689"/></g><g><text fill="black" stroke="none" font-family="sans-serif" font-size="16.5pt" font-style="normal" font-weight="normal" text-decoration="normal" x="572.2966277442058" y="24.50280495" text-anchor="start" dominant-baseline="alphabetic" xml:space="preserve">Message</text></g><g><g><path fill="#9F5F9F" stroke="black" paint-order="fill stroke markers" d=" M 8.167601650000003 58.5617038305 L 222.27669843554685 58.5617038305 L 222.27669843554685 1655.4095024219998 L 8.167601650000003 1655.4095024219998 L 8.167601650000003 58.5617038305" stroke-miterlimit="10" stroke-width="1.3612669416666667" stroke-dasharray=""/></g><g><text fill="black" stroke="none" font-family="sans-serif" font-size="11pt" font-style="normal" font-weight="bold" text-decoration="normal" x="96.0668231995117" y="81.43098845050001" text-anchor="start" dominant-baseline="alphabetic" xml:space="preserve">Slack</text></g><g><path fill="none" stroke="black" paint-order="fill stroke markers" d=" M 280.0303743219401 50.394102180500006 L 1115.0909611909506 50.394102180500006 L 1115.0909611909506 1655.4095024219998 L 280.0303743219401 1655.4095024219998 L 280.0303743219401 50.394102180500006" stroke-miterlimit="10" stroke-width="1.3612669416666667" stroke-dasharray=""/></g><g><text fill="black" stroke="none" font-family="sans-serif" font-size="11pt" font-style="normal" font-weight="bold" text-decoration="normal" x="616.4726398023438" y="73.2633868005" text-anchor="start" dominant-baseline="alphabetic" xml:space="preserve">Service Provider Slack </text></g><g><path fill="#42b983" stroke="black" paint-order="fill stroke markers" d=" M 1140.0881922376302 58.5617038305 L 1225.6932319634116 58.5617038305 L 1225.6932319634116 1655.4095024219998 L 1140.0881922376302 1655.4095024219998 L 1140.0881922376302 58.5617038305" stroke-miterlimit="10" stroke-width="1.3612669416666667" stroke-dasharray=""/></g><g><text fill="black" stroke="none" font-family="sans-serif" font-size="11pt" font-style="normal" font-weight="bold" text-decoration="normal" x="1157.235728580013" y="81.43098845050001" text-anchor="start" dominant-baseline="alphabetic" xml:space="preserve">Hopper</text></g></g><g><path fill="none" stroke="black" paint-order="fill stroke markers" d=" M 63.597166190625 167.272481792 L 63.597166190625 1689.7134293519998" stroke-miterlimit="10" stroke-width="1.3612669416666667" stroke-dasharray="12.565541,5.445067766666667"/><path fill="none" stroke="black" paint-order="fill stroke markers" d=" M 170.65171458339842 167.272481792 L 170.65171458339842 1689.7134293519998" stroke-miterlimit="10" stroke-width="1.3612669416666667" stroke-dasharray="12.565541,5.445067766666667"/><path fill="none" stroke="black" paint-order="fill stroke markers" d=" M 352.57518849635414 167.272481792 L 352.57518849635414 1689.7134293519998" stroke-miterlimit="10" stroke-width="1.3612669416666667" stroke-dasharray="12.565541,5.445067766666667"/><path fill="none" stroke="black" paint-order="fill stroke markers" d=" M 483.39853571725257 167.272481792 L 483.39853571725257 1689.7134293519998" stroke-miterlimit="10" stroke-width="1.3612669416666667" stroke-dasharray="12.565541,5.445067766666667"/><path fill="none" stroke="black" paint-order="fill stroke markers" d=" M 611.7845202672526 167.272481792 L 611.7845202672526 1689.7134293519998" stroke-miterlimit="10" stroke-width="1.3612669416666667" stroke-dasharray="12.565541,5.445067766666667"/><path fill="none" stroke="black" paint-order="fill stroke markers" d=" M 847.7002394554687 167.272481792 L 847.7002394554687 1689.7134293519998" stroke-miterlimit="10" stroke-width="1.3612669416666667" stroke-dasharray="12.565541,5.445067766666667"/><path fill="none" stroke="black" paint-order="fill stroke markers" d=" M 1066.5797773876302 167.272481792 L 1066.5797773876302 1689.7134293519998" stroke-miterlimit="10" stroke-width="1.3612669416666667" stroke-dasharray="12.565541,5.445067766666667"/><path fill="none" stroke="black" paint-order="fill stroke markers" d=" M 1182.890712100521 167.272481792 L 1182.890712100521 1689.7134293519998" stroke-miterlimit="10" stroke-width="1.3612669416666667" stroke-dasharray="12.565541,5.445067766666667"/></g><g><g><path fill="white" stroke="black" paint-order="fill stroke markers" d=" M 96.022544741125 120.39044832100001 A 24.2577769005 24.2577769005 0 1 1 96.02253261223755 120.36619054814246 M 32.560279920625 94.74417914 L 32.560279920625 146.03671750200002 M 31.171787640124997 120.39044832100001 L 47.506990940125 120.39044832100001" stroke-miterlimit="10" stroke-width="2.7769845610000004" stroke-dasharray=""/></g><g><g/><text fill="black" stroke="none" font-family="sans-serif" font-size="11pt" font-style="normal" font-weight="normal" text-decoration="normal" x="16.335203300000003" y="162.371920802" text-anchor="start" dominant-baseline="alphabetic" xml:space="preserve">SlackEventApi</text></g><g><path fill="white" stroke="black" paint-order="fill stroke markers" d=" M 203.07709313389842 120.39044832100001 A 24.2577769005 24.2577769005 0 1 1 203.07708100501097 120.36619054814246 M 139.61482831339842 94.74417914 L 139.61482831339842 146.03671750200002 M 138.22633603289842 120.39044832100001 L 154.5615393328984 120.39044832100001" stroke-miterlimit="10" stroke-width="2.7769845610000004" stroke-dasharray=""/></g><g><g/><text fill="black" stroke="none" font-family="sans-serif" font-size="11pt" font-style="normal" font-weight="normal" text-decoration="normal" x="127.19433238124998" y="162.371920802" text-anchor="start" dominant-baseline="alphabetic" xml:space="preserve">SlackWebApi</text></g><g><path fill="white" stroke="black" paint-order="fill stroke markers" d=" M 385.00056704685414 120.39044832100001 A 24.2577769005 24.2577769005 0 1 1 385.0005549179667 120.36619054814246 M 321.5383022263541 94.74417914 L 321.5383022263541 146.03671750200002 M 320.14980994585414 120.39044832100001 L 336.48501324585413 120.39044832100001" stroke-miterlimit="10" stroke-width="2.7769845610000004" stroke-dasharray=""/></g><g><g/><text fill="black" stroke="none" font-family="sans-serif" font-size="11pt" font-style="normal" font-weight="normal" text-decoration="normal" x="288.1979759719401" y="162.371920802" text-anchor="start" dominant-baseline="alphabetic" xml:space="preserve">SpMessageHandler</text></g><g><path fill="white" stroke="black" paint-order="fill stroke markers" d=" M 515.8239142677526 120.39044832100001 A 24.2577769005 24.2577769005 0 1 1 515.8239021388652 120.36619054814246 M 452.36164944725255 94.74417914 L 452.36164944725255 146.03671750200002 M 450.97315716675257 120.39044832100001 L 467.30836046675256 120.39044832100001" stroke-miterlimit="10" stroke-width="2.7769845610000004" stroke-dasharray=""/></g><g><g/><text fill="black" stroke="none" font-family="sans-serif" font-size="11pt" font-style="normal" font-weight="normal" text-decoration="normal" x="433.2876043207682" y="162.371920802" text-anchor="start" dominant-baseline="alphabetic" xml:space="preserve">SpUserHandler</text></g><g><path fill="white" stroke="black" paint-order="fill stroke markers" d=" M 644.2098988177526 120.39044832100001 A 24.2577769005 24.2577769005 0 1 1 644.2098866888651 120.36619054814246 M 580.7476339972526 94.74417914 L 580.7476339972526 146.03671750200002 M 579.3591417167526 120.39044832100001 L 595.6943450167527 120.39044832100001" stroke-miterlimit="10" stroke-width="2.7769845610000004" stroke-dasharray=""/></g><g><g/><text fill="black" stroke="none" font-family="sans-serif" font-size="11pt" font-style="normal" font-weight="normal" text-decoration="normal" x="549.8446704137369" y="162.371920802" text-anchor="start" dominant-baseline="alphabetic" xml:space="preserve">SpChannelHandler</text></g><g><path fill="white" stroke="black" paint-order="fill stroke markers" d=" M 871.9580163559687 120.39044832100001 A 24.2577769005 24.2577769005 0 1 1 871.9580042270812 120.36619054814246 M 844.4331987954687 96.1326714205 L 854.2343207754686 87.96506977050001 M 844.4331987954687 96.1326714205 L 854.2343207754686 104.3002730705" stroke-miterlimit="10" stroke-width="2.7769845610000004" stroke-dasharray=""/></g><g><g/><text fill="black" stroke="none" font-family="sans-serif" font-size="11pt" font-style="normal" font-weight="normal" text-decoration="normal" x="784.5506651756835" y="162.371920802" text-anchor="start" dominant-baseline="alphabetic" xml:space="preserve">SpMessageService</text></g><g><path fill="white" stroke="black" paint-order="fill stroke markers" d=" M 1042.7303805696301 135.255483324 L 1042.7303805696301 100.95155639400002 L 1090.4291742056303 100.95155639400002 L 1090.4291742056303 135.255483324" stroke-miterlimit="10" stroke-width="2.7769845610000004" stroke-dasharray=""/><path fill="white" stroke="black" paint-order="fill stroke markers" d=" M 1090.4291742056303 99.75908655310002 L 1090.4279817457266 99.86689709801664 L 1090.4244044852605 99.97469686196861 L 1090.418442781955 100.08247506506937 L 1090.410097231976 100.19022092958842 L 1090.3993686698707 100.2979236810291 L 1090.3862581684868 100.40557254920603 L 1090.3707670388635 100.51315676932207 L 1090.352896830101 100.62066558304487 L 1090.332649329205 100.72808823958268 L 1090.3100265609087 100.83541399675931 L 1090.2850307874703 100.94263212208854 L 1090.2576645084464 101.04973189384714 L 1090.2279304604417 101.1567026021472 L 1090.1958316168366 101.26353355000704 L 1090.1613711874884 101.37021405442088 L 1090.1245526184116 101.4767334474272 L 1090.0853795914325 101.58308107717545 L 1090.0438560238206 101.68924630899127 L 1089.9999860678986 101.79521852643998 L 1089.9537741106253 101.90098713238812 L 1089.905224773158 102.00654155006325 L 1089.85434291039 102.11187122411154 L 1089.8011336104648 102.21696562165339 L 1089.7456021942687 102.32181423333661 L 1089.6877542148968 102.4264065743874 L 1089.6275954570986 102.53073218565882 L 1089.5651319366998 102.63478063467669 L 1089.5003699000008 102.7385415166828 L 1089.4333158231507 102.84200445567542 L 1089.3639764115017 102.94515910544688 L 1089.2923585989372 103.04799515061815 L 1089.2184695471785 103.15050230767042 L 1089.1423166450693 103.2526703259734 L 1089.0639075078366 103.3544889888104 L 1088.9832499763286 103.4559481144 L 1088.900352116231 103.55703755691417 L 1088.8152222172612 103.6577472074929 L 1088.7278687923379 103.75806699525508 L 1088.6383005767307 103.8579868883055 L 1088.5465265271864 103.95749689473814 L 1088.4525558210341 104.05658706363529 L 1088.3563978552656 104.15524748606262 L 1088.2580622455973 104.25346829606012 L 1088.1575588255087 104.35123967162862 L 1088.0548976452574 104.44855183571204 L 1087.9500889708763 104.54539505717509 L 1087.8431432831455 104.6417596517763 L 1087.7340712765447 104.73763598313651 L 1087.6228838581833 104.83301446370251 L 1087.5095921467107 104.92788555570571 L 1087.3942074712038 105.02223977211597 L 1087.2767413700337 105.11606767759027 L 1087.157205589713 105.20935988941625 L 1087.0356120837196 105.30210707845049 L 1086.9119730113032 105.39429997005135 L 1086.7863007362678 105.48592934500653 L 1086.6586078257362 105.57698604045486 L 1086.5289070488934 105.66746095080268 L 1086.3972113757084 105.75734502863436 L 1086.2635339756391 105.84662928561703 L 1086.1278882163142 105.93530479339938 L 1085.9902876621964 106.02336268450453 L 1085.8507460732264 106.11079415321676 L 1085.7092774034472 106.19759045646204 L 1085.5658957996075 106.28374291468239 L 1085.420615599748 106.36924291270377 L 1085.2734513317685 106.45408190059764 L 1085.1244177119722 106.5382513945359 L 1084.9735296435974 106.62174297763931 L 1084.820802215325 106.70454830081913 L 1084.6662506997707 106.78665908361204 L 1084.5098905519571 106.86806711500819 L 1084.351737407769 106.94876425427228 L 1084.1918070823888 107.02874243175762 L 1084.0301155687155 107.10799364971314 L 1083.866679035766 107.18650998308306 L 1083.7015138270576 107.26428358029946 L 1083.5346364589734 107.34130666406747 L 1083.366063619111 107.41757153214289 L 1083.1958121646137 107.49307055810243 L 1083.0238991204856 107.56779619210644 L 1082.8503416778876 107.6417409616538 L 1082.6751571924192 107.71489747232916 L 1082.4983631823832 107.7872584085424 L 1082.319977327033 107.85881653426023 L 1082.1400174648059 107.9295646937297 L 1081.9585015915377 107.9994958121938 L 1081.7754478586648 108.06860289659899 L 1081.5908745714078 108.1368790362944 L 1081.4048001869417 108.20431740372297 L 1081.2172433125497 108.27091125510412 L 1081.028222703763 108.33665393110826 L 1080.8377572624852 108.40153885752254 L 1080.6458660351013 108.46555954590839 L 1080.4525682105746 108.52870959425034 L 1080.257883118526 108.59098268759617 L 1080.0618302273028 108.65237259868843 L 1079.8644291420308 108.71287318858718 L 1079.6656996026536 108.77247840728386 L 1079.4656614819598 108.83118229430623 L 1079.264334783595 108.88897897931456 L 1079.0617396400608 108.94586268268847 L 1078.8578963107032 109.00182771610504 L 1078.6528251796847 109.05686848310758 L 1078.446546753948 109.11097947966525 L 1078.2390816611637 109.16415529472346 L 1078.030450647668 109.21639061074505 L 1077.8206745763885 109.26768020424194 L 1077.6097744247575 109.31801894629751 L 1077.3977712826145 109.36740180307952 L 1077.1846863500969 109.41582383634344 L 1076.9705409355204 109.46328020392627 L 1076.7553564532482 109.50976616023082 L 1076.539154421549 109.55527705670022 L 1076.3219564604458 109.5998083422827 L 1076.1037842895537 109.64335556388684 L 1075.8846597259083 109.68591436682678 L 1075.664604681783 109.72748049525767 L 1075.4436411624988 109.7680497926013 L 1075.2217912642238 109.80761820196176 L 1074.9990771717628 109.84618176653109 L 1074.7755211563394 109.88373662998495 L 1074.5511455733688 109.92027903686831 L 1074.3259728602225 109.95580533297093 L 1074.100025533984 109.99031196569278 L 1073.873326189198 110.02379548439939 L 1073.6458974956095 110.05625254076675 L 1073.4177621958988 110.08767988911629 L 1073.1889431034053 110.11807438673935 L 1072.959463099848 110.14743299421153 L 1072.729345133036 110.17575277569651 L 1072.498612214574 110.20303089923975 L 1072.2672874175616 110.22926463705164 L 1072.0353938742858 110.25445136578027 L 1071.8029547739077 110.27858856677372 L 1071.5699933601436 110.30167382633203 L 1071.3365329289406 110.32370483594849 L 1071.1025968261476 110.34467939254047 L 1070.8682084451798 110.3645953986698 L 1070.6333912246798 110.38345086275248 L 1070.398168646174 110.40124389925779 L 1070.1625642317244 110.41797272889693 L 1069.9266015415762 110.43363567880087 L 1069.6903041718015 110.44823118268765 L 1069.4536957519404 110.46175778101907 L 1069.2167999426379 110.47421412114657 L 1068.9796404332774 110.4855989574465 L 1068.7422409396122 110.49591115144473 L 1068.5046252013938 110.50514967193044 L 1068.266816979998 110.5133135950593 L 1068.0288400560491 110.5204021044458 L 1067.7907182270408 110.52641449124488 L 1067.5524753049574 110.53135015422289 L 1067.3141351138931 110.53520859981765 L 1067.075721487668 110.53798944218781 L 1066.8372582674465 110.53969240325145 L 1066.5987692993513 110.54031731271388 L 1066.3602784320808 110.53986410808467 L 1066.121809514523 110.53833283468393 L 1065.8833863933708 110.5357236456377 L 1065.6450329107377 110.53203680186272 L 1065.4067729017734 110.52727267204028 L 1065.16863019228 110.52143173257942 L 1064.9306285963303 110.5145145675692 L 1064.6927919138855 110.50652186872036 L 1064.4551439284155 110.4974544352961 L 1064.217708404521 110.48731317403227 L 1063.9805090855564 110.47609909904648 L 1063.743569691256 110.46381333173692 L 1063.5069139153616 110.45045710067006 L 1063.2705654232539 110.4360317414579 L 1063.034547849585 110.42053869662433 L 1062.7988847959152 110.40397951546092 L 1062.5635998283542 110.38635585387198 L 1062.328716475202 110.367669474209 L 1062.094258224599 110.34792224509437 L 1061.8602485221738 110.32711614123453 L 1061.6267107687027 110.30525324322254 L 1061.3936683177656 110.28233573732997 L 1061.161144473414 110.25836591528834 L 1060.929162487838 110.23334617405986 L 1060.6977455590434 110.2072790155978 L 1060.46691682853 110.18016704659628 L 1060.2366993789783 110.15201297822964 L 1060.0071162319418 110.1228196258812 L 1059.7781903455436 110.09258990886192 L 1059.5499446121817 110.06132685011828 L 1059.322401856239 110.0290335759301 L 1059.0955848318017 109.99571331559791 L 1058.869516220383 109.96136940111997 L 1058.644218628656 109.9260052668591 L 1058.4197145861922 109.88962444919923 L 1058.1960265432083 109.85223058619187 L 1057.9731768683223 109.81382741719212 L 1057.7511878463163 109.77441878248487 L 1057.530081675907 109.73400862290077 L 1057.3098804675278 109.6926009794221 L 1057.0906062411154 109.6501999927787 L 1056.8722809239102 109.60680990303389 L 1056.654926348262 109.56243504916051 L 1056.438564249447 109.51707986860694 L 1056.2232162634946 109.47074889685346 L 1056.0089039250242 109.42344676695863 L 1055.7956486650912 109.37517820909602 L 1055.5834718090437 109.3259480500812 L 1055.3723945743905 109.27576121288904 L 1055.1624380686792 109.22462271616142 L 1054.9536232873852 109.17253767370543 L 1054.7459711118129 109.1195112939819 L 1054.5395023070066 109.0655488795846 L 1054.334237519675 109.01065582671 L 1054.1301972761255 108.95483762461768 L 1053.9274019802126 108.89809985508128 L 1053.725871911297 108.84044819183053 L 1053.525627222217 108.78188839998367 L 1053.3266879372757 108.7224263354711 L 1053.129073950235 108.66206794444972 L 1052.932805022329 108.60081926270831 L 1052.7379007802872 108.53868641506405 L 1052.544380714371 108.47567561474989 L 1052.3522641764264 108.41179316279337 L 1052.1615703779466 108.34704544738645 L 1051.9723183881526 108.2814389432467 L 1051.7845271320857 108.21498021096988 L 1051.598215388715 108.14767589637383 L 1051.4134017890597 108.07953272983391 L 1051.2301048143256 108.01055752561001 L 1051.0483427940574 107.94075718116505 L 1050.8681339043058 107.87013867647532 L 1050.6894961658095 107.79870907333245 L 1050.5124474421937 107.72647551463722 L 1050.3370054381828 107.6534452236853 L 1050.1631876978313 107.57962550344493 L 1049.9910116027684 107.50502373582663 L 1049.8204943704602 107.42964738094497 L 1049.6516530524875 107.35350397637264 L 1049.4845045328416 107.27660113638665 L 1049.3190655262351 107.1989465512069 L 1049.1553525764311 107.12054798622721 L 1048.9933820545878 107.04141328123873 L 1048.8331701576224 106.96155034964602 L 1048.6747329065913 106.8809671776757 L 1048.5180861450876 106.7996718235778 L 1048.3632455376567 106.71767241681998 L 1048.2102265682304 106.63497715727459 L 1048.059044538578 106.55159431439867 L 1047.9097145667768 106.46753222640703 L 1047.7622515856992 106.38279929943842 L 1047.6166703415208 106.29740400671491 L 1047.4729853922443 106.21135488769461 L 1047.331211106245 106.12466054721774 L 1047.1913616608335 106.03732965464607 L 1047.053451040838 105.94937094299611 L 1046.9174930372048 105.8607932080657 L 1046.783501245622 105.77160530755455 L 1046.651489065156 105.68181616017836 L 1046.5214696969158 105.59143474477705 L 1046.3934561427293 105.50047009941686 L 1046.2674612038454 105.40893132048649 L 1046.143497479653 105.31682756178758 L 1046.0215773664213 105.22416803361924 L 1045.9017130560599 105.13096200185706 L 1045.7839165348998 105.03721878702656 L 1045.6681995824954 104.94294776337108 L 1045.5545737704454 104.84815835791446 L 1045.4430504612358 104.75286004951823 L 1045.3336408071052 104.65706236793383 L 1045.2263557489275 104.56077489284957 L 1045.1212060151192 104.46400725293273 L 1045.0182021205662 104.36676912486666 L 1044.917354365572 104.26907023238314 L 1044.8186728348278 104.17092034529 L 1044.722167396405 104.07232927849415 L 1044.6278477007663 103.97330689102013 L 1044.5357231798034 103.87386308502415 L 1044.4458030458914 103.77400780480394 L 1044.3580962909682 103.67375103580433 L 1044.272611685637 103.57310280361865 L 1044.1893577782866 103.47207317298626 L 1044.1083428942388 103.37067224678601 L 1044.029575134914 103.26891016502606 L 1043.9530623770227 103.16679710382974 L 1043.878812271777 103.0643432744181 L 1043.8068322441252 102.96155892208871 L 1043.7371294920106 102.85845432519113 L 1043.66971098565 102.75503979409915 L 1043.604583466838 102.65132567017969 L 1043.5417534482722 102.5473223247587 L 1043.481227212902 102.44304015808407 L 1043.4230108133006 102.33848959828556 L 1043.3671100710592 102.23368110033203 L 1043.3135305762057 102.12862514498595 L 1043.2622776866451 102.02333223775527 L 1043.213356527623 101.91781290784299 L 1043.1667719912155 101.81207770709416 L 1043.1225287358363 101.70613720894077 L 1043.080631185775 101.60000200734433 L 1043.0410835307512 101.49368271573654 L 1043.0038897254976 101.387189965958 L 1042.9690534893637 101.2805344071949 L 1042.936578305944 101.17372670491429 L 1042.90646742273 101.06677753979733 L 1042.8787238507848 100.95969760667145 L 1042.8533503644423 100.85249761344073 L 1042.8303495010305 100.74518828001514 L 1042.809723560616 100.63778033723861 L 1042.7914746057759 100.5302845258159 L 1042.7756044613905 100.42271159523858 L 1042.762114714461 100.31507230271008 L 1042.7510067139508 100.20737741206993 L 1042.7422815706507 100.09963769271747 L 1042.7359401570677 99.99186391853482 L 1042.731983107338 99.88406686680962 L 1042.7304108171634 99.77625731715719 L 1042.7312234437713 99.66844605044267 L 1042.7344209059 99.56064384770288 L 1042.7400028838056 99.45286148906825 L 1042.7479688192952 99.34510975268485 L 1042.758317915782 99.23739941363651 L 1042.7710491383648 99.12974124286738 L 1042.786161213932 99.02214600610482 L 1042.8036526312885 98.91462446278284 L 1042.8235216413073 98.80718736496618 L 1042.845766257104 98.69984545627509 L 1042.8703842542354 98.59260947081098 L 1042.8973731709225 98.48549013208303 L 1042.9267303082959 98.37849815193587 L 1042.9584527306663 98.27164422947833 L 1042.992537265818 98.16493905001363 L 1043.0289805053262 98.05839328397077 L 1043.067778804897 97.9520175858376 L 1043.1089282847327 97.84582259309526 L 1043.1524248299197 97.73981892515455 L 1043.1982640908398 97.6340171822939 L 1043.246441483605 97.52842794459946 L 1043.296952190516 97.423061770907 L 1043.3497911605448 97.31792919774607 L 1043.4049531098378 97.21304073828638 L 1043.4624325222464 97.10840688128647 L 1043.5222236498773 97.00403809004486 L 1043.5843205136673 96.89994480135368 L 1043.6487169039817 96.79613742445507 L 1043.7154063812354 96.6926263400002 L 1043.7843822765362 96.58942189901128 L 1043.855637692352 96.48653442184639 L 1043.9291655032007 96.38397419716749 L 1044.0049583563623 96.28175148091161 L 1044.0830086726148 96.17987649526519 L 1044.1633086469915 96.07835942764187 L 1044.245850249562 95.97721042966384 L 1044.3306252262348 95.8764396161466 L 1044.4176250995827 95.77605706408754 L 1044.5068411696911 95.67607281165819 L 1044.598264515027 95.57649685720048 L 1044.6918859933326 95.47733915822688 L 1044.7876962425378 95.37860963042466 L 1044.8856856816974 95.28031814666433 L 1044.9858445119492 95.18247453601234 L 1045.0881627174936 95.08508858274823 L 1045.1926300665955 94.98817002538617 L 1045.2992361126069 94.89172855570112 L 1045.4079701950122 94.79577381775971 L 1045.5188214404936 94.70031540695574 L 1045.631778764019 94.60536286905077 L 1045.74683086995 94.51092569921943 L 1045.863966253172 94.41701334110004 L 1045.9831732002447 94.32363518585014 L 1046.104439790572 94.23080057120742 L 1046.2277538975964 94.13851878055601 L 1046.35310319001 94.04679904199807 L 1046.4804751329875 93.955650527431 L 1046.6098569894414 93.86508235163033 L 1046.7412358212935 93.77510357133815 L 1046.87459849077 93.68572318435751 L 1047.0099316617154 93.59695012865262 L 1047.1472218009253 93.5087932814551 L 1047.2864551795 93.42126145837616 L 1047.427617874218 93.33436341252519 L 1047.5706957689272 93.24810783363438 L 1047.7156745559573 93.1625033471897 L 1047.8625397375506 93.07755851356848 L 1048.0112766273112 92.9932818271833 L 1048.1618703516742 92.90968171563254 L 1048.3143058513924 92.82676653885773 L 1048.4685678830433 92.74454458830742 L 1048.624641020552 92.66302408610815 L 1048.7825096567349 92.58221318424222 L 1048.9421580048597 92.50211996373247 L 1049.103570100225 92.4227524338342 L 1049.2667298017552 92.34411853123427 L 1049.431620793617 92.26622611925741 L 1049.5982265868479 92.1890829870799 L 1049.7665305210076 92.11269684895069 L 1049.9365157658428 92.0370753434199 L 1050.1081653229712 91.9622260325751 L 1050.2814620275794 91.888156401285 L 1050.456388550142 91.81487385645099 L 1050.632927398152 91.74238572626649 L 1050.8110609178723 91.67069925948411 L 1050.9907712960987 91.59982162469079 L 1051.1720405619437 91.52975990959095 L 1051.3548505886315 91.4605211202977 L 1051.5391830953117 91.3921121806323 L 1051.7250196488874 91.32453993143167 L 1051.9123416658579 91.25781112986445 L 1052.101130414178 91.1919324487552 L 1052.2913670151297 91.12691047591709 L 1052.4830324452118 91.06275171349324 L 1052.676107538041 90.99946257730645 L 1052.8705729862686 90.93704939621756 L 1053.066409343512 90.87551841149269 L 1053.263597026299 90.81487577617904 L 1053.4621163160252 90.75512755448958 L 1053.6619473609271 90.69627972119672 L 1053.8630701780671 90.63833816103474 L 1054.0654646553307 90.58130866811136 L 1054.2691105534388 90.52519694532836 L 1054.4739875079717 90.47000860381125 L 1054.6800750314044 90.41574916234819 L 1054.8873525151564 90.36242404683813 L 1055.0957992316519 90.31003858974816 L 1055.305394336393 90.25859802958036 L 1055.516116870044 90.20810751034786 L 1055.727945760527 90.1585720810605 L 1055.9408598251296 90.10999669521995 L 1056.1548377726226 90.0623862103243 L 1056.3698582053898 90.01574538738238 L 1056.585899621567 89.9700788904376 L 1056.8029404171928 89.92539128610161 L 1057.0209588883679 89.88168704309761 L 1057.2399332334276 89.83897053181346 L 1057.4598415551193 89.79724602386472 L 1057.6806618627945 89.75651769166738 L 1057.902372074606 89.71678960802075 L 1058.124950019718 89.67806574570005 L 1058.348373440521 89.64034997705929 L 1058.5726199948592 89.60364607364387 L 1058.7976672582643 89.56795770581357 L 1059.023492726197 89.53328844237541 L 1059.250073816299 89.49964175022686 L 1059.47738787065 89.46702099400908 L 1059.7054121580343 89.43542943577052 L 1059.9341238762127 89.40487023464067 L 1060.1635001542043 89.37534644651419 L 1060.3935180545723 89.34686102374526 L 1060.6241545757184 89.31941681485246 L 1060.855386654183 89.29301656423378 L 1061.0871911669503 89.2676629118923 L 1061.3195449337627 89.2433583931721 L 1061.5524247194369 89.22010543850483 L 1061.7858072361885 89.19790637316656 L 1062.01966914596 89.17676341704532 L 1062.2539870627559 89.15667868441913 L 1062.4887375549795 89.13765418374449 L 1062.723897147777 89.11969181745562 L 1062.9594423253855 89.10279338177418 L 1063.195349533483 89.08696056652965 L 1063.4315951815458 89.0721949549904 L 1063.6681556452056 89.05849802370521 L 1063.9050072686134 89.04587114235585 L 1064.142126366804 89.03431557361992 L 1064.3794892280655 89.02383247304465 L 1064.6170721163091 89.01442288893136 L 1064.8548512734446 89.00608776223065 L 1065.092802921754 88.99882792644821 L 1065.3309032662708 88.9926441075616 L 1065.5691284971588 88.98753692394752 L 1065.8074547920937 88.9835068863201 L 1066.0458583186448 88.98055439767974 L 1066.2843152366577 88.97867975327284 L 1066.5228017006395 88.97788314056228 L 1066.7612938621426 88.97816463920867 L 1066.9997678721495 88.97952422106238 L 1067.2381998834578 88.98196175016635 L 1067.4765660530652 88.98547698276971 L 1067.7148425445537 88.99006956735212 L 1067.953005530472 88.99573904465896 L 1068.1910311947206 89.00248484774721 L 1068.428895734931 89.0103063020422 L 1068.6665753648479 89.019202625405 L 1068.9040463167057 89.0291729282107 L 1069.1412848436078 89.04021621343732 L 1069.3782672218988 89.05233137676555 L 1069.6149697535384 89.06551720668914 L 1069.8513687684706 89.0797723846361 L 1070.087440626991 89.0950954851005 L 1070.3231617221109 89.11148497578507 L 1070.5585084819165 89.12893921775441 L 1070.7934573719283 89.14745646559885 L 1071.0279848974533 89.16703486760905 L 1071.262067605934 89.18767246596111 L 1071.4956820892946 89.20936719691241 L 1071.7288049862818 89.23211689100792 L 1071.9614129847998 89.2559192732972 L 1072.193482824243 89.28077196356185 L 1072.4249912978205 89.30667247655354 L 1072.6559152548778 89.33361822224259 L 1072.886231603212 89.36160650607685 L 1073.11591731138 89.39063452925127 L 1073.3449494110023 89.42069938898774 L 1073.57330499906 89.45179807882532 L 1073.8009612401845 89.48392748892095 L 1074.0278953689412 89.5170844063604 L 1074.2540846921067 89.55126551547954 L 1074.4795065909368 89.58646739819596 L 1074.70413852343 89.62268653435072 L 1074.9279580265795 89.65991930206037 L 1075.150942718622 89.69816197807918 L 1075.373070301274 89.73741073817143 L 1075.5943185619626 89.7776616574938 L 1075.8146653760457 89.8189107109879 L 1076.0340887090256 89.86115377378276 L 1076.252566618752 89.9043866216073 L 1076.470077257616 89.94860493121277 L 1076.6865988747347 89.99380428080505 L 1076.9021098181272 90.03998015048685 L 1077.1165885368785 90.0871279227097 L 1077.3300135832953 90.13524288273562 L 1077.5423636150513 90.18432021910876 L 1077.7536173973199 90.23435502413635 L 1077.9637538048992 90.28534229437957 L 1078.1727518243233 90.33727693115392 L 1078.3805905559643 90.39015374103897 L 1078.5872492161227 90.44396743639781 L 1078.7927071391043 90.49871263590576 L 1078.9969437792884 90.55438386508847 L 1079.1999387131807 90.6109755568694 L 1079.4016716414574 90.66848205212658 L 1079.6021223909934 90.72689760025837 L 1079.801270916881 90.78621635975864 L 1079.9990973044337 90.84643239880089 L 1080.1955817711773 90.90753969583137 L 1080.390704668829 90.96953214017132 L 1080.5844464852617 91.03240353262795 L 1080.7767878464551 91.09614758611443 L 1080.9677095184336 91.1607579262785 L 1081.1571924091888 91.22622809214002 L 1081.3452175705897 91.29255153673692 L 1081.5317662002767 91.35972162778006 L 1081.7168196435425 91.42773164831627 L 1081.9003593951968 91.49657479740019 L 1082.0823671014175 91.56624419077427 L 1082.2628245615854 91.63673286155725 L 1082.4417137301052 91.70803376094076 L 1082.6190167182092 91.78013975889431 L 1082.7947157957458 91.85304364487818 L 1082.9687933929542 91.92673812856452 L 1083.1412321022194 92.00121584056639 L 1083.3120146798144 92.07646933317463 L 1083.4811240476238 92.15249108110271 L 1083.6485432948514 92.22927348223918 L 1083.8142556797122 92.3068088584079 L 1083.978244631106 92.3850894561359 L 1084.140493750274 92.4641074474286 L 1084.3009868124395 92.54385493055275 L 1084.4597077684302 92.62432393082648 L 1084.6166407462829 92.70550640141681 L 1084.7717700528303 92.78739422414436 L 1084.925080175271 92.86997921029509 L 1085.0765557827208 92.95325310143917 L 1085.226181727745 93.03720757025692 L 1085.3739430478738 93.12183422137142 L 1085.5198249670982 93.20712459218805 L 1085.6638128973482 93.29307015374081 L 1085.8058924399502 93.3796623115452 L 1085.946049387069 93.46689240645757 L 1086.0842697231262 93.55475171554113 L 1086.2205396262036 93.64323145293818 L 1086.3548454694244 93.73232277074871 L 1086.4871738223162 93.8220167599152 L 1086.6175114521538 93.91230445111346 L 1086.7458453252832 94.00317681564962 L 1086.8721626084239 94.09462476636294 L 1086.9964506699525 94.18663915853458 L 1087.118697081167 94.27921079080198 L 1087.2388896175278 94.37233040607906 L 1087.3570162598812 94.46598869248189 L 1087.473065195662 94.56017628425988 L 1087.5870248200729 94.65488376273235 L 1087.6988837372464 94.75010165723037 L 1087.8086307613844 94.84582044604385 L 1087.9162549178754 94.94203055737364 L 1088.021745444394 95.03872237028881 L 1088.1250917919751 95.13588621568863 L 1088.22628362607 95.23351237726953 L 1088.3253108275799 95.33159109249674 L 1088.422163493867 95.43011255358043 L 1088.5168319397453 95.5290669084566 L 1088.6093066984492 95.62844426177223 L 1088.69957852258 95.72823467587482 L 1088.7876383850303 95.82842817180608 L 1088.8734774798875 95.92901473029994 L 1088.9570872233132 96.02998429278436 L 1089.0384592544033 96.13132676238725 L 1089.1175854360222 96.23303200494607 L 1089.1944578556177 96.33508985002135 L 1089.2690688260118 96.4374900919136 L 1089.3414108861698 96.54022249068399 L 1089.411476801946 96.64327677317824 L 1089.479259566807 96.746642634054 L 1089.544752402533 96.85030973681128 L 1089.607948759895 96.95426771482623 L 1089.6688423193095 97.05850617238767 L 1089.727426991472 97.1630146857367 L 1089.7836969179637 97.26778280410907 L 1089.837646471839 97.37280005078027 L 1089.889270258187 97.47805592411314 L 1089.938563114673 97.58353989860805 L 1089.9855201120513 97.68924142595546 L 1090.0301365546622 97.79514993609072 L 1090.0724079808983 97.90125483825108 L 1090.1123301636521 98.00754552203473 L 1090.1498991107387 98.11401135846187 L 1090.185111065295 98.22064170103758 L 1090.2179625061542 98.32742588681647 L 1090.2484501482 98.43435323746894 L 1090.2765709426938 98.54141306034904 L 1090.3023220775792 98.64859464956368 L 1090.3257009777642 98.75588728704328 L 1090.3467053053787 98.86328024361347 L 1090.3653329600068 98.97076278006811 L 1090.381582078899 99.07832414824313 L 1090.395451037157 99.18595359209134 L 1090.4069384478962 99.29364034875802 L 1090.4160431623854 99.40137364965727 L 1090.4227642701605 99.50914272154878 L 1090.4271010991167 99.61693678761516 L 1090.4290532155742 99.72474506853963 M 1090.4291742056303 134.0630134831 L 1090.4279817457266 134.17082402801663 L 1090.4244044852605 134.2786237919686 L 1090.418442781955 134.38640199506935 L 1090.410097231976 134.49414785958842 L 1090.3993686698707 134.60185061102908 L 1090.3862581684868 134.70949947920602 L 1090.3707670388635 134.81708369932204 L 1090.352896830101 134.92459251304487 L 1090.332649329205 135.03201516958265 L 1090.3100265609087 135.1393409267593 L 1090.2850307874703 135.24655905208851 L 1090.2576645084464 135.35365882384713 L 1090.2279304604417 135.46062953214718 L 1090.1958316168366 135.56746048000701 L 1090.1613711874884 135.67414098442086 L 1090.1245526184116 135.78066037742718 L 1090.0853795914325 135.88700800717544 L 1090.0438560238206 135.99317323899126 L 1089.9999860678986 136.09914545643997 L 1089.9537741106253 136.2049140623881 L 1089.905224773158 136.31046848006324 L 1089.85434291039 136.41579815411154 L 1089.8011336104648 136.5208925516534 L 1089.7456021942687 136.62574116333658 L 1089.6877542148968 136.7303335043874 L 1089.6275954570986 136.8346591156588 L 1089.5651319366998 136.9387075646767 L 1089.5003699000008 137.0424684466828 L 1089.4333158231507 137.14593138567542 L 1089.3639764115017 137.24908603544688 L 1089.2923585989372 137.35192208061815 L 1089.2184695471785 137.4544292376704 L 1089.1423166450693 137.5565972559734 L 1089.0639075078366 137.6584159188104 L 1088.9832499763286 137.7598750444 L 1088.900352116231 137.86096448691416 L 1088.8152222172612 137.96167413749288 L 1088.7278687923379 138.06199392525505 L 1088.6383005767307 138.1619138183055 L 1088.5465265271864 138.26142382473813 L 1088.4525558210341 138.3605139936353 L 1088.3563978552656 138.4591744160626 L 1088.2580622455973 138.5573952260601 L 1088.1575588255087 138.6551666016286 L 1088.0548976452574 138.75247876571203 L 1087.9500889708763 138.84932198717507 L 1087.8431432831455 138.94568658177627 L 1087.7340712765447 139.04156291313652 L 1087.6228838581833 139.1369413937025 L 1087.5095921467107 139.2318124857057 L 1087.3942074712038 139.32616670211596 L 1087.2767413700337 139.41999460759027 L 1087.157205589713 139.51328681941624 L 1087.0356120837196 139.60603400845048 L 1086.9119730113032 139.69822690005134 L 1086.7863007362678 139.7898562750065 L 1086.6586078257362 139.88091297045483 L 1086.5289070488934 139.97138788080267 L 1086.3972113757084 140.06127195863436 L 1086.2635339756391 140.15055621561703 L 1086.1278882163142 140.23923172339937 L 1085.9902876621964 140.3272896145045 L 1085.8507460732264 140.41472108321673 L 1085.7092774034472 140.501517386462 L 1085.5658957996075 140.58766984468238 L 1085.420615599748 140.67316984270377 L 1085.2734513317685 140.75800883059765 L 1085.1244177119722 140.8421783245359 L 1084.9735296435974 140.9256699076393 L 1084.820802215325 141.00847523081913 L 1084.6662506997707 141.09058601361204 L 1084.5098905519571 141.17199404500818 L 1084.351737407769 141.25269118427227 L 1084.1918070823888 141.3326693617576 L 1084.0301155687155 141.41192057971313 L 1083.866679035766 141.49043691308304 L 1083.7015138270576 141.56821051029945 L 1083.5346364589734 141.64523359406746 L 1083.366063619111 141.72149846214288 L 1083.1958121646137 141.79699748810242 L 1083.0238991204856 141.87172312210643 L 1082.8503416778876 141.94566789165378 L 1082.6751571924192 142.01882440232913 L 1082.4983631823832 142.0911853385424 L 1082.319977327033 142.16274346426022 L 1082.1400174648059 142.2334916237297 L 1081.9585015915377 142.3034227421938 L 1081.7754478586648 142.372529826599 L 1081.5908745714078 142.4408059662944 L 1081.4048001869417 142.50824433372296 L 1081.2172433125497 142.5748381851041 L 1081.028222703763 142.64058086110825 L 1080.8377572624852 142.70546578752254 L 1080.6458660351013 142.7694864759084 L 1080.4525682105746 142.83263652425032 L 1080.257883118526 142.89490961759617 L 1080.0618302273028 142.95629952868842 L 1079.8644291420308 143.01680011858718 L 1079.6656996026536 143.07640533728383 L 1079.4656614819598 143.13510922430623 L 1079.264334783595 143.19290590931453 L 1079.0617396400608 143.24978961268846 L 1078.8578963107032 143.30575464610504 L 1078.6528251796847 143.36079541310758 L 1078.446546753948 143.41490640966524 L 1078.2390816611637 143.46808222472345 L 1078.030450647668 143.52031754074505 L 1077.8206745763885 143.57160713424193 L 1077.6097744247575 143.6219458762975 L 1077.3977712826145 143.67132873307952 L 1077.1846863500969 143.71975076634342 L 1076.9705409355204 143.76720713392626 L 1076.7553564532482 143.81369309023083 L 1076.539154421549 143.8592039867002 L 1076.3219564604458 143.9037352722827 L 1076.1037842895537 143.94728249388683 L 1075.8846597259083 143.98984129682677 L 1075.664604681783 144.03140742525764 L 1075.4436411624988 144.07197672260128 L 1075.2217912642238 144.11154513196175 L 1074.9990771717628 144.15010869653108 L 1074.7755211563394 144.18766355998494 L 1074.5511455733688 144.2242059668683 L 1074.3259728602225 144.2597322629709 L 1074.100025533984 144.29423889569279 L 1073.873326189198 144.32772241439937 L 1073.6458974956095 144.36017947076672 L 1073.4177621958988 144.39160681911628 L 1073.1889431034053 144.42200131673934 L 1072.959463099848 144.45135992421152 L 1072.729345133036 144.4796797056965 L 1072.498612214574 144.50695782923975 L 1072.2672874175616 144.53319156705163 L 1072.0353938742858 144.55837829578024 L 1071.8029547739077 144.5825154967737 L 1071.5699933601436 144.60560075633202 L 1071.3365329289406 144.62763176594848 L 1071.1025968261476 144.64860632254045 L 1070.8682084451798 144.66852232866978 L 1070.6333912246798 144.68737779275247 L 1070.398168646174 144.70517082925778 L 1070.1625642317244 144.72189965889692 L 1069.9266015415762 144.73756260880086 L 1069.6903041718015 144.75215811268765 L 1069.4536957519404 144.76568471101908 L 1069.2167999426379 144.77814105114655 L 1068.9796404332774 144.7895258874465 L 1068.7422409396122 144.7998380814447 L 1068.5046252013938 144.80907660193043 L 1068.266816979998 144.8172405250593 L 1068.0288400560491 144.82432903444578 L 1067.7907182270408 144.83034142124487 L 1067.5524753049574 144.83527708422287 L 1067.3141351138931 144.83913552981764 L 1067.075721487668 144.8419163721878 L 1066.8372582674465 144.84361933325144 L 1066.5987692993513 144.84424424271387 L 1066.3602784320808 144.84379103808467 L 1066.121809514523 144.84225976468392 L 1065.8833863933708 144.83965057563768 L 1065.6450329107377 144.8359637318627 L 1065.4067729017734 144.83119960204027 L 1065.16863019228 144.82535866257942 L 1064.9306285963303 144.81844149756918 L 1064.6927919138855 144.81044879872033 L 1064.4551439284155 144.8013813652961 L 1064.217708404521 144.79124010403225 L 1063.9805090855564 144.78002602904647 L 1063.743569691256 144.7677402617369 L 1063.5069139153616 144.75438403067005 L 1063.2705654232539 144.73995867145788 L 1063.034547849585 144.72446562662432 L 1062.7988847959152 144.7079064454609 L 1062.5635998283542 144.69028278387196 L 1062.328716475202 144.671596404209 L 1062.094258224599 144.65184917509436 L 1061.8602485221738 144.6310430712345 L 1061.6267107687027 144.6091801732225 L 1061.3936683177656 144.58626266732998 L 1061.161144473414 144.56229284528834 L 1060.929162487838 144.53727310405984 L 1060.6977455590434 144.5112059455978 L 1060.46691682853 144.48409397659628 L 1060.2366993789783 144.45593990822962 L 1060.0071162319418 144.4267465558812 L 1059.7781903455436 144.3965168388619 L 1059.5499446121817 144.36525378011828 L 1059.322401856239 144.3329605059301 L 1059.0955848318017 144.2996402455979 L 1058.869516220383 144.26529633111994 L 1058.644218628656 144.22993219685907 L 1058.4197145861922 144.19355137919922 L 1058.1960265432083 144.15615751619185 L 1057.9731768683223 144.1177543471921 L 1057.7511878463163 144.07834571248486 L 1057.530081675907 144.03793555290076 L 1057.3098804675278 143.9965279094221 L 1057.0906062411154 143.9541269227787 L 1056.8722809239102 143.9107368330339 L 1056.654926348262 143.8663619791605 L 1056.438564249447 143.82100679860693 L 1056.2232162634946 143.77467582685347 L 1056.0089039250242 143.72737369695864 L 1055.7956486650912 143.679105139096 L 1055.5834718090437 143.62987498008118 L 1055.3723945743905 143.579688142889 L 1055.1624380686792 143.52854964616142 L 1054.9536232873852 143.4764646037054 L 1054.7459711118129 143.4234382239819 L 1054.5395023070066 143.36947580958457 L 1054.334237519675 143.31458275671 L 1054.1301972761255 143.25876455461767 L 1053.9274019802126 143.20202678508127 L 1053.725871911297 143.1443751218305 L 1053.525627222217 143.08581532998366 L 1053.3266879372757 143.02635326547107 L 1053.129073950235 142.9659948744497 L 1052.932805022329 142.9047461927083 L 1052.7379007802872 142.84261334506402 L 1052.544380714371 142.77960254474988 L 1052.3522641764264 142.71572009279336 L 1052.1615703779466 142.65097237738644 L 1051.9723183881526 142.5853658732467 L 1051.7845271320857 142.51890714096987 L 1051.598215388715 142.4516028263738 L 1051.4134017890597 142.3834596598339 L 1051.2301048143256 142.31448445561 L 1051.0483427940574 142.24468411116504 L 1050.8681339043058 142.17406560647532 L 1050.6894961658095 142.10263600333244 L 1050.5124474421937 142.03040244463722 L 1050.3370054381828 141.9573721536853 L 1050.1631876978313 141.88355243344492 L 1049.9910116027684 141.80895066582661 L 1049.8204943704602 141.73357431094496 L 1049.6516530524875 141.65743090637264 L 1049.4845045328416 141.58052806638665 L 1049.3190655262351 141.5028734812069 L 1049.1553525764311 141.42447491622718 L 1048.9933820545878 141.34534021123872 L 1048.8331701576224 141.265477279646 L 1048.6747329065913 141.1848941076757 L 1048.5180861450876 141.10359875357778 L 1048.3632455376567 141.02159934681995 L 1048.2102265682304 140.93890408727458 L 1048.059044538578 140.85552124439866 L 1047.9097145667768 140.77145915640702 L 1047.7622515856992 140.68672622943842 L 1047.6166703415208 140.6013309367149 L 1047.4729853922443 140.5152818176946 L 1047.331211106245 140.42858747721772 L 1047.1913616608335 140.34125658464606 L 1047.053451040838 140.2532978729961 L 1046.9174930372048 140.1647201380657 L 1046.783501245622 140.07553223755454 L 1046.651489065156 139.98574309017835 L 1046.5214696969158 139.89536167477704 L 1046.3934561427293 139.80439702941683 L 1046.2674612038454 139.71285825048648 L 1046.143497479653 139.62075449178758 L 1046.0215773664213 139.52809496361922 L 1045.9017130560599 139.43488893185705 L 1045.7839165348998 139.34114571702654 L 1045.6681995824954 139.24687469337107 L 1045.5545737704454 139.15208528791445 L 1045.4430504612358 139.05678697951822 L 1045.3336408071052 138.96098929793382 L 1045.2263557489275 138.86470182284955 L 1045.1212060151192 138.76793418293272 L 1045.0182021205662 138.67069605486665 L 1044.917354365572 138.57299716238313 L 1044.8186728348278 138.47484727529 L 1044.722167396405 138.37625620849414 L 1044.6278477007663 138.27723382102013 L 1044.5357231798034 138.17779001502413 L 1044.4458030458914 138.07793473480393 L 1044.3580962909682 137.9776779658043 L 1044.272611685637 137.87702973361863 L 1044.1893577782866 137.77600010298625 L 1044.1083428942388 137.67459917678602 L 1044.029575134914 137.57283709502605 L 1043.9530623770227 137.47072403382973 L 1043.878812271777 137.3682702044181 L 1043.8068322441252 137.26548585208872 L 1043.7371294920106 137.16238125519112 L 1043.66971098565 137.05896672409915 L 1043.604583466838 136.95525260017968 L 1043.5417534482722 136.8512492547587 L 1043.481227212902 136.74696708808406 L 1043.4230108133006 136.64241652828557 L 1043.3671100710592 136.53760803033202 L 1043.3135305762057 136.43255207498592 L 1043.2622776866451 136.32725916775524 L 1043.213356527623 136.22173983784296 L 1043.1667719912155 136.11600463709416 L 1043.1225287358363 136.01006413894075 L 1043.080631185775 135.90392893734432 L 1043.0410835307512 135.79760964573654 L 1043.0038897254976 135.69111689595798 L 1042.9690534893637 135.5844613371949 L 1042.936578305944 135.47765363491428 L 1042.90646742273 135.37070446979732 L 1042.8787238507848 135.26362453667144 L 1042.8533503644423 135.15642454344072 L 1042.8303495010305 135.04911521001512 L 1042.809723560616 134.9417072672386 L 1042.7914746057759 134.83421145581588 L 1042.7756044613905 134.72663852523857 L 1042.762114714461 134.61899923271008 L 1042.7510067139508 134.5113043420699 L 1042.7422815706507 134.40356462271745 L 1042.7359401570677 134.2957908485348 L 1042.731983107338 134.1879937968096 L 1042.7304108171634 134.08018424715718" stroke-miterlimit="10" stroke-width="2.7769845610000004" stroke-dasharray=""/></g><g><g/><text fill="black" stroke="none" font-family="sans-serif" font-size="11pt" font-style="normal" font-weight="normal" text-decoration="normal" x="1026.23619523431" y="162.371920802" text-anchor="start" dominant-baseline="alphabetic" xml:space="preserve">SpDatabase</text></g><g><path fill="white" stroke="black" paint-order="fill stroke markers" d=" M 1215.3160906510209 120.39044832100001 A 24.2577769005 24.2577769005 0 1 1 1215.3160785221335 120.36619054814246 M 1151.853825830521 94.74417914 L 1151.853825830521 146.03671750200002 M 1150.465333550021 120.39044832100001 L 1166.800536850021 120.39044832100001" stroke-miterlimit="10" stroke-width="2.7769845610000004" stroke-dasharray=""/></g><g><g/><text fill="black" stroke="none" font-family="sans-serif" font-size="11pt" font-style="normal" font-weight="normal" text-decoration="normal" x="1148.2557938876303" y="162.371920802" text-anchor="start" dominant-baseline="alphabetic" xml:space="preserve">HopperApi</text></g></g><g><path fill="white" stroke="black" paint-order="fill stroke markers" d=" M 55.429564540625 175.440083442 L 71.764767840625 175.440083442 L 71.764767840625 1673.3782260519997 L 55.429564540625 1673.3782260519997 L 55.429564540625 175.440083442" stroke-miterlimit="10" stroke-width="1.3612669416666667" stroke-dasharray=""/><path fill="white" stroke="black" paint-order="fill stroke markers" d=" M 162.48411293339842 175.440083442 L 178.8193162333984 175.440083442 L 178.8193162333984 1673.3782260519997 L 162.48411293339842 1673.3782260519997 L 162.48411293339842 175.440083442" stroke-miterlimit="10" stroke-width="1.3612669416666667" stroke-dasharray=""/><path fill="white" stroke="black" paint-order="fill stroke markers" d=" M 1174.7231104505208 175.440083442 L 1191.058313750521 175.440083442 L 1191.058313750521 1673.3782260519997 L 1174.7231104505208 1673.3782260519997 L 1174.7231104505208 175.440083442" stroke-miterlimit="10" stroke-width="1.3612669416666667" stroke-dasharray=""/><path fill="white" stroke="black" paint-order="fill stroke markers" d=" M 344.40758684635415 221.178652682 L 360.74279014635414 221.178652682 L 360.74279014635414 1632.540217802 L 344.40758684635415 1632.540217802 L 344.40758684635415 221.178652682" stroke-miterlimit="10" stroke-width="1.3612669416666667" stroke-dasharray=""/><path fill="white" stroke="black" paint-order="fill stroke markers" d=" M 839.5326378054687 266.917221922 L 855.8678411054688 266.917221922 L 855.8678411054688 1541.0630793219998 L 839.5326378054687 1541.0630793219998 L 839.5326378054687 266.917221922" stroke-miterlimit="10" stroke-width="1.3612669416666667" stroke-dasharray=""/><path fill="white" stroke="black" paint-order="fill stroke markers" d=" M 1058.4121757376302 358.394360402 L 1074.7473790376303 358.394360402 L 1074.7473790376303 538.081596702 L 1058.4121757376302 538.081596702 L 1058.4121757376302 358.394360402" stroke-miterlimit="10" stroke-width="1.3612669416666667" stroke-dasharray=""/><path fill="white" stroke="black" paint-order="fill stroke markers" d=" M 1066.5797773876302 358.394360402 L 1082.9149806876303 358.394360402 L 1082.9149806876303 448.237978552 L 1066.5797773876302 448.237978552 L 1066.5797773876302 358.394360402" stroke-miterlimit="10" stroke-width="1.3612669416666667" stroke-dasharray=""/><path fill="white" stroke="black" paint-order="fill stroke markers" d=" M 475.2309340672526 583.8201659419999 L 491.56613736725257 583.8201659419999 L 491.56613736725257 721.0358736619997 L 475.2309340672526 721.0358736619997 L 475.2309340672526 583.8201659419999" stroke-miterlimit="10" stroke-width="1.3612669416666667" stroke-dasharray=""/><path fill="white" stroke="black" paint-order="fill stroke markers" d=" M 1058.4121757376302 882.7543863319996 L 1074.7473790376303 882.7543863319996 L 1074.7473790376303 1062.4416226319995 L 1058.4121757376302 1062.4416226319995 L 1058.4121757376302 882.7543863319996" stroke-miterlimit="10" stroke-width="1.3612669416666667" stroke-dasharray=""/><path fill="white" stroke="black" paint-order="fill stroke markers" d=" M 1066.5797773876302 882.7543863319996 L 1082.9149806876303 882.7543863319996 L 1082.9149806876303 972.5980044819995 L 1066.5797773876302 972.5980044819995 L 1066.5797773876302 882.7543863319996" stroke-miterlimit="10" stroke-width="1.3612669416666667" stroke-dasharray=""/><path fill="white" stroke="black" paint-order="fill stroke markers" d=" M 603.6169186172525 1108.1801918719996 L 619.9521219172526 1108.1801918719996 L 619.9521219172526 1245.3958995919998 L 603.6169186172525 1245.3958995919998 L 603.6169186172525 1108.1801918719996" stroke-miterlimit="10" stroke-width="1.3612669416666667" stroke-dasharray=""/><path fill="white" stroke="black" paint-order="fill stroke markers" d=" M 847.7002394554687 1428.3501765519998 L 864.0354427554688 1428.3501765519998 L 864.0354427554688 1474.0887457919998 L 847.7002394554687 1474.0887457919998 L 847.7002394554687 1428.3501765519998" stroke-miterlimit="10" stroke-width="1.3612669416666667" stroke-dasharray=""/><g><text fill="black" stroke="none" font-family="sans-serif" font-size="11pt" font-style="normal" font-weight="normal" text-decoration="normal" x="157.56364774143879" y="214.644571362" text-anchor="start" dominant-baseline="alphabetic" xml:space="preserve">Message Event</text></g><g><path fill="none" stroke="black" paint-order="fill stroke markers" d=" M 71.764767840625 221.178652682 L 341.68505296302084 221.178652682" stroke-miterlimit="10" stroke-width="1.3612669416666667" stroke-dasharray=""/><g transform="translate(344.40758684635415,221.178652682) translate(-344.40758684635415,-221.178652682)"><path fill="none" stroke="black" paint-order="fill stroke markers" d=" M 330.7949174296875 214.37231797366667 L 343.0463199046875 221.178652682 L 330.7949174296875 227.98498739033334" stroke-miterlimit="10" stroke-width="1.3612669416666667"/></g></g><g><text fill="black" stroke="none" font-family="sans-serif" font-size="11pt" font-style="normal" font-weight="normal" text-decoration="normal" x="542.6860461902669" y="260.383140602" text-anchor="start" dominant-baseline="alphabetic" xml:space="preserve">Message Content</text></g><g><path fill="none" stroke="black" paint-order="fill stroke markers" d=" M 360.74279014635414 266.917221922 L 836.8101039221353 266.917221922" stroke-miterlimit="10" stroke-width="1.3612669416666667" stroke-dasharray=""/><g transform="translate(839.5326378054687,266.917221922) translate(-839.5326378054687,-266.917221922)"><path fill="black" stroke="none" paint-order="stroke fill markers" d=" M 825.919968388802 260.1108872136667 L 839.5326378054687 266.917221922 L 825.919968388802 273.72355663033335 Z"/></g></g><g><text fill="black" stroke="none" font-family="sans-serif" font-size="11pt" font-style="normal" font-weight="normal" text-decoration="normal" x="159.60016202366535" y="306.121709842" text-anchor="start" dominant-baseline="alphabetic" xml:space="preserve">Event received</text></g><g><path fill="none" stroke="black" paint-order="fill stroke markers" d=" M 344.40758684635415 312.655791162 L 74.48730172395832 312.655791162" stroke-miterlimit="10" stroke-width="1.3612669416666667" stroke-dasharray="6.53408132"/><g transform="translate(71.764767840625,312.655791162) translate(-71.764767840625,-312.655791162)"><path fill="none" stroke="black" paint-order="fill stroke markers" d=" M 85.37743725729167 305.8494564536667 L 73.12603478229167 312.655791162 L 85.37743725729167 319.46212587033335" stroke-miterlimit="10" stroke-width="1.3612669416666667"/></g></g><g><text fill="black" stroke="none" font-family="sans-serif" font-size="11pt" font-style="normal" font-weight="normal" text-decoration="normal" x="913.9689874692058" y="351.860279082" text-anchor="start" dominant-baseline="alphabetic" xml:space="preserve">Get user by ID</text></g><g><path fill="none" stroke="black" paint-order="fill stroke markers" d=" M 855.8678411054688 358.394360402 L 1063.8572435042968 358.394360402" stroke-miterlimit="10" stroke-width="1.3612669416666667" stroke-dasharray=""/><g transform="translate(1066.5797773876302,358.394360402) translate(-1066.5797773876302,-358.394360402)"><path fill="black" stroke="none" paint-order="stroke fill markers" d=" M 1052.9671079709635 351.5880256936667 L 1066.5797773876302 358.394360402 L 1052.9671079709635 365.20069511033336 Z"/></g></g><g><text fill="black" stroke="none" font-family="sans-serif" font-size="11pt" font-style="normal" font-weight="normal" text-decoration="normal" x="922.9274759335613" y="441.703897232" text-anchor="start" dominant-baseline="alphabetic" xml:space="preserve">Return user</text></g><g><path fill="none" stroke="black" paint-order="fill stroke markers" d=" M 1066.5797773876302 448.237978552 L 858.5903749888021 448.237978552" stroke-miterlimit="10" stroke-width="1.3612669416666667" stroke-dasharray="6.53408132"/><g transform="translate(855.8678411054688,448.237978552) translate(-855.8678411054688,-448.237978552)"><path fill="black" stroke="none" paint-order="stroke fill markers" d=" M 869.4805105221354 441.4316438436667 L 855.8678411054688 448.237978552 L 869.4805105221354 455.04431326033335 Z"/></g></g><g><text fill="black" stroke="none" font-family="sans-serif" font-size="11pt" font-style="normal" font-weight="normal" text-decoration="normal" x="905.4006357236003" y="531.5475153819999" text-anchor="start" dominant-baseline="alphabetic" xml:space="preserve">Can not find user</text></g><g><path fill="none" stroke="black" paint-order="fill stroke markers" d=" M 1058.4121757376302 538.081596702 L 872.2030444054689 538.081596702" stroke-miterlimit="10" stroke-width="1.3612669416666667" stroke-dasharray=""/><path fill="none" stroke="black" paint-order="fill stroke markers" d=" M 864.0354427554688 529.9139950519999 L 880.3706460554689 546.249198352 M 864.0354427554688 546.249198352 L 880.3706460554689 529.9139950519999" stroke-miterlimit="10" stroke-width="1.3612669416666667"/></g><g><text fill="black" stroke="none" font-family="sans-serif" font-size="11pt" font-style="normal" font-weight="normal" text-decoration="normal" x="599.1428247811848" y="577.2860846219999" text-anchor="start" dominant-baseline="alphabetic" xml:space="preserve">Get user information</text></g><g><path fill="none" stroke="black" paint-order="fill stroke markers" d=" M 839.5326378054687 583.8201659419999 L 494.2886712505859 583.8201659419999" stroke-miterlimit="10" stroke-width="1.3612669416666667" stroke-dasharray=""/><g transform="translate(491.56613736725257,583.8201659419999) translate(-491.56613736725257,-583.8201659419999)"><path fill="black" stroke="none" paint-order="stroke fill markers" d=" M 505.17880678391924 577.0138312336666 L 491.56613736725257 583.8201659419999 L 505.17880678391924 590.6265006503332 Z"/></g></g><g><text fill="black" stroke="none" font-family="sans-serif" font-size="11pt" font-style="normal" font-weight="normal" text-decoration="normal" x="245.1318146034505" y="623.0246538619998" text-anchor="start" dominant-baseline="alphabetic" xml:space="preserve">Request user information</text></g><g><path fill="none" stroke="black" paint-order="fill stroke markers" d=" M 475.2309340672526 629.5587351819999 L 181.54185011673175 629.5587351819999" stroke-miterlimit="10" stroke-width="1.3612669416666667" stroke-dasharray=""/><g transform="translate(178.8193162333984,629.5587351819999) translate(-178.8193162333984,-629.5587351819999)"><path fill="black" stroke="none" paint-order="stroke fill markers" d=" M 192.4319856500651 622.7524004736665 L 178.8193162333984 629.5587351819999 L 192.4319856500651 636.3650698903332 Z"/></g></g><g><text fill="black" stroke="none" font-family="sans-serif" font-size="11pt" font-style="normal" font-weight="normal" text-decoration="normal" x="239.4267364784505" y="668.7632231019998" text-anchor="start" dominant-baseline="alphabetic" xml:space="preserve">Response user information</text></g><g><path fill="none" stroke="black" paint-order="fill stroke markers" d=" M 178.8193162333984 675.2973044219998 L 472.50840018391926 675.2973044219998" stroke-miterlimit="10" stroke-width="1.3612669416666667" stroke-dasharray="6.53408132"/><g transform="translate(475.2309340672526,675.2973044219998) translate(-475.2309340672526,-675.2973044219998)"><path fill="black" stroke="none" paint-order="stroke fill markers" d=" M 461.6182646505859 668.4909697136665 L 475.2309340672526 675.2973044219998 L 461.6182646505859 682.1036391303331 Z"/></g></g><g><text fill="black" stroke="none" font-family="sans-serif" font-size="11pt" font-style="normal" font-weight="normal" text-decoration="normal" x="588.956720960384" y="714.5017923419997" text-anchor="start" dominant-baseline="alphabetic" xml:space="preserve">Return user information</text></g><g><path fill="none" stroke="black" paint-order="fill stroke markers" d=" M 491.56613736725257 721.0358736619997 L 836.8101039221353 721.0358736619997" stroke-miterlimit="10" stroke-width="1.3612669416666667" stroke-dasharray="6.53408132"/><g transform="translate(839.5326378054687,721.0358736619997) translate(-839.5326378054687,-721.0358736619997)"><path fill="black" stroke="none" paint-order="stroke fill markers" d=" M 825.919968388802 714.2295389536664 L 839.5326378054687 721.0358736619997 L 825.919968388802 727.8422083703331 Z"/></g></g><g><text fill="black" stroke="none" font-family="sans-serif" font-size="11pt" font-style="normal" font-weight="normal" text-decoration="normal" x="922.9274759335613" y="760.2403615819997" text-anchor="start" dominant-baseline="alphabetic" xml:space="preserve">Create user</text></g><g><path fill="none" stroke="black" paint-order="fill stroke markers" d=" M 855.8678411054688 766.7744429019997 L 1063.8572435042968 766.7744429019997" stroke-miterlimit="10" stroke-width="1.3612669416666667" stroke-dasharray=""/><g transform="translate(1066.5797773876302,766.7744429019997) translate(-1066.5797773876302,-766.7744429019997)"><path fill="black" stroke="none" paint-order="stroke fill markers" d=" M 1052.9671079709635 759.9681081936664 L 1066.5797773876302 766.7744429019997 L 1052.9671079709635 773.580777610333 Z"/></g></g><g><text fill="black" stroke="none" font-family="sans-serif" font-size="11pt" font-style="normal" font-weight="normal" text-decoration="normal" x="922.9274759335613" y="805.9789308219996" text-anchor="start" dominant-baseline="alphabetic" xml:space="preserve">Return user</text></g><g><path fill="none" stroke="black" paint-order="fill stroke markers" d=" M 1066.5797773876302 812.5130121419996 L 858.5903749888021 812.5130121419996" stroke-miterlimit="10" stroke-width="1.3612669416666667" stroke-dasharray="6.53408132"/><g transform="translate(855.8678411054688,812.5130121419996) translate(-855.8678411054688,-812.5130121419996)"><path fill="black" stroke="none" paint-order="stroke fill markers" d=" M 869.4805105221354 805.7066774336663 L 855.8678411054688 812.5130121419996 L 869.4805105221354 819.319346850333 Z"/></g></g><g><text fill="black" stroke="none" font-family="sans-serif" font-size="11pt" font-style="normal" font-weight="normal" text-decoration="normal" x="902.5516672177409" y="876.2203050119996" text-anchor="start" dominant-baseline="alphabetic" xml:space="preserve">Get channel by ID</text></g><g><path fill="none" stroke="black" paint-order="fill stroke markers" d=" M 855.8678411054688 882.7543863319996 L 1063.8572435042968 882.7543863319996" stroke-miterlimit="10" stroke-width="1.3612669416666667" stroke-dasharray=""/><g transform="translate(1066.5797773876302,882.7543863319996) translate(-1066.5797773876302,-882.7543863319996)"><path fill="black" stroke="none" paint-order="stroke fill markers" d=" M 1052.9671079709635 875.9480516236663 L 1066.5797773876302 882.7543863319996 L 1052.9671079709635 889.560721040333 Z"/></g></g><g><text fill="black" stroke="none" font-family="sans-serif" font-size="11pt" font-style="normal" font-weight="normal" text-decoration="normal" x="911.5101556820964" y="966.0639231619995" text-anchor="start" dominant-baseline="alphabetic" xml:space="preserve">Return channel</text></g><g><path fill="none" stroke="black" paint-order="fill stroke markers" d=" M 1066.5797773876302 972.5980044819995 L 858.5903749888021 972.5980044819995" stroke-miterlimit="10" stroke-width="1.3612669416666667" stroke-dasharray="6.53408132"/><g transform="translate(855.8678411054688,972.5980044819995) translate(-855.8678411054688,-972.5980044819995)"><path fill="black" stroke="none" paint-order="stroke fill markers" d=" M 869.4805105221354 965.7916697736662 L 855.8678411054688 972.5980044819995 L 869.4805105221354 979.4043391903328 Z"/></g></g><g><text fill="black" stroke="none" font-family="sans-serif" font-size="11pt" font-style="normal" font-weight="normal" text-decoration="normal" x="893.9833154721355" y="1055.9075413119997" text-anchor="start" dominant-baseline="alphabetic" xml:space="preserve">Can not find channel</text></g><g><path fill="none" stroke="black" paint-order="fill stroke markers" d=" M 1058.4121757376302 1062.4416226319995 L 872.2030444054689 1062.4416226319995" stroke-miterlimit="10" stroke-width="1.3612669416666667" stroke-dasharray=""/><path fill="none" stroke="black" paint-order="fill stroke markers" d=" M 864.0354427554688 1054.2740209819995 L 880.3706460554689 1070.6092242819996 M 864.0354427554688 1070.6092242819996 L 880.3706460554689 1054.2740209819995" stroke-miterlimit="10" stroke-width="1.3612669416666667"/></g><g><text fill="black" stroke="none" font-family="sans-serif" font-size="11pt" font-style="normal" font-weight="normal" text-decoration="normal" x="651.91849680472" y="1101.6461105519998" text-anchor="start" dominant-baseline="alphabetic" xml:space="preserve">Get channel information</text></g><g><path fill="none" stroke="black" paint-order="fill stroke markers" d=" M 839.5326378054687 1108.1801918719996 L 622.6746558005859 1108.1801918719996" stroke-miterlimit="10" stroke-width="1.3612669416666667" stroke-dasharray=""/><g transform="translate(619.9521219172526,1108.1801918719996) translate(-619.9521219172526,-1108.1801918719996)"><path fill="black" stroke="none" paint-order="stroke fill markers" d=" M 633.5647913339193 1101.3738571636663 L 619.9521219172526 1108.1801918719996 L 633.5647913339193 1114.9865265803328 Z"/></g></g><g><text fill="black" stroke="none" font-family="sans-serif" font-size="11pt" font-style="normal" font-weight="normal" text-decoration="normal" x="297.9074866269856" y="1147.3846797919998" text-anchor="start" dominant-baseline="alphabetic" xml:space="preserve">Request channel information</text></g><g><path fill="none" stroke="black" paint-order="fill stroke markers" d=" M 603.6169186172525 1153.9187611119996 L 181.54185011673175 1153.9187611119996" stroke-miterlimit="10" stroke-width="1.3612669416666667" stroke-dasharray=""/><g transform="translate(178.8193162333984,1153.9187611119996) translate(-178.8193162333984,-1153.9187611119996)"><path fill="black" stroke="none" paint-order="stroke fill markers" d=" M 192.4319856500651 1147.1124264036664 L 178.8193162333984 1153.9187611119996 L 192.4319856500651 1160.7250958203329 Z"/></g></g><g><text fill="black" stroke="none" font-family="sans-serif" font-size="11pt" font-style="normal" font-weight="normal" text-decoration="normal" x="292.2024085019856" y="1193.1232490319999" text-anchor="start" dominant-baseline="alphabetic" xml:space="preserve">Response channel information</text></g><g><path fill="none" stroke="black" paint-order="fill stroke markers" d=" M 178.8193162333984 1199.6573303519997 L 600.8943847339192 1199.6573303519997" stroke-miterlimit="10" stroke-width="1.3612669416666667" stroke-dasharray="6.53408132"/><g transform="translate(603.6169186172525,1199.6573303519997) translate(-603.6169186172525,-1199.6573303519997)"><path fill="black" stroke="none" paint-order="stroke fill markers" d=" M 590.0042492005858 1192.8509956436665 L 603.6169186172525 1199.6573303519997 L 590.0042492005858 1206.463665060333 Z"/></g></g><g><text fill="black" stroke="none" font-family="sans-serif" font-size="11pt" font-style="normal" font-weight="normal" text-decoration="normal" x="641.7323929839192" y="1238.861818272" text-anchor="start" dominant-baseline="alphabetic" xml:space="preserve">Return channel information</text></g><g><path fill="none" stroke="black" paint-order="fill stroke markers" d=" M 619.9521219172526 1245.3958995919998 L 836.8101039221353 1245.3958995919998" stroke-miterlimit="10" stroke-width="1.3612669416666667" stroke-dasharray="6.53408132"/><g transform="translate(839.5326378054687,1245.3958995919998) translate(-839.5326378054687,-1245.3958995919998)"><path fill="black" stroke="none" paint-order="stroke fill markers" d=" M 825.919968388802 1238.5895648836665 L 839.5326378054687 1245.3958995919998 L 825.919968388802 1252.202234300333 Z"/></g></g><g><text fill="black" stroke="none" font-family="sans-serif" font-size="11pt" font-style="normal" font-weight="normal" text-decoration="normal" x="911.5101556820964" y="1284.600387512" text-anchor="start" dominant-baseline="alphabetic" xml:space="preserve">Create channel</text></g><g><path fill="none" stroke="black" paint-order="fill stroke markers" d=" M 855.8678411054688 1291.1344688319998 L 1063.8572435042968 1291.1344688319998" stroke-miterlimit="10" stroke-width="1.3612669416666667" stroke-dasharray=""/><g transform="translate(1066.5797773876302,1291.1344688319998) translate(-1066.5797773876302,-1291.1344688319998)"><path fill="black" stroke="none" paint-order="stroke fill markers" d=" M 1052.9671079709635 1284.3281341236666 L 1066.5797773876302 1291.1344688319998 L 1052.9671079709635 1297.940803540333 Z"/></g></g><g><text fill="black" stroke="none" font-family="sans-serif" font-size="11pt" font-style="normal" font-weight="normal" text-decoration="normal" x="911.5101556820964" y="1330.338956752" text-anchor="start" dominant-baseline="alphabetic" xml:space="preserve">Return channel</text></g><g><path fill="none" stroke="black" paint-order="fill stroke markers" d=" M 1066.5797773876302 1336.8730380719999 L 858.5903749888021 1336.8730380719999" stroke-miterlimit="10" stroke-width="1.3612669416666667" stroke-dasharray="6.53408132"/><g transform="translate(855.8678411054688,1336.8730380719999) translate(-855.8678411054688,-1336.8730380719999)"><path fill="black" stroke="none" paint-order="stroke fill markers" d=" M 869.4805105221354 1330.0667033636666 L 855.8678411054688 1336.8730380719999 L 869.4805105221354 1343.679372780333 Z"/></g></g><g><text fill="black" stroke="none" font-family="sans-serif" font-size="11pt" font-style="normal" font-weight="normal" text-decoration="normal" x="885.8157138221354" y="1400.5803309419998" text-anchor="start" dominant-baseline="alphabetic" xml:space="preserve">createMessage()</text></g><g><path fill="none" stroke="black" paint-order="fill stroke markers" d=" M 855.8678411054688 1407.1144122619999 L 929.3762559554687 1407.1144122619999 L 929.3762559554687 1428.3501765519998 L 866.757976638802 1428.3501765519998" stroke-miterlimit="10" stroke-width="1.3612669416666667" stroke-dasharray=""/><g transform="translate(864.0354427554687,1428.3501765519998) translate(-864.0354427554687,-1428.3501765519998)"><path fill="black" stroke="none" paint-order="stroke fill markers" d=" M 877.6481121721354 1421.5438418436665 L 864.0354427554687 1428.3501765519998 L 877.6481121721354 1435.156511260333 Z"/></g></g><g><text fill="black" stroke="none" font-family="sans-serif" font-size="11pt" font-style="normal" font-weight="normal" text-decoration="normal" x="885.8157138221354" y="1467.5546644719998" text-anchor="start" dominant-baseline="alphabetic" xml:space="preserve">returnValue</text></g><g><path fill="none" stroke="black" paint-order="fill stroke markers" d=" M 864.0354427554687 1474.0887457919998 L 929.3762559554687 1474.0887457919998 L 929.3762559554687 1495.3245100819997 L 858.590374988802 1495.3245100819997" stroke-miterlimit="10" stroke-width="1.3612669416666667" stroke-dasharray="6.53408132"/><g transform="translate(855.8678411054686,1495.3245100819997) translate(-855.8678411054686,-1495.3245100819997)"><path fill="black" stroke="none" paint-order="stroke fill markers" d=" M 869.4805105221353 1488.5181753736665 L 855.8678411054686 1495.3245100819997 L 869.4805105221353 1502.130844790333 Z"/></g></g><g><text fill="black" stroke="none" font-family="sans-serif" font-size="11pt" font-style="normal" font-weight="normal" text-decoration="normal" x="515.8034549427083" y="1534.528998002" text-anchor="start" dominant-baseline="alphabetic" xml:space="preserve">Hopper conform message</text></g><g><path fill="none" stroke="black" paint-order="fill stroke markers" d=" M 839.5326378054687 1541.0630793219998 L 363.46532402968745 1541.0630793219998" stroke-miterlimit="10" stroke-width="1.3612669416666667" stroke-dasharray="6.53408132"/><g transform="translate(360.74279014635414,1541.0630793219998) translate(-360.74279014635414,-1541.0630793219998)"><path fill="black" stroke="none" paint-order="stroke fill markers" d=" M 374.3554595630208 1534.2567446136666 L 360.74279014635414 1541.0630793219998 L 374.3554595630208 1547.869414030333 Z"/></g></g><g><text fill="black" stroke="none" font-family="sans-serif" font-size="11pt" font-style="normal" font-weight="normal" text-decoration="normal" x="721.287012188086" y="1580.267567242" text-anchor="start" dominant-baseline="alphabetic" xml:space="preserve">Post message</text></g><g><path fill="none" stroke="black" paint-order="fill stroke markers" d=" M 360.74279014635414 1586.8016485619999 L 1172.0005765671874 1586.8016485619999" stroke-miterlimit="10" stroke-width="1.3612669416666667" stroke-dasharray=""/><g transform="translate(1174.7231104505208,1586.8016485619999) translate(-1174.7231104505208,-1586.8016485619999)"><path fill="none" stroke="black" paint-order="fill stroke markers" d=" M 1161.1104410338542 1579.9953138536666 L 1173.3618435088542 1586.8016485619999 L 1161.1104410338542 1593.607983270333" stroke-miterlimit="10" stroke-width="1.3612669416666667"/></g></g><g><text fill="black" stroke="none" font-family="sans-serif" font-size="11pt" font-style="normal" font-weight="normal" text-decoration="normal" x="654.8840275689454" y="1626.006136482" text-anchor="start" dominant-baseline="alphabetic" xml:space="preserve">HTTP message received response</text></g><g><path fill="none" stroke="black" paint-order="fill stroke markers" d=" M 1174.7231104505208 1632.540217802 L 363.46532402968745 1632.540217802" stroke-miterlimit="10" stroke-width="1.3612669416666667" stroke-dasharray="6.53408132"/><g transform="translate(360.74279014635414,1632.540217802) translate(-360.74279014635414,-1632.540217802)"><path fill="none" stroke="black" paint-order="fill stroke markers" d=" M 374.3554595630208 1625.7338830936667 L 362.1040570880208 1632.540217802 L 374.3554595630208 1639.3465525103331" stroke-miterlimit="10" stroke-width="1.3612669416666667"/></g></g><g><g/><path fill="none" stroke="black" paint-order="fill stroke markers" d=" M 105.31090138339843 382.897165352 L 1123.75298893763 382.897165352 L 1123.75298893763 837.0158170919997 L 105.31090138339843 837.0158170919997 L 105.31090138339843 382.897165352 Z" stroke-miterlimit="10" stroke-width="2.3336004714285714" stroke-dasharray=""/><path fill="white" stroke="black" paint-order="fill stroke markers" d=" M 105.31090138339843 382.897165352 L 105.31090138339843 402.499409312 L 151.67010498046875 402.499409312 L 161.47122696046875 392.698287332 L 161.47122696046875 382.897165352 L 105.31090138339843 382.897165352" stroke-miterlimit="10" stroke-width="2.3336004714285714" stroke-dasharray=""/><text fill="black" stroke="none" font-family="sans-serif" font-size="8.8pt" font-style="normal" font-weight="bold" text-decoration="normal" x="121.64610468339843" y="395.965327992" text-anchor="start" dominant-baseline="alphabetic" xml:space="preserve">alt</text><text fill="black" stroke="none" font-family="sans-serif" font-size="8.8pt" font-style="normal" font-weight="bold" text-decoration="normal" x="177.80643026046874" y="395.965327992" text-anchor="start" dominant-baseline="alphabetic" xml:space="preserve">[User exist]</text><g><path fill="none" stroke="black" paint-order="fill stroke markers" d=" M 105.31090138339843 472.740783502 L 1123.75298893763 472.740783502" stroke-miterlimit="10" stroke-width="2.3336004714285714" stroke-dasharray="4.083800825"/></g><g/><text fill="black" stroke="none" font-family="sans-serif" font-size="8.8pt" font-style="normal" font-weight="bold" text-decoration="normal" x="177.80643026046874" y="485.808946142" text-anchor="start" dominant-baseline="alphabetic" xml:space="preserve">[User not exist]</text></g><g/><g><g/><path fill="none" stroke="black" paint-order="fill stroke markers" d=" M 105.31090138339843 907.2571912819996 L 1123.75298893763 907.2571912819996 L 1123.75298893763 1361.3758430219998 L 105.31090138339843 1361.3758430219998 L 105.31090138339843 907.2571912819996 Z" stroke-miterlimit="10" stroke-width="2.3336004714285714" stroke-dasharray=""/><path fill="white" stroke="black" paint-order="fill stroke markers" d=" M 105.31090138339843 907.2571912819996 L 105.31090138339843 926.8594352419996 L 151.67010498046875 926.8594352419996 L 161.47122696046875 917.0583132619995 L 161.47122696046875 907.2571912819996 L 105.31090138339843 907.2571912819996" stroke-miterlimit="10" stroke-width="2.3336004714285714" stroke-dasharray=""/><text fill="black" stroke="none" font-family="sans-serif" font-size="8.8pt" font-style="normal" font-weight="bold" text-decoration="normal" x="121.64610468339843" y="920.3253539219995" text-anchor="start" dominant-baseline="alphabetic" xml:space="preserve">alt</text><text fill="black" stroke="none" font-family="sans-serif" font-size="8.8pt" font-style="normal" font-weight="bold" text-decoration="normal" x="177.80643026046874" y="920.3253539219995" text-anchor="start" dominant-baseline="alphabetic" xml:space="preserve">[Channel exist]</text><g><path fill="none" stroke="black" paint-order="fill stroke markers" d=" M 105.31090138339843 997.1008094319994 L 1123.75298893763 997.1008094319994" stroke-miterlimit="10" stroke-width="2.3336004714285714" stroke-dasharray="4.083800825"/></g><g/><text fill="black" stroke="none" font-family="sans-serif" font-size="8.8pt" font-style="normal" font-weight="bold" text-decoration="normal" x="177.80643026046874" y="1010.1689720719994" text-anchor="start" dominant-baseline="alphabetic" xml:space="preserve">[User not exist]</text></g><g/></g><g/><g/><g/><g/><g/><g/><g/><g/></g></svg>
