<svg version="1.1" xmlns="http://www.w3.org/2000/svg" xmlns:xlink="http://www.w3.org/1999/xlink" width="1718" height="1464"><defs/><g><g/><g/><g/><g/><g/><g/><g/><g/><g/><g/><g/><g/><g/><g/><g/><g/><g/><g/><g/><g/><g/><g/><g/><g/><g/><g><rect fill="white" stroke="none" x="0" y="0" width="1718" height="1464"/></g><g><text fill="black" stroke="none" font-family="sans-serif" font-size="16.5pt" font-style="normal" font-weight="normal" text-decoration="normal" x="772.3878678939453" y="24.50280495" text-anchor="start" dominant-baseline="alphabetic" xml:space="preserve">User Subscription</text></g><g><g><path fill="#9F5F9F" stroke="black" paint-order="fill stroke markers" d=" M 8.167601650000003 58.5617038305 L 263.3411491897135 58.5617038305 L 263.3411491897135 1429.9836968819998 L 8.167601650000003 1429.9836968819998 L 8.167601650000003 58.5617038305" stroke-miterlimit="10" stroke-width="1.3612669416666667" stroke-dasharray=""/></g><g><text fill="black" stroke="none" font-family="sans-serif" font-size="11pt" font-style="normal" font-weight="bold" text-decoration="normal" x="116.59904857659504" y="81.43098845050001" text-anchor="start" dominant-baseline="alphabetic" xml:space="preserve">Slack</text></g><g><path fill="none" stroke="black" paint-order="fill stroke markers" d=" M 649.6644638185546 50.394102180500006 L 1560.7583432908202 50.394102180500006 L 1560.7583432908202 1429.9836968819998 L 649.6644638185546 1429.9836968819998 L 649.6644638185546 50.394102180500006" stroke-miterlimit="10" stroke-width="1.3612669416666667" stroke-dasharray=""/></g><g><text fill="black" stroke="none" font-family="sans-serif" font-size="11pt" font-style="normal" font-weight="bold" text-decoration="normal" x="1024.1233756005859" y="73.2633868005" text-anchor="start" dominant-baseline="alphabetic" xml:space="preserve">Service Provider Slack </text></g><g><path fill="#42b983" stroke="black" paint-order="fill stroke markers" d=" M 1585.7555743374999 58.5617038305 L 1671.3606140632812 58.5617038305 L 1671.3606140632812 1429.9836968819998 L 1585.7555743374999 1429.9836968819998 L 1585.7555743374999 58.5617038305" stroke-miterlimit="10" stroke-width="1.3612669416666667" stroke-dasharray=""/></g><g><text fill="black" stroke="none" font-family="sans-serif" font-size="11pt" font-style="normal" font-weight="bold" text-decoration="normal" x="1602.9031106798827" y="81.43098845050001" text-anchor="start" dominant-baseline="alphabetic" xml:space="preserve">Hopper</text></g></g><g><path fill="none" stroke="black" paint-order="fill stroke markers" d=" M 63.597166190625 167.272481792 L 63.597166190625 1464.2876238119998" stroke-miterlimit="10" stroke-width="1.3612669416666667" stroke-dasharray="12.565541,5.445067766666667"/><path fill="none" stroke="black" paint-order="fill stroke markers" d=" M 211.7161653375651 167.272481792 L 211.7161653375651 1464.2876238119998" stroke-miterlimit="10" stroke-width="1.3612669416666667" stroke-dasharray="12.565541,5.445067766666667"/><path fill="none" stroke="black" paint-order="fill stroke markers" d=" M 732.8033942039062 167.272481792 L 732.8033942039062 1464.2876238119998" stroke-miterlimit="10" stroke-width="1.3612669416666667" stroke-dasharray="12.565541,5.445067766666667"/><path fill="none" stroke="black" paint-order="fill stroke markers" d=" M 887.4327693274088 167.272481792 L 887.4327693274088 1464.2876238119998" stroke-miterlimit="10" stroke-width="1.3612669416666667" stroke-dasharray="12.565541,5.445067766666667"/><path fill="none" stroke="black" paint-order="fill stroke markers" d=" M 1042.0621444509113 167.272481792 L 1042.0621444509113 1464.2876238119998" stroke-miterlimit="10" stroke-width="1.3612669416666667" stroke-dasharray="12.565541,5.445067766666667"/><path fill="none" stroke="black" paint-order="fill stroke markers" d=" M 1217.655750602018 167.272481792 L 1217.655750602018 1464.2876238119998" stroke-miterlimit="10" stroke-width="1.3612669416666667" stroke-dasharray="12.565541,5.445067766666667"/><path fill="none" stroke="black" paint-order="fill stroke markers" d=" M 1512.2471594874999 167.272481792 L 1512.2471594874999 1464.2876238119998" stroke-miterlimit="10" stroke-width="1.3612669416666667" stroke-dasharray="12.565541,5.445067766666667"/><path fill="none" stroke="black" paint-order="fill stroke markers" d=" M 1628.5580942003905 167.272481792 L 1628.5580942003905 1464.2876238119998" stroke-miterlimit="10" stroke-width="1.3612669416666667" stroke-dasharray="12.565541,5.445067766666667"/></g><g><g><path fill="white" stroke="black" paint-order="fill stroke markers" d=" M 96.022544741125 120.39044832100001 A 24.2577769005 24.2577769005 0 1 1 96.02253261223755 120.36619054814246 M 32.560279920625 94.74417914 L 32.560279920625 146.03671750200002 M 31.171787640124997 120.39044832100001 L 47.506990940125 120.39044832100001" stroke-miterlimit="10" stroke-width="2.7769845610000004" stroke-dasharray=""/></g><g><g/><text fill="black" stroke="none" font-family="sans-serif" font-size="11pt" font-style="normal" font-weight="normal" text-decoration="normal" x="16.335203300000003" y="162.371920802" text-anchor="start" dominant-baseline="alphabetic" xml:space="preserve">SlackEventApi</text></g><g><path fill="white" stroke="black" paint-order="fill stroke markers" d=" M 244.1415438880651 120.39044832100001 A 24.2577769005 24.2577769005 0 1 1 244.14153175917764 120.36619054814246 M 180.6792790675651 94.74417914 L 180.6792790675651 146.03671750200002 M 179.2907867870651 120.39044832100001 L 195.62599008706508 120.39044832100001" stroke-miterlimit="10" stroke-width="2.7769845610000004" stroke-dasharray=""/></g><g><g/><text fill="black" stroke="none" font-family="sans-serif" font-size="11pt" font-style="normal" font-weight="normal" text-decoration="normal" x="168.25878313541665" y="162.371920802" text-anchor="start" dominant-baseline="alphabetic" xml:space="preserve">SlackWebApi</text></g><g><path fill="white" stroke="black" paint-order="fill stroke markers" d=" M 765.2287727544062 120.39044832100001 A 24.2577769005 24.2577769005 0 1 1 765.2287606255188 120.36619054814246 M 701.7665079339063 94.74417914 L 701.7665079339063 146.03671750200002 M 700.3780156534062 120.39044832100001 L 716.7132189534063 120.39044832100001" stroke-miterlimit="10" stroke-width="2.7769845610000004" stroke-dasharray=""/></g><g><g/><text fill="black" stroke="none" font-family="sans-serif" font-size="11pt" font-style="normal" font-weight="normal" text-decoration="normal" x="657.8320654685547" y="162.371920802" text-anchor="start" dominant-baseline="alphabetic" xml:space="preserve">SpSubscriptionHandler</text></g><g><path fill="white" stroke="black" paint-order="fill stroke markers" d=" M 911.6905462279087 120.39044832100001 A 24.2577769005 24.2577769005 0 1 1 911.6905340990213 120.36619054814246 M 884.1657286674088 96.1326714205 L 893.9668506474087 87.96506977050001 M 884.1657286674088 96.1326714205 L 893.9668506474087 104.3002730705" stroke-miterlimit="10" stroke-width="2.7769845610000004" stroke-dasharray=""/></g><g><g/><text fill="black" stroke="none" font-family="sans-serif" font-size="11pt" font-style="normal" font-weight="normal" text-decoration="normal" x="838.5494761755533" y="162.371920802" text-anchor="start" dominant-baseline="alphabetic" xml:space="preserve">SpUserService</text></g><g><path fill="white" stroke="black" paint-order="fill stroke markers" d=" M 1066.3199213514113 120.39044832100001 A 24.2577769005 24.2577769005 0 1 1 1066.3199092225238 120.36619054814246 M 1038.7951037909113 96.1326714205 L 1048.5962257709114 87.96506977050001 M 1038.7951037909113 96.1326714205 L 1048.5962257709114 104.3002730705" stroke-miterlimit="10" stroke-width="2.7769845610000004" stroke-dasharray=""/></g><g><g/><text fill="black" stroke="none" font-family="sans-serif" font-size="11pt" font-style="normal" font-weight="normal" text-decoration="normal" x="968.3184539601887" y="162.371920802" text-anchor="start" dominant-baseline="alphabetic" xml:space="preserve">SpSubscriptionService</text></g><g><path fill="white" stroke="black" paint-order="fill stroke markers" d=" M 1241.913527502518 118.16886067220001 A 24.2577769005 24.2577769005 0 1 1 1241.9135153736306 118.14460289934246 M 1192.009481421018 144.6482252215 L 1240.525035222018 144.6482252215" stroke-miterlimit="10" stroke-width="2.7769845610000004" stroke-dasharray=""/></g><g><g/><text fill="black" stroke="none" font-family="sans-serif" font-size="11pt" font-style="normal" font-weight="normal" text-decoration="normal" x="1187.5018580849282" y="162.371920802" text-anchor="start" dominant-baseline="alphabetic" xml:space="preserve">SpCache</text></g><g><path fill="white" stroke="black" paint-order="fill stroke markers" d=" M 1488.3977626694998 135.255483324 L 1488.3977626694998 100.95155639400002 L 1536.0965563055 100.95155639400002 L 1536.0965563055 135.255483324" stroke-miterlimit="10" stroke-width="2.7769845610000004" stroke-dasharray=""/><path fill="white" stroke="black" paint-order="fill stroke markers" d=" M 1536.0965563055 99.75908655310002 L 1536.0953638455962 99.86689709801664 L 1536.0917865851302 99.97469686196861 L 1536.0858248818247 100.08247506506937 L 1536.0774793318456 100.19022092958842 L 1536.0667507697403 100.2979236810291 L 1536.0536402683565 100.40557254920603 L 1536.0381491387332 100.51315676932207 L 1536.0202789299706 100.62066558304487 L 1536.0000314290746 100.72808823958268 L 1535.9774086607783 100.83541399675931 L 1535.95241288734 100.94263212208854 L 1535.925046608316 101.04973189384714 L 1535.8953125603114 101.1567026021472 L 1535.8632137167062 101.26353355000704 L 1535.828753287358 101.37021405442088 L 1535.7919347182813 101.4767334474272 L 1535.752761691302 101.58308107717545 L 1535.7112381236902 101.68924630899127 L 1535.6673681677682 101.79521852643998 L 1535.621156210495 101.90098713238812 L 1535.5726068730276 102.00654155006325 L 1535.5217250102596 102.11187122411154 L 1535.4685157103345 102.21696562165339 L 1535.4129842941384 102.32181423333661 L 1535.3551363147665 102.4264065743874 L 1535.2949775569682 102.53073218565882 L 1535.2325140365695 102.63478063467669 L 1535.1677519998705 102.7385415166828 L 1535.1006979230203 102.84200445567542 L 1535.0313585113713 102.94515910544688 L 1534.9597406988069 103.04799515061815 L 1534.8858516470482 103.15050230767042 L 1534.809698744939 103.2526703259734 L 1534.7312896077062 103.3544889888104 L 1534.6506320761982 103.4559481144 L 1534.5677342161007 103.55703755691417 L 1534.4826043171308 103.6577472074929 L 1534.3952508922075 103.75806699525508 L 1534.3056826766003 103.8579868883055 L 1534.213908627056 103.95749689473814 L 1534.1199379209038 104.05658706363529 L 1534.0237799551353 104.15524748606262 L 1533.925444345467 104.25346829606012 L 1533.8249409253783 104.35123967162862 L 1533.722279745127 104.44855183571204 L 1533.617471070746 104.54539505717509 L 1533.5105253830152 104.6417596517763 L 1533.4014533764143 104.73763598313651 L 1533.290265958053 104.83301446370251 L 1533.1769742465804 104.92788555570571 L 1533.0615895710735 105.02223977211597 L 1532.9441234699034 105.11606767759027 L 1532.8245876895826 105.20935988941625 L 1532.7029941835892 105.30210707845049 L 1532.5793551111728 105.39429997005135 L 1532.4536828361374 105.48592934500653 L 1532.3259899256059 105.57698604045486 L 1532.196289148763 105.66746095080268 L 1532.064593475578 105.75734502863436 L 1531.9309160755088 105.84662928561703 L 1531.7952703161839 105.93530479339938 L 1531.657669762066 106.02336268450453 L 1531.518128173096 106.11079415321676 L 1531.376659503317 106.19759045646204 L 1531.2332778994771 106.28374291468239 L 1531.0879976996177 106.36924291270377 L 1530.940833431638 106.45408190059764 L 1530.7917998118419 106.5382513945359 L 1530.640911743467 106.62174297763931 L 1530.4881843151948 106.70454830081913 L 1530.3336327996403 106.78665908361204 L 1530.1772726518268 106.86806711500819 L 1530.0191195076386 106.94876425427228 L 1529.8591891822584 107.02874243175762 L 1529.6974976685851 107.10799364971314 L 1529.5340611356357 107.18650998308306 L 1529.3688959269273 107.26428358029946 L 1529.202018558843 107.34130666406747 L 1529.0334457189806 107.41757153214289 L 1528.8631942644834 107.49307055810243 L 1528.6912812203552 107.56779619210644 L 1528.5177237777573 107.6417409616538 L 1528.3425392922888 107.71489747232916 L 1528.1657452822528 107.7872584085424 L 1527.9873594269027 107.85881653426023 L 1527.8073995646755 107.9295646937297 L 1527.6258836914074 107.9994958121938 L 1527.4428299585345 108.06860289659899 L 1527.2582566712774 108.1368790362944 L 1527.0721822868113 108.20431740372297 L 1526.8846254124194 108.27091125510412 L 1526.6956048036327 108.33665393110826 L 1526.5051393623548 108.40153885752254 L 1526.313248134971 108.46555954590839 L 1526.1199503104442 108.52870959425034 L 1525.9252652183957 108.59098268759617 L 1525.7292123271725 108.65237259868843 L 1525.5318112419004 108.71287318858718 L 1525.3330817025233 108.77247840728386 L 1525.1330435818295 108.83118229430623 L 1524.9317168834646 108.88897897931456 L 1524.7291217399304 108.94586268268847 L 1524.5252784105728 109.00182771610504 L 1524.3202072795543 109.05686848310758 L 1524.1139288538177 109.11097947966525 L 1523.9064637610334 109.16415529472346 L 1523.6978327475376 109.21639061074505 L 1523.488056676258 109.26768020424194 L 1523.2771565246271 109.31801894629751 L 1523.0651533824841 109.36740180307952 L 1522.8520684499665 109.41582383634344 L 1522.63792303539 109.46328020392627 L 1522.4227385531178 109.50976616023082 L 1522.2065365214187 109.55527705670022 L 1521.9893385603154 109.5998083422827 L 1521.7711663894233 109.64335556388684 L 1521.552041825778 109.68591436682678 L 1521.3319867816526 109.72748049525767 L 1521.1110232623685 109.7680497926013 L 1520.8891733640935 109.80761820196176 L 1520.6664592716324 109.84618176653109 L 1520.442903256209 109.88373662998495 L 1520.2185276732384 109.92027903686831 L 1519.9933549600921 109.95580533297093 L 1519.7674076338537 109.99031196569278 L 1519.5407082890677 110.02379548439939 L 1519.3132795954791 110.05625254076675 L 1519.0851442957685 110.08767988911629 L 1518.856325203275 110.11807438673935 L 1518.6268451997178 110.14743299421153 L 1518.3967272329057 110.17575277569651 L 1518.1659943144437 110.20303089923975 L 1517.9346695174313 110.22926463705164 L 1517.7027759741554 110.25445136578027 L 1517.4703368737773 110.27858856677372 L 1517.2373754600133 110.30167382633203 L 1517.0039150288103 110.32370483594849 L 1516.7699789260173 110.34467939254047 L 1516.5355905450494 110.3645953986698 L 1516.3007733245495 110.38345086275248 L 1516.0655507460438 110.40124389925779 L 1515.829946331594 110.41797272889693 L 1515.593983641446 110.43363567880087 L 1515.3576862716711 110.44823118268765 L 1515.12107785181 110.46175778101907 L 1514.8841820425075 110.47421412114657 L 1514.647022533147 110.4855989574465 L 1514.4096230394819 110.49591115144473 L 1514.1720073012634 110.50514967193044 L 1513.9341990798678 110.5133135950593 L 1513.6962221559188 110.5204021044458 L 1513.4581003269104 110.52641449124488 L 1513.219857404827 110.53135015422289 L 1512.9815172137628 110.53520859981765 L 1512.7431035875377 110.53798944218781 L 1512.5046403673161 110.53969240325145 L 1512.266151399221 110.54031731271388 L 1512.0276605319505 110.53986410808467 L 1511.7891916143926 110.53833283468393 L 1511.5507684932404 110.5357236456377 L 1511.3124150106073 110.53203680186272 L 1511.074155001643 110.52727267204028 L 1510.8360122921497 110.52143173257942 L 1510.5980106962 110.5145145675692 L 1510.360174013755 110.50652186872036 L 1510.1225260282852 110.4974544352961 L 1509.8850905043907 110.48731317403227 L 1509.647891185426 110.47609909904648 L 1509.4109517911256 110.46381333173692 L 1509.1742960152312 110.45045710067006 L 1508.9379475231235 110.4360317414579 L 1508.7019299494546 110.42053869662433 L 1508.4662668957849 110.40397951546092 L 1508.2309819282239 110.38635585387198 L 1507.9960985750718 110.367669474209 L 1507.7616403244685 110.34792224509437 L 1507.5276306220435 110.32711614123453 L 1507.2940928685723 110.30525324322254 L 1507.0610504176352 110.28233573732997 L 1506.8285265732836 110.25836591528834 L 1506.5965445877077 110.23334617405986 L 1506.365127658913 110.2072790155978 L 1506.1342989283996 110.18016704659628 L 1505.904081478848 110.15201297822964 L 1505.6744983318115 110.1228196258812 L 1505.4455724454133 110.09258990886192 L 1505.2173267120513 110.06132685011828 L 1504.9897839561086 110.0290335759301 L 1504.7629669316714 109.99571331559791 L 1504.5368983202527 109.96136940111997 L 1504.3116007285257 109.9260052668591 L 1504.0870966860618 109.88962444919923 L 1503.863408643078 109.85223058619187 L 1503.640558968192 109.81382741719212 L 1503.418569946186 109.77441878248487 L 1503.1974637757767 109.73400862290077 L 1502.9772625673975 109.6926009794221 L 1502.757988340985 109.6501999927787 L 1502.53966302378 109.60680990303389 L 1502.3223084481317 109.56243504916051 L 1502.1059463493166 109.51707986860694 L 1501.8905983633642 109.47074889685346 L 1501.676286024894 109.42344676695863 L 1501.4630307649609 109.37517820909602 L 1501.2508539089133 109.3259480500812 L 1501.03977667426 109.27576121288904 L 1500.8298201685488 109.22462271616142 L 1500.6210053872549 109.17253767370543 L 1500.4133532116825 109.1195112939819 L 1500.2068844068763 109.0655488795846 L 1500.0016196195447 109.01065582671 L 1499.7975793759952 108.95483762461768 L 1499.5947840800823 108.89809985508128 L 1499.3932540111666 108.84044819183053 L 1499.1930093220867 108.78188839998367 L 1498.9940700371453 108.7224263354711 L 1498.7964560501046 108.66206794444972 L 1498.6001871221986 108.60081926270831 L 1498.4052828801568 108.53868641506405 L 1498.2117628142407 108.47567561474989 L 1498.019646276296 108.41179316279337 L 1497.8289524778163 108.34704544738645 L 1497.6397004880223 108.2814389432467 L 1497.4519092319554 108.21498021096988 L 1497.2655974885847 108.14767589637383 L 1497.0807838889293 108.07953272983391 L 1496.8974869141953 108.01055752561001 L 1496.715724893927 107.94075718116505 L 1496.5355160041754 107.87013867647532 L 1496.3568782656791 107.79870907333245 L 1496.1798295420633 107.72647551463722 L 1496.0043875380525 107.6534452236853 L 1495.830569797701 107.57962550344493 L 1495.658393702638 107.50502373582663 L 1495.4878764703299 107.42964738094497 L 1495.3190351523572 107.35350397637264 L 1495.1518866327112 107.27660113638665 L 1494.9864476261048 107.1989465512069 L 1494.8227346763008 107.12054798622721 L 1494.6607641544574 107.04141328123873 L 1494.500552257492 106.96155034964602 L 1494.342115006461 106.8809671776757 L 1494.1854682449573 106.7996718235778 L 1494.0306276375263 106.71767241681998 L 1493.8776086681 106.63497715727459 L 1493.7264266384477 106.55159431439867 L 1493.5770966666464 106.46753222640703 L 1493.429633685569 106.38279929943842 L 1493.2840524413905 106.29740400671491 L 1493.140367492114 106.21135488769461 L 1492.9985932061147 106.12466054721774 L 1492.8587437607032 106.03732965464607 L 1492.7208331407076 105.94937094299611 L 1492.5848751370745 105.8607932080657 L 1492.4508833454915 105.77160530755455 L 1492.3188711650257 105.68181616017836 L 1492.1888517967855 105.59143474477705 L 1492.060838242599 105.50047009941686 L 1491.934843303715 105.40893132048649 L 1491.8108795795226 105.31682756178758 L 1491.688959466291 105.22416803361924 L 1491.5690951559295 105.13096200185706 L 1491.4512986347695 105.03721878702656 L 1491.335581682365 104.94294776337108 L 1491.221955870315 104.84815835791446 L 1491.1104325611054 104.75286004951823 L 1491.0010229069749 104.65706236793383 L 1490.8937378487972 104.56077489284957 L 1490.788588114989 104.46400725293273 L 1490.6855842204359 104.36676912486666 L 1490.5847364654417 104.26907023238314 L 1490.4860549346974 104.17092034529 L 1490.3895494962746 104.07232927849415 L 1490.295229800636 103.97330689102013 L 1490.203105279673 103.87386308502415 L 1490.1131851457608 103.77400780480394 L 1490.0254783908379 103.67375103580433 L 1489.9399937855067 103.57310280361865 L 1489.8567398781563 103.47207317298626 L 1489.7757249941085 103.37067224678601 L 1489.6969572347837 103.26891016502606 L 1489.6204444768923 103.16679710382974 L 1489.5461943716466 103.0643432744181 L 1489.4742143439948 102.96155892208871 L 1489.4045115918802 102.85845432519113 L 1489.3370930855197 102.75503979409915 L 1489.2719655667076 102.65132567017969 L 1489.2091355481418 102.5473223247587 L 1489.1486093127717 102.44304015808407 L 1489.0903929131703 102.33848959828556 L 1489.0344921709288 102.23368110033203 L 1488.9809126760754 102.12862514498595 L 1488.9296597865148 102.02333223775527 L 1488.8807386274927 101.91781290784299 L 1488.834154091085 101.81207770709416 L 1488.789910835706 101.70613720894077 L 1488.7480132856447 101.60000200734433 L 1488.7084656306208 101.49368271573654 L 1488.6712718253673 101.387189965958 L 1488.6364355892333 101.2805344071949 L 1488.6039604058137 101.17372670491429 L 1488.5738495225996 101.06677753979733 L 1488.5461059506545 100.95969760667145 L 1488.520732464312 100.85249761344073 L 1488.4977316009001 100.74518828001514 L 1488.4771056604857 100.63778033723861 L 1488.4588567056455 100.5302845258159 L 1488.44298656126 100.42271159523858 L 1488.4294968143306 100.31507230271008 L 1488.4183888138205 100.20737741206993 L 1488.4096636705203 100.09963769271747 L 1488.4033222569374 99.99186391853482 L 1488.3993652072077 99.88406686680962 L 1488.397792917033 99.77625731715719 L 1488.398605543641 99.66844605044267 L 1488.4018030057696 99.56064384770288 L 1488.4073849836752 99.45286148906825 L 1488.415350919165 99.34510975268485 L 1488.4257000156517 99.23739941363651 L 1488.4384312382344 99.12974124286738 L 1488.4535433138017 99.02214600610482 L 1488.4710347311582 98.91462446278284 L 1488.490903741177 98.80718736496618 L 1488.5131483569737 98.69984545627509 L 1488.537766354105 98.59260947081098 L 1488.5647552707921 98.48549013208303 L 1488.5941124081655 98.37849815193587 L 1488.625834830536 98.27164422947833 L 1488.6599193656878 98.16493905001363 L 1488.6963626051959 98.05839328397077 L 1488.7351609047666 97.9520175858376 L 1488.7763103846023 97.84582259309526 L 1488.8198069297894 97.73981892515455 L 1488.8656461907094 97.6340171822939 L 1488.9138235834746 97.52842794459946 L 1488.9643342903858 97.423061770907 L 1489.0171732604144 97.31792919774607 L 1489.0723352097075 97.21304073828638 L 1489.129814622116 97.10840688128647 L 1489.189605749747 97.00403809004486 L 1489.251702613537 96.89994480135368 L 1489.3160990038514 96.79613742445507 L 1489.382788481105 96.6926263400002 L 1489.451764376406 96.58942189901128 L 1489.5230197922217 96.48653442184639 L 1489.5965476030703 96.38397419716749 L 1489.672340456232 96.28175148091161 L 1489.7503907724845 96.17987649526519 L 1489.8306907468611 96.07835942764187 L 1489.9132323494316 95.97721042966384 L 1489.9980073261045 95.8764396161466 L 1490.0850071994523 95.77605706408754 L 1490.1742232695608 95.67607281165819 L 1490.2656466148967 95.57649685720048 L 1490.3592680932022 95.47733915822688 L 1490.4550783424074 95.37860963042466 L 1490.553067781567 95.28031814666433 L 1490.6532266118188 95.18247453601234 L 1490.7555448173632 95.08508858274823 L 1490.8600121664651 94.98817002538617 L 1490.9666182124765 94.89172855570112 L 1491.075352294882 94.79577381775971 L 1491.1862035403633 94.70031540695574 L 1491.2991608638886 94.60536286905077 L 1491.4142129698196 94.51092569921943 L 1491.5313483530417 94.41701334110004 L 1491.6505553001143 94.32363518585014 L 1491.7718218904417 94.23080057120742 L 1491.895135997466 94.13851878055601 L 1492.0204852898796 94.04679904199807 L 1492.1478572328572 93.955650527431 L 1492.277239089311 93.86508235163033 L 1492.408617921163 93.77510357133815 L 1492.5419805906397 93.68572318435751 L 1492.677313761585 93.59695012865262 L 1492.814603900795 93.5087932814551 L 1492.9538372793697 93.42126145837616 L 1493.0949999740876 93.33436341252519 L 1493.2380778687968 93.24810783363438 L 1493.383056655827 93.1625033471897 L 1493.5299218374203 93.07755851356848 L 1493.6786587271808 92.9932818271833 L 1493.8292524515439 92.90968171563254 L 1493.981687951262 92.82676653885773 L 1494.135949982913 92.74454458830742 L 1494.2920231204216 92.66302408610815 L 1494.4498917566045 92.58221318424222 L 1494.6095401047294 92.50211996373247 L 1494.7709522000946 92.4227524338342 L 1494.9341119016249 92.34411853123427 L 1495.0990028934866 92.26622611925741 L 1495.2656086867175 92.1890829870799 L 1495.4339126208772 92.11269684895069 L 1495.6038978657125 92.0370753434199 L 1495.7755474228409 91.9622260325751 L 1495.948844127449 91.888156401285 L 1496.1237706500117 91.81487385645099 L 1496.3003094980218 91.74238572626649 L 1496.478443017742 91.67069925948411 L 1496.6581533959684 91.59982162469079 L 1496.8394226618134 91.52975990959095 L 1497.0222326885012 91.4605211202977 L 1497.2065651951814 91.3921121806323 L 1497.392401748757 91.32453993143167 L 1497.5797237657275 91.25781112986445 L 1497.7685125140476 91.1919324487552 L 1497.9587491149994 91.12691047591709 L 1498.1504145450815 91.06275171349324 L 1498.3434896379106 90.99946257730645 L 1498.5379550861383 90.93704939621756 L 1498.7337914433817 90.87551841149269 L 1498.9309791261687 90.81487577617904 L 1499.129498415895 90.75512755448958 L 1499.3293294607968 90.69627972119672 L 1499.5304522779368 90.63833816103474 L 1499.7328467552004 90.58130866811136 L 1499.9364926533085 90.52519694532836 L 1500.1413696078414 90.47000860381125 L 1500.347457131274 90.41574916234819 L 1500.554734615026 90.36242404683813 L 1500.7631813315215 90.31003858974816 L 1500.9727764362626 90.25859802958036 L 1501.1834989699137 90.20810751034786 L 1501.3953278603967 90.1585720810605 L 1501.6082419249992 90.10999669521995 L 1501.8222198724923 90.0623862103243 L 1502.0372403052595 90.01574538738238 L 1502.2532817214367 89.9700788904376 L 1502.4703225170624 89.92539128610161 L 1502.6883409882375 89.88168704309761 L 1502.9073153332972 89.83897053181346 L 1503.127223654989 89.79724602386472 L 1503.3480439626642 89.75651769166738 L 1503.5697541744757 89.71678960802075 L 1503.7923321195876 89.67806574570005 L 1504.0157555403907 89.64034997705929 L 1504.2400020947289 89.60364607364387 L 1504.465049358134 89.56795770581357 L 1504.6908748260666 89.53328844237541 L 1504.9174559161686 89.49964175022686 L 1505.1447699705197 89.46702099400908 L 1505.372794257904 89.43542943577052 L 1505.6015059760823 89.40487023464067 L 1505.830882254074 89.37534644651419 L 1506.060900154442 89.34686102374526 L 1506.291536675588 89.31941681485246 L 1506.5227687540525 89.29301656423378 L 1506.75457326682 89.2676629118923 L 1506.9869270336324 89.2433583931721 L 1507.2198068193065 89.22010543850483 L 1507.4531893360581 89.19790637316656 L 1507.6870512458297 89.17676341704532 L 1507.9213691626255 89.15667868441913 L 1508.1561196548491 89.13765418374449 L 1508.3912792476467 89.11969181745562 L 1508.626824425255 89.10279338177418 L 1508.8627316333527 89.08696056652965 L 1509.0989772814155 89.0721949549904 L 1509.3355377450753 89.05849802370521 L 1509.572389368483 89.04587114235585 L 1509.8095084666736 89.03431557361992 L 1510.0468713279352 89.02383247304465 L 1510.2844542161788 89.01442288893136 L 1510.5222333733143 89.00608776223065 L 1510.7601850216236 88.99882792644821 L 1510.9982853661404 88.9926441075616 L 1511.2365105970284 88.98753692394752 L 1511.4748368919634 88.9835068863201 L 1511.7132404185145 88.98055439767974 L 1511.9516973365273 88.97867975327284 L 1512.1901838005092 88.97788314056228 L 1512.4286759620122 88.97816463920867 L 1512.6671499720192 88.97952422106238 L 1512.9055819833275 88.98196175016635 L 1513.1439481529349 88.98547698276971 L 1513.3822246444233 88.99006956735212 L 1513.6203876303416 88.99573904465896 L 1513.8584132945903 89.00248484774721 L 1514.0962778348007 89.0103063020422 L 1514.3339574647175 89.019202625405 L 1514.5714284165754 89.0291729282107 L 1514.8086669434774 89.04021621343732 L 1515.0456493217685 89.05233137676555 L 1515.282351853408 89.06551720668914 L 1515.5187508683402 89.0797723846361 L 1515.7548227268608 89.0950954851005 L 1515.9905438219805 89.11148497578507 L 1516.2258905817862 89.12893921775441 L 1516.460839471798 89.14745646559885 L 1516.695366997323 89.16703486760905 L 1516.9294497058036 89.18767246596111 L 1517.1630641891643 89.20936719691241 L 1517.3961870861515 89.23211689100792 L 1517.6287950846695 89.2559192732972 L 1517.8608649241125 89.28077196356185 L 1518.0923733976902 89.30667247655354 L 1518.3232973547474 89.33361822224259 L 1518.5536137030817 89.36160650607685 L 1518.7832994112496 89.39063452925127 L 1519.012331510872 89.42069938898774 L 1519.2406870989296 89.45179807882532 L 1519.4683433400542 89.48392748892095 L 1519.695277468811 89.5170844063604 L 1519.9214667919764 89.55126551547954 L 1520.1468886908065 89.58646739819596 L 1520.3715206232996 89.62268653435072 L 1520.5953401264492 89.65991930206037 L 1520.8183248184916 89.69816197807918 L 1521.0404524011437 89.73741073817143 L 1521.2617006618323 89.7776616574938 L 1521.4820474759154 89.8189107109879 L 1521.7014708088952 89.86115377378276 L 1521.9199487186218 89.9043866216073 L 1522.1374593574856 89.94860493121277 L 1522.3539809746044 89.99380428080505 L 1522.5694919179969 90.03998015048685 L 1522.783970636748 90.0871279227097 L 1522.997395683165 90.13524288273562 L 1523.209745714921 90.18432021910876 L 1523.4209994971895 90.23435502413635 L 1523.6311359047688 90.28534229437957 L 1523.840133924193 90.33727693115392 L 1524.047972655834 90.39015374103897 L 1524.2546313159924 90.44396743639781 L 1524.460089238974 90.49871263590576 L 1524.664325879158 90.55438386508847 L 1524.8673208130504 90.6109755568694 L 1525.069053741327 90.66848205212658 L 1525.269504490863 90.72689760025837 L 1525.4686530167507 90.78621635975864 L 1525.6664794043033 90.84643239880089 L 1525.862963871047 90.90753969583137 L 1526.0580867686986 90.96953214017132 L 1526.2518285851313 91.03240353262795 L 1526.4441699463248 91.09614758611443 L 1526.6350916183032 91.1607579262785 L 1526.8245745090585 91.22622809214002 L 1527.0125996704594 91.29255153673692 L 1527.1991483001464 91.35972162778006 L 1527.3842017434122 91.42773164831627 L 1527.5677414950665 91.49657479740019 L 1527.7497492012872 91.56624419077427 L 1527.930206661455 91.63673286155725 L 1528.1090958299749 91.70803376094076 L 1528.2863988180789 91.78013975889431 L 1528.4620978956154 91.85304364487818 L 1528.636175492824 91.92673812856452 L 1528.808614202089 92.00121584056639 L 1528.979396779684 92.07646933317463 L 1529.1485061474934 92.15249108110271 L 1529.315925394721 92.22927348223918 L 1529.481637779582 92.3068088584079 L 1529.6456267309757 92.3850894561359 L 1529.8078758501435 92.4641074474286 L 1529.9683689123092 92.54385493055275 L 1530.1270898683 92.62432393082648 L 1530.2840228461525 92.70550640141681 L 1530.4391521527 92.78739422414436 L 1530.5924622751406 92.86997921029509 L 1530.7439378825904 92.95325310143917 L 1530.8935638276146 93.03720757025692 L 1531.0413251477435 93.12183422137142 L 1531.1872070669679 93.20712459218805 L 1531.3311949972178 93.29307015374081 L 1531.47327453982 93.3796623115452 L 1531.6134314869387 93.46689240645757 L 1531.7516518229959 93.55475171554113 L 1531.8879217260733 93.64323145293818 L 1532.022227569294 93.73232277074871 L 1532.1545559221859 93.8220167599152 L 1532.2848935520235 93.91230445111346 L 1532.4132274251529 94.00317681564962 L 1532.5395447082935 94.09462476636294 L 1532.6638327698222 94.18663915853458 L 1532.7860791810367 94.27921079080198 L 1532.9062717173974 94.37233040607906 L 1533.0243983597509 94.46598869248189 L 1533.1404472955317 94.56017628425988 L 1533.2544069199425 94.65488376273235 L 1533.366265837116 94.75010165723037 L 1533.476012861254 94.84582044604385 L 1533.583637017745 94.94203055737364 L 1533.6891275442636 95.03872237028881 L 1533.7924738918448 95.13588621568863 L 1533.8936657259396 95.23351237726953 L 1533.9926929274495 95.33159109249674 L 1534.0895455937366 95.43011255358043 L 1534.184214039615 95.5290669084566 L 1534.276688798319 95.62844426177223 L 1534.3669606224496 95.72823467587482 L 1534.4550204849 95.82842817180608 L 1534.5408595797571 95.92901473029994 L 1534.624469323183 96.02998429278436 L 1534.705841354273 96.13132676238725 L 1534.7849675358918 96.23303200494607 L 1534.8618399554873 96.33508985002135 L 1534.9364509258814 96.4374900919136 L 1535.0087929860395 96.54022249068399 L 1535.0788589018157 96.64327677317824 L 1535.1466416666767 96.746642634054 L 1535.2121345024027 96.85030973681128 L 1535.2753308597646 96.95426771482623 L 1535.3362244191792 97.05850617238767 L 1535.3948090913418 97.1630146857367 L 1535.4510790178333 97.26778280410907 L 1535.5050285717086 97.37280005078027 L 1535.5566523580567 97.47805592411314 L 1535.6059452145425 97.58353989860805 L 1535.652902211921 97.68924142595546 L 1535.697518654532 97.79514993609072 L 1535.739790080768 97.90125483825108 L 1535.7797122635218 98.00754552203473 L 1535.8172812106084 98.11401135846187 L 1535.8524931651646 98.22064170103758 L 1535.8853446060239 98.32742588681647 L 1535.9158322480696 98.43435323746894 L 1535.9439530425634 98.54141306034904 L 1535.9697041774489 98.64859464956368 L 1535.9930830776339 98.75588728704328 L 1536.0140874052483 98.86328024361347 L 1536.0327150598764 98.97076278006811 L 1536.0489641787688 99.07832414824313 L 1536.0628331370267 99.18595359209134 L 1536.0743205477659 99.29364034875802 L 1536.083425262255 99.40137364965727 L 1536.0901463700302 99.50914272154878 L 1536.0944831989864 99.61693678761516 L 1536.0964353154438 99.72474506853963 M 1536.0965563055 134.0630134831 L 1536.0953638455962 134.17082402801663 L 1536.0917865851302 134.2786237919686 L 1536.0858248818247 134.38640199506935 L 1536.0774793318456 134.49414785958842 L 1536.0667507697403 134.60185061102908 L 1536.0536402683565 134.70949947920602 L 1536.0381491387332 134.81708369932204 L 1536.0202789299706 134.92459251304487 L 1536.0000314290746 135.03201516958265 L 1535.9774086607783 135.1393409267593 L 1535.95241288734 135.24655905208851 L 1535.925046608316 135.35365882384713 L 1535.8953125603114 135.46062953214718 L 1535.8632137167062 135.56746048000701 L 1535.828753287358 135.67414098442086 L 1535.7919347182813 135.78066037742718 L 1535.752761691302 135.88700800717544 L 1535.7112381236902 135.99317323899126 L 1535.6673681677682 136.09914545643997 L 1535.621156210495 136.2049140623881 L 1535.5726068730276 136.31046848006324 L 1535.5217250102596 136.41579815411154 L 1535.4685157103345 136.5208925516534 L 1535.4129842941384 136.62574116333658 L 1535.3551363147665 136.7303335043874 L 1535.2949775569682 136.8346591156588 L 1535.2325140365695 136.9387075646767 L 1535.1677519998705 137.0424684466828 L 1535.1006979230203 137.14593138567542 L 1535.0313585113713 137.24908603544688 L 1534.9597406988069 137.35192208061815 L 1534.8858516470482 137.4544292376704 L 1534.809698744939 137.5565972559734 L 1534.7312896077062 137.6584159188104 L 1534.6506320761982 137.7598750444 L 1534.5677342161007 137.86096448691416 L 1534.4826043171308 137.96167413749288 L 1534.3952508922075 138.06199392525505 L 1534.3056826766003 138.1619138183055 L 1534.213908627056 138.26142382473813 L 1534.1199379209038 138.3605139936353 L 1534.0237799551353 138.4591744160626 L 1533.925444345467 138.5573952260601 L 1533.8249409253783 138.6551666016286 L 1533.722279745127 138.75247876571203 L 1533.617471070746 138.84932198717507 L 1533.5105253830152 138.94568658177627 L 1533.4014533764143 139.04156291313652 L 1533.290265958053 139.1369413937025 L 1533.1769742465804 139.2318124857057 L 1533.0615895710735 139.32616670211596 L 1532.9441234699034 139.41999460759027 L 1532.8245876895826 139.51328681941624 L 1532.7029941835892 139.60603400845048 L 1532.5793551111728 139.69822690005134 L 1532.4536828361374 139.7898562750065 L 1532.3259899256059 139.88091297045483 L 1532.196289148763 139.97138788080267 L 1532.064593475578 140.06127195863436 L 1531.9309160755088 140.15055621561703 L 1531.7952703161839 140.23923172339937 L 1531.657669762066 140.3272896145045 L 1531.518128173096 140.41472108321673 L 1531.376659503317 140.501517386462 L 1531.2332778994771 140.58766984468238 L 1531.0879976996177 140.67316984270377 L 1530.940833431638 140.75800883059765 L 1530.7917998118419 140.8421783245359 L 1530.640911743467 140.9256699076393 L 1530.4881843151948 141.00847523081913 L 1530.3336327996403 141.09058601361204 L 1530.1772726518268 141.17199404500818 L 1530.0191195076386 141.25269118427227 L 1529.8591891822584 141.3326693617576 L 1529.6974976685851 141.41192057971313 L 1529.5340611356357 141.49043691308304 L 1529.3688959269273 141.56821051029945 L 1529.202018558843 141.64523359406746 L 1529.0334457189806 141.72149846214288 L 1528.8631942644834 141.79699748810242 L 1528.6912812203552 141.87172312210643 L 1528.5177237777573 141.94566789165378 L 1528.3425392922888 142.01882440232913 L 1528.1657452822528 142.0911853385424 L 1527.9873594269027 142.16274346426022 L 1527.8073995646755 142.2334916237297 L 1527.6258836914074 142.3034227421938 L 1527.4428299585345 142.372529826599 L 1527.2582566712774 142.4408059662944 L 1527.0721822868113 142.50824433372296 L 1526.8846254124194 142.5748381851041 L 1526.6956048036327 142.64058086110825 L 1526.5051393623548 142.70546578752254 L 1526.313248134971 142.7694864759084 L 1526.1199503104442 142.83263652425032 L 1525.9252652183957 142.89490961759617 L 1525.7292123271725 142.95629952868842 L 1525.5318112419004 143.01680011858718 L 1525.3330817025233 143.07640533728383 L 1525.1330435818295 143.13510922430623 L 1524.9317168834646 143.19290590931453 L 1524.7291217399304 143.24978961268846 L 1524.5252784105728 143.30575464610504 L 1524.3202072795543 143.36079541310758 L 1524.1139288538177 143.41490640966524 L 1523.9064637610334 143.46808222472345 L 1523.6978327475376 143.52031754074505 L 1523.488056676258 143.57160713424193 L 1523.2771565246271 143.6219458762975 L 1523.0651533824841 143.67132873307952 L 1522.8520684499665 143.71975076634342 L 1522.63792303539 143.76720713392626 L 1522.4227385531178 143.81369309023083 L 1522.2065365214187 143.8592039867002 L 1521.9893385603154 143.9037352722827 L 1521.7711663894233 143.94728249388683 L 1521.552041825778 143.98984129682677 L 1521.3319867816526 144.03140742525764 L 1521.1110232623685 144.07197672260128 L 1520.8891733640935 144.11154513196175 L 1520.6664592716324 144.15010869653108 L 1520.442903256209 144.18766355998494 L 1520.2185276732384 144.2242059668683 L 1519.9933549600921 144.2597322629709 L 1519.7674076338537 144.29423889569279 L 1519.5407082890677 144.32772241439937 L 1519.3132795954791 144.36017947076672 L 1519.0851442957685 144.39160681911628 L 1518.856325203275 144.42200131673934 L 1518.6268451997178 144.45135992421152 L 1518.3967272329057 144.4796797056965 L 1518.1659943144437 144.50695782923975 L 1517.9346695174313 144.53319156705163 L 1517.7027759741554 144.55837829578024 L 1517.4703368737773 144.5825154967737 L 1517.2373754600133 144.60560075633202 L 1517.0039150288103 144.62763176594848 L 1516.7699789260173 144.64860632254045 L 1516.5355905450494 144.66852232866978 L 1516.3007733245495 144.68737779275247 L 1516.0655507460438 144.70517082925778 L 1515.829946331594 144.72189965889692 L 1515.593983641446 144.73756260880086 L 1515.3576862716711 144.75215811268765 L 1515.12107785181 144.76568471101908 L 1514.8841820425075 144.77814105114655 L 1514.647022533147 144.7895258874465 L 1514.4096230394819 144.7998380814447 L 1514.1720073012634 144.80907660193043 L 1513.9341990798678 144.8172405250593 L 1513.6962221559188 144.82432903444578 L 1513.4581003269104 144.83034142124487 L 1513.219857404827 144.83527708422287 L 1512.9815172137628 144.83913552981764 L 1512.7431035875377 144.8419163721878 L 1512.5046403673161 144.84361933325144 L 1512.266151399221 144.84424424271387 L 1512.0276605319505 144.84379103808467 L 1511.7891916143926 144.84225976468392 L 1511.5507684932404 144.83965057563768 L 1511.3124150106073 144.8359637318627 L 1511.074155001643 144.83119960204027 L 1510.8360122921497 144.82535866257942 L 1510.5980106962 144.81844149756918 L 1510.360174013755 144.81044879872033 L 1510.1225260282852 144.8013813652961 L 1509.8850905043907 144.79124010403225 L 1509.647891185426 144.78002602904647 L 1509.4109517911256 144.7677402617369 L 1509.1742960152312 144.75438403067005 L 1508.9379475231235 144.73995867145788 L 1508.7019299494546 144.72446562662432 L 1508.4662668957849 144.7079064454609 L 1508.2309819282239 144.69028278387196 L 1507.9960985750718 144.671596404209 L 1507.7616403244685 144.65184917509436 L 1507.5276306220435 144.6310430712345 L 1507.2940928685723 144.6091801732225 L 1507.0610504176352 144.58626266732998 L 1506.8285265732836 144.56229284528834 L 1506.5965445877077 144.53727310405984 L 1506.365127658913 144.5112059455978 L 1506.1342989283996 144.48409397659628 L 1505.904081478848 144.45593990822962 L 1505.6744983318115 144.4267465558812 L 1505.4455724454133 144.3965168388619 L 1505.2173267120513 144.36525378011828 L 1504.9897839561086 144.3329605059301 L 1504.7629669316714 144.2996402455979 L 1504.5368983202527 144.26529633111994 L 1504.3116007285257 144.22993219685907 L 1504.0870966860618 144.19355137919922 L 1503.863408643078 144.15615751619185 L 1503.640558968192 144.1177543471921 L 1503.418569946186 144.07834571248486 L 1503.1974637757767 144.03793555290076 L 1502.9772625673975 143.9965279094221 L 1502.757988340985 143.9541269227787 L 1502.53966302378 143.9107368330339 L 1502.3223084481317 143.8663619791605 L 1502.1059463493166 143.82100679860693 L 1501.8905983633642 143.77467582685347 L 1501.676286024894 143.72737369695864 L 1501.4630307649609 143.679105139096 L 1501.2508539089133 143.62987498008118 L 1501.03977667426 143.579688142889 L 1500.8298201685488 143.52854964616142 L 1500.6210053872549 143.4764646037054 L 1500.4133532116825 143.4234382239819 L 1500.2068844068763 143.36947580958457 L 1500.0016196195447 143.31458275671 L 1499.7975793759952 143.25876455461767 L 1499.5947840800823 143.20202678508127 L 1499.3932540111666 143.1443751218305 L 1499.1930093220867 143.08581532998366 L 1498.9940700371453 143.02635326547107 L 1498.7964560501046 142.9659948744497 L 1498.6001871221986 142.9047461927083 L 1498.4052828801568 142.84261334506402 L 1498.2117628142407 142.77960254474988 L 1498.019646276296 142.71572009279336 L 1497.8289524778163 142.65097237738644 L 1497.6397004880223 142.5853658732467 L 1497.4519092319554 142.51890714096987 L 1497.2655974885847 142.4516028263738 L 1497.0807838889293 142.3834596598339 L 1496.8974869141953 142.31448445561 L 1496.715724893927 142.24468411116504 L 1496.5355160041754 142.17406560647532 L 1496.3568782656791 142.10263600333244 L 1496.1798295420633 142.03040244463722 L 1496.0043875380525 141.9573721536853 L 1495.830569797701 141.88355243344492 L 1495.658393702638 141.80895066582661 L 1495.4878764703299 141.73357431094496 L 1495.3190351523572 141.65743090637264 L 1495.1518866327112 141.58052806638665 L 1494.9864476261048 141.5028734812069 L 1494.8227346763008 141.42447491622718 L 1494.6607641544574 141.34534021123872 L 1494.500552257492 141.265477279646 L 1494.342115006461 141.1848941076757 L 1494.1854682449573 141.10359875357778 L 1494.0306276375263 141.02159934681995 L 1493.8776086681 140.93890408727458 L 1493.7264266384477 140.85552124439866 L 1493.5770966666464 140.77145915640702 L 1493.429633685569 140.68672622943842 L 1493.2840524413905 140.6013309367149 L 1493.140367492114 140.5152818176946 L 1492.9985932061147 140.42858747721772 L 1492.8587437607032 140.34125658464606 L 1492.7208331407076 140.2532978729961 L 1492.5848751370745 140.1647201380657 L 1492.4508833454915 140.07553223755454 L 1492.3188711650257 139.98574309017835 L 1492.1888517967855 139.89536167477704 L 1492.060838242599 139.80439702941683 L 1491.934843303715 139.71285825048648 L 1491.8108795795226 139.62075449178758 L 1491.688959466291 139.52809496361922 L 1491.5690951559295 139.43488893185705 L 1491.4512986347695 139.34114571702654 L 1491.335581682365 139.24687469337107 L 1491.221955870315 139.15208528791445 L 1491.1104325611054 139.05678697951822 L 1491.0010229069749 138.96098929793382 L 1490.8937378487972 138.86470182284955 L 1490.788588114989 138.76793418293272 L 1490.6855842204359 138.67069605486665 L 1490.5847364654417 138.57299716238313 L 1490.4860549346974 138.47484727529 L 1490.3895494962746 138.37625620849414 L 1490.295229800636 138.27723382102013 L 1490.203105279673 138.17779001502413 L 1490.1131851457608 138.07793473480393 L 1490.0254783908379 137.9776779658043 L 1489.9399937855067 137.87702973361863 L 1489.8567398781563 137.77600010298625 L 1489.7757249941085 137.67459917678602 L 1489.6969572347837 137.57283709502605 L 1489.6204444768923 137.47072403382973 L 1489.5461943716466 137.3682702044181 L 1489.4742143439948 137.26548585208872 L 1489.4045115918802 137.16238125519112 L 1489.3370930855197 137.05896672409915 L 1489.2719655667076 136.95525260017968 L 1489.2091355481418 136.8512492547587 L 1489.1486093127717 136.74696708808406 L 1489.0903929131703 136.64241652828557 L 1489.0344921709288 136.53760803033202 L 1488.9809126760754 136.43255207498592 L 1488.9296597865148 136.32725916775524 L 1488.8807386274927 136.22173983784296 L 1488.834154091085 136.11600463709416 L 1488.789910835706 136.01006413894075 L 1488.7480132856447 135.90392893734432 L 1488.7084656306208 135.79760964573654 L 1488.6712718253673 135.69111689595798 L 1488.6364355892333 135.5844613371949 L 1488.6039604058137 135.47765363491428 L 1488.5738495225996 135.37070446979732 L 1488.5461059506545 135.26362453667144 L 1488.520732464312 135.15642454344072 L 1488.4977316009001 135.04911521001512 L 1488.4771056604857 134.9417072672386 L 1488.4588567056455 134.83421145581588 L 1488.44298656126 134.72663852523857 L 1488.4294968143306 134.61899923271008 L 1488.4183888138205 134.5113043420699 L 1488.4096636705203 134.40356462271745 L 1488.4033222569374 134.2957908485348 L 1488.3993652072077 134.1879937968096 L 1488.397792917033 134.08018424715718" stroke-miterlimit="10" stroke-width="2.7769845610000004" stroke-dasharray=""/></g><g><g/><text fill="black" stroke="none" font-family="sans-serif" font-size="11pt" font-style="normal" font-weight="normal" text-decoration="normal" x="1471.9035773341795" y="162.371920802" text-anchor="start" dominant-baseline="alphabetic" xml:space="preserve">SpDatabase</text></g><g><path fill="white" stroke="black" paint-order="fill stroke markers" d=" M 1660.9834727508905 120.39044832100001 A 24.2577769005 24.2577769005 0 1 1 1660.9834606220031 120.36619054814246 M 1597.5212079303906 94.74417914 L 1597.5212079303906 146.03671750200002 M 1596.1327156498905 120.39044832100001 L 1612.4679189498906 120.39044832100001" stroke-miterlimit="10" stroke-width="2.7769845610000004" stroke-dasharray=""/></g><g><g/><text fill="black" stroke="none" font-family="sans-serif" font-size="11pt" font-style="normal" font-weight="normal" text-decoration="normal" x="1593.9231759875" y="162.371920802" text-anchor="start" dominant-baseline="alphabetic" xml:space="preserve">HopperApi</text></g></g><g><path fill="white" stroke="black" paint-order="fill stroke markers" d=" M 55.429564540625 175.440083442 L 71.764767840625 175.440083442 L 71.764767840625 1447.9524205119997 L 55.429564540625 1447.9524205119997 L 55.429564540625 175.440083442" stroke-miterlimit="10" stroke-width="1.3612669416666667" stroke-dasharray=""/><path fill="white" stroke="black" paint-order="fill stroke markers" d=" M 203.5485636875651 175.440083442 L 219.88376698756508 175.440083442 L 219.88376698756508 1447.9524205119997 L 203.5485636875651 1447.9524205119997 L 203.5485636875651 175.440083442" stroke-miterlimit="10" stroke-width="1.3612669416666667" stroke-dasharray=""/><path fill="white" stroke="black" paint-order="fill stroke markers" d=" M 1620.3904925503905 175.440083442 L 1636.7256958503906 175.440083442 L 1636.7256958503906 1447.9524205119997 L 1620.3904925503905 1447.9524205119997 L 1620.3904925503905 175.440083442" stroke-miterlimit="10" stroke-width="1.3612669416666667" stroke-dasharray=""/><path fill="white" stroke="black" paint-order="fill stroke markers" d=" M 724.6357925539062 221.178652682 L 740.9709958539063 221.178652682 L 740.9709958539063 1201.2908506819997 L 724.6357925539062 1201.2908506819997 L 724.6357925539062 221.178652682" stroke-miterlimit="10" stroke-width="1.3612669416666667" stroke-dasharray=""/><path fill="white" stroke="black" paint-order="fill stroke markers" d=" M 879.2651676774087 266.917221922 L 895.6003709774088 266.917221922 L 895.6003709774088 699.8001093719998 L 879.2651676774087 699.8001093719998 L 879.2651676774087 266.917221922" stroke-miterlimit="10" stroke-width="1.3612669416666667" stroke-dasharray=""/><path fill="white" stroke="black" paint-order="fill stroke markers" d=" M 1209.488148952018 358.394360402 L 1225.8233522520181 358.394360402 L 1225.8233522520181 448.237978552 L 1209.488148952018 448.237978552 L 1209.488148952018 358.394360402" stroke-miterlimit="10" stroke-width="1.3612669416666667" stroke-dasharray=""/><path fill="white" stroke="black" paint-order="fill stroke markers" d=" M 1209.488148952018 492.343027462 L 1225.8233522520181 492.343027462 L 1225.8233522520181 629.5587351819999 L 1209.488148952018 629.5587351819999 L 1209.488148952018 492.343027462" stroke-miterlimit="10" stroke-width="1.3612669416666667" stroke-dasharray=""/><path fill="white" stroke="black" paint-order="fill stroke markers" d=" M 1504.0795578374998 538.081596702 L 1520.4147611375 538.081596702 L 1520.4147611375 583.8201659419999 L 1504.0795578374998 583.8201659419999 L 1504.0795578374998 538.081596702" stroke-miterlimit="10" stroke-width="1.3612669416666667" stroke-dasharray=""/><path fill="white" stroke="black" paint-order="fill stroke markers" d=" M 1033.8945428009113 881.1208660019997 L 1050.2297461009114 881.1208660019997 L 1050.2297461009114 1109.8137122019996 L 1033.8945428009113 1109.8137122019996 L 1033.8945428009113 881.1208660019997" stroke-miterlimit="10" stroke-width="1.3612669416666667" stroke-dasharray=""/><path fill="white" stroke="black" paint-order="fill stroke markers" d=" M 1209.488148952018 926.8594352419997 L 1225.8233522520181 926.8594352419997 L 1225.8233522520181 1064.0751429619995 L 1209.488148952018 1064.0751429619995 L 1209.488148952018 926.8594352419997" stroke-miterlimit="10" stroke-width="1.3612669416666667" stroke-dasharray=""/><path fill="white" stroke="black" paint-order="fill stroke markers" d=" M 1504.0795578374998 972.5980044819996 L 1520.4147611375 972.5980044819996 L 1520.4147611375 1018.3365737219996 L 1504.0795578374998 1018.3365737219996 L 1504.0795578374998 972.5980044819996" stroke-miterlimit="10" stroke-width="1.3612669416666667" stroke-dasharray=""/><path fill="white" stroke="black" paint-order="fill stroke markers" d=" M 724.6357925539062 1245.3958995919998 L 740.9709958539063 1245.3958995919998 L 740.9709958539063 1382.611607312 L 724.6357925539062 1382.611607312 L 724.6357925539062 1245.3958995919998" stroke-miterlimit="10" stroke-width="1.3612669416666667" stroke-dasharray=""/><g><text fill="black" stroke="none" font-family="sans-serif" font-size="11pt" font-style="normal" font-weight="normal" text-decoration="normal" x="288.1967554169921" y="214.644571362" text-anchor="start" dominant-baseline="alphabetic" xml:space="preserve">Interactive Message clicked event</text></g><g><path fill="none" stroke="black" paint-order="fill stroke markers" d=" M 71.764767840625 221.178652682 L 721.9132586705729 221.178652682" stroke-miterlimit="10" stroke-width="1.3612669416666667" stroke-dasharray=""/><g transform="translate(724.6357925539062,221.178652682) translate(-724.6357925539062,-221.178652682)"><path fill="none" stroke="black" paint-order="fill stroke markers" d=" M 711.0231231372395 214.37231797366667 L 723.2745256122395 221.178652682 L 711.0231231372395 227.98498739033334" stroke-miterlimit="10" stroke-width="1.3612669416666667"/></g></g><g><text fill="black" stroke="none" font-family="sans-serif" font-size="11pt" font-style="normal" font-weight="normal" text-decoration="normal" x="785.2755677275716" y="260.383140602" text-anchor="start" dominant-baseline="alphabetic" xml:space="preserve">User ID</text></g><g><path fill="none" stroke="black" paint-order="fill stroke markers" d=" M 740.9709958539063 266.917221922 L 876.5426337940754 266.917221922" stroke-miterlimit="10" stroke-width="1.3612669416666667" stroke-dasharray=""/><g transform="translate(879.2651676774087,266.917221922) translate(-879.2651676774087,-266.917221922)"><path fill="black" stroke="none" paint-order="stroke fill markers" d=" M 865.652498260742 260.1108872136667 L 879.2651676774087 266.917221922 L 865.652498260742 273.72355663033335 Z"/></g></g><g><text fill="black" stroke="none" font-family="sans-serif" font-size="11pt" font-style="normal" font-weight="normal" text-decoration="normal" x="349.71426487744134" y="306.121709842" text-anchor="start" dominant-baseline="alphabetic" xml:space="preserve">Event received</text></g><g><path fill="none" stroke="black" paint-order="fill stroke markers" d=" M 724.6357925539062 312.655791162 L 74.48730172395832 312.655791162" stroke-miterlimit="10" stroke-width="1.3612669416666667" stroke-dasharray="6.53408132"/><g transform="translate(71.764767840625,312.655791162) translate(-71.764767840625,-312.655791162)"><path fill="none" stroke="black" paint-order="fill stroke markers" d=" M 85.37743725729167 305.8494564536667 L 73.12603478229167 312.655791162 L 85.37743725729167 319.46212587033335" stroke-miterlimit="10" stroke-width="1.3612669416666667"/></g></g><g><text fill="black" stroke="none" font-family="sans-serif" font-size="11pt" font-style="normal" font-weight="normal" text-decoration="normal" x="1005.2894381873698" y="351.860279082" text-anchor="start" dominant-baseline="alphabetic" xml:space="preserve">Get user by ID</text></g><g><path fill="none" stroke="black" paint-order="fill stroke markers" d=" M 895.6003709774088 358.394360402 L 1206.7656150686846 358.394360402" stroke-miterlimit="10" stroke-width="1.3612669416666667" stroke-dasharray=""/><g transform="translate(1209.488148952018,358.394360402) translate(-1209.488148952018,-358.394360402)"><path fill="black" stroke="none" paint-order="stroke fill markers" d=" M 1195.8754795353514 351.5880256936667 L 1209.488148952018 358.394360402 L 1195.8754795353514 365.20069511033336 Z"/></g></g><g><text fill="black" stroke="none" font-family="sans-serif" font-size="11pt" font-style="normal" font-weight="normal" text-decoration="normal" x="1014.2479266517253" y="441.703897232" text-anchor="start" dominant-baseline="alphabetic" xml:space="preserve">Return user</text></g><g><path fill="none" stroke="black" paint-order="fill stroke markers" d=" M 1209.488148952018 448.237978552 L 898.3229048607421 448.237978552" stroke-miterlimit="10" stroke-width="1.3612669416666667" stroke-dasharray="6.53408132"/><g transform="translate(895.6003709774088,448.237978552) translate(-895.6003709774088,-448.237978552)"><path fill="black" stroke="none" paint-order="stroke fill markers" d=" M 909.2130403940755 441.4316438436667 L 895.6003709774088 448.237978552 L 909.2130403940755 455.04431326033335 Z"/></g></g><g><text fill="black" stroke="none" font-family="sans-serif" font-size="11pt" font-style="normal" font-weight="normal" text-decoration="normal" x="1317.696633267415" y="531.5475153819999" text-anchor="start" dominant-baseline="alphabetic" xml:space="preserve">Get user by ID</text></g><g><path fill="none" stroke="black" paint-order="fill stroke markers" d=" M 1225.8233522520181 538.081596702 L 1501.3570239541664 538.081596702" stroke-miterlimit="10" stroke-width="1.3612669416666667" stroke-dasharray=""/><g transform="translate(1504.0795578374998,538.081596702) translate(-1504.0795578374998,-538.081596702)"><path fill="black" stroke="none" paint-order="stroke fill markers" d=" M 1490.4668884208331 531.2752619936666 L 1504.0795578374998 538.081596702 L 1490.4668884208331 544.8879314103333 Z"/></g></g><g><text fill="black" stroke="none" font-family="sans-serif" font-size="11pt" font-style="normal" font-weight="normal" text-decoration="normal" x="1261.0431222200518" y="577.2860846219999" text-anchor="start" dominant-baseline="alphabetic" xml:space="preserve">Return user and load into cache</text></g><g><path fill="none" stroke="black" paint-order="fill stroke markers" d=" M 1504.0795578374998 583.8201659419999 L 1228.5458861353516 583.8201659419999" stroke-miterlimit="10" stroke-width="1.3612669416666667" stroke-dasharray="6.53408132"/><g transform="translate(1225.8233522520181,583.8201659419999) translate(-1225.8233522520181,-583.8201659419999)"><path fill="black" stroke="none" paint-order="stroke fill markers" d=" M 1239.4360216686848 577.0138312336666 L 1225.8233522520181 583.8201659419999 L 1239.4360216686848 590.6265006503332 Z"/></g></g><g><text fill="black" stroke="none" font-family="sans-serif" font-size="11pt" font-style="normal" font-weight="normal" text-decoration="normal" x="1014.2479266517253" y="623.0246538619998" text-anchor="start" dominant-baseline="alphabetic" xml:space="preserve">Return user</text></g><g><path fill="none" stroke="black" paint-order="fill stroke markers" d=" M 1209.488148952018 629.5587351819999 L 898.3229048607421 629.5587351819999" stroke-miterlimit="10" stroke-width="1.3612669416666667" stroke-dasharray="6.53408132"/><g transform="translate(895.6003709774088,629.5587351819999) translate(-895.6003709774088,-629.5587351819999)"><path fill="black" stroke="none" paint-order="stroke fill markers" d=" M 909.2130403940755 622.7524004736665 L 895.6003709774088 629.5587351819999 L 909.2130403940755 636.3650698903332 Z"/></g></g><g><text fill="black" stroke="none" font-family="sans-serif" font-size="11pt" font-style="normal" font-weight="normal" text-decoration="normal" x="771.8217484526692" y="693.2660280519998" text-anchor="start" dominant-baseline="alphabetic" xml:space="preserve">Return user</text></g><g><path fill="none" stroke="black" paint-order="fill stroke markers" d=" M 879.2651676774087 699.8001093719998 L 743.6935297372396 699.8001093719998" stroke-miterlimit="10" stroke-width="1.3612669416666667" stroke-dasharray="6.53408132"/><g transform="translate(740.9709958539063,699.8001093719998) translate(-740.9709958539063,-699.8001093719998)"><path fill="black" stroke="none" paint-order="stroke fill markers" d=" M 754.583665270573 692.9937746636665 L 740.9709958539063 699.8001093719998 L 754.583665270573 706.6064440803332 Z"/></g></g><g><text fill="black" stroke="none" font-family="sans-serif" font-size="11pt" font-style="normal" font-weight="normal" text-decoration="normal" x="1119.1596489262695" y="739.0045972919997" text-anchor="start" dominant-baseline="alphabetic" xml:space="preserve">Redirect to Hopper</text></g><g><path fill="none" stroke="black" paint-order="fill stroke markers" d=" M 740.9709958539063 745.5386786119998 L 1617.667958667057 745.5386786119998" stroke-miterlimit="10" stroke-width="1.3612669416666667" stroke-dasharray=""/><g transform="translate(1620.3904925503905,745.5386786119998) translate(-1620.3904925503905,-745.5386786119998)"><path fill="black" stroke="none" paint-order="stroke fill markers" d=" M 1606.7778231337238 738.7323439036664 L 1620.3904925503905 745.5386786119998 L 1606.7778231337238 752.3450133203331 Z"/></g></g><g><text fill="black" stroke="none" font-family="sans-serif" font-size="11pt" font-style="normal" font-weight="normal" text-decoration="normal" x="1089.417354614746" y="828.8482154419997" text-anchor="start" dominant-baseline="alphabetic" xml:space="preserve">Repond with subscription ID</text></g><g><path fill="none" stroke="black" paint-order="fill stroke markers" d=" M 1620.3904925503905 835.3822967619998 L 743.6935297372396 835.3822967619998" stroke-miterlimit="10" stroke-width="1.3612669416666667" stroke-dasharray="6.53408132"/><g transform="translate(740.9709958539063,835.3822967619998) translate(-740.9709958539063,-835.3822967619998)"><path fill="black" stroke="none" paint-order="stroke fill markers" d=" M 754.583665270573 828.5759620536664 L 740.9709958539063 835.3822967619998 L 754.583665270573 842.1886314703331 Z"/></g></g><g><text fill="black" stroke="none" font-family="sans-serif" font-size="11pt" font-style="normal" font-weight="normal" text-decoration="normal" x="770.9188685705728" y="874.5867846819997" text-anchor="start" dominant-baseline="alphabetic" xml:space="preserve">Create subscriber ID and slack user</text></g><g><path fill="none" stroke="black" paint-order="fill stroke markers" d=" M 740.9709958539063 881.1208660019997 L 1031.1720089175778 881.1208660019997" stroke-miterlimit="10" stroke-width="1.3612669416666667" stroke-dasharray=""/><g transform="translate(1033.8945428009113,881.1208660019997) translate(-1033.8945428009113,-881.1208660019997)"><path fill="black" stroke="none" paint-order="stroke fill markers" d=" M 1020.2818733842446 874.3145312936664 L 1033.8945428009113 881.1208660019997 L 1020.2818733842446 887.9272007103331 Z"/></g></g><g><text fill="black" stroke="none" font-family="sans-serif" font-size="11pt" font-style="normal" font-weight="normal" text-decoration="normal" x="1072.010017167578" y="920.3253539219996" text-anchor="start" dominant-baseline="alphabetic" xml:space="preserve">Create subscriber</text></g><g><path fill="none" stroke="black" paint-order="fill stroke markers" d=" M 1050.2297461009114 926.8594352419997 L 1206.7656150686846 926.8594352419997" stroke-miterlimit="10" stroke-width="1.3612669416666667" stroke-dasharray=""/><g transform="translate(1209.488148952018,926.8594352419997) translate(-1209.488148952018,-926.8594352419997)"><path fill="black" stroke="none" paint-order="stroke fill markers" d=" M 1195.8754795353514 920.0531005336663 L 1209.488148952018 926.8594352419997 L 1195.8754795353514 933.665769950333 Z"/></g></g><g><text fill="black" stroke="none" font-family="sans-serif" font-size="11pt" font-style="normal" font-weight="normal" text-decoration="normal" x="1307.1025246858721" y="966.0639231619996" text-anchor="start" dominant-baseline="alphabetic" xml:space="preserve">Create subscriber</text></g><g><path fill="none" stroke="black" paint-order="fill stroke markers" d=" M 1225.8233522520181 972.5980044819996 L 1501.3570239541664 972.5980044819996" stroke-miterlimit="10" stroke-width="1.3612669416666667" stroke-dasharray=""/><g transform="translate(1504.0795578374998,972.5980044819996) translate(-1504.0795578374998,-972.5980044819996)"><path fill="black" stroke="none" paint-order="stroke fill markers" d=" M 1490.4668884208331 965.7916697736663 L 1504.0795578374998 972.5980044819996 L 1490.4668884208331 979.404339190333 Z"/></g></g><g><text fill="black" stroke="none" font-family="sans-serif" font-size="11pt" font-style="normal" font-weight="normal" text-decoration="normal" x="1247.6036233186846" y="1011.8024924019995" text-anchor="start" dominant-baseline="alphabetic" xml:space="preserve">Return subscriber and load in cache</text></g><g><path fill="none" stroke="black" paint-order="fill stroke markers" d=" M 1504.0795578374998 1018.3365737219996 L 1228.5458861353516 1018.3365737219996" stroke-miterlimit="10" stroke-width="1.3612669416666667" stroke-dasharray="6.53408132"/><g transform="translate(1225.8233522520181,1018.3365737219996) translate(-1225.8233522520181,-1018.3365737219996)"><path fill="black" stroke="none" paint-order="stroke fill markers" d=" M 1239.4360216686848 1011.5302390136662 L 1225.8233522520181 1018.3365737219996 L 1239.4360216686848 1025.142908430333 Z"/></g></g><g><text fill="black" stroke="none" font-family="sans-serif" font-size="11pt" font-style="normal" font-weight="normal" text-decoration="normal" x="1072.010017167578" y="1057.5410616419997" text-anchor="start" dominant-baseline="alphabetic" xml:space="preserve">Return subscriber</text></g><g><path fill="none" stroke="black" paint-order="fill stroke markers" d=" M 1209.488148952018 1064.0751429619995 L 1052.9522799842448 1064.0751429619995" stroke-miterlimit="10" stroke-width="1.3612669416666667" stroke-dasharray="6.53408132"/><g transform="translate(1050.2297461009114,1064.0751429619995) translate(-1050.2297461009114,-1064.0751429619995)"><path fill="black" stroke="none" paint-order="stroke fill markers" d=" M 1063.842415517578 1057.2688082536663 L 1050.2297461009114 1064.0751429619995 L 1063.842415517578 1070.8814776703327 Z"/></g></g><g><text fill="black" stroke="none" font-family="sans-serif" font-size="11pt" font-style="normal" font-weight="normal" text-decoration="normal" x="781.9210048010416" y="1103.2796308819998" text-anchor="start" dominant-baseline="alphabetic" xml:space="preserve">Return subscriber / Confirmation</text></g><g><path fill="none" stroke="black" paint-order="fill stroke markers" d=" M 1033.8945428009113 1109.8137122019996 L 743.6935297372396 1109.8137122019996" stroke-miterlimit="10" stroke-width="1.3612669416666667" stroke-dasharray="6.53408132"/><g transform="translate(740.9709958539063,1109.8137122019996) translate(-740.9709958539063,-1109.8137122019996)"><path fill="black" stroke="none" paint-order="stroke fill markers" d=" M 754.583665270573 1103.0073774936664 L 740.9709958539063 1109.8137122019996 L 754.583665270573 1116.6200469103328 Z"/></g></g><g><text fill="black" stroke="none" font-family="sans-serif" font-size="11pt" font-style="normal" font-weight="normal" text-decoration="normal" x="323.95634349143876" y="1149.0182001219998" text-anchor="start" dominant-baseline="alphabetic" xml:space="preserve">Update slack app home tab (subscribed view)</text></g><g><path fill="none" stroke="black" paint-order="fill stroke markers" d=" M 724.6357925539062 1155.5522814419996 L 222.60630087089842 1155.5522814419996" stroke-miterlimit="10" stroke-width="1.3612669416666667" stroke-dasharray=""/><g transform="translate(219.88376698756508,1155.5522814419996) translate(-219.88376698756508,-1155.5522814419996)"><path fill="none" stroke="black" paint-order="fill stroke markers" d=" M 233.49643640423173 1148.7459467336664 L 221.24503392923174 1155.5522814419996 L 233.49643640423173 1162.3586161503329" stroke-miterlimit="10" stroke-width="1.3612669416666667"/></g></g><g><text fill="black" stroke="none" font-family="sans-serif" font-size="11pt" font-style="normal" font-weight="normal" text-decoration="normal" x="421.32565196311845" y="1194.756769362" text-anchor="start" dominant-baseline="alphabetic" xml:space="preserve">Respond status</text></g><g><path fill="none" stroke="black" paint-order="fill stroke markers" d=" M 219.88376698756508 1201.2908506819997 L 721.9132586705729 1201.2908506819997" stroke-miterlimit="10" stroke-width="1.3612669416666667" stroke-dasharray="6.53408132"/><g transform="translate(724.6357925539062,1201.2908506819997) translate(-724.6357925539062,-1201.2908506819997)"><path fill="none" stroke="black" paint-order="fill stroke markers" d=" M 711.0231231372395 1194.4845159736665 L 723.2745256122395 1201.2908506819997 L 711.0231231372395 1208.097185390333" stroke-miterlimit="10" stroke-width="1.3612669416666667"/></g></g><g><text fill="black" stroke="none" font-family="sans-serif" font-size="11pt" font-style="normal" font-weight="normal" text-decoration="normal" x="1049.4925422978515" y="1284.600387512" text-anchor="start" dominant-baseline="alphabetic" xml:space="preserve">Repond with subscription error message</text></g><g><path fill="none" stroke="black" paint-order="fill stroke markers" d=" M 1620.3904925503905 1291.1344688319998 L 743.6935297372396 1291.1344688319998" stroke-miterlimit="10" stroke-width="1.3612669416666667" stroke-dasharray="6.53408132"/><g transform="translate(740.9709958539063,1291.1344688319998) translate(-740.9709958539063,-1291.1344688319998)"><path fill="black" stroke="none" paint-order="stroke fill markers" d=" M 754.583665270573 1284.3281341236666 L 740.9709958539063 1291.1344688319998 L 754.583665270573 1297.940803540333 Z"/></g></g><g><text fill="black" stroke="none" font-family="sans-serif" font-size="11pt" font-style="normal" font-weight="normal" text-decoration="normal" x="275.0659015969075" y="1330.338956752" text-anchor="start" dominant-baseline="alphabetic" xml:space="preserve">Update slack app home tab (last subscription not successful)</text></g><g><path fill="none" stroke="black" paint-order="fill stroke markers" d=" M 724.6357925539062 1336.8730380719999 L 222.60630087089842 1336.8730380719999" stroke-miterlimit="10" stroke-width="1.3612669416666667" stroke-dasharray=""/><g transform="translate(219.88376698756508,1336.8730380719999) translate(-219.88376698756508,-1336.8730380719999)"><path fill="none" stroke="black" paint-order="fill stroke markers" d=" M 233.49643640423173 1330.0667033636666 L 221.24503392923174 1336.8730380719999 L 233.49643640423173 1343.679372780333" stroke-miterlimit="10" stroke-width="1.3612669416666667"/></g></g><g><text fill="black" stroke="none" font-family="sans-serif" font-size="11pt" font-style="normal" font-weight="normal" text-decoration="normal" x="421.32565196311845" y="1376.0775259920001" text-anchor="start" dominant-baseline="alphabetic" xml:space="preserve">Respond status</text></g><g><path fill="none" stroke="black" paint-order="fill stroke markers" d=" M 219.88376698756508 1382.611607312 L 721.9132586705729 1382.611607312" stroke-miterlimit="10" stroke-width="1.3612669416666667" stroke-dasharray="6.53408132"/><g transform="translate(724.6357925539062,1382.611607312) translate(-724.6357925539062,-1382.611607312)"><path fill="none" stroke="black" paint-order="fill stroke markers" d=" M 711.0231231372395 1375.8052726036667 L 723.2745256122395 1382.611607312 L 711.0231231372395 1389.4179420203332" stroke-miterlimit="10" stroke-width="1.3612669416666667"/></g></g><g><g/><path fill="none" stroke="black" paint-order="fill stroke markers" d=" M 822.0919561274087 382.897165352 L 1569.4203710374998 382.897165352 L 1569.4203710374998 654.0615401319999 L 822.0919561274087 654.0615401319999 L 822.0919561274087 382.897165352 Z" stroke-miterlimit="10" stroke-width="2.3336004714285714" stroke-dasharray=""/><path fill="white" stroke="black" paint-order="fill stroke markers" d=" M 822.0919561274087 382.897165352 L 822.0919561274087 402.499409312 L 868.451159724479 402.499409312 L 878.252281704479 392.698287332 L 878.252281704479 382.897165352 L 822.0919561274087 382.897165352" stroke-miterlimit="10" stroke-width="2.3336004714285714" stroke-dasharray=""/><text fill="black" stroke="none" font-family="sans-serif" font-size="8.8pt" font-style="normal" font-weight="bold" text-decoration="normal" x="838.4271594274087" y="395.965327992" text-anchor="start" dominant-baseline="alphabetic" xml:space="preserve">alt</text><text fill="black" stroke="none" font-family="sans-serif" font-size="8.8pt" font-style="normal" font-weight="bold" text-decoration="normal" x="894.5874850044789" y="395.965327992" text-anchor="start" dominant-baseline="alphabetic" xml:space="preserve">[User in cache]</text><g><path fill="none" stroke="black" paint-order="fill stroke markers" d=" M 822.0919561274087 472.740783502 L 1569.4203710374998 472.740783502" stroke-miterlimit="10" stroke-width="2.3336004714285714" stroke-dasharray="4.083800825"/></g><g/><text fill="black" stroke="none" font-family="sans-serif" font-size="8.8pt" font-style="normal" font-weight="bold" text-decoration="normal" x="894.5874850044789" y="485.808946142" text-anchor="start" dominant-baseline="alphabetic" xml:space="preserve">[User not in cache]</text></g><g/><g><g/><path fill="none" stroke="black" paint-order="fill stroke markers" d=" M 146.3753521375651 770.0414835619998 L 1685.7313057503904 770.0414835619998 L 1685.7313057503904 1407.1144122619999 L 146.3753521375651 1407.1144122619999 L 146.3753521375651 770.0414835619998 Z" stroke-miterlimit="10" stroke-width="2.3336004714285714" stroke-dasharray=""/><path fill="white" stroke="black" paint-order="fill stroke markers" d=" M 146.3753521375651 770.0414835619998 L 146.3753521375651 789.6437275219998 L 192.73455573463542 789.6437275219998 L 202.53567771463543 779.8426055419998 L 202.53567771463543 770.0414835619998 L 146.3753521375651 770.0414835619998" stroke-miterlimit="10" stroke-width="2.3336004714285714" stroke-dasharray=""/><text fill="black" stroke="none" font-family="sans-serif" font-size="8.8pt" font-style="normal" font-weight="bold" text-decoration="normal" x="162.7105554375651" y="783.1096462019998" text-anchor="start" dominant-baseline="alphabetic" xml:space="preserve">alt</text><text fill="black" stroke="none" font-family="sans-serif" font-size="8.8pt" font-style="normal" font-weight="bold" text-decoration="normal" x="218.87088101463542" y="783.1096462019998" text-anchor="start" dominant-baseline="alphabetic" xml:space="preserve">[Subscription successful]</text><g><path fill="none" stroke="black" paint-order="fill stroke markers" d=" M 146.3753521375651 1225.7936556319999 L 1685.7313057503904 1225.7936556319999" stroke-miterlimit="10" stroke-width="2.3336004714285714" stroke-dasharray="4.083800825"/></g><g/><text fill="black" stroke="none" font-family="sans-serif" font-size="8.8pt" font-style="normal" font-weight="bold" text-decoration="normal" x="218.87088101463542" y="1238.8618182719997" text-anchor="start" dominant-baseline="alphabetic" xml:space="preserve">[Subscription unsuccessful]</text></g><g/></g><g/><g/><g/><g/><g/><g/><g/><g/></g></svg>