<svg version="1.1" xmlns="http://www.w3.org/2000/svg" xmlns:xlink="http://www.w3.org/1999/xlink" width="1106" height="552"><defs/><g><g/><g/><g/><g/><g/><g/><g/><g/><g/><g><rect fill="white" stroke="none" x="0" y="0" width="1106" height="552"/></g><g><text fill="black" stroke="none" font-family="sans-serif" font-size="16.5pt" font-style="normal" font-weight="normal" text-decoration="normal" x="471.2215890203777" y="24.50280495" text-anchor="start" dominant-baseline="alphabetic" xml:space="preserve">Channel Deleted</text></g><g><g><path fill="#9F5F9F" stroke="black" paint-order="fill stroke markers" d=" M 8.167601650000003 58.5617038305 L 119.02673073125 58.5617038305 L 119.02673073125 518.4793527420001 L 8.167601650000003 518.4793527420001 L 8.167601650000003 58.5617038305" stroke-miterlimit="10" stroke-width="1.3612669416666667" stroke-dasharray=""/></g><g><text fill="black" stroke="none" font-family="sans-serif" font-size="11pt" font-style="normal" font-weight="bold" text-decoration="normal" x="44.441839347363285" y="81.43098845050001" text-anchor="start" dominant-baseline="alphabetic" xml:space="preserve">Slack</text></g><g><path fill="none" stroke="black" paint-order="fill stroke markers" d=" M 253.87204853391927 50.394102180500006 L 1098.1691310782553 50.394102180500006 L 1098.1691310782553 518.4793527420001 L 253.87204853391927 518.4793527420001 L 253.87204853391927 50.394102180500006" stroke-miterlimit="10" stroke-width="1.3612669416666667" stroke-dasharray=""/></g><g><text fill="black" stroke="none" font-family="sans-serif" font-size="11pt" font-style="normal" font-weight="bold" text-decoration="normal" x="594.9325618519857" y="73.2633868005" text-anchor="start" dominant-baseline="alphabetic" xml:space="preserve">Service Provider Slack </text></g></g><g><path fill="none" stroke="black" paint-order="fill stroke markers" d=" M 63.597166190625 167.272481792 L 63.597166190625 552.783279672" stroke-miterlimit="10" stroke-width="1.3612669416666667" stroke-dasharray="12.565541,5.445067766666667"/><path fill="none" stroke="black" paint-order="fill stroke markers" d=" M 323.9795000374349 167.272481792 L 323.9795000374349 552.783279672" stroke-miterlimit="10" stroke-width="1.3612669416666667" stroke-dasharray="12.565541,5.445067766666667"/><path fill="none" stroke="black" paint-order="fill stroke markers" d=" M 481.67764415240885 167.272481792 L 481.67764415240885 552.783279672" stroke-miterlimit="10" stroke-width="1.3612669416666667" stroke-dasharray="12.565541,5.445067766666667"/><path fill="none" stroke="black" paint-order="fill stroke markers" d=" M 799.876795347461 167.272481792 L 799.876795347461 552.783279672" stroke-miterlimit="10" stroke-width="1.3612669416666667" stroke-dasharray="12.565541,5.445067766666667"/><path fill="none" stroke="black" paint-order="fill stroke markers" d=" M 1049.657947274935 167.272481792 L 1049.657947274935 552.783279672" stroke-miterlimit="10" stroke-width="1.3612669416666667" stroke-dasharray="12.565541,5.445067766666667"/></g><g><g><path fill="white" stroke="black" paint-order="fill stroke markers" d=" M 96.022544741125 120.39044832100001 A 24.2577769005 24.2577769005 0 1 1 96.02253261223755 120.36619054814246 M 32.560279920625 94.74417914 L 32.560279920625 146.03671750200002 M 31.171787640124997 120.39044832100001 L 47.506990940125 120.39044832100001" stroke-miterlimit="10" stroke-width="2.7769845610000004" stroke-dasharray=""/></g><g><g/><text fill="black" stroke="none" font-family="sans-serif" font-size="11pt" font-style="normal" font-weight="normal" text-decoration="normal" x="16.335203300000003" y="162.371920802" text-anchor="start" dominant-baseline="alphabetic" xml:space="preserve">SlackEventApi</text></g><g><path fill="white" stroke="black" paint-order="fill stroke markers" d=" M 356.4048785879349 120.39044832100001 A 24.2577769005 24.2577769005 0 1 1 356.40486645904747 120.36619054814246 M 292.94261376743486 94.74417914 L 292.94261376743486 146.03671750200002 M 291.5541214869349 120.39044832100001 L 307.8893247869349 120.39044832100001" stroke-miterlimit="10" stroke-width="2.7769845610000004" stroke-dasharray=""/></g><g><g/><text fill="black" stroke="none" font-family="sans-serif" font-size="11pt" font-style="normal" font-weight="normal" text-decoration="normal" x="262.03965018391926" y="162.371920802" text-anchor="start" dominant-baseline="alphabetic" xml:space="preserve">SpChannelHandler</text></g><g><path fill="white" stroke="black" paint-order="fill stroke markers" d=" M 505.93542105290885 120.39044832100001 A 24.2577769005 24.2577769005 0 1 1 505.93540892402143 120.36619054814246 M 478.4106034924088 96.1326714205 L 488.21172547240883 87.96506977050001 M 478.4106034924088 96.1326714205 L 488.21172547240883 104.3002730705" stroke-miterlimit="10" stroke-width="2.7769845610000004" stroke-dasharray=""/></g><g><g/><text fill="black" stroke="none" font-family="sans-serif" font-size="11pt" font-style="normal" font-weight="normal" text-decoration="normal" x="420.9654325435221" y="162.371920802" text-anchor="start" dominant-baseline="alphabetic" xml:space="preserve">SpChannelService</text></g><g><path fill="white" stroke="black" paint-order="fill stroke markers" d=" M 824.1345722479609 118.16886067220001 A 24.2577769005 24.2577769005 0 1 1 824.1345601190735 118.14460289934246 M 774.230526166461 144.6482252215 L 822.7460799674609 144.6482252215" stroke-miterlimit="10" stroke-width="2.7769845610000004" stroke-dasharray=""/></g><g><g/><text fill="black" stroke="none" font-family="sans-serif" font-size="11pt" font-style="normal" font-weight="normal" text-decoration="normal" x="769.7229028303711" y="162.371920802" text-anchor="start" dominant-baseline="alphabetic" xml:space="preserve">SpCache</text></g><g><path fill="white" stroke="black" paint-order="fill stroke markers" d=" M 1025.8085504569349 135.255483324 L 1025.8085504569349 100.95155639400002 L 1073.507344092935 100.95155639400002 L 1073.507344092935 135.255483324" stroke-miterlimit="10" stroke-width="2.7769845610000004" stroke-dasharray=""/><path fill="white" stroke="black" paint-order="fill stroke markers" d=" M 1073.507344092935 99.75908655310002 L 1073.5061516330313 99.86689709801664 L 1073.5025743725653 99.97469686196861 L 1073.4966126692598 100.08247506506937 L 1073.4882671192806 100.19022092958842 L 1073.4775385571754 100.2979236810291 L 1073.4644280557916 100.40557254920603 L 1073.4489369261682 100.51315676932207 L 1073.4310667174057 100.62066558304487 L 1073.4108192165097 100.72808823958268 L 1073.3881964482134 100.83541399675931 L 1073.363200674775 100.94263212208854 L 1073.3358343957511 101.04973189384714 L 1073.3061003477465 101.1567026021472 L 1073.2740015041413 101.26353355000704 L 1073.2395410747931 101.37021405442088 L 1073.2027225057163 101.4767334474272 L 1073.1635494787372 101.58308107717545 L 1073.1220259111253 101.68924630899127 L 1073.0781559552033 101.79521852643998 L 1073.03194399793 101.90098713238812 L 1072.9833946604626 102.00654155006325 L 1072.9325127976947 102.11187122411154 L 1072.8793034977696 102.21696562165339 L 1072.8237720815735 102.32181423333661 L 1072.7659241022016 102.4264065743874 L 1072.7057653444033 102.53073218565882 L 1072.6433018240045 102.63478063467669 L 1072.5785397873055 102.7385415166828 L 1072.5114857104554 102.84200445567542 L 1072.4421462988064 102.94515910544688 L 1072.370528486242 103.04799515061815 L 1072.2966394344833 103.15050230767042 L 1072.220486532374 103.2526703259734 L 1072.1420773951413 103.3544889888104 L 1072.0614198636333 103.4559481144 L 1071.9785220035358 103.55703755691417 L 1071.893392104566 103.6577472074929 L 1071.8060386796426 103.75806699525508 L 1071.7164704640354 103.8579868883055 L 1071.6246964144912 103.95749689473814 L 1071.5307257083389 104.05658706363529 L 1071.4345677425704 104.15524748606262 L 1071.336232132902 104.25346829606012 L 1071.2357287128134 104.35123967162862 L 1071.133067532562 104.44855183571204 L 1071.028258858181 104.54539505717509 L 1070.9213131704503 104.6417596517763 L 1070.8122411638494 104.73763598313651 L 1070.701053745488 104.83301446370251 L 1070.5877620340154 104.92788555570571 L 1070.4723773585085 105.02223977211597 L 1070.3549112573385 105.11606767759027 L 1070.2353754770177 105.20935988941625 L 1070.1137819710243 105.30210707845049 L 1069.990142898608 105.39429997005135 L 1069.8644706235725 105.48592934500653 L 1069.736777713041 105.57698604045486 L 1069.6070769361982 105.66746095080268 L 1069.475381263013 105.75734502863436 L 1069.3417038629439 105.84662928561703 L 1069.206058103619 105.93530479339938 L 1069.068457549501 106.02336268450453 L 1068.9289159605312 106.11079415321676 L 1068.787447290752 106.19759045646204 L 1068.6440656869122 106.28374291468239 L 1068.4987854870528 106.36924291270377 L 1068.3516212190732 106.45408190059764 L 1068.202587599277 106.5382513945359 L 1068.0516995309022 106.62174297763931 L 1067.8989721026298 106.70454830081913 L 1067.7444205870754 106.78665908361204 L 1067.5880604392619 106.86806711500819 L 1067.4299072950737 106.94876425427228 L 1067.2699769696935 107.02874243175762 L 1067.1082854560202 107.10799364971314 L 1066.9448489230708 107.18650998308306 L 1066.7796837143624 107.26428358029946 L 1066.6128063462781 107.34130666406747 L 1066.4442335064157 107.41757153214289 L 1066.2739820519184 107.49307055810243 L 1066.1020690077903 107.56779619210644 L 1065.9285115651924 107.6417409616538 L 1065.753327079724 107.71489747232916 L 1065.576533069688 107.7872584085424 L 1065.3981472143378 107.85881653426023 L 1065.2181873521106 107.9295646937297 L 1065.0366714788424 107.9994958121938 L 1064.8536177459696 108.06860289659899 L 1064.6690444587125 108.1368790362944 L 1064.4829700742464 108.20431740372297 L 1064.2954131998545 108.27091125510412 L 1064.1063925910678 108.33665393110826 L 1063.91592714979 108.40153885752254 L 1063.724035922406 108.46555954590839 L 1063.5307380978793 108.52870959425034 L 1063.3360530058308 108.59098268759617 L 1063.1400001146076 108.65237259868843 L 1062.9425990293355 108.71287318858718 L 1062.7438694899583 108.77247840728386 L 1062.5438313692646 108.83118229430623 L 1062.3425046708996 108.88897897931456 L 1062.1399095273655 108.94586268268847 L 1061.936066198008 109.00182771610504 L 1061.7309950669894 109.05686848310758 L 1061.5247166412528 109.11097947966525 L 1061.3172515484684 109.16415529472346 L 1061.1086205349727 109.21639061074505 L 1060.8988444636932 109.26768020424194 L 1060.6879443120622 109.31801894629751 L 1060.4759411699192 109.36740180307952 L 1060.2628562374016 109.41582383634344 L 1060.0487108228251 109.46328020392627 L 1059.833526340553 109.50976616023082 L 1059.6173243088538 109.55527705670022 L 1059.4001263477505 109.5998083422827 L 1059.1819541768584 109.64335556388684 L 1058.962829613213 109.68591436682678 L 1058.7427745690877 109.72748049525767 L 1058.5218110498035 109.7680497926013 L 1058.2999611515286 109.80761820196176 L 1058.0772470590675 109.84618176653109 L 1057.8536910436442 109.88373662998495 L 1057.6293154606735 109.92027903686831 L 1057.4041427475272 109.95580533297093 L 1057.1781954212888 109.99031196569278 L 1056.9514960765027 110.02379548439939 L 1056.7240673829142 110.05625254076675 L 1056.4959320832036 110.08767988911629 L 1056.26711299071 110.11807438673935 L 1056.0376329871528 110.14743299421153 L 1055.8075150203408 110.17575277569651 L 1055.5767821018787 110.20303089923975 L 1055.3454573048664 110.22926463705164 L 1055.1135637615905 110.25445136578027 L 1054.8811246612124 110.27858856677372 L 1054.6481632474483 110.30167382633203 L 1054.4147028162454 110.32370483594849 L 1054.1807667134524 110.34467939254047 L 1053.9463783324845 110.3645953986698 L 1053.7115611119846 110.38345086275248 L 1053.4763385334788 110.40124389925779 L 1053.2407341190292 110.41797272889693 L 1053.004771428881 110.43363567880087 L 1052.7684740591062 110.44823118268765 L 1052.531865639245 110.46175778101907 L 1052.2949698299426 110.47421412114657 L 1052.0578103205821 110.4855989574465 L 1051.820410826917 110.49591115144473 L 1051.5827950886985 110.50514967193044 L 1051.3449868673029 110.5133135950593 L 1051.107009943354 110.5204021044458 L 1050.8688881143455 110.52641449124488 L 1050.6306451922621 110.53135015422289 L 1050.3923050011979 110.53520859981765 L 1050.1538913749728 110.53798944218781 L 1049.9154281547512 110.53969240325145 L 1049.676939186656 110.54031731271388 L 1049.4384483193855 110.53986410808467 L 1049.1999794018277 110.53833283468393 L 1048.9615562806755 110.5357236456377 L 1048.7232027980424 110.53203680186272 L 1048.484942789078 110.52727267204028 L 1048.2468000795848 110.52143173257942 L 1048.008798483635 110.5145145675692 L 1047.7709618011902 110.50652186872036 L 1047.5333138157202 110.4974544352961 L 1047.2958782918258 110.48731317403227 L 1047.0586789728611 110.47609909904648 L 1046.8217395785607 110.46381333173692 L 1046.5850838026663 110.45045710067006 L 1046.3487353105586 110.4360317414579 L 1046.1127177368896 110.42053869662433 L 1045.87705468322 110.40397951546092 L 1045.641769715659 110.38635585387198 L 1045.4068863625068 110.367669474209 L 1045.1724281119036 110.34792224509437 L 1044.9384184094786 110.32711614123453 L 1044.7048806560074 110.30525324322254 L 1044.4718382050703 110.28233573732997 L 1044.2393143607187 110.25836591528834 L 1044.0073323751428 110.23334617405986 L 1043.775915446348 110.2072790155978 L 1043.5450867158347 110.18016704659628 L 1043.314869266283 110.15201297822964 L 1043.0852861192466 110.1228196258812 L 1042.8563602328484 110.09258990886192 L 1042.6281144994864 110.06132685011828 L 1042.4005717435437 110.0290335759301 L 1042.1737547191065 109.99571331559791 L 1041.9476861076878 109.96136940111997 L 1041.7223885159608 109.9260052668591 L 1041.497884473497 109.88962444919923 L 1041.274196430513 109.85223058619187 L 1041.051346755627 109.81382741719212 L 1040.829357733621 109.77441878248487 L 1040.6082515632118 109.73400862290077 L 1040.3880503548326 109.6926009794221 L 1040.1687761284202 109.6501999927787 L 1039.950450811215 109.60680990303389 L 1039.7330962355668 109.56243504916051 L 1039.5167341367517 109.51707986860694 L 1039.3013861507993 109.47074889685346 L 1039.087073812329 109.42344676695863 L 1038.873818552396 109.37517820909602 L 1038.6616416963484 109.3259480500812 L 1038.4505644616952 109.27576121288904 L 1038.240607955984 109.22462271616142 L 1038.03179317469 109.17253767370543 L 1037.8241409991176 109.1195112939819 L 1037.6176721943114 109.0655488795846 L 1037.4124074069798 109.01065582671 L 1037.2083671634302 108.95483762461768 L 1037.0055718675173 108.89809985508128 L 1036.8040417986017 108.84044819183053 L 1036.6037971095218 108.78188839998367 L 1036.4048578245804 108.7224263354711 L 1036.2072438375396 108.66206794444972 L 1036.0109749096337 108.60081926270831 L 1035.816070667592 108.53868641506405 L 1035.6225506016758 108.47567561474989 L 1035.4304340637311 108.41179316279337 L 1035.2397402652514 108.34704544738645 L 1035.0504882754574 108.2814389432467 L 1034.8626970193905 108.21498021096988 L 1034.6763852760198 108.14767589637383 L 1034.4915716763644 108.07953272983391 L 1034.3082747016304 108.01055752561001 L 1034.126512681362 107.94075718116505 L 1033.9463037916105 107.87013867647532 L 1033.7676660531142 107.79870907333245 L 1033.5906173294984 107.72647551463722 L 1033.4151753254876 107.6534452236853 L 1033.241357585136 107.57962550344493 L 1033.069181490073 107.50502373582663 L 1032.898664257765 107.42964738094497 L 1032.7298229397923 107.35350397637264 L 1032.5626744201463 107.27660113638665 L 1032.3972354135399 107.1989465512069 L 1032.2335224637359 107.12054798622721 L 1032.0715519418925 107.04141328123873 L 1031.911340044927 106.96155034964602 L 1031.752902793896 106.8809671776757 L 1031.5962560323924 106.7996718235778 L 1031.4414154249614 106.71767241681998 L 1031.2883964555351 106.63497715727459 L 1031.1372144258828 106.55159431439867 L 1030.9878844540815 106.46753222640703 L 1030.840421473004 106.38279929943842 L 1030.6948402288256 106.29740400671491 L 1030.551155279549 106.21135488769461 L 1030.4093809935498 106.12466054721774 L 1030.2695315481383 106.03732965464607 L 1030.1316209281426 105.94937094299611 L 1029.9956629245096 105.8607932080657 L 1029.8616711329266 105.77160530755455 L 1029.7296589524608 105.68181616017836 L 1029.5996395842205 105.59143474477705 L 1029.471626030034 105.50047009941686 L 1029.3456310911502 105.40893132048649 L 1029.2216673669577 105.31682756178758 L 1029.099747253726 105.22416803361924 L 1028.9798829433646 105.13096200185706 L 1028.8620864222046 105.03721878702656 L 1028.7463694698001 104.94294776337108 L 1028.63274365775 104.84815835791446 L 1028.5212203485405 104.75286004951823 L 1028.41181069441 104.65706236793383 L 1028.3045256362323 104.56077489284957 L 1028.199375902424 104.46400725293273 L 1028.096372007871 104.36676912486666 L 1027.9955242528767 104.26907023238314 L 1027.8968427221325 104.17092034529 L 1027.8003372837097 104.07232927849415 L 1027.706017588071 103.97330689102013 L 1027.6138930671082 103.87386308502415 L 1027.523972933196 103.77400780480394 L 1027.436266178273 103.67375103580433 L 1027.3507815729417 103.57310280361865 L 1027.2675276655914 103.47207317298626 L 1027.1865127815436 103.37067224678601 L 1027.1077450222188 103.26891016502606 L 1027.0312322643274 103.16679710382974 L 1026.9569821590817 103.0643432744181 L 1026.88500213143 102.96155892208871 L 1026.8152993793153 102.85845432519113 L 1026.7478808729547 102.75503979409915 L 1026.6827533541427 102.65132567017969 L 1026.619923335577 102.5473223247587 L 1026.5593971002068 102.44304015808407 L 1026.5011807006053 102.33848959828556 L 1026.445279958364 102.23368110033203 L 1026.3917004635105 102.12862514498595 L 1026.3404475739499 102.02333223775527 L 1026.2915264149278 101.91781290784299 L 1026.2449418785202 101.81207770709416 L 1026.200698623141 101.70613720894077 L 1026.1588010730798 101.60000200734433 L 1026.119253418056 101.49368271573654 L 1026.0820596128024 101.387189965958 L 1026.0472233766684 101.2805344071949 L 1026.0147481932488 101.17372670491429 L 1025.9846373100347 101.06677753979733 L 1025.9568937380895 100.95969760667145 L 1025.931520251747 100.85249761344073 L 1025.9085193883352 100.74518828001514 L 1025.8878934479208 100.63778033723861 L 1025.8696444930806 100.5302845258159 L 1025.8537743486952 100.42271159523858 L 1025.8402846017657 100.31507230271008 L 1025.8291766012555 100.20737741206993 L 1025.8204514579554 100.09963769271747 L 1025.8141100443725 99.99186391853482 L 1025.8101529946427 99.88406686680962 L 1025.808580704468 99.77625731715719 L 1025.809393331076 99.66844605044267 L 1025.8125907932047 99.56064384770288 L 1025.8181727711103 99.45286148906825 L 1025.8261387066 99.34510975268485 L 1025.8364878030868 99.23739941363651 L 1025.8492190256695 99.12974124286738 L 1025.8643311012368 99.02214600610482 L 1025.8818225185933 98.91462446278284 L 1025.901691528612 98.80718736496618 L 1025.9239361444088 98.69984545627509 L 1025.9485541415402 98.59260947081098 L 1025.9755430582272 98.48549013208303 L 1026.0049001956006 98.37849815193587 L 1026.036622617971 98.27164422947833 L 1026.0707071531228 98.16493905001363 L 1026.107150392631 98.05839328397077 L 1026.1459486922017 97.9520175858376 L 1026.1870981720374 97.84582259309526 L 1026.2305947172244 97.73981892515455 L 1026.2764339781445 97.6340171822939 L 1026.3246113709097 97.52842794459946 L 1026.3751220778208 97.423061770907 L 1026.4279610478495 97.31792919774607 L 1026.4831229971426 97.21304073828638 L 1026.5406024095512 97.10840688128647 L 1026.600393537182 97.00403809004486 L 1026.662490400972 96.89994480135368 L 1026.7268867912865 96.79613742445507 L 1026.7935762685402 96.6926263400002 L 1026.862552163841 96.58942189901128 L 1026.9338075796568 96.48653442184639 L 1027.0073353905054 96.38397419716749 L 1027.083128243667 96.28175148091161 L 1027.1611785599196 96.17987649526519 L 1027.2414785342962 96.07835942764187 L 1027.3240201368667 95.97721042966384 L 1027.4087951135396 95.8764396161466 L 1027.4957949868874 95.77605706408754 L 1027.5850110569959 95.67607281165819 L 1027.6764344023318 95.57649685720048 L 1027.7700558806373 95.47733915822688 L 1027.8658661298425 95.37860963042466 L 1027.9638555690021 95.28031814666433 L 1028.064014399254 95.18247453601234 L 1028.1663326047983 95.08508858274823 L 1028.2707999539002 94.98817002538617 L 1028.3774059999116 94.89172855570112 L 1028.486140082317 94.79577381775971 L 1028.5969913277984 94.70031540695574 L 1028.7099486513237 94.60536286905077 L 1028.8250007572547 94.51092569921943 L 1028.9421361404768 94.41701334110004 L 1029.0613430875494 94.32363518585014 L 1029.1826096778768 94.23080057120742 L 1029.305923784901 94.13851878055601 L 1029.4312730773147 94.04679904199807 L 1029.5586450202923 93.955650527431 L 1029.688026876746 93.86508235163033 L 1029.8194057085982 93.77510357133815 L 1029.9527683780748 93.68572318435751 L 1030.0881015490202 93.59695012865262 L 1030.22539168823 93.5087932814551 L 1030.3646250668048 93.42126145837616 L 1030.5057877615227 93.33436341252519 L 1030.648865656232 93.24810783363438 L 1030.793844443262 93.1625033471897 L 1030.9407096248553 93.07755851356848 L 1031.089446514616 92.9932818271833 L 1031.240040238979 92.90968171563254 L 1031.3924757386972 92.82676653885773 L 1031.546737770348 92.74454458830742 L 1031.7028109078567 92.66302408610815 L 1031.8606795440396 92.58221318424222 L 1032.0203278921645 92.50211996373247 L 1032.1817399875297 92.4227524338342 L 1032.34489968906 92.34411853123427 L 1032.5097906809217 92.26622611925741 L 1032.6763964741526 92.1890829870799 L 1032.8447004083123 92.11269684895069 L 1033.0146856531476 92.0370753434199 L 1033.186335210276 91.9622260325751 L 1033.3596319148842 91.888156401285 L 1033.5345584374468 91.81487385645099 L 1033.7110972854568 91.74238572626649 L 1033.889230805177 91.67069925948411 L 1034.0689411834035 91.59982162469079 L 1034.2502104492485 91.52975990959095 L 1034.4330204759362 91.4605211202977 L 1034.6173529826165 91.3921121806323 L 1034.8031895361921 91.32453993143167 L 1034.9905115531626 91.25781112986445 L 1035.1793003014827 91.1919324487552 L 1035.3695369024344 91.12691047591709 L 1035.5612023325166 91.06275171349324 L 1035.7542774253457 90.99946257730645 L 1035.9487428735733 90.93704939621756 L 1036.1445792308168 90.87551841149269 L 1036.3417669136038 90.81487577617904 L 1036.54028620333 90.75512755448958 L 1036.7401172482319 90.69627972119672 L 1036.9412400653719 90.63833816103474 L 1037.1436345426355 90.58130866811136 L 1037.3472804407436 90.52519694532836 L 1037.5521573952765 90.47000860381125 L 1037.7582449187091 90.41574916234819 L 1037.9655224024611 90.36242404683813 L 1038.1739691189566 90.31003858974816 L 1038.3835642236977 90.25859802958036 L 1038.5942867573488 90.20810751034786 L 1038.8061156478318 90.1585720810605 L 1039.0190297124343 90.10999669521995 L 1039.2330076599274 90.0623862103243 L 1039.4480280926946 90.01574538738238 L 1039.6640695088718 89.9700788904376 L 1039.8811103044975 89.92539128610161 L 1040.0991287756726 89.88168704309761 L 1040.3181031207323 89.83897053181346 L 1040.538011442424 89.79724602386472 L 1040.7588317500993 89.75651769166738 L 1040.9805419619108 89.71678960802075 L 1041.2031199070227 89.67806574570005 L 1041.4265433278258 89.64034997705929 L 1041.650789882164 89.60364607364387 L 1041.875837145569 89.56795770581357 L 1042.1016626135017 89.53328844237541 L 1042.3282437036037 89.49964175022686 L 1042.5555577579548 89.46702099400908 L 1042.783582045339 89.43542943577052 L 1043.0122937635174 89.40487023464067 L 1043.241670041509 89.37534644651419 L 1043.471687941877 89.34686102374526 L 1043.7023244630232 89.31941681485246 L 1043.9335565414876 89.29301656423378 L 1044.165361054255 89.2676629118923 L 1044.3977148210674 89.2433583931721 L 1044.6305946067416 89.22010543850483 L 1044.8639771234932 89.19790637316656 L 1045.0978390332648 89.17676341704532 L 1045.3321569500606 89.15667868441913 L 1045.5669074422842 89.13765418374449 L 1045.8020670350818 89.11969181745562 L 1046.0376122126902 89.10279338177418 L 1046.2735194207878 89.08696056652965 L 1046.5097650688506 89.0721949549904 L 1046.7463255325104 89.05849802370521 L 1046.9831771559182 89.04587114235585 L 1047.2202962541087 89.03431557361992 L 1047.4576591153702 89.02383247304465 L 1047.6952420036139 89.01442288893136 L 1047.9330211607494 89.00608776223065 L 1048.1709728090586 88.99882792644821 L 1048.4090731535755 88.9926441075616 L 1048.6472983844635 88.98753692394752 L 1048.8856246793985 88.9835068863201 L 1049.1240282059496 88.98055439767974 L 1049.3624851239624 88.97867975327284 L 1049.6009715879443 88.97788314056228 L 1049.8394637494473 88.97816463920867 L 1050.0779377594542 88.97952422106238 L 1050.3163697707625 88.98196175016635 L 1050.55473594037 88.98547698276971 L 1050.7930124318584 88.99006956735212 L 1051.0311754177767 88.99573904465896 L 1051.2692010820253 89.00248484774721 L 1051.5070656222358 89.0103063020422 L 1051.7447452521526 89.019202625405 L 1051.9822162040105 89.0291729282107 L 1052.2194547309125 89.04021621343732 L 1052.4564371092035 89.05233137676555 L 1052.6931396408431 89.06551720668914 L 1052.9295386557753 89.0797723846361 L 1053.1656105142958 89.0950954851005 L 1053.4013316094156 89.11148497578507 L 1053.6366783692213 89.12893921775441 L 1053.871627259233 89.14745646559885 L 1054.106154784758 89.16703486760905 L 1054.3402374932386 89.18767246596111 L 1054.5738519765994 89.20936719691241 L 1054.8069748735866 89.23211689100792 L 1055.0395828721046 89.2559192732972 L 1055.2716527115476 89.28077196356185 L 1055.5031611851252 89.30667247655354 L 1055.7340851421825 89.33361822224259 L 1055.9644014905168 89.36160650607685 L 1056.1940871986847 89.39063452925127 L 1056.423119298307 89.42069938898774 L 1056.6514748863647 89.45179807882532 L 1056.8791311274892 89.48392748892095 L 1057.106065256246 89.5170844063604 L 1057.3322545794115 89.55126551547954 L 1057.5576764782415 89.58646739819596 L 1057.7823084107347 89.62268653435072 L 1058.0061279138843 89.65991930206037 L 1058.2291126059267 89.69816197807918 L 1058.4512401885788 89.73741073817143 L 1058.6724884492673 89.7776616574938 L 1058.8928352633504 89.8189107109879 L 1059.1122585963303 89.86115377378276 L 1059.3307365060568 89.9043866216073 L 1059.5482471449207 89.94860493121277 L 1059.7647687620395 89.99380428080505 L 1059.980279705432 90.03998015048685 L 1060.1947584241832 90.0871279227097 L 1060.4081834706 90.13524288273562 L 1060.620533502356 90.18432021910876 L 1060.8317872846246 90.23435502413635 L 1061.041923692204 90.28534229437957 L 1061.250921711628 90.33727693115392 L 1061.458760443269 90.39015374103897 L 1061.6654191034274 90.44396743639781 L 1061.870877026409 90.49871263590576 L 1062.075113666593 90.55438386508847 L 1062.2781086004854 90.6109755568694 L 1062.479841528762 90.66848205212658 L 1062.680292278298 90.72689760025837 L 1062.8794408041858 90.78621635975864 L 1063.0772671917384 90.84643239880089 L 1063.273751658482 90.90753969583137 L 1063.4688745561336 90.96953214017132 L 1063.6626163725664 91.03240353262795 L 1063.8549577337599 91.09614758611443 L 1064.0458794057383 91.1607579262785 L 1064.2353622964936 91.22622809214002 L 1064.4233874578945 91.29255153673692 L 1064.6099360875814 91.35972162778006 L 1064.7949895308473 91.42773164831627 L 1064.9785292825015 91.49657479740019 L 1065.1605369887222 91.56624419077427 L 1065.3409944488901 91.63673286155725 L 1065.51988361741 91.70803376094076 L 1065.697186605514 91.78013975889431 L 1065.8728856830505 91.85304364487818 L 1066.046963280259 91.92673812856452 L 1066.2194019895242 92.00121584056639 L 1066.3901845671191 92.07646933317463 L 1066.5592939349285 92.15249108110271 L 1066.7267131821561 92.22927348223918 L 1066.892425567017 92.3068088584079 L 1067.0564145184107 92.3850894561359 L 1067.2186636375786 92.4641074474286 L 1067.3791566997443 92.54385493055275 L 1067.537877655735 92.62432393082648 L 1067.6948106335876 92.70550640141681 L 1067.849939940135 92.78739422414436 L 1068.0032500625757 92.86997921029509 L 1068.1547256700255 92.95325310143917 L 1068.3043516150497 93.03720757025692 L 1068.4521129351785 93.12183422137142 L 1068.597994854403 93.20712459218805 L 1068.741982784653 93.29307015374081 L 1068.884062327255 93.3796623115452 L 1069.0242192743738 93.46689240645757 L 1069.162439610431 93.55475171554113 L 1069.2987095135084 93.64323145293818 L 1069.4330153567291 93.73232277074871 L 1069.565343709621 93.8220167599152 L 1069.6956813394586 93.91230445111346 L 1069.824015212588 94.00317681564962 L 1069.9503324957286 94.09462476636294 L 1070.0746205572573 94.18663915853458 L 1070.1968669684718 94.27921079080198 L 1070.3170595048325 94.37233040607906 L 1070.435186147186 94.46598869248189 L 1070.5512350829667 94.56017628425988 L 1070.6651947073776 94.65488376273235 L 1070.7770536245512 94.75010165723037 L 1070.8868006486891 94.84582044604385 L 1070.9944248051802 94.94203055737364 L 1071.0999153316986 95.03872237028881 L 1071.2032616792799 95.13588621568863 L 1071.3044535133747 95.23351237726953 L 1071.4034807148846 95.33159109249674 L 1071.5003333811717 95.43011255358043 L 1071.59500182705 95.5290669084566 L 1071.687476585754 95.62844426177223 L 1071.7777484098847 95.72823467587482 L 1071.865808272335 95.82842817180608 L 1071.9516473671922 95.92901473029994 L 1072.035257110618 96.02998429278436 L 1072.116629141708 96.13132676238725 L 1072.195755323327 96.23303200494607 L 1072.2726277429224 96.33508985002135 L 1072.3472387133165 96.4374900919136 L 1072.4195807734745 96.54022249068399 L 1072.4896466892508 96.64327677317824 L 1072.5574294541118 96.746642634054 L 1072.6229222898378 96.85030973681128 L 1072.6861186471997 96.95426771482623 L 1072.7470122066143 97.05850617238767 L 1072.8055968787767 97.1630146857367 L 1072.8618668052684 97.26778280410907 L 1072.9158163591437 97.37280005078027 L 1072.9674401454918 97.47805592411314 L 1073.0167330019776 97.58353989860805 L 1073.063689999356 97.68924142595546 L 1073.108306441967 97.79514993609072 L 1073.150577868203 97.90125483825108 L 1073.1905000509569 98.00754552203473 L 1073.2280689980435 98.11401135846187 L 1073.2632809525996 98.22064170103758 L 1073.296132393459 98.32742588681647 L 1073.3266200355047 98.43435323746894 L 1073.3547408299985 98.54141306034904 L 1073.380491964884 98.64859464956368 L 1073.403870865069 98.75588728704328 L 1073.4248751926834 98.86328024361347 L 1073.4435028473115 98.97076278006811 L 1073.4597519662038 99.07832414824313 L 1073.4736209244618 99.18595359209134 L 1073.485108335201 99.29364034875802 L 1073.4942130496902 99.40137364965727 L 1073.5009341574653 99.50914272154878 L 1073.5052709864215 99.61693678761516 L 1073.507223102879 99.72474506853963 M 1073.507344092935 134.0630134831 L 1073.5061516330313 134.17082402801663 L 1073.5025743725653 134.2786237919686 L 1073.4966126692598 134.38640199506935 L 1073.4882671192806 134.49414785958842 L 1073.4775385571754 134.60185061102908 L 1073.4644280557916 134.70949947920602 L 1073.4489369261682 134.81708369932204 L 1073.4310667174057 134.92459251304487 L 1073.4108192165097 135.03201516958265 L 1073.3881964482134 135.1393409267593 L 1073.363200674775 135.24655905208851 L 1073.3358343957511 135.35365882384713 L 1073.3061003477465 135.46062953214718 L 1073.2740015041413 135.56746048000701 L 1073.2395410747931 135.67414098442086 L 1073.2027225057163 135.78066037742718 L 1073.1635494787372 135.88700800717544 L 1073.1220259111253 135.99317323899126 L 1073.0781559552033 136.09914545643997 L 1073.03194399793 136.2049140623881 L 1072.9833946604626 136.31046848006324 L 1072.9325127976947 136.41579815411154 L 1072.8793034977696 136.5208925516534 L 1072.8237720815735 136.62574116333658 L 1072.7659241022016 136.7303335043874 L 1072.7057653444033 136.8346591156588 L 1072.6433018240045 136.9387075646767 L 1072.5785397873055 137.0424684466828 L 1072.5114857104554 137.14593138567542 L 1072.4421462988064 137.24908603544688 L 1072.370528486242 137.35192208061815 L 1072.2966394344833 137.4544292376704 L 1072.220486532374 137.5565972559734 L 1072.1420773951413 137.6584159188104 L 1072.0614198636333 137.7598750444 L 1071.9785220035358 137.86096448691416 L 1071.893392104566 137.96167413749288 L 1071.8060386796426 138.06199392525505 L 1071.7164704640354 138.1619138183055 L 1071.6246964144912 138.26142382473813 L 1071.5307257083389 138.3605139936353 L 1071.4345677425704 138.4591744160626 L 1071.336232132902 138.5573952260601 L 1071.2357287128134 138.6551666016286 L 1071.133067532562 138.75247876571203 L 1071.028258858181 138.84932198717507 L 1070.9213131704503 138.94568658177627 L 1070.8122411638494 139.04156291313652 L 1070.701053745488 139.1369413937025 L 1070.5877620340154 139.2318124857057 L 1070.4723773585085 139.32616670211596 L 1070.3549112573385 139.41999460759027 L 1070.2353754770177 139.51328681941624 L 1070.1137819710243 139.60603400845048 L 1069.990142898608 139.69822690005134 L 1069.8644706235725 139.7898562750065 L 1069.736777713041 139.88091297045483 L 1069.6070769361982 139.97138788080267 L 1069.475381263013 140.06127195863436 L 1069.3417038629439 140.15055621561703 L 1069.206058103619 140.23923172339937 L 1069.068457549501 140.3272896145045 L 1068.9289159605312 140.41472108321673 L 1068.787447290752 140.501517386462 L 1068.6440656869122 140.58766984468238 L 1068.4987854870528 140.67316984270377 L 1068.3516212190732 140.75800883059765 L 1068.202587599277 140.8421783245359 L 1068.0516995309022 140.9256699076393 L 1067.8989721026298 141.00847523081913 L 1067.7444205870754 141.09058601361204 L 1067.5880604392619 141.17199404500818 L 1067.4299072950737 141.25269118427227 L 1067.2699769696935 141.3326693617576 L 1067.1082854560202 141.41192057971313 L 1066.9448489230708 141.49043691308304 L 1066.7796837143624 141.56821051029945 L 1066.6128063462781 141.64523359406746 L 1066.4442335064157 141.72149846214288 L 1066.2739820519184 141.79699748810242 L 1066.1020690077903 141.87172312210643 L 1065.9285115651924 141.94566789165378 L 1065.753327079724 142.01882440232913 L 1065.576533069688 142.0911853385424 L 1065.3981472143378 142.16274346426022 L 1065.2181873521106 142.2334916237297 L 1065.0366714788424 142.3034227421938 L 1064.8536177459696 142.372529826599 L 1064.6690444587125 142.4408059662944 L 1064.4829700742464 142.50824433372296 L 1064.2954131998545 142.5748381851041 L 1064.1063925910678 142.64058086110825 L 1063.91592714979 142.70546578752254 L 1063.724035922406 142.7694864759084 L 1063.5307380978793 142.83263652425032 L 1063.3360530058308 142.89490961759617 L 1063.1400001146076 142.95629952868842 L 1062.9425990293355 143.01680011858718 L 1062.7438694899583 143.07640533728383 L 1062.5438313692646 143.13510922430623 L 1062.3425046708996 143.19290590931453 L 1062.1399095273655 143.24978961268846 L 1061.936066198008 143.30575464610504 L 1061.7309950669894 143.36079541310758 L 1061.5247166412528 143.41490640966524 L 1061.3172515484684 143.46808222472345 L 1061.1086205349727 143.52031754074505 L 1060.8988444636932 143.57160713424193 L 1060.6879443120622 143.6219458762975 L 1060.4759411699192 143.67132873307952 L 1060.2628562374016 143.71975076634342 L 1060.0487108228251 143.76720713392626 L 1059.833526340553 143.81369309023083 L 1059.6173243088538 143.8592039867002 L 1059.4001263477505 143.9037352722827 L 1059.1819541768584 143.94728249388683 L 1058.962829613213 143.98984129682677 L 1058.7427745690877 144.03140742525764 L 1058.5218110498035 144.07197672260128 L 1058.2999611515286 144.11154513196175 L 1058.0772470590675 144.15010869653108 L 1057.8536910436442 144.18766355998494 L 1057.6293154606735 144.2242059668683 L 1057.4041427475272 144.2597322629709 L 1057.1781954212888 144.29423889569279 L 1056.9514960765027 144.32772241439937 L 1056.7240673829142 144.36017947076672 L 1056.4959320832036 144.39160681911628 L 1056.26711299071 144.42200131673934 L 1056.0376329871528 144.45135992421152 L 1055.8075150203408 144.4796797056965 L 1055.5767821018787 144.50695782923975 L 1055.3454573048664 144.53319156705163 L 1055.1135637615905 144.55837829578024 L 1054.8811246612124 144.5825154967737 L 1054.6481632474483 144.60560075633202 L 1054.4147028162454 144.62763176594848 L 1054.1807667134524 144.64860632254045 L 1053.9463783324845 144.66852232866978 L 1053.7115611119846 144.68737779275247 L 1053.4763385334788 144.70517082925778 L 1053.2407341190292 144.72189965889692 L 1053.004771428881 144.73756260880086 L 1052.7684740591062 144.75215811268765 L 1052.531865639245 144.76568471101908 L 1052.2949698299426 144.77814105114655 L 1052.0578103205821 144.7895258874465 L 1051.820410826917 144.7998380814447 L 1051.5827950886985 144.80907660193043 L 1051.3449868673029 144.8172405250593 L 1051.107009943354 144.82432903444578 L 1050.8688881143455 144.83034142124487 L 1050.6306451922621 144.83527708422287 L 1050.3923050011979 144.83913552981764 L 1050.1538913749728 144.8419163721878 L 1049.9154281547512 144.84361933325144 L 1049.676939186656 144.84424424271387 L 1049.4384483193855 144.84379103808467 L 1049.1999794018277 144.84225976468392 L 1048.9615562806755 144.83965057563768 L 1048.7232027980424 144.8359637318627 L 1048.484942789078 144.83119960204027 L 1048.2468000795848 144.82535866257942 L 1048.008798483635 144.81844149756918 L 1047.7709618011902 144.81044879872033 L 1047.5333138157202 144.8013813652961 L 1047.2958782918258 144.79124010403225 L 1047.0586789728611 144.78002602904647 L 1046.8217395785607 144.7677402617369 L 1046.5850838026663 144.75438403067005 L 1046.3487353105586 144.73995867145788 L 1046.1127177368896 144.72446562662432 L 1045.87705468322 144.7079064454609 L 1045.641769715659 144.69028278387196 L 1045.4068863625068 144.671596404209 L 1045.1724281119036 144.65184917509436 L 1044.9384184094786 144.6310430712345 L 1044.7048806560074 144.6091801732225 L 1044.4718382050703 144.58626266732998 L 1044.2393143607187 144.56229284528834 L 1044.0073323751428 144.53727310405984 L 1043.775915446348 144.5112059455978 L 1043.5450867158347 144.48409397659628 L 1043.314869266283 144.45593990822962 L 1043.0852861192466 144.4267465558812 L 1042.8563602328484 144.3965168388619 L 1042.6281144994864 144.36525378011828 L 1042.4005717435437 144.3329605059301 L 1042.1737547191065 144.2996402455979 L 1041.9476861076878 144.26529633111994 L 1041.7223885159608 144.22993219685907 L 1041.497884473497 144.19355137919922 L 1041.274196430513 144.15615751619185 L 1041.051346755627 144.1177543471921 L 1040.829357733621 144.07834571248486 L 1040.6082515632118 144.03793555290076 L 1040.3880503548326 143.9965279094221 L 1040.1687761284202 143.9541269227787 L 1039.950450811215 143.9107368330339 L 1039.7330962355668 143.8663619791605 L 1039.5167341367517 143.82100679860693 L 1039.3013861507993 143.77467582685347 L 1039.087073812329 143.72737369695864 L 1038.873818552396 143.679105139096 L 1038.6616416963484 143.62987498008118 L 1038.4505644616952 143.579688142889 L 1038.240607955984 143.52854964616142 L 1038.03179317469 143.4764646037054 L 1037.8241409991176 143.4234382239819 L 1037.6176721943114 143.36947580958457 L 1037.4124074069798 143.31458275671 L 1037.2083671634302 143.25876455461767 L 1037.0055718675173 143.20202678508127 L 1036.8040417986017 143.1443751218305 L 1036.6037971095218 143.08581532998366 L 1036.4048578245804 143.02635326547107 L 1036.2072438375396 142.9659948744497 L 1036.0109749096337 142.9047461927083 L 1035.816070667592 142.84261334506402 L 1035.6225506016758 142.77960254474988 L 1035.4304340637311 142.71572009279336 L 1035.2397402652514 142.65097237738644 L 1035.0504882754574 142.5853658732467 L 1034.8626970193905 142.51890714096987 L 1034.6763852760198 142.4516028263738 L 1034.4915716763644 142.3834596598339 L 1034.3082747016304 142.31448445561 L 1034.126512681362 142.24468411116504 L 1033.9463037916105 142.17406560647532 L 1033.7676660531142 142.10263600333244 L 1033.5906173294984 142.03040244463722 L 1033.4151753254876 141.9573721536853 L 1033.241357585136 141.88355243344492 L 1033.069181490073 141.80895066582661 L 1032.898664257765 141.73357431094496 L 1032.7298229397923 141.65743090637264 L 1032.5626744201463 141.58052806638665 L 1032.3972354135399 141.5028734812069 L 1032.2335224637359 141.42447491622718 L 1032.0715519418925 141.34534021123872 L 1031.911340044927 141.265477279646 L 1031.752902793896 141.1848941076757 L 1031.5962560323924 141.10359875357778 L 1031.4414154249614 141.02159934681995 L 1031.2883964555351 140.93890408727458 L 1031.1372144258828 140.85552124439866 L 1030.9878844540815 140.77145915640702 L 1030.840421473004 140.68672622943842 L 1030.6948402288256 140.6013309367149 L 1030.551155279549 140.5152818176946 L 1030.4093809935498 140.42858747721772 L 1030.2695315481383 140.34125658464606 L 1030.1316209281426 140.2532978729961 L 1029.9956629245096 140.1647201380657 L 1029.8616711329266 140.07553223755454 L 1029.7296589524608 139.98574309017835 L 1029.5996395842205 139.89536167477704 L 1029.471626030034 139.80439702941683 L 1029.3456310911502 139.71285825048648 L 1029.2216673669577 139.62075449178758 L 1029.099747253726 139.52809496361922 L 1028.9798829433646 139.43488893185705 L 1028.8620864222046 139.34114571702654 L 1028.7463694698001 139.24687469337107 L 1028.63274365775 139.15208528791445 L 1028.5212203485405 139.05678697951822 L 1028.41181069441 138.96098929793382 L 1028.3045256362323 138.86470182284955 L 1028.199375902424 138.76793418293272 L 1028.096372007871 138.67069605486665 L 1027.9955242528767 138.57299716238313 L 1027.8968427221325 138.47484727529 L 1027.8003372837097 138.37625620849414 L 1027.706017588071 138.27723382102013 L 1027.6138930671082 138.17779001502413 L 1027.523972933196 138.07793473480393 L 1027.436266178273 137.9776779658043 L 1027.3507815729417 137.87702973361863 L 1027.2675276655914 137.77600010298625 L 1027.1865127815436 137.67459917678602 L 1027.1077450222188 137.57283709502605 L 1027.0312322643274 137.47072403382973 L 1026.9569821590817 137.3682702044181 L 1026.88500213143 137.26548585208872 L 1026.8152993793153 137.16238125519112 L 1026.7478808729547 137.05896672409915 L 1026.6827533541427 136.95525260017968 L 1026.619923335577 136.8512492547587 L 1026.5593971002068 136.74696708808406 L 1026.5011807006053 136.64241652828557 L 1026.445279958364 136.53760803033202 L 1026.3917004635105 136.43255207498592 L 1026.3404475739499 136.32725916775524 L 1026.2915264149278 136.22173983784296 L 1026.2449418785202 136.11600463709416 L 1026.200698623141 136.01006413894075 L 1026.1588010730798 135.90392893734432 L 1026.119253418056 135.79760964573654 L 1026.0820596128024 135.69111689595798 L 1026.0472233766684 135.5844613371949 L 1026.0147481932488 135.47765363491428 L 1025.9846373100347 135.37070446979732 L 1025.9568937380895 135.26362453667144 L 1025.931520251747 135.15642454344072 L 1025.9085193883352 135.04911521001512 L 1025.8878934479208 134.9417072672386 L 1025.8696444930806 134.83421145581588 L 1025.8537743486952 134.72663852523857 L 1025.8402846017657 134.61899923271008 L 1025.8291766012555 134.5113043420699 L 1025.8204514579554 134.40356462271745 L 1025.8141100443725 134.2957908485348 L 1025.8101529946427 134.1879937968096 L 1025.808580704468 134.08018424715718" stroke-miterlimit="10" stroke-width="2.7769845610000004" stroke-dasharray=""/></g><g><g/><text fill="black" stroke="none" font-family="sans-serif" font-size="11pt" font-style="normal" font-weight="normal" text-decoration="normal" x="1009.3143651216146" y="162.371920802" text-anchor="start" dominant-baseline="alphabetic" xml:space="preserve">SpDatabase</text></g></g><g><path fill="white" stroke="black" paint-order="fill stroke markers" d=" M 55.429564540625 175.440083442 L 71.764767840625 175.440083442 L 71.764767840625 536.4480763720001 L 55.429564540625 536.4480763720001 L 55.429564540625 175.440083442" stroke-miterlimit="10" stroke-width="1.3612669416666667" stroke-dasharray=""/><path fill="white" stroke="black" paint-order="fill stroke markers" d=" M 315.8118983874349 221.178652682 L 332.1471016874349 221.178652682 L 332.1471016874349 312.655791162 L 315.8118983874349 312.655791162 L 315.8118983874349 221.178652682" stroke-miterlimit="10" stroke-width="1.3612669416666667" stroke-dasharray=""/><path fill="white" stroke="black" paint-order="fill stroke markers" d=" M 473.51004250240885 266.917221922 L 489.84524580240884 266.917221922 L 489.84524580240884 495.61006812200003 L 473.51004250240885 495.61006812200003 L 473.51004250240885 266.917221922" stroke-miterlimit="10" stroke-width="1.3612669416666667" stroke-dasharray=""/><path fill="white" stroke="black" paint-order="fill stroke markers" d=" M 791.7091936974609 358.394360402 L 808.044396997461 358.394360402 L 808.044396997461 495.61006812200003 L 791.7091936974609 495.61006812200003 L 791.7091936974609 358.394360402" stroke-miterlimit="10" stroke-width="1.3612669416666667" stroke-dasharray=""/><path fill="white" stroke="black" paint-order="fill stroke markers" d=" M 1041.490345624935 404.132929642 L 1057.825548924935 404.132929642 L 1057.825548924935 449.871498882 L 1041.490345624935 449.871498882 L 1041.490345624935 404.132929642" stroke-miterlimit="10" stroke-width="1.3612669416666667" stroke-dasharray=""/><g><text fill="black" stroke="none" font-family="sans-serif" font-size="11pt" font-style="normal" font-weight="normal" text-decoration="normal" x="120.4311630090495" y="214.644571362" text-anchor="start" dominant-baseline="alphabetic" xml:space="preserve">Channel deleted event</text></g><g><path fill="none" stroke="black" paint-order="fill stroke markers" d=" M 71.764767840625 221.178652682 L 313.0893645041016 221.178652682" stroke-miterlimit="10" stroke-width="1.3612669416666667" stroke-dasharray=""/><g transform="translate(315.8118983874349,221.178652682) translate(-315.8118983874349,-221.178652682)"><path fill="none" stroke="black" paint-order="fill stroke markers" d=" M 302.1992289707682 214.37231797366667 L 314.45063144576824 221.178652682 L 302.1992289707682 227.98498739033334" stroke-miterlimit="10" stroke-width="1.3612669416666667"/></g></g><g><text fill="black" stroke="none" font-family="sans-serif" font-size="11pt" font-style="normal" font-weight="normal" text-decoration="normal" x="353.92737275410155" y="260.383140602" text-anchor="start" dominant-baseline="alphabetic" xml:space="preserve">Delete channel</text></g><g><path fill="none" stroke="black" paint-order="fill stroke markers" d=" M 332.1471016874349 266.917221922 L 470.78750861907554 266.917221922" stroke-miterlimit="10" stroke-width="1.3612669416666667" stroke-dasharray=""/><g transform="translate(473.51004250240885,266.917221922) translate(-473.51004250240885,-266.917221922)"><path fill="none" stroke="black" paint-order="fill stroke markers" d=" M 459.8973730857422 260.1108872136667 L 472.1487755607422 266.917221922 L 459.8973730857422 273.72355663033335" stroke-miterlimit="10" stroke-width="1.3612669416666667"/></g></g><g><text fill="black" stroke="none" font-family="sans-serif" font-size="11pt" font-style="normal" font-weight="normal" text-decoration="normal" x="145.30231779420575" y="306.121709842" text-anchor="start" dominant-baseline="alphabetic" xml:space="preserve">Event received</text></g><g><path fill="none" stroke="black" paint-order="fill stroke markers" d=" M 315.8118983874349 312.655791162 L 74.48730172395832 312.655791162" stroke-miterlimit="10" stroke-width="1.3612669416666667" stroke-dasharray="6.53408132"/><g transform="translate(71.764767840625,312.655791162) translate(-71.764767840625,-312.655791162)"><path fill="none" stroke="black" paint-order="fill stroke markers" d=" M 85.37743725729167 305.8494564536667 L 73.12603478229167 312.655791162 L 85.37743725729167 319.46212587033335" stroke-miterlimit="10" stroke-width="1.3612669416666667"/></g></g><g><text fill="black" stroke="none" font-family="sans-serif" font-size="11pt" font-style="normal" font-weight="normal" text-decoration="normal" x="511.62551686907545" y="351.860279082" text-anchor="start" dominant-baseline="alphabetic" xml:space="preserve">Delete channel by ID (check if in cache)</text></g><g><path fill="none" stroke="black" paint-order="fill stroke markers" d=" M 489.84524580240884 358.394360402 L 788.9866598141276 358.394360402" stroke-miterlimit="10" stroke-width="1.3612669416666667" stroke-dasharray=""/><g transform="translate(791.7091936974609,358.394360402) translate(-791.7091936974609,-358.394360402)"><path fill="black" stroke="none" paint-order="stroke fill markers" d=" M 778.0965242807943 351.5880256936667 L 791.7091936974609 358.394360402 L 778.0965242807943 365.20069511033336 Z"/></g></g><g><text fill="black" stroke="none" font-family="sans-serif" font-size="11pt" font-style="normal" font-weight="normal" text-decoration="normal" x="829.8246680641276" y="397.598848322" text-anchor="start" dominant-baseline="alphabetic" xml:space="preserve">Forward deletion to database</text></g><g><path fill="none" stroke="black" paint-order="fill stroke markers" d=" M 808.044396997461 404.132929642 L 1038.7678117416015 404.132929642" stroke-miterlimit="10" stroke-width="1.3612669416666667" stroke-dasharray=""/><g transform="translate(1041.490345624935,404.132929642) translate(-1041.490345624935,-404.132929642)"><path fill="black" stroke="none" paint-order="stroke fill markers" d=" M 1027.8776762082682 397.3265949336667 L 1041.490345624935 404.132929642 L 1027.8776762082682 410.93926435033336 Z"/></g></g><g><text fill="black" stroke="none" font-family="sans-serif" font-size="11pt" font-style="normal" font-weight="normal" text-decoration="normal" x="858.357230319987" y="443.337417562" text-anchor="start" dominant-baseline="alphabetic" xml:space="preserve">Return conformation</text></g><g><path fill="none" stroke="black" paint-order="fill stroke markers" d=" M 1041.490345624935 449.871498882 L 810.7669308807943 449.871498882" stroke-miterlimit="10" stroke-width="1.3612669416666667" stroke-dasharray="6.53408132"/><g transform="translate(808.044396997461,449.871498882) translate(-808.044396997461,-449.871498882)"><path fill="black" stroke="none" paint-order="stroke fill markers" d=" M 821.6570664141277 443.0651641736667 L 808.044396997461 449.871498882 L 821.6570664141277 456.67783359033336 Z"/></g></g><g><text fill="black" stroke="none" font-family="sans-serif" font-size="11pt" font-style="normal" font-weight="normal" text-decoration="normal" x="574.3670787587239" y="489.075986802" text-anchor="start" dominant-baseline="alphabetic" xml:space="preserve">Return conformation</text></g><g><path fill="none" stroke="black" paint-order="fill stroke markers" d=" M 791.7091936974609 495.61006812200003 L 492.56777968574215 495.61006812200003" stroke-miterlimit="10" stroke-width="1.3612669416666667" stroke-dasharray="6.53408132"/><g transform="translate(489.84524580240884,495.61006812200003) translate(-489.84524580240884,-495.61006812200003)"><path fill="black" stroke="none" paint-order="stroke fill markers" d=" M 503.4579152190755 488.8037334136667 L 489.84524580240884 495.61006812200003 L 503.4579152190755 502.41640283033337 Z"/></g></g></g><g/><g/><g/><g/><g/></g></svg>