<svg version="1.1" xmlns="http://www.w3.org/2000/svg" xmlns:xlink="http://www.w3.org/1999/xlink" width="792" height="711"><defs/><g><g/><g/><g/><g/><g/><g/><g/><g/><g/><g/><g><rect fill="white" stroke="none" x="0" y="0" width="792" height="711"/></g><g><text fill="black" stroke="none" font-family="sans-serif" font-size="16.5pt" font-style="normal" font-weight="normal" text-decoration="normal" x="275.32952043486324" y="24.50280495" text-anchor="start" dominant-baseline="alphabetic" xml:space="preserve">Channel Name Changed</text></g><g><g><path fill="#9F5F9F" stroke="black" paint-order="fill stroke markers" d=" M 8.167601650000003 58.5617038305 L 119.02673073125 58.5617038305 L 119.02673073125 676.9308247519999 L 8.167601650000003 676.9308247519999 L 8.167601650000003 58.5617038305" stroke-miterlimit="10" stroke-width="1.3612669416666667" stroke-dasharray=""/></g><g><text fill="black" stroke="none" font-family="sans-serif" font-size="11pt" font-style="normal" font-weight="bold" text-decoration="normal" x="44.441839347363285" y="81.43098845050001" text-anchor="start" dominant-baseline="alphabetic" xml:space="preserve">Slack</text></g><g><path fill="none" stroke="black" paint-order="fill stroke markers" d=" M 263.6358272204427 50.394102180500006 L 751.4877393355468 50.394102180500006 L 751.4877393355468 676.9308247519999 L 263.6358272204427 676.9308247519999 L 263.6358272204427 50.394102180500006" stroke-miterlimit="10" stroke-width="1.3612669416666667" stroke-dasharray=""/></g><g><text fill="black" stroke="none" font-family="sans-serif" font-size="11pt" font-style="normal" font-weight="bold" text-decoration="normal" x="426.4737553238932" y="73.2633868005" text-anchor="start" dominant-baseline="alphabetic" xml:space="preserve">Service Provider Slack </text></g></g><g><path fill="none" stroke="black" paint-order="fill stroke markers" d=" M 63.597166190625 167.272481792 L 63.597166190625 711.2347516819999" stroke-miterlimit="10" stroke-width="1.3612669416666667" stroke-dasharray="12.565541,5.445067766666667"/><path fill="none" stroke="black" paint-order="fill stroke markers" d=" M 333.7432787239583 167.272481792 L 333.7432787239583 711.2347516819999" stroke-miterlimit="10" stroke-width="1.3612669416666667" stroke-dasharray="12.565541,5.445067766666667"/><path fill="none" stroke="black" paint-order="fill stroke markers" d=" M 480.8544630000651 167.272481792 L 480.8544630000651 711.2347516819999" stroke-miterlimit="10" stroke-width="1.3612669416666667" stroke-dasharray="12.565541,5.445067766666667"/><path fill="none" stroke="black" paint-order="fill stroke markers" d=" M 702.9765555322265 167.272481792 L 702.9765555322265 711.2347516819999" stroke-miterlimit="10" stroke-width="1.3612669416666667" stroke-dasharray="12.565541,5.445067766666667"/></g><g><g><path fill="white" stroke="black" paint-order="fill stroke markers" d=" M 96.022544741125 120.39044832100001 A 24.2577769005 24.2577769005 0 1 1 96.02253261223755 120.36619054814246 M 32.560279920625 94.74417914 L 32.560279920625 146.03671750200002 M 31.171787640124997 120.39044832100001 L 47.506990940125 120.39044832100001" stroke-miterlimit="10" stroke-width="2.7769845610000004" stroke-dasharray=""/></g><g><g/><text fill="black" stroke="none" font-family="sans-serif" font-size="11pt" font-style="normal" font-weight="normal" text-decoration="normal" x="16.335203300000003" y="162.371920802" text-anchor="start" dominant-baseline="alphabetic" xml:space="preserve">SlackEventApi</text></g><g><path fill="white" stroke="black" paint-order="fill stroke markers" d=" M 366.1686572744583 120.39044832100001 A 24.2577769005 24.2577769005 0 1 1 366.1686451455709 120.36619054814246 M 302.7063924539583 94.74417914 L 302.7063924539583 146.03671750200002 M 301.3179001734583 120.39044832100001 L 317.6531034734583 120.39044832100001" stroke-miterlimit="10" stroke-width="2.7769845610000004" stroke-dasharray=""/></g><g><g/><text fill="black" stroke="none" font-family="sans-serif" font-size="11pt" font-style="normal" font-weight="normal" text-decoration="normal" x="271.8034288704427" y="162.371920802" text-anchor="start" dominant-baseline="alphabetic" xml:space="preserve">SpChannelHandler</text></g><g><path fill="white" stroke="black" paint-order="fill stroke markers" d=" M 505.1122399005651 120.39044832100001 A 24.2577769005 24.2577769005 0 1 1 505.1122277716777 120.36619054814246 M 477.5874223400651 96.1326714205 L 487.3885443200651 87.96506977050001 M 477.5874223400651 96.1326714205 L 487.3885443200651 104.3002730705" stroke-miterlimit="10" stroke-width="2.7769845610000004" stroke-dasharray=""/></g><g><g/><text fill="black" stroke="none" font-family="sans-serif" font-size="11pt" font-style="normal" font-weight="normal" text-decoration="normal" x="420.1422513911784" y="162.371920802" text-anchor="start" dominant-baseline="alphabetic" xml:space="preserve">SpChannelService</text></g><g><path fill="white" stroke="black" paint-order="fill stroke markers" d=" M 679.1271587142265 135.255483324 L 679.1271587142265 100.95155639400002 L 726.8259523502264 100.95155639400002 L 726.8259523502264 135.255483324" stroke-miterlimit="10" stroke-width="2.7769845610000004" stroke-dasharray=""/><path fill="white" stroke="black" paint-order="fill stroke markers" d=" M 726.8259523502264 99.75908655310002 L 726.8247598903228 99.86689709801664 L 726.8211826298567 99.97469686196861 L 726.8152209265514 100.08247506506937 L 726.8068753765721 100.19022092958842 L 726.7961468144669 100.2979236810291 L 726.783036313083 100.40557254920603 L 726.7675451834598 100.51315676932207 L 726.7496749746972 100.62066558304487 L 726.7294274738011 100.72808823958268 L 726.706804705505 100.83541399675931 L 726.6818089320666 100.94263212208854 L 726.6544426530426 101.04973189384714 L 726.624708605038 101.1567026021472 L 726.5926097614329 101.26353355000704 L 726.5581493320848 101.37021405442088 L 726.521330763008 101.4767334474272 L 726.4821577360286 101.58308107717545 L 726.4406341684169 101.68924630899127 L 726.3967642124949 101.79521852643998 L 726.3505522552215 101.90098713238812 L 726.3020029177542 102.00654155006325 L 726.2511210549861 102.11187122411154 L 726.1979117550612 102.21696562165339 L 726.142380338865 102.32181423333661 L 726.084532359493 102.4264065743874 L 726.0243736016948 102.53073218565882 L 725.9619100812962 102.63478063467669 L 725.897148044597 102.7385415166828 L 725.830093967747 102.84200445567542 L 725.760754556098 102.94515910544688 L 725.6891367435334 103.04799515061815 L 725.6152476917747 103.15050230767042 L 725.5390947896657 103.2526703259734 L 725.4606856524329 103.3544889888104 L 725.3800281209247 103.4559481144 L 725.2971302608273 103.55703755691417 L 725.2120003618575 103.6577472074929 L 725.124646936934 103.75806699525508 L 725.0350787213268 103.8579868883055 L 724.9433046717828 103.95749689473814 L 724.8493339656304 104.05658706363529 L 724.7531759998618 104.15524748606262 L 724.6548403901937 104.25346829606012 L 724.5543369701049 104.35123967162862 L 724.4516757898538 104.44855183571204 L 724.3468671154727 104.54539505717509 L 724.2399214277418 104.6417596517763 L 724.1308494211409 104.73763598313651 L 724.0196620027796 104.83301446370251 L 723.906370291307 104.92788555570571 L 723.7909856158001 105.02223977211597 L 723.67351951463 105.11606767759027 L 723.5539837343091 105.20935988941625 L 723.4323902283159 105.30210707845049 L 723.3087511558995 105.39429997005135 L 723.1830788808641 105.48592934500653 L 723.0553859703326 105.57698604045486 L 722.9256851934896 105.66746095080268 L 722.7939895203046 105.75734502863436 L 722.6603121202354 105.84662928561703 L 722.5246663609105 105.93530479339938 L 722.3870658067926 106.02336268450453 L 722.2475242178227 106.11079415321676 L 722.1060555480434 106.19759045646204 L 721.9626739442036 106.28374291468239 L 721.8173937443445 106.36924291270377 L 721.6702294763646 106.45408190059764 L 721.5211958565685 106.5382513945359 L 721.3703077881936 106.62174297763931 L 721.2175803599213 106.70454830081913 L 721.0630288443671 106.78665908361204 L 720.9066686965535 106.86806711500819 L 720.7485155523652 106.94876425427228 L 720.588585226985 107.02874243175762 L 720.4268937133118 107.10799364971314 L 720.2634571803625 107.18650998308306 L 720.0982919716539 107.26428358029946 L 719.9314146035696 107.34130666406747 L 719.7628417637071 107.41757153214289 L 719.59259030921 107.49307055810243 L 719.4206772650818 107.56779619210644 L 719.2471198224838 107.6417409616538 L 719.0719353370155 107.71489747232916 L 718.8951413269795 107.7872584085424 L 718.7167554716294 107.85881653426023 L 718.5367956094021 107.9295646937297 L 718.3552797361341 107.9994958121938 L 718.1722260032611 108.06860289659899 L 717.9876527160042 108.1368790362944 L 717.8015783315379 108.20431740372297 L 717.614021457146 108.27091125510412 L 717.4250008483593 108.33665393110826 L 717.2345354070815 108.40153885752254 L 717.0426441796976 108.46555954590839 L 716.8493463551708 108.52870959425034 L 716.6546612631223 108.59098268759617 L 716.4586083718991 108.65237259868843 L 716.2612072866269 108.71287318858718 L 716.0624777472499 108.77247840728386 L 715.8624396265561 108.83118229430623 L 715.6611129281912 108.88897897931456 L 715.4585177846571 108.94586268268847 L 715.2546744552993 109.00182771610504 L 715.0496033242811 109.05686848310758 L 714.8433248985443 109.11097947966525 L 714.63585980576 109.16415529472346 L 714.4272287922643 109.21639061074505 L 714.2174527209849 109.26768020424194 L 714.0065525693539 109.31801894629751 L 713.7945494272108 109.36740180307952 L 713.5814644946931 109.41582383634344 L 713.3673190801168 109.46328020392627 L 713.1521345978445 109.50976616023082 L 712.9359325661452 109.55527705670022 L 712.7187346050421 109.5998083422827 L 712.5005624341501 109.64335556388684 L 712.2814378705045 109.68591436682678 L 712.0613828263791 109.72748049525767 L 711.8404193070951 109.7680497926013 L 711.6185694088201 109.80761820196176 L 711.3958553163591 109.84618176653109 L 711.1722993009356 109.88373662998495 L 710.9479237179652 109.92027903686831 L 710.7227510048189 109.95580533297093 L 710.4968036785805 109.99031196569278 L 710.2701043337943 110.02379548439939 L 710.0426756402059 110.05625254076675 L 709.814540340495 110.08767988911629 L 709.5857212480017 110.11807438673935 L 709.3562412444444 110.14743299421153 L 709.1261232776324 110.17575277569651 L 708.8953903591703 110.20303089923975 L 708.6640655621579 110.22926463705164 L 708.432172018882 110.25445136578027 L 708.199732918504 110.27858856677372 L 707.9667715047399 110.30167382633203 L 707.7333110735369 110.32370483594849 L 707.4993749707439 110.34467939254047 L 707.264986589776 110.3645953986698 L 707.030169369276 110.38345086275248 L 706.7949467907704 110.40124389925779 L 706.5593423763207 110.41797272889693 L 706.3233796861724 110.43363567880087 L 706.0870823163978 110.44823118268765 L 705.8504738965368 110.46175778101907 L 705.6135780872341 110.47421412114657 L 705.3764185778737 110.4855989574465 L 705.1390190842085 110.49591115144473 L 704.90140334599 110.50514967193044 L 704.6635951245944 110.5133135950593 L 704.4256182006453 110.5204021044458 L 704.1874963716369 110.52641449124488 L 703.9492534495538 110.53135015422289 L 703.7109132584894 110.53520859981765 L 703.4724996322644 110.53798944218781 L 703.2340364120427 110.53969240325145 L 702.9955474439475 110.54031731271388 L 702.757056576677 110.53986410808467 L 702.5185876591191 110.53833283468393 L 702.2801645379669 110.5357236456377 L 702.0418110553339 110.53203680186272 L 701.8035510463695 110.52727267204028 L 701.5654083368763 110.52143173257942 L 701.3274067409267 110.5145145675692 L 701.0895700584819 110.50652186872036 L 700.8519220730119 110.4974544352961 L 700.6144865491174 110.48731317403227 L 700.3772872301527 110.47609909904648 L 700.1403478358523 110.46381333173692 L 699.903692059958 110.45045710067006 L 699.6673435678501 110.4360317414579 L 699.4313259941811 110.42053869662433 L 699.1956629405115 110.40397951546092 L 698.9603779729504 110.38635585387198 L 698.7254946197984 110.367669474209 L 698.4910363691951 110.34792224509437 L 698.2570266667702 110.32711614123453 L 698.0234889132988 110.30525324322254 L 697.790446462362 110.28233573732997 L 697.5579226180103 110.25836591528834 L 697.3259406324344 110.23334617405986 L 697.0945237036398 110.2072790155978 L 696.8636949731263 110.18016704659628 L 696.6334775235747 110.15201297822964 L 696.4038943765381 110.1228196258812 L 696.1749684901398 110.09258990886192 L 695.9467227567778 110.06132685011828 L 695.7191800008352 110.0290335759301 L 695.4923629763979 109.99571331559791 L 695.2662943649794 109.96136940111997 L 695.0409967732525 109.9260052668591 L 694.8164927307884 109.88962444919923 L 694.5928046878045 109.85223058619187 L 694.3699550129186 109.81382741719212 L 694.1479659909124 109.77441878248487 L 693.9268598205034 109.73400862290077 L 693.706658612124 109.6926009794221 L 693.4873843857118 109.6501999927787 L 693.2690590685066 109.60680990303389 L 693.0517044928582 109.56243504916051 L 692.8353423940432 109.51707986860694 L 692.6199944080909 109.47074889685346 L 692.4056820696206 109.42344676695863 L 692.1924268096875 109.37517820909602 L 691.98024995364 109.3259480500812 L 691.7691727189867 109.27576121288904 L 691.5592162132754 109.22462271616142 L 691.3504014319815 109.17253767370543 L 691.1427492564092 109.1195112939819 L 690.936280451603 109.0655488795846 L 690.7310156642714 109.01065582671 L 690.5269754207219 108.95483762461768 L 690.3241801248089 108.89809985508128 L 690.1226500558931 108.84044819183053 L 689.9224053668135 108.78188839998367 L 689.7234660818718 108.7224263354711 L 689.5258520948311 108.66206794444972 L 689.3295831669252 108.60081926270831 L 689.1346789248834 108.53868641506405 L 688.9411588589675 108.47567561474989 L 688.7490423210227 108.41179316279337 L 688.5583485225429 108.34704544738645 L 688.3690965327489 108.2814389432467 L 688.181305276682 108.21498021096988 L 687.9949935333113 108.14767589637383 L 687.810179933656 108.07953272983391 L 687.6268829589219 108.01055752561001 L 687.4451209386536 107.94075718116505 L 687.2649120489021 107.87013867647532 L 687.0862743104059 107.79870907333245 L 686.90922558679 107.72647551463722 L 686.7337835827791 107.6534452236853 L 686.5599658424277 107.57962550344493 L 686.3877897473648 107.50502373582663 L 686.2172725150564 107.42964738094497 L 686.0484311970838 107.35350397637264 L 685.8812826774379 107.27660113638665 L 685.7158436708315 107.1989465512069 L 685.5521307210273 107.12054798622721 L 685.390160199184 107.04141328123873 L 685.2299483022188 106.96155034964602 L 685.0715110511876 106.8809671776757 L 684.9148642896838 106.7996718235778 L 684.760023682253 106.71767241681998 L 684.6070047128267 106.63497715727459 L 684.4558226831743 106.55159431439867 L 684.306492711373 106.46753222640703 L 684.1590297302955 106.38279929943842 L 684.013448486117 106.29740400671491 L 683.8697635368405 106.21135488769461 L 683.7279892508413 106.12466054721774 L 683.5881398054299 106.03732965464607 L 683.4502291854342 105.94937094299611 L 683.3142711818011 105.8607932080657 L 683.1802793902181 105.77160530755455 L 683.0482672097523 105.68181616017836 L 682.918247841512 105.59143474477705 L 682.7902342873255 105.50047009941686 L 682.6642393484416 105.40893132048649 L 682.5402756242493 105.31682756178758 L 682.4183555110176 105.22416803361924 L 682.2984912006561 105.13096200185706 L 682.1806946794962 105.03721878702656 L 682.0649777270918 104.94294776337108 L 681.9513519150415 104.84815835791446 L 681.8398286058322 104.75286004951823 L 681.7304189517015 104.65706236793383 L 681.6231338935238 104.56077489284957 L 681.5179841597155 104.46400725293273 L 681.4149802651625 104.36676912486666 L 681.3141325101682 104.26907023238314 L 681.2154509794241 104.17092034529 L 681.1189455410012 104.07232927849415 L 681.0246258453627 103.97330689102013 L 680.9325013243997 103.87386308502415 L 680.8425811904875 103.77400780480394 L 680.7548744355646 103.67375103580433 L 680.6693898302333 103.57310280361865 L 680.586135922883 103.47207317298626 L 680.505121038835 103.37067224678601 L 680.4263532795102 103.26891016502606 L 680.349840521619 103.16679710382974 L 680.2755904163731 103.0643432744181 L 680.2036103887216 102.96155892208871 L 680.1339076366069 102.85845432519113 L 680.0664891302464 102.75503979409915 L 680.0013616114344 102.65132567017969 L 679.9385315928685 102.5473223247587 L 679.8780053574983 102.44304015808407 L 679.8197889578968 102.33848959828556 L 679.7638882156556 102.23368110033203 L 679.7103087208021 102.12862514498595 L 679.6590558312413 102.02333223775527 L 679.6101346722195 101.91781290784299 L 679.5635501358116 101.81207770709416 L 679.5193068804327 101.70613720894077 L 679.4774093303713 101.60000200734433 L 679.4378616753476 101.49368271573654 L 679.4006678700939 101.387189965958 L 679.36583163396 101.2805344071949 L 679.3333564505404 101.17372670491429 L 679.3032455673264 101.06677753979733 L 679.2755019953811 100.95969760667145 L 679.2501285090387 100.85249761344073 L 679.2271276456268 100.74518828001514 L 679.2065017052123 100.63778033723861 L 679.1882527503722 100.5302845258159 L 679.1723826059867 100.42271159523858 L 679.1588928590572 100.31507230271008 L 679.147784858547 100.20737741206993 L 679.139059715247 100.09963769271747 L 679.132718301664 99.99186391853482 L 679.1287612519344 99.88406686680962 L 679.1271889617597 99.77625731715719 L 679.1280015883676 99.66844605044267 L 679.1311990504962 99.56064384770288 L 679.1367810284019 99.45286148906825 L 679.1447469638915 99.34510975268485 L 679.1550960603782 99.23739941363651 L 679.1678272829611 99.12974124286738 L 679.1829393585282 99.02214600610482 L 679.2004307758848 98.91462446278284 L 679.2202997859035 98.80718736496618 L 679.2425444017002 98.69984545627509 L 679.2671623988317 98.59260947081098 L 679.2941513155187 98.48549013208303 L 679.323508452892 98.37849815193587 L 679.3552308752626 98.27164422947833 L 679.3893154104145 98.16493905001363 L 679.4257586499225 98.05839328397077 L 679.4645569494933 97.9520175858376 L 679.5057064293289 97.84582259309526 L 679.549202974516 97.73981892515455 L 679.595042235436 97.6340171822939 L 679.6432196282012 97.52842794459946 L 679.6937303351125 97.423061770907 L 679.7465693051411 97.31792919774607 L 679.8017312544342 97.21304073828638 L 679.8592106668428 97.10840688128647 L 679.9190017944736 97.00403809004486 L 679.9810986582635 96.89994480135368 L 680.045495048578 96.79613742445507 L 680.1121845258318 96.6926263400002 L 680.1811604211326 96.58942189901128 L 680.2524158369484 96.48653442184639 L 680.3259436477971 96.38397419716749 L 680.4017365009587 96.28175148091161 L 680.4797868172111 96.17987649526519 L 680.5600867915879 96.07835942764187 L 680.6426283941582 95.97721042966384 L 680.727403370831 95.8764396161466 L 680.814403244179 95.77605706408754 L 680.9036193142873 95.67607281165819 L 680.9950426596234 95.57649685720048 L 681.088664137929 95.47733915822688 L 681.184474387134 95.37860963042466 L 681.2824638262936 95.28031814666433 L 681.3826226565454 95.18247453601234 L 681.48494086209 95.08508858274823 L 681.5894082111918 94.98817002538617 L 681.6960142572033 94.89172855570112 L 681.8047483396085 94.79577381775971 L 681.9155995850898 94.70031540695574 L 682.0285569086152 94.60536286905077 L 682.1436090145463 94.51092569921943 L 682.2607443977685 94.41701334110004 L 682.3799513448408 94.32363518585014 L 682.5012179351683 94.23080057120742 L 682.6245320421926 94.13851878055601 L 682.7498813346061 94.04679904199807 L 682.8772532775838 93.955650527431 L 683.0066351340377 93.86508235163033 L 683.1380139658897 93.77510357133815 L 683.2713766353663 93.68572318435751 L 683.4067098063117 93.59695012865262 L 683.5439999455216 93.5087932814551 L 683.6832333240964 93.42126145837616 L 683.8243960188142 93.33436341252519 L 683.9674739135233 93.24810783363438 L 684.1124527005535 93.1625033471897 L 684.2593178821468 93.07755851356848 L 684.4080547719075 92.9932818271833 L 684.5586484962704 92.90968171563254 L 684.7110839959888 92.82676653885773 L 684.8653460276396 92.74454458830742 L 685.0214191651482 92.66302408610815 L 685.179287801331 92.58221318424222 L 685.338936149456 92.50211996373247 L 685.5003482448211 92.4227524338342 L 685.6635079463516 92.34411853123427 L 685.8283989382131 92.26622611925741 L 685.995004731444 92.1890829870799 L 686.1633086656038 92.11269684895069 L 686.3332939104391 92.0370753434199 L 686.5049434675674 91.9622260325751 L 686.6782401721758 91.888156401285 L 686.8531666947383 91.81487385645099 L 687.0297055427485 91.74238572626649 L 687.2078390624686 91.67069925948411 L 687.3875494406951 91.59982162469079 L 687.56881870654 91.52975990959095 L 687.7516287332277 91.4605211202977 L 687.9359612399079 91.3921121806323 L 688.1217977934837 91.32453993143167 L 688.3091198104543 91.25781112986445 L 688.4979085587742 91.1919324487552 L 688.688145159726 91.12691047591709 L 688.8798105898081 91.06275171349324 L 689.0728856826372 90.99946257730645 L 689.2673511308649 90.93704939621756 L 689.4631874881085 90.87551841149269 L 689.6603751708952 90.81487577617904 L 689.8588944606215 90.75512755448958 L 690.0587255055235 90.69627972119672 L 690.2598483226633 90.63833816103474 L 690.4622427999269 90.58130866811136 L 690.6658886980352 90.52519694532836 L 690.870765652568 90.47000860381125 L 691.0768531760007 90.41574916234819 L 691.2841306597526 90.36242404683813 L 691.492577376248 90.31003858974816 L 691.7021724809892 90.25859802958036 L 691.9128950146402 90.20810751034786 L 692.1247239051232 90.1585720810605 L 692.3376379697258 90.10999669521995 L 692.551615917219 90.0623862103243 L 692.7666363499862 90.01574538738238 L 692.9826777661634 89.9700788904376 L 693.1997185617889 89.92539128610161 L 693.4177370329643 89.88168704309761 L 693.6367113780238 89.83897053181346 L 693.8566196997156 89.79724602386472 L 694.0774400073908 89.75651769166738 L 694.2991502192025 89.71678960802075 L 694.5217281643144 89.67806574570005 L 694.7451515851174 89.64034997705929 L 694.9693981394555 89.60364607364387 L 695.1944454028604 89.56795770581357 L 695.4202708707932 89.53328844237541 L 695.6468519608952 89.49964175022686 L 695.8741660152464 89.46702099400908 L 696.1021903026304 89.43542943577052 L 696.3309020208089 89.40487023464067 L 696.5602782988005 89.37534644651419 L 696.7902961991687 89.34686102374526 L 697.0209327203148 89.31941681485246 L 697.2521647987792 89.29301656423378 L 697.4839693115465 89.2676629118923 L 697.7163230783589 89.2433583931721 L 697.949202864033 89.22010543850483 L 698.1825853807846 89.19790637316656 L 698.4164472905564 89.17676341704532 L 698.6507652073523 89.15667868441913 L 698.8855156995758 89.13765418374449 L 699.1206752923733 89.11969181745562 L 699.3562204699817 89.10279338177418 L 699.5921276780794 89.08696056652965 L 699.8283733261421 89.0721949549904 L 700.0649337898019 89.05849802370521 L 700.3017854132097 89.04587114235585 L 700.5389045114003 89.03431557361992 L 700.7762673726618 89.02383247304465 L 701.0138502609055 89.01442288893136 L 701.2516294180408 89.00608776223065 L 701.4895810663502 88.99882792644821 L 701.7276814108669 88.9926441075616 L 701.965906641755 88.98753692394752 L 702.2042329366901 88.9835068863201 L 702.4426364632411 88.98055439767974 L 702.681093381254 88.97867975327284 L 702.9195798452358 88.97788314056228 L 703.1580720067388 88.97816463920867 L 703.3965460167457 88.97952422106238 L 703.6349780280541 88.98196175016635 L 703.8733441976616 88.98547698276971 L 704.1116206891498 88.99006956735212 L 704.3497836750684 88.99573904465896 L 704.5878093393169 89.00248484774721 L 704.8256738795274 89.0103063020422 L 705.063353509444 89.019202625405 L 705.3008244613021 89.0291729282107 L 705.538062988204 89.04021621343732 L 705.775045366495 89.05233137676555 L 706.0117478981346 89.06551720668914 L 706.2481469130669 89.0797723846361 L 706.4842187715875 89.0950954851005 L 706.7199398667071 89.11148497578507 L 706.9552866265128 89.12893921775441 L 707.1902355165247 89.14745646559885 L 707.4247630420494 89.16703486760905 L 707.6588457505302 89.18767246596111 L 707.8924602338909 89.20936719691241 L 708.125583130878 89.23211689100792 L 708.3581911293961 89.2559192732972 L 708.5902609688392 89.28077196356185 L 708.8217694424167 89.30667247655354 L 709.0526933994742 89.33361822224259 L 709.2830097478084 89.36160650607685 L 709.5126954559763 89.39063452925127 L 709.7417275555987 89.42069938898774 L 709.9700831436563 89.45179807882532 L 710.1977393847808 89.48392748892095 L 710.4246735135375 89.5170844063604 L 710.6508628367029 89.55126551547954 L 710.8762847355332 89.58646739819596 L 711.1009166680261 89.62268653435072 L 711.3247361711758 89.65991930206037 L 711.5477208632184 89.69816197807918 L 711.7698484458704 89.73741073817143 L 711.9910967065589 89.7776616574938 L 712.211443520642 89.8189107109879 L 712.4308668536219 89.86115377378276 L 712.6493447633483 89.9043866216073 L 712.8668554022122 89.94860493121277 L 713.083377019331 89.99380428080505 L 713.2988879627234 90.03998015048685 L 713.5133666814746 90.0871279227097 L 713.7267917278916 90.13524288273562 L 713.9391417596476 90.18432021910876 L 714.1503955419163 90.23435502413635 L 714.3605319494955 90.28534229437957 L 714.5695299689195 90.33727693115392 L 714.7773687005607 90.39015374103897 L 714.984027360719 90.44396743639781 L 715.1894852837007 90.49871263590576 L 715.3937219238846 90.55438386508847 L 715.596716857777 90.6109755568694 L 715.7984497860535 90.66848205212658 L 715.9989005355897 90.72689760025837 L 716.1980490614773 90.78621635975864 L 716.3958754490299 90.84643239880089 L 716.5923599157735 90.90753969583137 L 716.7874828134253 90.96953214017132 L 716.981224629858 91.03240353262795 L 717.1735659910514 91.09614758611443 L 717.3644876630299 91.1607579262785 L 717.553970553785 91.22622809214002 L 717.7419957151859 91.29255153673692 L 717.928544344873 91.35972162778006 L 718.1135977881387 91.42773164831627 L 718.297137539793 91.49657479740019 L 718.4791452460137 91.56624419077427 L 718.6596027061818 91.63673286155725 L 718.8384918747016 91.70803376094076 L 719.0157948628054 91.78013975889431 L 719.1914939403422 91.85304364487818 L 719.3655715375505 91.92673812856452 L 719.5380102468158 92.00121584056639 L 719.7087928244108 92.07646933317463 L 719.8779021922201 92.15249108110271 L 720.0453214394477 92.22927348223918 L 720.2110338243085 92.3068088584079 L 720.3750227757022 92.3850894561359 L 720.5372718948702 92.4641074474286 L 720.6977649570358 92.54385493055275 L 720.8564859130266 92.62432393082648 L 721.0134188908792 92.70550640141681 L 721.1685481974265 92.78739422414436 L 721.3218583198674 92.86997921029509 L 721.4733339273171 92.95325310143917 L 721.6229598723412 93.03720757025692 L 721.77072119247 93.12183422137142 L 721.9166031116945 93.20712459218805 L 722.0605910419443 93.29307015374081 L 722.2026705845466 93.3796623115452 L 722.3428275316653 93.46689240645757 L 722.4810478677225 93.55475171554113 L 722.6173177707999 93.64323145293818 L 722.7516236140207 93.73232277074871 L 722.8839519669125 93.8220167599152 L 723.0142895967501 93.91230445111346 L 723.1426234698795 94.00317681564962 L 723.2689407530202 94.09462476636294 L 723.3932288145488 94.18663915853458 L 723.5154752257632 94.27921079080198 L 723.635667762124 94.37233040607906 L 723.7537944044776 94.46598869248189 L 723.8698433402583 94.56017628425988 L 723.9838029646692 94.65488376273235 L 724.0956618818428 94.75010165723037 L 724.2054089059807 94.84582044604385 L 724.3130330624718 94.94203055737364 L 724.4185235889903 95.03872237028881 L 724.5218699365713 95.13588621568863 L 724.6230617706663 95.23351237726953 L 724.7220889721762 95.33159109249674 L 724.8189416384631 95.43011255358043 L 724.9136100843415 95.5290669084566 L 725.0060848430454 95.62844426177223 L 725.0963566671762 95.72823467587482 L 725.1844165296266 95.82842817180608 L 725.2702556244836 95.92901473029994 L 725.3538653679096 96.02998429278436 L 725.4352373989996 96.13132676238725 L 725.5143635806185 96.23303200494607 L 725.5912360002139 96.33508985002135 L 725.6658469706081 96.4374900919136 L 725.7381890307661 96.54022249068399 L 725.8082549465423 96.64327677317824 L 725.8760377114033 96.746642634054 L 725.9415305471293 96.85030973681128 L 726.0047269044912 96.95426771482623 L 726.0656204639059 97.05850617238767 L 726.1242051360683 97.1630146857367 L 726.1804750625599 97.26778280410907 L 726.2344246164351 97.37280005078027 L 726.2860484027834 97.47805592411314 L 726.3353412592691 97.58353989860805 L 726.3822982566477 97.68924142595546 L 726.4269146992585 97.79514993609072 L 726.4691861254946 97.90125483825108 L 726.5091083082484 98.00754552203473 L 726.5466772553351 98.11401135846187 L 726.5818892098911 98.22064170103758 L 726.6147406507505 98.32742588681647 L 726.6452282927963 98.43435323746894 L 726.67334908729 98.54141306034904 L 726.6991002221754 98.64859464956368 L 726.7224791223606 98.75588728704328 L 726.7434834499749 98.86328024361347 L 726.7621111046032 98.97076278006811 L 726.7783602234954 99.07832414824313 L 726.7922291817533 99.18595359209134 L 726.8037165924926 99.29364034875802 L 726.8128213069817 99.40137364965727 L 726.8195424147569 99.50914272154878 L 726.8238792437129 99.61693678761516 L 726.8258313601705 99.72474506853963 M 726.8259523502264 134.0630134831 L 726.8247598903228 134.17082402801663 L 726.8211826298567 134.2786237919686 L 726.8152209265514 134.38640199506935 L 726.8068753765721 134.49414785958842 L 726.7961468144669 134.60185061102908 L 726.783036313083 134.70949947920602 L 726.7675451834598 134.81708369932204 L 726.7496749746972 134.92459251304487 L 726.7294274738011 135.03201516958265 L 726.706804705505 135.1393409267593 L 726.6818089320666 135.24655905208851 L 726.6544426530426 135.35365882384713 L 726.624708605038 135.46062953214718 L 726.5926097614329 135.56746048000701 L 726.5581493320848 135.67414098442086 L 726.521330763008 135.78066037742718 L 726.4821577360286 135.88700800717544 L 726.4406341684169 135.99317323899126 L 726.3967642124949 136.09914545643997 L 726.3505522552215 136.2049140623881 L 726.3020029177542 136.31046848006324 L 726.2511210549861 136.41579815411154 L 726.1979117550612 136.5208925516534 L 726.142380338865 136.62574116333658 L 726.084532359493 136.7303335043874 L 726.0243736016948 136.8346591156588 L 725.9619100812962 136.9387075646767 L 725.897148044597 137.0424684466828 L 725.830093967747 137.14593138567542 L 725.760754556098 137.24908603544688 L 725.6891367435334 137.35192208061815 L 725.6152476917747 137.4544292376704 L 725.5390947896657 137.5565972559734 L 725.4606856524329 137.6584159188104 L 725.3800281209247 137.7598750444 L 725.2971302608273 137.86096448691416 L 725.2120003618575 137.96167413749288 L 725.124646936934 138.06199392525505 L 725.0350787213268 138.1619138183055 L 724.9433046717828 138.26142382473813 L 724.8493339656304 138.3605139936353 L 724.7531759998618 138.4591744160626 L 724.6548403901937 138.5573952260601 L 724.5543369701049 138.6551666016286 L 724.4516757898538 138.75247876571203 L 724.3468671154727 138.84932198717507 L 724.2399214277418 138.94568658177627 L 724.1308494211409 139.04156291313652 L 724.0196620027796 139.1369413937025 L 723.906370291307 139.2318124857057 L 723.7909856158001 139.32616670211596 L 723.67351951463 139.41999460759027 L 723.5539837343091 139.51328681941624 L 723.4323902283159 139.60603400845048 L 723.3087511558995 139.69822690005134 L 723.1830788808641 139.7898562750065 L 723.0553859703326 139.88091297045483 L 722.9256851934896 139.97138788080267 L 722.7939895203046 140.06127195863436 L 722.6603121202354 140.15055621561703 L 722.5246663609105 140.23923172339937 L 722.3870658067926 140.3272896145045 L 722.2475242178227 140.41472108321673 L 722.1060555480434 140.501517386462 L 721.9626739442036 140.58766984468238 L 721.8173937443445 140.67316984270377 L 721.6702294763646 140.75800883059765 L 721.5211958565685 140.8421783245359 L 721.3703077881936 140.9256699076393 L 721.2175803599213 141.00847523081913 L 721.0630288443671 141.09058601361204 L 720.9066686965535 141.17199404500818 L 720.7485155523652 141.25269118427227 L 720.588585226985 141.3326693617576 L 720.4268937133118 141.41192057971313 L 720.2634571803625 141.49043691308304 L 720.0982919716539 141.56821051029945 L 719.9314146035696 141.64523359406746 L 719.7628417637071 141.72149846214288 L 719.59259030921 141.79699748810242 L 719.4206772650818 141.87172312210643 L 719.2471198224838 141.94566789165378 L 719.0719353370155 142.01882440232913 L 718.8951413269795 142.0911853385424 L 718.7167554716294 142.16274346426022 L 718.5367956094021 142.2334916237297 L 718.3552797361341 142.3034227421938 L 718.1722260032611 142.372529826599 L 717.9876527160042 142.4408059662944 L 717.8015783315379 142.50824433372296 L 717.614021457146 142.5748381851041 L 717.4250008483593 142.64058086110825 L 717.2345354070815 142.70546578752254 L 717.0426441796976 142.7694864759084 L 716.8493463551708 142.83263652425032 L 716.6546612631223 142.89490961759617 L 716.4586083718991 142.95629952868842 L 716.2612072866269 143.01680011858718 L 716.0624777472499 143.07640533728383 L 715.8624396265561 143.13510922430623 L 715.6611129281912 143.19290590931453 L 715.4585177846571 143.24978961268846 L 715.2546744552993 143.30575464610504 L 715.0496033242811 143.36079541310758 L 714.8433248985443 143.41490640966524 L 714.63585980576 143.46808222472345 L 714.4272287922643 143.52031754074505 L 714.2174527209849 143.57160713424193 L 714.0065525693539 143.6219458762975 L 713.7945494272108 143.67132873307952 L 713.5814644946931 143.71975076634342 L 713.3673190801168 143.76720713392626 L 713.1521345978445 143.81369309023083 L 712.9359325661452 143.8592039867002 L 712.7187346050421 143.9037352722827 L 712.5005624341501 143.94728249388683 L 712.2814378705045 143.98984129682677 L 712.0613828263791 144.03140742525764 L 711.8404193070951 144.07197672260128 L 711.6185694088201 144.11154513196175 L 711.3958553163591 144.15010869653108 L 711.1722993009356 144.18766355998494 L 710.9479237179652 144.2242059668683 L 710.7227510048189 144.2597322629709 L 710.4968036785805 144.29423889569279 L 710.2701043337943 144.32772241439937 L 710.0426756402059 144.36017947076672 L 709.814540340495 144.39160681911628 L 709.5857212480017 144.42200131673934 L 709.3562412444444 144.45135992421152 L 709.1261232776324 144.4796797056965 L 708.8953903591703 144.50695782923975 L 708.6640655621579 144.53319156705163 L 708.432172018882 144.55837829578024 L 708.199732918504 144.5825154967737 L 707.9667715047399 144.60560075633202 L 707.7333110735369 144.62763176594848 L 707.4993749707439 144.64860632254045 L 707.264986589776 144.66852232866978 L 707.030169369276 144.68737779275247 L 706.7949467907704 144.70517082925778 L 706.5593423763207 144.72189965889692 L 706.3233796861724 144.73756260880086 L 706.0870823163978 144.75215811268765 L 705.8504738965368 144.76568471101908 L 705.6135780872341 144.77814105114655 L 705.3764185778737 144.7895258874465 L 705.1390190842085 144.7998380814447 L 704.90140334599 144.80907660193043 L 704.6635951245944 144.8172405250593 L 704.4256182006453 144.82432903444578 L 704.1874963716369 144.83034142124487 L 703.9492534495538 144.83527708422287 L 703.7109132584894 144.83913552981764 L 703.4724996322644 144.8419163721878 L 703.2340364120427 144.84361933325144 L 702.9955474439475 144.84424424271387 L 702.757056576677 144.84379103808467 L 702.5185876591191 144.84225976468392 L 702.2801645379669 144.83965057563768 L 702.0418110553339 144.8359637318627 L 701.8035510463695 144.83119960204027 L 701.5654083368763 144.82535866257942 L 701.3274067409267 144.81844149756918 L 701.0895700584819 144.81044879872033 L 700.8519220730119 144.8013813652961 L 700.6144865491174 144.79124010403225 L 700.3772872301527 144.78002602904647 L 700.1403478358523 144.7677402617369 L 699.903692059958 144.75438403067005 L 699.6673435678501 144.73995867145788 L 699.4313259941811 144.72446562662432 L 699.1956629405115 144.7079064454609 L 698.9603779729504 144.69028278387196 L 698.7254946197984 144.671596404209 L 698.4910363691951 144.65184917509436 L 698.2570266667702 144.6310430712345 L 698.0234889132988 144.6091801732225 L 697.790446462362 144.58626266732998 L 697.5579226180103 144.56229284528834 L 697.3259406324344 144.53727310405984 L 697.0945237036398 144.5112059455978 L 696.8636949731263 144.48409397659628 L 696.6334775235747 144.45593990822962 L 696.4038943765381 144.4267465558812 L 696.1749684901398 144.3965168388619 L 695.9467227567778 144.36525378011828 L 695.7191800008352 144.3329605059301 L 695.4923629763979 144.2996402455979 L 695.2662943649794 144.26529633111994 L 695.0409967732525 144.22993219685907 L 694.8164927307884 144.19355137919922 L 694.5928046878045 144.15615751619185 L 694.3699550129186 144.1177543471921 L 694.1479659909124 144.07834571248486 L 693.9268598205034 144.03793555290076 L 693.706658612124 143.9965279094221 L 693.4873843857118 143.9541269227787 L 693.2690590685066 143.9107368330339 L 693.0517044928582 143.8663619791605 L 692.8353423940432 143.82100679860693 L 692.6199944080909 143.77467582685347 L 692.4056820696206 143.72737369695864 L 692.1924268096875 143.679105139096 L 691.98024995364 143.62987498008118 L 691.7691727189867 143.579688142889 L 691.5592162132754 143.52854964616142 L 691.3504014319815 143.4764646037054 L 691.1427492564092 143.4234382239819 L 690.936280451603 143.36947580958457 L 690.7310156642714 143.31458275671 L 690.5269754207219 143.25876455461767 L 690.3241801248089 143.20202678508127 L 690.1226500558931 143.1443751218305 L 689.9224053668135 143.08581532998366 L 689.7234660818718 143.02635326547107 L 689.5258520948311 142.9659948744497 L 689.3295831669252 142.9047461927083 L 689.1346789248834 142.84261334506402 L 688.9411588589675 142.77960254474988 L 688.7490423210227 142.71572009279336 L 688.5583485225429 142.65097237738644 L 688.3690965327489 142.5853658732467 L 688.181305276682 142.51890714096987 L 687.9949935333113 142.4516028263738 L 687.810179933656 142.3834596598339 L 687.6268829589219 142.31448445561 L 687.4451209386536 142.24468411116504 L 687.2649120489021 142.17406560647532 L 687.0862743104059 142.10263600333244 L 686.90922558679 142.03040244463722 L 686.7337835827791 141.9573721536853 L 686.5599658424277 141.88355243344492 L 686.3877897473648 141.80895066582661 L 686.2172725150564 141.73357431094496 L 686.0484311970838 141.65743090637264 L 685.8812826774379 141.58052806638665 L 685.7158436708315 141.5028734812069 L 685.5521307210273 141.42447491622718 L 685.390160199184 141.34534021123872 L 685.2299483022188 141.265477279646 L 685.0715110511876 141.1848941076757 L 684.9148642896838 141.10359875357778 L 684.760023682253 141.02159934681995 L 684.6070047128267 140.93890408727458 L 684.4558226831743 140.85552124439866 L 684.306492711373 140.77145915640702 L 684.1590297302955 140.68672622943842 L 684.013448486117 140.6013309367149 L 683.8697635368405 140.5152818176946 L 683.7279892508413 140.42858747721772 L 683.5881398054299 140.34125658464606 L 683.4502291854342 140.2532978729961 L 683.3142711818011 140.1647201380657 L 683.1802793902181 140.07553223755454 L 683.0482672097523 139.98574309017835 L 682.918247841512 139.89536167477704 L 682.7902342873255 139.80439702941683 L 682.6642393484416 139.71285825048648 L 682.5402756242493 139.62075449178758 L 682.4183555110176 139.52809496361922 L 682.2984912006561 139.43488893185705 L 682.1806946794962 139.34114571702654 L 682.0649777270918 139.24687469337107 L 681.9513519150415 139.15208528791445 L 681.8398286058322 139.05678697951822 L 681.7304189517015 138.96098929793382 L 681.6231338935238 138.86470182284955 L 681.5179841597155 138.76793418293272 L 681.4149802651625 138.67069605486665 L 681.3141325101682 138.57299716238313 L 681.2154509794241 138.47484727529 L 681.1189455410012 138.37625620849414 L 681.0246258453627 138.27723382102013 L 680.9325013243997 138.17779001502413 L 680.8425811904875 138.07793473480393 L 680.7548744355646 137.9776779658043 L 680.6693898302333 137.87702973361863 L 680.586135922883 137.77600010298625 L 680.505121038835 137.67459917678602 L 680.4263532795102 137.57283709502605 L 680.349840521619 137.47072403382973 L 680.2755904163731 137.3682702044181 L 680.2036103887216 137.26548585208872 L 680.1339076366069 137.16238125519112 L 680.0664891302464 137.05896672409915 L 680.0013616114344 136.95525260017968 L 679.9385315928685 136.8512492547587 L 679.8780053574983 136.74696708808406 L 679.8197889578968 136.64241652828557 L 679.7638882156556 136.53760803033202 L 679.7103087208021 136.43255207498592 L 679.6590558312413 136.32725916775524 L 679.6101346722195 136.22173983784296 L 679.5635501358116 136.11600463709416 L 679.5193068804327 136.01006413894075 L 679.4774093303713 135.90392893734432 L 679.4378616753476 135.79760964573654 L 679.4006678700939 135.69111689595798 L 679.36583163396 135.5844613371949 L 679.3333564505404 135.47765363491428 L 679.3032455673264 135.37070446979732 L 679.2755019953811 135.26362453667144 L 679.2501285090387 135.15642454344072 L 679.2271276456268 135.04911521001512 L 679.2065017052123 134.9417072672386 L 679.1882527503722 134.83421145581588 L 679.1723826059867 134.72663852523857 L 679.1588928590572 134.61899923271008 L 679.147784858547 134.5113043420699 L 679.139059715247 134.40356462271745 L 679.132718301664 134.2957908485348 L 679.1287612519344 134.1879937968096 L 679.1271889617597 134.08018424715718" stroke-miterlimit="10" stroke-width="2.7769845610000004" stroke-dasharray=""/></g><g><g/><text fill="black" stroke="none" font-family="sans-serif" font-size="11pt" font-style="normal" font-weight="normal" text-decoration="normal" x="662.6329733789062" y="162.371920802" text-anchor="start" dominant-baseline="alphabetic" xml:space="preserve">SpDatabase</text></g></g><g><path fill="white" stroke="black" paint-order="fill stroke markers" d=" M 55.429564540625 175.440083442 L 71.764767840625 175.440083442 L 71.764767840625 694.8995483819999 L 55.429564540625 694.8995483819999 L 55.429564540625 175.440083442" stroke-miterlimit="10" stroke-width="1.3612669416666667" stroke-dasharray=""/><path fill="white" stroke="black" paint-order="fill stroke markers" d=" M 325.57567707395833 221.178652682 L 341.9108803739583 221.178652682 L 341.9108803739583 312.655791162 L 325.57567707395833 312.655791162 L 325.57567707395833 221.178652682" stroke-miterlimit="10" stroke-width="1.3612669416666667" stroke-dasharray=""/><path fill="white" stroke="black" paint-order="fill stroke markers" d=" M 472.6868613500651 266.917221922 L 489.0220646500651 266.917221922 L 489.0220646500651 539.715117032 L 472.6868613500651 539.715117032 L 472.6868613500651 266.917221922" stroke-miterlimit="10" stroke-width="1.3612669416666667" stroke-dasharray=""/><path fill="white" stroke="black" paint-order="fill stroke markers" d=" M 694.8089538822264 358.394360402 L 711.1441571822265 358.394360402 L 711.1441571822265 448.237978552 L 694.8089538822264 448.237978552 L 694.8089538822264 358.394360402" stroke-miterlimit="10" stroke-width="1.3612669416666667" stroke-dasharray=""/><path fill="white" stroke="black" paint-order="fill stroke markers" d=" M 694.8089538822264 493.976547792 L 711.1441571822265 493.976547792 L 711.1441571822265 539.715117032 L 694.8089538822264 539.715117032 L 694.8089538822264 493.976547792" stroke-miterlimit="10" stroke-width="1.3612669416666667" stroke-dasharray=""/><path fill="white" stroke="black" paint-order="fill stroke markers" d=" M 694.8089538822264 583.8201659419999 L 711.1441571822265 583.8201659419999 L 711.1441571822265 629.5587351819999 L 694.8089538822264 629.5587351819999 L 694.8089538822264 583.8201659419999" stroke-miterlimit="10" stroke-width="1.3612669416666667" stroke-dasharray=""/><path fill="white" stroke="black" paint-order="fill stroke markers" d=" M 472.6868613500651 583.8201659419999 L 489.0220646500651 583.8201659419999 L 489.0220646500651 629.5587351819999 L 472.6868613500651 629.5587351819999 L 472.6868613500651 583.8201659419999" stroke-miterlimit="10" stroke-width="1.3612669416666667" stroke-dasharray=""/><g><text fill="black" stroke="none" font-family="sans-serif" font-size="11pt" font-style="normal" font-weight="normal" text-decoration="normal" x="120.4311630090495" y="214.644571362" text-anchor="start" dominant-baseline="alphabetic" xml:space="preserve">Channel renamed event</text></g><g><path fill="none" stroke="black" paint-order="fill stroke markers" d=" M 71.764767840625 221.178652682 L 322.853143190625 221.178652682" stroke-miterlimit="10" stroke-width="1.3612669416666667" stroke-dasharray=""/><g transform="translate(325.57567707395833,221.178652682) translate(-325.57567707395833,-221.178652682)"><path fill="none" stroke="black" paint-order="fill stroke markers" d=" M 311.96300765729166 214.37231797366667 L 324.2144101322917 221.178652682 L 311.96300765729166 227.98498739033334" stroke-miterlimit="10" stroke-width="1.3612669416666667"/></g></g><g><text fill="black" stroke="none" font-family="sans-serif" font-size="11pt" font-style="normal" font-weight="normal" text-decoration="normal" x="363.691151440625" y="260.383140602" text-anchor="start" dominant-baseline="alphabetic" xml:space="preserve">Channel data</text></g><g><path fill="none" stroke="black" paint-order="fill stroke markers" d=" M 341.9108803739583 266.917221922 L 469.9643274667318 266.917221922" stroke-miterlimit="10" stroke-width="1.3612669416666667" stroke-dasharray=""/><g transform="translate(472.6868613500651,266.917221922) translate(-472.6868613500651,-266.917221922)"><path fill="black" stroke="none" paint-order="stroke fill markers" d=" M 459.0741919333984 260.1108872136667 L 472.6868613500651 266.917221922 L 459.0741919333984 273.72355663033335 Z"/></g></g><g><text fill="black" stroke="none" font-family="sans-serif" font-size="11pt" font-style="normal" font-weight="normal" text-decoration="normal" x="150.18420713746747" y="306.121709842" text-anchor="start" dominant-baseline="alphabetic" xml:space="preserve">Event received</text></g><g><path fill="none" stroke="black" paint-order="fill stroke markers" d=" M 325.57567707395833 312.655791162 L 74.48730172395832 312.655791162" stroke-miterlimit="10" stroke-width="1.3612669416666667" stroke-dasharray="6.53408132"/><g transform="translate(71.764767840625,312.655791162) translate(-71.764767840625,-312.655791162)"><path fill="none" stroke="black" paint-order="fill stroke markers" d=" M 85.37743725729167 305.8494564536667 L 73.12603478229167 312.655791162 L 85.37743725729167 319.46212587033335" stroke-miterlimit="10" stroke-width="1.3612669416666667"/></g></g><g><text fill="black" stroke="none" font-family="sans-serif" font-size="11pt" font-style="normal" font-weight="normal" text-decoration="normal" x="533.2433672373372" y="351.860279082" text-anchor="start" dominant-baseline="alphabetic" xml:space="preserve">Get channel by ID</text></g><g><path fill="none" stroke="black" paint-order="fill stroke markers" d=" M 489.0220646500651 358.394360402 L 692.0864199988931 358.394360402" stroke-miterlimit="10" stroke-width="1.3612669416666667" stroke-dasharray=""/><g transform="translate(694.8089538822264,358.394360402) translate(-694.8089538822264,-358.394360402)"><path fill="black" stroke="none" paint-order="stroke fill markers" d=" M 681.1962844655598 351.5880256936667 L 694.8089538822264 358.394360402 L 681.1962844655598 365.20069511033336 Z"/></g></g><g><text fill="black" stroke="none" font-family="sans-serif" font-size="11pt" font-style="normal" font-weight="normal" text-decoration="normal" x="542.2018557016927" y="441.703897232" text-anchor="start" dominant-baseline="alphabetic" xml:space="preserve">Return channel</text></g><g><path fill="none" stroke="black" paint-order="fill stroke markers" d=" M 694.8089538822264 448.237978552 L 491.7445985333984 448.237978552" stroke-miterlimit="10" stroke-width="1.3612669416666667" stroke-dasharray="6.53408132"/><g transform="translate(489.0220646500651,448.237978552) translate(-489.0220646500651,-448.237978552)"><path fill="black" stroke="none" paint-order="stroke fill markers" d=" M 502.63473406673177 441.4316438436667 L 489.0220646500651 448.237978552 L 502.63473406673177 455.04431326033335 Z"/></g></g><g><text fill="black" stroke="none" font-family="sans-serif" font-size="11pt" font-style="normal" font-weight="normal" text-decoration="normal" x="540.5662050669271" y="487.442466472" text-anchor="start" dominant-baseline="alphabetic" xml:space="preserve">Update channel</text></g><g><path fill="none" stroke="black" paint-order="fill stroke markers" d=" M 489.0220646500651 493.976547792 L 692.0864199988931 493.976547792" stroke-miterlimit="10" stroke-width="1.3612669416666667" stroke-dasharray=""/><g transform="translate(694.8089538822264,493.976547792) translate(-694.8089538822264,-493.976547792)"><path fill="black" stroke="none" paint-order="stroke fill markers" d=" M 681.1962844655598 487.1702130836667 L 694.8089538822264 493.976547792 L 681.1962844655598 500.78288250033336 Z"/></g></g><g><text fill="black" stroke="none" font-family="sans-serif" font-size="11pt" font-style="normal" font-weight="normal" text-decoration="normal" x="542.2018557016927" y="533.1810357119999" text-anchor="start" dominant-baseline="alphabetic" xml:space="preserve">Return channel</text></g><g><path fill="none" stroke="black" paint-order="fill stroke markers" d=" M 694.8089538822264 539.715117032 L 491.7445985333984 539.715117032" stroke-miterlimit="10" stroke-width="1.3612669416666667" stroke-dasharray="6.53408132"/><g transform="translate(489.0220646500651,539.715117032) translate(-489.0220646500651,-539.715117032)"><path fill="black" stroke="none" paint-order="stroke fill markers" d=" M 502.63473406673177 532.9087823236666 L 489.0220646500651 539.715117032 L 502.63473406673177 546.5214517403333 Z"/></g></g><g><text fill="black" stroke="none" font-family="sans-serif" font-size="11pt" font-style="normal" font-weight="normal" text-decoration="normal" x="523.0537381917317" y="623.0246538619998" text-anchor="start" dominant-baseline="alphabetic" xml:space="preserve">Could not find channel</text></g><g><path fill="none" stroke="black" paint-order="fill stroke markers" d=" M 694.8089538822264 629.5587351819999 L 505.3572679500651 629.5587351819999" stroke-miterlimit="10" stroke-width="1.3612669416666667" stroke-dasharray=""/><path fill="none" stroke="black" paint-order="fill stroke markers" d=" M 497.1896663000651 621.3911335319998 L 513.5248696000651 637.7263368319999 M 497.1896663000651 637.7263368319999 L 513.5248696000651 621.3911335319998" stroke-miterlimit="10" stroke-width="1.3612669416666667"/></g><g><g/><path fill="none" stroke="black" paint-order="fill stroke markers" d=" M 415.5136498000651 382.897165352 L 760.1497670822265 382.897165352 L 760.1497670822265 654.0615401319999 L 415.5136498000651 654.0615401319999 L 415.5136498000651 382.897165352 Z" stroke-miterlimit="10" stroke-width="2.3336004714285714" stroke-dasharray=""/><path fill="white" stroke="black" paint-order="fill stroke markers" d=" M 415.5136498000651 382.897165352 L 415.5136498000651 402.499409312 L 461.8728533971354 402.499409312 L 471.6739753771354 392.698287332 L 471.6739753771354 382.897165352 L 415.5136498000651 382.897165352" stroke-miterlimit="10" stroke-width="2.3336004714285714" stroke-dasharray=""/><text fill="black" stroke="none" font-family="sans-serif" font-size="8.8pt" font-style="normal" font-weight="bold" text-decoration="normal" x="431.84885310006507" y="395.965327992" text-anchor="start" dominant-baseline="alphabetic" xml:space="preserve">alt</text><text fill="black" stroke="none" font-family="sans-serif" font-size="8.8pt" font-style="normal" font-weight="bold" text-decoration="normal" x="488.00917867713537" y="395.965327992" text-anchor="start" dominant-baseline="alphabetic" xml:space="preserve">[Channel exist]</text><g><path fill="none" stroke="black" paint-order="fill stroke markers" d=" M 415.5136498000651 564.2179219819999 L 760.1497670822265 564.2179219819999" stroke-miterlimit="10" stroke-width="2.3336004714285714" stroke-dasharray="4.083800825"/></g><g/><text fill="black" stroke="none" font-family="sans-serif" font-size="8.8pt" font-style="normal" font-weight="bold" text-decoration="normal" x="488.00917867713537" y="577.2860846219999" text-anchor="start" dominant-baseline="alphabetic" xml:space="preserve">[Channel not exist]</text></g><g/></g><g/><g/><g/><g/></g></svg>