<svg version="1.1" xmlns="http://www.w3.org/2000/svg" xmlns:xlink="http://www.w3.org/1999/xlink" width="966" height="552"><defs/><g><g/><g/><g/><g/><g/><g/><g/><g/><g/><g><rect fill="white" stroke="none" x="0" y="0" width="966" height="552"/></g><g><text fill="black" stroke="none" font-family="sans-serif" font-size="16.5pt" font-style="normal" font-weight="normal" text-decoration="normal" x="399.94152920592455" y="24.50280495" text-anchor="start" dominant-baseline="alphabetic" xml:space="preserve">Channel Created</text></g><g><g><path fill="#9F5F9F" stroke="black" paint-order="fill stroke markers" d=" M 8.167601650000003 58.5617038305 L 119.02673073125 58.5617038305 L 119.02673073125 518.4793527420001 L 8.167601650000003 518.4793527420001 L 8.167601650000003 58.5617038305" stroke-miterlimit="10" stroke-width="1.3612669416666667" stroke-dasharray=""/></g><g><text fill="black" stroke="none" font-family="sans-serif" font-size="11pt" font-style="normal" font-weight="bold" text-decoration="normal" x="44.441839347363285" y="81.43098845050001" text-anchor="start" dominant-baseline="alphabetic" xml:space="preserve">Slack</text></g><g><path fill="none" stroke="black" paint-order="fill stroke markers" d=" M 254.67376057005208 50.394102180500006 L 958.047488011849 50.394102180500006 L 958.047488011849 518.4793527420001 L 254.67376057005208 518.4793527420001 L 254.67376057005208 50.394102180500006" stroke-miterlimit="10" stroke-width="1.3612669416666667" stroke-dasharray=""/></g><g><text fill="black" stroke="none" font-family="sans-serif" font-size="11pt" font-style="normal" font-weight="bold" text-decoration="normal" x="525.272596336849" y="73.2633868005" text-anchor="start" dominant-baseline="alphabetic" xml:space="preserve">Service Provider Slack </text></g></g><g><path fill="none" stroke="black" paint-order="fill stroke markers" d=" M 63.597166190625 167.272481792 L 63.597166190625 552.783279672" stroke-miterlimit="10" stroke-width="1.3612669416666667" stroke-dasharray="12.565541,5.445067766666667"/><path fill="none" stroke="black" paint-order="fill stroke markers" d=" M 324.7812120735677 167.272481792 L 324.7812120735677 552.783279672" stroke-miterlimit="10" stroke-width="1.3612669416666667" stroke-dasharray="12.565541,5.445067766666667"/><path fill="none" stroke="black" paint-order="fill stroke markers" d=" M 471.89239634967447 167.272481792 L 471.89239634967447 552.783279672" stroke-miterlimit="10" stroke-width="1.3612669416666667" stroke-dasharray="12.565541,5.445067766666667"/><path fill="none" stroke="black" paint-order="fill stroke markers" d=" M 631.2154489119141 167.272481792 L 631.2154489119141 552.783279672" stroke-miterlimit="10" stroke-width="1.3612669416666667" stroke-dasharray="12.565541,5.445067766666667"/><path fill="none" stroke="black" paint-order="fill stroke markers" d=" M 909.5363042085287 167.272481792 L 909.5363042085287 552.783279672" stroke-miterlimit="10" stroke-width="1.3612669416666667" stroke-dasharray="12.565541,5.445067766666667"/></g><g><g><path fill="white" stroke="black" paint-order="fill stroke markers" d=" M 96.022544741125 120.39044832100001 A 24.2577769005 24.2577769005 0 1 1 96.02253261223755 120.36619054814246 M 32.560279920625 94.74417914 L 32.560279920625 146.03671750200002 M 31.171787640124997 120.39044832100001 L 47.506990940125 120.39044832100001" stroke-miterlimit="10" stroke-width="2.7769845610000004" stroke-dasharray=""/></g><g><g/><text fill="black" stroke="none" font-family="sans-serif" font-size="11pt" font-style="normal" font-weight="normal" text-decoration="normal" x="16.335203300000003" y="162.371920802" text-anchor="start" dominant-baseline="alphabetic" xml:space="preserve">SlackEventApi</text></g><g><path fill="white" stroke="black" paint-order="fill stroke markers" d=" M 357.2065906240677 120.39044832100001 A 24.2577769005 24.2577769005 0 1 1 357.2065784951803 120.36619054814246 M 293.7443258035677 94.74417914 L 293.7443258035677 146.03671750200002 M 292.3558335230677 120.39044832100001 L 308.6910368230677 120.39044832100001" stroke-miterlimit="10" stroke-width="2.7769845610000004" stroke-dasharray=""/></g><g><g/><text fill="black" stroke="none" font-family="sans-serif" font-size="11pt" font-style="normal" font-weight="normal" text-decoration="normal" x="262.8413622200521" y="162.371920802" text-anchor="start" dominant-baseline="alphabetic" xml:space="preserve">SpChannelHandler</text></g><g><path fill="white" stroke="black" paint-order="fill stroke markers" d=" M 496.1501732501745 120.39044832100001 A 24.2577769005 24.2577769005 0 1 1 496.15016112128706 120.36619054814246 M 468.62535568967445 96.1326714205 L 478.42647766967445 87.96506977050001 M 468.62535568967445 96.1326714205 L 478.42647766967445 104.3002730705" stroke-miterlimit="10" stroke-width="2.7769845610000004" stroke-dasharray=""/></g><g><g/><text fill="black" stroke="none" font-family="sans-serif" font-size="11pt" font-style="normal" font-weight="normal" text-decoration="normal" x="411.18018474078775" y="162.371920802" text-anchor="start" dominant-baseline="alphabetic" xml:space="preserve">SpChannelService</text></g><g><path fill="white" stroke="black" paint-order="fill stroke markers" d=" M 655.4732258124141 118.16886067220001 A 24.2577769005 24.2577769005 0 1 1 655.4732136835266 118.14460289934246 M 605.5691797309141 144.6482252215 L 654.084733531914 144.6482252215" stroke-miterlimit="10" stroke-width="2.7769845610000004" stroke-dasharray=""/></g><g><g/><text fill="black" stroke="none" font-family="sans-serif" font-size="11pt" font-style="normal" font-weight="normal" text-decoration="normal" x="601.0615563948243" y="162.371920802" text-anchor="start" dominant-baseline="alphabetic" xml:space="preserve">SpCache</text></g><g><path fill="white" stroke="black" paint-order="fill stroke markers" d=" M 885.6869073905287 135.255483324 L 885.6869073905287 100.95155639400002 L 933.3857010265286 100.95155639400002 L 933.3857010265286 135.255483324" stroke-miterlimit="10" stroke-width="2.7769845610000004" stroke-dasharray=""/><path fill="white" stroke="black" paint-order="fill stroke markers" d=" M 933.3857010265286 99.75908655310002 L 933.384508566625 99.86689709801664 L 933.3809313061589 99.97469686196861 L 933.3749696028536 100.08247506506937 L 933.3666240528743 100.19022092958842 L 933.3558954907691 100.2979236810291 L 933.3427849893852 100.40557254920603 L 933.327293859762 100.51315676932207 L 933.3094236509994 100.62066558304487 L 933.2891761501033 100.72808823958268 L 933.2665533818072 100.83541399675931 L 933.2415576083688 100.94263212208854 L 933.2141913293448 101.04973189384714 L 933.1844572813402 101.1567026021472 L 933.1523584377351 101.26353355000704 L 933.117898008387 101.37021405442088 L 933.0810794393102 101.4767334474272 L 933.0419064123308 101.58308107717545 L 933.0003828447191 101.68924630899127 L 932.9565128887971 101.79521852643998 L 932.9103009315237 101.90098713238812 L 932.8617515940564 102.00654155006325 L 932.8108697312883 102.11187122411154 L 932.7576604313634 102.21696562165339 L 932.7021290151672 102.32181423333661 L 932.6442810357952 102.4264065743874 L 932.584122277997 102.53073218565882 L 932.5216587575984 102.63478063467669 L 932.4568967208992 102.7385415166828 L 932.3898426440492 102.84200445567542 L 932.3205032324003 102.94515910544688 L 932.2488854198356 103.04799515061815 L 932.1749963680769 103.15050230767042 L 932.0988434659679 103.2526703259734 L 932.0204343287351 103.3544889888104 L 931.939776797227 103.4559481144 L 931.8568789371295 103.55703755691417 L 931.7717490381597 103.6577472074929 L 931.6843956132362 103.75806699525508 L 931.594827397629 103.8579868883055 L 931.503053348085 103.95749689473814 L 931.4090826419326 104.05658706363529 L 931.312924676164 104.15524748606262 L 931.2145890664959 104.25346829606012 L 931.1140856464071 104.35123967162862 L 931.011424466156 104.44855183571204 L 930.9066157917749 104.54539505717509 L 930.799670104044 104.6417596517763 L 930.6905980974431 104.73763598313651 L 930.5794106790818 104.83301446370251 L 930.4661189676092 104.92788555570571 L 930.3507342921023 105.02223977211597 L 930.2332681909322 105.11606767759027 L 930.1137324106113 105.20935988941625 L 929.9921389046181 105.30210707845049 L 929.8684998322017 105.39429997005135 L 929.7428275571663 105.48592934500653 L 929.6151346466348 105.57698604045486 L 929.4854338697918 105.66746095080268 L 929.3537381966069 105.75734502863436 L 929.2200607965376 105.84662928561703 L 929.0844150372127 105.93530479339938 L 928.9468144830948 106.02336268450453 L 928.8072728941249 106.11079415321676 L 928.6658042243456 106.19759045646204 L 928.5224226205058 106.28374291468239 L 928.3771424206467 106.36924291270377 L 928.2299781526668 106.45408190059764 L 928.0809445328707 106.5382513945359 L 927.9300564644958 106.62174297763931 L 927.7773290362235 106.70454830081913 L 927.6227775206693 106.78665908361204 L 927.4664173728557 106.86806711500819 L 927.3082642286674 106.94876425427228 L 927.1483339032872 107.02874243175762 L 926.986642389614 107.10799364971314 L 926.8232058566647 107.18650998308306 L 926.6580406479561 107.26428358029946 L 926.4911632798718 107.34130666406747 L 926.3225904400093 107.41757153214289 L 926.1523389855122 107.49307055810243 L 925.980425941384 107.56779619210644 L 925.806868498786 107.6417409616538 L 925.6316840133177 107.71489747232916 L 925.4548900032817 107.7872584085424 L 925.2765041479316 107.85881653426023 L 925.0965442857043 107.9295646937297 L 924.9150284124363 107.9994958121938 L 924.7319746795633 108.06860289659899 L 924.5474013923064 108.1368790362944 L 924.3613270078401 108.20431740372297 L 924.1737701334482 108.27091125510412 L 923.9847495246615 108.33665393110826 L 923.7942840833837 108.40153885752254 L 923.6023928559998 108.46555954590839 L 923.409095031473 108.52870959425034 L 923.2144099394245 108.59098268759617 L 923.0183570482013 108.65237259868843 L 922.8209559629291 108.71287318858718 L 922.6222264235521 108.77247840728386 L 922.4221883028583 108.83118229430623 L 922.2208616044934 108.88897897931456 L 922.0182664609594 108.94586268268847 L 921.8144231316015 109.00182771610504 L 921.6093520005833 109.05686848310758 L 921.4030735748465 109.11097947966525 L 921.1956084820622 109.16415529472346 L 920.9869774685665 109.21639061074505 L 920.7772013972871 109.26768020424194 L 920.5663012456561 109.31801894629751 L 920.354298103513 109.36740180307952 L 920.1412131709953 109.41582383634344 L 919.927067756419 109.46328020392627 L 919.7118832741467 109.50976616023082 L 919.4956812424474 109.55527705670022 L 919.2784832813443 109.5998083422827 L 919.0603111104523 109.64335556388684 L 918.8411865468067 109.68591436682678 L 918.6211315026814 109.72748049525767 L 918.4001679833973 109.7680497926013 L 918.1783180851223 109.80761820196176 L 917.9556039926613 109.84618176653109 L 917.7320479772378 109.88373662998495 L 917.5076723942674 109.92027903686831 L 917.2824996811211 109.95580533297093 L 917.0565523548827 109.99031196569278 L 916.8298530100965 110.02379548439939 L 916.6024243165081 110.05625254076675 L 916.3742890167972 110.08767988911629 L 916.1454699243039 110.11807438673935 L 915.9159899207466 110.14743299421153 L 915.6858719539346 110.17575277569651 L 915.4551390354725 110.20303089923975 L 915.2238142384601 110.22926463705164 L 914.9919206951843 110.25445136578027 L 914.7594815948062 110.27858856677372 L 914.5265201810421 110.30167382633203 L 914.2930597498391 110.32370483594849 L 914.0591236470461 110.34467939254047 L 913.8247352660782 110.3645953986698 L 913.5899180455782 110.38345086275248 L 913.3546954670726 110.40124389925779 L 913.1190910526229 110.41797272889693 L 912.8831283624746 110.43363567880087 L 912.6468309927 110.44823118268765 L 912.410222572839 110.46175778101907 L 912.1733267635364 110.47421412114657 L 911.9361672541759 110.4855989574465 L 911.6987677605107 110.49591115144473 L 911.4611520222923 110.50514967193044 L 911.2233438008966 110.5133135950593 L 910.9853668769475 110.5204021044458 L 910.7472450479391 110.52641449124488 L 910.509002125856 110.53135015422289 L 910.2706619347916 110.53520859981765 L 910.0322483085666 110.53798944218781 L 909.7937850883449 110.53969240325145 L 909.5552961202497 110.54031731271388 L 909.3168052529792 110.53986410808467 L 909.0783363354213 110.53833283468393 L 908.8399132142691 110.5357236456377 L 908.6015597316361 110.53203680186272 L 908.3632997226717 110.52727267204028 L 908.1251570131785 110.52143173257942 L 907.8871554172289 110.5145145675692 L 907.6493187347841 110.50652186872036 L 907.4116707493141 110.4974544352961 L 907.1742352254196 110.48731317403227 L 906.9370359064549 110.47609909904648 L 906.7000965121545 110.46381333173692 L 906.4634407362602 110.45045710067006 L 906.2270922441523 110.4360317414579 L 905.9910746704833 110.42053869662433 L 905.7554116168137 110.40397951546092 L 905.5201266492526 110.38635585387198 L 905.2852432961006 110.367669474209 L 905.0507850454973 110.34792224509437 L 904.8167753430724 110.32711614123453 L 904.583237589601 110.30525324322254 L 904.3501951386642 110.28233573732997 L 904.1176712943125 110.25836591528834 L 903.8856893087366 110.23334617405986 L 903.654272379942 110.2072790155978 L 903.4234436494285 110.18016704659628 L 903.1932261998769 110.15201297822964 L 902.9636430528403 110.1228196258812 L 902.734717166442 110.09258990886192 L 902.50647143308 110.06132685011828 L 902.2789286771374 110.0290335759301 L 902.0521116527001 109.99571331559791 L 901.8260430412817 109.96136940111997 L 901.6007454495547 109.9260052668591 L 901.3762414070906 109.88962444919923 L 901.1525533641067 109.85223058619187 L 900.9297036892208 109.81382741719212 L 900.7077146672146 109.77441878248487 L 900.4866084968056 109.73400862290077 L 900.2664072884262 109.6926009794221 L 900.047133062014 109.6501999927787 L 899.8288077448088 109.60680990303389 L 899.6114531691604 109.56243504916051 L 899.3950910703454 109.51707986860694 L 899.1797430843931 109.47074889685346 L 898.9654307459228 109.42344676695863 L 898.7521754859897 109.37517820909602 L 898.5399986299423 109.3259480500812 L 898.328921395289 109.27576121288904 L 898.1189648895776 109.22462271616142 L 897.9101501082837 109.17253767370543 L 897.7024979327114 109.1195112939819 L 897.4960291279052 109.0655488795846 L 897.2907643405736 109.01065582671 L 897.0867240970241 108.95483762461768 L 896.8839288011111 108.89809985508128 L 896.6823987321953 108.84044819183053 L 896.4821540431157 108.78188839998367 L 896.283214758174 108.7224263354711 L 896.0856007711333 108.66206794444972 L 895.8893318432274 108.60081926270831 L 895.6944276011856 108.53868641506405 L 895.5009075352697 108.47567561474989 L 895.3087909973249 108.41179316279337 L 895.1180971988451 108.34704544738645 L 894.9288452090511 108.2814389432467 L 894.7410539529842 108.21498021096988 L 894.5547422096136 108.14767589637383 L 894.3699286099582 108.07953272983391 L 894.1866316352241 108.01055752561001 L 894.0048696149559 107.94075718116505 L 893.8246607252044 107.87013867647532 L 893.6460229867081 107.79870907333245 L 893.4689742630922 107.72647551463722 L 893.2935322590813 107.6534452236853 L 893.1197145187299 107.57962550344493 L 892.947538423667 107.50502373582663 L 892.7770211913586 107.42964738094497 L 892.608179873386 107.35350397637264 L 892.4410313537401 107.27660113638665 L 892.2755923471337 107.1989465512069 L 892.1118793973295 107.12054798622721 L 891.9499088754862 107.04141328123873 L 891.789696978521 106.96155034964602 L 891.6312597274898 106.8809671776757 L 891.474612965986 106.7996718235778 L 891.3197723585552 106.71767241681998 L 891.1667533891289 106.63497715727459 L 891.0155713594766 106.55159431439867 L 890.8662413876752 106.46753222640703 L 890.7187784065977 106.38279929943842 L 890.5731971624192 106.29740400671491 L 890.4295122131427 106.21135488769461 L 890.2877379271436 106.12466054721774 L 890.1478884817321 106.03732965464607 L 890.0099778617364 105.94937094299611 L 889.8740198581033 105.8607932080657 L 889.7400280665203 105.77160530755455 L 889.6080158860545 105.68181616017836 L 889.4779965178142 105.59143474477705 L 889.3499829636277 105.50047009941686 L 889.2239880247438 105.40893132048649 L 889.1000243005515 105.31682756178758 L 888.9781041873198 105.22416803361924 L 888.8582398769584 105.13096200185706 L 888.7404433557984 105.03721878702656 L 888.624726403394 104.94294776337108 L 888.5111005913437 104.84815835791446 L 888.3995772821344 104.75286004951823 L 888.2901676280037 104.65706236793383 L 888.182882569826 104.56077489284957 L 888.0777328360177 104.46400725293273 L 887.9747289414647 104.36676912486666 L 887.8738811864704 104.26907023238314 L 887.7751996557263 104.17092034529 L 887.6786942173034 104.07232927849415 L 887.5843745216649 103.97330689102013 L 887.4922500007019 103.87386308502415 L 887.4023298667897 103.77400780480394 L 887.3146231118668 103.67375103580433 L 887.2291385065355 103.57310280361865 L 887.1458845991853 103.47207317298626 L 887.0648697151372 103.37067224678601 L 886.9861019558124 103.26891016502606 L 886.9095891979212 103.16679710382974 L 886.8353390926753 103.0643432744181 L 886.7633590650238 102.96155892208871 L 886.6936563129091 102.85845432519113 L 886.6262378065486 102.75503979409915 L 886.5611102877366 102.65132567017969 L 886.4982802691707 102.5473223247587 L 886.4377540338005 102.44304015808407 L 886.379537634199 102.33848959828556 L 886.3236368919578 102.23368110033203 L 886.2700573971043 102.12862514498595 L 886.2188045075435 102.02333223775527 L 886.1698833485217 101.91781290784299 L 886.1232988121138 101.81207770709416 L 886.0790555567349 101.70613720894077 L 886.0371580066735 101.60000200734433 L 885.9976103516498 101.49368271573654 L 885.9604165463961 101.387189965958 L 885.9255803102623 101.2805344071949 L 885.8931051268426 101.17372670491429 L 885.8629942436286 101.06677753979733 L 885.8352506716833 100.95969760667145 L 885.809877185341 100.85249761344073 L 885.786876321929 100.74518828001514 L 885.7662503815145 100.63778033723861 L 885.7480014266744 100.5302845258159 L 885.732131282289 100.42271159523858 L 885.7186415353594 100.31507230271008 L 885.7075335348492 100.20737741206993 L 885.6988083915492 100.09963769271747 L 885.6924669779662 99.99186391853482 L 885.6885099282366 99.88406686680962 L 885.6869376380619 99.77625731715719 L 885.6877502646698 99.66844605044267 L 885.6909477267984 99.56064384770288 L 885.6965297047041 99.45286148906825 L 885.7044956401937 99.34510975268485 L 885.7148447366804 99.23739941363651 L 885.7275759592633 99.12974124286738 L 885.7426880348304 99.02214600610482 L 885.760179452187 98.91462446278284 L 885.7800484622057 98.80718736496618 L 885.8022930780024 98.69984545627509 L 885.8269110751339 98.59260947081098 L 885.8538999918209 98.48549013208303 L 885.8832571291942 98.37849815193587 L 885.9149795515648 98.27164422947833 L 885.9490640867167 98.16493905001363 L 885.9855073262247 98.05839328397077 L 886.0243056257955 97.9520175858376 L 886.0654551056311 97.84582259309526 L 886.1089516508182 97.73981892515455 L 886.1547909117382 97.6340171822939 L 886.2029683045034 97.52842794459946 L 886.2534790114147 97.423061770907 L 886.3063179814433 97.31792919774607 L 886.3614799307364 97.21304073828638 L 886.418959343145 97.10840688128647 L 886.4787504707758 97.00403809004486 L 886.5408473345657 96.89994480135368 L 886.6052437248802 96.79613742445507 L 886.671933202134 96.6926263400002 L 886.7409090974348 96.58942189901128 L 886.8121645132507 96.48653442184639 L 886.8856923240993 96.38397419716749 L 886.9614851772609 96.28175148091161 L 887.0395354935133 96.17987649526519 L 887.1198354678901 96.07835942764187 L 887.2023770704604 95.97721042966384 L 887.2871520471332 95.8764396161466 L 887.3741519204812 95.77605706408754 L 887.4633679905895 95.67607281165819 L 887.5547913359256 95.57649685720048 L 887.6484128142312 95.47733915822688 L 887.7442230634362 95.37860963042466 L 887.8422125025958 95.28031814666433 L 887.9423713328476 95.18247453601234 L 888.0446895383922 95.08508858274823 L 888.149156887494 94.98817002538617 L 888.2557629335055 94.89172855570112 L 888.3644970159107 94.79577381775971 L 888.475348261392 94.70031540695574 L 888.5883055849174 94.60536286905077 L 888.7033576908485 94.51092569921943 L 888.8204930740707 94.41701334110004 L 888.939700021143 94.32363518585014 L 889.0609666114705 94.23080057120742 L 889.1842807184948 94.13851878055601 L 889.3096300109083 94.04679904199807 L 889.437001953886 93.955650527431 L 889.5663838103399 93.86508235163033 L 889.697762642192 93.77510357133815 L 889.8311253116685 93.68572318435751 L 889.9664584826139 93.59695012865262 L 890.1037486218238 93.5087932814551 L 890.2429820003986 93.42126145837616 L 890.3841446951164 93.33436341252519 L 890.5272225898256 93.24810783363438 L 890.6722013768557 93.1625033471897 L 890.819066558449 93.07755851356848 L 890.9678034482097 92.9932818271833 L 891.1183971725726 92.90968171563254 L 891.270832672291 92.82676653885773 L 891.4250947039418 92.74454458830742 L 891.5811678414505 92.66302408610815 L 891.7390364776332 92.58221318424222 L 891.8986848257582 92.50211996373247 L 892.0600969211233 92.4227524338342 L 892.2232566226538 92.34411853123427 L 892.3881476145153 92.26622611925741 L 892.5547534077463 92.1890829870799 L 892.723057341906 92.11269684895069 L 892.8930425867413 92.0370753434199 L 893.0646921438696 91.9622260325751 L 893.237988848478 91.888156401285 L 893.4129153710405 91.81487385645099 L 893.5894542190507 91.74238572626649 L 893.7675877387708 91.67069925948411 L 893.9472981169973 91.59982162469079 L 894.1285673828422 91.52975990959095 L 894.3113774095299 91.4605211202977 L 894.4957099162101 91.3921121806323 L 894.6815464697859 91.32453993143167 L 894.8688684867565 91.25781112986445 L 895.0576572350764 91.1919324487552 L 895.2478938360282 91.12691047591709 L 895.4395592661103 91.06275171349324 L 895.6326343589394 90.99946257730645 L 895.8270998071671 90.93704939621756 L 896.0229361644107 90.87551841149269 L 896.2201238471974 90.81487577617904 L 896.4186431369237 90.75512755448958 L 896.6184741818257 90.69627972119672 L 896.8195969989655 90.63833816103474 L 897.0219914762291 90.58130866811136 L 897.2256373743375 90.52519694532836 L 897.4305143288702 90.47000860381125 L 897.6366018523029 90.41574916234819 L 897.8438793360548 90.36242404683813 L 898.0523260525503 90.31003858974816 L 898.2619211572915 90.25859802958036 L 898.4726436909424 90.20810751034786 L 898.6844725814254 90.1585720810605 L 898.897386646028 90.10999669521995 L 899.1113645935212 90.0623862103243 L 899.3263850262884 90.01574538738238 L 899.5424264424656 89.9700788904376 L 899.7594672380911 89.92539128610161 L 899.9774857092665 89.88168704309761 L 900.196460054326 89.83897053181346 L 900.4163683760178 89.79724602386472 L 900.637188683693 89.75651769166738 L 900.8588988955047 89.71678960802075 L 901.0814768406166 89.67806574570005 L 901.3049002614196 89.64034997705929 L 901.5291468157577 89.60364607364387 L 901.7541940791626 89.56795770581357 L 901.9800195470954 89.53328844237541 L 902.2066006371974 89.49964175022686 L 902.4339146915486 89.46702099400908 L 902.6619389789327 89.43542943577052 L 902.8906506971111 89.40487023464067 L 903.1200269751027 89.37534644651419 L 903.3500448754709 89.34686102374526 L 903.580681396617 89.31941681485246 L 903.8119134750814 89.29301656423378 L 904.0437179878487 89.2676629118923 L 904.2760717546611 89.2433583931721 L 904.5089515403353 89.22010543850483 L 904.7423340570869 89.19790637316656 L 904.9761959668587 89.17676341704532 L 905.2105138836545 89.15667868441913 L 905.445264375878 89.13765418374449 L 905.6804239686755 89.11969181745562 L 905.9159691462839 89.10279338177418 L 906.1518763543816 89.08696056652965 L 906.3881220024443 89.0721949549904 L 906.6246824661041 89.05849802370521 L 906.8615340895119 89.04587114235585 L 907.0986531877026 89.03431557361992 L 907.336016048964 89.02383247304465 L 907.5735989372077 89.01442288893136 L 907.811378094343 89.00608776223065 L 908.0493297426524 88.99882792644821 L 908.2874300871691 88.9926441075616 L 908.5256553180573 88.98753692394752 L 908.7639816129923 88.9835068863201 L 909.0023851395433 88.98055439767974 L 909.2408420575562 88.97867975327284 L 909.479328521538 88.97788314056228 L 909.717820683041 88.97816463920867 L 909.9562946930479 88.97952422106238 L 910.1947267043563 88.98196175016635 L 910.4330928739638 88.98547698276971 L 910.671369365452 88.99006956735212 L 910.9095323513706 88.99573904465896 L 911.1475580156191 89.00248484774721 L 911.3854225558296 89.0103063020422 L 911.6231021857462 89.019202625405 L 911.8605731376043 89.0291729282107 L 912.0978116645063 89.04021621343732 L 912.3347940427972 89.05233137676555 L 912.5714965744368 89.06551720668914 L 912.8078955893691 89.0797723846361 L 913.0439674478897 89.0950954851005 L 913.2796885430093 89.11148497578507 L 913.515035302815 89.12893921775441 L 913.7499841928269 89.14745646559885 L 913.9845117183517 89.16703486760905 L 914.2185944268324 89.18767246596111 L 914.4522089101931 89.20936719691241 L 914.6853318071802 89.23211689100792 L 914.9179398056983 89.2559192732972 L 915.1500096451414 89.28077196356185 L 915.3815181187189 89.30667247655354 L 915.6124420757764 89.33361822224259 L 915.8427584241106 89.36160650607685 L 916.0724441322785 89.39063452925127 L 916.3014762319009 89.42069938898774 L 916.5298318199585 89.45179807882532 L 916.757488061083 89.48392748892095 L 916.9844221898397 89.5170844063604 L 917.2106115130051 89.55126551547954 L 917.4360334118354 89.58646739819596 L 917.6606653443283 89.62268653435072 L 917.884484847478 89.65991930206037 L 918.1074695395206 89.69816197807918 L 918.3295971221726 89.73741073817143 L 918.5508453828611 89.7776616574938 L 918.7711921969442 89.8189107109879 L 918.9906155299241 89.86115377378276 L 919.2090934396505 89.9043866216073 L 919.4266040785144 89.94860493121277 L 919.6431256956332 89.99380428080505 L 919.8586366390256 90.03998015048685 L 920.0731153577768 90.0871279227097 L 920.2865404041938 90.13524288273562 L 920.4988904359498 90.18432021910876 L 920.7101442182185 90.23435502413635 L 920.9202806257977 90.28534229437957 L 921.1292786452217 90.33727693115392 L 921.3371173768629 90.39015374103897 L 921.5437760370212 90.44396743639781 L 921.7492339600029 90.49871263590576 L 921.9534706001868 90.55438386508847 L 922.1564655340792 90.6109755568694 L 922.3581984623557 90.66848205212658 L 922.5586492118919 90.72689760025837 L 922.7577977377795 90.78621635975864 L 922.9556241253321 90.84643239880089 L 923.1521085920757 90.90753969583137 L 923.3472314897275 90.96953214017132 L 923.5409733061603 91.03240353262795 L 923.7333146673536 91.09614758611443 L 923.9242363393321 91.1607579262785 L 924.1137192300872 91.22622809214002 L 924.3017443914881 91.29255153673692 L 924.4882930211752 91.35972162778006 L 924.6733464644409 91.42773164831627 L 924.8568862160952 91.49657479740019 L 925.0388939223159 91.56624419077427 L 925.219351382484 91.63673286155725 L 925.3982405510038 91.70803376094076 L 925.5755435391076 91.78013975889431 L 925.7512426166444 91.85304364487818 L 925.9253202138527 91.92673812856452 L 926.097758923118 92.00121584056639 L 926.268541500713 92.07646933317463 L 926.4376508685223 92.15249108110271 L 926.6050701157499 92.22927348223918 L 926.7707825006107 92.3068088584079 L 926.9347714520044 92.3850894561359 L 927.0970205711724 92.4641074474286 L 927.257513633338 92.54385493055275 L 927.4162345893288 92.62432393082648 L 927.5731675671814 92.70550640141681 L 927.7282968737287 92.78739422414436 L 927.8816069961696 92.86997921029509 L 928.0330826036193 92.95325310143917 L 928.1827085486434 93.03720757025692 L 928.3304698687722 93.12183422137142 L 928.4763517879967 93.20712459218805 L 928.6203397182466 93.29307015374081 L 928.7624192608488 93.3796623115452 L 928.9025762079675 93.46689240645757 L 929.0407965440247 93.55475171554113 L 929.1770664471021 93.64323145293818 L 929.3113722903229 93.73232277074871 L 929.4437006432147 93.8220167599152 L 929.5740382730523 93.91230445111346 L 929.7023721461817 94.00317681564962 L 929.8286894293224 94.09462476636294 L 929.952977490851 94.18663915853458 L 930.0752239020654 94.27921079080198 L 930.1954164384262 94.37233040607906 L 930.3135430807798 94.46598869248189 L 930.4295920165605 94.56017628425988 L 930.5435516409714 94.65488376273235 L 930.655410558145 94.75010165723037 L 930.7651575822829 94.84582044604385 L 930.872781738774 94.94203055737364 L 930.9782722652925 95.03872237028881 L 931.0816186128735 95.13588621568863 L 931.1828104469685 95.23351237726953 L 931.2818376484784 95.33159109249674 L 931.3786903147653 95.43011255358043 L 931.4733587606437 95.5290669084566 L 931.5658335193476 95.62844426177223 L 931.6561053434784 95.72823467587482 L 931.7441652059288 95.82842817180608 L 931.8300043007858 95.92901473029994 L 931.9136140442118 96.02998429278436 L 931.9949860753018 96.13132676238725 L 932.0741122569207 96.23303200494607 L 932.1509846765161 96.33508985002135 L 932.2255956469103 96.4374900919136 L 932.2979377070683 96.54022249068399 L 932.3680036228445 96.64327677317824 L 932.4357863877055 96.746642634054 L 932.5012792234315 96.85030973681128 L 932.5644755807934 96.95426771482623 L 932.6253691402081 97.05850617238767 L 932.6839538123705 97.1630146857367 L 932.7402237388621 97.26778280410907 L 932.7941732927374 97.37280005078027 L 932.8457970790856 97.47805592411314 L 932.8950899355713 97.58353989860805 L 932.9420469329499 97.68924142595546 L 932.9866633755607 97.79514993609072 L 933.0289348017968 97.90125483825108 L 933.0688569845506 98.00754552203473 L 933.1064259316373 98.11401135846187 L 933.1416378861933 98.22064170103758 L 933.1744893270527 98.32742588681647 L 933.2049769690985 98.43435323746894 L 933.2330977635922 98.54141306034904 L 933.2588488984776 98.64859464956368 L 933.2822277986628 98.75588728704328 L 933.3032321262771 98.86328024361347 L 933.3218597809054 98.97076278006811 L 933.3381088997976 99.07832414824313 L 933.3519778580555 99.18595359209134 L 933.3634652687948 99.29364034875802 L 933.3725699832839 99.40137364965727 L 933.3792910910591 99.50914272154878 L 933.3836279200151 99.61693678761516 L 933.3855800364727 99.72474506853963 M 933.3857010265286 134.0630134831 L 933.384508566625 134.17082402801663 L 933.3809313061589 134.2786237919686 L 933.3749696028536 134.38640199506935 L 933.3666240528743 134.49414785958842 L 933.3558954907691 134.60185061102908 L 933.3427849893852 134.70949947920602 L 933.327293859762 134.81708369932204 L 933.3094236509994 134.92459251304487 L 933.2891761501033 135.03201516958265 L 933.2665533818072 135.1393409267593 L 933.2415576083688 135.24655905208851 L 933.2141913293448 135.35365882384713 L 933.1844572813402 135.46062953214718 L 933.1523584377351 135.56746048000701 L 933.117898008387 135.67414098442086 L 933.0810794393102 135.78066037742718 L 933.0419064123308 135.88700800717544 L 933.0003828447191 135.99317323899126 L 932.9565128887971 136.09914545643997 L 932.9103009315237 136.2049140623881 L 932.8617515940564 136.31046848006324 L 932.8108697312883 136.41579815411154 L 932.7576604313634 136.5208925516534 L 932.7021290151672 136.62574116333658 L 932.6442810357952 136.7303335043874 L 932.584122277997 136.8346591156588 L 932.5216587575984 136.9387075646767 L 932.4568967208992 137.0424684466828 L 932.3898426440492 137.14593138567542 L 932.3205032324003 137.24908603544688 L 932.2488854198356 137.35192208061815 L 932.1749963680769 137.4544292376704 L 932.0988434659679 137.5565972559734 L 932.0204343287351 137.6584159188104 L 931.939776797227 137.7598750444 L 931.8568789371295 137.86096448691416 L 931.7717490381597 137.96167413749288 L 931.6843956132362 138.06199392525505 L 931.594827397629 138.1619138183055 L 931.503053348085 138.26142382473813 L 931.4090826419326 138.3605139936353 L 931.312924676164 138.4591744160626 L 931.2145890664959 138.5573952260601 L 931.1140856464071 138.6551666016286 L 931.011424466156 138.75247876571203 L 930.9066157917749 138.84932198717507 L 930.799670104044 138.94568658177627 L 930.6905980974431 139.04156291313652 L 930.5794106790818 139.1369413937025 L 930.4661189676092 139.2318124857057 L 930.3507342921023 139.32616670211596 L 930.2332681909322 139.41999460759027 L 930.1137324106113 139.51328681941624 L 929.9921389046181 139.60603400845048 L 929.8684998322017 139.69822690005134 L 929.7428275571663 139.7898562750065 L 929.6151346466348 139.88091297045483 L 929.4854338697918 139.97138788080267 L 929.3537381966069 140.06127195863436 L 929.2200607965376 140.15055621561703 L 929.0844150372127 140.23923172339937 L 928.9468144830948 140.3272896145045 L 928.8072728941249 140.41472108321673 L 928.6658042243456 140.501517386462 L 928.5224226205058 140.58766984468238 L 928.3771424206467 140.67316984270377 L 928.2299781526668 140.75800883059765 L 928.0809445328707 140.8421783245359 L 927.9300564644958 140.9256699076393 L 927.7773290362235 141.00847523081913 L 927.6227775206693 141.09058601361204 L 927.4664173728557 141.17199404500818 L 927.3082642286674 141.25269118427227 L 927.1483339032872 141.3326693617576 L 926.986642389614 141.41192057971313 L 926.8232058566647 141.49043691308304 L 926.6580406479561 141.56821051029945 L 926.4911632798718 141.64523359406746 L 926.3225904400093 141.72149846214288 L 926.1523389855122 141.79699748810242 L 925.980425941384 141.87172312210643 L 925.806868498786 141.94566789165378 L 925.6316840133177 142.01882440232913 L 925.4548900032817 142.0911853385424 L 925.2765041479316 142.16274346426022 L 925.0965442857043 142.2334916237297 L 924.9150284124363 142.3034227421938 L 924.7319746795633 142.372529826599 L 924.5474013923064 142.4408059662944 L 924.3613270078401 142.50824433372296 L 924.1737701334482 142.5748381851041 L 923.9847495246615 142.64058086110825 L 923.7942840833837 142.70546578752254 L 923.6023928559998 142.7694864759084 L 923.409095031473 142.83263652425032 L 923.2144099394245 142.89490961759617 L 923.0183570482013 142.95629952868842 L 922.8209559629291 143.01680011858718 L 922.6222264235521 143.07640533728383 L 922.4221883028583 143.13510922430623 L 922.2208616044934 143.19290590931453 L 922.0182664609594 143.24978961268846 L 921.8144231316015 143.30575464610504 L 921.6093520005833 143.36079541310758 L 921.4030735748465 143.41490640966524 L 921.1956084820622 143.46808222472345 L 920.9869774685665 143.52031754074505 L 920.7772013972871 143.57160713424193 L 920.5663012456561 143.6219458762975 L 920.354298103513 143.67132873307952 L 920.1412131709953 143.71975076634342 L 919.927067756419 143.76720713392626 L 919.7118832741467 143.81369309023083 L 919.4956812424474 143.8592039867002 L 919.2784832813443 143.9037352722827 L 919.0603111104523 143.94728249388683 L 918.8411865468067 143.98984129682677 L 918.6211315026814 144.03140742525764 L 918.4001679833973 144.07197672260128 L 918.1783180851223 144.11154513196175 L 917.9556039926613 144.15010869653108 L 917.7320479772378 144.18766355998494 L 917.5076723942674 144.2242059668683 L 917.2824996811211 144.2597322629709 L 917.0565523548827 144.29423889569279 L 916.8298530100965 144.32772241439937 L 916.6024243165081 144.36017947076672 L 916.3742890167972 144.39160681911628 L 916.1454699243039 144.42200131673934 L 915.9159899207466 144.45135992421152 L 915.6858719539346 144.4796797056965 L 915.4551390354725 144.50695782923975 L 915.2238142384601 144.53319156705163 L 914.9919206951843 144.55837829578024 L 914.7594815948062 144.5825154967737 L 914.5265201810421 144.60560075633202 L 914.2930597498391 144.62763176594848 L 914.0591236470461 144.64860632254045 L 913.8247352660782 144.66852232866978 L 913.5899180455782 144.68737779275247 L 913.3546954670726 144.70517082925778 L 913.1190910526229 144.72189965889692 L 912.8831283624746 144.73756260880086 L 912.6468309927 144.75215811268765 L 912.410222572839 144.76568471101908 L 912.1733267635364 144.77814105114655 L 911.9361672541759 144.7895258874465 L 911.6987677605107 144.7998380814447 L 911.4611520222923 144.80907660193043 L 911.2233438008966 144.8172405250593 L 910.9853668769475 144.82432903444578 L 910.7472450479391 144.83034142124487 L 910.509002125856 144.83527708422287 L 910.2706619347916 144.83913552981764 L 910.0322483085666 144.8419163721878 L 909.7937850883449 144.84361933325144 L 909.5552961202497 144.84424424271387 L 909.3168052529792 144.84379103808467 L 909.0783363354213 144.84225976468392 L 908.8399132142691 144.83965057563768 L 908.6015597316361 144.8359637318627 L 908.3632997226717 144.83119960204027 L 908.1251570131785 144.82535866257942 L 907.8871554172289 144.81844149756918 L 907.6493187347841 144.81044879872033 L 907.4116707493141 144.8013813652961 L 907.1742352254196 144.79124010403225 L 906.9370359064549 144.78002602904647 L 906.7000965121545 144.7677402617369 L 906.4634407362602 144.75438403067005 L 906.2270922441523 144.73995867145788 L 905.9910746704833 144.72446562662432 L 905.7554116168137 144.7079064454609 L 905.5201266492526 144.69028278387196 L 905.2852432961006 144.671596404209 L 905.0507850454973 144.65184917509436 L 904.8167753430724 144.6310430712345 L 904.583237589601 144.6091801732225 L 904.3501951386642 144.58626266732998 L 904.1176712943125 144.56229284528834 L 903.8856893087366 144.53727310405984 L 903.654272379942 144.5112059455978 L 903.4234436494285 144.48409397659628 L 903.1932261998769 144.45593990822962 L 902.9636430528403 144.4267465558812 L 902.734717166442 144.3965168388619 L 902.50647143308 144.36525378011828 L 902.2789286771374 144.3329605059301 L 902.0521116527001 144.2996402455979 L 901.8260430412817 144.26529633111994 L 901.6007454495547 144.22993219685907 L 901.3762414070906 144.19355137919922 L 901.1525533641067 144.15615751619185 L 900.9297036892208 144.1177543471921 L 900.7077146672146 144.07834571248486 L 900.4866084968056 144.03793555290076 L 900.2664072884262 143.9965279094221 L 900.047133062014 143.9541269227787 L 899.8288077448088 143.9107368330339 L 899.6114531691604 143.8663619791605 L 899.3950910703454 143.82100679860693 L 899.1797430843931 143.77467582685347 L 898.9654307459228 143.72737369695864 L 898.7521754859897 143.679105139096 L 898.5399986299423 143.62987498008118 L 898.328921395289 143.579688142889 L 898.1189648895776 143.52854964616142 L 897.9101501082837 143.4764646037054 L 897.7024979327114 143.4234382239819 L 897.4960291279052 143.36947580958457 L 897.2907643405736 143.31458275671 L 897.0867240970241 143.25876455461767 L 896.8839288011111 143.20202678508127 L 896.6823987321953 143.1443751218305 L 896.4821540431157 143.08581532998366 L 896.283214758174 143.02635326547107 L 896.0856007711333 142.9659948744497 L 895.8893318432274 142.9047461927083 L 895.6944276011856 142.84261334506402 L 895.5009075352697 142.77960254474988 L 895.3087909973249 142.71572009279336 L 895.1180971988451 142.65097237738644 L 894.9288452090511 142.5853658732467 L 894.7410539529842 142.51890714096987 L 894.5547422096136 142.4516028263738 L 894.3699286099582 142.3834596598339 L 894.1866316352241 142.31448445561 L 894.0048696149559 142.24468411116504 L 893.8246607252044 142.17406560647532 L 893.6460229867081 142.10263600333244 L 893.4689742630922 142.03040244463722 L 893.2935322590813 141.9573721536853 L 893.1197145187299 141.88355243344492 L 892.947538423667 141.80895066582661 L 892.7770211913586 141.73357431094496 L 892.608179873386 141.65743090637264 L 892.4410313537401 141.58052806638665 L 892.2755923471337 141.5028734812069 L 892.1118793973295 141.42447491622718 L 891.9499088754862 141.34534021123872 L 891.789696978521 141.265477279646 L 891.6312597274898 141.1848941076757 L 891.474612965986 141.10359875357778 L 891.3197723585552 141.02159934681995 L 891.1667533891289 140.93890408727458 L 891.0155713594766 140.85552124439866 L 890.8662413876752 140.77145915640702 L 890.7187784065977 140.68672622943842 L 890.5731971624192 140.6013309367149 L 890.4295122131427 140.5152818176946 L 890.2877379271436 140.42858747721772 L 890.1478884817321 140.34125658464606 L 890.0099778617364 140.2532978729961 L 889.8740198581033 140.1647201380657 L 889.7400280665203 140.07553223755454 L 889.6080158860545 139.98574309017835 L 889.4779965178142 139.89536167477704 L 889.3499829636277 139.80439702941683 L 889.2239880247438 139.71285825048648 L 889.1000243005515 139.62075449178758 L 888.9781041873198 139.52809496361922 L 888.8582398769584 139.43488893185705 L 888.7404433557984 139.34114571702654 L 888.624726403394 139.24687469337107 L 888.5111005913437 139.15208528791445 L 888.3995772821344 139.05678697951822 L 888.2901676280037 138.96098929793382 L 888.182882569826 138.86470182284955 L 888.0777328360177 138.76793418293272 L 887.9747289414647 138.67069605486665 L 887.8738811864704 138.57299716238313 L 887.7751996557263 138.47484727529 L 887.6786942173034 138.37625620849414 L 887.5843745216649 138.27723382102013 L 887.4922500007019 138.17779001502413 L 887.4023298667897 138.07793473480393 L 887.3146231118668 137.9776779658043 L 887.2291385065355 137.87702973361863 L 887.1458845991853 137.77600010298625 L 887.0648697151372 137.67459917678602 L 886.9861019558124 137.57283709502605 L 886.9095891979212 137.47072403382973 L 886.8353390926753 137.3682702044181 L 886.7633590650238 137.26548585208872 L 886.6936563129091 137.16238125519112 L 886.6262378065486 137.05896672409915 L 886.5611102877366 136.95525260017968 L 886.4982802691707 136.8512492547587 L 886.4377540338005 136.74696708808406 L 886.379537634199 136.64241652828557 L 886.3236368919578 136.53760803033202 L 886.2700573971043 136.43255207498592 L 886.2188045075435 136.32725916775524 L 886.1698833485217 136.22173983784296 L 886.1232988121138 136.11600463709416 L 886.0790555567349 136.01006413894075 L 886.0371580066735 135.90392893734432 L 885.9976103516498 135.79760964573654 L 885.9604165463961 135.69111689595798 L 885.9255803102623 135.5844613371949 L 885.8931051268426 135.47765363491428 L 885.8629942436286 135.37070446979732 L 885.8352506716833 135.26362453667144 L 885.809877185341 135.15642454344072 L 885.786876321929 135.04911521001512 L 885.7662503815145 134.9417072672386 L 885.7480014266744 134.83421145581588 L 885.732131282289 134.72663852523857 L 885.7186415353594 134.61899923271008 L 885.7075335348492 134.5113043420699 L 885.6988083915492 134.40356462271745 L 885.6924669779662 134.2957908485348 L 885.6885099282366 134.1879937968096 L 885.6869376380619 134.08018424715718" stroke-miterlimit="10" stroke-width="2.7769845610000004" stroke-dasharray=""/></g><g><g/><text fill="black" stroke="none" font-family="sans-serif" font-size="11pt" font-style="normal" font-weight="normal" text-decoration="normal" x="869.1927220552084" y="162.371920802" text-anchor="start" dominant-baseline="alphabetic" xml:space="preserve">SpDatabase</text></g></g><g><path fill="white" stroke="black" paint-order="fill stroke markers" d=" M 55.429564540625 175.440083442 L 71.764767840625 175.440083442 L 71.764767840625 536.4480763720001 L 55.429564540625 536.4480763720001 L 55.429564540625 175.440083442" stroke-miterlimit="10" stroke-width="1.3612669416666667" stroke-dasharray=""/><path fill="white" stroke="black" paint-order="fill stroke markers" d=" M 316.6136104235677 221.178652682 L 332.9488137235677 221.178652682 L 332.9488137235677 312.655791162 L 316.6136104235677 312.655791162 L 316.6136104235677 221.178652682" stroke-miterlimit="10" stroke-width="1.3612669416666667" stroke-dasharray=""/><path fill="white" stroke="black" paint-order="fill stroke markers" d=" M 463.7247946996745 266.917221922 L 480.05999799967447 266.917221922 L 480.05999799967447 495.61006812200003 L 463.7247946996745 495.61006812200003 L 463.7247946996745 266.917221922" stroke-miterlimit="10" stroke-width="1.3612669416666667" stroke-dasharray=""/><path fill="white" stroke="black" paint-order="fill stroke markers" d=" M 623.0478472619141 358.394360402 L 639.3830505619142 358.394360402 L 639.3830505619142 495.61006812200003 L 623.0478472619141 495.61006812200003 L 623.0478472619141 358.394360402" stroke-miterlimit="10" stroke-width="1.3612669416666667" stroke-dasharray=""/><path fill="white" stroke="black" paint-order="fill stroke markers" d=" M 901.3687025585286 404.132929642 L 917.7039058585287 404.132929642 L 917.7039058585287 449.871498882 L 901.3687025585286 449.871498882 L 901.3687025585286 404.132929642" stroke-miterlimit="10" stroke-width="1.3612669416666667" stroke-dasharray=""/><g><text fill="black" stroke="none" font-family="sans-serif" font-size="11pt" font-style="normal" font-weight="normal" text-decoration="normal" x="120.4311630090495" y="214.644571362" text-anchor="start" dominant-baseline="alphabetic" xml:space="preserve">Channel created event</text></g><g><path fill="none" stroke="black" paint-order="fill stroke markers" d=" M 71.764767840625 221.178652682 L 313.8910765402344 221.178652682" stroke-miterlimit="10" stroke-width="1.3612669416666667" stroke-dasharray=""/><g transform="translate(316.6136104235677,221.178652682) translate(-316.6136104235677,-221.178652682)"><path fill="none" stroke="black" paint-order="fill stroke markers" d=" M 303.00094100690103 214.37231797366667 L 315.25234348190105 221.178652682 L 303.00094100690103 227.98498739033334" stroke-miterlimit="10" stroke-width="1.3612669416666667"/></g></g><g><text fill="black" stroke="none" font-family="sans-serif" font-size="11pt" font-style="normal" font-weight="normal" text-decoration="normal" x="354.72908479023437" y="260.383140602" text-anchor="start" dominant-baseline="alphabetic" xml:space="preserve">Channel data</text></g><g><path fill="none" stroke="black" paint-order="fill stroke markers" d=" M 332.9488137235677 266.917221922 L 461.00226081634116 266.917221922" stroke-miterlimit="10" stroke-width="1.3612669416666667" stroke-dasharray=""/><g transform="translate(463.7247946996745,266.917221922) translate(-463.7247946996745,-266.917221922)"><path fill="none" stroke="black" paint-order="fill stroke markers" d=" M 450.1121252830078 260.1108872136667 L 462.3635277580078 266.917221922 L 450.1121252830078 273.72355663033335" stroke-miterlimit="10" stroke-width="1.3612669416666667"/></g></g><g><text fill="black" stroke="none" font-family="sans-serif" font-size="11pt" font-style="normal" font-weight="normal" text-decoration="normal" x="145.70317381227215" y="306.121709842" text-anchor="start" dominant-baseline="alphabetic" xml:space="preserve">Event received</text></g><g><path fill="none" stroke="black" paint-order="fill stroke markers" d=" M 316.6136104235677 312.655791162 L 74.48730172395832 312.655791162" stroke-miterlimit="10" stroke-width="1.3612669416666667" stroke-dasharray="6.53408132"/><g transform="translate(71.764767840625,312.655791162) translate(-71.764767840625,-312.655791162)"><path fill="none" stroke="black" paint-order="fill stroke markers" d=" M 85.37743725729167 305.8494564536667 L 73.12603478229167 312.655791162 L 85.37743725729167 319.46212587033335" stroke-miterlimit="10" stroke-width="1.3612669416666667"/></g></g><g><text fill="black" stroke="none" font-family="sans-serif" font-size="11pt" font-style="normal" font-weight="normal" text-decoration="normal" x="501.8402690663411" y="351.860279082" text-anchor="start" dominant-baseline="alphabetic" xml:space="preserve">Create channel</text></g><g><path fill="none" stroke="black" paint-order="fill stroke markers" d=" M 480.05999799967447 358.394360402 L 620.3253133785807 358.394360402" stroke-miterlimit="10" stroke-width="1.3612669416666667" stroke-dasharray=""/><g transform="translate(623.0478472619141,358.394360402) translate(-623.0478472619141,-358.394360402)"><path fill="black" stroke="none" paint-order="stroke fill markers" d=" M 609.4351778452474 351.5880256936667 L 623.0478472619141 358.394360402 L 609.4351778452474 365.20069511033336 Z"/></g></g><g><text fill="black" stroke="none" font-family="sans-serif" font-size="11pt" font-style="normal" font-weight="normal" text-decoration="normal" x="720.6622229957683" y="397.598848322" text-anchor="start" dominant-baseline="alphabetic" xml:space="preserve">Create channel</text></g><g><path fill="none" stroke="black" paint-order="fill stroke markers" d=" M 639.3830505619142 404.132929642 L 898.6461686751953 404.132929642" stroke-miterlimit="10" stroke-width="1.3612669416666667" stroke-dasharray=""/><g transform="translate(901.3687025585286,404.132929642) translate(-901.3687025585286,-404.132929642)"><path fill="black" stroke="none" paint-order="stroke fill markers" d=" M 887.756033141862 397.3265949336667 L 901.3687025585286 404.132929642 L 887.756033141862 410.93926435033336 Z"/></g></g><g><text fill="black" stroke="none" font-family="sans-serif" font-size="11pt" font-style="normal" font-weight="normal" text-decoration="normal" x="661.1633216285808" y="443.337417562" text-anchor="start" dominant-baseline="alphabetic" xml:space="preserve">Return channel and load in cache</text></g><g><path fill="none" stroke="black" paint-order="fill stroke markers" d=" M 901.3687025585286 449.871498882 L 642.1055844452475 449.871498882" stroke-miterlimit="10" stroke-width="1.3612669416666667" stroke-dasharray="6.53408132"/><g transform="translate(639.3830505619142,449.871498882) translate(-639.3830505619142,-449.871498882)"><path fill="black" stroke="none" paint-order="stroke fill markers" d=" M 652.9957199785808 443.0651641736667 L 639.3830505619142 449.871498882 L 652.9957199785808 456.67783359033336 Z"/></g></g><g><text fill="black" stroke="none" font-family="sans-serif" font-size="11pt" font-style="normal" font-weight="normal" text-decoration="normal" x="501.8402690663411" y="489.075986802" text-anchor="start" dominant-baseline="alphabetic" xml:space="preserve">Return channel</text></g><g><path fill="none" stroke="black" paint-order="fill stroke markers" d=" M 623.0478472619141 495.61006812200003 L 482.7825318830078 495.61006812200003" stroke-miterlimit="10" stroke-width="1.3612669416666667" stroke-dasharray="6.53408132"/><g transform="translate(480.05999799967447,495.61006812200003) translate(-480.05999799967447,-495.61006812200003)"><path fill="black" stroke="none" paint-order="stroke fill markers" d=" M 493.67266741634114 488.8037334136667 L 480.05999799967447 495.61006812200003 L 493.67266741634114 502.41640283033337 Z"/></g></g></g><g/><g/><g/><g/><g/></g></svg>