<svg version="1.1" xmlns="http://www.w3.org/2000/svg" xmlns:xlink="http://www.w3.org/1999/xlink" width="1172" height="802"><defs/><g><g/><g/><g/><g/><g/><g/><g/><g/><g/><g/><g/><g/><g><rect fill="white" stroke="none" x="0" y="0" width="1172" height="802"/></g><g><text fill="black" stroke="none" font-family="sans-serif" font-size="16.5pt" font-style="normal" font-weight="normal" text-decoration="normal" x="464.97656701422534" y="24.50280495" text-anchor="start" dominant-baseline="alphabetic" xml:space="preserve">Channel Name Changed</text></g><g><g><path fill="#9F5F9F" stroke="black" paint-order="fill stroke markers" d=" M 8.167601650000003 58.5617038305 L 119.02673073125 58.5617038305 L 119.02673073125 768.4079632319998 L 8.167601650000003 768.4079632319998 L 8.167601650000003 58.5617038305" stroke-miterlimit="10" stroke-width="1.3612669416666667" stroke-dasharray=""/></g><g><text fill="black" stroke="none" font-family="sans-serif" font-size="11pt" font-style="normal" font-weight="bold" text-decoration="normal" x="44.441839347363285" y="81.43098845050001" text-anchor="start" dominant-baseline="alphabetic" xml:space="preserve">Slack</text></g><g><path fill="none" stroke="black" paint-order="fill stroke markers" d=" M 263.6358272204427 50.394102180500006 L 1130.781832494271 50.394102180500006 L 1130.781832494271 768.4079632319998 L 263.6358272204427 768.4079632319998 L 263.6358272204427 50.394102180500006" stroke-miterlimit="10" stroke-width="1.3612669416666667" stroke-dasharray=""/></g><g><text fill="black" stroke="none" font-family="sans-serif" font-size="11pt" font-style="normal" font-weight="bold" text-decoration="normal" x="616.1208019032553" y="73.2633868005" text-anchor="start" dominant-baseline="alphabetic" xml:space="preserve">Service Provider Slack </text></g></g><g><path fill="none" stroke="black" paint-order="fill stroke markers" d=" M 63.597166190625 167.272481792 L 63.597166190625 802.7118901619998" stroke-miterlimit="10" stroke-width="1.3612669416666667" stroke-dasharray="12.565541,5.445067766666667"/><path fill="none" stroke="black" paint-order="fill stroke markers" d=" M 333.7432787239583 167.272481792 L 333.7432787239583 802.7118901619998" stroke-miterlimit="10" stroke-width="1.3612669416666667" stroke-dasharray="12.565541,5.445067766666667"/><path fill="none" stroke="black" paint-order="fill stroke markers" d=" M 480.8544630000651 167.272481792 L 480.8544630000651 802.7118901619998" stroke-miterlimit="10" stroke-width="1.3612669416666667" stroke-dasharray="12.565541,5.445067766666667"/><path fill="none" stroke="black" paint-order="fill stroke markers" d=" M 803.949793394336 167.272481792 L 803.949793394336 802.7118901619998" stroke-miterlimit="10" stroke-width="1.3612669416666667" stroke-dasharray="12.565541,5.445067766666667"/><path fill="none" stroke="black" paint-order="fill stroke markers" d=" M 1082.2706486909506 167.272481792 L 1082.2706486909506 802.7118901619998" stroke-miterlimit="10" stroke-width="1.3612669416666667" stroke-dasharray="12.565541,5.445067766666667"/></g><g><g><path fill="white" stroke="black" paint-order="fill stroke markers" d=" M 96.022544741125 120.39044832100001 A 24.2577769005 24.2577769005 0 1 1 96.02253261223755 120.36619054814246 M 32.560279920625 94.74417914 L 32.560279920625 146.03671750200002 M 31.171787640124997 120.39044832100001 L 47.506990940125 120.39044832100001" stroke-miterlimit="10" stroke-width="2.7769845610000004" stroke-dasharray=""/></g><g><g/><text fill="black" stroke="none" font-family="sans-serif" font-size="11pt" font-style="normal" font-weight="normal" text-decoration="normal" x="16.335203300000003" y="162.371920802" text-anchor="start" dominant-baseline="alphabetic" xml:space="preserve">SlackEventApi</text></g><g><path fill="white" stroke="black" paint-order="fill stroke markers" d=" M 366.1686572744583 120.39044832100001 A 24.2577769005 24.2577769005 0 1 1 366.1686451455709 120.36619054814246 M 302.7063924539583 94.74417914 L 302.7063924539583 146.03671750200002 M 301.3179001734583 120.39044832100001 L 317.6531034734583 120.39044832100001" stroke-miterlimit="10" stroke-width="2.7769845610000004" stroke-dasharray=""/></g><g><g/><text fill="black" stroke="none" font-family="sans-serif" font-size="11pt" font-style="normal" font-weight="normal" text-decoration="normal" x="271.8034288704427" y="162.371920802" text-anchor="start" dominant-baseline="alphabetic" xml:space="preserve">SpChannelHandler</text></g><g><path fill="white" stroke="black" paint-order="fill stroke markers" d=" M 505.1122399005651 120.39044832100001 A 24.2577769005 24.2577769005 0 1 1 505.1122277716777 120.36619054814246 M 477.5874223400651 96.1326714205 L 487.3885443200651 87.96506977050001 M 477.5874223400651 96.1326714205 L 487.3885443200651 104.3002730705" stroke-miterlimit="10" stroke-width="2.7769845610000004" stroke-dasharray=""/></g><g><g/><text fill="black" stroke="none" font-family="sans-serif" font-size="11pt" font-style="normal" font-weight="normal" text-decoration="normal" x="420.1422513911784" y="162.371920802" text-anchor="start" dominant-baseline="alphabetic" xml:space="preserve">SpChannelService</text></g><g><path fill="white" stroke="black" paint-order="fill stroke markers" d=" M 828.2075702948359 118.16886067220001 A 24.2577769005 24.2577769005 0 1 1 828.2075581659485 118.14460289934246 M 778.303524213336 144.6482252215 L 826.8190780143359 144.6482252215" stroke-miterlimit="10" stroke-width="2.7769845610000004" stroke-dasharray=""/></g><g><g/><text fill="black" stroke="none" font-family="sans-serif" font-size="11pt" font-style="normal" font-weight="normal" text-decoration="normal" x="773.7959008772461" y="162.371920802" text-anchor="start" dominant-baseline="alphabetic" xml:space="preserve">SpCache</text></g><g><path fill="white" stroke="black" paint-order="fill stroke markers" d=" M 1058.4212518729505 135.255483324 L 1058.4212518729505 100.95155639400002 L 1106.1200455089506 100.95155639400002 L 1106.1200455089506 135.255483324" stroke-miterlimit="10" stroke-width="2.7769845610000004" stroke-dasharray=""/><path fill="white" stroke="black" paint-order="fill stroke markers" d=" M 1106.1200455089506 99.75908655310002 L 1106.118853049047 99.86689709801664 L 1106.115275788581 99.97469686196861 L 1106.1093140852754 100.08247506506937 L 1106.1009685352963 100.19022092958842 L 1106.090239973191 100.2979236810291 L 1106.0771294718072 100.40557254920603 L 1106.0616383421839 100.51315676932207 L 1106.0437681334213 100.62066558304487 L 1106.0235206325253 100.72808823958268 L 1106.000897864229 100.83541399675931 L 1105.9759020907907 100.94263212208854 L 1105.9485358117668 101.04973189384714 L 1105.918801763762 101.1567026021472 L 1105.886702920157 101.26353355000704 L 1105.8522424908087 101.37021405442088 L 1105.815423921732 101.4767334474272 L 1105.7762508947528 101.58308107717545 L 1105.734727327141 101.68924630899127 L 1105.690857371219 101.79521852643998 L 1105.6446454139457 101.90098713238812 L 1105.5960960764783 102.00654155006325 L 1105.5452142137103 102.11187122411154 L 1105.4920049137852 102.21696562165339 L 1105.436473497589 102.32181423333661 L 1105.3786255182172 102.4264065743874 L 1105.318466760419 102.53073218565882 L 1105.2560032400202 102.63478063467669 L 1105.1912412033212 102.7385415166828 L 1105.124187126471 102.84200445567542 L 1105.054847714822 102.94515910544688 L 1104.9832299022576 103.04799515061815 L 1104.909340850499 103.15050230767042 L 1104.8331879483897 103.2526703259734 L 1104.754778811157 103.3544889888104 L 1104.674121279649 103.4559481144 L 1104.5912234195514 103.55703755691417 L 1104.5060935205815 103.6577472074929 L 1104.4187400956582 103.75806699525508 L 1104.329171880051 103.8579868883055 L 1104.2373978305068 103.95749689473814 L 1104.1434271243545 104.05658706363529 L 1104.047269158586 104.15524748606262 L 1103.9489335489177 104.25346829606012 L 1103.848430128829 104.35123967162862 L 1103.7457689485777 104.44855183571204 L 1103.6409602741967 104.54539505717509 L 1103.534014586466 104.6417596517763 L 1103.424942579865 104.73763598313651 L 1103.3137551615037 104.83301446370251 L 1103.200463450031 104.92788555570571 L 1103.0850787745242 105.02223977211597 L 1102.967612673354 105.11606767759027 L 1102.8480768930333 105.20935988941625 L 1102.72648338704 105.30210707845049 L 1102.6028443146236 105.39429997005135 L 1102.4771720395881 105.48592934500653 L 1102.3494791290566 105.57698604045486 L 1102.2197783522138 105.66746095080268 L 1102.0880826790287 105.75734502863436 L 1101.9544052789595 105.84662928561703 L 1101.8187595196346 105.93530479339938 L 1101.6811589655167 106.02336268450453 L 1101.5416173765468 106.11079415321676 L 1101.4001487067676 106.19759045646204 L 1101.2567671029278 106.28374291468239 L 1101.1114869030685 106.36924291270377 L 1100.9643226350888 106.45408190059764 L 1100.8152890152926 106.5382513945359 L 1100.6644009469178 106.62174297763931 L 1100.5116735186455 106.70454830081913 L 1100.357122003091 106.78665908361204 L 1100.2007618552775 106.86806711500819 L 1100.0426087110893 106.94876425427228 L 1099.8826783857091 107.02874243175762 L 1099.7209868720358 107.10799364971314 L 1099.5575503390864 107.18650998308306 L 1099.392385130378 107.26428358029946 L 1099.2255077622938 107.34130666406747 L 1099.0569349224313 107.41757153214289 L 1098.886683467934 107.49307055810243 L 1098.714770423806 107.56779619210644 L 1098.541212981208 107.6417409616538 L 1098.3660284957396 107.71489747232916 L 1098.1892344857035 107.7872584085424 L 1098.0108486303534 107.85881653426023 L 1097.8308887681262 107.9295646937297 L 1097.649372894858 107.9994958121938 L 1097.4663191619852 108.06860289659899 L 1097.2817458747281 108.1368790362944 L 1097.095671490262 108.20431740372297 L 1096.90811461587 108.27091125510412 L 1096.7190940070834 108.33665393110826 L 1096.5286285658055 108.40153885752254 L 1096.3367373384217 108.46555954590839 L 1096.143439513895 108.52870959425034 L 1095.9487544218464 108.59098268759617 L 1095.7527015306232 108.65237259868843 L 1095.5553004453511 108.71287318858718 L 1095.356570905974 108.77247840728386 L 1095.1565327852802 108.83118229430623 L 1094.9552060869153 108.88897897931456 L 1094.7526109433811 108.94586268268847 L 1094.5487676140235 109.00182771610504 L 1094.343696483005 109.05686848310758 L 1094.1374180572684 109.11097947966525 L 1093.929952964484 109.16415529472346 L 1093.7213219509883 109.21639061074505 L 1093.5115458797088 109.26768020424194 L 1093.3006457280778 109.31801894629751 L 1093.0886425859348 109.36740180307952 L 1092.8755576534172 109.41582383634344 L 1092.6614122388407 109.46328020392627 L 1092.4462277565685 109.50976616023082 L 1092.2300257248694 109.55527705670022 L 1092.0128277637662 109.5998083422827 L 1091.794655592874 109.64335556388684 L 1091.5755310292286 109.68591436682678 L 1091.3554759851033 109.72748049525767 L 1091.1345124658192 109.7680497926013 L 1090.9126625675442 109.80761820196176 L 1090.6899484750832 109.84618176653109 L 1090.4663924596598 109.88373662998495 L 1090.2420168766891 109.92027903686831 L 1090.0168441635428 109.95580533297093 L 1089.7908968373044 109.99031196569278 L 1089.5641974925184 110.02379548439939 L 1089.3367687989298 110.05625254076675 L 1089.1086334992192 110.08767988911629 L 1088.8798144067257 110.11807438673935 L 1088.6503344031685 110.14743299421153 L 1088.4202164363564 110.17575277569651 L 1088.1894835178944 110.20303089923975 L 1087.958158720882 110.22926463705164 L 1087.7262651776061 110.25445136578027 L 1087.493826077228 110.27858856677372 L 1087.260864663464 110.30167382633203 L 1087.027404232261 110.32370483594849 L 1086.793468129468 110.34467939254047 L 1086.5590797485002 110.3645953986698 L 1086.3242625280002 110.38345086275248 L 1086.0890399494945 110.40124389925779 L 1085.8534355350448 110.41797272889693 L 1085.6174728448966 110.43363567880087 L 1085.3811754751218 110.44823118268765 L 1085.1445670552607 110.46175778101907 L 1084.9076712459582 110.47421412114657 L 1084.6705117365977 110.4855989574465 L 1084.4331122429326 110.49591115144473 L 1084.1954965047141 110.50514967193044 L 1083.9576882833185 110.5133135950593 L 1083.7197113593695 110.5204021044458 L 1083.4815895303611 110.52641449124488 L 1083.2433466082778 110.53135015422289 L 1083.0050064172135 110.53520859981765 L 1082.7665927909884 110.53798944218781 L 1082.5281295707669 110.53969240325145 L 1082.2896406026716 110.54031731271388 L 1082.0511497354012 110.53986410808467 L 1081.8126808178433 110.53833283468393 L 1081.5742576966911 110.5357236456377 L 1081.335904214058 110.53203680186272 L 1081.0976442050937 110.52727267204028 L 1080.8595014956004 110.52143173257942 L 1080.6214998996506 110.5145145675692 L 1080.3836632172058 110.50652186872036 L 1080.1460152317359 110.4974544352961 L 1079.9085797078415 110.48731317403227 L 1079.6713803888767 110.47609909904648 L 1079.4344409945763 110.46381333173692 L 1079.197785218682 110.45045710067006 L 1078.9614367265742 110.4360317414579 L 1078.7254191529053 110.42053869662433 L 1078.4897560992356 110.40397951546092 L 1078.2544711316746 110.38635585387198 L 1078.0195877785225 110.367669474209 L 1077.7851295279193 110.34792224509437 L 1077.5511198254942 110.32711614123453 L 1077.317582072023 110.30525324322254 L 1077.084539621086 110.28233573732997 L 1076.8520157767343 110.25836591528834 L 1076.6200337911584 110.23334617405986 L 1076.3886168623637 110.2072790155978 L 1076.1577881318503 110.18016704659628 L 1075.9275706822987 110.15201297822964 L 1075.6979875352622 110.1228196258812 L 1075.469061648864 110.09258990886192 L 1075.240815915502 110.06132685011828 L 1075.0132731595593 110.0290335759301 L 1074.786456135122 109.99571331559791 L 1074.5603875237034 109.96136940111997 L 1074.3350899319764 109.9260052668591 L 1074.1105858895125 109.88962444919923 L 1073.8868978465287 109.85223058619187 L 1073.6640481716427 109.81382741719212 L 1073.4420591496366 109.77441878248487 L 1073.2209529792274 109.73400862290077 L 1073.0007517708482 109.6926009794221 L 1072.7814775444358 109.6501999927787 L 1072.5631522272306 109.60680990303389 L 1072.3457976515824 109.56243504916051 L 1072.1294355527673 109.51707986860694 L 1071.914087566815 109.47074889685346 L 1071.6997752283446 109.42344676695863 L 1071.4865199684116 109.37517820909602 L 1071.274343112364 109.3259480500812 L 1071.0632658777108 109.27576121288904 L 1070.8533093719996 109.22462271616142 L 1070.6444945907056 109.17253767370543 L 1070.4368424151332 109.1195112939819 L 1070.230373610327 109.0655488795846 L 1070.0251088229954 109.01065582671 L 1069.8210685794459 108.95483762461768 L 1069.618273283533 108.89809985508128 L 1069.4167432146173 108.84044819183053 L 1069.2164985255374 108.78188839998367 L 1069.017559240596 108.7224263354711 L 1068.8199452535553 108.66206794444972 L 1068.6236763256493 108.60081926270831 L 1068.4287720836076 108.53868641506405 L 1068.2352520176914 108.47567561474989 L 1068.0431354797468 108.41179316279337 L 1067.852441681267 108.34704544738645 L 1067.663189691473 108.2814389432467 L 1067.475398435406 108.21498021096988 L 1067.2890866920354 108.14767589637383 L 1067.10427309238 108.07953272983391 L 1066.920976117646 108.01055752561001 L 1066.7392140973777 107.94075718116505 L 1066.5590052076261 107.87013867647532 L 1066.3803674691299 107.79870907333245 L 1066.203318745514 107.72647551463722 L 1066.0278767415032 107.6534452236853 L 1065.8540590011517 107.57962550344493 L 1065.6818829060887 107.50502373582663 L 1065.5113656737806 107.42964738094497 L 1065.3425243558079 107.35350397637264 L 1065.175375836162 107.27660113638665 L 1065.0099368295555 107.1989465512069 L 1064.8462238797515 107.12054798622721 L 1064.6842533579081 107.04141328123873 L 1064.5240414609427 106.96155034964602 L 1064.3656042099117 106.8809671776757 L 1064.208957448408 106.7996718235778 L 1064.054116840977 106.71767241681998 L 1063.9010978715507 106.63497715727459 L 1063.7499158418984 106.55159431439867 L 1063.6005858700971 106.46753222640703 L 1063.4531228890196 106.38279929943842 L 1063.3075416448412 106.29740400671491 L 1063.1638566955646 106.21135488769461 L 1063.0220824095654 106.12466054721774 L 1062.882232964154 106.03732965464607 L 1062.7443223441583 105.94937094299611 L 1062.6083643405252 105.8607932080657 L 1062.4743725489423 105.77160530755455 L 1062.3423603684764 105.68181616017836 L 1062.2123410002362 105.59143474477705 L 1062.0843274460497 105.50047009941686 L 1061.9583325071658 105.40893132048649 L 1061.8343687829733 105.31682756178758 L 1061.7124486697417 105.22416803361924 L 1061.5925843593802 105.13096200185706 L 1061.4747878382202 105.03721878702656 L 1061.3590708858158 104.94294776337108 L 1061.2454450737657 104.84815835791446 L 1061.1339217645561 104.75286004951823 L 1061.0245121104256 104.65706236793383 L 1060.9172270522479 104.56077489284957 L 1060.8120773184396 104.46400725293273 L 1060.7090734238866 104.36676912486666 L 1060.6082256688924 104.26907023238314 L 1060.5095441381482 104.17092034529 L 1060.4130386997253 104.07232927849415 L 1060.3187190040867 103.97330689102013 L 1060.2265944831238 103.87386308502415 L 1060.1366743492117 103.77400780480394 L 1060.0489675942886 103.67375103580433 L 1059.9634829889574 103.57310280361865 L 1059.880229081607 103.47207317298626 L 1059.7992141975592 103.37067224678601 L 1059.7204464382344 103.26891016502606 L 1059.643933680343 103.16679710382974 L 1059.5696835750973 103.0643432744181 L 1059.4977035474456 102.96155892208871 L 1059.428000795331 102.85845432519113 L 1059.3605822889704 102.75503979409915 L 1059.2954547701584 102.65132567017969 L 1059.2326247515925 102.5473223247587 L 1059.1720985162224 102.44304015808407 L 1059.113882116621 102.33848959828556 L 1059.0579813743796 102.23368110033203 L 1059.004401879526 102.12862514498595 L 1058.9531489899655 102.02333223775527 L 1058.9042278309435 101.91781290784299 L 1058.8576432945358 101.81207770709416 L 1058.8134000391567 101.70613720894077 L 1058.7715024890954 101.60000200734433 L 1058.7319548340715 101.49368271573654 L 1058.694761028818 101.387189965958 L 1058.659924792684 101.2805344071949 L 1058.6274496092644 101.17372670491429 L 1058.5973387260503 101.06677753979733 L 1058.5695951541052 100.95969760667145 L 1058.5442216677627 100.85249761344073 L 1058.5212208043508 100.74518828001514 L 1058.5005948639364 100.63778033723861 L 1058.4823459090962 100.5302845258159 L 1058.4664757647108 100.42271159523858 L 1058.4529860177813 100.31507230271008 L 1058.4418780172712 100.20737741206993 L 1058.433152873971 100.09963769271747 L 1058.426811460388 99.99186391853482 L 1058.4228544106584 99.88406686680962 L 1058.4212821204837 99.77625731715719 L 1058.4220947470917 99.66844605044267 L 1058.4252922092203 99.56064384770288 L 1058.430874187126 99.45286148906825 L 1058.4388401226156 99.34510975268485 L 1058.4491892191024 99.23739941363651 L 1058.4619204416852 99.12974124286738 L 1058.4770325172524 99.02214600610482 L 1058.4945239346089 98.91462446278284 L 1058.5143929446276 98.80718736496618 L 1058.5366375604244 98.69984545627509 L 1058.5612555575558 98.59260947081098 L 1058.5882444742429 98.48549013208303 L 1058.6176016116162 98.37849815193587 L 1058.6493240339867 98.27164422947833 L 1058.6834085691385 98.16493905001363 L 1058.7198518086466 98.05839328397077 L 1058.7586501082174 97.9520175858376 L 1058.799799588053 97.84582259309526 L 1058.84329613324 97.73981892515455 L 1058.8891353941601 97.6340171822939 L 1058.9373127869253 97.52842794459946 L 1058.9878234938365 97.423061770907 L 1059.0406624638651 97.31792919774607 L 1059.0958244131582 97.21304073828638 L 1059.1533038255668 97.10840688128647 L 1059.2130949531977 97.00403809004486 L 1059.2751918169877 96.89994480135368 L 1059.339588207302 96.79613742445507 L 1059.4062776845558 96.6926263400002 L 1059.4752535798566 96.58942189901128 L 1059.5465089956724 96.48653442184639 L 1059.620036806521 96.38397419716749 L 1059.6958296596827 96.28175148091161 L 1059.7738799759352 96.17987649526519 L 1059.8541799503118 96.07835942764187 L 1059.9367215528823 95.97721042966384 L 1060.0214965295552 95.8764396161466 L 1060.108496402903 95.77605706408754 L 1060.1977124730115 95.67607281165819 L 1060.2891358183474 95.57649685720048 L 1060.382757296653 95.47733915822688 L 1060.4785675458581 95.37860963042466 L 1060.5765569850178 95.28031814666433 L 1060.6767158152695 95.18247453601234 L 1060.779034020814 95.08508858274823 L 1060.8835013699158 94.98817002538617 L 1060.9901074159272 94.89172855570112 L 1061.0988414983326 94.79577381775971 L 1061.209692743814 94.70031540695574 L 1061.3226500673393 94.60536286905077 L 1061.4377021732703 94.51092569921943 L 1061.5548375564924 94.41701334110004 L 1061.674044503565 94.32363518585014 L 1061.7953110938925 94.23080057120742 L 1061.9186252009167 94.13851878055601 L 1062.0439744933303 94.04679904199807 L 1062.1713464363079 93.955650527431 L 1062.3007282927617 93.86508235163033 L 1062.4321071246138 93.77510357133815 L 1062.5654697940904 93.68572318435751 L 1062.7008029650358 93.59695012865262 L 1062.8380931042457 93.5087932814551 L 1062.9773264828204 93.42126145837616 L 1063.1184891775383 93.33436341252519 L 1063.2615670722475 93.24810783363438 L 1063.4065458592777 93.1625033471897 L 1063.553411040871 93.07755851356848 L 1063.7021479306316 92.9932818271833 L 1063.8527416549946 92.90968171563254 L 1064.0051771547128 92.82676653885773 L 1064.1594391863637 92.74454458830742 L 1064.3155123238723 92.66302408610815 L 1064.4733809600552 92.58221318424222 L 1064.63302930818 92.50211996373247 L 1064.7944414035453 92.4227524338342 L 1064.9576011050756 92.34411853123427 L 1065.1224920969373 92.26622611925741 L 1065.2890978901683 92.1890829870799 L 1065.457401824328 92.11269684895069 L 1065.6273870691632 92.0370753434199 L 1065.7990366262916 91.9622260325751 L 1065.9723333308998 91.888156401285 L 1066.1472598534624 91.81487385645099 L 1066.3237987014725 91.74238572626649 L 1066.5019322211926 91.67069925948411 L 1066.681642599419 91.59982162469079 L 1066.862911865264 91.52975990959095 L 1067.0457218919519 91.4605211202977 L 1067.230054398632 91.3921121806323 L 1067.4158909522077 91.32453993143167 L 1067.6032129691782 91.25781112986445 L 1067.7920017174984 91.1919324487552 L 1067.98223831845 91.12691047591709 L 1068.1739037485322 91.06275171349324 L 1068.3669788413613 90.99946257730645 L 1068.561444289589 90.93704939621756 L 1068.7572806468324 90.87551841149269 L 1068.9544683296194 90.81487577617904 L 1069.1529876193456 90.75512755448958 L 1069.3528186642475 90.69627972119672 L 1069.5539414813875 90.63833816103474 L 1069.756335958651 90.58130866811136 L 1069.9599818567592 90.52519694532836 L 1070.164858811292 90.47000860381125 L 1070.3709463347247 90.41574916234819 L 1070.5782238184768 90.36242404683813 L 1070.7866705349722 90.31003858974816 L 1070.9962656397133 90.25859802958036 L 1071.2069881733644 90.20810751034786 L 1071.4188170638474 90.1585720810605 L 1071.63173112845 90.10999669521995 L 1071.845709075943 90.0623862103243 L 1072.0607295087102 90.01574538738238 L 1072.2767709248874 89.9700788904376 L 1072.4938117205131 89.92539128610161 L 1072.7118301916883 89.88168704309761 L 1072.930804536748 89.83897053181346 L 1073.1507128584396 89.79724602386472 L 1073.371533166115 89.75651769166738 L 1073.5932433779265 89.71678960802075 L 1073.8158213230383 89.67806574570005 L 1074.0392447438414 89.64034997705929 L 1074.2634912981796 89.60364607364387 L 1074.4885385615846 89.56795770581357 L 1074.7143640295174 89.53328844237541 L 1074.9409451196193 89.49964175022686 L 1075.1682591739705 89.46702099400908 L 1075.3962834613546 89.43542943577052 L 1075.624995179533 89.40487023464067 L 1075.8543714575246 89.37534644651419 L 1076.0843893578926 89.34686102374526 L 1076.3150258790388 89.31941681485246 L 1076.5462579575033 89.29301656423378 L 1076.7780624702707 89.2676629118923 L 1077.010416237083 89.2433583931721 L 1077.2432960227572 89.22010543850483 L 1077.4766785395088 89.19790637316656 L 1077.7105404492804 89.17676341704532 L 1077.9448583660762 89.15667868441913 L 1078.1796088582998 89.13765418374449 L 1078.4147684510974 89.11969181745562 L 1078.6503136287058 89.10279338177418 L 1078.8862208368034 89.08696056652965 L 1079.1224664848662 89.0721949549904 L 1079.359026948526 89.05849802370521 L 1079.5958785719338 89.04587114235585 L 1079.8329976701243 89.03431557361992 L 1080.0703605313859 89.02383247304465 L 1080.3079434196295 89.01442288893136 L 1080.545722576765 89.00608776223065 L 1080.7836742250743 88.99882792644821 L 1081.0217745695911 88.9926441075616 L 1081.2599998004791 88.98753692394752 L 1081.498326095414 88.9835068863201 L 1081.7367296219652 88.98055439767974 L 1081.975186539978 88.97867975327284 L 1082.21367300396 88.97788314056228 L 1082.452165165463 88.97816463920867 L 1082.6906391754699 88.97952422106238 L 1082.9290711867782 88.98196175016635 L 1083.1674373563856 88.98547698276971 L 1083.405713847874 88.99006956735212 L 1083.6438768337923 88.99573904465896 L 1083.881902498041 89.00248484774721 L 1084.1197670382514 89.0103063020422 L 1084.3574466681682 89.019202625405 L 1084.594917620026 89.0291729282107 L 1084.8321561469281 89.04021621343732 L 1085.0691385252192 89.05233137676555 L 1085.3058410568588 89.06551720668914 L 1085.542240071791 89.0797723846361 L 1085.7783119303115 89.0950954851005 L 1086.0140330254312 89.11148497578507 L 1086.249379785237 89.12893921775441 L 1086.4843286752487 89.14745646559885 L 1086.7188562007736 89.16703486760905 L 1086.9529389092543 89.18767246596111 L 1087.186553392615 89.20936719691241 L 1087.4196762896022 89.23211689100792 L 1087.6522842881202 89.2559192732972 L 1087.8843541275633 89.28077196356185 L 1088.1158626011409 89.30667247655354 L 1088.3467865581981 89.33361822224259 L 1088.5771029065324 89.36160650607685 L 1088.8067886147003 89.39063452925127 L 1089.0358207143227 89.42069938898774 L 1089.2641763023803 89.45179807882532 L 1089.4918325435049 89.48392748892095 L 1089.7187666722616 89.5170844063604 L 1089.944955995427 89.55126551547954 L 1090.1703778942572 89.58646739819596 L 1090.3950098267503 89.62268653435072 L 1090.6188293298999 89.65991930206037 L 1090.8418140219424 89.69816197807918 L 1091.0639416045944 89.73741073817143 L 1091.285189865283 89.7776616574938 L 1091.505536679366 89.8189107109879 L 1091.724960012346 89.86115377378276 L 1091.9434379220725 89.9043866216073 L 1092.1609485609363 89.94860493121277 L 1092.377470178055 89.99380428080505 L 1092.5929811214476 90.03998015048685 L 1092.8074598401988 90.0871279227097 L 1093.0208848866157 90.13524288273562 L 1093.2332349183716 90.18432021910876 L 1093.4444887006402 90.23435502413635 L 1093.6546251082195 90.28534229437957 L 1093.8636231276437 90.33727693115392 L 1094.0714618592847 90.39015374103897 L 1094.278120519443 90.44396743639781 L 1094.4835784424247 90.49871263590576 L 1094.6878150826087 90.55438386508847 L 1094.890810016501 90.6109755568694 L 1095.0925429447777 90.66848205212658 L 1095.2929936943137 90.72689760025837 L 1095.4921422202015 90.78621635975864 L 1095.689968607754 90.84643239880089 L 1095.8864530744977 90.90753969583137 L 1096.0815759721493 90.96953214017132 L 1096.275317788582 91.03240353262795 L 1096.4676591497755 91.09614758611443 L 1096.658580821754 91.1607579262785 L 1096.8480637125092 91.22622809214002 L 1097.03608887391 91.29255153673692 L 1097.222637503597 91.35972162778006 L 1097.4076909468629 91.42773164831627 L 1097.5912306985172 91.49657479740019 L 1097.7732384047379 91.56624419077427 L 1097.9536958649057 91.63673286155725 L 1098.1325850334256 91.70803376094076 L 1098.3098880215296 91.78013975889431 L 1098.4855870990662 91.85304364487818 L 1098.6596646962746 91.92673812856452 L 1098.8321034055398 92.00121584056639 L 1099.0028859831348 92.07646933317463 L 1099.1719953509441 92.15249108110271 L 1099.3394145981717 92.22927348223918 L 1099.5051269830326 92.3068088584079 L 1099.6691159344264 92.3850894561359 L 1099.8313650535943 92.4641074474286 L 1099.99185811576 92.54385493055275 L 1100.1505790717506 92.62432393082648 L 1100.3075120496032 92.70550640141681 L 1100.4626413561507 92.78739422414436 L 1100.6159514785913 92.86997921029509 L 1100.7674270860412 92.95325310143917 L 1100.9170530310653 93.03720757025692 L 1101.0648143511942 93.12183422137142 L 1101.2106962704186 93.20712459218805 L 1101.3546842006685 93.29307015374081 L 1101.4967637432705 93.3796623115452 L 1101.6369206903894 93.46689240645757 L 1101.7751410264466 93.55475171554113 L 1101.911410929524 93.64323145293818 L 1102.0457167727448 93.73232277074871 L 1102.1780451256366 93.8220167599152 L 1102.3083827554742 93.91230445111346 L 1102.4367166286036 94.00317681564962 L 1102.5630339117442 94.09462476636294 L 1102.687321973273 94.18663915853458 L 1102.8095683844874 94.27921079080198 L 1102.9297609208481 94.37233040607906 L 1103.0478875632016 94.46598869248189 L 1103.1639364989824 94.56017628425988 L 1103.2778961233932 94.65488376273235 L 1103.3897550405668 94.75010165723037 L 1103.4995020647048 94.84582044604385 L 1103.6071262211958 94.94203055737364 L 1103.7126167477143 95.03872237028881 L 1103.8159630952955 95.13588621568863 L 1103.9171549293903 95.23351237726953 L 1104.0161821309002 95.33159109249674 L 1104.1130347971873 95.43011255358043 L 1104.2077032430657 95.5290669084566 L 1104.3001780017696 95.62844426177223 L 1104.3904498259003 95.72823467587482 L 1104.4785096883506 95.82842817180608 L 1104.5643487832078 95.92901473029994 L 1104.6479585266336 96.02998429278436 L 1104.7293305577236 96.13132676238725 L 1104.8084567393425 96.23303200494607 L 1104.885329158938 96.33508985002135 L 1104.9599401293322 96.4374900919136 L 1105.0322821894902 96.54022249068399 L 1105.1023481052664 96.64327677317824 L 1105.1701308701274 96.746642634054 L 1105.2356237058534 96.85030973681128 L 1105.2988200632153 96.95426771482623 L 1105.35971362263 97.05850617238767 L 1105.4182982947923 97.1630146857367 L 1105.474568221284 97.26778280410907 L 1105.5285177751593 97.37280005078027 L 1105.5801415615074 97.47805592411314 L 1105.6294344179933 97.58353989860805 L 1105.6763914153717 97.68924142595546 L 1105.7210078579826 97.79514993609072 L 1105.7632792842187 97.90125483825108 L 1105.8032014669725 98.00754552203473 L 1105.840770414059 98.11401135846187 L 1105.8759823686153 98.22064170103758 L 1105.9088338094746 98.32742588681647 L 1105.9393214515203 98.43435323746894 L 1105.9674422460141 98.54141306034904 L 1105.9931933808996 98.64859464956368 L 1106.0165722810846 98.75588728704328 L 1106.037576608699 98.86328024361347 L 1106.0562042633271 98.97076278006811 L 1106.0724533822195 99.07832414824313 L 1106.0863223404774 99.18595359209134 L 1106.0978097512166 99.29364034875802 L 1106.1069144657058 99.40137364965727 L 1106.113635573481 99.50914272154878 L 1106.117972402437 99.61693678761516 L 1106.1199245188945 99.72474506853963 M 1106.1200455089506 134.0630134831 L 1106.118853049047 134.17082402801663 L 1106.115275788581 134.2786237919686 L 1106.1093140852754 134.38640199506935 L 1106.1009685352963 134.49414785958842 L 1106.090239973191 134.60185061102908 L 1106.0771294718072 134.70949947920602 L 1106.0616383421839 134.81708369932204 L 1106.0437681334213 134.92459251304487 L 1106.0235206325253 135.03201516958265 L 1106.000897864229 135.1393409267593 L 1105.9759020907907 135.24655905208851 L 1105.9485358117668 135.35365882384713 L 1105.918801763762 135.46062953214718 L 1105.886702920157 135.56746048000701 L 1105.8522424908087 135.67414098442086 L 1105.815423921732 135.78066037742718 L 1105.7762508947528 135.88700800717544 L 1105.734727327141 135.99317323899126 L 1105.690857371219 136.09914545643997 L 1105.6446454139457 136.2049140623881 L 1105.5960960764783 136.31046848006324 L 1105.5452142137103 136.41579815411154 L 1105.4920049137852 136.5208925516534 L 1105.436473497589 136.62574116333658 L 1105.3786255182172 136.7303335043874 L 1105.318466760419 136.8346591156588 L 1105.2560032400202 136.9387075646767 L 1105.1912412033212 137.0424684466828 L 1105.124187126471 137.14593138567542 L 1105.054847714822 137.24908603544688 L 1104.9832299022576 137.35192208061815 L 1104.909340850499 137.4544292376704 L 1104.8331879483897 137.5565972559734 L 1104.754778811157 137.6584159188104 L 1104.674121279649 137.7598750444 L 1104.5912234195514 137.86096448691416 L 1104.5060935205815 137.96167413749288 L 1104.4187400956582 138.06199392525505 L 1104.329171880051 138.1619138183055 L 1104.2373978305068 138.26142382473813 L 1104.1434271243545 138.3605139936353 L 1104.047269158586 138.4591744160626 L 1103.9489335489177 138.5573952260601 L 1103.848430128829 138.6551666016286 L 1103.7457689485777 138.75247876571203 L 1103.6409602741967 138.84932198717507 L 1103.534014586466 138.94568658177627 L 1103.424942579865 139.04156291313652 L 1103.3137551615037 139.1369413937025 L 1103.200463450031 139.2318124857057 L 1103.0850787745242 139.32616670211596 L 1102.967612673354 139.41999460759027 L 1102.8480768930333 139.51328681941624 L 1102.72648338704 139.60603400845048 L 1102.6028443146236 139.69822690005134 L 1102.4771720395881 139.7898562750065 L 1102.3494791290566 139.88091297045483 L 1102.2197783522138 139.97138788080267 L 1102.0880826790287 140.06127195863436 L 1101.9544052789595 140.15055621561703 L 1101.8187595196346 140.23923172339937 L 1101.6811589655167 140.3272896145045 L 1101.5416173765468 140.41472108321673 L 1101.4001487067676 140.501517386462 L 1101.2567671029278 140.58766984468238 L 1101.1114869030685 140.67316984270377 L 1100.9643226350888 140.75800883059765 L 1100.8152890152926 140.8421783245359 L 1100.6644009469178 140.9256699076393 L 1100.5116735186455 141.00847523081913 L 1100.357122003091 141.09058601361204 L 1100.2007618552775 141.17199404500818 L 1100.0426087110893 141.25269118427227 L 1099.8826783857091 141.3326693617576 L 1099.7209868720358 141.41192057971313 L 1099.5575503390864 141.49043691308304 L 1099.392385130378 141.56821051029945 L 1099.2255077622938 141.64523359406746 L 1099.0569349224313 141.72149846214288 L 1098.886683467934 141.79699748810242 L 1098.714770423806 141.87172312210643 L 1098.541212981208 141.94566789165378 L 1098.3660284957396 142.01882440232913 L 1098.1892344857035 142.0911853385424 L 1098.0108486303534 142.16274346426022 L 1097.8308887681262 142.2334916237297 L 1097.649372894858 142.3034227421938 L 1097.4663191619852 142.372529826599 L 1097.2817458747281 142.4408059662944 L 1097.095671490262 142.50824433372296 L 1096.90811461587 142.5748381851041 L 1096.7190940070834 142.64058086110825 L 1096.5286285658055 142.70546578752254 L 1096.3367373384217 142.7694864759084 L 1096.143439513895 142.83263652425032 L 1095.9487544218464 142.89490961759617 L 1095.7527015306232 142.95629952868842 L 1095.5553004453511 143.01680011858718 L 1095.356570905974 143.07640533728383 L 1095.1565327852802 143.13510922430623 L 1094.9552060869153 143.19290590931453 L 1094.7526109433811 143.24978961268846 L 1094.5487676140235 143.30575464610504 L 1094.343696483005 143.36079541310758 L 1094.1374180572684 143.41490640966524 L 1093.929952964484 143.46808222472345 L 1093.7213219509883 143.52031754074505 L 1093.5115458797088 143.57160713424193 L 1093.3006457280778 143.6219458762975 L 1093.0886425859348 143.67132873307952 L 1092.8755576534172 143.71975076634342 L 1092.6614122388407 143.76720713392626 L 1092.4462277565685 143.81369309023083 L 1092.2300257248694 143.8592039867002 L 1092.0128277637662 143.9037352722827 L 1091.794655592874 143.94728249388683 L 1091.5755310292286 143.98984129682677 L 1091.3554759851033 144.03140742525764 L 1091.1345124658192 144.07197672260128 L 1090.9126625675442 144.11154513196175 L 1090.6899484750832 144.15010869653108 L 1090.4663924596598 144.18766355998494 L 1090.2420168766891 144.2242059668683 L 1090.0168441635428 144.2597322629709 L 1089.7908968373044 144.29423889569279 L 1089.5641974925184 144.32772241439937 L 1089.3367687989298 144.36017947076672 L 1089.1086334992192 144.39160681911628 L 1088.8798144067257 144.42200131673934 L 1088.6503344031685 144.45135992421152 L 1088.4202164363564 144.4796797056965 L 1088.1894835178944 144.50695782923975 L 1087.958158720882 144.53319156705163 L 1087.7262651776061 144.55837829578024 L 1087.493826077228 144.5825154967737 L 1087.260864663464 144.60560075633202 L 1087.027404232261 144.62763176594848 L 1086.793468129468 144.64860632254045 L 1086.5590797485002 144.66852232866978 L 1086.3242625280002 144.68737779275247 L 1086.0890399494945 144.70517082925778 L 1085.8534355350448 144.72189965889692 L 1085.6174728448966 144.73756260880086 L 1085.3811754751218 144.75215811268765 L 1085.1445670552607 144.76568471101908 L 1084.9076712459582 144.77814105114655 L 1084.6705117365977 144.7895258874465 L 1084.4331122429326 144.7998380814447 L 1084.1954965047141 144.80907660193043 L 1083.9576882833185 144.8172405250593 L 1083.7197113593695 144.82432903444578 L 1083.4815895303611 144.83034142124487 L 1083.2433466082778 144.83527708422287 L 1083.0050064172135 144.83913552981764 L 1082.7665927909884 144.8419163721878 L 1082.5281295707669 144.84361933325144 L 1082.2896406026716 144.84424424271387 L 1082.0511497354012 144.84379103808467 L 1081.8126808178433 144.84225976468392 L 1081.5742576966911 144.83965057563768 L 1081.335904214058 144.8359637318627 L 1081.0976442050937 144.83119960204027 L 1080.8595014956004 144.82535866257942 L 1080.6214998996506 144.81844149756918 L 1080.3836632172058 144.81044879872033 L 1080.1460152317359 144.8013813652961 L 1079.9085797078415 144.79124010403225 L 1079.6713803888767 144.78002602904647 L 1079.4344409945763 144.7677402617369 L 1079.197785218682 144.75438403067005 L 1078.9614367265742 144.73995867145788 L 1078.7254191529053 144.72446562662432 L 1078.4897560992356 144.7079064454609 L 1078.2544711316746 144.69028278387196 L 1078.0195877785225 144.671596404209 L 1077.7851295279193 144.65184917509436 L 1077.5511198254942 144.6310430712345 L 1077.317582072023 144.6091801732225 L 1077.084539621086 144.58626266732998 L 1076.8520157767343 144.56229284528834 L 1076.6200337911584 144.53727310405984 L 1076.3886168623637 144.5112059455978 L 1076.1577881318503 144.48409397659628 L 1075.9275706822987 144.45593990822962 L 1075.6979875352622 144.4267465558812 L 1075.469061648864 144.3965168388619 L 1075.240815915502 144.36525378011828 L 1075.0132731595593 144.3329605059301 L 1074.786456135122 144.2996402455979 L 1074.5603875237034 144.26529633111994 L 1074.3350899319764 144.22993219685907 L 1074.1105858895125 144.19355137919922 L 1073.8868978465287 144.15615751619185 L 1073.6640481716427 144.1177543471921 L 1073.4420591496366 144.07834571248486 L 1073.2209529792274 144.03793555290076 L 1073.0007517708482 143.9965279094221 L 1072.7814775444358 143.9541269227787 L 1072.5631522272306 143.9107368330339 L 1072.3457976515824 143.8663619791605 L 1072.1294355527673 143.82100679860693 L 1071.914087566815 143.77467582685347 L 1071.6997752283446 143.72737369695864 L 1071.4865199684116 143.679105139096 L 1071.274343112364 143.62987498008118 L 1071.0632658777108 143.579688142889 L 1070.8533093719996 143.52854964616142 L 1070.6444945907056 143.4764646037054 L 1070.4368424151332 143.4234382239819 L 1070.230373610327 143.36947580958457 L 1070.0251088229954 143.31458275671 L 1069.8210685794459 143.25876455461767 L 1069.618273283533 143.20202678508127 L 1069.4167432146173 143.1443751218305 L 1069.2164985255374 143.08581532998366 L 1069.017559240596 143.02635326547107 L 1068.8199452535553 142.9659948744497 L 1068.6236763256493 142.9047461927083 L 1068.4287720836076 142.84261334506402 L 1068.2352520176914 142.77960254474988 L 1068.0431354797468 142.71572009279336 L 1067.852441681267 142.65097237738644 L 1067.663189691473 142.5853658732467 L 1067.475398435406 142.51890714096987 L 1067.2890866920354 142.4516028263738 L 1067.10427309238 142.3834596598339 L 1066.920976117646 142.31448445561 L 1066.7392140973777 142.24468411116504 L 1066.5590052076261 142.17406560647532 L 1066.3803674691299 142.10263600333244 L 1066.203318745514 142.03040244463722 L 1066.0278767415032 141.9573721536853 L 1065.8540590011517 141.88355243344492 L 1065.6818829060887 141.80895066582661 L 1065.5113656737806 141.73357431094496 L 1065.3425243558079 141.65743090637264 L 1065.175375836162 141.58052806638665 L 1065.0099368295555 141.5028734812069 L 1064.8462238797515 141.42447491622718 L 1064.6842533579081 141.34534021123872 L 1064.5240414609427 141.265477279646 L 1064.3656042099117 141.1848941076757 L 1064.208957448408 141.10359875357778 L 1064.054116840977 141.02159934681995 L 1063.9010978715507 140.93890408727458 L 1063.7499158418984 140.85552124439866 L 1063.6005858700971 140.77145915640702 L 1063.4531228890196 140.68672622943842 L 1063.3075416448412 140.6013309367149 L 1063.1638566955646 140.5152818176946 L 1063.0220824095654 140.42858747721772 L 1062.882232964154 140.34125658464606 L 1062.7443223441583 140.2532978729961 L 1062.6083643405252 140.1647201380657 L 1062.4743725489423 140.07553223755454 L 1062.3423603684764 139.98574309017835 L 1062.2123410002362 139.89536167477704 L 1062.0843274460497 139.80439702941683 L 1061.9583325071658 139.71285825048648 L 1061.8343687829733 139.62075449178758 L 1061.7124486697417 139.52809496361922 L 1061.5925843593802 139.43488893185705 L 1061.4747878382202 139.34114571702654 L 1061.3590708858158 139.24687469337107 L 1061.2454450737657 139.15208528791445 L 1061.1339217645561 139.05678697951822 L 1061.0245121104256 138.96098929793382 L 1060.9172270522479 138.86470182284955 L 1060.8120773184396 138.76793418293272 L 1060.7090734238866 138.67069605486665 L 1060.6082256688924 138.57299716238313 L 1060.5095441381482 138.47484727529 L 1060.4130386997253 138.37625620849414 L 1060.3187190040867 138.27723382102013 L 1060.2265944831238 138.17779001502413 L 1060.1366743492117 138.07793473480393 L 1060.0489675942886 137.9776779658043 L 1059.9634829889574 137.87702973361863 L 1059.880229081607 137.77600010298625 L 1059.7992141975592 137.67459917678602 L 1059.7204464382344 137.57283709502605 L 1059.643933680343 137.47072403382973 L 1059.5696835750973 137.3682702044181 L 1059.4977035474456 137.26548585208872 L 1059.428000795331 137.16238125519112 L 1059.3605822889704 137.05896672409915 L 1059.2954547701584 136.95525260017968 L 1059.2326247515925 136.8512492547587 L 1059.1720985162224 136.74696708808406 L 1059.113882116621 136.64241652828557 L 1059.0579813743796 136.53760803033202 L 1059.004401879526 136.43255207498592 L 1058.9531489899655 136.32725916775524 L 1058.9042278309435 136.22173983784296 L 1058.8576432945358 136.11600463709416 L 1058.8134000391567 136.01006413894075 L 1058.7715024890954 135.90392893734432 L 1058.7319548340715 135.79760964573654 L 1058.694761028818 135.69111689595798 L 1058.659924792684 135.5844613371949 L 1058.6274496092644 135.47765363491428 L 1058.5973387260503 135.37070446979732 L 1058.5695951541052 135.26362453667144 L 1058.5442216677627 135.15642454344072 L 1058.5212208043508 135.04911521001512 L 1058.5005948639364 134.9417072672386 L 1058.4823459090962 134.83421145581588 L 1058.4664757647108 134.72663852523857 L 1058.4529860177813 134.61899923271008 L 1058.4418780172712 134.5113043420699 L 1058.433152873971 134.40356462271745 L 1058.426811460388 134.2957908485348 L 1058.4228544106584 134.1879937968096 L 1058.4212821204837 134.08018424715718" stroke-miterlimit="10" stroke-width="2.7769845610000004" stroke-dasharray=""/></g><g><g/><text fill="black" stroke="none" font-family="sans-serif" font-size="11pt" font-style="normal" font-weight="normal" text-decoration="normal" x="1041.9270665376303" y="162.371920802" text-anchor="start" dominant-baseline="alphabetic" xml:space="preserve">SpDatabase</text></g></g><g><path fill="white" stroke="black" paint-order="fill stroke markers" d=" M 55.429564540625 175.440083442 L 71.764767840625 175.440083442 L 71.764767840625 786.3766868619998 L 55.429564540625 786.3766868619998 L 55.429564540625 175.440083442" stroke-miterlimit="10" stroke-width="1.3612669416666667" stroke-dasharray=""/><path fill="white" stroke="black" paint-order="fill stroke markers" d=" M 325.57567707395833 221.178652682 L 341.9108803739583 221.178652682 L 341.9108803739583 312.655791162 L 325.57567707395833 312.655791162 L 325.57567707395833 221.178652682" stroke-miterlimit="10" stroke-width="1.3612669416666667" stroke-dasharray=""/><path fill="white" stroke="black" paint-order="fill stroke markers" d=" M 472.6868613500651 266.917221922 L 489.0220646500651 266.917221922 L 489.0220646500651 539.715117032 L 472.6868613500651 539.715117032 L 472.6868613500651 266.917221922" stroke-miterlimit="10" stroke-width="1.3612669416666667" stroke-dasharray=""/><path fill="white" stroke="black" paint-order="fill stroke markers" d=" M 795.7821917443359 358.394360402 L 812.117395044336 358.394360402 L 812.117395044336 539.715117032 L 795.7821917443359 539.715117032 L 795.7821917443359 358.394360402" stroke-miterlimit="10" stroke-width="1.3612669416666667" stroke-dasharray=""/><path fill="white" stroke="black" paint-order="fill stroke markers" d=" M 1074.1030470409505 448.237978552 L 1090.4382503409506 448.237978552 L 1090.4382503409506 493.976547792 L 1074.1030470409505 493.976547792 L 1074.1030470409505 448.237978552" stroke-miterlimit="10" stroke-width="1.3612669416666667" stroke-dasharray=""/><path fill="white" stroke="black" paint-order="fill stroke markers" d=" M 795.7821917443359 583.8201659419999 L 812.117395044336 583.8201659419999 L 812.117395044336 721.0358736619997 L 795.7821917443359 721.0358736619997 L 795.7821917443359 583.8201659419999" stroke-miterlimit="10" stroke-width="1.3612669416666667" stroke-dasharray=""/><path fill="white" stroke="black" paint-order="fill stroke markers" d=" M 472.6868613500651 583.8201659419999 L 489.0220646500651 583.8201659419999 L 489.0220646500651 721.0358736619997 L 472.6868613500651 721.0358736619997 L 472.6868613500651 583.8201659419999" stroke-miterlimit="10" stroke-width="1.3612669416666667" stroke-dasharray=""/><path fill="white" stroke="black" paint-order="fill stroke markers" d=" M 1074.1030470409505 629.5587351819999 L 1090.4382503409506 629.5587351819999 L 1090.4382503409506 675.2973044219998 L 1074.1030470409505 675.2973044219998 L 1074.1030470409505 629.5587351819999" stroke-miterlimit="10" stroke-width="1.3612669416666667" stroke-dasharray=""/><g><text fill="black" stroke="none" font-family="sans-serif" font-size="11pt" font-style="normal" font-weight="normal" text-decoration="normal" x="120.4311630090495" y="214.644571362" text-anchor="start" dominant-baseline="alphabetic" xml:space="preserve">Channel renamed event</text></g><g><path fill="none" stroke="black" paint-order="fill stroke markers" d=" M 71.764767840625 221.178652682 L 322.853143190625 221.178652682" stroke-miterlimit="10" stroke-width="1.3612669416666667" stroke-dasharray=""/><g transform="translate(325.57567707395833,221.178652682) translate(-325.57567707395833,-221.178652682)"><path fill="none" stroke="black" paint-order="fill stroke markers" d=" M 311.96300765729166 214.37231797366667 L 324.2144101322917 221.178652682 L 311.96300765729166 227.98498739033334" stroke-miterlimit="10" stroke-width="1.3612669416666667"/></g></g><g><text fill="black" stroke="none" font-family="sans-serif" font-size="11pt" font-style="normal" font-weight="normal" text-decoration="normal" x="363.691151440625" y="260.383140602" text-anchor="start" dominant-baseline="alphabetic" xml:space="preserve">Channel data</text></g><g><path fill="none" stroke="black" paint-order="fill stroke markers" d=" M 341.9108803739583 266.917221922 L 469.9643274667318 266.917221922" stroke-miterlimit="10" stroke-width="1.3612669416666667" stroke-dasharray=""/><g transform="translate(472.6868613500651,266.917221922) translate(-472.6868613500651,-266.917221922)"><path fill="none" stroke="black" paint-order="fill stroke markers" d=" M 459.0741919333984 260.1108872136667 L 471.32559440839844 266.917221922 L 459.0741919333984 273.72355663033335" stroke-miterlimit="10" stroke-width="1.3612669416666667"/></g></g><g><text fill="black" stroke="none" font-family="sans-serif" font-size="11pt" font-style="normal" font-weight="normal" text-decoration="normal" x="150.18420713746747" y="306.121709842" text-anchor="start" dominant-baseline="alphabetic" xml:space="preserve">Event received</text></g><g><path fill="none" stroke="black" paint-order="fill stroke markers" d=" M 325.57567707395833 312.655791162 L 74.48730172395832 312.655791162" stroke-miterlimit="10" stroke-width="1.3612669416666667" stroke-dasharray="6.53408132"/><g transform="translate(71.764767840625,312.655791162) translate(-71.764767840625,-312.655791162)"><path fill="none" stroke="black" paint-order="fill stroke markers" d=" M 85.37743725729167 305.8494564536667 L 73.12603478229167 312.655791162 L 85.37743725729167 319.46212587033335" stroke-miterlimit="10" stroke-width="1.3612669416666667"/></g></g><g><text fill="black" stroke="none" font-family="sans-serif" font-size="11pt" font-style="normal" font-weight="normal" text-decoration="normal" x="510.8023357167317" y="351.860279082" text-anchor="start" dominant-baseline="alphabetic" xml:space="preserve">Update channel by ID (check if in cache)</text></g><g><path fill="none" stroke="black" paint-order="fill stroke markers" d=" M 489.0220646500651 358.394360402 L 793.0596578610026 358.394360402" stroke-miterlimit="10" stroke-width="1.3612669416666667" stroke-dasharray=""/><g transform="translate(795.7821917443359,358.394360402) translate(-795.7821917443359,-358.394360402)"><path fill="black" stroke="none" paint-order="stroke fill markers" d=" M 782.1695223276693 351.5880256936667 L 795.7821917443359 358.394360402 L 782.1695223276693 365.20069511033336 Z"/></g></g><g><text fill="black" stroke="none" font-family="sans-serif" font-size="11pt" font-style="normal" font-weight="normal" text-decoration="normal" x="891.77165140153" y="441.703897232" text-anchor="start" dominant-baseline="alphabetic" xml:space="preserve">Forward update</text></g><g><path fill="none" stroke="black" paint-order="fill stroke markers" d=" M 812.117395044336 448.237978552 L 1071.380513157617 448.237978552" stroke-miterlimit="10" stroke-width="1.3612669416666667" stroke-dasharray=""/><g transform="translate(1074.1030470409505,448.237978552) translate(-1074.1030470409505,-448.237978552)"><path fill="black" stroke="none" paint-order="stroke fill markers" d=" M 1060.4903776242838 441.4316438436667 L 1074.1030470409505 448.237978552 L 1060.4903776242838 455.04431326033335 Z"/></g></g><g><text fill="black" stroke="none" font-family="sans-serif" font-size="11pt" font-style="normal" font-weight="normal" text-decoration="normal" x="876.7000800514323" y="487.442466472" text-anchor="start" dominant-baseline="alphabetic" xml:space="preserve">Return conformation</text></g><g><path fill="none" stroke="black" paint-order="fill stroke markers" d=" M 1074.1030470409505 493.976547792 L 814.8399289276693 493.976547792" stroke-miterlimit="10" stroke-width="1.3612669416666667" stroke-dasharray="6.53408132"/><g transform="translate(812.117395044336,493.976547792) translate(-812.117395044336,-493.976547792)"><path fill="black" stroke="none" paint-order="stroke fill markers" d=" M 825.7300644610027 487.1702130836667 L 812.117395044336 493.976547792 L 825.7300644610027 500.78288250033336 Z"/></g></g><g><text fill="black" stroke="none" font-family="sans-serif" font-size="11pt" font-style="normal" font-weight="normal" text-decoration="normal" x="575.9919872059895" y="533.1810357119999" text-anchor="start" dominant-baseline="alphabetic" xml:space="preserve">Return conformation</text></g><g><path fill="none" stroke="black" paint-order="fill stroke markers" d=" M 795.7821917443359 539.715117032 L 491.7445985333984 539.715117032" stroke-miterlimit="10" stroke-width="1.3612669416666667" stroke-dasharray="6.53408132"/><g transform="translate(489.0220646500651,539.715117032) translate(-489.0220646500651,-539.715117032)"><path fill="black" stroke="none" paint-order="stroke fill markers" d=" M 502.63473406673177 532.9087823236666 L 489.0220646500651 539.715117032 L 502.63473406673177 546.5214517403333 Z"/></g></g><g><text fill="black" stroke="none" font-family="sans-serif" font-size="11pt" font-style="normal" font-weight="normal" text-decoration="normal" x="893.3965674781901" y="623.0246538619998" text-anchor="start" dominant-baseline="alphabetic" xml:space="preserve">Create channel</text></g><g><path fill="none" stroke="black" paint-order="fill stroke markers" d=" M 812.117395044336 629.5587351819999 L 1071.380513157617 629.5587351819999" stroke-miterlimit="10" stroke-width="1.3612669416666667" stroke-dasharray=""/><g transform="translate(1074.1030470409505,629.5587351819999) translate(-1074.1030470409505,-629.5587351819999)"><path fill="black" stroke="none" paint-order="stroke fill markers" d=" M 1060.4903776242838 622.7524004736665 L 1074.1030470409505 629.5587351819999 L 1060.4903776242838 636.3650698903332 Z"/></g></g><g><text fill="black" stroke="none" font-family="sans-serif" font-size="11pt" font-style="normal" font-weight="normal" text-decoration="normal" x="833.8976661110026" y="668.7632231019998" text-anchor="start" dominant-baseline="alphabetic" xml:space="preserve">Return channel and load in cache</text></g><g><path fill="none" stroke="black" paint-order="fill stroke markers" d=" M 1074.1030470409505 675.2973044219998 L 814.8399289276693 675.2973044219998" stroke-miterlimit="10" stroke-width="1.3612669416666667" stroke-dasharray="6.53408132"/><g transform="translate(812.117395044336,675.2973044219998) translate(-812.117395044336,-675.2973044219998)"><path fill="black" stroke="none" paint-order="stroke fill markers" d=" M 825.7300644610027 668.4909697136665 L 812.117395044336 675.2973044219998 L 825.7300644610027 682.1036391303331 Z"/></g></g><g><text fill="black" stroke="none" font-family="sans-serif" font-size="11pt" font-style="normal" font-weight="normal" text-decoration="normal" x="575.9919872059895" y="714.5017923419997" text-anchor="start" dominant-baseline="alphabetic" xml:space="preserve">Return conformation</text></g><g><path fill="none" stroke="black" paint-order="fill stroke markers" d=" M 795.7821917443359 721.0358736619997 L 491.7445985333984 721.0358736619997" stroke-miterlimit="10" stroke-width="1.3612669416666667" stroke-dasharray="6.53408132"/><g transform="translate(489.0220646500651,721.0358736619997) translate(-489.0220646500651,-721.0358736619997)"><path fill="black" stroke="none" paint-order="stroke fill markers" d=" M 502.63473406673177 714.2295389536664 L 489.0220646500651 721.0358736619997 L 502.63473406673177 727.8422083703331 Z"/></g></g><g><g/><path fill="none" stroke="black" paint-order="fill stroke markers" d=" M 415.5136498000651 382.897165352 L 1139.4438602409505 382.897165352 L 1139.4438602409505 745.5386786119998 L 415.5136498000651 745.5386786119998 L 415.5136498000651 382.897165352 Z" stroke-miterlimit="10" stroke-width="2.3336004714285714" stroke-dasharray=""/><path fill="white" stroke="black" paint-order="fill stroke markers" d=" M 415.5136498000651 382.897165352 L 415.5136498000651 402.499409312 L 461.8728533971354 402.499409312 L 471.6739753771354 392.698287332 L 471.6739753771354 382.897165352 L 415.5136498000651 382.897165352" stroke-miterlimit="10" stroke-width="2.3336004714285714" stroke-dasharray=""/><text fill="black" stroke="none" font-family="sans-serif" font-size="8.8pt" font-style="normal" font-weight="bold" text-decoration="normal" x="431.84885310006507" y="395.965327992" text-anchor="start" dominant-baseline="alphabetic" xml:space="preserve">alt</text><text fill="black" stroke="none" font-family="sans-serif" font-size="8.8pt" font-style="normal" font-weight="bold" text-decoration="normal" x="488.00917867713537" y="395.965327992" text-anchor="start" dominant-baseline="alphabetic" xml:space="preserve">[Channel exist]</text><g><path fill="none" stroke="black" paint-order="fill stroke markers" d=" M 415.5136498000651 564.2179219819999 L 1139.4438602409505 564.2179219819999" stroke-miterlimit="10" stroke-width="2.3336004714285714" stroke-dasharray="4.083800825"/></g><g/><text fill="black" stroke="none" font-family="sans-serif" font-size="8.8pt" font-style="normal" font-weight="bold" text-decoration="normal" x="488.00917867713537" y="577.2860846219999" text-anchor="start" dominant-baseline="alphabetic" xml:space="preserve">[Channel not exist]</text></g><g/></g><g/><g/><g/><g/><g/></g></svg>