<svg version="1.1" xmlns="http://www.w3.org/2000/svg" xmlns:xlink="http://www.w3.org/1999/xlink" width="1090" height="802"><defs/><g><g/><g/><g/><g/><g/><g/><g/><g/><g/><g/><g/><g/><g><rect fill="white" stroke="none" x="0" y="0" width="1090" height="802"/></g><g><text fill="black" stroke="none" font-family="sans-serif" font-size="16.5pt" font-style="normal" font-weight="normal" text-decoration="normal" x="453.96661065436206" y="24.50280495" text-anchor="start" dominant-baseline="alphabetic" xml:space="preserve">Change User Data</text></g><g><g><path fill="#9F5F9F" stroke="black" paint-order="fill stroke markers" d=" M 8.167601650000003 58.5617038305 L 119.02673073125 58.5617038305 L 119.02673073125 768.4079632319998 L 8.167601650000003 768.4079632319998 L 8.167601650000003 58.5617038305" stroke-miterlimit="10" stroke-width="1.3612669416666667" stroke-dasharray=""/></g><g><text fill="black" stroke="none" font-family="sans-serif" font-size="11pt" font-style="normal" font-weight="bold" text-decoration="normal" x="44.441839347363285" y="81.43098845050001" text-anchor="start" dominant-baseline="alphabetic" xml:space="preserve">Slack</text></g><g><path fill="none" stroke="black" paint-order="fill stroke markers" d=" M 262.8197871813802 50.394102180500006 L 1048.8097713370444 50.394102180500006 L 1048.8097713370444 768.4079632319998 L 262.8197871813802 768.4079632319998 L 262.8197871813802 50.394102180500006" stroke-miterlimit="10" stroke-width="1.3612669416666667" stroke-dasharray=""/></g><g><text fill="black" stroke="none" font-family="sans-serif" font-size="11pt" font-style="normal" font-weight="bold" text-decoration="normal" x="574.7267513051107" y="73.2633868005" text-anchor="start" dominant-baseline="alphabetic" xml:space="preserve">Service Provider Slack </text></g></g><g><path fill="none" stroke="black" paint-order="fill stroke markers" d=" M 63.597166190625 167.272481792 L 63.597166190625 802.7118901619998" stroke-miterlimit="10" stroke-width="1.3612669416666667" stroke-dasharray="12.565541,5.445067766666667"/><path fill="none" stroke="black" paint-order="fill stroke markers" d=" M 321.0983202278646 167.272481792 L 321.0983202278646 802.7118901619998" stroke-miterlimit="10" stroke-width="1.3612669416666667" stroke-dasharray="12.565541,5.445067766666667"/><path fill="none" stroke="black" paint-order="fill stroke markers" d=" M 444.55166758990885 167.272481792 L 444.55166758990885 802.7118901619998" stroke-miterlimit="10" stroke-width="1.3612669416666667" stroke-dasharray="12.565541,5.445067766666667"/><path fill="none" stroke="black" paint-order="fill stroke markers" d=" M 744.8123727400391 167.272481792 L 744.8123727400391 802.7118901619998" stroke-miterlimit="10" stroke-width="1.3612669416666667" stroke-dasharray="12.565541,5.445067766666667"/><path fill="none" stroke="black" paint-order="fill stroke markers" d=" M 1000.298587533724 167.272481792 L 1000.298587533724 802.7118901619998" stroke-miterlimit="10" stroke-width="1.3612669416666667" stroke-dasharray="12.565541,5.445067766666667"/></g><g><g><path fill="white" stroke="black" paint-order="fill stroke markers" d=" M 96.022544741125 120.39044832100001 A 24.2577769005 24.2577769005 0 1 1 96.02253261223755 120.36619054814246 M 32.560279920625 94.74417914 L 32.560279920625 146.03671750200002 M 31.171787640124997 120.39044832100001 L 47.506990940125 120.39044832100001" stroke-miterlimit="10" stroke-width="2.7769845610000004" stroke-dasharray=""/></g><g><g/><text fill="black" stroke="none" font-family="sans-serif" font-size="11pt" font-style="normal" font-weight="normal" text-decoration="normal" x="16.335203300000003" y="162.371920802" text-anchor="start" dominant-baseline="alphabetic" xml:space="preserve">SlackEventApi</text></g><g><path fill="white" stroke="black" paint-order="fill stroke markers" d=" M 353.5236987783646 120.39044832100001 A 24.2577769005 24.2577769005 0 1 1 353.52368664947716 120.36619054814246 M 290.06143395786455 94.74417914 L 290.06143395786455 146.03671750200002 M 288.6729416773646 120.39044832100001 L 305.00814497736457 120.39044832100001" stroke-miterlimit="10" stroke-width="2.7769845610000004" stroke-dasharray=""/></g><g><g/><text fill="black" stroke="none" font-family="sans-serif" font-size="11pt" font-style="normal" font-weight="normal" text-decoration="normal" x="270.9873888313802" y="162.371920802" text-anchor="start" dominant-baseline="alphabetic" xml:space="preserve">SpUserHandler</text></g><g><path fill="white" stroke="black" paint-order="fill stroke markers" d=" M 468.80944449040885 120.39044832100001 A 24.2577769005 24.2577769005 0 1 1 468.80943236152143 120.36619054814246 M 441.2846269299088 96.1326714205 L 451.08574890990883 87.96506977050001 M 441.2846269299088 96.1326714205 L 451.08574890990883 104.3002730705" stroke-miterlimit="10" stroke-width="2.7769845610000004" stroke-dasharray=""/></g><g><g/><text fill="black" stroke="none" font-family="sans-serif" font-size="11pt" font-style="normal" font-weight="normal" text-decoration="normal" x="395.6683744380534" y="162.371920802" text-anchor="start" dominant-baseline="alphabetic" xml:space="preserve">SpUserService</text></g><g><path fill="white" stroke="black" paint-order="fill stroke markers" d=" M 769.0701496405391 118.16886067220001 A 24.2577769005 24.2577769005 0 1 1 769.0701375116516 118.14460289934246 M 719.1661035590391 144.6482252215 L 767.681657360039 144.6482252215" stroke-miterlimit="10" stroke-width="2.7769845610000004" stroke-dasharray=""/></g><g><g/><text fill="black" stroke="none" font-family="sans-serif" font-size="11pt" font-style="normal" font-weight="normal" text-decoration="normal" x="714.6584802229493" y="162.371920802" text-anchor="start" dominant-baseline="alphabetic" xml:space="preserve">SpCache</text></g><g><path fill="white" stroke="black" paint-order="fill stroke markers" d=" M 976.4491907157241 135.255483324 L 976.4491907157241 100.95155639400002 L 1024.147984351724 100.95155639400002 L 1024.147984351724 135.255483324" stroke-miterlimit="10" stroke-width="2.7769845610000004" stroke-dasharray=""/><path fill="white" stroke="black" paint-order="fill stroke markers" d=" M 1024.147984351724 99.75908655310002 L 1024.1467918918204 99.86689709801664 L 1024.1432146313543 99.97469686196861 L 1024.1372529280488 100.08247506506937 L 1024.1289073780697 100.19022092958842 L 1024.1181788159645 100.2979236810291 L 1024.1050683145806 100.40557254920603 L 1024.0895771849573 100.51315676932207 L 1024.0717069761947 100.62066558304487 L 1024.0514594752988 100.72808823958268 L 1024.0288367070025 100.83541399675931 L 1024.003840933564 100.94263212208854 L 1023.9764746545401 101.04973189384714 L 1023.9467406065355 101.1567026021472 L 1023.9146417629304 101.26353355000704 L 1023.8801813335823 101.37021405442088 L 1023.8433627645055 101.4767334474272 L 1023.8041897375261 101.58308107717545 L 1023.7626661699144 101.68924630899127 L 1023.7187962139924 101.79521852643998 L 1023.672584256719 101.90098713238812 L 1023.6240349192517 102.00654155006325 L 1023.5731530564836 102.11187122411154 L 1023.5199437565587 102.21696562165339 L 1023.4644123403625 102.32181423333661 L 1023.4065643609905 102.4264065743874 L 1023.3464056031924 102.53073218565882 L 1023.2839420827937 102.63478063467669 L 1023.2191800460945 102.7385415166828 L 1023.1521259692445 102.84200445567542 L 1023.0827865575956 102.94515910544688 L 1023.0111687450309 103.04799515061815 L 1022.9372796932722 103.15050230767042 L 1022.8611267911632 103.2526703259734 L 1022.7827176539304 103.3544889888104 L 1022.7020601224223 103.4559481144 L 1022.6191622623248 103.55703755691417 L 1022.534032363355 103.6577472074929 L 1022.4466789384315 103.75806699525508 L 1022.3571107228244 103.8579868883055 L 1022.2653366732803 103.95749689473814 L 1022.1713659671279 104.05658706363529 L 1022.0752080013593 104.15524748606262 L 1021.9768723916912 104.25346829606012 L 1021.8763689716025 104.35123967162862 L 1021.7737077913513 104.44855183571204 L 1021.6688991169702 104.54539505717509 L 1021.5619534292393 104.6417596517763 L 1021.4528814226384 104.73763598313651 L 1021.3416940042771 104.83301446370251 L 1021.2284022928045 104.92788555570571 L 1021.1130176172976 105.02223977211597 L 1020.9955515161275 105.11606767759027 L 1020.8760157358066 105.20935988941625 L 1020.7544222298134 105.30210707845049 L 1020.630783157397 105.39429997005135 L 1020.5051108823616 105.48592934500653 L 1020.3774179718301 105.57698604045486 L 1020.2477171949871 105.66746095080268 L 1020.1160215218022 105.75734502863436 L 1019.9823441217329 105.84662928561703 L 1019.846698362408 105.93530479339938 L 1019.7090978082902 106.02336268450453 L 1019.5695562193202 106.11079415321676 L 1019.4280875495409 106.19759045646204 L 1019.2847059457011 106.28374291468239 L 1019.139425745842 106.36924291270377 L 1018.9922614778621 106.45408190059764 L 1018.843227858066 106.5382513945359 L 1018.6923397896911 106.62174297763931 L 1018.5396123614188 106.70454830081913 L 1018.3850608458646 106.78665908361204 L 1018.2287006980511 106.86806711500819 L 1018.0705475538628 106.94876425427228 L 1017.9106172284825 107.02874243175762 L 1017.7489257148093 107.10799364971314 L 1017.58548918186 107.18650998308306 L 1017.4203239731514 107.26428358029946 L 1017.2534466050671 107.34130666406747 L 1017.0848737652046 107.41757153214289 L 1016.9146223107075 107.49307055810243 L 1016.7427092665794 107.56779619210644 L 1016.5691518239813 107.6417409616538 L 1016.393967338513 107.71489747232916 L 1016.217173328477 107.7872584085424 L 1016.038787473127 107.85881653426023 L 1015.8588276108997 107.9295646937297 L 1015.6773117376316 107.9994958121938 L 1015.4942580047586 108.06860289659899 L 1015.3096847175017 108.1368790362944 L 1015.1236103330355 108.20431740372297 L 1014.9360534586435 108.27091125510412 L 1014.7470328498569 108.33665393110826 L 1014.556567408579 108.40153885752254 L 1014.3646761811951 108.46555954590839 L 1014.1713783566684 108.52870959425034 L 1013.9766932646198 108.59098268759617 L 1013.7806403733966 108.65237259868843 L 1013.5832392881244 108.71287318858718 L 1013.3845097487474 108.77247840728386 L 1013.1844716280536 108.83118229430623 L 1012.9831449296887 108.88897897931456 L 1012.7805497861547 108.94586268268847 L 1012.5767064567968 109.00182771610504 L 1012.3716353257786 109.05686848310758 L 1012.1653569000418 109.11097947966525 L 1011.9578918072575 109.16415529472346 L 1011.7492607937618 109.21639061074505 L 1011.5394847224824 109.26768020424194 L 1011.3285845708514 109.31801894629751 L 1011.1165814287083 109.36740180307952 L 1010.9034964961907 109.41582383634344 L 1010.6893510816143 109.46328020392627 L 1010.474166599342 109.50976616023082 L 1010.2579645676427 109.55527705670022 L 1010.0407666065396 109.5998083422827 L 1009.8225944356476 109.64335556388684 L 1009.603469872002 109.68591436682678 L 1009.3834148278767 109.72748049525767 L 1009.1624513085926 109.7680497926013 L 1008.9406014103176 109.80761820196176 L 1008.7178873178566 109.84618176653109 L 1008.4943313024331 109.88373662998495 L 1008.2699557194627 109.92027903686831 L 1008.0447830063164 109.95580533297093 L 1007.818835680078 109.99031196569278 L 1007.5921363352918 110.02379548439939 L 1007.3647076417034 110.05625254076675 L 1007.1365723419925 110.08767988911629 L 1006.9077532494993 110.11807438673935 L 1006.6782732459419 110.14743299421153 L 1006.4481552791299 110.17575277569651 L 1006.2174223606678 110.20303089923975 L 1005.9860975636554 110.22926463705164 L 1005.7542040203796 110.25445136578027 L 1005.5217649200015 110.27858856677372 L 1005.2888035062374 110.30167382633203 L 1005.0553430750344 110.32370483594849 L 1004.8214069722414 110.34467939254047 L 1004.5870185912735 110.3645953986698 L 1004.3522013707735 110.38345086275248 L 1004.1169787922679 110.40124389925779 L 1003.8813743778182 110.41797272889693 L 1003.6454116876699 110.43363567880087 L 1003.4091143178953 110.44823118268765 L 1003.1725058980343 110.46175778101907 L 1002.9356100887317 110.47421412114657 L 1002.6984505793712 110.4855989574465 L 1002.461051085706 110.49591115144473 L 1002.2234353474876 110.50514967193044 L 1001.9856271260919 110.5133135950593 L 1001.7476502021428 110.5204021044458 L 1001.5095283731345 110.52641449124488 L 1001.2712854510513 110.53135015422289 L 1001.032945259987 110.53520859981765 L 1000.794531633762 110.53798944218781 L 1000.5560684135402 110.53969240325145 L 1000.3175794454451 110.54031731271388 L 1000.0790885781745 110.53986410808467 L 999.8406196606167 110.53833283468393 L 999.6021965394644 110.5357236456377 L 999.3638430568315 110.53203680186272 L 999.125583047867 110.52727267204028 L 998.8874403383738 110.52143173257942 L 998.6494387424242 110.5145145675692 L 998.4116020599794 110.50652186872036 L 998.1739540745094 110.4974544352961 L 997.9365185506149 110.48731317403227 L 997.6993192316502 110.47609909904648 L 997.4623798373498 110.46381333173692 L 997.2257240614555 110.45045710067006 L 996.9893755693477 110.4360317414579 L 996.7533579956786 110.42053869662433 L 996.517694942009 110.40397951546092 L 996.2824099744479 110.38635585387198 L 996.0475266212959 110.367669474209 L 995.8130683706926 110.34792224509437 L 995.5790586682677 110.32711614123453 L 995.3455209147963 110.30525324322254 L 995.1124784638595 110.28233573732997 L 994.8799546195078 110.25836591528834 L 994.6479726339319 110.23334617405986 L 994.4165557051373 110.2072790155978 L 994.1857269746238 110.18016704659628 L 993.9555095250722 110.15201297822964 L 993.7259263780356 110.1228196258812 L 993.4970004916373 110.09258990886192 L 993.2687547582753 110.06132685011828 L 993.0412120023327 110.0290335759301 L 992.8143949778954 109.99571331559791 L 992.588326366477 109.96136940111997 L 992.36302877475 109.9260052668591 L 992.1385247322859 109.88962444919923 L 991.914836689302 109.85223058619187 L 991.6919870144161 109.81382741719212 L 991.46999799241 109.77441878248487 L 991.2488918220009 109.73400862290077 L 991.0286906136215 109.6926009794221 L 990.8094163872094 109.6501999927787 L 990.5910910700042 109.60680990303389 L 990.3737364943557 109.56243504916051 L 990.1573743955407 109.51707986860694 L 989.9420264095884 109.47074889685346 L 989.7277140711182 109.42344676695863 L 989.514458811185 109.37517820909602 L 989.3022819551376 109.3259480500812 L 989.0912047204843 109.27576121288904 L 988.8812482147729 109.22462271616142 L 988.672433433479 109.17253767370543 L 988.4647812579067 109.1195112939819 L 988.2583124531005 109.0655488795846 L 988.0530476657689 109.01065582671 L 987.8490074222194 108.95483762461768 L 987.6462121263064 108.89809985508128 L 987.4446820573907 108.84044819183053 L 987.244437368311 108.78188839998367 L 987.0454980833694 108.7224263354711 L 986.8478840963286 108.66206794444972 L 986.6516151684227 108.60081926270831 L 986.4567109263809 108.53868641506405 L 986.263190860465 108.47567561474989 L 986.0710743225202 108.41179316279337 L 985.8803805240404 108.34704544738645 L 985.6911285342464 108.2814389432467 L 985.5033372781795 108.21498021096988 L 985.3170255348089 108.14767589637383 L 985.1322119351535 108.07953272983391 L 984.9489149604194 108.01055752561001 L 984.7671529401512 107.94075718116505 L 984.5869440503997 107.87013867647532 L 984.4083063119034 107.79870907333245 L 984.2312575882875 107.72647551463722 L 984.0558155842766 107.6534452236853 L 983.8819978439252 107.57962550344493 L 983.7098217488623 107.50502373582663 L 983.5393045165539 107.42964738094497 L 983.3704631985813 107.35350397637264 L 983.2033146789354 107.27660113638665 L 983.037875672329 107.1989465512069 L 982.8741627225248 107.12054798622721 L 982.7121922006816 107.04141328123873 L 982.5519803037163 106.96155034964602 L 982.3935430526851 106.8809671776757 L 982.2368962911813 106.7996718235778 L 982.0820556837505 106.71767241681998 L 981.9290367143242 106.63497715727459 L 981.7778546846719 106.55159431439867 L 981.6285247128706 106.46753222640703 L 981.481061731793 106.38279929943842 L 981.3354804876145 106.29740400671491 L 981.191795538338 106.21135488769461 L 981.0500212523389 106.12466054721774 L 980.9101718069275 106.03732965464607 L 980.7722611869317 105.94937094299611 L 980.6363031832987 105.8607932080657 L 980.5023113917156 105.77160530755455 L 980.3702992112499 105.68181616017836 L 980.2402798430095 105.59143474477705 L 980.112266288823 105.50047009941686 L 979.9862713499391 105.40893132048649 L 979.8623076257468 105.31682756178758 L 979.7403875125151 105.22416803361924 L 979.6205232021537 105.13096200185706 L 979.5027266809938 105.03721878702656 L 979.3870097285893 104.94294776337108 L 979.273383916539 104.84815835791446 L 979.1618606073297 104.75286004951823 L 979.052450953199 104.65706236793383 L 978.9451658950213 104.56077489284957 L 978.840016161213 104.46400725293273 L 978.73701226666 104.36676912486666 L 978.6361645116657 104.26907023238314 L 978.5374829809216 104.17092034529 L 978.4409775424987 104.07232927849415 L 978.3466578468602 103.97330689102013 L 978.2545333258972 103.87386308502415 L 978.164613191985 103.77400780480394 L 978.0769064370621 103.67375103580433 L 977.9914218317308 103.57310280361865 L 977.9081679243806 103.47207317298626 L 977.8271530403325 103.37067224678601 L 977.7483852810077 103.26891016502606 L 977.6718725231165 103.16679710382974 L 977.5976224178706 103.0643432744181 L 977.5256423902191 102.96155892208871 L 977.4559396381044 102.85845432519113 L 977.3885211317439 102.75503979409915 L 977.3233936129319 102.65132567017969 L 977.260563594366 102.5473223247587 L 977.2000373589958 102.44304015808407 L 977.1418209593943 102.33848959828556 L 977.0859202171531 102.23368110033203 L 977.0323407222996 102.12862514498595 L 976.9810878327388 102.02333223775527 L 976.932166673717 101.91781290784299 L 976.8855821373091 101.81207770709416 L 976.8413388819303 101.70613720894077 L 976.7994413318688 101.60000200734433 L 976.7598936768451 101.49368271573654 L 976.7226998715914 101.387189965958 L 976.6878636354576 101.2805344071949 L 976.6553884520379 101.17372670491429 L 976.6252775688239 101.06677753979733 L 976.5975339968786 100.95969760667145 L 976.5721605105363 100.85249761344073 L 976.5491596471243 100.74518828001514 L 976.5285337067098 100.63778033723861 L 976.5102847518697 100.5302845258159 L 976.4944146074843 100.42271159523858 L 976.4809248605548 100.31507230271008 L 976.4698168600445 100.20737741206993 L 976.4610917167445 100.09963769271747 L 976.4547503031615 99.99186391853482 L 976.4507932534319 99.88406686680962 L 976.4492209632572 99.77625731715719 L 976.4500335898651 99.66844605044267 L 976.4532310519937 99.56064384770288 L 976.4588130298994 99.45286148906825 L 976.466778965389 99.34510975268485 L 976.4771280618758 99.23739941363651 L 976.4898592844586 99.12974124286738 L 976.5049713600257 99.02214600610482 L 976.5224627773823 98.91462446278284 L 976.542331787401 98.80718736496618 L 976.5645764031977 98.69984545627509 L 976.5891944003292 98.59260947081098 L 976.6161833170162 98.48549013208303 L 976.6455404543896 98.37849815193587 L 976.6772628767601 98.27164422947833 L 976.711347411912 98.16493905001363 L 976.74779065142 98.05839328397077 L 976.7865889509908 97.9520175858376 L 976.8277384308265 97.84582259309526 L 976.8712349760135 97.73981892515455 L 976.9170742369336 97.6340171822939 L 976.9652516296987 97.52842794459946 L 977.01576233661 97.423061770907 L 977.0686013066386 97.31792919774607 L 977.1237632559317 97.21304073828638 L 977.1812426683404 97.10840688128647 L 977.2410337959711 97.00403809004486 L 977.303130659761 96.89994480135368 L 977.3675270500755 96.79613742445507 L 977.4342165273293 96.6926263400002 L 977.5031924226301 96.58942189901128 L 977.574447838446 96.48653442184639 L 977.6479756492946 96.38397419716749 L 977.7237685024562 96.28175148091161 L 977.8018188187086 96.17987649526519 L 977.8821187930854 96.07835942764187 L 977.9646603956558 95.97721042966384 L 978.0494353723285 95.8764396161466 L 978.1364352456765 95.77605706408754 L 978.2256513157848 95.67607281165819 L 978.317074661121 95.57649685720048 L 978.4106961394265 95.47733915822688 L 978.5065063886315 95.37860963042466 L 978.6044958277911 95.28031814666433 L 978.704654658043 95.18247453601234 L 978.8069728635875 95.08508858274823 L 978.9114402126893 94.98817002538617 L 979.0180462587008 94.89172855570112 L 979.126780341106 94.79577381775971 L 979.2376315865873 94.70031540695574 L 979.3505889101127 94.60536286905077 L 979.4656410160438 94.51092569921943 L 979.582776399266 94.41701334110004 L 979.7019833463384 94.32363518585014 L 979.8232499366658 94.23080057120742 L 979.9465640436902 94.13851878055601 L 980.0719133361036 94.04679904199807 L 980.1992852790813 93.955650527431 L 980.3286671355352 93.86508235163033 L 980.4600459673873 93.77510357133815 L 980.5934086368638 93.68572318435751 L 980.7287418078092 93.59695012865262 L 980.8660319470191 93.5087932814551 L 981.0052653255939 93.42126145837616 L 981.1464280203118 93.33436341252519 L 981.2895059150209 93.24810783363438 L 981.434484702051 93.1625033471897 L 981.5813498836443 93.07755851356848 L 981.730086773405 92.9932818271833 L 981.8806804977679 92.90968171563254 L 982.0331159974863 92.82676653885773 L 982.1873780291371 92.74454458830742 L 982.3434511666458 92.66302408610815 L 982.5013198028286 92.58221318424222 L 982.6609681509535 92.50211996373247 L 982.8223802463186 92.4227524338342 L 982.9855399478491 92.34411853123427 L 983.1504309397106 92.26622611925741 L 983.3170367329416 92.1890829870799 L 983.4853406671014 92.11269684895069 L 983.6553259119366 92.0370753434199 L 983.8269754690649 91.9622260325751 L 984.0002721736734 91.888156401285 L 984.1751986962358 91.81487385645099 L 984.351737544246 91.74238572626649 L 984.5298710639661 91.67069925948411 L 984.7095814421926 91.59982162469079 L 984.8908507080375 91.52975990959095 L 985.0736607347252 91.4605211202977 L 985.2579932414054 91.3921121806323 L 985.4438297949812 91.32453993143167 L 985.6311518119518 91.25781112986445 L 985.8199405602717 91.1919324487552 L 986.0101771612235 91.12691047591709 L 986.2018425913056 91.06275171349324 L 986.3949176841347 90.99946257730645 L 986.5893831323624 90.93704939621756 L 986.785219489606 90.87551841149269 L 986.9824071723928 90.81487577617904 L 987.180926462119 90.75512755448958 L 987.380757507021 90.69627972119672 L 987.5818803241608 90.63833816103474 L 987.7842748014244 90.58130866811136 L 987.9879206995328 90.52519694532836 L 988.1927976540655 90.47000860381125 L 988.3988851774982 90.41574916234819 L 988.6061626612501 90.36242404683813 L 988.8146093777456 90.31003858974816 L 989.0242044824868 90.25859802958036 L 989.2349270161377 90.20810751034786 L 989.4467559066208 90.1585720810605 L 989.6596699712234 90.10999669521995 L 989.8736479187165 90.0623862103243 L 990.0886683514838 90.01574538738238 L 990.3047097676609 89.9700788904376 L 990.5217505632864 89.92539128610161 L 990.7397690344618 89.88168704309761 L 990.9587433795214 89.83897053181346 L 991.1786517012131 89.79724602386472 L 991.3994720088883 89.75651769166738 L 991.6211822207 89.71678960802075 L 991.8437601658119 89.67806574570005 L 992.0671835866149 89.64034997705929 L 992.291430140953 89.60364607364387 L 992.5164774043579 89.56795770581357 L 992.7423028722907 89.53328844237541 L 992.9688839623927 89.49964175022686 L 993.1961980167439 89.46702099400908 L 993.424222304128 89.43542943577052 L 993.6529340223065 89.40487023464067 L 993.8823103002981 89.37534644651419 L 994.1123282006662 89.34686102374526 L 994.3429647218123 89.31941681485246 L 994.5741968002767 89.29301656423378 L 994.806001313044 89.2676629118923 L 995.0383550798564 89.2433583931721 L 995.2712348655306 89.22010543850483 L 995.5046173822822 89.19790637316656 L 995.738479292054 89.17676341704532 L 995.9727972088498 89.15667868441913 L 996.2075477010733 89.13765418374449 L 996.4427072938709 89.11969181745562 L 996.6782524714793 89.10279338177418 L 996.9141596795769 89.08696056652965 L 997.1504053276396 89.0721949549904 L 997.3869657912994 89.05849802370521 L 997.6238174147072 89.04587114235585 L 997.8609365128979 89.03431557361992 L 998.0982993741593 89.02383247304465 L 998.3358822624031 89.01442288893136 L 998.5736614195383 89.00608776223065 L 998.8116130678477 88.99882792644821 L 999.0497134123644 88.9926441075616 L 999.2879386432526 88.98753692394752 L 999.5262649381876 88.9835068863201 L 999.7646684647386 88.98055439767974 L 1000.0031253827515 88.97867975327284 L 1000.2416118467333 88.97788314056228 L 1000.4801040082364 88.97816463920867 L 1000.7185780182432 88.97952422106238 L 1000.9570100295516 88.98196175016635 L 1001.1953761991591 88.98547698276971 L 1001.4336526906474 88.99006956735212 L 1001.6718156765659 88.99573904465896 L 1001.9098413408144 89.00248484774721 L 1002.1477058810249 89.0103063020422 L 1002.3853855109415 89.019202625405 L 1002.6228564627996 89.0291729282107 L 1002.8600949897016 89.04021621343732 L 1003.0970773679925 89.05233137676555 L 1003.3337798996321 89.06551720668914 L 1003.5701789145644 89.0797723846361 L 1003.806250773085 89.0950954851005 L 1004.0419718682047 89.11148497578507 L 1004.2773186280103 89.12893921775441 L 1004.5122675180222 89.14745646559885 L 1004.746795043547 89.16703486760905 L 1004.9808777520277 89.18767246596111 L 1005.2144922353884 89.20936719691241 L 1005.4476151323755 89.23211689100792 L 1005.6802231308936 89.2559192732972 L 1005.9122929703367 89.28077196356185 L 1006.1438014439142 89.30667247655354 L 1006.3747254009717 89.33361822224259 L 1006.6050417493059 89.36160650607685 L 1006.8347274574738 89.39063452925127 L 1007.0637595570962 89.42069938898774 L 1007.2921151451538 89.45179807882532 L 1007.5197713862783 89.48392748892095 L 1007.746705515035 89.5170844063604 L 1007.9728948382004 89.55126551547954 L 1008.1983167370307 89.58646739819596 L 1008.4229486695236 89.62268653435072 L 1008.6467681726733 89.65991930206037 L 1008.8697528647159 89.69816197807918 L 1009.0918804473679 89.73741073817143 L 1009.3131287080564 89.7776616574938 L 1009.5334755221395 89.8189107109879 L 1009.7528988551194 89.86115377378276 L 1009.9713767648458 89.9043866216073 L 1010.1888874037097 89.94860493121277 L 1010.4054090208285 89.99380428080505 L 1010.6209199642209 90.03998015048685 L 1010.8353986829721 90.0871279227097 L 1011.0488237293891 90.13524288273562 L 1011.2611737611451 90.18432021910876 L 1011.4724275434138 90.23435502413635 L 1011.682563950993 90.28534229437957 L 1011.891561970417 90.33727693115392 L 1012.0994007020582 90.39015374103897 L 1012.3060593622165 90.44396743639781 L 1012.5115172851982 90.49871263590576 L 1012.7157539253822 90.55438386508847 L 1012.9187488592745 90.6109755568694 L 1013.1204817875511 90.66848205212658 L 1013.3209325370872 90.72689760025837 L 1013.5200810629748 90.78621635975864 L 1013.7179074505274 90.84643239880089 L 1013.914391917271 90.90753969583137 L 1014.1095148149228 90.96953214017132 L 1014.3032566313556 91.03240353262795 L 1014.4955979925489 91.09614758611443 L 1014.6865196645274 91.1607579262785 L 1014.8760025552825 91.22622809214002 L 1015.0640277166834 91.29255153673692 L 1015.2505763463705 91.35972162778006 L 1015.4356297896362 91.42773164831627 L 1015.6191695412905 91.49657479740019 L 1015.8011772475112 91.56624419077427 L 1015.9816347076793 91.63673286155725 L 1016.1605238761991 91.70803376094076 L 1016.3378268643029 91.78013975889431 L 1016.5135259418397 91.85304364487818 L 1016.687603539048 91.92673812856452 L 1016.8600422483133 92.00121584056639 L 1017.0308248259083 92.07646933317463 L 1017.1999341937176 92.15249108110271 L 1017.3673534409452 92.22927348223918 L 1017.533065825806 92.3068088584079 L 1017.6970547771997 92.3850894561359 L 1017.8593038963677 92.4641074474286 L 1018.0197969585333 92.54385493055275 L 1018.1785179145242 92.62432393082648 L 1018.3354508923767 92.70550640141681 L 1018.490580198924 92.78739422414436 L 1018.6438903213649 92.86997921029509 L 1018.7953659288146 92.95325310143917 L 1018.9449918738387 93.03720757025692 L 1019.0927531939675 93.12183422137142 L 1019.238635113192 93.20712459218805 L 1019.3826230434419 93.29307015374081 L 1019.5247025860441 93.3796623115452 L 1019.6648595331628 93.46689240645757 L 1019.80307986922 93.55475171554113 L 1019.9393497722974 93.64323145293818 L 1020.0736556155182 93.73232277074871 L 1020.20598396841 93.8220167599152 L 1020.3363215982477 93.91230445111346 L 1020.464655471377 94.00317681564962 L 1020.5909727545177 94.09462476636294 L 1020.7152608160463 94.18663915853458 L 1020.8375072272607 94.27921079080198 L 1020.9576997636215 94.37233040607906 L 1021.0758264059751 94.46598869248189 L 1021.1918753417558 94.56017628425988 L 1021.3058349661667 94.65488376273235 L 1021.4176938833403 94.75010165723037 L 1021.5274409074782 94.84582044604385 L 1021.6350650639694 94.94203055737364 L 1021.7405555904878 95.03872237028881 L 1021.8439019380688 95.13588621568863 L 1021.9450937721638 95.23351237726953 L 1022.0441209736737 95.33159109249674 L 1022.1409736399606 95.43011255358043 L 1022.235642085839 95.5290669084566 L 1022.3281168445429 95.62844426177223 L 1022.4183886686737 95.72823467587482 L 1022.5064485311241 95.82842817180608 L 1022.5922876259812 95.92901473029994 L 1022.6758973694072 96.02998429278436 L 1022.7572694004971 96.13132676238725 L 1022.836395582116 96.23303200494607 L 1022.9132680017115 96.33508985002135 L 1022.9878789721056 96.4374900919136 L 1023.0602210322636 96.54022249068399 L 1023.1302869480398 96.64327677317824 L 1023.1980697129009 96.746642634054 L 1023.2635625486269 96.85030973681128 L 1023.3267589059888 96.95426771482623 L 1023.3876524654034 97.05850617238767 L 1023.4462371375658 97.1630146857367 L 1023.5025070640575 97.26778280410907 L 1023.5564566179327 97.37280005078027 L 1023.6080804042809 97.47805592411314 L 1023.6573732607666 97.58353989860805 L 1023.7043302581452 97.68924142595546 L 1023.748946700756 97.79514993609072 L 1023.7912181269921 97.90125483825108 L 1023.8311403097459 98.00754552203473 L 1023.8687092568326 98.11401135846187 L 1023.9039212113886 98.22064170103758 L 1023.936772652248 98.32742588681647 L 1023.9672602942939 98.43435323746894 L 1023.9953810887876 98.54141306034904 L 1024.021132223673 98.64859464956368 L 1024.044511123858 98.75588728704328 L 1024.0655154514725 98.86328024361347 L 1024.0841431061006 98.97076278006811 L 1024.100392224993 99.07832414824313 L 1024.1142611832508 99.18595359209134 L 1024.12574859399 99.29364034875802 L 1024.1348533084793 99.40137364965727 L 1024.1415744162543 99.50914272154878 L 1024.1459112452105 99.61693678761516 L 1024.147863361668 99.72474506853963 M 1024.147984351724 134.0630134831 L 1024.1467918918204 134.17082402801663 L 1024.1432146313543 134.2786237919686 L 1024.1372529280488 134.38640199506935 L 1024.1289073780697 134.49414785958842 L 1024.1181788159645 134.60185061102908 L 1024.1050683145806 134.70949947920602 L 1024.0895771849573 134.81708369932204 L 1024.0717069761947 134.92459251304487 L 1024.0514594752988 135.03201516958265 L 1024.0288367070025 135.1393409267593 L 1024.003840933564 135.24655905208851 L 1023.9764746545401 135.35365882384713 L 1023.9467406065355 135.46062953214718 L 1023.9146417629304 135.56746048000701 L 1023.8801813335823 135.67414098442086 L 1023.8433627645055 135.78066037742718 L 1023.8041897375261 135.88700800717544 L 1023.7626661699144 135.99317323899126 L 1023.7187962139924 136.09914545643997 L 1023.672584256719 136.2049140623881 L 1023.6240349192517 136.31046848006324 L 1023.5731530564836 136.41579815411154 L 1023.5199437565587 136.5208925516534 L 1023.4644123403625 136.62574116333658 L 1023.4065643609905 136.7303335043874 L 1023.3464056031924 136.8346591156588 L 1023.2839420827937 136.9387075646767 L 1023.2191800460945 137.0424684466828 L 1023.1521259692445 137.14593138567542 L 1023.0827865575956 137.24908603544688 L 1023.0111687450309 137.35192208061815 L 1022.9372796932722 137.4544292376704 L 1022.8611267911632 137.5565972559734 L 1022.7827176539304 137.6584159188104 L 1022.7020601224223 137.7598750444 L 1022.6191622623248 137.86096448691416 L 1022.534032363355 137.96167413749288 L 1022.4466789384315 138.06199392525505 L 1022.3571107228244 138.1619138183055 L 1022.2653366732803 138.26142382473813 L 1022.1713659671279 138.3605139936353 L 1022.0752080013593 138.4591744160626 L 1021.9768723916912 138.5573952260601 L 1021.8763689716025 138.6551666016286 L 1021.7737077913513 138.75247876571203 L 1021.6688991169702 138.84932198717507 L 1021.5619534292393 138.94568658177627 L 1021.4528814226384 139.04156291313652 L 1021.3416940042771 139.1369413937025 L 1021.2284022928045 139.2318124857057 L 1021.1130176172976 139.32616670211596 L 1020.9955515161275 139.41999460759027 L 1020.8760157358066 139.51328681941624 L 1020.7544222298134 139.60603400845048 L 1020.630783157397 139.69822690005134 L 1020.5051108823616 139.7898562750065 L 1020.3774179718301 139.88091297045483 L 1020.2477171949871 139.97138788080267 L 1020.1160215218022 140.06127195863436 L 1019.9823441217329 140.15055621561703 L 1019.846698362408 140.23923172339937 L 1019.7090978082902 140.3272896145045 L 1019.5695562193202 140.41472108321673 L 1019.4280875495409 140.501517386462 L 1019.2847059457011 140.58766984468238 L 1019.139425745842 140.67316984270377 L 1018.9922614778621 140.75800883059765 L 1018.843227858066 140.8421783245359 L 1018.6923397896911 140.9256699076393 L 1018.5396123614188 141.00847523081913 L 1018.3850608458646 141.09058601361204 L 1018.2287006980511 141.17199404500818 L 1018.0705475538628 141.25269118427227 L 1017.9106172284825 141.3326693617576 L 1017.7489257148093 141.41192057971313 L 1017.58548918186 141.49043691308304 L 1017.4203239731514 141.56821051029945 L 1017.2534466050671 141.64523359406746 L 1017.0848737652046 141.72149846214288 L 1016.9146223107075 141.79699748810242 L 1016.7427092665794 141.87172312210643 L 1016.5691518239813 141.94566789165378 L 1016.393967338513 142.01882440232913 L 1016.217173328477 142.0911853385424 L 1016.038787473127 142.16274346426022 L 1015.8588276108997 142.2334916237297 L 1015.6773117376316 142.3034227421938 L 1015.4942580047586 142.372529826599 L 1015.3096847175017 142.4408059662944 L 1015.1236103330355 142.50824433372296 L 1014.9360534586435 142.5748381851041 L 1014.7470328498569 142.64058086110825 L 1014.556567408579 142.70546578752254 L 1014.3646761811951 142.7694864759084 L 1014.1713783566684 142.83263652425032 L 1013.9766932646198 142.89490961759617 L 1013.7806403733966 142.95629952868842 L 1013.5832392881244 143.01680011858718 L 1013.3845097487474 143.07640533728383 L 1013.1844716280536 143.13510922430623 L 1012.9831449296887 143.19290590931453 L 1012.7805497861547 143.24978961268846 L 1012.5767064567968 143.30575464610504 L 1012.3716353257786 143.36079541310758 L 1012.1653569000418 143.41490640966524 L 1011.9578918072575 143.46808222472345 L 1011.7492607937618 143.52031754074505 L 1011.5394847224824 143.57160713424193 L 1011.3285845708514 143.6219458762975 L 1011.1165814287083 143.67132873307952 L 1010.9034964961907 143.71975076634342 L 1010.6893510816143 143.76720713392626 L 1010.474166599342 143.81369309023083 L 1010.2579645676427 143.8592039867002 L 1010.0407666065396 143.9037352722827 L 1009.8225944356476 143.94728249388683 L 1009.603469872002 143.98984129682677 L 1009.3834148278767 144.03140742525764 L 1009.1624513085926 144.07197672260128 L 1008.9406014103176 144.11154513196175 L 1008.7178873178566 144.15010869653108 L 1008.4943313024331 144.18766355998494 L 1008.2699557194627 144.2242059668683 L 1008.0447830063164 144.2597322629709 L 1007.818835680078 144.29423889569279 L 1007.5921363352918 144.32772241439937 L 1007.3647076417034 144.36017947076672 L 1007.1365723419925 144.39160681911628 L 1006.9077532494993 144.42200131673934 L 1006.6782732459419 144.45135992421152 L 1006.4481552791299 144.4796797056965 L 1006.2174223606678 144.50695782923975 L 1005.9860975636554 144.53319156705163 L 1005.7542040203796 144.55837829578024 L 1005.5217649200015 144.5825154967737 L 1005.2888035062374 144.60560075633202 L 1005.0553430750344 144.62763176594848 L 1004.8214069722414 144.64860632254045 L 1004.5870185912735 144.66852232866978 L 1004.3522013707735 144.68737779275247 L 1004.1169787922679 144.70517082925778 L 1003.8813743778182 144.72189965889692 L 1003.6454116876699 144.73756260880086 L 1003.4091143178953 144.75215811268765 L 1003.1725058980343 144.76568471101908 L 1002.9356100887317 144.77814105114655 L 1002.6984505793712 144.7895258874465 L 1002.461051085706 144.7998380814447 L 1002.2234353474876 144.80907660193043 L 1001.9856271260919 144.8172405250593 L 1001.7476502021428 144.82432903444578 L 1001.5095283731345 144.83034142124487 L 1001.2712854510513 144.83527708422287 L 1001.032945259987 144.83913552981764 L 1000.794531633762 144.8419163721878 L 1000.5560684135402 144.84361933325144 L 1000.3175794454451 144.84424424271387 L 1000.0790885781745 144.84379103808467 L 999.8406196606167 144.84225976468392 L 999.6021965394644 144.83965057563768 L 999.3638430568315 144.8359637318627 L 999.125583047867 144.83119960204027 L 998.8874403383738 144.82535866257942 L 998.6494387424242 144.81844149756918 L 998.4116020599794 144.81044879872033 L 998.1739540745094 144.8013813652961 L 997.9365185506149 144.79124010403225 L 997.6993192316502 144.78002602904647 L 997.4623798373498 144.7677402617369 L 997.2257240614555 144.75438403067005 L 996.9893755693477 144.73995867145788 L 996.7533579956786 144.72446562662432 L 996.517694942009 144.7079064454609 L 996.2824099744479 144.69028278387196 L 996.0475266212959 144.671596404209 L 995.8130683706926 144.65184917509436 L 995.5790586682677 144.6310430712345 L 995.3455209147963 144.6091801732225 L 995.1124784638595 144.58626266732998 L 994.8799546195078 144.56229284528834 L 994.6479726339319 144.53727310405984 L 994.4165557051373 144.5112059455978 L 994.1857269746238 144.48409397659628 L 993.9555095250722 144.45593990822962 L 993.7259263780356 144.4267465558812 L 993.4970004916373 144.3965168388619 L 993.2687547582753 144.36525378011828 L 993.0412120023327 144.3329605059301 L 992.8143949778954 144.2996402455979 L 992.588326366477 144.26529633111994 L 992.36302877475 144.22993219685907 L 992.1385247322859 144.19355137919922 L 991.914836689302 144.15615751619185 L 991.6919870144161 144.1177543471921 L 991.46999799241 144.07834571248486 L 991.2488918220009 144.03793555290076 L 991.0286906136215 143.9965279094221 L 990.8094163872094 143.9541269227787 L 990.5910910700042 143.9107368330339 L 990.3737364943557 143.8663619791605 L 990.1573743955407 143.82100679860693 L 989.9420264095884 143.77467582685347 L 989.7277140711182 143.72737369695864 L 989.514458811185 143.679105139096 L 989.3022819551376 143.62987498008118 L 989.0912047204843 143.579688142889 L 988.8812482147729 143.52854964616142 L 988.672433433479 143.4764646037054 L 988.4647812579067 143.4234382239819 L 988.2583124531005 143.36947580958457 L 988.0530476657689 143.31458275671 L 987.8490074222194 143.25876455461767 L 987.6462121263064 143.20202678508127 L 987.4446820573907 143.1443751218305 L 987.244437368311 143.08581532998366 L 987.0454980833694 143.02635326547107 L 986.8478840963286 142.9659948744497 L 986.6516151684227 142.9047461927083 L 986.4567109263809 142.84261334506402 L 986.263190860465 142.77960254474988 L 986.0710743225202 142.71572009279336 L 985.8803805240404 142.65097237738644 L 985.6911285342464 142.5853658732467 L 985.5033372781795 142.51890714096987 L 985.3170255348089 142.4516028263738 L 985.1322119351535 142.3834596598339 L 984.9489149604194 142.31448445561 L 984.7671529401512 142.24468411116504 L 984.5869440503997 142.17406560647532 L 984.4083063119034 142.10263600333244 L 984.2312575882875 142.03040244463722 L 984.0558155842766 141.9573721536853 L 983.8819978439252 141.88355243344492 L 983.7098217488623 141.80895066582661 L 983.5393045165539 141.73357431094496 L 983.3704631985813 141.65743090637264 L 983.2033146789354 141.58052806638665 L 983.037875672329 141.5028734812069 L 982.8741627225248 141.42447491622718 L 982.7121922006816 141.34534021123872 L 982.5519803037163 141.265477279646 L 982.3935430526851 141.1848941076757 L 982.2368962911813 141.10359875357778 L 982.0820556837505 141.02159934681995 L 981.9290367143242 140.93890408727458 L 981.7778546846719 140.85552124439866 L 981.6285247128706 140.77145915640702 L 981.481061731793 140.68672622943842 L 981.3354804876145 140.6013309367149 L 981.191795538338 140.5152818176946 L 981.0500212523389 140.42858747721772 L 980.9101718069275 140.34125658464606 L 980.7722611869317 140.2532978729961 L 980.6363031832987 140.1647201380657 L 980.5023113917156 140.07553223755454 L 980.3702992112499 139.98574309017835 L 980.2402798430095 139.89536167477704 L 980.112266288823 139.80439702941683 L 979.9862713499391 139.71285825048648 L 979.8623076257468 139.62075449178758 L 979.7403875125151 139.52809496361922 L 979.6205232021537 139.43488893185705 L 979.5027266809938 139.34114571702654 L 979.3870097285893 139.24687469337107 L 979.273383916539 139.15208528791445 L 979.1618606073297 139.05678697951822 L 979.052450953199 138.96098929793382 L 978.9451658950213 138.86470182284955 L 978.840016161213 138.76793418293272 L 978.73701226666 138.67069605486665 L 978.6361645116657 138.57299716238313 L 978.5374829809216 138.47484727529 L 978.4409775424987 138.37625620849414 L 978.3466578468602 138.27723382102013 L 978.2545333258972 138.17779001502413 L 978.164613191985 138.07793473480393 L 978.0769064370621 137.9776779658043 L 977.9914218317308 137.87702973361863 L 977.9081679243806 137.77600010298625 L 977.8271530403325 137.67459917678602 L 977.7483852810077 137.57283709502605 L 977.6718725231165 137.47072403382973 L 977.5976224178706 137.3682702044181 L 977.5256423902191 137.26548585208872 L 977.4559396381044 137.16238125519112 L 977.3885211317439 137.05896672409915 L 977.3233936129319 136.95525260017968 L 977.260563594366 136.8512492547587 L 977.2000373589958 136.74696708808406 L 977.1418209593943 136.64241652828557 L 977.0859202171531 136.53760803033202 L 977.0323407222996 136.43255207498592 L 976.9810878327388 136.32725916775524 L 976.932166673717 136.22173983784296 L 976.8855821373091 136.11600463709416 L 976.8413388819303 136.01006413894075 L 976.7994413318688 135.90392893734432 L 976.7598936768451 135.79760964573654 L 976.7226998715914 135.69111689595798 L 976.6878636354576 135.5844613371949 L 976.6553884520379 135.47765363491428 L 976.6252775688239 135.37070446979732 L 976.5975339968786 135.26362453667144 L 976.5721605105363 135.15642454344072 L 976.5491596471243 135.04911521001512 L 976.5285337067098 134.9417072672386 L 976.5102847518697 134.83421145581588 L 976.4944146074843 134.72663852523857 L 976.4809248605548 134.61899923271008 L 976.4698168600445 134.5113043420699 L 976.4610917167445 134.40356462271745 L 976.4547503031615 134.2957908485348 L 976.4507932534319 134.1879937968096 L 976.4492209632572 134.08018424715718" stroke-miterlimit="10" stroke-width="2.7769845610000004" stroke-dasharray=""/></g><g><g/><text fill="black" stroke="none" font-family="sans-serif" font-size="11pt" font-style="normal" font-weight="normal" text-decoration="normal" x="959.9550053804037" y="162.371920802" text-anchor="start" dominant-baseline="alphabetic" xml:space="preserve">SpDatabase</text></g></g><g><path fill="white" stroke="black" paint-order="fill stroke markers" d=" M 55.429564540625 175.440083442 L 71.764767840625 175.440083442 L 71.764767840625 786.3766868619998 L 55.429564540625 786.3766868619998 L 55.429564540625 175.440083442" stroke-miterlimit="10" stroke-width="1.3612669416666667" stroke-dasharray=""/><path fill="white" stroke="black" paint-order="fill stroke markers" d=" M 312.9307185778646 221.178652682 L 329.26592187786457 221.178652682 L 329.26592187786457 312.655791162 L 312.9307185778646 312.655791162 L 312.9307185778646 221.178652682" stroke-miterlimit="10" stroke-width="1.3612669416666667" stroke-dasharray=""/><path fill="white" stroke="black" paint-order="fill stroke markers" d=" M 436.38406593990885 266.917221922 L 452.71926923990884 266.917221922 L 452.71926923990884 539.715117032 L 436.38406593990885 539.715117032 L 436.38406593990885 266.917221922" stroke-miterlimit="10" stroke-width="1.3612669416666667" stroke-dasharray=""/><path fill="white" stroke="black" paint-order="fill stroke markers" d=" M 736.6447710900391 358.394360402 L 752.9799743900392 358.394360402 L 752.9799743900392 539.715117032 L 736.6447710900391 539.715117032 L 736.6447710900391 358.394360402" stroke-miterlimit="10" stroke-width="1.3612669416666667" stroke-dasharray=""/><path fill="white" stroke="black" paint-order="fill stroke markers" d=" M 992.130985883724 448.237978552 L 1008.466189183724 448.237978552 L 1008.466189183724 493.976547792 L 992.130985883724 493.976547792 L 992.130985883724 448.237978552" stroke-miterlimit="10" stroke-width="1.3612669416666667" stroke-dasharray=""/><path fill="white" stroke="black" paint-order="fill stroke markers" d=" M 436.38406593990885 583.8201659419999 L 452.71926923990884 583.8201659419999 L 452.71926923990884 721.0358736619997 L 436.38406593990885 721.0358736619997 L 436.38406593990885 583.8201659419999" stroke-miterlimit="10" stroke-width="1.3612669416666667" stroke-dasharray=""/><path fill="white" stroke="black" paint-order="fill stroke markers" d=" M 736.6447710900391 583.8201659419999 L 752.9799743900392 583.8201659419999 L 752.9799743900392 721.0358736619997 L 736.6447710900391 721.0358736619997 L 736.6447710900391 583.8201659419999" stroke-miterlimit="10" stroke-width="1.3612669416666667" stroke-dasharray=""/><path fill="white" stroke="black" paint-order="fill stroke markers" d=" M 992.130985883724 629.5587351819999 L 1008.466189183724 629.5587351819999 L 1008.466189183724 675.2973044219998 L 992.130985883724 675.2973044219998 L 992.130985883724 629.5587351819999" stroke-miterlimit="10" stroke-width="1.3612669416666667" stroke-dasharray=""/><g><text fill="black" stroke="none" font-family="sans-serif" font-size="11pt" font-style="normal" font-weight="normal" text-decoration="normal" x="114.51670378053387" y="214.644571362" text-anchor="start" dominant-baseline="alphabetic" xml:space="preserve">User data change event</text></g><g><path fill="none" stroke="black" paint-order="fill stroke markers" d=" M 71.764767840625 221.178652682 L 310.20818469453127 221.178652682" stroke-miterlimit="10" stroke-width="1.3612669416666667" stroke-dasharray=""/><g transform="translate(312.9307185778646,221.178652682) translate(-312.9307185778646,-221.178652682)"><path fill="none" stroke="black" paint-order="fill stroke markers" d=" M 299.3180491611979 214.37231797366667 L 311.5694516361979 221.178652682 L 299.3180491611979 227.98498739033334" stroke-miterlimit="10" stroke-width="1.3612669416666667"/></g></g><g><text fill="black" stroke="none" font-family="sans-serif" font-size="11pt" font-style="normal" font-weight="normal" text-decoration="normal" x="351.04619294453124" y="260.383140602" text-anchor="start" dominant-baseline="alphabetic" xml:space="preserve">User data</text></g><g><path fill="none" stroke="black" paint-order="fill stroke markers" d=" M 329.26592187786457 266.917221922 L 433.66153205657554 266.917221922" stroke-miterlimit="10" stroke-width="1.3612669416666667" stroke-dasharray=""/><g transform="translate(436.38406593990885,266.917221922) translate(-436.38406593990885,-266.917221922)"><path fill="none" stroke="black" paint-order="fill stroke markers" d=" M 422.7713965232422 260.1108872136667 L 435.0227989982422 266.917221922 L 422.7713965232422 273.72355663033335" stroke-miterlimit="10" stroke-width="1.3612669416666667"/></g></g><g><text fill="black" stroke="none" font-family="sans-serif" font-size="11pt" font-style="normal" font-weight="normal" text-decoration="normal" x="143.8617278894206" y="306.121709842" text-anchor="start" dominant-baseline="alphabetic" xml:space="preserve">Event received</text></g><g><path fill="none" stroke="black" paint-order="fill stroke markers" d=" M 312.9307185778646 312.655791162 L 74.48730172395832 312.655791162" stroke-miterlimit="10" stroke-width="1.3612669416666667" stroke-dasharray="6.53408132"/><g transform="translate(71.764767840625,312.655791162) translate(-71.764767840625,-312.655791162)"><path fill="none" stroke="black" paint-order="fill stroke markers" d=" M 85.37743725729167 305.8494564536667 L 73.12603478229167 312.655791162 L 85.37743725729167 319.46212587033335" stroke-miterlimit="10" stroke-width="1.3612669416666667"/></g></g><g><text fill="black" stroke="none" font-family="sans-serif" font-size="11pt" font-style="normal" font-weight="normal" text-decoration="normal" x="474.49954030657545" y="351.860279082" text-anchor="start" dominant-baseline="alphabetic" xml:space="preserve">Update user by ID (check if in cache)</text></g><g><path fill="none" stroke="black" paint-order="fill stroke markers" d=" M 452.71926923990884 358.394360402 L 733.9222372067057 358.394360402" stroke-miterlimit="10" stroke-width="1.3612669416666667" stroke-dasharray=""/><g transform="translate(736.6447710900391,358.394360402) translate(-736.6447710900391,-358.394360402)"><path fill="black" stroke="none" paint-order="stroke fill markers" d=" M 723.0321016733724 351.5880256936667 L 736.6447710900391 358.394360402 L 723.0321016733724 365.20069511033336 Z"/></g></g><g><text fill="black" stroke="none" font-family="sans-serif" font-size="11pt" font-style="normal" font-weight="normal" text-decoration="normal" x="821.2169104957683" y="441.703897232" text-anchor="start" dominant-baseline="alphabetic" xml:space="preserve">Forward update</text></g><g><path fill="none" stroke="black" paint-order="fill stroke markers" d=" M 752.9799743900392 448.237978552 L 989.4084520003906 448.237978552" stroke-miterlimit="10" stroke-width="1.3612669416666667" stroke-dasharray=""/><g transform="translate(992.130985883724,448.237978552) translate(-992.130985883724,-448.237978552)"><path fill="black" stroke="none" paint-order="stroke fill markers" d=" M 978.5183164670573 441.4316438436667 L 992.130985883724 448.237978552 L 978.5183164670573 455.04431326033335 Z"/></g></g><g><text fill="black" stroke="none" font-family="sans-serif" font-size="11pt" font-style="normal" font-weight="normal" text-decoration="normal" x="806.1453391456706" y="487.442466472" text-anchor="start" dominant-baseline="alphabetic" xml:space="preserve">Return conformation</text></g><g><path fill="none" stroke="black" paint-order="fill stroke markers" d=" M 992.130985883724 493.976547792 L 755.7025082733725 493.976547792" stroke-miterlimit="10" stroke-width="1.3612669416666667" stroke-dasharray="6.53408132"/><g transform="translate(752.9799743900392,493.976547792) translate(-752.9799743900392,-493.976547792)"><path fill="black" stroke="none" paint-order="stroke fill markers" d=" M 766.5926438067058 487.1702130836667 L 752.9799743900392 493.976547792 L 766.5926438067058 500.78288250033336 Z"/></g></g><g><text fill="black" stroke="none" font-family="sans-serif" font-size="11pt" font-style="normal" font-weight="normal" text-decoration="normal" x="528.271879173763" y="533.1810357119999" text-anchor="start" dominant-baseline="alphabetic" xml:space="preserve">Return conformation</text></g><g><path fill="none" stroke="black" paint-order="fill stroke markers" d=" M 736.6447710900391 539.715117032 L 455.44180312324215 539.715117032" stroke-miterlimit="10" stroke-width="1.3612669416666667" stroke-dasharray="6.53408132"/><g transform="translate(452.71926923990884,539.715117032) translate(-452.71926923990884,-539.715117032)"><path fill="black" stroke="none" paint-order="stroke fill markers" d=" M 466.3319386565755 532.9087823236666 L 452.71926923990884 539.715117032 L 466.3319386565755 546.5214517403333 Z"/></g></g><g><text fill="black" stroke="none" font-family="sans-serif" font-size="11pt" font-style="normal" font-weight="normal" text-decoration="normal" x="834.2591468238933" y="623.0246538619998" text-anchor="start" dominant-baseline="alphabetic" xml:space="preserve">Create user</text></g><g><path fill="none" stroke="black" paint-order="fill stroke markers" d=" M 752.9799743900392 629.5587351819999 L 989.4084520003906 629.5587351819999" stroke-miterlimit="10" stroke-width="1.3612669416666667" stroke-dasharray=""/><g transform="translate(992.130985883724,629.5587351819999) translate(-992.130985883724,-629.5587351819999)"><path fill="black" stroke="none" paint-order="stroke fill markers" d=" M 978.5183164670573 622.7524004736665 L 992.130985883724 629.5587351819999 L 978.5183164670573 636.3650698903332 Z"/></g></g><g><text fill="black" stroke="none" font-family="sans-serif" font-size="11pt" font-style="normal" font-weight="normal" text-decoration="normal" x="774.7602454567058" y="668.7632231019998" text-anchor="start" dominant-baseline="alphabetic" xml:space="preserve">Return user and load in cache</text></g><g><path fill="none" stroke="black" paint-order="fill stroke markers" d=" M 992.130985883724 675.2973044219998 L 755.7025082733725 675.2973044219998" stroke-miterlimit="10" stroke-width="1.3612669416666667" stroke-dasharray="6.53408132"/><g transform="translate(752.9799743900392,675.2973044219998) translate(-752.9799743900392,-675.2973044219998)"><path fill="black" stroke="none" paint-order="stroke fill markers" d=" M 766.5926438067058 668.4909697136665 L 752.9799743900392 675.2973044219998 L 766.5926438067058 682.1036391303331 Z"/></g></g><g><text fill="black" stroke="none" font-family="sans-serif" font-size="11pt" font-style="normal" font-weight="normal" text-decoration="normal" x="528.271879173763" y="714.5017923419997" text-anchor="start" dominant-baseline="alphabetic" xml:space="preserve">Return conformation</text></g><g><path fill="none" stroke="black" paint-order="fill stroke markers" d=" M 736.6447710900391 721.0358736619997 L 455.44180312324215 721.0358736619997" stroke-miterlimit="10" stroke-width="1.3612669416666667" stroke-dasharray="6.53408132"/><g transform="translate(452.71926923990884,721.0358736619997) translate(-452.71926923990884,-721.0358736619997)"><path fill="black" stroke="none" paint-order="stroke fill markers" d=" M 466.3319386565755 714.2295389536664 L 452.71926923990884 721.0358736619997 L 466.3319386565755 727.8422083703331 Z"/></g></g><g><g/><path fill="none" stroke="black" paint-order="fill stroke markers" d=" M 379.21085438990883 382.897165352 L 1057.471799083724 382.897165352 L 1057.471799083724 745.5386786119998 L 379.21085438990883 745.5386786119998 L 379.21085438990883 382.897165352 Z" stroke-miterlimit="10" stroke-width="2.3336004714285714" stroke-dasharray=""/><path fill="white" stroke="black" paint-order="fill stroke markers" d=" M 379.21085438990883 382.897165352 L 379.21085438990883 402.499409312 L 425.5700579869791 402.499409312 L 435.3711799669791 392.698287332 L 435.3711799669791 382.897165352 L 379.21085438990883 382.897165352" stroke-miterlimit="10" stroke-width="2.3336004714285714" stroke-dasharray=""/><text fill="black" stroke="none" font-family="sans-serif" font-size="8.8pt" font-style="normal" font-weight="bold" text-decoration="normal" x="395.5460576899088" y="395.965327992" text-anchor="start" dominant-baseline="alphabetic" xml:space="preserve">alt</text><text fill="black" stroke="none" font-family="sans-serif" font-size="8.8pt" font-style="normal" font-weight="bold" text-decoration="normal" x="451.7063832669791" y="395.965327992" text-anchor="start" dominant-baseline="alphabetic" xml:space="preserve">[User exist]</text><g><path fill="none" stroke="black" paint-order="fill stroke markers" d=" M 379.21085438990883 564.2179219819999 L 1057.471799083724 564.2179219819999" stroke-miterlimit="10" stroke-width="2.3336004714285714" stroke-dasharray="4.083800825"/></g><g/><text fill="black" stroke="none" font-family="sans-serif" font-size="8.8pt" font-style="normal" font-weight="bold" text-decoration="normal" x="451.7063832669791" y="577.2860846219999" text-anchor="start" dominant-baseline="alphabetic" xml:space="preserve">[User not exist]</text></g><g/></g><g/><g/><g/><g/><g/></g></svg>