<svg version="1.1" xmlns="http://www.w3.org/2000/svg" xmlns:xlink="http://www.w3.org/1999/xlink" width="733" height="711"><defs/><g><g/><g/><g/><g/><g/><g/><g/><g/><g/><g/><g><rect fill="white" stroke="none" x="0" y="0" width="733" height="711"/></g><g><text fill="black" stroke="none" font-family="sans-serif" font-size="16.5pt" font-style="normal" font-weight="normal" text-decoration="normal" x="275.7368766970703" y="24.50280495" text-anchor="start" dominant-baseline="alphabetic" xml:space="preserve">Change User Data</text></g><g><g><path fill="#9F5F9F" stroke="black" paint-order="fill stroke markers" d=" M 8.167601650000003 58.5617038305 L 119.02673073125 58.5617038305 L 119.02673073125 676.9308247519999 L 8.167601650000003 676.9308247519999 L 8.167601650000003 58.5617038305" stroke-miterlimit="10" stroke-width="1.3612669416666667" stroke-dasharray=""/></g><g><text fill="black" stroke="none" font-family="sans-serif" font-size="11pt" font-style="normal" font-weight="bold" text-decoration="normal" x="44.441839347363285" y="81.43098845050001" text-anchor="start" dominant-baseline="alphabetic" xml:space="preserve">Slack</text></g><g><path fill="none" stroke="black" paint-order="fill stroke markers" d=" M 262.8197871813802 50.394102180500006 L 692.3503034224609 50.394102180500006 L 692.3503034224609 676.9308247519999 L 262.8197871813802 676.9308247519999 L 262.8197871813802 50.394102180500006" stroke-miterlimit="10" stroke-width="1.3612669416666667" stroke-dasharray=""/></g><g><text fill="black" stroke="none" font-family="sans-serif" font-size="11pt" font-style="normal" font-weight="bold" text-decoration="normal" x="396.497017347819" y="73.2633868005" text-anchor="start" dominant-baseline="alphabetic" xml:space="preserve">Service Provider Slack </text></g></g><g><path fill="none" stroke="black" paint-order="fill stroke markers" d=" M 63.597166190625 167.272481792 L 63.597166190625 711.2347516819999" stroke-miterlimit="10" stroke-width="1.3612669416666667" stroke-dasharray="12.565541,5.445067766666667"/><path fill="none" stroke="black" paint-order="fill stroke markers" d=" M 321.0983202278646 167.272481792 L 321.0983202278646 711.2347516819999" stroke-miterlimit="10" stroke-width="1.3612669416666667" stroke-dasharray="12.565541,5.445067766666667"/><path fill="none" stroke="black" paint-order="fill stroke markers" d=" M 444.55166758990885 167.272481792 L 444.55166758990885 711.2347516819999" stroke-miterlimit="10" stroke-width="1.3612669416666667" stroke-dasharray="12.565541,5.445067766666667"/><path fill="none" stroke="black" paint-order="fill stroke markers" d=" M 643.8391196191405 167.272481792 L 643.8391196191405 711.2347516819999" stroke-miterlimit="10" stroke-width="1.3612669416666667" stroke-dasharray="12.565541,5.445067766666667"/></g><g><g><path fill="white" stroke="black" paint-order="fill stroke markers" d=" M 96.022544741125 120.39044832100001 A 24.2577769005 24.2577769005 0 1 1 96.02253261223755 120.36619054814246 M 32.560279920625 94.74417914 L 32.560279920625 146.03671750200002 M 31.171787640124997 120.39044832100001 L 47.506990940125 120.39044832100001" stroke-miterlimit="10" stroke-width="2.7769845610000004" stroke-dasharray=""/></g><g><g/><text fill="black" stroke="none" font-family="sans-serif" font-size="11pt" font-style="normal" font-weight="normal" text-decoration="normal" x="16.335203300000003" y="162.371920802" text-anchor="start" dominant-baseline="alphabetic" xml:space="preserve">SlackEventApi</text></g><g><path fill="white" stroke="black" paint-order="fill stroke markers" d=" M 353.5236987783646 120.39044832100001 A 24.2577769005 24.2577769005 0 1 1 353.52368664947716 120.36619054814246 M 290.06143395786455 94.74417914 L 290.06143395786455 146.03671750200002 M 288.6729416773646 120.39044832100001 L 305.00814497736457 120.39044832100001" stroke-miterlimit="10" stroke-width="2.7769845610000004" stroke-dasharray=""/></g><g><g/><text fill="black" stroke="none" font-family="sans-serif" font-size="11pt" font-style="normal" font-weight="normal" text-decoration="normal" x="270.9873888313802" y="162.371920802" text-anchor="start" dominant-baseline="alphabetic" xml:space="preserve">SpUserHandler</text></g><g><path fill="white" stroke="black" paint-order="fill stroke markers" d=" M 468.80944449040885 120.39044832100001 A 24.2577769005 24.2577769005 0 1 1 468.80943236152143 120.36619054814246 M 441.2846269299088 96.1326714205 L 451.08574890990883 87.96506977050001 M 441.2846269299088 96.1326714205 L 451.08574890990883 104.3002730705" stroke-miterlimit="10" stroke-width="2.7769845610000004" stroke-dasharray=""/></g><g><g/><text fill="black" stroke="none" font-family="sans-serif" font-size="11pt" font-style="normal" font-weight="normal" text-decoration="normal" x="395.6683744380534" y="162.371920802" text-anchor="start" dominant-baseline="alphabetic" xml:space="preserve">SpUserService</text></g><g><path fill="white" stroke="black" paint-order="fill stroke markers" d=" M 619.9897228011406 135.255483324 L 619.9897228011406 100.95155639400002 L 667.6885164371405 100.95155639400002 L 667.6885164371405 135.255483324" stroke-miterlimit="10" stroke-width="2.7769845610000004" stroke-dasharray=""/><path fill="white" stroke="black" paint-order="fill stroke markers" d=" M 667.6885164371405 99.75908655310002 L 667.6873239772368 99.86689709801664 L 667.6837467167708 99.97469686196861 L 667.6777850134655 100.08247506506937 L 667.6694394634861 100.19022092958842 L 667.6587109013809 100.2979236810291 L 667.6456003999971 100.40557254920603 L 667.6301092703739 100.51315676932207 L 667.6122390616113 100.62066558304487 L 667.5919915607152 100.72808823958268 L 667.569368792419 100.83541399675931 L 667.5443730189807 100.94263212208854 L 667.5170067399566 101.04973189384714 L 667.4872726919521 101.1567026021472 L 667.4551738483469 101.26353355000704 L 667.4207134189988 101.37021405442088 L 667.3838948499221 101.4767334474272 L 667.3447218229427 101.58308107717545 L 667.3031982553309 101.68924630899127 L 667.2593282994089 101.79521852643998 L 667.2131163421355 101.90098713238812 L 667.1645670046682 102.00654155006325 L 667.1136851419002 102.11187122411154 L 667.0604758419753 102.21696562165339 L 667.0049444257791 102.32181423333661 L 666.947096446407 102.4264065743874 L 666.8869376886089 102.53073218565882 L 666.8244741682103 102.63478063467669 L 666.759712131511 102.7385415166828 L 666.692658054661 102.84200445567542 L 666.6233186430121 102.94515910544688 L 666.5517008304474 103.04799515061815 L 666.4778117786888 103.15050230767042 L 666.4016588765797 103.2526703259734 L 666.3232497393469 103.3544889888104 L 666.2425922078388 103.4559481144 L 666.1596943477414 103.55703755691417 L 666.0745644487715 103.6577472074929 L 665.9872110238481 103.75806699525508 L 665.8976428082409 103.8579868883055 L 665.8058687586969 103.95749689473814 L 665.7118980525445 104.05658706363529 L 665.6157400867759 104.15524748606262 L 665.5174044771078 104.25346829606012 L 665.416901057019 104.35123967162862 L 665.3142398767678 104.44855183571204 L 665.2094312023868 104.54539505717509 L 665.1024855146559 104.6417596517763 L 664.9934135080549 104.73763598313651 L 664.8822260896936 104.83301446370251 L 664.768934378221 104.92788555570571 L 664.6535497027141 105.02223977211597 L 664.5360836015441 105.11606767759027 L 664.4165478212232 105.20935988941625 L 664.2949543152299 105.30210707845049 L 664.1713152428135 105.39429997005135 L 664.0456429677781 105.48592934500653 L 663.9179500572467 105.57698604045486 L 663.7882492804036 105.66746095080268 L 663.6565536072187 105.75734502863436 L 663.5228762071495 105.84662928561703 L 663.3872304478245 105.93530479339938 L 663.2496298937067 106.02336268450453 L 663.1100883047368 106.11079415321676 L 662.9686196349575 106.19759045646204 L 662.8252380311177 106.28374291468239 L 662.6799578312585 106.36924291270377 L 662.5327935632787 106.45408190059764 L 662.3837599434826 106.5382513945359 L 662.2328718751077 106.62174297763931 L 662.0801444468353 106.70454830081913 L 661.9255929312811 106.78665908361204 L 661.7692327834676 106.86806711500819 L 661.6110796392793 106.94876425427228 L 661.451149313899 107.02874243175762 L 661.2894578002258 107.10799364971314 L 661.1260212672765 107.18650998308306 L 660.960856058568 107.26428358029946 L 660.7939786904836 107.34130666406747 L 660.6254058506212 107.41757153214289 L 660.455154396124 107.49307055810243 L 660.2832413519959 107.56779619210644 L 660.1096839093979 107.6417409616538 L 659.9344994239295 107.71489747232916 L 659.7577054138935 107.7872584085424 L 659.5793195585435 107.85881653426023 L 659.3993596963162 107.9295646937297 L 659.2178438230482 107.9994958121938 L 659.0347900901752 108.06860289659899 L 658.8502168029182 108.1368790362944 L 658.664142418452 108.20431740372297 L 658.4765855440601 108.27091125510412 L 658.2875649352734 108.33665393110826 L 658.0970994939955 108.40153885752254 L 657.9052082666117 108.46555954590839 L 657.7119104420849 108.52870959425034 L 657.5172253500364 108.59098268759617 L 657.3211724588132 108.65237259868843 L 657.123771373541 108.71287318858718 L 656.925041834164 108.77247840728386 L 656.7250037134702 108.83118229430623 L 656.5236770151052 108.88897897931456 L 656.3210818715712 108.94586268268847 L 656.1172385422134 109.00182771610504 L 655.9121674111951 109.05686848310758 L 655.7058889854584 109.11097947966525 L 655.498423892674 109.16415529472346 L 655.2897928791783 109.21639061074505 L 655.0800168078989 109.26768020424194 L 654.8691166562679 109.31801894629751 L 654.6571135141248 109.36740180307952 L 654.4440285816072 109.41582383634344 L 654.2298831670308 109.46328020392627 L 654.0146986847585 109.50976616023082 L 653.7984966530593 109.55527705670022 L 653.5812986919561 109.5998083422827 L 653.3631265210641 109.64335556388684 L 653.1440019574186 109.68591436682678 L 652.9239469132932 109.72748049525767 L 652.7029833940092 109.7680497926013 L 652.4811334957342 109.80761820196176 L 652.2584194032731 109.84618176653109 L 652.0348633878497 109.88373662998495 L 651.8104878048792 109.92027903686831 L 651.5853150917329 109.95580533297093 L 651.3593677654945 109.99031196569278 L 651.1326684207083 110.02379548439939 L 650.9052397271199 110.05625254076675 L 650.6771044274091 110.08767988911629 L 650.4482853349158 110.11807438673935 L 650.2188053313585 110.14743299421153 L 649.9886873645464 110.17575277569651 L 649.7579544460843 110.20303089923975 L 649.526629649072 110.22926463705164 L 649.2947361057961 110.25445136578027 L 649.062297005418 110.27858856677372 L 648.829335591654 110.30167382633203 L 648.595875160451 110.32370483594849 L 648.361939057658 110.34467939254047 L 648.12755067669 110.3645953986698 L 647.8927334561901 110.38345086275248 L 647.6575108776844 110.40124389925779 L 647.4219064632348 110.41797272889693 L 647.1859437730865 110.43363567880087 L 646.9496464033118 110.44823118268765 L 646.7130379834508 110.46175778101907 L 646.4761421741482 110.47421412114657 L 646.2389826647877 110.4855989574465 L 646.0015831711225 110.49591115144473 L 645.7639674329041 110.50514967193044 L 645.5261592115085 110.5133135950593 L 645.2881822875594 110.5204021044458 L 645.050060458551 110.52641449124488 L 644.8118175364679 110.53135015422289 L 644.5734773454035 110.53520859981765 L 644.3350637191785 110.53798944218781 L 644.0966004989567 110.53969240325145 L 643.8581115308616 110.54031731271388 L 643.619620663591 110.53986410808467 L 643.3811517460332 110.53833283468393 L 643.142728624881 110.5357236456377 L 642.904375142248 110.53203680186272 L 642.6661151332836 110.52727267204028 L 642.4279724237904 110.52143173257942 L 642.1899708278407 110.5145145675692 L 641.9521341453959 110.50652186872036 L 641.714486159926 110.4974544352961 L 641.4770506360314 110.48731317403227 L 641.2398513170667 110.47609909904648 L 641.0029119227663 110.46381333173692 L 640.766256146872 110.45045710067006 L 640.5299076547642 110.4360317414579 L 640.2938900810951 110.42053869662433 L 640.0582270274256 110.40397951546092 L 639.8229420598644 110.38635585387198 L 639.5880587067124 110.367669474209 L 639.3536004561091 110.34792224509437 L 639.1195907536843 110.32711614123453 L 638.8860530002129 110.30525324322254 L 638.653010549276 110.28233573732997 L 638.4204867049243 110.25836591528834 L 638.1885047193484 110.23334617405986 L 637.9570877905538 110.2072790155978 L 637.7262590600403 110.18016704659628 L 637.4960416104888 110.15201297822964 L 637.2664584634522 110.1228196258812 L 637.0375325770539 110.09258990886192 L 636.8092868436919 110.06132685011828 L 636.5817440877493 110.0290335759301 L 636.354927063312 109.99571331559791 L 636.1288584518935 109.96136940111997 L 635.9035608601665 109.9260052668591 L 635.6790568177024 109.88962444919923 L 635.4553687747185 109.85223058619187 L 635.2325190998326 109.81382741719212 L 635.0105300778265 109.77441878248487 L 634.7894239074175 109.73400862290077 L 634.569222699038 109.6926009794221 L 634.3499484726259 109.6501999927787 L 634.1316231554207 109.60680990303389 L 633.9142685797723 109.56243504916051 L 633.6979064809573 109.51707986860694 L 633.4825584950049 109.47074889685346 L 633.2682461565347 109.42344676695863 L 633.0549908966016 109.37517820909602 L 632.8428140405541 109.3259480500812 L 632.6317368059008 109.27576121288904 L 632.4217803001894 109.22462271616142 L 632.2129655188955 109.17253767370543 L 632.0053133433232 109.1195112939819 L 631.7988445385171 109.0655488795846 L 631.5935797511854 109.01065582671 L 631.389539507636 108.95483762461768 L 631.186744211723 108.89809985508128 L 630.9852141428072 108.84044819183053 L 630.7849694537275 108.78188839998367 L 630.5860301687859 108.7224263354711 L 630.3884161817451 108.66206794444972 L 630.1921472538393 108.60081926270831 L 629.9972430117974 108.53868641506405 L 629.8037229458815 108.47567561474989 L 629.6116064079367 108.41179316279337 L 629.420912609457 108.34704544738645 L 629.231660619663 108.2814389432467 L 629.0438693635961 108.21498021096988 L 628.8575576202254 108.14767589637383 L 628.67274402057 108.07953272983391 L 628.489447045836 108.01055752561001 L 628.3076850255677 107.94075718116505 L 628.1274761358162 107.87013867647532 L 627.94883839732 107.79870907333245 L 627.771789673704 107.72647551463722 L 627.5963476696932 107.6534452236853 L 627.4225299293417 107.57962550344493 L 627.2503538342788 107.50502373582663 L 627.0798366019704 107.42964738094497 L 626.9109952839979 107.35350397637264 L 626.7438467643519 107.27660113638665 L 626.5784077577456 107.1989465512069 L 626.4146948079414 107.12054798622721 L 626.2527242860981 107.04141328123873 L 626.0925123891328 106.96155034964602 L 625.9340751381017 106.8809671776757 L 625.7774283765979 106.7996718235778 L 625.622587769167 106.71767241681998 L 625.4695687997407 106.63497715727459 L 625.3183867700884 106.55159431439867 L 625.1690567982871 106.46753222640703 L 625.0215938172096 106.38279929943842 L 624.8760125730311 106.29740400671491 L 624.7323276237546 106.21135488769461 L 624.5905533377554 106.12466054721774 L 624.450703892344 106.03732965464607 L 624.3127932723482 105.94937094299611 L 624.1768352687152 105.8607932080657 L 624.0428434771321 105.77160530755455 L 623.9108312966664 105.68181616017836 L 623.780811928426 105.59143474477705 L 623.6527983742395 105.50047009941686 L 623.5268034353556 105.40893132048649 L 623.4028397111633 105.31682756178758 L 623.2809195979316 105.22416803361924 L 623.1610552875702 105.13096200185706 L 623.0432587664103 105.03721878702656 L 622.9275418140058 104.94294776337108 L 622.8139160019556 104.84815835791446 L 622.7023926927462 104.75286004951823 L 622.5929830386156 104.65706236793383 L 622.4856979804379 104.56077489284957 L 622.3805482466296 104.46400725293273 L 622.2775443520766 104.36676912486666 L 622.1766965970822 104.26907023238314 L 622.0780150663381 104.17092034529 L 621.9815096279152 104.07232927849415 L 621.8871899322768 103.97330689102013 L 621.7950654113138 103.87386308502415 L 621.7051452774016 103.77400780480394 L 621.6174385224787 103.67375103580433 L 621.5319539171473 103.57310280361865 L 621.4487000097971 103.47207317298626 L 621.3676851257491 103.37067224678601 L 621.2889173664242 103.26891016502606 L 621.212404608533 103.16679710382974 L 621.1381545032872 103.0643432744181 L 621.0661744756356 102.96155892208871 L 620.9964717235209 102.85845432519113 L 620.9290532171605 102.75503979409915 L 620.8639256983485 102.65132567017969 L 620.8010956797825 102.5473223247587 L 620.7405694444124 102.44304015808407 L 620.6823530448108 102.33848959828556 L 620.6264523025696 102.23368110033203 L 620.5728728077162 102.12862514498595 L 620.5216199181554 102.02333223775527 L 620.4726987591336 101.91781290784299 L 620.4261142227257 101.81207770709416 L 620.3818709673468 101.70613720894077 L 620.3399734172854 101.60000200734433 L 620.3004257622616 101.49368271573654 L 620.263231957008 101.387189965958 L 620.2283957208741 101.2805344071949 L 620.1959205374544 101.17372670491429 L 620.1658096542404 101.06677753979733 L 620.1380660822952 100.95969760667145 L 620.1126925959528 100.85249761344073 L 620.0896917325408 100.74518828001514 L 620.0690657921264 100.63778033723861 L 620.0508168372862 100.5302845258159 L 620.0349466929008 100.42271159523858 L 620.0214569459713 100.31507230271008 L 620.010348945461 100.20737741206993 L 620.001623802161 100.09963769271747 L 619.9952823885781 99.99186391853482 L 619.9913253388485 99.88406686680962 L 619.9897530486737 99.77625731715719 L 619.9905656752817 99.66844605044267 L 619.9937631374103 99.56064384770288 L 619.9993451153159 99.45286148906825 L 620.0073110508056 99.34510975268485 L 620.0176601472923 99.23739941363651 L 620.0303913698751 99.12974124286738 L 620.0455034454423 99.02214600610482 L 620.0629948627989 98.91462446278284 L 620.0828638728176 98.80718736496618 L 620.1051084886143 98.69984545627509 L 620.1297264857458 98.59260947081098 L 620.1567154024327 98.48549013208303 L 620.1860725398061 98.37849815193587 L 620.2177949621766 98.27164422947833 L 620.2518794973286 98.16493905001363 L 620.2883227368366 98.05839328397077 L 620.3271210364073 97.9520175858376 L 620.368270516243 97.84582259309526 L 620.41176706143 97.73981892515455 L 620.4576063223501 97.6340171822939 L 620.5057837151153 97.52842794459946 L 620.5562944220266 97.423061770907 L 620.6091333920551 97.31792919774607 L 620.6642953413483 97.21304073828638 L 620.7217747537569 97.10840688128647 L 620.7815658813877 97.00403809004486 L 620.8436627451775 96.89994480135368 L 620.9080591354921 96.79613742445507 L 620.9747486127459 96.6926263400002 L 621.0437245080467 96.58942189901128 L 621.1149799238625 96.48653442184639 L 621.1885077347112 96.38397419716749 L 621.2643005878728 96.28175148091161 L 621.3423509041252 96.17987649526519 L 621.4226508785019 96.07835942764187 L 621.5051924810723 95.97721042966384 L 621.589967457745 95.8764396161466 L 621.676967331093 95.77605706408754 L 621.7661834012014 95.67607281165819 L 621.8576067465375 95.57649685720048 L 621.951228224843 95.47733915822688 L 622.047038474048 95.37860963042466 L 622.1450279132076 95.28031814666433 L 622.2451867434595 95.18247453601234 L 622.347504949004 95.08508858274823 L 622.4519722981058 94.98817002538617 L 622.5585783441173 94.89172855570112 L 622.6673124265226 94.79577381775971 L 622.7781636720039 94.70031540695574 L 622.8911209955293 94.60536286905077 L 623.0061731014604 94.51092569921943 L 623.1233084846825 94.41701334110004 L 623.2425154317549 94.32363518585014 L 623.3637820220823 94.23080057120742 L 623.4870961291067 94.13851878055601 L 623.6124454215202 94.04679904199807 L 623.7398173644979 93.955650527431 L 623.8691992209517 93.86508235163033 L 624.0005780528038 93.77510357133815 L 624.1339407222804 93.68572318435751 L 624.2692738932258 93.59695012865262 L 624.4065640324357 93.5087932814551 L 624.5457974110104 93.42126145837616 L 624.6869601057283 93.33436341252519 L 624.8300380004374 93.24810783363438 L 624.9750167874676 93.1625033471897 L 625.1218819690608 93.07755851356848 L 625.2706188588215 92.9932818271833 L 625.4212125831845 92.90968171563254 L 625.5736480829029 92.82676653885773 L 625.7279101145537 92.74454458830742 L 625.8839832520623 92.66302408610815 L 626.0418518882451 92.58221318424222 L 626.2015002363701 92.50211996373247 L 626.3629123317352 92.4227524338342 L 626.5260720332657 92.34411853123427 L 626.6909630251272 92.26622611925741 L 626.8575688183581 92.1890829870799 L 627.0258727525179 92.11269684895069 L 627.1958579973532 92.0370753434199 L 627.3675075544814 91.9622260325751 L 627.5408042590899 91.888156401285 L 627.7157307816524 91.81487385645099 L 627.8922696296626 91.74238572626649 L 628.0704031493826 91.67069925948411 L 628.2501135276092 91.59982162469079 L 628.4313827934541 91.52975990959095 L 628.6141928201417 91.4605211202977 L 628.798525326822 91.3921121806323 L 628.9843618803977 91.32453993143167 L 629.1716838973683 91.25781112986445 L 629.3604726456882 91.1919324487552 L 629.55070924664 91.12691047591709 L 629.7423746767222 91.06275171349324 L 629.9354497695513 90.99946257730645 L 630.129915217779 90.93704939621756 L 630.3257515750225 90.87551841149269 L 630.5229392578093 90.81487577617904 L 630.7214585475356 90.75512755448958 L 630.9212895924376 90.69627972119672 L 631.1224124095774 90.63833816103474 L 631.324806886841 90.58130866811136 L 631.5284527849493 90.52519694532836 L 631.7333297394821 90.47000860381125 L 631.9394172629147 90.41574916234819 L 632.1466947466666 90.36242404683813 L 632.3551414631621 90.31003858974816 L 632.5647365679033 90.25859802958036 L 632.7754591015542 90.20810751034786 L 632.9872879920373 90.1585720810605 L 633.2002020566399 90.10999669521995 L 633.4141800041331 90.0623862103243 L 633.6292004369003 90.01574538738238 L 633.8452418530775 89.9700788904376 L 634.062282648703 89.92539128610161 L 634.2803011198783 89.88168704309761 L 634.4992754649379 89.83897053181346 L 634.7191837866296 89.79724602386472 L 634.9400040943049 89.75651769166738 L 635.1617143061166 89.71678960802075 L 635.3842922512284 89.67806574570005 L 635.6077156720314 89.64034997705929 L 635.8319622263696 89.60364607364387 L 636.0570094897745 89.56795770581357 L 636.2828349577072 89.53328844237541 L 636.5094160478093 89.49964175022686 L 636.7367301021604 89.46702099400908 L 636.9647543895445 89.43542943577052 L 637.193466107723 89.40487023464067 L 637.4228423857146 89.37534644651419 L 637.6528602860827 89.34686102374526 L 637.8834968072289 89.31941681485246 L 638.1147288856932 89.29301656423378 L 638.3465333984606 89.2676629118923 L 638.5788871652729 89.2433583931721 L 638.8117669509471 89.22010543850483 L 639.0451494676987 89.19790637316656 L 639.2790113774705 89.17676341704532 L 639.5133292942663 89.15667868441913 L 639.7480797864898 89.13765418374449 L 639.9832393792874 89.11969181745562 L 640.2187845568958 89.10279338177418 L 640.4546917649934 89.08696056652965 L 640.6909374130562 89.0721949549904 L 640.927497876716 89.05849802370521 L 641.1643495001238 89.04587114235585 L 641.4014685983144 89.03431557361992 L 641.6388314595758 89.02383247304465 L 641.8764143478196 89.01442288893136 L 642.1141935049549 89.00608776223065 L 642.3521451532642 88.99882792644821 L 642.590245497781 88.9926441075616 L 642.8284707286691 88.98753692394752 L 643.0667970236042 88.9835068863201 L 643.3052005501552 88.98055439767974 L 643.543657468168 88.97867975327284 L 643.7821439321499 88.97788314056228 L 644.0206360936529 88.97816463920867 L 644.2591101036597 88.97952422106238 L 644.4975421149682 88.98196175016635 L 644.7359082845757 88.98547698276971 L 644.9741847760639 88.99006956735212 L 645.2123477619824 88.99573904465896 L 645.450373426231 89.00248484774721 L 645.6882379664414 89.0103063020422 L 645.9259175963581 89.019202625405 L 646.1633885482162 89.0291729282107 L 646.4006270751181 89.04021621343732 L 646.637609453409 89.05233137676555 L 646.8743119850486 89.06551720668914 L 647.1107109999809 89.0797723846361 L 647.3467828585016 89.0950954851005 L 647.5825039536212 89.11148497578507 L 647.8178507134269 89.12893921775441 L 648.0527996034388 89.14745646559885 L 648.2873271289635 89.16703486760905 L 648.5214098374443 89.18767246596111 L 648.755024320805 89.20936719691241 L 648.9881472177921 89.23211689100792 L 649.2207552163102 89.2559192732972 L 649.4528250557532 89.28077196356185 L 649.6843335293307 89.30667247655354 L 649.9152574863882 89.33361822224259 L 650.1455738347224 89.36160650607685 L 650.3752595428904 89.39063452925127 L 650.6042916425127 89.42069938898774 L 650.8326472305704 89.45179807882532 L 651.0603034716949 89.48392748892095 L 651.2872376004516 89.5170844063604 L 651.513426923617 89.55126551547954 L 651.7388488224473 89.58646739819596 L 651.9634807549402 89.62268653435072 L 652.1873002580899 89.65991930206037 L 652.4102849501324 89.69816197807918 L 652.6324125327844 89.73741073817143 L 652.853660793473 89.7776616574938 L 653.074007607556 89.8189107109879 L 653.2934309405359 89.86115377378276 L 653.5119088502623 89.9043866216073 L 653.7294194891263 89.94860493121277 L 653.9459411062451 89.99380428080505 L 654.1614520496374 90.03998015048685 L 654.3759307683887 90.0871279227097 L 654.5893558148057 90.13524288273562 L 654.8017058465616 90.18432021910876 L 655.0129596288303 90.23435502413635 L 655.2230960364095 90.28534229437957 L 655.4320940558335 90.33727693115392 L 655.6399327874748 90.39015374103897 L 655.846591447633 90.44396743639781 L 656.0520493706148 90.49871263590576 L 656.2562860107987 90.55438386508847 L 656.459280944691 90.6109755568694 L 656.6610138729676 90.66848205212658 L 656.8614646225037 90.72689760025837 L 657.0606131483913 90.78621635975864 L 657.2584395359439 90.84643239880089 L 657.4549240026876 90.90753969583137 L 657.6500469003394 90.96953214017132 L 657.8437887167721 91.03240353262795 L 658.0361300779655 91.09614758611443 L 658.2270517499439 91.1607579262785 L 658.4165346406991 91.22622809214002 L 658.6045598021 91.29255153673692 L 658.791108431787 91.35972162778006 L 658.9761618750528 91.42773164831627 L 659.159701626707 91.49657479740019 L 659.3417093329277 91.56624419077427 L 659.5221667930958 91.63673286155725 L 659.7010559616157 91.70803376094076 L 659.8783589497194 91.78013975889431 L 660.0540580272562 91.85304364487818 L 660.2281356244646 91.92673812856452 L 660.4005743337299 92.00121584056639 L 660.5713569113249 92.07646933317463 L 660.7404662791341 92.15249108110271 L 660.9078855263617 92.22927348223918 L 661.0735979112226 92.3068088584079 L 661.2375868626162 92.3850894561359 L 661.3998359817842 92.4641074474286 L 661.5603290439499 92.54385493055275 L 661.7190499999407 92.62432393082648 L 661.8759829777932 92.70550640141681 L 662.0311122843406 92.78739422414436 L 662.1844224067814 92.86997921029509 L 662.3358980142311 92.95325310143917 L 662.4855239592553 93.03720757025692 L 662.633285279384 93.12183422137142 L 662.7791671986085 93.20712459218805 L 662.9231551288584 93.29307015374081 L 663.0652346714606 93.3796623115452 L 663.2053916185794 93.46689240645757 L 663.3436119546366 93.55475171554113 L 663.479881857714 93.64323145293818 L 663.6141877009347 93.73232277074871 L 663.7465160538266 93.8220167599152 L 663.8768536836642 93.91230445111346 L 664.0051875567935 94.00317681564962 L 664.1315048399342 94.09462476636294 L 664.2557929014629 94.18663915853458 L 664.3780393126773 94.27921079080198 L 664.498231849038 94.37233040607906 L 664.6163584913917 94.46598869248189 L 664.7324074271723 94.56017628425988 L 664.8463670515832 94.65488376273235 L 664.9582259687569 94.75010165723037 L 665.0679729928947 94.84582044604385 L 665.1755971493859 94.94203055737364 L 665.2810876759044 95.03872237028881 L 665.3844340234854 95.13588621568863 L 665.4856258575803 95.23351237726953 L 665.5846530590902 95.33159109249674 L 665.6815057253772 95.43011255358043 L 665.7761741712555 95.5290669084566 L 665.8686489299595 95.62844426177223 L 665.9589207540903 95.72823467587482 L 666.0469806165406 95.82842817180608 L 666.1328197113977 95.92901473029994 L 666.2164294548237 96.02998429278436 L 666.2978014859136 96.13132676238725 L 666.3769276675325 96.23303200494607 L 666.453800087128 96.33508985002135 L 666.5284110575221 96.4374900919136 L 666.6007531176801 96.54022249068399 L 666.6708190334564 96.64327677317824 L 666.7386017983174 96.746642634054 L 666.8040946340434 96.85030973681128 L 666.8672909914053 96.95426771482623 L 666.92818455082 97.05850617238767 L 666.9867692229824 97.1630146857367 L 667.043039149474 97.26778280410907 L 667.0969887033492 97.37280005078027 L 667.1486124896975 97.47805592411314 L 667.1979053461831 97.58353989860805 L 667.2448623435617 97.68924142595546 L 667.2894787861726 97.79514993609072 L 667.3317502124087 97.90125483825108 L 667.3716723951625 98.00754552203473 L 667.4092413422492 98.11401135846187 L 667.4444532968051 98.22064170103758 L 667.4773047376646 98.32742588681647 L 667.5077923797104 98.43435323746894 L 667.5359131742041 98.54141306034904 L 667.5616643090895 98.64859464956368 L 667.5850432092747 98.75588728704328 L 667.6060475368889 98.86328024361347 L 667.6246751915172 98.97076278006811 L 667.6409243104094 99.07832414824313 L 667.6547932686674 99.18595359209134 L 667.6662806794067 99.29364034875802 L 667.6753853938958 99.40137364965727 L 667.682106501671 99.50914272154878 L 667.686443330627 99.61693678761516 L 667.6883954470845 99.72474506853963 M 667.6885164371405 134.0630134831 L 667.6873239772368 134.17082402801663 L 667.6837467167708 134.2786237919686 L 667.6777850134655 134.38640199506935 L 667.6694394634861 134.49414785958842 L 667.6587109013809 134.60185061102908 L 667.6456003999971 134.70949947920602 L 667.6301092703739 134.81708369932204 L 667.6122390616113 134.92459251304487 L 667.5919915607152 135.03201516958265 L 667.569368792419 135.1393409267593 L 667.5443730189807 135.24655905208851 L 667.5170067399566 135.35365882384713 L 667.4872726919521 135.46062953214718 L 667.4551738483469 135.56746048000701 L 667.4207134189988 135.67414098442086 L 667.3838948499221 135.78066037742718 L 667.3447218229427 135.88700800717544 L 667.3031982553309 135.99317323899126 L 667.2593282994089 136.09914545643997 L 667.2131163421355 136.2049140623881 L 667.1645670046682 136.31046848006324 L 667.1136851419002 136.41579815411154 L 667.0604758419753 136.5208925516534 L 667.0049444257791 136.62574116333658 L 666.947096446407 136.7303335043874 L 666.8869376886089 136.8346591156588 L 666.8244741682103 136.9387075646767 L 666.759712131511 137.0424684466828 L 666.692658054661 137.14593138567542 L 666.6233186430121 137.24908603544688 L 666.5517008304474 137.35192208061815 L 666.4778117786888 137.4544292376704 L 666.4016588765797 137.5565972559734 L 666.3232497393469 137.6584159188104 L 666.2425922078388 137.7598750444 L 666.1596943477414 137.86096448691416 L 666.0745644487715 137.96167413749288 L 665.9872110238481 138.06199392525505 L 665.8976428082409 138.1619138183055 L 665.8058687586969 138.26142382473813 L 665.7118980525445 138.3605139936353 L 665.6157400867759 138.4591744160626 L 665.5174044771078 138.5573952260601 L 665.416901057019 138.6551666016286 L 665.3142398767678 138.75247876571203 L 665.2094312023868 138.84932198717507 L 665.1024855146559 138.94568658177627 L 664.9934135080549 139.04156291313652 L 664.8822260896936 139.1369413937025 L 664.768934378221 139.2318124857057 L 664.6535497027141 139.32616670211596 L 664.5360836015441 139.41999460759027 L 664.4165478212232 139.51328681941624 L 664.2949543152299 139.60603400845048 L 664.1713152428135 139.69822690005134 L 664.0456429677781 139.7898562750065 L 663.9179500572467 139.88091297045483 L 663.7882492804036 139.97138788080267 L 663.6565536072187 140.06127195863436 L 663.5228762071495 140.15055621561703 L 663.3872304478245 140.23923172339937 L 663.2496298937067 140.3272896145045 L 663.1100883047368 140.41472108321673 L 662.9686196349575 140.501517386462 L 662.8252380311177 140.58766984468238 L 662.6799578312585 140.67316984270377 L 662.5327935632787 140.75800883059765 L 662.3837599434826 140.8421783245359 L 662.2328718751077 140.9256699076393 L 662.0801444468353 141.00847523081913 L 661.9255929312811 141.09058601361204 L 661.7692327834676 141.17199404500818 L 661.6110796392793 141.25269118427227 L 661.451149313899 141.3326693617576 L 661.2894578002258 141.41192057971313 L 661.1260212672765 141.49043691308304 L 660.960856058568 141.56821051029945 L 660.7939786904836 141.64523359406746 L 660.6254058506212 141.72149846214288 L 660.455154396124 141.79699748810242 L 660.2832413519959 141.87172312210643 L 660.1096839093979 141.94566789165378 L 659.9344994239295 142.01882440232913 L 659.7577054138935 142.0911853385424 L 659.5793195585435 142.16274346426022 L 659.3993596963162 142.2334916237297 L 659.2178438230482 142.3034227421938 L 659.0347900901752 142.372529826599 L 658.8502168029182 142.4408059662944 L 658.664142418452 142.50824433372296 L 658.4765855440601 142.5748381851041 L 658.2875649352734 142.64058086110825 L 658.0970994939955 142.70546578752254 L 657.9052082666117 142.7694864759084 L 657.7119104420849 142.83263652425032 L 657.5172253500364 142.89490961759617 L 657.3211724588132 142.95629952868842 L 657.123771373541 143.01680011858718 L 656.925041834164 143.07640533728383 L 656.7250037134702 143.13510922430623 L 656.5236770151052 143.19290590931453 L 656.3210818715712 143.24978961268846 L 656.1172385422134 143.30575464610504 L 655.9121674111951 143.36079541310758 L 655.7058889854584 143.41490640966524 L 655.498423892674 143.46808222472345 L 655.2897928791783 143.52031754074505 L 655.0800168078989 143.57160713424193 L 654.8691166562679 143.6219458762975 L 654.6571135141248 143.67132873307952 L 654.4440285816072 143.71975076634342 L 654.2298831670308 143.76720713392626 L 654.0146986847585 143.81369309023083 L 653.7984966530593 143.8592039867002 L 653.5812986919561 143.9037352722827 L 653.3631265210641 143.94728249388683 L 653.1440019574186 143.98984129682677 L 652.9239469132932 144.03140742525764 L 652.7029833940092 144.07197672260128 L 652.4811334957342 144.11154513196175 L 652.2584194032731 144.15010869653108 L 652.0348633878497 144.18766355998494 L 651.8104878048792 144.2242059668683 L 651.5853150917329 144.2597322629709 L 651.3593677654945 144.29423889569279 L 651.1326684207083 144.32772241439937 L 650.9052397271199 144.36017947076672 L 650.6771044274091 144.39160681911628 L 650.4482853349158 144.42200131673934 L 650.2188053313585 144.45135992421152 L 649.9886873645464 144.4796797056965 L 649.7579544460843 144.50695782923975 L 649.526629649072 144.53319156705163 L 649.2947361057961 144.55837829578024 L 649.062297005418 144.5825154967737 L 648.829335591654 144.60560075633202 L 648.595875160451 144.62763176594848 L 648.361939057658 144.64860632254045 L 648.12755067669 144.66852232866978 L 647.8927334561901 144.68737779275247 L 647.6575108776844 144.70517082925778 L 647.4219064632348 144.72189965889692 L 647.1859437730865 144.73756260880086 L 646.9496464033118 144.75215811268765 L 646.7130379834508 144.76568471101908 L 646.4761421741482 144.77814105114655 L 646.2389826647877 144.7895258874465 L 646.0015831711225 144.7998380814447 L 645.7639674329041 144.80907660193043 L 645.5261592115085 144.8172405250593 L 645.2881822875594 144.82432903444578 L 645.050060458551 144.83034142124487 L 644.8118175364679 144.83527708422287 L 644.5734773454035 144.83913552981764 L 644.3350637191785 144.8419163721878 L 644.0966004989567 144.84361933325144 L 643.8581115308616 144.84424424271387 L 643.619620663591 144.84379103808467 L 643.3811517460332 144.84225976468392 L 643.142728624881 144.83965057563768 L 642.904375142248 144.8359637318627 L 642.6661151332836 144.83119960204027 L 642.4279724237904 144.82535866257942 L 642.1899708278407 144.81844149756918 L 641.9521341453959 144.81044879872033 L 641.714486159926 144.8013813652961 L 641.4770506360314 144.79124010403225 L 641.2398513170667 144.78002602904647 L 641.0029119227663 144.7677402617369 L 640.766256146872 144.75438403067005 L 640.5299076547642 144.73995867145788 L 640.2938900810951 144.72446562662432 L 640.0582270274256 144.7079064454609 L 639.8229420598644 144.69028278387196 L 639.5880587067124 144.671596404209 L 639.3536004561091 144.65184917509436 L 639.1195907536843 144.6310430712345 L 638.8860530002129 144.6091801732225 L 638.653010549276 144.58626266732998 L 638.4204867049243 144.56229284528834 L 638.1885047193484 144.53727310405984 L 637.9570877905538 144.5112059455978 L 637.7262590600403 144.48409397659628 L 637.4960416104888 144.45593990822962 L 637.2664584634522 144.4267465558812 L 637.0375325770539 144.3965168388619 L 636.8092868436919 144.36525378011828 L 636.5817440877493 144.3329605059301 L 636.354927063312 144.2996402455979 L 636.1288584518935 144.26529633111994 L 635.9035608601665 144.22993219685907 L 635.6790568177024 144.19355137919922 L 635.4553687747185 144.15615751619185 L 635.2325190998326 144.1177543471921 L 635.0105300778265 144.07834571248486 L 634.7894239074175 144.03793555290076 L 634.569222699038 143.9965279094221 L 634.3499484726259 143.9541269227787 L 634.1316231554207 143.9107368330339 L 633.9142685797723 143.8663619791605 L 633.6979064809573 143.82100679860693 L 633.4825584950049 143.77467582685347 L 633.2682461565347 143.72737369695864 L 633.0549908966016 143.679105139096 L 632.8428140405541 143.62987498008118 L 632.6317368059008 143.579688142889 L 632.4217803001894 143.52854964616142 L 632.2129655188955 143.4764646037054 L 632.0053133433232 143.4234382239819 L 631.7988445385171 143.36947580958457 L 631.5935797511854 143.31458275671 L 631.389539507636 143.25876455461767 L 631.186744211723 143.20202678508127 L 630.9852141428072 143.1443751218305 L 630.7849694537275 143.08581532998366 L 630.5860301687859 143.02635326547107 L 630.3884161817451 142.9659948744497 L 630.1921472538393 142.9047461927083 L 629.9972430117974 142.84261334506402 L 629.8037229458815 142.77960254474988 L 629.6116064079367 142.71572009279336 L 629.420912609457 142.65097237738644 L 629.231660619663 142.5853658732467 L 629.0438693635961 142.51890714096987 L 628.8575576202254 142.4516028263738 L 628.67274402057 142.3834596598339 L 628.489447045836 142.31448445561 L 628.3076850255677 142.24468411116504 L 628.1274761358162 142.17406560647532 L 627.94883839732 142.10263600333244 L 627.771789673704 142.03040244463722 L 627.5963476696932 141.9573721536853 L 627.4225299293417 141.88355243344492 L 627.2503538342788 141.80895066582661 L 627.0798366019704 141.73357431094496 L 626.9109952839979 141.65743090637264 L 626.7438467643519 141.58052806638665 L 626.5784077577456 141.5028734812069 L 626.4146948079414 141.42447491622718 L 626.2527242860981 141.34534021123872 L 626.0925123891328 141.265477279646 L 625.9340751381017 141.1848941076757 L 625.7774283765979 141.10359875357778 L 625.622587769167 141.02159934681995 L 625.4695687997407 140.93890408727458 L 625.3183867700884 140.85552124439866 L 625.1690567982871 140.77145915640702 L 625.0215938172096 140.68672622943842 L 624.8760125730311 140.6013309367149 L 624.7323276237546 140.5152818176946 L 624.5905533377554 140.42858747721772 L 624.450703892344 140.34125658464606 L 624.3127932723482 140.2532978729961 L 624.1768352687152 140.1647201380657 L 624.0428434771321 140.07553223755454 L 623.9108312966664 139.98574309017835 L 623.780811928426 139.89536167477704 L 623.6527983742395 139.80439702941683 L 623.5268034353556 139.71285825048648 L 623.4028397111633 139.62075449178758 L 623.2809195979316 139.52809496361922 L 623.1610552875702 139.43488893185705 L 623.0432587664103 139.34114571702654 L 622.9275418140058 139.24687469337107 L 622.8139160019556 139.15208528791445 L 622.7023926927462 139.05678697951822 L 622.5929830386156 138.96098929793382 L 622.4856979804379 138.86470182284955 L 622.3805482466296 138.76793418293272 L 622.2775443520766 138.67069605486665 L 622.1766965970822 138.57299716238313 L 622.0780150663381 138.47484727529 L 621.9815096279152 138.37625620849414 L 621.8871899322768 138.27723382102013 L 621.7950654113138 138.17779001502413 L 621.7051452774016 138.07793473480393 L 621.6174385224787 137.9776779658043 L 621.5319539171473 137.87702973361863 L 621.4487000097971 137.77600010298625 L 621.3676851257491 137.67459917678602 L 621.2889173664242 137.57283709502605 L 621.212404608533 137.47072403382973 L 621.1381545032872 137.3682702044181 L 621.0661744756356 137.26548585208872 L 620.9964717235209 137.16238125519112 L 620.9290532171605 137.05896672409915 L 620.8639256983485 136.95525260017968 L 620.8010956797825 136.8512492547587 L 620.7405694444124 136.74696708808406 L 620.6823530448108 136.64241652828557 L 620.6264523025696 136.53760803033202 L 620.5728728077162 136.43255207498592 L 620.5216199181554 136.32725916775524 L 620.4726987591336 136.22173983784296 L 620.4261142227257 136.11600463709416 L 620.3818709673468 136.01006413894075 L 620.3399734172854 135.90392893734432 L 620.3004257622616 135.79760964573654 L 620.263231957008 135.69111689595798 L 620.2283957208741 135.5844613371949 L 620.1959205374544 135.47765363491428 L 620.1658096542404 135.37070446979732 L 620.1380660822952 135.26362453667144 L 620.1126925959528 135.15642454344072 L 620.0896917325408 135.04911521001512 L 620.0690657921264 134.9417072672386 L 620.0508168372862 134.83421145581588 L 620.0349466929008 134.72663852523857 L 620.0214569459713 134.61899923271008 L 620.010348945461 134.5113043420699 L 620.001623802161 134.40356462271745 L 619.9952823885781 134.2957908485348 L 619.9913253388485 134.1879937968096 L 619.9897530486737 134.08018424715718" stroke-miterlimit="10" stroke-width="2.7769845610000004" stroke-dasharray=""/></g><g><g/><text fill="black" stroke="none" font-family="sans-serif" font-size="11pt" font-style="normal" font-weight="normal" text-decoration="normal" x="603.4955374658202" y="162.371920802" text-anchor="start" dominant-baseline="alphabetic" xml:space="preserve">SpDatabase</text></g></g><g><path fill="white" stroke="black" paint-order="fill stroke markers" d=" M 55.429564540625 175.440083442 L 71.764767840625 175.440083442 L 71.764767840625 694.8995483819999 L 55.429564540625 694.8995483819999 L 55.429564540625 175.440083442" stroke-miterlimit="10" stroke-width="1.3612669416666667" stroke-dasharray=""/><path fill="white" stroke="black" paint-order="fill stroke markers" d=" M 312.9307185778646 221.178652682 L 329.26592187786457 221.178652682 L 329.26592187786457 312.655791162 L 312.9307185778646 312.655791162 L 312.9307185778646 221.178652682" stroke-miterlimit="10" stroke-width="1.3612669416666667" stroke-dasharray=""/><path fill="white" stroke="black" paint-order="fill stroke markers" d=" M 436.38406593990885 266.917221922 L 452.71926923990884 266.917221922 L 452.71926923990884 539.715117032 L 436.38406593990885 539.715117032 L 436.38406593990885 266.917221922" stroke-miterlimit="10" stroke-width="1.3612669416666667" stroke-dasharray=""/><path fill="white" stroke="black" paint-order="fill stroke markers" d=" M 635.6715179691405 358.394360402 L 652.0067212691406 358.394360402 L 652.0067212691406 448.237978552 L 635.6715179691405 448.237978552 L 635.6715179691405 358.394360402" stroke-miterlimit="10" stroke-width="1.3612669416666667" stroke-dasharray=""/><path fill="white" stroke="black" paint-order="fill stroke markers" d=" M 635.6715179691405 493.976547792 L 652.0067212691406 493.976547792 L 652.0067212691406 539.715117032 L 635.6715179691405 539.715117032 L 635.6715179691405 493.976547792" stroke-miterlimit="10" stroke-width="1.3612669416666667" stroke-dasharray=""/><path fill="white" stroke="black" paint-order="fill stroke markers" d=" M 635.6715179691405 583.8201659419999 L 652.0067212691406 583.8201659419999 L 652.0067212691406 629.5587351819999 L 635.6715179691405 629.5587351819999 L 635.6715179691405 583.8201659419999" stroke-miterlimit="10" stroke-width="1.3612669416666667" stroke-dasharray=""/><path fill="white" stroke="black" paint-order="fill stroke markers" d=" M 436.38406593990885 583.8201659419999 L 452.71926923990884 583.8201659419999 L 452.71926923990884 629.5587351819999 L 436.38406593990885 629.5587351819999 L 436.38406593990885 583.8201659419999" stroke-miterlimit="10" stroke-width="1.3612669416666667" stroke-dasharray=""/><g><text fill="black" stroke="none" font-family="sans-serif" font-size="11pt" font-style="normal" font-weight="normal" text-decoration="normal" x="114.51670378053387" y="214.644571362" text-anchor="start" dominant-baseline="alphabetic" xml:space="preserve">User data change event</text></g><g><path fill="none" stroke="black" paint-order="fill stroke markers" d=" M 71.764767840625 221.178652682 L 310.20818469453127 221.178652682" stroke-miterlimit="10" stroke-width="1.3612669416666667" stroke-dasharray=""/><g transform="translate(312.9307185778646,221.178652682) translate(-312.9307185778646,-221.178652682)"><path fill="none" stroke="black" paint-order="fill stroke markers" d=" M 299.3180491611979 214.37231797366667 L 311.5694516361979 221.178652682 L 299.3180491611979 227.98498739033334" stroke-miterlimit="10" stroke-width="1.3612669416666667"/></g></g><g><text fill="black" stroke="none" font-family="sans-serif" font-size="11pt" font-style="normal" font-weight="normal" text-decoration="normal" x="351.04619294453124" y="260.383140602" text-anchor="start" dominant-baseline="alphabetic" xml:space="preserve">User data</text></g><g><path fill="none" stroke="black" paint-order="fill stroke markers" d=" M 329.26592187786457 266.917221922 L 433.66153205657554 266.917221922" stroke-miterlimit="10" stroke-width="1.3612669416666667" stroke-dasharray=""/><g transform="translate(436.38406593990885,266.917221922) translate(-436.38406593990885,-266.917221922)"><path fill="black" stroke="none" paint-order="stroke fill markers" d=" M 422.7713965232422 260.1108872136667 L 436.38406593990885 266.917221922 L 422.7713965232422 273.72355663033335 Z"/></g></g><g><text fill="black" stroke="none" font-family="sans-serif" font-size="11pt" font-style="normal" font-weight="normal" text-decoration="normal" x="143.8617278894206" y="306.121709842" text-anchor="start" dominant-baseline="alphabetic" xml:space="preserve">Event received</text></g><g><path fill="none" stroke="black" paint-order="fill stroke markers" d=" M 312.9307185778646 312.655791162 L 74.48730172395832 312.655791162" stroke-miterlimit="10" stroke-width="1.3612669416666667" stroke-dasharray="6.53408132"/><g transform="translate(71.764767840625,312.655791162) translate(-71.764767840625,-312.655791162)"><path fill="none" stroke="black" paint-order="fill stroke markers" d=" M 85.37743725729167 305.8494564536667 L 73.12603478229167 312.655791162 L 85.37743725729167 319.46212587033335" stroke-miterlimit="10" stroke-width="1.3612669416666667"/></g></g><g><text fill="black" stroke="none" font-family="sans-serif" font-size="11pt" font-style="normal" font-weight="normal" text-decoration="normal" x="496.940571827181" y="351.860279082" text-anchor="start" dominant-baseline="alphabetic" xml:space="preserve">Get user by ID</text></g><g><path fill="none" stroke="black" paint-order="fill stroke markers" d=" M 452.71926923990884 358.394360402 L 632.9489840858072 358.394360402" stroke-miterlimit="10" stroke-width="1.3612669416666667" stroke-dasharray=""/><g transform="translate(635.6715179691405,358.394360402) translate(-635.6715179691405,-358.394360402)"><path fill="black" stroke="none" paint-order="stroke fill markers" d=" M 622.0588485524738 351.5880256936667 L 635.6715179691405 358.394360402 L 622.0588485524738 365.20069511033336 Z"/></g></g><g><text fill="black" stroke="none" font-family="sans-serif" font-size="11pt" font-style="normal" font-weight="normal" text-decoration="normal" x="505.89906029153644" y="441.703897232" text-anchor="start" dominant-baseline="alphabetic" xml:space="preserve">Return user</text></g><g><path fill="none" stroke="black" paint-order="fill stroke markers" d=" M 635.6715179691405 448.237978552 L 455.44180312324215 448.237978552" stroke-miterlimit="10" stroke-width="1.3612669416666667" stroke-dasharray="6.53408132"/><g transform="translate(452.71926923990884,448.237978552) translate(-452.71926923990884,-448.237978552)"><path fill="black" stroke="none" paint-order="stroke fill markers" d=" M 466.3319386565755 441.4316438436667 L 452.71926923990884 448.237978552 L 466.3319386565755 455.04431326033335 Z"/></g></g><g><text fill="black" stroke="none" font-family="sans-serif" font-size="11pt" font-style="normal" font-weight="normal" text-decoration="normal" x="504.2634096567708" y="487.442466472" text-anchor="start" dominant-baseline="alphabetic" xml:space="preserve">Update user</text></g><g><path fill="none" stroke="black" paint-order="fill stroke markers" d=" M 452.71926923990884 493.976547792 L 632.9489840858072 493.976547792" stroke-miterlimit="10" stroke-width="1.3612669416666667" stroke-dasharray=""/><g transform="translate(635.6715179691405,493.976547792) translate(-635.6715179691405,-493.976547792)"><path fill="black" stroke="none" paint-order="stroke fill markers" d=" M 622.0588485524738 487.1702130836667 L 635.6715179691405 493.976547792 L 622.0588485524738 500.78288250033336 Z"/></g></g><g><text fill="black" stroke="none" font-family="sans-serif" font-size="11pt" font-style="normal" font-weight="normal" text-decoration="normal" x="505.89906029153644" y="533.1810357119999" text-anchor="start" dominant-baseline="alphabetic" xml:space="preserve">Return user</text></g><g><path fill="none" stroke="black" paint-order="fill stroke markers" d=" M 635.6715179691405 539.715117032 L 455.44180312324215 539.715117032" stroke-miterlimit="10" stroke-width="1.3612669416666667" stroke-dasharray="6.53408132"/><g transform="translate(452.71926923990884,539.715117032) translate(-452.71926923990884,-539.715117032)"><path fill="black" stroke="none" paint-order="stroke fill markers" d=" M 466.3319386565755 532.9087823236666 L 452.71926923990884 539.715117032 L 466.3319386565755 546.5214517403333 Z"/></g></g><g><text fill="black" stroke="none" font-family="sans-serif" font-size="11pt" font-style="normal" font-weight="normal" text-decoration="normal" x="486.7509427815754" y="623.0246538619998" text-anchor="start" dominant-baseline="alphabetic" xml:space="preserve">Could not find user</text></g><g><path fill="none" stroke="black" paint-order="fill stroke markers" d=" M 635.6715179691405 629.5587351819999 L 469.05447253990883 629.5587351819999" stroke-miterlimit="10" stroke-width="1.3612669416666667" stroke-dasharray=""/><path fill="none" stroke="black" paint-order="fill stroke markers" d=" M 460.88687088990883 621.3911335319998 L 477.2220741899088 637.7263368319999 M 460.88687088990883 637.7263368319999 L 477.2220741899088 621.3911335319998" stroke-miterlimit="10" stroke-width="1.3612669416666667"/></g><g><g/><path fill="none" stroke="black" paint-order="fill stroke markers" d=" M 379.21085438990883 382.897165352 L 701.0123311691406 382.897165352 L 701.0123311691406 654.0615401319999 L 379.21085438990883 654.0615401319999 L 379.21085438990883 382.897165352 Z" stroke-miterlimit="10" stroke-width="2.3336004714285714" stroke-dasharray=""/><path fill="white" stroke="black" paint-order="fill stroke markers" d=" M 379.21085438990883 382.897165352 L 379.21085438990883 402.499409312 L 425.5700579869791 402.499409312 L 435.3711799669791 392.698287332 L 435.3711799669791 382.897165352 L 379.21085438990883 382.897165352" stroke-miterlimit="10" stroke-width="2.3336004714285714" stroke-dasharray=""/><text fill="black" stroke="none" font-family="sans-serif" font-size="8.8pt" font-style="normal" font-weight="bold" text-decoration="normal" x="395.5460576899088" y="395.965327992" text-anchor="start" dominant-baseline="alphabetic" xml:space="preserve">alt</text><text fill="black" stroke="none" font-family="sans-serif" font-size="8.8pt" font-style="normal" font-weight="bold" text-decoration="normal" x="451.7063832669791" y="395.965327992" text-anchor="start" dominant-baseline="alphabetic" xml:space="preserve">[User subscribed]</text><g><path fill="none" stroke="black" paint-order="fill stroke markers" d=" M 379.21085438990883 564.2179219819999 L 701.0123311691406 564.2179219819999" stroke-miterlimit="10" stroke-width="2.3336004714285714" stroke-dasharray="4.083800825"/></g><g/><text fill="black" stroke="none" font-family="sans-serif" font-size="8.8pt" font-style="normal" font-weight="bold" text-decoration="normal" x="451.7063832669791" y="577.2860846219999" text-anchor="start" dominant-baseline="alphabetic" xml:space="preserve">[User not subscribed]</text></g><g/></g><g/><g/><g/><g/></g></svg>