<svg version="1.1" xmlns="http://www.w3.org/2000/svg" xmlns:xlink="http://www.w3.org/1999/xlink" width="1688" height="1805"><defs/><g><g/><g/><g/><g/><g/><g/><g/><g/><g/><g/><g/><g/><g/><g/><g/><g/><g/><g/><g/><g/><g/><g/><g/><g/><g/><g/><g/><g/><g/><g/><g><rect fill="white" stroke="none" x="0" y="0" width="1688" height="1805"/></g><g><text fill="black" stroke="none" font-family="sans-serif" font-size="16.5pt" font-style="normal" font-weight="normal" text-decoration="normal" x="750.9053088759279" y="24.50280495" text-anchor="start" dominant-baseline="alphabetic" xml:space="preserve">Message Received</text></g><g><g><path fill="#9F5F9F" stroke="black" paint-order="fill stroke markers" d=" M 8.167601650000003 58.5617038305 L 119.02673073125 58.5617038305 L 119.02673073125 1771.389445852 L 8.167601650000003 1771.389445852 L 8.167601650000003 58.5617038305" stroke-miterlimit="10" stroke-width="1.3612669416666667" stroke-dasharray=""/></g><g><text fill="black" stroke="none" font-family="sans-serif" font-size="11pt" font-style="normal" font-weight="bold" text-decoration="normal" x="44.441839347363285" y="81.43098845050001" text-anchor="start" dominant-baseline="alphabetic" xml:space="preserve">Slack</text></g><g><path fill="none" stroke="black" paint-order="fill stroke markers" d=" M 206.57785908079427 50.394102180500006 L 1570.1374250168947 50.394102180500006 L 1570.1374250168947 1771.389445852 L 206.57785908079427 1771.389445852 L 206.57785908079427 50.394102180500006" stroke-miterlimit="10" stroke-width="1.3612669416666667" stroke-dasharray=""/></g><g><text fill="black" stroke="none" font-family="sans-serif" font-size="11pt" font-style="normal" font-weight="bold" text-decoration="normal" x="807.2696140947429" y="73.2633868005" text-anchor="start" dominant-baseline="alphabetic" xml:space="preserve">Service Provider Slack </text></g><g><path fill="#42b983" stroke="black" paint-order="fill stroke markers" d=" M 1595.1346560635743 58.5617038305 L 1680.7396957893557 58.5617038305 L 1680.7396957893557 1771.389445852 L 1595.1346560635743 1771.389445852 L 1595.1346560635743 58.5617038305" stroke-miterlimit="10" stroke-width="1.3612669416666667" stroke-dasharray=""/></g><g><text fill="black" stroke="none" font-family="sans-serif" font-size="11pt" font-style="normal" font-weight="bold" text-decoration="normal" x="1612.2821924059572" y="81.43098845050001" text-anchor="start" dominant-baseline="alphabetic" xml:space="preserve">Hopper</text></g></g><g><path fill="none" stroke="black" paint-order="fill stroke markers" d=" M 63.597166190625 167.272481792 L 63.597166190625 1805.693372782" stroke-miterlimit="10" stroke-width="1.3612669416666667" stroke-dasharray="12.565541,5.445067766666667"/><path fill="none" stroke="black" paint-order="fill stroke markers" d=" M 279.1226732552083 167.272481792 L 279.1226732552083 1805.693372782" stroke-miterlimit="10" stroke-width="1.3612669416666667" stroke-dasharray="12.565541,5.445067766666667"/><path fill="none" stroke="black" paint-order="fill stroke markers" d=" M 555.7613691279948 167.272481792 L 555.7613691279948 1805.693372782" stroke-miterlimit="10" stroke-width="1.3612669416666667" stroke-dasharray="12.565541,5.445067766666667"/><path fill="none" stroke="black" paint-order="fill stroke markers" d=" M 684.1294398596355 167.272481792 L 684.1294398596355 1805.693372782" stroke-miterlimit="10" stroke-width="1.3612669416666667" stroke-dasharray="12.565541,5.445067766666667"/><path fill="none" stroke="black" paint-order="fill stroke markers" d=" M 810.0601479203776 167.272481792 L 810.0601479203776 1805.693372782" stroke-miterlimit="10" stroke-width="1.3612669416666667" stroke-dasharray="12.565541,5.445067766666667"/><path fill="none" stroke="black" paint-order="fill stroke markers" d=" M 981.376818828353 167.272481792 L 981.376818828353 1805.693372782" stroke-miterlimit="10" stroke-width="1.3612669416666667" stroke-dasharray="12.565541,5.445067766666667"/><path fill="none" stroke="black" paint-order="fill stroke markers" d=" M 1214.80863603903 167.272481792 L 1214.80863603903 1805.693372782" stroke-miterlimit="10" stroke-width="1.3612669416666667" stroke-dasharray="12.565541,5.445067766666667"/><path fill="none" stroke="black" paint-order="fill stroke markers" d=" M 1521.6262412135743 167.272481792 L 1521.6262412135743 1805.693372782" stroke-miterlimit="10" stroke-width="1.3612669416666667" stroke-dasharray="12.565541,5.445067766666667"/><path fill="none" stroke="black" paint-order="fill stroke markers" d=" M 1637.937175926465 167.272481792 L 1637.937175926465 1805.693372782" stroke-miterlimit="10" stroke-width="1.3612669416666667" stroke-dasharray="12.565541,5.445067766666667"/></g><g><g><path fill="white" stroke="black" paint-order="fill stroke markers" d=" M 96.022544741125 120.39044832100001 A 24.2577769005 24.2577769005 0 1 1 96.02253261223755 120.36619054814246 M 32.560279920625 94.74417914 L 32.560279920625 146.03671750200002 M 31.171787640124997 120.39044832100001 L 47.506990940125 120.39044832100001" stroke-miterlimit="10" stroke-width="2.7769845610000004" stroke-dasharray=""/></g><g><g/><text fill="black" stroke="none" font-family="sans-serif" font-size="11pt" font-style="normal" font-weight="normal" text-decoration="normal" x="16.335203300000003" y="162.371920802" text-anchor="start" dominant-baseline="alphabetic" xml:space="preserve">SlackEventApi</text></g><g><path fill="white" stroke="black" paint-order="fill stroke markers" d=" M 311.5480518057083 120.39044832100001 A 24.2577769005 24.2577769005 0 1 1 311.5480396768209 120.36619054814246 M 248.08578698520833 94.74417914 L 248.08578698520833 146.03671750200002 M 246.69729470470833 120.39044832100001 L 263.0324980047083 120.39044832100001" stroke-miterlimit="10" stroke-width="2.7769845610000004" stroke-dasharray=""/></g><g><g/><text fill="black" stroke="none" font-family="sans-serif" font-size="11pt" font-style="normal" font-weight="normal" text-decoration="normal" x="214.74546073079426" y="162.371920802" text-anchor="start" dominant-baseline="alphabetic" xml:space="preserve">SpMessageHandler</text></g><g><path fill="white" stroke="black" paint-order="fill stroke markers" d=" M 580.0191460284948 120.39044832100001 A 24.2577769005 24.2577769005 0 1 1 580.0191338996074 120.36619054814246 M 552.4943284679948 96.1326714205 L 562.2954504479948 87.96506977050001 M 552.4943284679948 96.1326714205 L 562.2954504479948 104.3002730705" stroke-miterlimit="10" stroke-width="2.7769845610000004" stroke-dasharray=""/></g><g><g/><text fill="black" stroke="none" font-family="sans-serif" font-size="11pt" font-style="normal" font-weight="normal" text-decoration="normal" x="492.6117948482097" y="162.371920802" text-anchor="start" dominant-baseline="alphabetic" xml:space="preserve">SpMessageService</text></g><g><path fill="white" stroke="black" paint-order="fill stroke markers" d=" M 708.3872167601354 120.39044832100001 A 24.2577769005 24.2577769005 0 1 1 708.387204631248 120.36619054814246 M 680.8623991996354 96.1326714205 L 690.6635211796354 87.96506977050001 M 680.8623991996354 96.1326714205 L 690.6635211796354 104.3002730705" stroke-miterlimit="10" stroke-width="2.7769845610000004" stroke-dasharray=""/></g><g><g/><text fill="black" stroke="none" font-family="sans-serif" font-size="11pt" font-style="normal" font-weight="normal" text-decoration="normal" x="635.24614670778" y="162.371920802" text-anchor="start" dominant-baseline="alphabetic" xml:space="preserve">SpUserService</text></g><g><path fill="white" stroke="black" paint-order="fill stroke markers" d=" M 834.3179248208776 120.39044832100001 A 24.2577769005 24.2577769005 0 1 1 834.3179126919902 120.36619054814246 M 806.7931072603776 96.1326714205 L 816.5942292403776 87.96506977050001 M 806.7931072603776 96.1326714205 L 816.5942292403776 104.3002730705" stroke-miterlimit="10" stroke-width="2.7769845610000004" stroke-dasharray=""/></g><g><g/><text fill="black" stroke="none" font-family="sans-serif" font-size="11pt" font-style="normal" font-weight="normal" text-decoration="normal" x="749.3479363114909" y="162.371920802" text-anchor="start" dominant-baseline="alphabetic" xml:space="preserve">SpChannelService</text></g><g><path fill="white" stroke="black" paint-order="fill stroke markers" d=" M 1005.6345957288529 120.39044832100001 A 24.2577769005 24.2577769005 0 1 1 1005.6345835999655 120.36619054814246 M 978.1097781683529 96.1326714205 L 987.9109001483529 87.96506977050001 M 978.1097781683529 96.1326714205 L 987.9109001483529 104.3002730705" stroke-miterlimit="10" stroke-width="2.7769845610000004" stroke-dasharray=""/></g><g><g/><text fill="black" stroke="none" font-family="sans-serif" font-size="11pt" font-style="normal" font-weight="normal" text-decoration="normal" x="907.6331283376303" y="162.371920802" text-anchor="start" dominant-baseline="alphabetic" xml:space="preserve">SpSubscriptionService</text></g><g><path fill="white" stroke="black" paint-order="fill stroke markers" d=" M 1239.06641293953 118.16886067220001 A 24.2577769005 24.2577769005 0 1 1 1239.0664008106426 118.14460289934246 M 1189.16236685803 144.6482252215 L 1237.67792065903 144.6482252215" stroke-miterlimit="10" stroke-width="2.7769845610000004" stroke-dasharray=""/></g><g><g/><text fill="black" stroke="none" font-family="sans-serif" font-size="11pt" font-style="normal" font-weight="normal" text-decoration="normal" x="1184.6547435219402" y="162.371920802" text-anchor="start" dominant-baseline="alphabetic" xml:space="preserve">SpCache</text></g><g><path fill="white" stroke="black" paint-order="fill stroke markers" d=" M 1497.7768443955742 135.255483324 L 1497.7768443955742 100.95155639400002 L 1545.4756380315744 100.95155639400002 L 1545.4756380315744 135.255483324" stroke-miterlimit="10" stroke-width="2.7769845610000004" stroke-dasharray=""/><path fill="white" stroke="black" paint-order="fill stroke markers" d=" M 1545.4756380315744 99.75908655310002 L 1545.4744455716707 99.86689709801664 L 1545.4708683112046 99.97469686196861 L 1545.4649066078991 100.08247506506937 L 1545.45656105792 100.19022092958842 L 1545.4458324958148 100.2979236810291 L 1545.432721994431 100.40557254920603 L 1545.4172308648076 100.51315676932207 L 1545.399360656045 100.62066558304487 L 1545.379113155149 100.72808823958268 L 1545.3564903868528 100.83541399675931 L 1545.3314946134144 100.94263212208854 L 1545.3041283343905 101.04973189384714 L 1545.2743942863858 101.1567026021472 L 1545.2422954427807 101.26353355000704 L 1545.2078350134325 101.37021405442088 L 1545.1710164443557 101.4767334474272 L 1545.1318434173766 101.58308107717545 L 1545.0903198497647 101.68924630899127 L 1545.0464498938427 101.79521852643998 L 1545.0002379365694 101.90098713238812 L 1544.951688599102 102.00654155006325 L 1544.900806736334 102.11187122411154 L 1544.847597436409 102.21696562165339 L 1544.7920660202128 102.32181423333661 L 1544.734218040841 102.4264065743874 L 1544.6740592830427 102.53073218565882 L 1544.611595762644 102.63478063467669 L 1544.546833725945 102.7385415166828 L 1544.4797796490948 102.84200445567542 L 1544.4104402374458 102.94515910544688 L 1544.3388224248813 103.04799515061815 L 1544.2649333731226 103.15050230767042 L 1544.1887804710134 103.2526703259734 L 1544.1103713337807 103.3544889888104 L 1544.0297138022727 103.4559481144 L 1543.9468159421751 103.55703755691417 L 1543.8616860432053 103.6577472074929 L 1543.774332618282 103.75806699525508 L 1543.6847644026748 103.8579868883055 L 1543.5929903531305 103.95749689473814 L 1543.4990196469782 104.05658706363529 L 1543.4028616812097 104.15524748606262 L 1543.3045260715414 104.25346829606012 L 1543.2040226514528 104.35123967162862 L 1543.1013614712015 104.44855183571204 L 1542.9965527968204 104.54539505717509 L 1542.8896071090896 104.6417596517763 L 1542.7805351024888 104.73763598313651 L 1542.6693476841274 104.83301446370251 L 1542.5560559726548 104.92788555570571 L 1542.440671297148 105.02223977211597 L 1542.3232051959778 105.11606767759027 L 1542.203669415657 105.20935988941625 L 1542.0820759096637 105.30210707845049 L 1541.9584368372473 105.39429997005135 L 1541.8327645622119 105.48592934500653 L 1541.7050716516803 105.57698604045486 L 1541.5753708748375 105.66746095080268 L 1541.4436752016525 105.75734502863436 L 1541.3099978015832 105.84662928561703 L 1541.1743520422583 105.93530479339938 L 1541.0367514881405 106.02336268450453 L 1540.8972098991705 106.11079415321676 L 1540.7557412293913 106.19759045646204 L 1540.6123596255516 106.28374291468239 L 1540.4670794256922 106.36924291270377 L 1540.3199151577126 106.45408190059764 L 1540.1708815379163 106.5382513945359 L 1540.0199934695415 106.62174297763931 L 1539.8672660412692 106.70454830081913 L 1539.7127145257148 106.78665908361204 L 1539.5563543779012 106.86806711500819 L 1539.398201233713 106.94876425427228 L 1539.2382709083329 107.02874243175762 L 1539.0765793946596 107.10799364971314 L 1538.9131428617102 107.18650998308306 L 1538.7479776530017 107.26428358029946 L 1538.5811002849175 107.34130666406747 L 1538.412527445055 107.41757153214289 L 1538.2422759905578 107.49307055810243 L 1538.0703629464297 107.56779619210644 L 1537.8968055038317 107.6417409616538 L 1537.7216210183633 107.71489747232916 L 1537.5448270083273 107.7872584085424 L 1537.3664411529771 107.85881653426023 L 1537.18648129075 107.9295646937297 L 1537.0049654174818 107.9994958121938 L 1536.821911684609 108.06860289659899 L 1536.6373383973519 108.1368790362944 L 1536.4512640128858 108.20431740372297 L 1536.2637071384938 108.27091125510412 L 1536.0746865297072 108.33665393110826 L 1535.8842210884293 108.40153885752254 L 1535.6923298610454 108.46555954590839 L 1535.4990320365187 108.52870959425034 L 1535.3043469444701 108.59098268759617 L 1535.108294053247 108.65237259868843 L 1534.9108929679749 108.71287318858718 L 1534.7121634285977 108.77247840728386 L 1534.512125307904 108.83118229430623 L 1534.310798609539 108.88897897931456 L 1534.1082034660049 108.94586268268847 L 1533.9043601366473 109.00182771610504 L 1533.6992890056288 109.05686848310758 L 1533.4930105798921 109.11097947966525 L 1533.2855454871078 109.16415529472346 L 1533.076914473612 109.21639061074505 L 1532.8671384023326 109.26768020424194 L 1532.6562382507016 109.31801894629751 L 1532.4442351085586 109.36740180307952 L 1532.231150176041 109.41582383634344 L 1532.0170047614645 109.46328020392627 L 1531.8018202791923 109.50976616023082 L 1531.5856182474931 109.55527705670022 L 1531.36842028639 109.5998083422827 L 1531.1502481154978 109.64335556388684 L 1530.9311235518524 109.68591436682678 L 1530.711068507727 109.72748049525767 L 1530.490104988443 109.7680497926013 L 1530.268255090168 109.80761820196176 L 1530.045540997707 109.84618176653109 L 1529.8219849822835 109.88373662998495 L 1529.597609399313 109.92027903686831 L 1529.3724366861666 109.95580533297093 L 1529.1464893599282 109.99031196569278 L 1528.919790015142 110.02379548439939 L 1528.6923613215536 110.05625254076675 L 1528.464226021843 110.08767988911629 L 1528.2354069293494 110.11807438673935 L 1528.0059269257922 110.14743299421153 L 1527.7758089589802 110.17575277569651 L 1527.545076040518 110.20303089923975 L 1527.3137512435057 110.22926463705164 L 1527.0818577002299 110.25445136578027 L 1526.8494185998518 110.27858856677372 L 1526.6164571860877 110.30167382633203 L 1526.3829967548847 110.32370483594849 L 1526.1490606520917 110.34467939254047 L 1525.914672271124 110.3645953986698 L 1525.679855050624 110.38345086275248 L 1525.4446324721182 110.40124389925779 L 1525.2090280576685 110.41797272889693 L 1524.9730653675203 110.43363567880087 L 1524.7367679977456 110.44823118268765 L 1524.5001595778845 110.46175778101907 L 1524.263263768582 110.47421412114657 L 1524.0261042592215 110.4855989574465 L 1523.7887047655563 110.49591115144473 L 1523.5510890273379 110.50514967193044 L 1523.3132808059422 110.5133135950593 L 1523.0753038819932 110.5204021044458 L 1522.8371820529849 110.52641449124488 L 1522.5989391309015 110.53135015422289 L 1522.3605989398372 110.53520859981765 L 1522.1221853136121 110.53798944218781 L 1521.8837220933906 110.53969240325145 L 1521.6452331252954 110.54031731271388 L 1521.406742258025 110.53986410808467 L 1521.168273340467 110.53833283468393 L 1520.9298502193149 110.5357236456377 L 1520.6914967366818 110.53203680186272 L 1520.4532367277175 110.52727267204028 L 1520.2150940182241 110.52143173257942 L 1519.9770924222744 110.5145145675692 L 1519.7392557398296 110.50652186872036 L 1519.5016077543596 110.4974544352961 L 1519.2641722304652 110.48731317403227 L 1519.0269729115005 110.47609909904648 L 1518.7900335172 110.46381333173692 L 1518.5533777413057 110.45045710067006 L 1518.317029249198 110.4360317414579 L 1518.081011675529 110.42053869662433 L 1517.8453486218593 110.40397951546092 L 1517.6100636542983 110.38635585387198 L 1517.3751803011462 110.367669474209 L 1517.140722050543 110.34792224509437 L 1516.906712348118 110.32711614123453 L 1516.6731745946468 110.30525324322254 L 1516.4401321437097 110.28233573732997 L 1516.207608299358 110.25836591528834 L 1515.9756263137822 110.23334617405986 L 1515.7442093849875 110.2072790155978 L 1515.513380654474 110.18016704659628 L 1515.2831632049224 110.15201297822964 L 1515.053580057886 110.1228196258812 L 1514.8246541714877 110.09258990886192 L 1514.5964084381258 110.06132685011828 L 1514.368865682183 110.0290335759301 L 1514.1420486577458 109.99571331559791 L 1513.9159800463271 109.96136940111997 L 1513.6906824546002 109.9260052668591 L 1513.4661784121363 109.88962444919923 L 1513.2424903691524 109.85223058619187 L 1513.0196406942664 109.81382741719212 L 1512.7976516722604 109.77441878248487 L 1512.5765455018511 109.73400862290077 L 1512.356344293472 109.6926009794221 L 1512.1370700670595 109.6501999927787 L 1511.9187447498543 109.60680990303389 L 1511.7013901742062 109.56243504916051 L 1511.485028075391 109.51707986860694 L 1511.2696800894387 109.47074889685346 L 1511.0553677509683 109.42344676695863 L 1510.8421124910353 109.37517820909602 L 1510.6299356349878 109.3259480500812 L 1510.4188584003346 109.27576121288904 L 1510.2089018946233 109.22462271616142 L 1510.0000871133293 109.17253767370543 L 1509.792434937757 109.1195112939819 L 1509.5859661329507 109.0655488795846 L 1509.3807013456192 109.01065582671 L 1509.1766611020696 108.95483762461768 L 1508.9738658061567 108.89809985508128 L 1508.772335737241 108.84044819183053 L 1508.5720910481612 108.78188839998367 L 1508.3731517632198 108.7224263354711 L 1508.175537776179 108.66206794444972 L 1507.979268848273 108.60081926270831 L 1507.7843646062313 108.53868641506405 L 1507.5908445403152 108.47567561474989 L 1507.3987280023705 108.41179316279337 L 1507.2080342038907 108.34704544738645 L 1507.0187822140967 108.2814389432467 L 1506.8309909580298 108.21498021096988 L 1506.6446792146592 108.14767589637383 L 1506.4598656150038 108.07953272983391 L 1506.2765686402697 108.01055752561001 L 1506.0948066200015 107.94075718116505 L 1505.9145977302499 107.87013867647532 L 1505.7359599917536 107.79870907333245 L 1505.5589112681378 107.72647551463722 L 1505.383469264127 107.6534452236853 L 1505.2096515237754 107.57962550344493 L 1505.0374754287125 107.50502373582663 L 1504.8669581964043 107.42964738094497 L 1504.6981168784316 107.35350397637264 L 1504.5309683587857 107.27660113638665 L 1504.3655293521792 107.1989465512069 L 1504.2018164023752 107.12054798622721 L 1504.0398458805319 107.04141328123873 L 1503.8796339835665 106.96155034964602 L 1503.7211967325354 106.8809671776757 L 1503.5645499710317 106.7996718235778 L 1503.4097093636008 106.71767241681998 L 1503.2566903941745 106.63497715727459 L 1503.1055083645222 106.55159431439867 L 1502.9561783927209 106.46753222640703 L 1502.8087154116433 106.38279929943842 L 1502.663134167465 106.29740400671491 L 1502.5194492181884 106.21135488769461 L 1502.3776749321892 106.12466054721774 L 1502.2378254867776 106.03732965464607 L 1502.099914866782 105.94937094299611 L 1501.963956863149 105.8607932080657 L 1501.829965071566 105.77160530755455 L 1501.6979528911002 105.68181616017836 L 1501.56793352286 105.59143474477705 L 1501.4399199686734 105.50047009941686 L 1501.3139250297895 105.40893132048649 L 1501.189961305597 105.31682756178758 L 1501.0680411923654 105.22416803361924 L 1500.948176882004 105.13096200185706 L 1500.830380360844 105.03721878702656 L 1500.7146634084395 104.94294776337108 L 1500.6010375963895 104.84815835791446 L 1500.4895142871799 104.75286004951823 L 1500.3801046330493 104.65706236793383 L 1500.2728195748716 104.56077489284957 L 1500.1676698410633 104.46400725293273 L 1500.0646659465103 104.36676912486666 L 1499.963818191516 104.26907023238314 L 1499.865136660772 104.17092034529 L 1499.768631222349 104.07232927849415 L 1499.6743115267104 103.97330689102013 L 1499.5821870057475 103.87386308502415 L 1499.4922668718355 103.77400780480394 L 1499.4045601169123 103.67375103580433 L 1499.319075511581 103.57310280361865 L 1499.2358216042308 103.47207317298626 L 1499.154806720183 103.37067224678601 L 1499.076038960858 103.26891016502606 L 1498.9995262029668 103.16679710382974 L 1498.925276097721 103.0643432744181 L 1498.8532960700693 102.96155892208871 L 1498.7835933179547 102.85845432519113 L 1498.716174811594 102.75503979409915 L 1498.651047292782 102.65132567017969 L 1498.5882172742163 102.5473223247587 L 1498.5276910388461 102.44304015808407 L 1498.4694746392447 102.33848959828556 L 1498.4135738970033 102.23368110033203 L 1498.3599944021498 102.12862514498595 L 1498.3087415125892 102.02333223775527 L 1498.2598203535672 101.91781290784299 L 1498.2132358171596 101.81207770709416 L 1498.1689925617804 101.70613720894077 L 1498.1270950117191 101.60000200734433 L 1498.0875473566953 101.49368271573654 L 1498.0503535514417 101.387189965958 L 1498.0155173153078 101.2805344071949 L 1497.9830421318882 101.17372670491429 L 1497.952931248674 101.06677753979733 L 1497.925187676729 100.95969760667145 L 1497.8998141903865 100.85249761344073 L 1497.8768133269746 100.74518828001514 L 1497.8561873865601 100.63778033723861 L 1497.83793843172 100.5302845258159 L 1497.8220682873346 100.42271159523858 L 1497.808578540405 100.31507230271008 L 1497.797470539895 100.20737741206993 L 1497.7887453965948 100.09963769271747 L 1497.7824039830118 99.99186391853482 L 1497.778446933282 99.88406686680962 L 1497.7768746431075 99.77625731715719 L 1497.7776872697154 99.66844605044267 L 1497.780884731844 99.56064384770288 L 1497.7864667097497 99.45286148906825 L 1497.7944326452393 99.34510975268485 L 1497.8047817417262 99.23739941363651 L 1497.817512964309 99.12974124286738 L 1497.8326250398761 99.02214600610482 L 1497.8501164572326 98.91462446278284 L 1497.8699854672514 98.80718736496618 L 1497.8922300830482 98.69984545627509 L 1497.9168480801795 98.59260947081098 L 1497.9438369968666 98.48549013208303 L 1497.97319413424 98.37849815193587 L 1498.0049165566104 98.27164422947833 L 1498.0390010917622 98.16493905001363 L 1498.0754443312703 98.05839328397077 L 1498.114242630841 97.9520175858376 L 1498.1553921106768 97.84582259309526 L 1498.1988886558638 97.73981892515455 L 1498.2447279167839 97.6340171822939 L 1498.292905309549 97.52842794459946 L 1498.3434160164602 97.423061770907 L 1498.3962549864889 97.31792919774607 L 1498.451416935782 97.21304073828638 L 1498.5088963481905 97.10840688128647 L 1498.5686874758214 97.00403809004486 L 1498.6307843396114 96.89994480135368 L 1498.6951807299258 96.79613742445507 L 1498.7618702071795 96.6926263400002 L 1498.8308461024803 96.58942189901128 L 1498.9021015182961 96.48653442184639 L 1498.9756293291448 96.38397419716749 L 1499.0514221823064 96.28175148091161 L 1499.129472498559 96.17987649526519 L 1499.2097724729356 96.07835942764187 L 1499.292314075506 95.97721042966384 L 1499.377089052179 95.8764396161466 L 1499.4640889255268 95.77605706408754 L 1499.5533049956352 95.67607281165819 L 1499.6447283409711 95.57649685720048 L 1499.7383498192767 95.47733915822688 L 1499.8341600684819 95.37860963042466 L 1499.9321495076415 95.28031814666433 L 1500.0323083378933 95.18247453601234 L 1500.1346265434377 95.08508858274823 L 1500.2390938925396 94.98817002538617 L 1500.345699938551 94.89172855570112 L 1500.4544340209563 94.79577381775971 L 1500.5652852664377 94.70031540695574 L 1500.678242589963 94.60536286905077 L 1500.793294695894 94.51092569921943 L 1500.9104300791162 94.41701334110004 L 1501.0296370261888 94.32363518585014 L 1501.1509036165162 94.23080057120742 L 1501.2742177235405 94.13851878055601 L 1501.399567015954 94.04679904199807 L 1501.5269389589316 93.955650527431 L 1501.6563208153855 93.86508235163033 L 1501.7876996472376 93.77510357133815 L 1501.9210623167141 93.68572318435751 L 1502.0563954876595 93.59695012865262 L 1502.1936856268694 93.5087932814551 L 1502.3329190054442 93.42126145837616 L 1502.474081700162 93.33436341252519 L 1502.6171595948713 93.24810783363438 L 1502.7621383819014 93.1625033471897 L 1502.9090035634947 93.07755851356848 L 1503.0577404532553 92.9932818271833 L 1503.2083341776183 92.90968171563254 L 1503.3607696773365 92.82676653885773 L 1503.5150317089874 92.74454458830742 L 1503.671104846496 92.66302408610815 L 1503.828973482679 92.58221318424222 L 1503.9886218308038 92.50211996373247 L 1504.150033926169 92.4227524338342 L 1504.3131936276993 92.34411853123427 L 1504.478084619561 92.26622611925741 L 1504.644690412792 92.1890829870799 L 1504.8129943469517 92.11269684895069 L 1504.982979591787 92.0370753434199 L 1505.1546291489153 91.9622260325751 L 1505.3279258535235 91.888156401285 L 1505.5028523760861 91.81487385645099 L 1505.6793912240962 91.74238572626649 L 1505.8575247438164 91.67069925948411 L 1506.0372351220428 91.59982162469079 L 1506.2185043878878 91.52975990959095 L 1506.4013144145756 91.4605211202977 L 1506.5856469212558 91.3921121806323 L 1506.7714834748315 91.32453993143167 L 1506.958805491802 91.25781112986445 L 1507.147594240122 91.1919324487552 L 1507.3378308410738 91.12691047591709 L 1507.529496271156 91.06275171349324 L 1507.722571363985 90.99946257730645 L 1507.9170368122127 90.93704939621756 L 1508.1128731694562 90.87551841149269 L 1508.3100608522432 90.81487577617904 L 1508.5085801419693 90.75512755448958 L 1508.7084111868712 90.69627972119672 L 1508.9095340040112 90.63833816103474 L 1509.1119284812748 90.58130866811136 L 1509.315574379383 90.52519694532836 L 1509.5204513339158 90.47000860381125 L 1509.7265388573485 90.41574916234819 L 1509.9338163411005 90.36242404683813 L 1510.142263057596 90.31003858974816 L 1510.351858162337 90.25859802958036 L 1510.5625806959881 90.20810751034786 L 1510.7744095864712 90.1585720810605 L 1510.9873236510737 90.10999669521995 L 1511.2013015985667 90.0623862103243 L 1511.416322031334 90.01574538738238 L 1511.6323634475111 89.9700788904376 L 1511.8494042431369 89.92539128610161 L 1512.067422714312 89.88168704309761 L 1512.2863970593717 89.83897053181346 L 1512.5063053810634 89.79724602386472 L 1512.7271256887386 89.75651769166738 L 1512.9488359005502 89.71678960802075 L 1513.171413845662 89.67806574570005 L 1513.3948372664652 89.64034997705929 L 1513.6190838208033 89.60364607364387 L 1513.8441310842084 89.56795770581357 L 1514.069956552141 89.53328844237541 L 1514.296537642243 89.49964175022686 L 1514.5238516965942 89.46702099400908 L 1514.7518759839784 89.43542943577052 L 1514.9805877021568 89.40487023464067 L 1515.2099639801484 89.37534644651419 L 1515.4399818805164 89.34686102374526 L 1515.6706184016625 89.31941681485246 L 1515.901850480127 89.29301656423378 L 1516.1336549928944 89.2676629118923 L 1516.3660087597068 89.2433583931721 L 1516.598888545381 89.22010543850483 L 1516.8322710621326 89.19790637316656 L 1517.0661329719042 89.17676341704532 L 1517.3004508887 89.15667868441913 L 1517.5352013809236 89.13765418374449 L 1517.7703609737212 89.11969181745562 L 1518.0059061513296 89.10279338177418 L 1518.2418133594272 89.08696056652965 L 1518.47805900749 89.0721949549904 L 1518.7146194711497 89.05849802370521 L 1518.9514710945575 89.04587114235585 L 1519.188590192748 89.03431557361992 L 1519.4259530540096 89.02383247304465 L 1519.6635359422532 89.01442288893136 L 1519.9013150993887 89.00608776223065 L 1520.139266747698 88.99882792644821 L 1520.3773670922149 88.9926441075616 L 1520.6155923231029 88.98753692394752 L 1520.8539186180378 88.9835068863201 L 1521.092322144589 88.98055439767974 L 1521.3307790626018 88.97867975327284 L 1521.5692655265836 88.97788314056228 L 1521.8077576880867 88.97816463920867 L 1522.0462316980936 88.97952422106238 L 1522.284663709402 88.98196175016635 L 1522.5230298790093 88.98547698276971 L 1522.7613063704978 88.99006956735212 L 1522.999469356416 88.99573904465896 L 1523.2374950206647 89.00248484774721 L 1523.4753595608752 89.0103063020422 L 1523.713039190792 89.019202625405 L 1523.9505101426498 89.0291729282107 L 1524.1877486695519 89.04021621343732 L 1524.424731047843 89.05233137676555 L 1524.6614335794825 89.06551720668914 L 1524.8978325944147 89.0797723846361 L 1525.1339044529352 89.0950954851005 L 1525.369625548055 89.11148497578507 L 1525.6049723078606 89.12893921775441 L 1525.8399211978724 89.14745646559885 L 1526.0744487233974 89.16703486760905 L 1526.308531431878 89.18767246596111 L 1526.5421459152387 89.20936719691241 L 1526.775268812226 89.23211689100792 L 1527.007876810744 89.2559192732972 L 1527.239946650187 89.28077196356185 L 1527.4714551237646 89.30667247655354 L 1527.7023790808219 89.33361822224259 L 1527.9326954291562 89.36160650607685 L 1528.162381137324 89.39063452925127 L 1528.3914132369464 89.42069938898774 L 1528.619768825004 89.45179807882532 L 1528.8474250661286 89.48392748892095 L 1529.0743591948853 89.5170844063604 L 1529.3005485180508 89.55126551547954 L 1529.525970416881 89.58646739819596 L 1529.750602349374 89.62268653435072 L 1529.9744218525236 89.65991930206037 L 1530.197406544566 89.69816197807918 L 1530.4195341272182 89.73741073817143 L 1530.6407823879067 89.7776616574938 L 1530.8611292019898 89.8189107109879 L 1531.0805525349697 89.86115377378276 L 1531.2990304446962 89.9043866216073 L 1531.51654108356 89.94860493121277 L 1531.7330627006788 89.99380428080505 L 1531.9485736440713 90.03998015048685 L 1532.1630523628226 90.0871279227097 L 1532.3764774092394 90.13524288273562 L 1532.5888274409954 90.18432021910876 L 1532.800081223264 90.23435502413635 L 1533.0102176308433 90.28534229437957 L 1533.2192156502674 90.33727693115392 L 1533.4270543819084 90.39015374103897 L 1533.6337130420668 90.44396743639781 L 1533.8391709650484 90.49871263590576 L 1534.0434076052325 90.55438386508847 L 1534.2464025391248 90.6109755568694 L 1534.4481354674015 90.66848205212658 L 1534.6485862169375 90.72689760025837 L 1534.8477347428252 90.78621635975864 L 1535.0455611303778 90.84643239880089 L 1535.2420455971214 90.90753969583137 L 1535.437168494773 90.96953214017132 L 1535.6309103112058 91.03240353262795 L 1535.8232516723992 91.09614758611443 L 1536.0141733443777 91.1607579262785 L 1536.203656235133 91.22622809214002 L 1536.3916813965338 91.29255153673692 L 1536.5782300262208 91.35972162778006 L 1536.7632834694866 91.42773164831627 L 1536.946823221141 91.49657479740019 L 1537.1288309273616 91.56624419077427 L 1537.3092883875295 91.63673286155725 L 1537.4881775560493 91.70803376094076 L 1537.6654805441533 91.78013975889431 L 1537.84117962169 91.85304364487818 L 1538.0152572188983 91.92673812856452 L 1538.1876959281635 92.00121584056639 L 1538.3584785057585 92.07646933317463 L 1538.5275878735679 92.15249108110271 L 1538.6950071207955 92.22927348223918 L 1538.8607195056563 92.3068088584079 L 1539.02470845705 92.3850894561359 L 1539.186957576218 92.4641074474286 L 1539.3474506383836 92.54385493055275 L 1539.5061715943743 92.62432393082648 L 1539.663104572227 92.70550640141681 L 1539.8182338787744 92.78739422414436 L 1539.971544001215 92.86997921029509 L 1540.123019608665 92.95325310143917 L 1540.272645553689 93.03720757025692 L 1540.420406873818 93.12183422137142 L 1540.5662887930423 93.20712459218805 L 1540.7102767232923 93.29307015374081 L 1540.8523562658943 93.3796623115452 L 1540.9925132130131 93.46689240645757 L 1541.1307335490703 93.55475171554113 L 1541.2670034521477 93.64323145293818 L 1541.4013092953685 93.73232277074871 L 1541.5336376482603 93.8220167599152 L 1541.663975278098 93.91230445111346 L 1541.7923091512273 94.00317681564962 L 1541.918626434368 94.09462476636294 L 1542.0429144958966 94.18663915853458 L 1542.1651609071112 94.27921079080198 L 1542.2853534434719 94.37233040607906 L 1542.4034800858253 94.46598869248189 L 1542.519529021606 94.56017628425988 L 1542.633488646017 94.65488376273235 L 1542.7453475631905 94.75010165723037 L 1542.8550945873285 94.84582044604385 L 1542.9627187438196 94.94203055737364 L 1543.068209270338 95.03872237028881 L 1543.1715556179192 95.13588621568863 L 1543.272747452014 95.23351237726953 L 1543.371774653524 95.33159109249674 L 1543.468627319811 95.43011255358043 L 1543.5632957656894 95.5290669084566 L 1543.6557705243933 95.62844426177223 L 1543.746042348524 95.72823467587482 L 1543.8341022109744 95.82842817180608 L 1543.9199413058316 95.92901473029994 L 1544.0035510492573 96.02998429278436 L 1544.0849230803474 96.13132676238725 L 1544.1640492619663 96.23303200494607 L 1544.2409216815618 96.33508985002135 L 1544.315532651956 96.4374900919136 L 1544.387874712114 96.54022249068399 L 1544.4579406278901 96.64327677317824 L 1544.5257233927512 96.746642634054 L 1544.5912162284772 96.85030973681128 L 1544.654412585839 96.95426771482623 L 1544.7153061452536 97.05850617238767 L 1544.773890817416 97.1630146857367 L 1544.8301607439078 97.26778280410907 L 1544.884110297783 97.37280005078027 L 1544.9357340841311 97.47805592411314 L 1544.985026940617 97.58353989860805 L 1545.0319839379954 97.68924142595546 L 1545.0766003806064 97.79514993609072 L 1545.1188718068424 97.90125483825108 L 1545.1587939895962 98.00754552203473 L 1545.1963629366828 98.11401135846187 L 1545.231574891239 98.22064170103758 L 1545.2644263320983 98.32742588681647 L 1545.294913974144 98.43435323746894 L 1545.3230347686379 98.54141306034904 L 1545.3487859035233 98.64859464956368 L 1545.3721648037083 98.75588728704328 L 1545.3931691313228 98.86328024361347 L 1545.4117967859509 98.97076278006811 L 1545.4280459048432 99.07832414824313 L 1545.4419148631011 99.18595359209134 L 1545.4534022738403 99.29364034875802 L 1545.4625069883296 99.40137364965727 L 1545.4692280961046 99.50914272154878 L 1545.4735649250608 99.61693678761516 L 1545.4755170415183 99.72474506853963 M 1545.4756380315744 134.0630134831 L 1545.4744455716707 134.17082402801663 L 1545.4708683112046 134.2786237919686 L 1545.4649066078991 134.38640199506935 L 1545.45656105792 134.49414785958842 L 1545.4458324958148 134.60185061102908 L 1545.432721994431 134.70949947920602 L 1545.4172308648076 134.81708369932204 L 1545.399360656045 134.92459251304487 L 1545.379113155149 135.03201516958265 L 1545.3564903868528 135.1393409267593 L 1545.3314946134144 135.24655905208851 L 1545.3041283343905 135.35365882384713 L 1545.2743942863858 135.46062953214718 L 1545.2422954427807 135.56746048000701 L 1545.2078350134325 135.67414098442086 L 1545.1710164443557 135.78066037742718 L 1545.1318434173766 135.88700800717544 L 1545.0903198497647 135.99317323899126 L 1545.0464498938427 136.09914545643997 L 1545.0002379365694 136.2049140623881 L 1544.951688599102 136.31046848006324 L 1544.900806736334 136.41579815411154 L 1544.847597436409 136.5208925516534 L 1544.7920660202128 136.62574116333658 L 1544.734218040841 136.7303335043874 L 1544.6740592830427 136.8346591156588 L 1544.611595762644 136.9387075646767 L 1544.546833725945 137.0424684466828 L 1544.4797796490948 137.14593138567542 L 1544.4104402374458 137.24908603544688 L 1544.3388224248813 137.35192208061815 L 1544.2649333731226 137.4544292376704 L 1544.1887804710134 137.5565972559734 L 1544.1103713337807 137.6584159188104 L 1544.0297138022727 137.7598750444 L 1543.9468159421751 137.86096448691416 L 1543.8616860432053 137.96167413749288 L 1543.774332618282 138.06199392525505 L 1543.6847644026748 138.1619138183055 L 1543.5929903531305 138.26142382473813 L 1543.4990196469782 138.3605139936353 L 1543.4028616812097 138.4591744160626 L 1543.3045260715414 138.5573952260601 L 1543.2040226514528 138.6551666016286 L 1543.1013614712015 138.75247876571203 L 1542.9965527968204 138.84932198717507 L 1542.8896071090896 138.94568658177627 L 1542.7805351024888 139.04156291313652 L 1542.6693476841274 139.1369413937025 L 1542.5560559726548 139.2318124857057 L 1542.440671297148 139.32616670211596 L 1542.3232051959778 139.41999460759027 L 1542.203669415657 139.51328681941624 L 1542.0820759096637 139.60603400845048 L 1541.9584368372473 139.69822690005134 L 1541.8327645622119 139.7898562750065 L 1541.7050716516803 139.88091297045483 L 1541.5753708748375 139.97138788080267 L 1541.4436752016525 140.06127195863436 L 1541.3099978015832 140.15055621561703 L 1541.1743520422583 140.23923172339937 L 1541.0367514881405 140.3272896145045 L 1540.8972098991705 140.41472108321673 L 1540.7557412293913 140.501517386462 L 1540.6123596255516 140.58766984468238 L 1540.4670794256922 140.67316984270377 L 1540.3199151577126 140.75800883059765 L 1540.1708815379163 140.8421783245359 L 1540.0199934695415 140.9256699076393 L 1539.8672660412692 141.00847523081913 L 1539.7127145257148 141.09058601361204 L 1539.5563543779012 141.17199404500818 L 1539.398201233713 141.25269118427227 L 1539.2382709083329 141.3326693617576 L 1539.0765793946596 141.41192057971313 L 1538.9131428617102 141.49043691308304 L 1538.7479776530017 141.56821051029945 L 1538.5811002849175 141.64523359406746 L 1538.412527445055 141.72149846214288 L 1538.2422759905578 141.79699748810242 L 1538.0703629464297 141.87172312210643 L 1537.8968055038317 141.94566789165378 L 1537.7216210183633 142.01882440232913 L 1537.5448270083273 142.0911853385424 L 1537.3664411529771 142.16274346426022 L 1537.18648129075 142.2334916237297 L 1537.0049654174818 142.3034227421938 L 1536.821911684609 142.372529826599 L 1536.6373383973519 142.4408059662944 L 1536.4512640128858 142.50824433372296 L 1536.2637071384938 142.5748381851041 L 1536.0746865297072 142.64058086110825 L 1535.8842210884293 142.70546578752254 L 1535.6923298610454 142.7694864759084 L 1535.4990320365187 142.83263652425032 L 1535.3043469444701 142.89490961759617 L 1535.108294053247 142.95629952868842 L 1534.9108929679749 143.01680011858718 L 1534.7121634285977 143.07640533728383 L 1534.512125307904 143.13510922430623 L 1534.310798609539 143.19290590931453 L 1534.1082034660049 143.24978961268846 L 1533.9043601366473 143.30575464610504 L 1533.6992890056288 143.36079541310758 L 1533.4930105798921 143.41490640966524 L 1533.2855454871078 143.46808222472345 L 1533.076914473612 143.52031754074505 L 1532.8671384023326 143.57160713424193 L 1532.6562382507016 143.6219458762975 L 1532.4442351085586 143.67132873307952 L 1532.231150176041 143.71975076634342 L 1532.0170047614645 143.76720713392626 L 1531.8018202791923 143.81369309023083 L 1531.5856182474931 143.8592039867002 L 1531.36842028639 143.9037352722827 L 1531.1502481154978 143.94728249388683 L 1530.9311235518524 143.98984129682677 L 1530.711068507727 144.03140742525764 L 1530.490104988443 144.07197672260128 L 1530.268255090168 144.11154513196175 L 1530.045540997707 144.15010869653108 L 1529.8219849822835 144.18766355998494 L 1529.597609399313 144.2242059668683 L 1529.3724366861666 144.2597322629709 L 1529.1464893599282 144.29423889569279 L 1528.919790015142 144.32772241439937 L 1528.6923613215536 144.36017947076672 L 1528.464226021843 144.39160681911628 L 1528.2354069293494 144.42200131673934 L 1528.0059269257922 144.45135992421152 L 1527.7758089589802 144.4796797056965 L 1527.545076040518 144.50695782923975 L 1527.3137512435057 144.53319156705163 L 1527.0818577002299 144.55837829578024 L 1526.8494185998518 144.5825154967737 L 1526.6164571860877 144.60560075633202 L 1526.3829967548847 144.62763176594848 L 1526.1490606520917 144.64860632254045 L 1525.914672271124 144.66852232866978 L 1525.679855050624 144.68737779275247 L 1525.4446324721182 144.70517082925778 L 1525.2090280576685 144.72189965889692 L 1524.9730653675203 144.73756260880086 L 1524.7367679977456 144.75215811268765 L 1524.5001595778845 144.76568471101908 L 1524.263263768582 144.77814105114655 L 1524.0261042592215 144.7895258874465 L 1523.7887047655563 144.7998380814447 L 1523.5510890273379 144.80907660193043 L 1523.3132808059422 144.8172405250593 L 1523.0753038819932 144.82432903444578 L 1522.8371820529849 144.83034142124487 L 1522.5989391309015 144.83527708422287 L 1522.3605989398372 144.83913552981764 L 1522.1221853136121 144.8419163721878 L 1521.8837220933906 144.84361933325144 L 1521.6452331252954 144.84424424271387 L 1521.406742258025 144.84379103808467 L 1521.168273340467 144.84225976468392 L 1520.9298502193149 144.83965057563768 L 1520.6914967366818 144.8359637318627 L 1520.4532367277175 144.83119960204027 L 1520.2150940182241 144.82535866257942 L 1519.9770924222744 144.81844149756918 L 1519.7392557398296 144.81044879872033 L 1519.5016077543596 144.8013813652961 L 1519.2641722304652 144.79124010403225 L 1519.0269729115005 144.78002602904647 L 1518.7900335172 144.7677402617369 L 1518.5533777413057 144.75438403067005 L 1518.317029249198 144.73995867145788 L 1518.081011675529 144.72446562662432 L 1517.8453486218593 144.7079064454609 L 1517.6100636542983 144.69028278387196 L 1517.3751803011462 144.671596404209 L 1517.140722050543 144.65184917509436 L 1516.906712348118 144.6310430712345 L 1516.6731745946468 144.6091801732225 L 1516.4401321437097 144.58626266732998 L 1516.207608299358 144.56229284528834 L 1515.9756263137822 144.53727310405984 L 1515.7442093849875 144.5112059455978 L 1515.513380654474 144.48409397659628 L 1515.2831632049224 144.45593990822962 L 1515.053580057886 144.4267465558812 L 1514.8246541714877 144.3965168388619 L 1514.5964084381258 144.36525378011828 L 1514.368865682183 144.3329605059301 L 1514.1420486577458 144.2996402455979 L 1513.9159800463271 144.26529633111994 L 1513.6906824546002 144.22993219685907 L 1513.4661784121363 144.19355137919922 L 1513.2424903691524 144.15615751619185 L 1513.0196406942664 144.1177543471921 L 1512.7976516722604 144.07834571248486 L 1512.5765455018511 144.03793555290076 L 1512.356344293472 143.9965279094221 L 1512.1370700670595 143.9541269227787 L 1511.9187447498543 143.9107368330339 L 1511.7013901742062 143.8663619791605 L 1511.485028075391 143.82100679860693 L 1511.2696800894387 143.77467582685347 L 1511.0553677509683 143.72737369695864 L 1510.8421124910353 143.679105139096 L 1510.6299356349878 143.62987498008118 L 1510.4188584003346 143.579688142889 L 1510.2089018946233 143.52854964616142 L 1510.0000871133293 143.4764646037054 L 1509.792434937757 143.4234382239819 L 1509.5859661329507 143.36947580958457 L 1509.3807013456192 143.31458275671 L 1509.1766611020696 143.25876455461767 L 1508.9738658061567 143.20202678508127 L 1508.772335737241 143.1443751218305 L 1508.5720910481612 143.08581532998366 L 1508.3731517632198 143.02635326547107 L 1508.175537776179 142.9659948744497 L 1507.979268848273 142.9047461927083 L 1507.7843646062313 142.84261334506402 L 1507.5908445403152 142.77960254474988 L 1507.3987280023705 142.71572009279336 L 1507.2080342038907 142.65097237738644 L 1507.0187822140967 142.5853658732467 L 1506.8309909580298 142.51890714096987 L 1506.6446792146592 142.4516028263738 L 1506.4598656150038 142.3834596598339 L 1506.2765686402697 142.31448445561 L 1506.0948066200015 142.24468411116504 L 1505.9145977302499 142.17406560647532 L 1505.7359599917536 142.10263600333244 L 1505.5589112681378 142.03040244463722 L 1505.383469264127 141.9573721536853 L 1505.2096515237754 141.88355243344492 L 1505.0374754287125 141.80895066582661 L 1504.8669581964043 141.73357431094496 L 1504.6981168784316 141.65743090637264 L 1504.5309683587857 141.58052806638665 L 1504.3655293521792 141.5028734812069 L 1504.2018164023752 141.42447491622718 L 1504.0398458805319 141.34534021123872 L 1503.8796339835665 141.265477279646 L 1503.7211967325354 141.1848941076757 L 1503.5645499710317 141.10359875357778 L 1503.4097093636008 141.02159934681995 L 1503.2566903941745 140.93890408727458 L 1503.1055083645222 140.85552124439866 L 1502.9561783927209 140.77145915640702 L 1502.8087154116433 140.68672622943842 L 1502.663134167465 140.6013309367149 L 1502.5194492181884 140.5152818176946 L 1502.3776749321892 140.42858747721772 L 1502.2378254867776 140.34125658464606 L 1502.099914866782 140.2532978729961 L 1501.963956863149 140.1647201380657 L 1501.829965071566 140.07553223755454 L 1501.6979528911002 139.98574309017835 L 1501.56793352286 139.89536167477704 L 1501.4399199686734 139.80439702941683 L 1501.3139250297895 139.71285825048648 L 1501.189961305597 139.62075449178758 L 1501.0680411923654 139.52809496361922 L 1500.948176882004 139.43488893185705 L 1500.830380360844 139.34114571702654 L 1500.7146634084395 139.24687469337107 L 1500.6010375963895 139.15208528791445 L 1500.4895142871799 139.05678697951822 L 1500.3801046330493 138.96098929793382 L 1500.2728195748716 138.86470182284955 L 1500.1676698410633 138.76793418293272 L 1500.0646659465103 138.67069605486665 L 1499.963818191516 138.57299716238313 L 1499.865136660772 138.47484727529 L 1499.768631222349 138.37625620849414 L 1499.6743115267104 138.27723382102013 L 1499.5821870057475 138.17779001502413 L 1499.4922668718355 138.07793473480393 L 1499.4045601169123 137.9776779658043 L 1499.319075511581 137.87702973361863 L 1499.2358216042308 137.77600010298625 L 1499.154806720183 137.67459917678602 L 1499.076038960858 137.57283709502605 L 1498.9995262029668 137.47072403382973 L 1498.925276097721 137.3682702044181 L 1498.8532960700693 137.26548585208872 L 1498.7835933179547 137.16238125519112 L 1498.716174811594 137.05896672409915 L 1498.651047292782 136.95525260017968 L 1498.5882172742163 136.8512492547587 L 1498.5276910388461 136.74696708808406 L 1498.4694746392447 136.64241652828557 L 1498.4135738970033 136.53760803033202 L 1498.3599944021498 136.43255207498592 L 1498.3087415125892 136.32725916775524 L 1498.2598203535672 136.22173983784296 L 1498.2132358171596 136.11600463709416 L 1498.1689925617804 136.01006413894075 L 1498.1270950117191 135.90392893734432 L 1498.0875473566953 135.79760964573654 L 1498.0503535514417 135.69111689595798 L 1498.0155173153078 135.5844613371949 L 1497.9830421318882 135.47765363491428 L 1497.952931248674 135.37070446979732 L 1497.925187676729 135.26362453667144 L 1497.8998141903865 135.15642454344072 L 1497.8768133269746 135.04911521001512 L 1497.8561873865601 134.9417072672386 L 1497.83793843172 134.83421145581588 L 1497.8220682873346 134.72663852523857 L 1497.808578540405 134.61899923271008 L 1497.797470539895 134.5113043420699 L 1497.7887453965948 134.40356462271745 L 1497.7824039830118 134.2957908485348 L 1497.778446933282 134.1879937968096 L 1497.7768746431075 134.08018424715718" stroke-miterlimit="10" stroke-width="2.7769845610000004" stroke-dasharray=""/></g><g><g/><text fill="black" stroke="none" font-family="sans-serif" font-size="11pt" font-style="normal" font-weight="normal" text-decoration="normal" x="1481.282659060254" y="162.371920802" text-anchor="start" dominant-baseline="alphabetic" xml:space="preserve">SpDatabase</text></g><g><path fill="white" stroke="black" paint-order="fill stroke markers" d=" M 1670.362554476965 120.39044832100001 A 24.2577769005 24.2577769005 0 1 1 1670.3625423480776 120.36619054814246 M 1606.900289656465 94.74417914 L 1606.900289656465 146.03671750200002 M 1605.511797375965 120.39044832100001 L 1621.847000675965 120.39044832100001" stroke-miterlimit="10" stroke-width="2.7769845610000004" stroke-dasharray=""/></g><g><g/><text fill="black" stroke="none" font-family="sans-serif" font-size="11pt" font-style="normal" font-weight="normal" text-decoration="normal" x="1603.3022577135744" y="162.371920802" text-anchor="start" dominant-baseline="alphabetic" xml:space="preserve">HopperApi</text></g></g><g><path fill="white" stroke="black" paint-order="fill stroke markers" d=" M 55.429564540625 175.440083442 L 71.764767840625 175.440083442 L 71.764767840625 1789.358169482 L 55.429564540625 1789.358169482 L 55.429564540625 175.440083442" stroke-miterlimit="10" stroke-width="1.3612669416666667" stroke-dasharray=""/><path fill="white" stroke="black" paint-order="fill stroke markers" d=" M 1629.769574276465 175.440083442 L 1646.104777576465 175.440083442 L 1646.104777576465 1789.358169482 L 1629.769574276465 1789.358169482 L 1629.769574276465 175.440083442" stroke-miterlimit="10" stroke-width="1.3612669416666667" stroke-dasharray=""/><path fill="white" stroke="black" paint-order="fill stroke markers" d=" M 270.95507160520833 221.178652682 L 287.2902749052083 221.178652682 L 287.2902749052083 1748.5201612320002 L 270.95507160520833 1748.5201612320002 L 270.95507160520833 221.178652682" stroke-miterlimit="10" stroke-width="1.3612669416666667" stroke-dasharray=""/><path fill="white" stroke="black" paint-order="fill stroke markers" d=" M 675.9618382096354 266.917221922 L 692.2970415096355 266.917221922 L 692.2970415096355 699.8001093719998 L 675.9618382096354 699.8001093719998 L 675.9618382096354 266.917221922" stroke-miterlimit="10" stroke-width="1.3612669416666667" stroke-dasharray=""/><path fill="white" stroke="black" paint-order="fill stroke markers" d=" M 1206.64103438903 358.394360402 L 1222.97623768903 358.394360402 L 1222.97623768903 448.237978552 L 1206.64103438903 448.237978552 L 1206.64103438903 358.394360402" stroke-miterlimit="10" stroke-width="1.3612669416666667" stroke-dasharray=""/><path fill="white" stroke="black" paint-order="fill stroke markers" d=" M 1206.64103438903 492.343027462 L 1222.97623768903 492.343027462 L 1222.97623768903 629.5587351819999 L 1206.64103438903 629.5587351819999 L 1206.64103438903 492.343027462" stroke-miterlimit="10" stroke-width="1.3612669416666667" stroke-dasharray=""/><path fill="white" stroke="black" paint-order="fill stroke markers" d=" M 1513.4586395635743 538.081596702 L 1529.7938428635744 538.081596702 L 1529.7938428635744 583.8201659419999 L 1513.4586395635743 583.8201659419999 L 1513.4586395635743 538.081596702" stroke-miterlimit="10" stroke-width="1.3612669416666667" stroke-dasharray=""/><path fill="white" stroke="black" paint-order="fill stroke markers" d=" M 801.8925462703776 745.5386786119998 L 818.2277495703777 745.5386786119998 L 818.2277495703777 1132.6829968219995 L 801.8925462703776 1132.6829968219995 L 801.8925462703776 745.5386786119998" stroke-miterlimit="10" stroke-width="1.3612669416666667" stroke-dasharray=""/><path fill="white" stroke="black" paint-order="fill stroke markers" d=" M 1206.64103438903 791.2772478519997 L 1222.97623768903 791.2772478519997 L 1222.97623768903 881.1208660019996 L 1206.64103438903 881.1208660019996 L 1206.64103438903 791.2772478519997" stroke-miterlimit="10" stroke-width="1.3612669416666667" stroke-dasharray=""/><path fill="white" stroke="black" paint-order="fill stroke markers" d=" M 1206.64103438903 925.2259149119996 L 1222.97623768903 925.2259149119996 L 1222.97623768903 1062.4416226319995 L 1206.64103438903 1062.4416226319995 L 1206.64103438903 925.2259149119996" stroke-miterlimit="10" stroke-width="1.3612669416666667" stroke-dasharray=""/><path fill="white" stroke="black" paint-order="fill stroke markers" d=" M 1513.4586395635743 970.9644841519995 L 1529.7938428635744 970.9644841519995 L 1529.7938428635744 1016.7030533919994 L 1513.4586395635743 1016.7030533919994 L 1513.4586395635743 970.9644841519995" stroke-miterlimit="10" stroke-width="1.3612669416666667" stroke-dasharray=""/><path fill="white" stroke="black" paint-order="fill stroke markers" d=" M 973.2092171783529 1178.4215660619996 L 989.544420478353 1178.4215660619996 L 989.544420478353 1565.565884272 L 973.2092171783529 1565.565884272 L 973.2092171783529 1178.4215660619996" stroke-miterlimit="10" stroke-width="1.3612669416666667" stroke-dasharray=""/><path fill="white" stroke="black" paint-order="fill stroke markers" d=" M 1206.64103438903 1224.1601353019996 L 1222.97623768903 1224.1601353019996 L 1222.97623768903 1314.0037534519997 L 1206.64103438903 1314.0037534519997 L 1206.64103438903 1224.1601353019996" stroke-miterlimit="10" stroke-width="1.3612669416666667" stroke-dasharray=""/><path fill="white" stroke="black" paint-order="fill stroke markers" d=" M 1206.64103438903 1358.1088023619998 L 1222.97623768903 1358.1088023619998 L 1222.97623768903 1495.324510082 L 1206.64103438903 1495.324510082 L 1206.64103438903 1358.1088023619998" stroke-miterlimit="10" stroke-width="1.3612669416666667" stroke-dasharray=""/><path fill="white" stroke="black" paint-order="fill stroke markers" d=" M 1513.4586395635743 1403.8473716019998 L 1529.7938428635744 1403.8473716019998 L 1529.7938428635744 1449.585940842 L 1513.4586395635743 1449.585940842 L 1513.4586395635743 1403.8473716019998" stroke-miterlimit="10" stroke-width="1.3612669416666667" stroke-dasharray=""/><path fill="white" stroke="black" paint-order="fill stroke markers" d=" M 547.5937674779948 1611.304453512 L 563.9289707779949 1611.304453512 L 563.9289707779949 1657.043022752 L 547.5937674779948 1657.043022752 L 547.5937674779948 1611.304453512" stroke-miterlimit="10" stroke-width="1.3612669416666667" stroke-dasharray=""/><g><text fill="black" stroke="none" font-family="sans-serif" font-size="11pt" font-style="normal" font-weight="normal" text-decoration="normal" x="121.64984434449872" y="214.644571362" text-anchor="start" dominant-baseline="alphabetic" xml:space="preserve">Message event</text></g><g><path fill="none" stroke="black" paint-order="fill stroke markers" d=" M 71.764767840625 221.178652682 L 268.232537721875 221.178652682" stroke-miterlimit="10" stroke-width="1.3612669416666667" stroke-dasharray=""/><g transform="translate(270.95507160520833,221.178652682) translate(-270.95507160520833,-221.178652682)"><path fill="none" stroke="black" paint-order="fill stroke markers" d=" M 257.34240218854166 214.37231797366667 L 269.5938046635417 221.178652682 L 257.34240218854166 227.98498739033334" stroke-miterlimit="10" stroke-width="1.3612669416666667"/></g></g><g><text fill="black" stroke="none" font-family="sans-serif" font-size="11pt" font-style="normal" font-weight="normal" text-decoration="normal" x="434.3712347800781" y="260.383140602" text-anchor="start" dominant-baseline="alphabetic" xml:space="preserve">Get user by ID</text></g><g><path fill="none" stroke="black" paint-order="fill stroke markers" d=" M 287.2902749052083 266.917221922 L 673.2393043263021 266.917221922" stroke-miterlimit="10" stroke-width="1.3612669416666667" stroke-dasharray=""/><g transform="translate(675.9618382096354,266.917221922) translate(-675.9618382096354,-266.917221922)"><path fill="none" stroke="black" paint-order="fill stroke markers" d=" M 662.3491687929687 260.1108872136667 L 674.6005712679687 266.917221922 L 662.3491687929687 273.72355663033335" stroke-miterlimit="10" stroke-width="1.3612669416666667"/></g></g><g><text fill="black" stroke="none" font-family="sans-serif" font-size="11pt" font-style="normal" font-weight="normal" text-decoration="normal" x="122.87390440309247" y="306.121709842" text-anchor="start" dominant-baseline="alphabetic" xml:space="preserve">Event received</text></g><g><path fill="none" stroke="black" paint-order="fill stroke markers" d=" M 270.95507160520833 312.655791162 L 74.48730172395832 312.655791162" stroke-miterlimit="10" stroke-width="1.3612669416666667" stroke-dasharray="6.53408132"/><g transform="translate(71.764767840625,312.655791162) translate(-71.764767840625,-312.655791162)"><path fill="none" stroke="black" paint-order="fill stroke markers" d=" M 85.37743725729167 305.8494564536667 L 73.12603478229167 312.655791162 L 85.37743725729167 319.46212587033335" stroke-miterlimit="10" stroke-width="1.3612669416666667"/></g></g><g><text fill="black" stroke="none" font-family="sans-serif" font-size="11pt" font-style="normal" font-weight="normal" text-decoration="normal" x="902.2142161719889" y="351.860279082" text-anchor="start" dominant-baseline="alphabetic" xml:space="preserve">Get user by ID</text></g><g><path fill="none" stroke="black" paint-order="fill stroke markers" d=" M 692.2970415096355 358.394360402 L 1203.9185005056966 358.394360402" stroke-miterlimit="10" stroke-width="1.3612669416666667" stroke-dasharray=""/><g transform="translate(1206.64103438903,358.394360402) translate(-1206.64103438903,-358.394360402)"><path fill="black" stroke="none" paint-order="stroke fill markers" d=" M 1193.0283649723633 351.5880256936667 L 1206.64103438903 358.394360402 L 1193.0283649723633 365.20069511033336 Z"/></g></g><g><text fill="black" stroke="none" font-family="sans-serif" font-size="11pt" font-style="normal" font-weight="normal" text-decoration="normal" x="911.1727046363444" y="441.703897232" text-anchor="start" dominant-baseline="alphabetic" xml:space="preserve">Return user</text></g><g><path fill="none" stroke="black" paint-order="fill stroke markers" d=" M 1206.64103438903 448.237978552 L 695.0195753929688 448.237978552" stroke-miterlimit="10" stroke-width="1.3612669416666667" stroke-dasharray="6.53408132"/><g transform="translate(692.2970415096355,448.237978552) translate(-692.2970415096355,-448.237978552)"><path fill="black" stroke="none" paint-order="stroke fill markers" d=" M 705.9097109263022 441.4316438436667 L 692.2970415096355 448.237978552 L 705.9097109263022 455.04431326033335 Z"/></g></g><g><text fill="black" stroke="none" font-family="sans-serif" font-size="11pt" font-style="normal" font-weight="normal" text-decoration="normal" x="1320.9626168489585" y="531.5475153819999" text-anchor="start" dominant-baseline="alphabetic" xml:space="preserve">Get user by ID</text></g><g><path fill="none" stroke="black" paint-order="fill stroke markers" d=" M 1222.97623768903 538.081596702 L 1510.7361056802408 538.081596702" stroke-miterlimit="10" stroke-width="1.3612669416666667" stroke-dasharray=""/><g transform="translate(1513.4586395635743,538.081596702) translate(-1513.4586395635743,-538.081596702)"><path fill="black" stroke="none" paint-order="stroke fill markers" d=" M 1499.8459701469076 531.2752619936666 L 1513.4586395635743 538.081596702 L 1499.8459701469076 544.8879314103333 Z"/></g></g><g><text fill="black" stroke="none" font-family="sans-serif" font-size="11pt" font-style="normal" font-weight="normal" text-decoration="normal" x="1264.3091058015953" y="577.2860846219999" text-anchor="start" dominant-baseline="alphabetic" xml:space="preserve">Return user and load into cache</text></g><g><path fill="none" stroke="black" paint-order="fill stroke markers" d=" M 1513.4586395635743 583.8201659419999 L 1225.6987715723635 583.8201659419999" stroke-miterlimit="10" stroke-width="1.3612669416666667" stroke-dasharray="6.53408132"/><g transform="translate(1222.97623768903,583.8201659419999) translate(-1222.97623768903,-583.8201659419999)"><path fill="black" stroke="none" paint-order="stroke fill markers" d=" M 1236.5889071056968 577.0138312336666 L 1222.97623768903 583.8201659419999 L 1236.5889071056968 590.6265006503332 Z"/></g></g><g><text fill="black" stroke="none" font-family="sans-serif" font-size="11pt" font-style="normal" font-weight="normal" text-decoration="normal" x="911.1727046363444" y="623.0246538619998" text-anchor="start" dominant-baseline="alphabetic" xml:space="preserve">Return user</text></g><g><path fill="none" stroke="black" paint-order="fill stroke markers" d=" M 1206.64103438903 629.5587351819999 L 695.0195753929688 629.5587351819999" stroke-miterlimit="10" stroke-width="1.3612669416666667" stroke-dasharray="6.53408132"/><g transform="translate(692.2970415096355,629.5587351819999) translate(-692.2970415096355,-629.5587351819999)"><path fill="black" stroke="none" paint-order="stroke fill markers" d=" M 705.9097109263022 622.7524004736665 L 692.2970415096355 629.5587351819999 L 705.9097109263022 636.3650698903332 Z"/></g></g><g><text fill="black" stroke="none" font-family="sans-serif" font-size="11pt" font-style="normal" font-weight="normal" text-decoration="normal" x="443.3297232444336" y="693.2660280519998" text-anchor="start" dominant-baseline="alphabetic" xml:space="preserve">Return user</text></g><g><path fill="none" stroke="black" paint-order="fill stroke markers" d=" M 675.9618382096354 699.8001093719998 L 290.01280878854163 699.8001093719998" stroke-miterlimit="10" stroke-width="1.3612669416666667" stroke-dasharray="6.53408132"/><g transform="translate(287.2902749052083,699.8001093719998) translate(-287.2902749052083,-699.8001093719998)"><path fill="none" stroke="black" paint-order="fill stroke markers" d=" M 300.902944321875 692.9937746636665 L 288.651541846875 699.8001093719998 L 300.902944321875 706.6064440803332" stroke-miterlimit="10" stroke-width="1.3612669416666667"/></g></g><g><text fill="black" stroke="none" font-family="sans-serif" font-size="11pt" font-style="normal" font-weight="normal" text-decoration="normal" x="485.9192685589844" y="739.0045972919997" text-anchor="start" dominant-baseline="alphabetic" xml:space="preserve">Get channel by ID</text></g><g><path fill="none" stroke="black" paint-order="fill stroke markers" d=" M 287.2902749052083 745.5386786119998 L 799.1700123870443 745.5386786119998" stroke-miterlimit="10" stroke-width="1.3612669416666667" stroke-dasharray=""/><g transform="translate(801.8925462703776,745.5386786119998) translate(-801.8925462703776,-745.5386786119998)"><path fill="none" stroke="black" paint-order="fill stroke markers" d=" M 788.2798768537109 738.7323439036664 L 800.5312793287109 745.5386786119998 L 788.2798768537109 752.3450133203331" stroke-miterlimit="10" stroke-width="1.3612669416666667"/></g></g><g><text fill="black" stroke="none" font-family="sans-serif" font-size="11pt" font-style="normal" font-weight="normal" text-decoration="normal" x="953.7622499508952" y="784.7431665319997" text-anchor="start" dominant-baseline="alphabetic" xml:space="preserve">Get channel by ID</text></g><g><path fill="none" stroke="black" paint-order="fill stroke markers" d=" M 818.2277495703777 791.2772478519997 L 1203.9185005056966 791.2772478519997" stroke-miterlimit="10" stroke-width="1.3612669416666667" stroke-dasharray=""/><g transform="translate(1206.64103438903,791.2772478519997) translate(-1206.64103438903,-791.2772478519997)"><path fill="black" stroke="none" paint-order="stroke fill markers" d=" M 1193.0283649723633 784.4709131436664 L 1206.64103438903 791.2772478519997 L 1193.0283649723633 798.0835825603331 Z"/></g></g><g><text fill="black" stroke="none" font-family="sans-serif" font-size="11pt" font-style="normal" font-weight="normal" text-decoration="normal" x="962.7207384152507" y="874.5867846819996" text-anchor="start" dominant-baseline="alphabetic" xml:space="preserve">Return channel</text></g><g><path fill="none" stroke="black" paint-order="fill stroke markers" d=" M 1206.64103438903 881.1208660019996 L 820.950283453711 881.1208660019996" stroke-miterlimit="10" stroke-width="1.3612669416666667" stroke-dasharray="6.53408132"/><g transform="translate(818.2277495703777,881.1208660019996) translate(-818.2277495703777,-881.1208660019996)"><path fill="black" stroke="none" paint-order="stroke fill markers" d=" M 831.8404189870444 874.3145312936663 L 818.2277495703777 881.1208660019996 L 831.8404189870444 887.927200710333 Z"/></g></g><g><text fill="black" stroke="none" font-family="sans-serif" font-size="11pt" font-style="normal" font-weight="normal" text-decoration="normal" x="1309.5452965974937" y="964.4304028319995" text-anchor="start" dominant-baseline="alphabetic" xml:space="preserve">Get channel by ID</text></g><g><path fill="none" stroke="black" paint-order="fill stroke markers" d=" M 1222.97623768903 970.9644841519995 L 1510.7361056802408 970.9644841519995" stroke-miterlimit="10" stroke-width="1.3612669416666667" stroke-dasharray=""/><g transform="translate(1513.4586395635743,970.9644841519995) translate(-1513.4586395635743,-970.9644841519995)"><path fill="black" stroke="none" paint-order="stroke fill markers" d=" M 1499.8459701469076 964.1581494436662 L 1513.4586395635743 970.9644841519995 L 1499.8459701469076 977.7708188603328 Z"/></g></g><g><text fill="black" stroke="none" font-family="sans-serif" font-size="11pt" font-style="normal" font-weight="normal" text-decoration="normal" x="1252.8917855501304" y="1010.1689720719994" text-anchor="start" dominant-baseline="alphabetic" xml:space="preserve">Return channel and load into cache</text></g><g><path fill="none" stroke="black" paint-order="fill stroke markers" d=" M 1513.4586395635743 1016.7030533919994 L 1225.6987715723635 1016.7030533919994" stroke-miterlimit="10" stroke-width="1.3612669416666667" stroke-dasharray="6.53408132"/><g transform="translate(1222.97623768903,1016.7030533919994) translate(-1222.97623768903,-1016.7030533919994)"><path fill="black" stroke="none" paint-order="stroke fill markers" d=" M 1236.5889071056968 1009.8967186836661 L 1222.97623768903 1016.7030533919994 L 1236.5889071056968 1023.5093881003328 Z"/></g></g><g><text fill="black" stroke="none" font-family="sans-serif" font-size="11pt" font-style="normal" font-weight="normal" text-decoration="normal" x="962.7207384152507" y="1055.9075413119997" text-anchor="start" dominant-baseline="alphabetic" xml:space="preserve">Return channel</text></g><g><path fill="none" stroke="black" paint-order="fill stroke markers" d=" M 1206.64103438903 1062.4416226319995 L 820.950283453711 1062.4416226319995" stroke-miterlimit="10" stroke-width="1.3612669416666667" stroke-dasharray="6.53408132"/><g transform="translate(818.2277495703777,1062.4416226319995) translate(-818.2277495703777,-1062.4416226319995)"><path fill="black" stroke="none" paint-order="stroke fill markers" d=" M 831.8404189870444 1055.6352879236663 L 818.2277495703777 1062.4416226319995 L 831.8404189870444 1069.2479573403327 Z"/></g></g><g><text fill="black" stroke="none" font-family="sans-serif" font-size="11pt" font-style="normal" font-weight="normal" text-decoration="normal" x="494.8777570233399" y="1126.1489155019997" text-anchor="start" dominant-baseline="alphabetic" xml:space="preserve">Return channel</text></g><g><path fill="none" stroke="black" paint-order="fill stroke markers" d=" M 801.8925462703776 1132.6829968219995 L 290.01280878854163 1132.6829968219995" stroke-miterlimit="10" stroke-width="1.3612669416666667" stroke-dasharray="6.53408132"/><g transform="translate(287.2902749052083,1132.6829968219995) translate(-287.2902749052083,-1132.6829968219995)"><path fill="none" stroke="black" paint-order="fill stroke markers" d=" M 300.902944321875 1125.8766621136663 L 288.651541846875 1132.6829968219995 L 300.902944321875 1139.4893315303327" stroke-miterlimit="10" stroke-width="1.3612669416666667"/></g></g><g><text fill="black" stroke="none" font-family="sans-serif" font-size="11pt" font-style="normal" font-weight="normal" text-decoration="normal" x="369.89916010428055" y="1171.8874847419997" text-anchor="start" dominant-baseline="alphabetic" xml:space="preserve">Get all subscribers that are user in channel (except user that send the message)</text></g><g><path fill="none" stroke="black" paint-order="fill stroke markers" d=" M 287.2902749052083 1178.4215660619996 L 970.4866832950196 1178.4215660619996" stroke-miterlimit="10" stroke-width="1.3612669416666667" stroke-dasharray=""/><g transform="translate(973.2092171783529,1178.4215660619996) translate(-973.2092171783529,-1178.4215660619996)"><path fill="black" stroke="none" paint-order="stroke fill markers" d=" M 959.5965477616862 1171.6152313536663 L 973.2092171783529 1178.4215660619996 L 959.5965477616862 1185.2279007703328 Z"/></g></g><g><text fill="black" stroke="none" font-family="sans-serif" font-size="11pt" font-style="normal" font-weight="normal" text-decoration="normal" x="1011.3246915450195" y="1217.6260539819998" text-anchor="start" dominant-baseline="alphabetic" xml:space="preserve">Get subscribers by user ID</text></g><g><path fill="none" stroke="black" paint-order="fill stroke markers" d=" M 989.544420478353 1224.1601353019996 L 1203.9185005056966 1224.1601353019996" stroke-miterlimit="10" stroke-width="1.3612669416666667" stroke-dasharray=""/><g transform="translate(1206.64103438903,1224.1601353019996) translate(-1206.64103438903,-1224.1601353019996)"><path fill="black" stroke="none" paint-order="stroke fill markers" d=" M 1193.0283649723633 1217.3538005936664 L 1206.64103438903 1224.1601353019996 L 1193.0283649723633 1230.9664700103328 Z"/></g></g><g><text fill="black" stroke="none" font-family="sans-serif" font-size="11pt" font-style="normal" font-weight="normal" text-decoration="normal" x="1040.2437970748047" y="1307.469672132" text-anchor="start" dominant-baseline="alphabetic" xml:space="preserve">Return subscriber</text></g><g><path fill="none" stroke="black" paint-order="fill stroke markers" d=" M 1206.64103438903 1314.0037534519997 L 992.2669543616863 1314.0037534519997" stroke-miterlimit="10" stroke-width="1.3612669416666667" stroke-dasharray="6.53408132"/><g transform="translate(989.544420478353,1314.0037534519997) translate(-989.544420478353,-1314.0037534519997)"><path fill="black" stroke="none" paint-order="stroke fill markers" d=" M 1003.1570898950197 1307.1974187436665 L 989.544420478353 1314.0037534519997 L 1003.1570898950197 1320.810088160333 Z"/></g></g><g><text fill="black" stroke="none" font-family="sans-serif" font-size="11pt" font-style="normal" font-weight="normal" text-decoration="normal" x="1285.1143960237632" y="1397.313290282" text-anchor="start" dominant-baseline="alphabetic" xml:space="preserve">Get subscriber by user ID</text></g><g><path fill="none" stroke="black" paint-order="fill stroke markers" d=" M 1222.97623768903 1403.8473716019998 L 1510.7361056802408 1403.8473716019998" stroke-miterlimit="10" stroke-width="1.3612669416666667" stroke-dasharray=""/><g transform="translate(1513.4586395635743,1403.8473716019998) translate(-1513.4586395635743,-1403.8473716019998)"><path fill="black" stroke="none" paint-order="stroke fill markers" d=" M 1499.8459701469076 1397.0410368936666 L 1513.4586395635743 1403.8473716019998 L 1499.8459701469076 1410.653706310333 Z"/></g></g><g><text fill="black" stroke="none" font-family="sans-serif" font-size="11pt" font-style="normal" font-weight="normal" text-decoration="normal" x="1244.7565087556968" y="1443.051859522" text-anchor="start" dominant-baseline="alphabetic" xml:space="preserve">Return subscriber and load into cache</text></g><g><path fill="none" stroke="black" paint-order="fill stroke markers" d=" M 1513.4586395635743 1449.585940842 L 1225.6987715723635 1449.585940842" stroke-miterlimit="10" stroke-width="1.3612669416666667" stroke-dasharray="6.53408132"/><g transform="translate(1222.97623768903,1449.585940842) translate(-1222.97623768903,-1449.585940842)"><path fill="black" stroke="none" paint-order="stroke fill markers" d=" M 1236.5889071056968 1442.7796061336667 L 1222.97623768903 1449.585940842 L 1236.5889071056968 1456.3922755503331 Z"/></g></g><g><text fill="black" stroke="none" font-family="sans-serif" font-size="11pt" font-style="normal" font-weight="normal" text-decoration="normal" x="1040.2437970748047" y="1488.7904287620001" text-anchor="start" dominant-baseline="alphabetic" xml:space="preserve">Return subscriber</text></g><g><path fill="none" stroke="black" paint-order="fill stroke markers" d=" M 1206.64103438903 1495.324510082 L 992.2669543616863 1495.324510082" stroke-miterlimit="10" stroke-width="1.3612669416666667" stroke-dasharray="6.53408132"/><g transform="translate(989.544420478353,1495.324510082) translate(-989.544420478353,-1495.324510082)"><path fill="black" stroke="none" paint-order="stroke fill markers" d=" M 1003.1570898950197 1488.5181753736667 L 989.544420478353 1495.324510082 L 1003.1570898950197 1502.1308447903332 Z"/></g></g><g><text fill="black" stroke="none" font-family="sans-serif" font-size="11pt" font-style="normal" font-weight="normal" text-decoration="normal" x="568.735822396761" y="1559.0318029520001" text-anchor="start" dominant-baseline="alphabetic" xml:space="preserve">Return subscribers</text></g><g><path fill="none" stroke="black" paint-order="fill stroke markers" d=" M 973.2092171783529 1565.565884272 L 290.01280878854163 1565.565884272" stroke-miterlimit="10" stroke-width="1.3612669416666667" stroke-dasharray="6.53408132"/><g transform="translate(287.2902749052083,1565.565884272) translate(-287.2902749052083,-1565.565884272)"><path fill="none" stroke="black" paint-order="fill stroke markers" d=" M 300.902944321875 1558.7595495636667 L 288.651541846875 1565.565884272 L 300.902944321875 1572.3722189803332" stroke-miterlimit="10" stroke-width="1.3612669416666667"/></g></g><g><text fill="black" stroke="none" font-family="sans-serif" font-size="11pt" font-style="normal" font-weight="normal" text-decoration="normal" x="363.6625106935547" y="1604.7703721920002" text-anchor="start" dominant-baseline="alphabetic" xml:space="preserve">Create message</text></g><g><path fill="none" stroke="black" paint-order="fill stroke markers" d=" M 287.2902749052083 1611.304453512 L 544.8712335946615 1611.304453512" stroke-miterlimit="10" stroke-width="1.3612669416666667" stroke-dasharray=""/><g transform="translate(547.5937674779948,1611.304453512) translate(-547.5937674779948,-1611.304453512)"><path fill="black" stroke="none" paint-order="stroke fill markers" d=" M 533.9810980613281 1604.4981188036668 L 547.5937674779948 1611.304453512 L 533.9810980613281 1618.1107882203332 Z"/></g></g><g><text fill="black" stroke="none" font-family="sans-serif" font-size="11pt" font-style="normal" font-weight="normal" text-decoration="normal" x="309.070545971875" y="1650.5089414320003" text-anchor="start" dominant-baseline="alphabetic" xml:space="preserve">Return Hopper conform message</text></g><g><path fill="none" stroke="black" paint-order="fill stroke markers" d=" M 547.5937674779948 1657.043022752 L 290.01280878854163 1657.043022752" stroke-miterlimit="10" stroke-width="1.3612669416666667" stroke-dasharray="6.53408132"/><g transform="translate(287.2902749052083,1657.043022752) translate(-287.2902749052083,-1657.043022752)"><path fill="black" stroke="none" paint-order="stroke fill markers" d=" M 300.902944321875 1650.2366880436668 L 287.2902749052083 1657.043022752 L 300.902944321875 1663.8493574603333 Z"/></g></g><g><text fill="black" stroke="none" font-family="sans-serif" font-size="11pt" font-style="normal" font-weight="normal" text-decoration="normal" x="849.750459869157" y="1696.2475106720003" text-anchor="start" dominant-baseline="alphabetic" xml:space="preserve">Post notification to all subscribers</text></g><g><path fill="none" stroke="black" paint-order="fill stroke markers" d=" M 287.2902749052083 1702.7815919920001 L 1627.0470403931315 1702.7815919920001" stroke-miterlimit="10" stroke-width="1.3612669416666667" stroke-dasharray=""/><g transform="translate(1629.769574276465,1702.7815919920001) translate(-1629.769574276465,-1702.7815919920001)"><path fill="black" stroke="none" paint-order="stroke fill markers" d=" M 1616.1569048597983 1695.975257283667 L 1629.769574276465 1702.7815919920001 L 1616.1569048597983 1709.5879267003334 Z"/></g></g><g><text fill="black" stroke="none" font-family="sans-serif" font-size="11pt" font-style="normal" font-weight="normal" text-decoration="normal" x="881.1140615537273" y="1741.9860799120004" text-anchor="start" dominant-baseline="alphabetic" xml:space="preserve">Responds conformation</text></g><g><path fill="none" stroke="black" paint-order="fill stroke markers" d=" M 1629.769574276465 1748.5201612320002 L 290.01280878854163 1748.5201612320002" stroke-miterlimit="10" stroke-width="1.3612669416666667" stroke-dasharray="6.53408132"/><g transform="translate(287.2902749052083,1748.5201612320002) translate(-287.2902749052083,-1748.5201612320002)"><path fill="black" stroke="none" paint-order="stroke fill markers" d=" M 300.902944321875 1741.713826523667 L 287.2902749052083 1748.5201612320002 L 300.902944321875 1755.3264959403334 Z"/></g></g><g><g/><path fill="none" stroke="black" paint-order="fill stroke markers" d=" M 618.7886266596354 382.897165352 L 1578.7994527635742 382.897165352 L 1578.7994527635742 654.0615401319999 L 618.7886266596354 654.0615401319999 L 618.7886266596354 382.897165352 Z" stroke-miterlimit="10" stroke-width="2.3336004714285714" stroke-dasharray=""/><path fill="white" stroke="black" paint-order="fill stroke markers" d=" M 618.7886266596354 382.897165352 L 618.7886266596354 402.499409312 L 665.1478302567057 402.499409312 L 674.9489522367056 392.698287332 L 674.9489522367056 382.897165352 L 618.7886266596354 382.897165352" stroke-miterlimit="10" stroke-width="2.3336004714285714" stroke-dasharray=""/><text fill="black" stroke="none" font-family="sans-serif" font-size="8.8pt" font-style="normal" font-weight="bold" text-decoration="normal" x="635.1238299596354" y="395.965327992" text-anchor="start" dominant-baseline="alphabetic" xml:space="preserve">alt</text><text fill="black" stroke="none" font-family="sans-serif" font-size="8.8pt" font-style="normal" font-weight="bold" text-decoration="normal" x="691.2841555367056" y="395.965327992" text-anchor="start" dominant-baseline="alphabetic" xml:space="preserve">[User in cache]</text><g><path fill="none" stroke="black" paint-order="fill stroke markers" d=" M 618.7886266596354 472.740783502 L 1578.7994527635742 472.740783502" stroke-miterlimit="10" stroke-width="2.3336004714285714" stroke-dasharray="4.083800825"/></g><g/><text fill="black" stroke="none" font-family="sans-serif" font-size="8.8pt" font-style="normal" font-weight="bold" text-decoration="normal" x="691.2841555367056" y="485.808946142" text-anchor="start" dominant-baseline="alphabetic" xml:space="preserve">[User not in cache]</text></g><g/><g><g/><path fill="none" stroke="black" paint-order="fill stroke markers" d=" M 744.7193347203776 815.7800528019997 L 1578.7994527635742 815.7800528019997 L 1578.7994527635742 1086.9444275819994 L 744.7193347203776 1086.9444275819994 L 744.7193347203776 815.7800528019997 Z" stroke-miterlimit="10" stroke-width="2.3336004714285714" stroke-dasharray=""/><path fill="white" stroke="black" paint-order="fill stroke markers" d=" M 744.7193347203776 815.7800528019997 L 744.7193347203776 835.3822967619997 L 791.0785383174479 835.3822967619997 L 800.8796602974478 825.5811747819996 L 800.8796602974478 815.7800528019997 L 744.7193347203776 815.7800528019997" stroke-miterlimit="10" stroke-width="2.3336004714285714" stroke-dasharray=""/><text fill="black" stroke="none" font-family="sans-serif" font-size="8.8pt" font-style="normal" font-weight="bold" text-decoration="normal" x="761.0545380203775" y="828.8482154419996" text-anchor="start" dominant-baseline="alphabetic" xml:space="preserve">alt</text><text fill="black" stroke="none" font-family="sans-serif" font-size="8.8pt" font-style="normal" font-weight="bold" text-decoration="normal" x="817.2148635974478" y="828.8482154419996" text-anchor="start" dominant-baseline="alphabetic" xml:space="preserve">[Channel in cache]</text><g><path fill="none" stroke="black" paint-order="fill stroke markers" d=" M 744.7193347203776 905.6236709519995 L 1578.7994527635742 905.6236709519995" stroke-miterlimit="10" stroke-width="2.3336004714285714" stroke-dasharray="4.083800825"/></g><g/><text fill="black" stroke="none" font-family="sans-serif" font-size="8.8pt" font-style="normal" font-weight="bold" text-decoration="normal" x="817.2148635974478" y="918.6918335919995" text-anchor="start" dominant-baseline="alphabetic" xml:space="preserve">[Channel not in cache]</text></g><g/><g><g/><path fill="none" stroke="black" paint-order="fill stroke markers" d=" M 916.0360056283529 1248.6629402519998 L 1578.7994527635742 1248.6629402519998 L 1578.7994527635742 1519.827315032 L 916.0360056283529 1519.827315032 L 916.0360056283529 1248.6629402519998 Z" stroke-miterlimit="10" stroke-width="2.3336004714285714" stroke-dasharray=""/><path fill="white" stroke="black" paint-order="fill stroke markers" d=" M 916.0360056283529 1248.6629402519998 L 916.0360056283529 1268.2651842119997 L 962.3952092254232 1268.2651842119997 L 972.1963312054231 1258.4640622319998 L 972.1963312054231 1248.6629402519998 L 916.0360056283529 1248.6629402519998" stroke-miterlimit="10" stroke-width="2.3336004714285714" stroke-dasharray=""/><text fill="black" stroke="none" font-family="sans-serif" font-size="8.8pt" font-style="normal" font-weight="bold" text-decoration="normal" x="932.3712089283529" y="1261.7311028919996" text-anchor="start" dominant-baseline="alphabetic" xml:space="preserve">alt</text><text fill="black" stroke="none" font-family="sans-serif" font-size="8.8pt" font-style="normal" font-weight="bold" text-decoration="normal" x="988.5315345054231" y="1261.7311028919996" text-anchor="start" dominant-baseline="alphabetic" xml:space="preserve">[Subscriber in cache]</text><g><path fill="none" stroke="black" paint-order="fill stroke markers" d=" M 916.0360056283529 1338.5065584019999 L 1578.7994527635742 1338.5065584019999" stroke-miterlimit="10" stroke-width="2.3336004714285714" stroke-dasharray="4.083800825"/></g><g/><text fill="black" stroke="none" font-family="sans-serif" font-size="8.8pt" font-style="normal" font-weight="bold" text-decoration="normal" x="988.5315345054231" y="1351.5747210419997" text-anchor="start" dominant-baseline="alphabetic" xml:space="preserve">[Subscriber not in cache]</text></g><g/></g><g/><g/><g/><g/><g/><g/><g/><g/><g/></g></svg>