<svg version="1.1" xmlns="http://www.w3.org/2000/svg" xmlns:xlink="http://www.w3.org/1999/xlink" width="1668" height="1805"><defs/><g><g/><g/><g/><g/><g/><g/><g/><g/><g/><g/><g/><g/><g/><g/><g/><g/><g/><g/><g/><g/><g/><g/><g/><g/><g/><g/><g/><g/><g/><g/><g><rect fill="white" stroke="none" x="0" y="0" width="1668" height="1805"/></g><g><text fill="black" stroke="none" font-family="sans-serif" font-size="16.5pt" font-style="normal" font-weight="normal" text-decoration="normal" x="740.6425261217448" y="24.50280495" text-anchor="start" dominant-baseline="alphabetic" xml:space="preserve">Message Received</text></g><g><g><path fill="#9F5F9F" stroke="black" paint-order="fill stroke markers" d=" M 8.167601650000003 58.5617038305 L 119.02673073125 58.5617038305 L 119.02673073125 1771.389445852 L 8.167601650000003 1771.389445852 L 8.167601650000003 58.5617038305" stroke-miterlimit="10" stroke-width="1.3612669416666667" stroke-dasharray=""/></g><g><text fill="black" stroke="none" font-family="sans-serif" font-size="11pt" font-style="normal" font-weight="bold" text-decoration="normal" x="44.441839347363285" y="81.43098845050001" text-anchor="start" dominant-baseline="alphabetic" xml:space="preserve">Slack</text></g><g><path fill="none" stroke="black" paint-order="fill stroke markers" d=" M 206.57785908079427 50.394102180500006 L 1549.6118595085286 50.394102180500006 L 1549.6118595085286 1771.389445852 L 206.57785908079427 1771.389445852 L 206.57785908079427 50.394102180500006" stroke-miterlimit="10" stroke-width="1.3612669416666667" stroke-dasharray=""/></g><g><text fill="black" stroke="none" font-family="sans-serif" font-size="11pt" font-style="normal" font-weight="bold" text-decoration="normal" x="797.0068313405599" y="73.2633868005" text-anchor="start" dominant-baseline="alphabetic" xml:space="preserve">Service Provider Slack </text></g><g><path fill="#42b983" stroke="black" paint-order="fill stroke markers" d=" M 1574.6090905552082 58.5617038305 L 1660.2141302809896 58.5617038305 L 1660.2141302809896 1771.389445852 L 1574.6090905552082 1771.389445852 L 1574.6090905552082 58.5617038305" stroke-miterlimit="10" stroke-width="1.3612669416666667" stroke-dasharray=""/></g><g><text fill="black" stroke="none" font-family="sans-serif" font-size="11pt" font-style="normal" font-weight="bold" text-decoration="normal" x="1591.756626897591" y="81.43098845050001" text-anchor="start" dominant-baseline="alphabetic" xml:space="preserve">Hopper</text></g></g><g><path fill="none" stroke="black" paint-order="fill stroke markers" d=" M 63.597166190625 167.272481792 L 63.597166190625 1805.693372782" stroke-miterlimit="10" stroke-width="1.3612669416666667" stroke-dasharray="12.565541,5.445067766666667"/><path fill="none" stroke="black" paint-order="fill stroke markers" d=" M 279.1226732552083 167.272481792 L 279.1226732552083 1805.693372782" stroke-miterlimit="10" stroke-width="1.3612669416666667" stroke-dasharray="12.565541,5.445067766666667"/><path fill="none" stroke="black" paint-order="fill stroke markers" d=" M 555.7613691279948 167.272481792 L 555.7613691279948 1805.693372782" stroke-miterlimit="10" stroke-width="1.3612669416666667" stroke-dasharray="12.565541,5.445067766666667"/><path fill="none" stroke="black" paint-order="fill stroke markers" d=" M 684.1294398596355 167.272481792 L 684.1294398596355 1805.693372782" stroke-miterlimit="10" stroke-width="1.3612669416666667" stroke-dasharray="12.565541,5.445067766666667"/><path fill="none" stroke="black" paint-order="fill stroke markers" d=" M 810.0601479203776 167.272481792 L 810.0601479203776 1805.693372782" stroke-miterlimit="10" stroke-width="1.3612669416666667" stroke-dasharray="12.565541,5.445067766666667"/><path fill="none" stroke="black" paint-order="fill stroke markers" d=" M 960.851253319987 167.272481792 L 960.851253319987 1805.693372782" stroke-miterlimit="10" stroke-width="1.3612669416666667" stroke-dasharray="12.565541,5.445067766666667"/><path fill="none" stroke="black" paint-order="fill stroke markers" d=" M 1194.283070530664 167.272481792 L 1194.283070530664 1805.693372782" stroke-miterlimit="10" stroke-width="1.3612669416666667" stroke-dasharray="12.565541,5.445067766666667"/><path fill="none" stroke="black" paint-order="fill stroke markers" d=" M 1501.1006757052082 167.272481792 L 1501.1006757052082 1805.693372782" stroke-miterlimit="10" stroke-width="1.3612669416666667" stroke-dasharray="12.565541,5.445067766666667"/><path fill="none" stroke="black" paint-order="fill stroke markers" d=" M 1617.411610418099 167.272481792 L 1617.411610418099 1805.693372782" stroke-miterlimit="10" stroke-width="1.3612669416666667" stroke-dasharray="12.565541,5.445067766666667"/></g><g><g><path fill="white" stroke="black" paint-order="fill stroke markers" d=" M 96.022544741125 120.39044832100001 A 24.2577769005 24.2577769005 0 1 1 96.02253261223755 120.36619054814246 M 32.560279920625 94.74417914 L 32.560279920625 146.03671750200002 M 31.171787640124997 120.39044832100001 L 47.506990940125 120.39044832100001" stroke-miterlimit="10" stroke-width="2.7769845610000004" stroke-dasharray=""/></g><g><g/><text fill="black" stroke="none" font-family="sans-serif" font-size="11pt" font-style="normal" font-weight="normal" text-decoration="normal" x="16.335203300000003" y="162.371920802" text-anchor="start" dominant-baseline="alphabetic" xml:space="preserve">SlackEventApi</text></g><g><path fill="white" stroke="black" paint-order="fill stroke markers" d=" M 311.5480518057083 120.39044832100001 A 24.2577769005 24.2577769005 0 1 1 311.5480396768209 120.36619054814246 M 248.08578698520833 94.74417914 L 248.08578698520833 146.03671750200002 M 246.69729470470833 120.39044832100001 L 263.0324980047083 120.39044832100001" stroke-miterlimit="10" stroke-width="2.7769845610000004" stroke-dasharray=""/></g><g><g/><text fill="black" stroke="none" font-family="sans-serif" font-size="11pt" font-style="normal" font-weight="normal" text-decoration="normal" x="214.74546073079426" y="162.371920802" text-anchor="start" dominant-baseline="alphabetic" xml:space="preserve">SpMessageHandler</text></g><g><path fill="white" stroke="black" paint-order="fill stroke markers" d=" M 580.0191460284948 120.39044832100001 A 24.2577769005 24.2577769005 0 1 1 580.0191338996074 120.36619054814246 M 552.4943284679948 96.1326714205 L 562.2954504479948 87.96506977050001 M 552.4943284679948 96.1326714205 L 562.2954504479948 104.3002730705" stroke-miterlimit="10" stroke-width="2.7769845610000004" stroke-dasharray=""/></g><g><g/><text fill="black" stroke="none" font-family="sans-serif" font-size="11pt" font-style="normal" font-weight="normal" text-decoration="normal" x="492.6117948482097" y="162.371920802" text-anchor="start" dominant-baseline="alphabetic" xml:space="preserve">SpMessageService</text></g><g><path fill="white" stroke="black" paint-order="fill stroke markers" d=" M 708.3872167601354 120.39044832100001 A 24.2577769005 24.2577769005 0 1 1 708.387204631248 120.36619054814246 M 680.8623991996354 96.1326714205 L 690.6635211796354 87.96506977050001 M 680.8623991996354 96.1326714205 L 690.6635211796354 104.3002730705" stroke-miterlimit="10" stroke-width="2.7769845610000004" stroke-dasharray=""/></g><g><g/><text fill="black" stroke="none" font-family="sans-serif" font-size="11pt" font-style="normal" font-weight="normal" text-decoration="normal" x="635.24614670778" y="162.371920802" text-anchor="start" dominant-baseline="alphabetic" xml:space="preserve">SpUserService</text></g><g><path fill="white" stroke="black" paint-order="fill stroke markers" d=" M 834.3179248208776 120.39044832100001 A 24.2577769005 24.2577769005 0 1 1 834.3179126919902 120.36619054814246 M 806.7931072603776 96.1326714205 L 816.5942292403776 87.96506977050001 M 806.7931072603776 96.1326714205 L 816.5942292403776 104.3002730705" stroke-miterlimit="10" stroke-width="2.7769845610000004" stroke-dasharray=""/></g><g><g/><text fill="black" stroke="none" font-family="sans-serif" font-size="11pt" font-style="normal" font-weight="normal" text-decoration="normal" x="749.3479363114909" y="162.371920802" text-anchor="start" dominant-baseline="alphabetic" xml:space="preserve">SpChannelService</text></g><g><path fill="white" stroke="black" paint-order="fill stroke markers" d=" M 985.1090302204869 120.39044832100001 A 24.2577769005 24.2577769005 0 1 1 985.1090180915995 120.36619054814246 M 957.584212659987 96.1326714205 L 967.3853346399869 87.96506977050001 M 957.584212659987 96.1326714205 L 967.3853346399869 104.3002730705" stroke-miterlimit="10" stroke-width="2.7769845610000004" stroke-dasharray=""/></g><g><g/><text fill="black" stroke="none" font-family="sans-serif" font-size="11pt" font-style="normal" font-weight="normal" text-decoration="normal" x="887.1075628292643" y="162.371920802" text-anchor="start" dominant-baseline="alphabetic" xml:space="preserve">SpSubscriptionService</text></g><g><path fill="white" stroke="black" paint-order="fill stroke markers" d=" M 1218.540847431164 118.16886067220001 A 24.2577769005 24.2577769005 0 1 1 1218.5408353022765 118.14460289934246 M 1168.636801349664 144.6482252215 L 1217.1523551506639 144.6482252215" stroke-miterlimit="10" stroke-width="2.7769845610000004" stroke-dasharray=""/></g><g><g/><text fill="black" stroke="none" font-family="sans-serif" font-size="11pt" font-style="normal" font-weight="normal" text-decoration="normal" x="1164.1291780135741" y="162.371920802" text-anchor="start" dominant-baseline="alphabetic" xml:space="preserve">SpCache</text></g><g><path fill="white" stroke="black" paint-order="fill stroke markers" d=" M 1477.2512788872082 135.255483324 L 1477.2512788872082 100.95155639400002 L 1524.9500725232083 100.95155639400002 L 1524.9500725232083 135.255483324" stroke-miterlimit="10" stroke-width="2.7769845610000004" stroke-dasharray=""/><path fill="white" stroke="black" paint-order="fill stroke markers" d=" M 1524.9500725232083 99.75908655310002 L 1524.9488800633046 99.86689709801664 L 1524.9453028028386 99.97469686196861 L 1524.939341099533 100.08247506506937 L 1524.930995549554 100.19022092958842 L 1524.9202669874487 100.2979236810291 L 1524.9071564860649 100.40557254920603 L 1524.8916653564415 100.51315676932207 L 1524.873795147679 100.62066558304487 L 1524.853547646783 100.72808823958268 L 1524.8309248784867 100.83541399675931 L 1524.8059291050483 100.94263212208854 L 1524.7785628260244 101.04973189384714 L 1524.7488287780197 101.1567026021472 L 1524.7167299344146 101.26353355000704 L 1524.6822695050664 101.37021405442088 L 1524.6454509359896 101.4767334474272 L 1524.6062779090105 101.58308107717545 L 1524.5647543413986 101.68924630899127 L 1524.5208843854766 101.79521852643998 L 1524.4746724282033 101.90098713238812 L 1524.426123090736 102.00654155006325 L 1524.375241227968 102.11187122411154 L 1524.3220319280429 102.21696562165339 L 1524.2665005118467 102.32181423333661 L 1524.2086525324748 102.4264065743874 L 1524.1484937746766 102.53073218565882 L 1524.0860302542778 102.63478063467669 L 1524.0212682175788 102.7385415166828 L 1523.9542141407287 102.84200445567542 L 1523.8848747290797 102.94515910544688 L 1523.8132569165152 103.04799515061815 L 1523.7393678647566 103.15050230767042 L 1523.6632149626473 103.2526703259734 L 1523.5848058254146 103.3544889888104 L 1523.5041482939066 103.4559481144 L 1523.421250433809 103.55703755691417 L 1523.3361205348392 103.6577472074929 L 1523.248767109916 103.75806699525508 L 1523.1591988943087 103.8579868883055 L 1523.0674248447644 103.95749689473814 L 1522.9734541386122 104.05658706363529 L 1522.8772961728437 104.15524748606262 L 1522.7789605631754 104.25346829606012 L 1522.6784571430867 104.35123967162862 L 1522.5757959628354 104.44855183571204 L 1522.4709872884544 104.54539505717509 L 1522.3640416007236 104.6417596517763 L 1522.2549695941227 104.73763598313651 L 1522.1437821757613 104.83301446370251 L 1522.0304904642887 104.92788555570571 L 1521.9151057887818 105.02223977211597 L 1521.7976396876118 105.11606767759027 L 1521.678103907291 105.20935988941625 L 1521.5565104012976 105.30210707845049 L 1521.4328713288812 105.39429997005135 L 1521.3071990538458 105.48592934500653 L 1521.1795061433143 105.57698604045486 L 1521.0498053664714 105.66746095080268 L 1520.9181096932864 105.75734502863436 L 1520.7844322932172 105.84662928561703 L 1520.6487865338922 105.93530479339938 L 1520.5111859797744 106.02336268450453 L 1520.3716443908045 106.11079415321676 L 1520.2301757210253 106.19759045646204 L 1520.0867941171855 106.28374291468239 L 1519.9415139173261 106.36924291270377 L 1519.7943496493465 106.45408190059764 L 1519.6453160295503 106.5382513945359 L 1519.4944279611755 106.62174297763931 L 1519.3417005329031 106.70454830081913 L 1519.1871490173487 106.78665908361204 L 1519.0307888695352 106.86806711500819 L 1518.872635725347 106.94876425427228 L 1518.7127053999668 107.02874243175762 L 1518.5510138862935 107.10799364971314 L 1518.387577353344 107.18650998308306 L 1518.2224121446357 107.26428358029946 L 1518.0555347765514 107.34130666406747 L 1517.886961936689 107.41757153214289 L 1517.7167104821917 107.49307055810243 L 1517.5447974380636 107.56779619210644 L 1517.3712399954657 107.6417409616538 L 1517.1960555099972 107.71489747232916 L 1517.0192614999612 107.7872584085424 L 1516.840875644611 107.85881653426023 L 1516.6609157823839 107.9295646937297 L 1516.4793999091157 107.9994958121938 L 1516.2963461762429 108.06860289659899 L 1516.1117728889858 108.1368790362944 L 1515.9256985045197 108.20431740372297 L 1515.7381416301278 108.27091125510412 L 1515.549121021341 108.33665393110826 L 1515.3586555800632 108.40153885752254 L 1515.1667643526794 108.46555954590839 L 1514.9734665281526 108.52870959425034 L 1514.778781436104 108.59098268759617 L 1514.5827285448809 108.65237259868843 L 1514.3853274596088 108.71287318858718 L 1514.1865979202316 108.77247840728386 L 1513.9865597995379 108.83118229430623 L 1513.785233101173 108.88897897931456 L 1513.5826379576388 108.94586268268847 L 1513.3787946282812 109.00182771610504 L 1513.1737234972627 109.05686848310758 L 1512.967445071526 109.11097947966525 L 1512.7599799787417 109.16415529472346 L 1512.551348965246 109.21639061074505 L 1512.3415728939665 109.26768020424194 L 1512.1306727423355 109.31801894629751 L 1511.9186696001925 109.36740180307952 L 1511.7055846676749 109.41582383634344 L 1511.4914392530984 109.46328020392627 L 1511.2762547708262 109.50976616023082 L 1511.060052739127 109.55527705670022 L 1510.8428547780238 109.5998083422827 L 1510.6246826071317 109.64335556388684 L 1510.4055580434863 109.68591436682678 L 1510.185502999361 109.72748049525767 L 1509.9645394800768 109.7680497926013 L 1509.7426895818019 109.80761820196176 L 1509.5199754893408 109.84618176653109 L 1509.2964194739175 109.88373662998495 L 1509.0720438909468 109.92027903686831 L 1508.8468711778005 109.95580533297093 L 1508.620923851562 109.99031196569278 L 1508.394224506776 110.02379548439939 L 1508.1667958131875 110.05625254076675 L 1507.9386605134769 110.08767988911629 L 1507.7098414209834 110.11807438673935 L 1507.4803614174261 110.14743299421153 L 1507.250243450614 110.17575277569651 L 1507.019510532152 110.20303089923975 L 1506.7881857351397 110.22926463705164 L 1506.5562921918638 110.25445136578027 L 1506.3238530914857 110.27858856677372 L 1506.0908916777216 110.30167382633203 L 1505.8574312465187 110.32370483594849 L 1505.6234951437257 110.34467939254047 L 1505.3891067627578 110.3645953986698 L 1505.1542895422579 110.38345086275248 L 1504.9190669637521 110.40124389925779 L 1504.6834625493025 110.41797272889693 L 1504.4474998591543 110.43363567880087 L 1504.2112024893795 110.44823118268765 L 1503.9745940695184 110.46175778101907 L 1503.737698260216 110.47421412114657 L 1503.5005387508554 110.4855989574465 L 1503.2631392571902 110.49591115144473 L 1503.0255235189718 110.50514967193044 L 1502.7877152975761 110.5133135950593 L 1502.5497383736272 110.5204021044458 L 1502.3116165446188 110.52641449124488 L 1502.0733736225354 110.53135015422289 L 1501.8350334314712 110.53520859981765 L 1501.596619805246 110.53798944218781 L 1501.3581565850245 110.53969240325145 L 1501.1196676169293 110.54031731271388 L 1500.8811767496588 110.53986410808467 L 1500.642707832101 110.53833283468393 L 1500.4042847109488 110.5357236456377 L 1500.1659312283157 110.53203680186272 L 1499.9276712193514 110.52727267204028 L 1499.689528509858 110.52143173257942 L 1499.4515269139083 110.5145145675692 L 1499.2136902314635 110.50652186872036 L 1498.9760422459935 110.4974544352961 L 1498.7386067220991 110.48731317403227 L 1498.5014074031344 110.47609909904648 L 1498.264468008834 110.46381333173692 L 1498.0278122329396 110.45045710067006 L 1497.791463740832 110.4360317414579 L 1497.555446167163 110.42053869662433 L 1497.3197831134933 110.40397951546092 L 1497.0844981459322 110.38635585387198 L 1496.8496147927801 110.367669474209 L 1496.615156542177 110.34792224509437 L 1496.3811468397519 110.32711614123453 L 1496.1476090862807 110.30525324322254 L 1495.9145666353436 110.28233573732997 L 1495.682042790992 110.25836591528834 L 1495.4500608054161 110.23334617405986 L 1495.2186438766214 110.2072790155978 L 1494.987815146108 110.18016704659628 L 1494.7575976965563 110.15201297822964 L 1494.5280145495199 110.1228196258812 L 1494.2990886631217 110.09258990886192 L 1494.0708429297597 110.06132685011828 L 1493.843300173817 110.0290335759301 L 1493.6164831493797 109.99571331559791 L 1493.390414537961 109.96136940111997 L 1493.165116946234 109.9260052668591 L 1492.9406129037702 109.88962444919923 L 1492.7169248607863 109.85223058619187 L 1492.4940751859003 109.81382741719212 L 1492.2720861638943 109.77441878248487 L 1492.050979993485 109.73400862290077 L 1491.8307787851058 109.6926009794221 L 1491.6115045586935 109.6501999927787 L 1491.3931792414883 109.60680990303389 L 1491.17582466584 109.56243504916051 L 1490.959462567025 109.51707986860694 L 1490.7441145810726 109.47074889685346 L 1490.5298022426023 109.42344676695863 L 1490.3165469826693 109.37517820909602 L 1490.1043701266217 109.3259480500812 L 1489.8932928919685 109.27576121288904 L 1489.6833363862572 109.22462271616142 L 1489.4745216049632 109.17253767370543 L 1489.266869429391 109.1195112939819 L 1489.0604006245846 109.0655488795846 L 1488.855135837253 109.01065582671 L 1488.6510955937035 108.95483762461768 L 1488.4483002977906 108.89809985508128 L 1488.246770228875 108.84044819183053 L 1488.046525539795 108.78188839998367 L 1487.8475862548537 108.7224263354711 L 1487.649972267813 108.66206794444972 L 1487.453703339907 108.60081926270831 L 1487.2587990978652 108.53868641506405 L 1487.065279031949 108.47567561474989 L 1486.8731624940044 108.41179316279337 L 1486.6824686955247 108.34704544738645 L 1486.4932167057307 108.2814389432467 L 1486.3054254496637 108.21498021096988 L 1486.119113706293 108.14767589637383 L 1485.9343001066377 108.07953272983391 L 1485.7510031319036 108.01055752561001 L 1485.5692411116354 107.94075718116505 L 1485.3890322218838 107.87013867647532 L 1485.2103944833875 107.79870907333245 L 1485.0333457597717 107.72647551463722 L 1484.8579037557608 107.6534452236853 L 1484.6840860154093 107.57962550344493 L 1484.5119099203464 107.50502373582663 L 1484.3413926880382 107.42964738094497 L 1484.1725513700655 107.35350397637264 L 1484.0054028504196 107.27660113638665 L 1483.8399638438132 107.1989465512069 L 1483.6762508940092 107.12054798622721 L 1483.5142803721658 107.04141328123873 L 1483.3540684752004 106.96155034964602 L 1483.1956312241693 106.8809671776757 L 1483.0389844626657 106.7996718235778 L 1482.8841438552347 106.71767241681998 L 1482.7311248858084 106.63497715727459 L 1482.579942856156 106.55159431439867 L 1482.4306128843548 106.46753222640703 L 1482.2831499032773 106.38279929943842 L 1482.1375686590989 106.29740400671491 L 1481.9938837098223 106.21135488769461 L 1481.852109423823 106.12466054721774 L 1481.7122599784116 106.03732965464607 L 1481.574349358416 105.94937094299611 L 1481.4383913547829 105.8607932080657 L 1481.3043995632 105.77160530755455 L 1481.172387382734 105.68181616017836 L 1481.0423680144938 105.59143474477705 L 1480.9143544603073 105.50047009941686 L 1480.7883595214234 105.40893132048649 L 1480.664395797231 105.31682756178758 L 1480.5424756839993 105.22416803361924 L 1480.422611373638 105.13096200185706 L 1480.3048148524779 105.03721878702656 L 1480.1890979000734 104.94294776337108 L 1480.0754720880234 104.84815835791446 L 1479.9639487788138 104.75286004951823 L 1479.8545391246832 104.65706236793383 L 1479.7472540665055 104.56077489284957 L 1479.6421043326973 104.46400725293273 L 1479.5391004381443 104.36676912486666 L 1479.43825268315 104.26907023238314 L 1479.3395711524058 104.17092034529 L 1479.243065713983 104.07232927849415 L 1479.1487460183444 103.97330689102013 L 1479.0566214973815 103.87386308502415 L 1478.9667013634694 103.77400780480394 L 1478.8789946085462 103.67375103580433 L 1478.793510003215 103.57310280361865 L 1478.7102560958647 103.47207317298626 L 1478.6292412118169 103.37067224678601 L 1478.550473452492 103.26891016502606 L 1478.4739606946007 103.16679710382974 L 1478.399710589355 103.0643432744181 L 1478.3277305617032 102.96155892208871 L 1478.2580278095886 102.85845432519113 L 1478.190609303228 102.75503979409915 L 1478.125481784416 102.65132567017969 L 1478.0626517658502 102.5473223247587 L 1478.00212553048 102.44304015808407 L 1477.9439091308786 102.33848959828556 L 1477.8880083886372 102.23368110033203 L 1477.8344288937838 102.12862514498595 L 1477.7831760042232 102.02333223775527 L 1477.7342548452011 101.91781290784299 L 1477.6876703087935 101.81207770709416 L 1477.6434270534144 101.70613720894077 L 1477.601529503353 101.60000200734433 L 1477.5619818483292 101.49368271573654 L 1477.5247880430757 101.387189965958 L 1477.4899518069417 101.2805344071949 L 1477.457476623522 101.17372670491429 L 1477.427365740308 101.06677753979733 L 1477.3996221683628 100.95969760667145 L 1477.3742486820204 100.85249761344073 L 1477.3512478186085 100.74518828001514 L 1477.330621878194 100.63778033723861 L 1477.312372923354 100.5302845258159 L 1477.2965027789685 100.42271159523858 L 1477.283013032039 100.31507230271008 L 1477.2719050315288 100.20737741206993 L 1477.2631798882287 100.09963769271747 L 1477.2568384746457 99.99186391853482 L 1477.252881424916 99.88406686680962 L 1477.2513091347414 99.77625731715719 L 1477.2521217613494 99.66844605044267 L 1477.255319223478 99.56064384770288 L 1477.2609012013836 99.45286148906825 L 1477.2688671368733 99.34510975268485 L 1477.27921623336 99.23739941363651 L 1477.2919474559428 99.12974124286738 L 1477.30705953151 99.02214600610482 L 1477.3245509488665 98.91462446278284 L 1477.3444199588853 98.80718736496618 L 1477.366664574682 98.69984545627509 L 1477.3912825718135 98.59260947081098 L 1477.4182714885005 98.48549013208303 L 1477.447628625874 98.37849815193587 L 1477.4793510482443 98.27164422947833 L 1477.5134355833961 98.16493905001363 L 1477.5498788229042 98.05839328397077 L 1477.588677122475 97.9520175858376 L 1477.6298266023107 97.84582259309526 L 1477.6733231474977 97.73981892515455 L 1477.7191624084178 97.6340171822939 L 1477.767339801183 97.52842794459946 L 1477.8178505080941 97.423061770907 L 1477.8706894781228 97.31792919774607 L 1477.9258514274159 97.21304073828638 L 1477.9833308398245 97.10840688128647 L 1478.0431219674554 97.00403809004486 L 1478.1052188312453 96.89994480135368 L 1478.1696152215598 96.79613742445507 L 1478.2363046988135 96.6926263400002 L 1478.3052805941143 96.58942189901128 L 1478.37653600993 96.48653442184639 L 1478.4500638207787 96.38397419716749 L 1478.5258566739403 96.28175148091161 L 1478.6039069901929 96.17987649526519 L 1478.6842069645695 96.07835942764187 L 1478.76674856714 95.97721042966384 L 1478.8515235438128 95.8764396161466 L 1478.9385234171607 95.77605706408754 L 1479.0277394872692 95.67607281165819 L 1479.119162832605 95.57649685720048 L 1479.2127843109106 95.47733915822688 L 1479.3085945601158 95.37860963042466 L 1479.4065839992754 95.28031814666433 L 1479.5067428295272 95.18247453601234 L 1479.6090610350716 95.08508858274823 L 1479.7135283841735 94.98817002538617 L 1479.820134430185 94.89172855570112 L 1479.9288685125903 94.79577381775971 L 1480.0397197580717 94.70031540695574 L 1480.152677081597 94.60536286905077 L 1480.267729187528 94.51092569921943 L 1480.38486457075 94.41701334110004 L 1480.5040715178227 94.32363518585014 L 1480.6253381081501 94.23080057120742 L 1480.7486522151744 94.13851878055601 L 1480.874001507588 94.04679904199807 L 1481.0013734505656 93.955650527431 L 1481.1307553070194 93.86508235163033 L 1481.2621341388715 93.77510357133815 L 1481.395496808348 93.68572318435751 L 1481.5308299792935 93.59695012865262 L 1481.6681201185033 93.5087932814551 L 1481.807353497078 93.42126145837616 L 1481.948516191796 93.33436341252519 L 1482.0915940865052 93.24810783363438 L 1482.2365728735354 93.1625033471897 L 1482.3834380551286 93.07755851356848 L 1482.5321749448892 92.9932818271833 L 1482.6827686692523 92.90968171563254 L 1482.8352041689704 92.82676653885773 L 1482.9894662006213 92.74454458830742 L 1483.14553933813 92.66302408610815 L 1483.303407974313 92.58221318424222 L 1483.4630563224378 92.50211996373247 L 1483.624468417803 92.4227524338342 L 1483.7876281193332 92.34411853123427 L 1483.952519111195 92.26622611925741 L 1484.119124904426 92.1890829870799 L 1484.2874288385856 92.11269684895069 L 1484.4574140834209 92.0370753434199 L 1484.6290636405492 91.9622260325751 L 1484.8023603451575 91.888156401285 L 1484.97728686772 91.81487385645099 L 1485.1538257157301 91.74238572626649 L 1485.3319592354503 91.67069925948411 L 1485.5116696136768 91.59982162469079 L 1485.6929388795218 91.52975990959095 L 1485.8757489062095 91.4605211202977 L 1486.0600814128898 91.3921121806323 L 1486.2459179664654 91.32453993143167 L 1486.433239983436 91.25781112986445 L 1486.622028731756 91.1919324487552 L 1486.8122653327077 91.12691047591709 L 1487.0039307627899 91.06275171349324 L 1487.197005855619 90.99946257730645 L 1487.3914713038466 90.93704939621756 L 1487.58730766109 90.87551841149269 L 1487.784495343877 90.81487577617904 L 1487.9830146336033 90.75512755448958 L 1488.1828456785051 90.69627972119672 L 1488.3839684956451 90.63833816103474 L 1488.5863629729088 90.58130866811136 L 1488.7900088710169 90.52519694532836 L 1488.9948858255498 90.47000860381125 L 1489.2009733489824 90.41574916234819 L 1489.4082508327344 90.36242404683813 L 1489.61669754923 90.31003858974816 L 1489.826292653971 90.25859802958036 L 1490.037015187622 90.20810751034786 L 1490.248844078105 90.1585720810605 L 1490.4617581427076 90.10999669521995 L 1490.6757360902006 90.0623862103243 L 1490.8907565229679 90.01574538738238 L 1491.106797939145 89.9700788904376 L 1491.3238387347708 89.92539128610161 L 1491.541857205946 89.88168704309761 L 1491.7608315510056 89.83897053181346 L 1491.9807398726973 89.79724602386472 L 1492.2015601803726 89.75651769166738 L 1492.4232703921841 89.71678960802075 L 1492.645848337296 89.67806574570005 L 1492.869271758099 89.64034997705929 L 1493.0935183124373 89.60364607364387 L 1493.3185655758423 89.56795770581357 L 1493.544391043775 89.53328844237541 L 1493.770972133877 89.49964175022686 L 1493.9982861882281 89.46702099400908 L 1494.2263104756123 89.43542943577052 L 1494.4550221937907 89.40487023464067 L 1494.6843984717823 89.37534644651419 L 1494.9144163721503 89.34686102374526 L 1495.1450528932965 89.31941681485246 L 1495.376284971761 89.29301656423378 L 1495.6080894845284 89.2676629118923 L 1495.8404432513407 89.2433583931721 L 1496.073323037015 89.22010543850483 L 1496.3067055537665 89.19790637316656 L 1496.540567463538 89.17676341704532 L 1496.774885380334 89.15667868441913 L 1497.0096358725575 89.13765418374449 L 1497.244795465355 89.11969181745562 L 1497.4803406429635 89.10279338177418 L 1497.716247851061 89.08696056652965 L 1497.9524934991239 89.0721949549904 L 1498.1890539627836 89.05849802370521 L 1498.4259055861914 89.04587114235585 L 1498.663024684382 89.03431557361992 L 1498.9003875456435 89.02383247304465 L 1499.1379704338872 89.01442288893136 L 1499.3757495910227 89.00608776223065 L 1499.613701239332 88.99882792644821 L 1499.8518015838488 88.9926441075616 L 1500.0900268147368 88.98753692394752 L 1500.3283531096718 88.9835068863201 L 1500.5667566362229 88.98055439767974 L 1500.8052135542357 88.97867975327284 L 1501.0437000182176 88.97788314056228 L 1501.2821921797206 88.97816463920867 L 1501.5206661897275 88.97952422106238 L 1501.7590982010358 88.98196175016635 L 1501.9974643706432 88.98547698276971 L 1502.2357408621317 88.99006956735212 L 1502.47390384805 88.99573904465896 L 1502.7119295122986 89.00248484774721 L 1502.949794052509 89.0103063020422 L 1503.187473682426 89.019202625405 L 1503.4249446342837 89.0291729282107 L 1503.6621831611858 89.04021621343732 L 1503.8991655394768 89.05233137676555 L 1504.1358680711164 89.06551720668914 L 1504.3722670860486 89.0797723846361 L 1504.6083389445691 89.0950954851005 L 1504.8440600396889 89.11148497578507 L 1505.0794067994946 89.12893921775441 L 1505.3143556895063 89.14745646559885 L 1505.5488832150313 89.16703486760905 L 1505.782965923512 89.18767246596111 L 1506.0165804068727 89.20936719691241 L 1506.2497033038599 89.23211689100792 L 1506.4823113023779 89.2559192732972 L 1506.714381141821 89.28077196356185 L 1506.9458896153985 89.30667247655354 L 1507.1768135724558 89.33361822224259 L 1507.40712992079 89.36160650607685 L 1507.636815628958 89.39063452925127 L 1507.8658477285803 89.42069938898774 L 1508.094203316638 89.45179807882532 L 1508.3218595577625 89.48392748892095 L 1508.5487936865193 89.5170844063604 L 1508.7749830096848 89.55126551547954 L 1509.0004049085148 89.58646739819596 L 1509.225036841008 89.62268653435072 L 1509.4488563441575 89.65991930206037 L 1509.6718410362 89.69816197807918 L 1509.893968618852 89.73741073817143 L 1510.1152168795406 89.7776616574938 L 1510.3355636936237 89.8189107109879 L 1510.5549870266036 89.86115377378276 L 1510.7734649363301 89.9043866216073 L 1510.990975575194 89.94860493121277 L 1511.2074971923128 89.99380428080505 L 1511.4230081357052 90.03998015048685 L 1511.6374868544565 90.0871279227097 L 1511.8509119008734 90.13524288273562 L 1512.0632619326293 90.18432021910876 L 1512.274515714898 90.23435502413635 L 1512.4846521224772 90.28534229437957 L 1512.6936501419013 90.33727693115392 L 1512.9014888735423 90.39015374103897 L 1513.1081475337007 90.44396743639781 L 1513.3136054566824 90.49871263590576 L 1513.5178420968664 90.55438386508847 L 1513.7208370307587 90.6109755568694 L 1513.9225699590354 90.66848205212658 L 1514.1230207085714 90.72689760025837 L 1514.3221692344591 90.78621635975864 L 1514.5199956220117 90.84643239880089 L 1514.7164800887554 90.90753969583137 L 1514.911602986407 90.96953214017132 L 1515.1053448028397 91.03240353262795 L 1515.2976861640332 91.09614758611443 L 1515.4886078360116 91.1607579262785 L 1515.6780907267669 91.22622809214002 L 1515.8661158881678 91.29255153673692 L 1516.0526645178547 91.35972162778006 L 1516.2377179611206 91.42773164831627 L 1516.4212577127748 91.49657479740019 L 1516.6032654189955 91.56624419077427 L 1516.7837228791634 91.63673286155725 L 1516.9626120476833 91.70803376094076 L 1517.1399150357872 91.78013975889431 L 1517.3156141133238 91.85304364487818 L 1517.4896917105323 91.92673812856452 L 1517.6621304197974 92.00121584056639 L 1517.8329129973924 92.07646933317463 L 1518.0020223652018 92.15249108110271 L 1518.1694416124294 92.22927348223918 L 1518.3351539972903 92.3068088584079 L 1518.499142948684 92.3850894561359 L 1518.661392067852 92.4641074474286 L 1518.8218851300176 92.54385493055275 L 1518.9806060860083 92.62432393082648 L 1519.137539063861 92.70550640141681 L 1519.2926683704084 92.78739422414436 L 1519.445978492849 92.86997921029509 L 1519.5974541002988 92.95325310143917 L 1519.747080045323 93.03720757025692 L 1519.8948413654518 93.12183422137142 L 1520.0407232846762 93.20712459218805 L 1520.1847112149262 93.29307015374081 L 1520.3267907575282 93.3796623115452 L 1520.466947704647 93.46689240645757 L 1520.6051680407043 93.55475171554113 L 1520.7414379437816 93.64323145293818 L 1520.8757437870024 93.73232277074871 L 1521.0080721398942 93.8220167599152 L 1521.1384097697319 93.91230445111346 L 1521.2667436428612 94.00317681564962 L 1521.393060926002 94.09462476636294 L 1521.5173489875306 94.18663915853458 L 1521.639595398745 94.27921079080198 L 1521.7597879351058 94.37233040607906 L 1521.8779145774593 94.46598869248189 L 1521.99396351324 94.56017628425988 L 1522.107923137651 94.65488376273235 L 1522.2197820548245 94.75010165723037 L 1522.3295290789624 94.84582044604385 L 1522.4371532354535 94.94203055737364 L 1522.542643761972 95.03872237028881 L 1522.6459901095532 95.13588621568863 L 1522.747181943648 95.23351237726953 L 1522.846209145158 95.33159109249674 L 1522.943061811445 95.43011255358043 L 1523.0377302573233 95.5290669084566 L 1523.1302050160273 95.62844426177223 L 1523.220476840158 95.72823467587482 L 1523.3085367026083 95.82842817180608 L 1523.3943757974655 95.92901473029994 L 1523.4779855408913 96.02998429278436 L 1523.5593575719813 96.13132676238725 L 1523.6384837536002 96.23303200494607 L 1523.7153561731957 96.33508985002135 L 1523.7899671435898 96.4374900919136 L 1523.8623092037478 96.54022249068399 L 1523.932375119524 96.64327677317824 L 1524.000157884385 96.746642634054 L 1524.065650720111 96.85030973681128 L 1524.128847077473 96.95426771482623 L 1524.1897406368876 97.05850617238767 L 1524.24832530905 97.1630146857367 L 1524.3045952355417 97.26778280410907 L 1524.358544789417 97.37280005078027 L 1524.410168575765 97.47805592411314 L 1524.459461432251 97.58353989860805 L 1524.5064184296293 97.68924142595546 L 1524.5510348722403 97.79514993609072 L 1524.5933062984764 97.90125483825108 L 1524.6332284812302 98.00754552203473 L 1524.6707974283167 98.11401135846187 L 1524.706009382873 98.22064170103758 L 1524.7388608237322 98.32742588681647 L 1524.769348465778 98.43435323746894 L 1524.7974692602718 98.54141306034904 L 1524.8232203951573 98.64859464956368 L 1524.8465992953422 98.75588728704328 L 1524.8676036229567 98.86328024361347 L 1524.8862312775848 98.97076278006811 L 1524.9024803964771 99.07832414824313 L 1524.916349354735 99.18595359209134 L 1524.9278367654742 99.29364034875802 L 1524.9369414799635 99.40137364965727 L 1524.9436625877386 99.50914272154878 L 1524.9479994166948 99.61693678761516 L 1524.9499515331522 99.72474506853963 M 1524.9500725232083 134.0630134831 L 1524.9488800633046 134.17082402801663 L 1524.9453028028386 134.2786237919686 L 1524.939341099533 134.38640199506935 L 1524.930995549554 134.49414785958842 L 1524.9202669874487 134.60185061102908 L 1524.9071564860649 134.70949947920602 L 1524.8916653564415 134.81708369932204 L 1524.873795147679 134.92459251304487 L 1524.853547646783 135.03201516958265 L 1524.8309248784867 135.1393409267593 L 1524.8059291050483 135.24655905208851 L 1524.7785628260244 135.35365882384713 L 1524.7488287780197 135.46062953214718 L 1524.7167299344146 135.56746048000701 L 1524.6822695050664 135.67414098442086 L 1524.6454509359896 135.78066037742718 L 1524.6062779090105 135.88700800717544 L 1524.5647543413986 135.99317323899126 L 1524.5208843854766 136.09914545643997 L 1524.4746724282033 136.2049140623881 L 1524.426123090736 136.31046848006324 L 1524.375241227968 136.41579815411154 L 1524.3220319280429 136.5208925516534 L 1524.2665005118467 136.62574116333658 L 1524.2086525324748 136.7303335043874 L 1524.1484937746766 136.8346591156588 L 1524.0860302542778 136.9387075646767 L 1524.0212682175788 137.0424684466828 L 1523.9542141407287 137.14593138567542 L 1523.8848747290797 137.24908603544688 L 1523.8132569165152 137.35192208061815 L 1523.7393678647566 137.4544292376704 L 1523.6632149626473 137.5565972559734 L 1523.5848058254146 137.6584159188104 L 1523.5041482939066 137.7598750444 L 1523.421250433809 137.86096448691416 L 1523.3361205348392 137.96167413749288 L 1523.248767109916 138.06199392525505 L 1523.1591988943087 138.1619138183055 L 1523.0674248447644 138.26142382473813 L 1522.9734541386122 138.3605139936353 L 1522.8772961728437 138.4591744160626 L 1522.7789605631754 138.5573952260601 L 1522.6784571430867 138.6551666016286 L 1522.5757959628354 138.75247876571203 L 1522.4709872884544 138.84932198717507 L 1522.3640416007236 138.94568658177627 L 1522.2549695941227 139.04156291313652 L 1522.1437821757613 139.1369413937025 L 1522.0304904642887 139.2318124857057 L 1521.9151057887818 139.32616670211596 L 1521.7976396876118 139.41999460759027 L 1521.678103907291 139.51328681941624 L 1521.5565104012976 139.60603400845048 L 1521.4328713288812 139.69822690005134 L 1521.3071990538458 139.7898562750065 L 1521.1795061433143 139.88091297045483 L 1521.0498053664714 139.97138788080267 L 1520.9181096932864 140.06127195863436 L 1520.7844322932172 140.15055621561703 L 1520.6487865338922 140.23923172339937 L 1520.5111859797744 140.3272896145045 L 1520.3716443908045 140.41472108321673 L 1520.2301757210253 140.501517386462 L 1520.0867941171855 140.58766984468238 L 1519.9415139173261 140.67316984270377 L 1519.7943496493465 140.75800883059765 L 1519.6453160295503 140.8421783245359 L 1519.4944279611755 140.9256699076393 L 1519.3417005329031 141.00847523081913 L 1519.1871490173487 141.09058601361204 L 1519.0307888695352 141.17199404500818 L 1518.872635725347 141.25269118427227 L 1518.7127053999668 141.3326693617576 L 1518.5510138862935 141.41192057971313 L 1518.387577353344 141.49043691308304 L 1518.2224121446357 141.56821051029945 L 1518.0555347765514 141.64523359406746 L 1517.886961936689 141.72149846214288 L 1517.7167104821917 141.79699748810242 L 1517.5447974380636 141.87172312210643 L 1517.3712399954657 141.94566789165378 L 1517.1960555099972 142.01882440232913 L 1517.0192614999612 142.0911853385424 L 1516.840875644611 142.16274346426022 L 1516.6609157823839 142.2334916237297 L 1516.4793999091157 142.3034227421938 L 1516.2963461762429 142.372529826599 L 1516.1117728889858 142.4408059662944 L 1515.9256985045197 142.50824433372296 L 1515.7381416301278 142.5748381851041 L 1515.549121021341 142.64058086110825 L 1515.3586555800632 142.70546578752254 L 1515.1667643526794 142.7694864759084 L 1514.9734665281526 142.83263652425032 L 1514.778781436104 142.89490961759617 L 1514.5827285448809 142.95629952868842 L 1514.3853274596088 143.01680011858718 L 1514.1865979202316 143.07640533728383 L 1513.9865597995379 143.13510922430623 L 1513.785233101173 143.19290590931453 L 1513.5826379576388 143.24978961268846 L 1513.3787946282812 143.30575464610504 L 1513.1737234972627 143.36079541310758 L 1512.967445071526 143.41490640966524 L 1512.7599799787417 143.46808222472345 L 1512.551348965246 143.52031754074505 L 1512.3415728939665 143.57160713424193 L 1512.1306727423355 143.6219458762975 L 1511.9186696001925 143.67132873307952 L 1511.7055846676749 143.71975076634342 L 1511.4914392530984 143.76720713392626 L 1511.2762547708262 143.81369309023083 L 1511.060052739127 143.8592039867002 L 1510.8428547780238 143.9037352722827 L 1510.6246826071317 143.94728249388683 L 1510.4055580434863 143.98984129682677 L 1510.185502999361 144.03140742525764 L 1509.9645394800768 144.07197672260128 L 1509.7426895818019 144.11154513196175 L 1509.5199754893408 144.15010869653108 L 1509.2964194739175 144.18766355998494 L 1509.0720438909468 144.2242059668683 L 1508.8468711778005 144.2597322629709 L 1508.620923851562 144.29423889569279 L 1508.394224506776 144.32772241439937 L 1508.1667958131875 144.36017947076672 L 1507.9386605134769 144.39160681911628 L 1507.7098414209834 144.42200131673934 L 1507.4803614174261 144.45135992421152 L 1507.250243450614 144.4796797056965 L 1507.019510532152 144.50695782923975 L 1506.7881857351397 144.53319156705163 L 1506.5562921918638 144.55837829578024 L 1506.3238530914857 144.5825154967737 L 1506.0908916777216 144.60560075633202 L 1505.8574312465187 144.62763176594848 L 1505.6234951437257 144.64860632254045 L 1505.3891067627578 144.66852232866978 L 1505.1542895422579 144.68737779275247 L 1504.9190669637521 144.70517082925778 L 1504.6834625493025 144.72189965889692 L 1504.4474998591543 144.73756260880086 L 1504.2112024893795 144.75215811268765 L 1503.9745940695184 144.76568471101908 L 1503.737698260216 144.77814105114655 L 1503.5005387508554 144.7895258874465 L 1503.2631392571902 144.7998380814447 L 1503.0255235189718 144.80907660193043 L 1502.7877152975761 144.8172405250593 L 1502.5497383736272 144.82432903444578 L 1502.3116165446188 144.83034142124487 L 1502.0733736225354 144.83527708422287 L 1501.8350334314712 144.83913552981764 L 1501.596619805246 144.8419163721878 L 1501.3581565850245 144.84361933325144 L 1501.1196676169293 144.84424424271387 L 1500.8811767496588 144.84379103808467 L 1500.642707832101 144.84225976468392 L 1500.4042847109488 144.83965057563768 L 1500.1659312283157 144.8359637318627 L 1499.9276712193514 144.83119960204027 L 1499.689528509858 144.82535866257942 L 1499.4515269139083 144.81844149756918 L 1499.2136902314635 144.81044879872033 L 1498.9760422459935 144.8013813652961 L 1498.7386067220991 144.79124010403225 L 1498.5014074031344 144.78002602904647 L 1498.264468008834 144.7677402617369 L 1498.0278122329396 144.75438403067005 L 1497.791463740832 144.73995867145788 L 1497.555446167163 144.72446562662432 L 1497.3197831134933 144.7079064454609 L 1497.0844981459322 144.69028278387196 L 1496.8496147927801 144.671596404209 L 1496.615156542177 144.65184917509436 L 1496.3811468397519 144.6310430712345 L 1496.1476090862807 144.6091801732225 L 1495.9145666353436 144.58626266732998 L 1495.682042790992 144.56229284528834 L 1495.4500608054161 144.53727310405984 L 1495.2186438766214 144.5112059455978 L 1494.987815146108 144.48409397659628 L 1494.7575976965563 144.45593990822962 L 1494.5280145495199 144.4267465558812 L 1494.2990886631217 144.3965168388619 L 1494.0708429297597 144.36525378011828 L 1493.843300173817 144.3329605059301 L 1493.6164831493797 144.2996402455979 L 1493.390414537961 144.26529633111994 L 1493.165116946234 144.22993219685907 L 1492.9406129037702 144.19355137919922 L 1492.7169248607863 144.15615751619185 L 1492.4940751859003 144.1177543471921 L 1492.2720861638943 144.07834571248486 L 1492.050979993485 144.03793555290076 L 1491.8307787851058 143.9965279094221 L 1491.6115045586935 143.9541269227787 L 1491.3931792414883 143.9107368330339 L 1491.17582466584 143.8663619791605 L 1490.959462567025 143.82100679860693 L 1490.7441145810726 143.77467582685347 L 1490.5298022426023 143.72737369695864 L 1490.3165469826693 143.679105139096 L 1490.1043701266217 143.62987498008118 L 1489.8932928919685 143.579688142889 L 1489.6833363862572 143.52854964616142 L 1489.4745216049632 143.4764646037054 L 1489.266869429391 143.4234382239819 L 1489.0604006245846 143.36947580958457 L 1488.855135837253 143.31458275671 L 1488.6510955937035 143.25876455461767 L 1488.4483002977906 143.20202678508127 L 1488.246770228875 143.1443751218305 L 1488.046525539795 143.08581532998366 L 1487.8475862548537 143.02635326547107 L 1487.649972267813 142.9659948744497 L 1487.453703339907 142.9047461927083 L 1487.2587990978652 142.84261334506402 L 1487.065279031949 142.77960254474988 L 1486.8731624940044 142.71572009279336 L 1486.6824686955247 142.65097237738644 L 1486.4932167057307 142.5853658732467 L 1486.3054254496637 142.51890714096987 L 1486.119113706293 142.4516028263738 L 1485.9343001066377 142.3834596598339 L 1485.7510031319036 142.31448445561 L 1485.5692411116354 142.24468411116504 L 1485.3890322218838 142.17406560647532 L 1485.2103944833875 142.10263600333244 L 1485.0333457597717 142.03040244463722 L 1484.8579037557608 141.9573721536853 L 1484.6840860154093 141.88355243344492 L 1484.5119099203464 141.80895066582661 L 1484.3413926880382 141.73357431094496 L 1484.1725513700655 141.65743090637264 L 1484.0054028504196 141.58052806638665 L 1483.8399638438132 141.5028734812069 L 1483.6762508940092 141.42447491622718 L 1483.5142803721658 141.34534021123872 L 1483.3540684752004 141.265477279646 L 1483.1956312241693 141.1848941076757 L 1483.0389844626657 141.10359875357778 L 1482.8841438552347 141.02159934681995 L 1482.7311248858084 140.93890408727458 L 1482.579942856156 140.85552124439866 L 1482.4306128843548 140.77145915640702 L 1482.2831499032773 140.68672622943842 L 1482.1375686590989 140.6013309367149 L 1481.9938837098223 140.5152818176946 L 1481.852109423823 140.42858747721772 L 1481.7122599784116 140.34125658464606 L 1481.574349358416 140.2532978729961 L 1481.4383913547829 140.1647201380657 L 1481.3043995632 140.07553223755454 L 1481.172387382734 139.98574309017835 L 1481.0423680144938 139.89536167477704 L 1480.9143544603073 139.80439702941683 L 1480.7883595214234 139.71285825048648 L 1480.664395797231 139.62075449178758 L 1480.5424756839993 139.52809496361922 L 1480.422611373638 139.43488893185705 L 1480.3048148524779 139.34114571702654 L 1480.1890979000734 139.24687469337107 L 1480.0754720880234 139.15208528791445 L 1479.9639487788138 139.05678697951822 L 1479.8545391246832 138.96098929793382 L 1479.7472540665055 138.86470182284955 L 1479.6421043326973 138.76793418293272 L 1479.5391004381443 138.67069605486665 L 1479.43825268315 138.57299716238313 L 1479.3395711524058 138.47484727529 L 1479.243065713983 138.37625620849414 L 1479.1487460183444 138.27723382102013 L 1479.0566214973815 138.17779001502413 L 1478.9667013634694 138.07793473480393 L 1478.8789946085462 137.9776779658043 L 1478.793510003215 137.87702973361863 L 1478.7102560958647 137.77600010298625 L 1478.6292412118169 137.67459917678602 L 1478.550473452492 137.57283709502605 L 1478.4739606946007 137.47072403382973 L 1478.399710589355 137.3682702044181 L 1478.3277305617032 137.26548585208872 L 1478.2580278095886 137.16238125519112 L 1478.190609303228 137.05896672409915 L 1478.125481784416 136.95525260017968 L 1478.0626517658502 136.8512492547587 L 1478.00212553048 136.74696708808406 L 1477.9439091308786 136.64241652828557 L 1477.8880083886372 136.53760803033202 L 1477.8344288937838 136.43255207498592 L 1477.7831760042232 136.32725916775524 L 1477.7342548452011 136.22173983784296 L 1477.6876703087935 136.11600463709416 L 1477.6434270534144 136.01006413894075 L 1477.601529503353 135.90392893734432 L 1477.5619818483292 135.79760964573654 L 1477.5247880430757 135.69111689595798 L 1477.4899518069417 135.5844613371949 L 1477.457476623522 135.47765363491428 L 1477.427365740308 135.37070446979732 L 1477.3996221683628 135.26362453667144 L 1477.3742486820204 135.15642454344072 L 1477.3512478186085 135.04911521001512 L 1477.330621878194 134.9417072672386 L 1477.312372923354 134.83421145581588 L 1477.2965027789685 134.72663852523857 L 1477.283013032039 134.61899923271008 L 1477.2719050315288 134.5113043420699 L 1477.2631798882287 134.40356462271745 L 1477.2568384746457 134.2957908485348 L 1477.252881424916 134.1879937968096 L 1477.2513091347414 134.08018424715718" stroke-miterlimit="10" stroke-width="2.7769845610000004" stroke-dasharray=""/></g><g><g/><text fill="black" stroke="none" font-family="sans-serif" font-size="11pt" font-style="normal" font-weight="normal" text-decoration="normal" x="1460.757093551888" y="162.371920802" text-anchor="start" dominant-baseline="alphabetic" xml:space="preserve">SpDatabase</text></g><g><path fill="white" stroke="black" paint-order="fill stroke markers" d=" M 1649.836988968599 120.39044832100001 A 24.2577769005 24.2577769005 0 1 1 1649.8369768397115 120.36619054814246 M 1586.374724148099 94.74417914 L 1586.374724148099 146.03671750200002 M 1584.986231867599 120.39044832100001 L 1601.321435167599 120.39044832100001" stroke-miterlimit="10" stroke-width="2.7769845610000004" stroke-dasharray=""/></g><g><g/><text fill="black" stroke="none" font-family="sans-serif" font-size="11pt" font-style="normal" font-weight="normal" text-decoration="normal" x="1582.7766922052083" y="162.371920802" text-anchor="start" dominant-baseline="alphabetic" xml:space="preserve">HopperApi</text></g></g><g><path fill="white" stroke="black" paint-order="fill stroke markers" d=" M 55.429564540625 175.440083442 L 71.764767840625 175.440083442 L 71.764767840625 1789.358169482 L 55.429564540625 1789.358169482 L 55.429564540625 175.440083442" stroke-miterlimit="10" stroke-width="1.3612669416666667" stroke-dasharray=""/><path fill="white" stroke="black" paint-order="fill stroke markers" d=" M 1609.2440087680989 175.440083442 L 1625.579212068099 175.440083442 L 1625.579212068099 1789.358169482 L 1609.2440087680989 1789.358169482 L 1609.2440087680989 175.440083442" stroke-miterlimit="10" stroke-width="1.3612669416666667" stroke-dasharray=""/><path fill="white" stroke="black" paint-order="fill stroke markers" d=" M 270.95507160520833 221.178652682 L 287.2902749052083 221.178652682 L 287.2902749052083 1748.5201612320002 L 270.95507160520833 1748.5201612320002 L 270.95507160520833 221.178652682" stroke-miterlimit="10" stroke-width="1.3612669416666667" stroke-dasharray=""/><path fill="white" stroke="black" paint-order="fill stroke markers" d=" M 675.9618382096354 266.917221922 L 692.2970415096355 266.917221922 L 692.2970415096355 699.8001093719998 L 675.9618382096354 699.8001093719998 L 675.9618382096354 266.917221922" stroke-miterlimit="10" stroke-width="1.3612669416666667" stroke-dasharray=""/><path fill="white" stroke="black" paint-order="fill stroke markers" d=" M 1186.115468880664 358.394360402 L 1202.450672180664 358.394360402 L 1202.450672180664 448.237978552 L 1186.115468880664 448.237978552 L 1186.115468880664 358.394360402" stroke-miterlimit="10" stroke-width="1.3612669416666667" stroke-dasharray=""/><path fill="white" stroke="black" paint-order="fill stroke markers" d=" M 1186.115468880664 492.343027462 L 1202.450672180664 492.343027462 L 1202.450672180664 629.5587351819999 L 1186.115468880664 629.5587351819999 L 1186.115468880664 492.343027462" stroke-miterlimit="10" stroke-width="1.3612669416666667" stroke-dasharray=""/><path fill="white" stroke="black" paint-order="fill stroke markers" d=" M 1492.9330740552082 538.081596702 L 1509.2682773552083 538.081596702 L 1509.2682773552083 583.8201659419999 L 1492.9330740552082 583.8201659419999 L 1492.9330740552082 538.081596702" stroke-miterlimit="10" stroke-width="1.3612669416666667" stroke-dasharray=""/><path fill="white" stroke="black" paint-order="fill stroke markers" d=" M 801.8925462703776 745.5386786119998 L 818.2277495703777 745.5386786119998 L 818.2277495703777 1132.6829968219995 L 801.8925462703776 1132.6829968219995 L 801.8925462703776 745.5386786119998" stroke-miterlimit="10" stroke-width="1.3612669416666667" stroke-dasharray=""/><path fill="white" stroke="black" paint-order="fill stroke markers" d=" M 1186.115468880664 791.2772478519997 L 1202.450672180664 791.2772478519997 L 1202.450672180664 881.1208660019996 L 1186.115468880664 881.1208660019996 L 1186.115468880664 791.2772478519997" stroke-miterlimit="10" stroke-width="1.3612669416666667" stroke-dasharray=""/><path fill="white" stroke="black" paint-order="fill stroke markers" d=" M 1186.115468880664 925.2259149119996 L 1202.450672180664 925.2259149119996 L 1202.450672180664 1062.4416226319995 L 1186.115468880664 1062.4416226319995 L 1186.115468880664 925.2259149119996" stroke-miterlimit="10" stroke-width="1.3612669416666667" stroke-dasharray=""/><path fill="white" stroke="black" paint-order="fill stroke markers" d=" M 1492.9330740552082 970.9644841519995 L 1509.2682773552083 970.9644841519995 L 1509.2682773552083 1016.7030533919994 L 1492.9330740552082 1016.7030533919994 L 1492.9330740552082 970.9644841519995" stroke-miterlimit="10" stroke-width="1.3612669416666667" stroke-dasharray=""/><path fill="white" stroke="black" paint-order="fill stroke markers" d=" M 952.683651669987 1178.4215660619996 L 969.018854969987 1178.4215660619996 L 969.018854969987 1565.565884272 L 952.683651669987 1565.565884272 L 952.683651669987 1178.4215660619996" stroke-miterlimit="10" stroke-width="1.3612669416666667" stroke-dasharray=""/><path fill="white" stroke="black" paint-order="fill stroke markers" d=" M 1186.115468880664 1224.1601353019996 L 1202.450672180664 1224.1601353019996 L 1202.450672180664 1314.0037534519997 L 1186.115468880664 1314.0037534519997 L 1186.115468880664 1224.1601353019996" stroke-miterlimit="10" stroke-width="1.3612669416666667" stroke-dasharray=""/><path fill="white" stroke="black" paint-order="fill stroke markers" d=" M 1186.115468880664 1358.1088023619998 L 1202.450672180664 1358.1088023619998 L 1202.450672180664 1495.324510082 L 1186.115468880664 1495.324510082 L 1186.115468880664 1358.1088023619998" stroke-miterlimit="10" stroke-width="1.3612669416666667" stroke-dasharray=""/><path fill="white" stroke="black" paint-order="fill stroke markers" d=" M 1492.9330740552082 1403.8473716019998 L 1509.2682773552083 1403.8473716019998 L 1509.2682773552083 1449.585940842 L 1492.9330740552082 1449.585940842 L 1492.9330740552082 1403.8473716019998" stroke-miterlimit="10" stroke-width="1.3612669416666667" stroke-dasharray=""/><path fill="white" stroke="black" paint-order="fill stroke markers" d=" M 547.5937674779948 1611.304453512 L 563.9289707779949 1611.304453512 L 563.9289707779949 1657.043022752 L 547.5937674779948 1657.043022752 L 547.5937674779948 1611.304453512" stroke-miterlimit="10" stroke-width="1.3612669416666667" stroke-dasharray=""/><g><text fill="black" stroke="none" font-family="sans-serif" font-size="11pt" font-style="normal" font-weight="normal" text-decoration="normal" x="121.64984434449872" y="214.644571362" text-anchor="start" dominant-baseline="alphabetic" xml:space="preserve">Message event</text></g><g><path fill="none" stroke="black" paint-order="fill stroke markers" d=" M 71.764767840625 221.178652682 L 268.232537721875 221.178652682" stroke-miterlimit="10" stroke-width="1.3612669416666667" stroke-dasharray=""/><g transform="translate(270.95507160520833,221.178652682) translate(-270.95507160520833,-221.178652682)"><path fill="none" stroke="black" paint-order="fill stroke markers" d=" M 257.34240218854166 214.37231797366667 L 269.5938046635417 221.178652682 L 257.34240218854166 227.98498739033334" stroke-miterlimit="10" stroke-width="1.3612669416666667"/></g></g><g><text fill="black" stroke="none" font-family="sans-serif" font-size="11pt" font-style="normal" font-weight="normal" text-decoration="normal" x="434.3712347800781" y="260.383140602" text-anchor="start" dominant-baseline="alphabetic" xml:space="preserve">Get user by ID</text></g><g><path fill="none" stroke="black" paint-order="fill stroke markers" d=" M 287.2902749052083 266.917221922 L 673.2393043263021 266.917221922" stroke-miterlimit="10" stroke-width="1.3612669416666667" stroke-dasharray=""/><g transform="translate(675.9618382096354,266.917221922) translate(-675.9618382096354,-266.917221922)"><path fill="none" stroke="black" paint-order="fill stroke markers" d=" M 662.3491687929687 260.1108872136667 L 674.6005712679687 266.917221922 L 662.3491687929687 273.72355663033335" stroke-miterlimit="10" stroke-width="1.3612669416666667"/></g></g><g><text fill="black" stroke="none" font-family="sans-serif" font-size="11pt" font-style="normal" font-weight="normal" text-decoration="normal" x="122.87390440309247" y="306.121709842" text-anchor="start" dominant-baseline="alphabetic" xml:space="preserve">Event received</text></g><g><path fill="none" stroke="black" paint-order="fill stroke markers" d=" M 270.95507160520833 312.655791162 L 74.48730172395832 312.655791162" stroke-miterlimit="10" stroke-width="1.3612669416666667" stroke-dasharray="6.53408132"/><g transform="translate(71.764767840625,312.655791162) translate(-71.764767840625,-312.655791162)"><path fill="none" stroke="black" paint-order="fill stroke markers" d=" M 85.37743725729167 305.8494564536667 L 73.12603478229167 312.655791162 L 85.37743725729167 319.46212587033335" stroke-miterlimit="10" stroke-width="1.3612669416666667"/></g></g><g><text fill="black" stroke="none" font-family="sans-serif" font-size="11pt" font-style="normal" font-weight="normal" text-decoration="normal" x="891.9514334178059" y="351.860279082" text-anchor="start" dominant-baseline="alphabetic" xml:space="preserve">Get user by ID</text></g><g><path fill="none" stroke="black" paint-order="fill stroke markers" d=" M 692.2970415096355 358.394360402 L 1183.3929349973305 358.394360402" stroke-miterlimit="10" stroke-width="1.3612669416666667" stroke-dasharray=""/><g transform="translate(1186.115468880664,358.394360402) translate(-1186.115468880664,-358.394360402)"><path fill="black" stroke="none" paint-order="stroke fill markers" d=" M 1172.5027994639972 351.5880256936667 L 1186.115468880664 358.394360402 L 1172.5027994639972 365.20069511033336 Z"/></g></g><g><text fill="black" stroke="none" font-family="sans-serif" font-size="11pt" font-style="normal" font-weight="normal" text-decoration="normal" x="900.9099218821614" y="441.703897232" text-anchor="start" dominant-baseline="alphabetic" xml:space="preserve">Return user</text></g><g><path fill="none" stroke="black" paint-order="fill stroke markers" d=" M 1186.115468880664 448.237978552 L 695.0195753929688 448.237978552" stroke-miterlimit="10" stroke-width="1.3612669416666667" stroke-dasharray="6.53408132"/><g transform="translate(692.2970415096355,448.237978552) translate(-692.2970415096355,-448.237978552)"><path fill="black" stroke="none" paint-order="stroke fill markers" d=" M 705.9097109263022 441.4316438436667 L 692.2970415096355 448.237978552 L 705.9097109263022 455.04431326033335 Z"/></g></g><g><text fill="black" stroke="none" font-family="sans-serif" font-size="11pt" font-style="normal" font-weight="normal" text-decoration="normal" x="1300.4370513405925" y="531.5475153819999" text-anchor="start" dominant-baseline="alphabetic" xml:space="preserve">Get user by ID</text></g><g><path fill="none" stroke="black" paint-order="fill stroke markers" d=" M 1202.450672180664 538.081596702 L 1490.2105401718748 538.081596702" stroke-miterlimit="10" stroke-width="1.3612669416666667" stroke-dasharray=""/><g transform="translate(1492.9330740552082,538.081596702) translate(-1492.9330740552082,-538.081596702)"><path fill="black" stroke="none" paint-order="stroke fill markers" d=" M 1479.3204046385415 531.2752619936666 L 1492.9330740552082 538.081596702 L 1479.3204046385415 544.8879314103333 Z"/></g></g><g><text fill="black" stroke="none" font-family="sans-serif" font-size="11pt" font-style="normal" font-weight="normal" text-decoration="normal" x="1243.7835402932292" y="577.2860846219999" text-anchor="start" dominant-baseline="alphabetic" xml:space="preserve">Return user and load into cache</text></g><g><path fill="none" stroke="black" paint-order="fill stroke markers" d=" M 1492.9330740552082 583.8201659419999 L 1205.1732060639974 583.8201659419999" stroke-miterlimit="10" stroke-width="1.3612669416666667" stroke-dasharray="6.53408132"/><g transform="translate(1202.450672180664,583.8201659419999) translate(-1202.450672180664,-583.8201659419999)"><path fill="black" stroke="none" paint-order="stroke fill markers" d=" M 1216.0633415973307 577.0138312336666 L 1202.450672180664 583.8201659419999 L 1216.0633415973307 590.6265006503332 Z"/></g></g><g><text fill="black" stroke="none" font-family="sans-serif" font-size="11pt" font-style="normal" font-weight="normal" text-decoration="normal" x="900.9099218821614" y="623.0246538619998" text-anchor="start" dominant-baseline="alphabetic" xml:space="preserve">Return user</text></g><g><path fill="none" stroke="black" paint-order="fill stroke markers" d=" M 1186.115468880664 629.5587351819999 L 695.0195753929688 629.5587351819999" stroke-miterlimit="10" stroke-width="1.3612669416666667" stroke-dasharray="6.53408132"/><g transform="translate(692.2970415096355,629.5587351819999) translate(-692.2970415096355,-629.5587351819999)"><path fill="black" stroke="none" paint-order="stroke fill markers" d=" M 705.9097109263022 622.7524004736665 L 692.2970415096355 629.5587351819999 L 705.9097109263022 636.3650698903332 Z"/></g></g><g><text fill="black" stroke="none" font-family="sans-serif" font-size="11pt" font-style="normal" font-weight="normal" text-decoration="normal" x="443.3297232444336" y="693.2660280519998" text-anchor="start" dominant-baseline="alphabetic" xml:space="preserve">Return user</text></g><g><path fill="none" stroke="black" paint-order="fill stroke markers" d=" M 675.9618382096354 699.8001093719998 L 290.01280878854163 699.8001093719998" stroke-miterlimit="10" stroke-width="1.3612669416666667" stroke-dasharray="6.53408132"/><g transform="translate(287.2902749052083,699.8001093719998) translate(-287.2902749052083,-699.8001093719998)"><path fill="none" stroke="black" paint-order="fill stroke markers" d=" M 300.902944321875 692.9937746636665 L 288.651541846875 699.8001093719998 L 300.902944321875 706.6064440803332" stroke-miterlimit="10" stroke-width="1.3612669416666667"/></g></g><g><text fill="black" stroke="none" font-family="sans-serif" font-size="11pt" font-style="normal" font-weight="normal" text-decoration="normal" x="485.9192685589844" y="739.0045972919997" text-anchor="start" dominant-baseline="alphabetic" xml:space="preserve">Get channel by ID</text></g><g><path fill="none" stroke="black" paint-order="fill stroke markers" d=" M 287.2902749052083 745.5386786119998 L 799.1700123870443 745.5386786119998" stroke-miterlimit="10" stroke-width="1.3612669416666667" stroke-dasharray=""/><g transform="translate(801.8925462703776,745.5386786119998) translate(-801.8925462703776,-745.5386786119998)"><path fill="none" stroke="black" paint-order="fill stroke markers" d=" M 788.2798768537109 738.7323439036664 L 800.5312793287109 745.5386786119998 L 788.2798768537109 752.3450133203331" stroke-miterlimit="10" stroke-width="1.3612669416666667"/></g></g><g><text fill="black" stroke="none" font-family="sans-serif" font-size="11pt" font-style="normal" font-weight="normal" text-decoration="normal" x="943.4994671967122" y="784.7431665319997" text-anchor="start" dominant-baseline="alphabetic" xml:space="preserve">Get channel by ID</text></g><g><path fill="none" stroke="black" paint-order="fill stroke markers" d=" M 818.2277495703777 791.2772478519997 L 1183.3929349973305 791.2772478519997" stroke-miterlimit="10" stroke-width="1.3612669416666667" stroke-dasharray=""/><g transform="translate(1186.115468880664,791.2772478519997) translate(-1186.115468880664,-791.2772478519997)"><path fill="black" stroke="none" paint-order="stroke fill markers" d=" M 1172.5027994639972 784.4709131436664 L 1186.115468880664 791.2772478519997 L 1172.5027994639972 798.0835825603331 Z"/></g></g><g><text fill="black" stroke="none" font-family="sans-serif" font-size="11pt" font-style="normal" font-weight="normal" text-decoration="normal" x="952.4579556610677" y="874.5867846819996" text-anchor="start" dominant-baseline="alphabetic" xml:space="preserve">Return channel</text></g><g><path fill="none" stroke="black" paint-order="fill stroke markers" d=" M 1186.115468880664 881.1208660019996 L 820.950283453711 881.1208660019996" stroke-miterlimit="10" stroke-width="1.3612669416666667" stroke-dasharray="6.53408132"/><g transform="translate(818.2277495703777,881.1208660019996) translate(-818.2277495703777,-881.1208660019996)"><path fill="black" stroke="none" paint-order="stroke fill markers" d=" M 831.8404189870444 874.3145312936663 L 818.2277495703777 881.1208660019996 L 831.8404189870444 887.927200710333 Z"/></g></g><g><text fill="black" stroke="none" font-family="sans-serif" font-size="11pt" font-style="normal" font-weight="normal" text-decoration="normal" x="1289.0197310891276" y="964.4304028319995" text-anchor="start" dominant-baseline="alphabetic" xml:space="preserve">Get channel by ID</text></g><g><path fill="none" stroke="black" paint-order="fill stroke markers" d=" M 1202.450672180664 970.9644841519995 L 1490.2105401718748 970.9644841519995" stroke-miterlimit="10" stroke-width="1.3612669416666667" stroke-dasharray=""/><g transform="translate(1492.9330740552082,970.9644841519995) translate(-1492.9330740552082,-970.9644841519995)"><path fill="black" stroke="none" paint-order="stroke fill markers" d=" M 1479.3204046385415 964.1581494436662 L 1492.9330740552082 970.9644841519995 L 1479.3204046385415 977.7708188603328 Z"/></g></g><g><text fill="black" stroke="none" font-family="sans-serif" font-size="11pt" font-style="normal" font-weight="normal" text-decoration="normal" x="1232.3662200417643" y="1010.1689720719994" text-anchor="start" dominant-baseline="alphabetic" xml:space="preserve">Return channel and load into cache</text></g><g><path fill="none" stroke="black" paint-order="fill stroke markers" d=" M 1492.9330740552082 1016.7030533919994 L 1205.1732060639974 1016.7030533919994" stroke-miterlimit="10" stroke-width="1.3612669416666667" stroke-dasharray="6.53408132"/><g transform="translate(1202.450672180664,1016.7030533919994) translate(-1202.450672180664,-1016.7030533919994)"><path fill="black" stroke="none" paint-order="stroke fill markers" d=" M 1216.0633415973307 1009.8967186836661 L 1202.450672180664 1016.7030533919994 L 1216.0633415973307 1023.5093881003328 Z"/></g></g><g><text fill="black" stroke="none" font-family="sans-serif" font-size="11pt" font-style="normal" font-weight="normal" text-decoration="normal" x="952.4579556610677" y="1055.9075413119997" text-anchor="start" dominant-baseline="alphabetic" xml:space="preserve">Return channel</text></g><g><path fill="none" stroke="black" paint-order="fill stroke markers" d=" M 1186.115468880664 1062.4416226319995 L 820.950283453711 1062.4416226319995" stroke-miterlimit="10" stroke-width="1.3612669416666667" stroke-dasharray="6.53408132"/><g transform="translate(818.2277495703777,1062.4416226319995) translate(-818.2277495703777,-1062.4416226319995)"><path fill="black" stroke="none" paint-order="stroke fill markers" d=" M 831.8404189870444 1055.6352879236663 L 818.2277495703777 1062.4416226319995 L 831.8404189870444 1069.2479573403327 Z"/></g></g><g><text fill="black" stroke="none" font-family="sans-serif" font-size="11pt" font-style="normal" font-weight="normal" text-decoration="normal" x="494.8777570233399" y="1126.1489155019997" text-anchor="start" dominant-baseline="alphabetic" xml:space="preserve">Return channel</text></g><g><path fill="none" stroke="black" paint-order="fill stroke markers" d=" M 801.8925462703776 1132.6829968219995 L 290.01280878854163 1132.6829968219995" stroke-miterlimit="10" stroke-width="1.3612669416666667" stroke-dasharray="6.53408132"/><g transform="translate(287.2902749052083,1132.6829968219995) translate(-287.2902749052083,-1132.6829968219995)"><path fill="none" stroke="black" paint-order="fill stroke markers" d=" M 300.902944321875 1125.8766621136663 L 288.651541846875 1132.6829968219995 L 300.902944321875 1139.4893315303327" stroke-miterlimit="10" stroke-width="1.3612669416666667"/></g></g><g><text fill="black" stroke="none" font-family="sans-serif" font-size="11pt" font-style="normal" font-weight="normal" text-decoration="normal" x="480.6455936586914" y="1171.8874847419997" text-anchor="start" dominant-baseline="alphabetic" xml:space="preserve">Get all subscribers that are user in channel</text></g><g><path fill="none" stroke="black" paint-order="fill stroke markers" d=" M 287.2902749052083 1178.4215660619996 L 949.9611177866536 1178.4215660619996" stroke-miterlimit="10" stroke-width="1.3612669416666667" stroke-dasharray=""/><g transform="translate(952.683651669987,1178.4215660619996) translate(-952.683651669987,-1178.4215660619996)"><path fill="black" stroke="none" paint-order="stroke fill markers" d=" M 939.0709822533203 1171.6152313536663 L 952.683651669987 1178.4215660619996 L 939.0709822533203 1185.2279007703328 Z"/></g></g><g><text fill="black" stroke="none" font-family="sans-serif" font-size="11pt" font-style="normal" font-weight="normal" text-decoration="normal" x="990.7991260366537" y="1217.6260539819998" text-anchor="start" dominant-baseline="alphabetic" xml:space="preserve">Get subscribers by user ID</text></g><g><path fill="none" stroke="black" paint-order="fill stroke markers" d=" M 969.018854969987 1224.1601353019996 L 1183.3929349973305 1224.1601353019996" stroke-miterlimit="10" stroke-width="1.3612669416666667" stroke-dasharray=""/><g transform="translate(1186.115468880664,1224.1601353019996) translate(-1186.115468880664,-1224.1601353019996)"><path fill="black" stroke="none" paint-order="stroke fill markers" d=" M 1172.5027994639972 1217.3538005936664 L 1186.115468880664 1224.1601353019996 L 1172.5027994639972 1230.9664700103328 Z"/></g></g><g><text fill="black" stroke="none" font-family="sans-serif" font-size="11pt" font-style="normal" font-weight="normal" text-decoration="normal" x="1019.7182315664388" y="1307.469672132" text-anchor="start" dominant-baseline="alphabetic" xml:space="preserve">Return subscriber</text></g><g><path fill="none" stroke="black" paint-order="fill stroke markers" d=" M 1186.115468880664 1314.0037534519997 L 971.7413888533204 1314.0037534519997" stroke-miterlimit="10" stroke-width="1.3612669416666667" stroke-dasharray="6.53408132"/><g transform="translate(969.018854969987,1314.0037534519997) translate(-969.018854969987,-1314.0037534519997)"><path fill="black" stroke="none" paint-order="stroke fill markers" d=" M 982.6315243866537 1307.1974187436665 L 969.018854969987 1314.0037534519997 L 982.6315243866537 1320.810088160333 Z"/></g></g><g><text fill="black" stroke="none" font-family="sans-serif" font-size="11pt" font-style="normal" font-weight="normal" text-decoration="normal" x="1264.5888305153971" y="1397.313290282" text-anchor="start" dominant-baseline="alphabetic" xml:space="preserve">Get subscriber by user ID</text></g><g><path fill="none" stroke="black" paint-order="fill stroke markers" d=" M 1202.450672180664 1403.8473716019998 L 1490.2105401718748 1403.8473716019998" stroke-miterlimit="10" stroke-width="1.3612669416666667" stroke-dasharray=""/><g transform="translate(1492.9330740552082,1403.8473716019998) translate(-1492.9330740552082,-1403.8473716019998)"><path fill="black" stroke="none" paint-order="stroke fill markers" d=" M 1479.3204046385415 1397.0410368936666 L 1492.9330740552082 1403.8473716019998 L 1479.3204046385415 1410.653706310333 Z"/></g></g><g><text fill="black" stroke="none" font-family="sans-serif" font-size="11pt" font-style="normal" font-weight="normal" text-decoration="normal" x="1224.2309432473307" y="1443.051859522" text-anchor="start" dominant-baseline="alphabetic" xml:space="preserve">Return subscriber and load into cache</text></g><g><path fill="none" stroke="black" paint-order="fill stroke markers" d=" M 1492.9330740552082 1449.585940842 L 1205.1732060639974 1449.585940842" stroke-miterlimit="10" stroke-width="1.3612669416666667" stroke-dasharray="6.53408132"/><g transform="translate(1202.450672180664,1449.585940842) translate(-1202.450672180664,-1449.585940842)"><path fill="black" stroke="none" paint-order="stroke fill markers" d=" M 1216.0633415973307 1442.7796061336667 L 1202.450672180664 1449.585940842 L 1216.0633415973307 1456.3922755503331 Z"/></g></g><g><text fill="black" stroke="none" font-family="sans-serif" font-size="11pt" font-style="normal" font-weight="normal" text-decoration="normal" x="1019.7182315664388" y="1488.7904287620001" text-anchor="start" dominant-baseline="alphabetic" xml:space="preserve">Return subscriber</text></g><g><path fill="none" stroke="black" paint-order="fill stroke markers" d=" M 1186.115468880664 1495.324510082 L 971.7413888533204 1495.324510082" stroke-miterlimit="10" stroke-width="1.3612669416666667" stroke-dasharray="6.53408132"/><g transform="translate(969.018854969987,1495.324510082) translate(-969.018854969987,-1495.324510082)"><path fill="black" stroke="none" paint-order="stroke fill markers" d=" M 982.6315243866537 1488.5181753736667 L 969.018854969987 1495.324510082 L 982.6315243866537 1502.1308447903332 Z"/></g></g><g><text fill="black" stroke="none" font-family="sans-serif" font-size="11pt" font-style="normal" font-weight="normal" text-decoration="normal" x="558.4730396425781" y="1559.0318029520001" text-anchor="start" dominant-baseline="alphabetic" xml:space="preserve">Return subscribers</text></g><g><path fill="none" stroke="black" paint-order="fill stroke markers" d=" M 952.683651669987 1565.565884272 L 290.01280878854163 1565.565884272" stroke-miterlimit="10" stroke-width="1.3612669416666667" stroke-dasharray="6.53408132"/><g transform="translate(287.2902749052083,1565.565884272) translate(-287.2902749052083,-1565.565884272)"><path fill="none" stroke="black" paint-order="fill stroke markers" d=" M 300.902944321875 1558.7595495636667 L 288.651541846875 1565.565884272 L 300.902944321875 1572.3722189803332" stroke-miterlimit="10" stroke-width="1.3612669416666667"/></g></g><g><text fill="black" stroke="none" font-family="sans-serif" font-size="11pt" font-style="normal" font-weight="normal" text-decoration="normal" x="363.6625106935547" y="1604.7703721920002" text-anchor="start" dominant-baseline="alphabetic" xml:space="preserve">Create message</text></g><g><path fill="none" stroke="black" paint-order="fill stroke markers" d=" M 287.2902749052083 1611.304453512 L 544.8712335946615 1611.304453512" stroke-miterlimit="10" stroke-width="1.3612669416666667" stroke-dasharray=""/><g transform="translate(547.5937674779948,1611.304453512) translate(-547.5937674779948,-1611.304453512)"><path fill="black" stroke="none" paint-order="stroke fill markers" d=" M 533.9810980613281 1604.4981188036668 L 547.5937674779948 1611.304453512 L 533.9810980613281 1618.1107882203332 Z"/></g></g><g><text fill="black" stroke="none" font-family="sans-serif" font-size="11pt" font-style="normal" font-weight="normal" text-decoration="normal" x="309.070545971875" y="1650.5089414320003" text-anchor="start" dominant-baseline="alphabetic" xml:space="preserve">Return Hopper conform message</text></g><g><path fill="none" stroke="black" paint-order="fill stroke markers" d=" M 547.5937674779948 1657.043022752 L 290.01280878854163 1657.043022752" stroke-miterlimit="10" stroke-width="1.3612669416666667" stroke-dasharray="6.53408132"/><g transform="translate(287.2902749052083,1657.043022752) translate(-287.2902749052083,-1657.043022752)"><path fill="black" stroke="none" paint-order="stroke fill markers" d=" M 300.902944321875 1650.2366880436668 L 287.2902749052083 1657.043022752 L 300.902944321875 1663.8493574603333 Z"/></g></g><g><text fill="black" stroke="none" font-family="sans-serif" font-size="11pt" font-style="normal" font-weight="normal" text-decoration="normal" x="839.487677114974" y="1696.2475106720003" text-anchor="start" dominant-baseline="alphabetic" xml:space="preserve">Post notification to all subscribers</text></g><g><path fill="none" stroke="black" paint-order="fill stroke markers" d=" M 287.2902749052083 1702.7815919920001 L 1606.5214748847654 1702.7815919920001" stroke-miterlimit="10" stroke-width="1.3612669416666667" stroke-dasharray=""/><g transform="translate(1609.2440087680989,1702.7815919920001) translate(-1609.2440087680989,-1702.7815919920001)"><path fill="black" stroke="none" paint-order="stroke fill markers" d=" M 1595.6313393514322 1695.975257283667 L 1609.2440087680989 1702.7815919920001 L 1595.6313393514322 1709.5879267003334 Z"/></g></g><g><text fill="black" stroke="none" font-family="sans-serif" font-size="11pt" font-style="normal" font-weight="normal" text-decoration="normal" x="870.8512787995443" y="1741.9860799120004" text-anchor="start" dominant-baseline="alphabetic" xml:space="preserve">Responds conformation</text></g><g><path fill="none" stroke="black" paint-order="fill stroke markers" d=" M 1609.2440087680989 1748.5201612320002 L 290.01280878854163 1748.5201612320002" stroke-miterlimit="10" stroke-width="1.3612669416666667" stroke-dasharray="6.53408132"/><g transform="translate(287.2902749052083,1748.5201612320002) translate(-287.2902749052083,-1748.5201612320002)"><path fill="black" stroke="none" paint-order="stroke fill markers" d=" M 300.902944321875 1741.713826523667 L 287.2902749052083 1748.5201612320002 L 300.902944321875 1755.3264959403334 Z"/></g></g><g><g/><path fill="none" stroke="black" paint-order="fill stroke markers" d=" M 618.7886266596354 382.897165352 L 1558.2738872552081 382.897165352 L 1558.2738872552081 654.0615401319999 L 618.7886266596354 654.0615401319999 L 618.7886266596354 382.897165352 Z" stroke-miterlimit="10" stroke-width="2.3336004714285714" stroke-dasharray=""/><path fill="white" stroke="black" paint-order="fill stroke markers" d=" M 618.7886266596354 382.897165352 L 618.7886266596354 402.499409312 L 665.1478302567057 402.499409312 L 674.9489522367056 392.698287332 L 674.9489522367056 382.897165352 L 618.7886266596354 382.897165352" stroke-miterlimit="10" stroke-width="2.3336004714285714" stroke-dasharray=""/><text fill="black" stroke="none" font-family="sans-serif" font-size="8.8pt" font-style="normal" font-weight="bold" text-decoration="normal" x="635.1238299596354" y="395.965327992" text-anchor="start" dominant-baseline="alphabetic" xml:space="preserve">alt</text><text fill="black" stroke="none" font-family="sans-serif" font-size="8.8pt" font-style="normal" font-weight="bold" text-decoration="normal" x="691.2841555367056" y="395.965327992" text-anchor="start" dominant-baseline="alphabetic" xml:space="preserve">[User in cache]</text><g><path fill="none" stroke="black" paint-order="fill stroke markers" d=" M 618.7886266596354 472.740783502 L 1558.2738872552081 472.740783502" stroke-miterlimit="10" stroke-width="2.3336004714285714" stroke-dasharray="4.083800825"/></g><g/><text fill="black" stroke="none" font-family="sans-serif" font-size="8.8pt" font-style="normal" font-weight="bold" text-decoration="normal" x="691.2841555367056" y="485.808946142" text-anchor="start" dominant-baseline="alphabetic" xml:space="preserve">[User not in cache]</text></g><g/><g><g/><path fill="none" stroke="black" paint-order="fill stroke markers" d=" M 744.7193347203776 815.7800528019997 L 1558.2738872552081 815.7800528019997 L 1558.2738872552081 1086.9444275819994 L 744.7193347203776 1086.9444275819994 L 744.7193347203776 815.7800528019997 Z" stroke-miterlimit="10" stroke-width="2.3336004714285714" stroke-dasharray=""/><path fill="white" stroke="black" paint-order="fill stroke markers" d=" M 744.7193347203776 815.7800528019997 L 744.7193347203776 835.3822967619997 L 791.0785383174479 835.3822967619997 L 800.8796602974478 825.5811747819996 L 800.8796602974478 815.7800528019997 L 744.7193347203776 815.7800528019997" stroke-miterlimit="10" stroke-width="2.3336004714285714" stroke-dasharray=""/><text fill="black" stroke="none" font-family="sans-serif" font-size="8.8pt" font-style="normal" font-weight="bold" text-decoration="normal" x="761.0545380203775" y="828.8482154419996" text-anchor="start" dominant-baseline="alphabetic" xml:space="preserve">alt</text><text fill="black" stroke="none" font-family="sans-serif" font-size="8.8pt" font-style="normal" font-weight="bold" text-decoration="normal" x="817.2148635974478" y="828.8482154419996" text-anchor="start" dominant-baseline="alphabetic" xml:space="preserve">[Channel in cache]</text><g><path fill="none" stroke="black" paint-order="fill stroke markers" d=" M 744.7193347203776 905.6236709519995 L 1558.2738872552081 905.6236709519995" stroke-miterlimit="10" stroke-width="2.3336004714285714" stroke-dasharray="4.083800825"/></g><g/><text fill="black" stroke="none" font-family="sans-serif" font-size="8.8pt" font-style="normal" font-weight="bold" text-decoration="normal" x="817.2148635974478" y="918.6918335919995" text-anchor="start" dominant-baseline="alphabetic" xml:space="preserve">[Channel not in cache]</text></g><g/><g><g/><path fill="none" stroke="black" paint-order="fill stroke markers" d=" M 895.5104401199869 1248.6629402519998 L 1558.2738872552081 1248.6629402519998 L 1558.2738872552081 1519.827315032 L 895.5104401199869 1519.827315032 L 895.5104401199869 1248.6629402519998 Z" stroke-miterlimit="10" stroke-width="2.3336004714285714" stroke-dasharray=""/><path fill="white" stroke="black" paint-order="fill stroke markers" d=" M 895.5104401199869 1248.6629402519998 L 895.5104401199869 1268.2651842119997 L 941.8696437170572 1268.2651842119997 L 951.6707656970572 1258.4640622319998 L 951.6707656970572 1248.6629402519998 L 895.5104401199869 1248.6629402519998" stroke-miterlimit="10" stroke-width="2.3336004714285714" stroke-dasharray=""/><text fill="black" stroke="none" font-family="sans-serif" font-size="8.8pt" font-style="normal" font-weight="bold" text-decoration="normal" x="911.8456434199869" y="1261.7311028919996" text-anchor="start" dominant-baseline="alphabetic" xml:space="preserve">alt</text><text fill="black" stroke="none" font-family="sans-serif" font-size="8.8pt" font-style="normal" font-weight="bold" text-decoration="normal" x="968.0059689970572" y="1261.7311028919996" text-anchor="start" dominant-baseline="alphabetic" xml:space="preserve">[Subscriber in cache]</text><g><path fill="none" stroke="black" paint-order="fill stroke markers" d=" M 895.5104401199869 1338.5065584019999 L 1558.2738872552081 1338.5065584019999" stroke-miterlimit="10" stroke-width="2.3336004714285714" stroke-dasharray="4.083800825"/></g><g/><text fill="black" stroke="none" font-family="sans-serif" font-size="8.8pt" font-style="normal" font-weight="bold" text-decoration="normal" x="968.0059689970572" y="1351.5747210419997" text-anchor="start" dominant-baseline="alphabetic" xml:space="preserve">[Subscriber not in cache]</text></g><g/></g><g/><g/><g/><g/><g/><g/><g/><g/><g/></g></svg>
