<svg version="1.1" xmlns="http://www.w3.org/2000/svg" xmlns:xlink="http://www.w3.org/1999/xlink" width="962" height="552"><defs/><g><g/><g/><g/><g/><g/><g/><g/><g/><g/><g><rect fill="white" stroke="none" x="0" y="0" width="962" height="552"/></g><g><text fill="black" stroke="none" font-family="sans-serif" font-size="16.5pt" font-style="normal" font-weight="normal" text-decoration="normal" x="339.58918087828783" y="24.50280495" text-anchor="start" dominant-baseline="alphabetic" xml:space="preserve">New User Joined Workspace</text></g><g><g><path fill="#9F5F9F" stroke="black" paint-order="fill stroke markers" d=" M 8.167601650000003 58.5617038305 L 119.02673073125 58.5617038305 L 119.02673073125 518.4793527420001 L 8.167601650000003 518.4793527420001 L 8.167601650000003 58.5617038305" stroke-miterlimit="10" stroke-width="1.3612669416666667" stroke-dasharray=""/></g><g><text fill="black" stroke="none" font-family="sans-serif" font-size="11pt" font-style="normal" font-weight="bold" text-decoration="normal" x="44.441839347363285" y="81.43098845050001" text-anchor="start" dominant-baseline="alphabetic" xml:space="preserve">Slack</text></g><g><path fill="none" stroke="black" paint-order="fill stroke markers" d=" M 332.05381122923177 50.394102180500006 L 954.2715022940756 50.394102180500006 L 954.2715022940756 518.4793527420001 L 332.05381122923177 518.4793527420001 L 332.05381122923177 50.394102180500006" stroke-miterlimit="10" stroke-width="1.3612669416666667" stroke-dasharray=""/></g><g><text fill="black" stroke="none" font-family="sans-serif" font-size="11pt" font-style="normal" font-weight="bold" text-decoration="normal" x="562.0746288075521" y="73.2633868005" text-anchor="start" dominant-baseline="alphabetic" xml:space="preserve">Service Provider Slack </text></g></g><g><path fill="none" stroke="black" paint-order="fill stroke markers" d=" M 63.597166190625 167.272481792 L 63.597166190625 552.783279672" stroke-miterlimit="10" stroke-width="1.3612669416666667" stroke-dasharray="12.565541,5.445067766666667"/><path fill="none" stroke="black" paint-order="fill stroke markers" d=" M 390.33234427571614 167.272481792 L 390.33234427571614 552.783279672" stroke-miterlimit="10" stroke-width="1.3612669416666667" stroke-dasharray="12.565541,5.445067766666667"/><path fill="none" stroke="black" paint-order="fill stroke markers" d=" M 513.7856916377605 167.272481792 L 513.7856916377605 552.783279672" stroke-miterlimit="10" stroke-width="1.3612669416666667" stroke-dasharray="12.565541,5.445067766666667"/><path fill="none" stroke="black" paint-order="fill stroke markers" d=" M 650.2741036970704 167.272481792 L 650.2741036970704 552.783279672" stroke-miterlimit="10" stroke-width="1.3612669416666667" stroke-dasharray="12.565541,5.445067766666667"/><path fill="none" stroke="black" paint-order="fill stroke markers" d=" M 905.7603184907553 167.272481792 L 905.7603184907553 552.783279672" stroke-miterlimit="10" stroke-width="1.3612669416666667" stroke-dasharray="12.565541,5.445067766666667"/></g><g><g><path fill="white" stroke="black" paint-order="fill stroke markers" d=" M 96.022544741125 120.39044832100001 A 24.2577769005 24.2577769005 0 1 1 96.02253261223755 120.36619054814246 M 32.560279920625 94.74417914 L 32.560279920625 146.03671750200002 M 31.171787640124997 120.39044832100001 L 47.506990940125 120.39044832100001" stroke-miterlimit="10" stroke-width="2.7769845610000004" stroke-dasharray=""/></g><g><g/><text fill="black" stroke="none" font-family="sans-serif" font-size="11pt" font-style="normal" font-weight="normal" text-decoration="normal" x="16.335203300000003" y="162.371920802" text-anchor="start" dominant-baseline="alphabetic" xml:space="preserve">SlackEventApi</text></g><g><path fill="white" stroke="black" paint-order="fill stroke markers" d=" M 422.75772282621614 120.39044832100001 A 24.2577769005 24.2577769005 0 1 1 422.7577106973287 120.36619054814246 M 359.2954580057161 94.74417914 L 359.2954580057161 146.03671750200002 M 357.90696572521614 120.39044832100001 L 374.2421690252161 120.39044832100001" stroke-miterlimit="10" stroke-width="2.7769845610000004" stroke-dasharray=""/></g><g><g/><text fill="black" stroke="none" font-family="sans-serif" font-size="11pt" font-style="normal" font-weight="normal" text-decoration="normal" x="340.22141287923176" y="162.371920802" text-anchor="start" dominant-baseline="alphabetic" xml:space="preserve">SpUserHandler</text></g><g><path fill="white" stroke="black" paint-order="fill stroke markers" d=" M 538.0434685382604 120.39044832100001 A 24.2577769005 24.2577769005 0 1 1 538.043456409373 120.36619054814246 M 510.51865097776044 96.1326714205 L 520.3197729577604 87.96506977050001 M 510.51865097776044 96.1326714205 L 520.3197729577604 104.3002730705" stroke-miterlimit="10" stroke-width="2.7769845610000004" stroke-dasharray=""/></g><g><g/><text fill="black" stroke="none" font-family="sans-serif" font-size="11pt" font-style="normal" font-weight="normal" text-decoration="normal" x="464.902398485905" y="162.371920802" text-anchor="start" dominant-baseline="alphabetic" xml:space="preserve">SpUserService</text></g><g><path fill="white" stroke="black" paint-order="fill stroke markers" d=" M 674.5318805975703 118.16886067220001 A 24.2577769005 24.2577769005 0 1 1 674.5318684686829 118.14460289934246 M 624.6278345160704 144.6482252215 L 673.1433883170703 144.6482252215" stroke-miterlimit="10" stroke-width="2.7769845610000004" stroke-dasharray=""/></g><g><g/><text fill="black" stroke="none" font-family="sans-serif" font-size="11pt" font-style="normal" font-weight="normal" text-decoration="normal" x="620.1202111799805" y="162.371920802" text-anchor="start" dominant-baseline="alphabetic" xml:space="preserve">SpCache</text></g><g><path fill="white" stroke="black" paint-order="fill stroke markers" d=" M 881.9109216727553 135.255483324 L 881.9109216727553 100.95155639400002 L 929.6097153087552 100.95155639400002 L 929.6097153087552 135.255483324" stroke-miterlimit="10" stroke-width="2.7769845610000004" stroke-dasharray=""/><path fill="white" stroke="black" paint-order="fill stroke markers" d=" M 929.6097153087552 99.75908655310002 L 929.6085228488515 99.86689709801664 L 929.6049455883855 99.97469686196861 L 929.5989838850802 100.08247506506937 L 929.5906383351008 100.19022092958842 L 929.5799097729956 100.2979236810291 L 929.5667992716118 100.40557254920603 L 929.5513081419886 100.51315676932207 L 929.533437933226 100.62066558304487 L 929.5131904323299 100.72808823958268 L 929.4905676640337 100.83541399675931 L 929.4655718905954 100.94263212208854 L 929.4382056115713 101.04973189384714 L 929.4084715635668 101.1567026021472 L 929.3763727199616 101.26353355000704 L 929.3419122906135 101.37021405442088 L 929.3050937215368 101.4767334474272 L 929.2659206945574 101.58308107717545 L 929.2243971269456 101.68924630899127 L 929.1805271710236 101.79521852643998 L 929.1343152137503 101.90098713238812 L 929.085765876283 102.00654155006325 L 929.0348840135149 102.11187122411154 L 928.98167471359 102.21696562165339 L 928.9261432973938 102.32181423333661 L 928.8682953180218 102.4264065743874 L 928.8081365602236 102.53073218565882 L 928.745673039825 102.63478063467669 L 928.6809110031257 102.7385415166828 L 928.6138569262757 102.84200445567542 L 928.5445175146268 102.94515910544688 L 928.4728997020621 103.04799515061815 L 928.3990106503035 103.15050230767042 L 928.3228577481945 103.2526703259734 L 928.2444486109616 103.3544889888104 L 928.1637910794535 103.4559481144 L 928.0808932193561 103.55703755691417 L 927.9957633203862 103.6577472074929 L 927.9084098954628 103.75806699525508 L 927.8188416798556 103.8579868883055 L 927.7270676303116 103.95749689473814 L 927.6330969241592 104.05658706363529 L 927.5369389583906 104.15524748606262 L 927.4386033487225 104.25346829606012 L 927.3380999286337 104.35123967162862 L 927.2354387483825 104.44855183571204 L 927.1306300740015 104.54539505717509 L 927.0236843862706 104.6417596517763 L 926.9146123796696 104.73763598313651 L 926.8034249613083 104.83301446370251 L 926.6901332498358 104.92788555570571 L 926.5747485743289 105.02223977211597 L 926.4572824731588 105.11606767759027 L 926.3377466928379 105.20935988941625 L 926.2161531868446 105.30210707845049 L 926.0925141144282 105.39429997005135 L 925.9668418393928 105.48592934500653 L 925.8391489288614 105.57698604045486 L 925.7094481520184 105.66746095080268 L 925.5777524788334 105.75734502863436 L 925.4440750787642 105.84662928561703 L 925.3084293194393 105.93530479339938 L 925.1708287653214 106.02336268450453 L 925.0312871763515 106.11079415321676 L 924.8898185065722 106.19759045646204 L 924.7464369027324 106.28374291468239 L 924.6011567028733 106.36924291270377 L 924.4539924348934 106.45408190059764 L 924.3049588150973 106.5382513945359 L 924.1540707467224 106.62174297763931 L 924.00134331845 106.70454830081913 L 923.8467918028958 106.78665908361204 L 923.6904316550823 106.86806711500819 L 923.532278510894 106.94876425427228 L 923.3723481855137 107.02874243175762 L 923.2106566718405 107.10799364971314 L 923.0472201388912 107.18650998308306 L 922.8820549301827 107.26428358029946 L 922.7151775620983 107.34130666406747 L 922.5466047222359 107.41757153214289 L 922.3763532677388 107.49307055810243 L 922.2044402236106 107.56779619210644 L 922.0308827810126 107.6417409616538 L 921.8556982955442 107.71489747232916 L 921.6789042855082 107.7872584085424 L 921.5005184301582 107.85881653426023 L 921.3205585679309 107.9295646937297 L 921.1390426946629 107.9994958121938 L 920.9559889617899 108.06860289659899 L 920.7714156745329 108.1368790362944 L 920.5853412900667 108.20431740372297 L 920.3977844156748 108.27091125510412 L 920.2087638068881 108.33665393110826 L 920.0182983656102 108.40153885752254 L 919.8264071382264 108.46555954590839 L 919.6331093136996 108.52870959425034 L 919.4384242216511 108.59098268759617 L 919.2423713304279 108.65237259868843 L 919.0449702451557 108.71287318858718 L 918.8462407057787 108.77247840728386 L 918.6462025850849 108.83118229430623 L 918.44487588672 108.88897897931456 L 918.2422807431859 108.94586268268847 L 918.0384374138281 109.00182771610504 L 917.8333662828098 109.05686848310758 L 917.6270878570731 109.11097947966525 L 917.4196227642888 109.16415529472346 L 917.210991750793 109.21639061074505 L 917.0012156795136 109.26768020424194 L 916.7903155278826 109.31801894629751 L 916.5783123857395 109.36740180307952 L 916.3652274532219 109.41582383634344 L 916.1510820386455 109.46328020392627 L 915.9358975563732 109.50976616023082 L 915.719695524674 109.55527705670022 L 915.5024975635708 109.5998083422827 L 915.2843253926789 109.64335556388684 L 915.0652008290333 109.68591436682678 L 914.8451457849079 109.72748049525767 L 914.6241822656239 109.7680497926013 L 914.4023323673489 109.80761820196176 L 914.1796182748878 109.84618176653109 L 913.9560622594644 109.88373662998495 L 913.731686676494 109.92027903686831 L 913.5065139633476 109.95580533297093 L 913.2805666371092 109.99031196569278 L 913.053867292323 110.02379548439939 L 912.8264385987346 110.05625254076675 L 912.5983032990238 110.08767988911629 L 912.3694842065305 110.11807438673935 L 912.1400042029732 110.14743299421153 L 911.9098862361611 110.17575277569651 L 911.679153317699 110.20303089923975 L 911.4478285206867 110.22926463705164 L 911.2159349774108 110.25445136578027 L 910.9834958770327 110.27858856677372 L 910.7505344632687 110.30167382633203 L 910.5170740320657 110.32370483594849 L 910.2831379292727 110.34467939254047 L 910.0487495483047 110.3645953986698 L 909.8139323278048 110.38345086275248 L 909.5787097492992 110.40124389925779 L 909.3431053348495 110.41797272889693 L 909.1071426447012 110.43363567880087 L 908.8708452749265 110.44823118268765 L 908.6342368550655 110.46175778101907 L 908.3973410457629 110.47421412114657 L 908.1601815364024 110.4855989574465 L 907.9227820427373 110.49591115144473 L 907.6851663045188 110.50514967193044 L 907.4473580831232 110.5133135950593 L 907.2093811591741 110.5204021044458 L 906.9712593301657 110.52641449124488 L 906.7330164080826 110.53135015422289 L 906.4946762170182 110.53520859981765 L 906.2562625907932 110.53798944218781 L 906.0177993705714 110.53969240325145 L 905.7793104024763 110.54031731271388 L 905.5408195352057 110.53986410808467 L 905.3023506176479 110.53833283468393 L 905.0639274964957 110.5357236456377 L 904.8255740138627 110.53203680186272 L 904.5873140048983 110.52727267204028 L 904.3491712954051 110.52143173257942 L 904.1111696994554 110.5145145675692 L 903.8733330170106 110.50652186872036 L 903.6356850315407 110.4974544352961 L 903.3982495076461 110.48731317403227 L 903.1610501886814 110.47609909904648 L 902.924110794381 110.46381333173692 L 902.6874550184867 110.45045710067006 L 902.4511065263789 110.4360317414579 L 902.2150889527098 110.42053869662433 L 901.9794258990403 110.40397951546092 L 901.7441409314791 110.38635585387198 L 901.5092575783272 110.367669474209 L 901.2747993277238 110.34792224509437 L 901.040789625299 110.32711614123453 L 900.8072518718276 110.30525324322254 L 900.5742094208907 110.28233573732997 L 900.341685576539 110.25836591528834 L 900.1097035909631 110.23334617405986 L 899.8782866621685 110.2072790155978 L 899.647457931655 110.18016704659628 L 899.4172404821035 110.15201297822964 L 899.1876573350669 110.1228196258812 L 898.9587314486686 110.09258990886192 L 898.7304857153066 110.06132685011828 L 898.502942959364 110.0290335759301 L 898.2761259349267 109.99571331559791 L 898.0500573235082 109.96136940111997 L 897.8247597317812 109.9260052668591 L 897.6002556893171 109.88962444919923 L 897.3765676463332 109.85223058619187 L 897.1537179714473 109.81382741719212 L 896.9317289494412 109.77441878248487 L 896.7106227790322 109.73400862290077 L 896.4904215706528 109.6926009794221 L 896.2711473442406 109.6501999927787 L 896.0528220270354 109.60680990303389 L 895.835467451387 109.56243504916051 L 895.619105352572 109.51707986860694 L 895.4037573666196 109.47074889685346 L 895.1894450281494 109.42344676695863 L 894.9761897682163 109.37517820909602 L 894.7640129121688 109.3259480500812 L 894.5529356775155 109.27576121288904 L 894.3429791718041 109.22462271616142 L 894.1341643905103 109.17253767370543 L 893.9265122149379 109.1195112939819 L 893.7200434101318 109.0655488795846 L 893.5147786228001 109.01065582671 L 893.3107383792507 108.95483762461768 L 893.1079430833377 108.89809985508128 L 892.9064130144219 108.84044819183053 L 892.7061683253422 108.78188839998367 L 892.5072290404006 108.7224263354711 L 892.3096150533598 108.66206794444972 L 892.113346125454 108.60081926270831 L 891.9184418834121 108.53868641506405 L 891.7249218174962 108.47567561474989 L 891.5328052795514 108.41179316279337 L 891.3421114810717 108.34704544738645 L 891.1528594912777 108.2814389432467 L 890.9650682352108 108.21498021096988 L 890.7787564918401 108.14767589637383 L 890.5939428921847 108.07953272983391 L 890.4106459174507 108.01055752561001 L 890.2288838971824 107.94075718116505 L 890.0486750074309 107.87013867647532 L 889.8700372689347 107.79870907333245 L 889.6929885453187 107.72647551463722 L 889.5175465413079 107.6534452236853 L 889.3437288009565 107.57962550344493 L 889.1715527058935 107.50502373582663 L 889.0010354735851 107.42964738094497 L 888.8321941556126 107.35350397637264 L 888.6650456359666 107.27660113638665 L 888.4996066293603 107.1989465512069 L 888.3358936795561 107.12054798622721 L 888.1739231577128 107.04141328123873 L 888.0137112607475 106.96155034964602 L 887.8552740097164 106.8809671776757 L 887.6986272482126 106.7996718235778 L 887.5437866407817 106.71767241681998 L 887.3907676713554 106.63497715727459 L 887.2395856417031 106.55159431439867 L 887.0902556699018 106.46753222640703 L 886.9427926888243 106.38279929943842 L 886.7972114446458 106.29740400671491 L 886.6535264953693 106.21135488769461 L 886.5117522093701 106.12466054721774 L 886.3719027639587 106.03732965464607 L 886.233992143963 105.94937094299611 L 886.0980341403299 105.8607932080657 L 885.9640423487468 105.77160530755455 L 885.8320301682811 105.68181616017836 L 885.7020108000407 105.59143474477705 L 885.5739972458542 105.50047009941686 L 885.4480023069704 105.40893132048649 L 885.324038582778 105.31682756178758 L 885.2021184695463 105.22416803361924 L 885.0822541591849 105.13096200185706 L 884.964457638025 105.03721878702656 L 884.8487406856206 104.94294776337108 L 884.7351148735703 104.84815835791446 L 884.6235915643609 104.75286004951823 L 884.5141819102303 104.65706236793383 L 884.4068968520526 104.56077489284957 L 884.3017471182443 104.46400725293273 L 884.1987432236913 104.36676912486666 L 884.097895468697 104.26907023238314 L 883.9992139379528 104.17092034529 L 883.9027084995299 104.07232927849415 L 883.8083888038915 103.97330689102013 L 883.7162642829285 103.87386308502415 L 883.6263441490163 103.77400780480394 L 883.5386373940934 103.67375103580433 L 883.453152788762 103.57310280361865 L 883.3698988814118 103.47207317298626 L 883.2888839973638 103.37067224678601 L 883.210116238039 103.26891016502606 L 883.1336034801477 103.16679710382974 L 883.0593533749019 103.0643432744181 L 882.9873733472504 102.96155892208871 L 882.9176705951356 102.85845432519113 L 882.8502520887752 102.75503979409915 L 882.7851245699632 102.65132567017969 L 882.7222945513972 102.5473223247587 L 882.6617683160271 102.44304015808407 L 882.6035519164255 102.33848959828556 L 882.5476511741844 102.23368110033203 L 882.4940716793309 102.12862514498595 L 882.4428187897701 102.02333223775527 L 882.3938976307483 101.91781290784299 L 882.3473130943404 101.81207770709416 L 882.3030698389615 101.70613720894077 L 882.2611722889001 101.60000200734433 L 882.2216246338763 101.49368271573654 L 882.1844308286227 101.387189965958 L 882.1495945924888 101.2805344071949 L 882.1171194090691 101.17372670491429 L 882.0870085258551 101.06677753979733 L 882.0592649539099 100.95969760667145 L 882.0338914675675 100.85249761344073 L 882.0108906041555 100.74518828001514 L 881.9902646637411 100.63778033723861 L 881.9720157089009 100.5302845258159 L 881.9561455645155 100.42271159523858 L 881.942655817586 100.31507230271008 L 881.9315478170757 100.20737741206993 L 881.9228226737757 100.09963769271747 L 881.9164812601928 99.99186391853482 L 881.9125242104632 99.88406686680962 L 881.9109519202884 99.77625731715719 L 881.9117645468964 99.66844605044267 L 881.914962009025 99.56064384770288 L 881.9205439869306 99.45286148906825 L 881.9285099224203 99.34510975268485 L 881.938859018907 99.23739941363651 L 881.9515902414898 99.12974124286738 L 881.966702317057 99.02214600610482 L 881.9841937344136 98.91462446278284 L 882.0040627444323 98.80718736496618 L 882.026307360229 98.69984545627509 L 882.0509253573605 98.59260947081098 L 882.0779142740474 98.48549013208303 L 882.1072714114208 98.37849815193587 L 882.1389938337913 98.27164422947833 L 882.1730783689433 98.16493905001363 L 882.2095216084513 98.05839328397077 L 882.248319908022 97.9520175858376 L 882.2894693878577 97.84582259309526 L 882.3329659330448 97.73981892515455 L 882.3788051939648 97.6340171822939 L 882.42698258673 97.52842794459946 L 882.4774932936413 97.423061770907 L 882.5303322636698 97.31792919774607 L 882.585494212963 97.21304073828638 L 882.6429736253716 97.10840688128647 L 882.7027647530024 97.00403809004486 L 882.7648616167922 96.89994480135368 L 882.8292580071068 96.79613742445507 L 882.8959474843606 96.6926263400002 L 882.9649233796614 96.58942189901128 L 883.0361787954772 96.48653442184639 L 883.1097066063259 96.38397419716749 L 883.1854994594875 96.28175148091161 L 883.2635497757399 96.17987649526519 L 883.3438497501166 96.07835942764187 L 883.426391352687 95.97721042966384 L 883.5111663293598 95.8764396161466 L 883.5981662027077 95.77605706408754 L 883.6873822728161 95.67607281165819 L 883.7788056181522 95.57649685720048 L 883.8724270964577 95.47733915822688 L 883.9682373456627 95.37860963042466 L 884.0662267848223 95.28031814666433 L 884.1663856150742 95.18247453601234 L 884.2687038206187 95.08508858274823 L 884.3731711697205 94.98817002538617 L 884.479777215732 94.89172855570112 L 884.5885112981373 94.79577381775971 L 884.6993625436186 94.70031540695574 L 884.812319867144 94.60536286905077 L 884.9273719730751 94.51092569921943 L 885.0445073562972 94.41701334110004 L 885.1637143033696 94.32363518585014 L 885.284980893697 94.23080057120742 L 885.4082950007214 94.13851878055601 L 885.5336442931349 94.04679904199807 L 885.6610162361126 93.955650527431 L 885.7903980925664 93.86508235163033 L 885.9217769244185 93.77510357133815 L 886.0551395938951 93.68572318435751 L 886.1904727648405 93.59695012865262 L 886.3277629040504 93.5087932814551 L 886.4669962826251 93.42126145837616 L 886.608158977343 93.33436341252519 L 886.7512368720521 93.24810783363438 L 886.8962156590823 93.1625033471897 L 887.0430808406755 93.07755851356848 L 887.1918177304362 92.9932818271833 L 887.3424114547992 92.90968171563254 L 887.4948469545176 92.82676653885773 L 887.6491089861684 92.74454458830742 L 887.805182123677 92.66302408610815 L 887.9630507598598 92.58221318424222 L 888.1226991079848 92.50211996373247 L 888.2841112033499 92.4227524338342 L 888.4472709048804 92.34411853123427 L 888.6121618967419 92.26622611925741 L 888.7787676899728 92.1890829870799 L 888.9470716241326 92.11269684895069 L 889.1170568689679 92.0370753434199 L 889.2887064260962 91.9622260325751 L 889.4620031307046 91.888156401285 L 889.6369296532671 91.81487385645099 L 889.8134685012773 91.74238572626649 L 889.9916020209973 91.67069925948411 L 890.1713123992239 91.59982162469079 L 890.3525816650688 91.52975990959095 L 890.5353916917564 91.4605211202977 L 890.7197241984367 91.3921121806323 L 890.9055607520124 91.32453993143167 L 891.092882768983 91.25781112986445 L 891.2816715173029 91.1919324487552 L 891.4719081182548 91.12691047591709 L 891.6635735483369 91.06275171349324 L 891.856648641166 90.99946257730645 L 892.0511140893936 90.93704939621756 L 892.2469504466372 90.87551841149269 L 892.444138129424 90.81487577617904 L 892.6426574191503 90.75512755448958 L 892.8424884640523 90.69627972119672 L 893.043611281192 90.63833816103474 L 893.2460057584557 90.58130866811136 L 893.449651656564 90.52519694532836 L 893.6545286110968 90.47000860381125 L 893.8606161345294 90.41574916234819 L 894.0678936182813 90.36242404683813 L 894.2763403347768 90.31003858974816 L 894.485935439518 90.25859802958036 L 894.696657973169 90.20810751034786 L 894.908486863652 90.1585720810605 L 895.1214009282546 90.10999669521995 L 895.3353788757478 90.0623862103243 L 895.550399308515 90.01574538738238 L 895.7664407246922 89.9700788904376 L 895.9834815203177 89.92539128610161 L 896.201499991493 89.88168704309761 L 896.4204743365526 89.83897053181346 L 896.6403826582443 89.79724602386472 L 896.8612029659196 89.75651769166738 L 897.0829131777313 89.71678960802075 L 897.3054911228431 89.67806574570005 L 897.5289145436461 89.64034997705929 L 897.7531610979843 89.60364607364387 L 897.9782083613892 89.56795770581357 L 898.2040338293219 89.53328844237541 L 898.430614919424 89.49964175022686 L 898.6579289737751 89.46702099400908 L 898.8859532611592 89.43542943577052 L 899.1146649793377 89.40487023464067 L 899.3440412573293 89.37534644651419 L 899.5740591576974 89.34686102374526 L 899.8046956788436 89.31941681485246 L 900.035927757308 89.29301656423378 L 900.2677322700753 89.2676629118923 L 900.5000860368876 89.2433583931721 L 900.7329658225618 89.22010543850483 L 900.9663483393134 89.19790637316656 L 901.2002102490852 89.17676341704532 L 901.434528165881 89.15667868441913 L 901.6692786581045 89.13765418374449 L 901.9044382509021 89.11969181745562 L 902.1399834285105 89.10279338177418 L 902.3758906366081 89.08696056652965 L 902.6121362846709 89.0721949549904 L 902.8486967483307 89.05849802370521 L 903.0855483717385 89.04587114235585 L 903.3226674699291 89.03431557361992 L 903.5600303311905 89.02383247304465 L 903.7976132194343 89.01442288893136 L 904.0353923765696 89.00608776223065 L 904.273344024879 88.99882792644821 L 904.5114443693957 88.9926441075616 L 904.7496696002838 88.98753692394752 L 904.9879958952189 88.9835068863201 L 905.2263994217699 88.98055439767974 L 905.4648563397827 88.97867975327284 L 905.7033428037646 88.97788314056228 L 905.9418349652676 88.97816463920867 L 906.1803089752744 88.97952422106238 L 906.4187409865829 88.98196175016635 L 906.6571071561904 88.98547698276971 L 906.8953836476786 88.99006956735212 L 907.1335466335971 88.99573904465896 L 907.3715722978457 89.00248484774721 L 907.6094368380561 89.0103063020422 L 907.8471164679728 89.019202625405 L 908.0845874198309 89.0291729282107 L 908.3218259467328 89.04021621343732 L 908.5588083250237 89.05233137676555 L 908.7955108566633 89.06551720668914 L 909.0319098715956 89.0797723846361 L 909.2679817301163 89.0950954851005 L 909.5037028252359 89.11148497578507 L 909.7390495850416 89.12893921775441 L 909.9739984750535 89.14745646559885 L 910.2085260005782 89.16703486760905 L 910.442608709059 89.18767246596111 L 910.6762231924197 89.20936719691241 L 910.9093460894068 89.23211689100792 L 911.1419540879249 89.2559192732972 L 911.374023927368 89.28077196356185 L 911.6055324009454 89.30667247655354 L 911.8364563580029 89.33361822224259 L 912.0667727063371 89.36160650607685 L 912.2964584145051 89.39063452925127 L 912.5254905141275 89.42069938898774 L 912.7538461021851 89.45179807882532 L 912.9815023433096 89.48392748892095 L 913.2084364720663 89.5170844063604 L 913.4346257952317 89.55126551547954 L 913.660047694062 89.58646739819596 L 913.8846796265549 89.62268653435072 L 914.1084991297046 89.65991930206037 L 914.3314838217472 89.69816197807918 L 914.5536114043991 89.73741073817143 L 914.7748596650877 89.7776616574938 L 914.9952064791707 89.8189107109879 L 915.2146298121506 89.86115377378276 L 915.433107721877 89.9043866216073 L 915.650618360741 89.94860493121277 L 915.8671399778598 89.99380428080505 L 916.0826509212521 90.03998015048685 L 916.2971296400034 90.0871279227097 L 916.5105546864204 90.13524288273562 L 916.7229047181763 90.18432021910876 L 916.934158500445 90.23435502413635 L 917.1442949080242 90.28534229437957 L 917.3532929274483 90.33727693115392 L 917.5611316590895 90.39015374103897 L 917.7677903192478 90.44396743639781 L 917.9732482422295 90.49871263590576 L 918.1774848824134 90.55438386508847 L 918.3804798163058 90.6109755568694 L 918.5822127445823 90.66848205212658 L 918.7826634941184 90.72689760025837 L 918.981812020006 90.78621635975864 L 919.1796384075586 90.84643239880089 L 919.3761228743023 90.90753969583137 L 919.5712457719541 90.96953214017132 L 919.7649875883868 91.03240353262795 L 919.9573289495802 91.09614758611443 L 920.1482506215586 91.1607579262785 L 920.3377335123138 91.22622809214002 L 920.5257586737147 91.29255153673692 L 920.7123073034018 91.35972162778006 L 920.8973607466675 91.42773164831627 L 921.0809004983217 91.49657479740019 L 921.2629082045424 91.56624419077427 L 921.4433656647105 91.63673286155725 L 921.6222548332304 91.70803376094076 L 921.7995578213341 91.78013975889431 L 921.975256898871 91.85304364487818 L 922.1493344960793 91.92673812856452 L 922.3217732053446 92.00121584056639 L 922.4925557829396 92.07646933317463 L 922.6616651507488 92.15249108110271 L 922.8290843979764 92.22927348223918 L 922.9947967828373 92.3068088584079 L 923.158785734231 92.3850894561359 L 923.3210348533989 92.4641074474286 L 923.4815279155646 92.54385493055275 L 923.6402488715554 92.62432393082648 L 923.7971818494079 92.70550640141681 L 923.9523111559553 92.78739422414436 L 924.1056212783961 92.86997921029509 L 924.2570968858458 92.95325310143917 L 924.40672283087 93.03720757025692 L 924.5544841509987 93.12183422137142 L 924.7003660702233 93.20712459218805 L 924.8443540004731 93.29307015374081 L 924.9864335430753 93.3796623115452 L 925.1265904901941 93.46689240645757 L 925.2648108262513 93.55475171554113 L 925.4010807293287 93.64323145293818 L 925.5353865725494 93.73232277074871 L 925.6677149254413 93.8220167599152 L 925.7980525552789 93.91230445111346 L 925.9263864284083 94.00317681564962 L 926.0527037115489 94.09462476636294 L 926.1769917730776 94.18663915853458 L 926.299238184292 94.27921079080198 L 926.4194307206527 94.37233040607906 L 926.5375573630064 94.46598869248189 L 926.653606298787 94.56017628425988 L 926.7675659231979 94.65488376273235 L 926.8794248403716 94.75010165723037 L 926.9891718645094 94.84582044604385 L 927.0967960210006 94.94203055737364 L 927.2022865475191 95.03872237028881 L 927.3056328951001 95.13588621568863 L 927.406824729195 95.23351237726953 L 927.5058519307049 95.33159109249674 L 927.6027045969919 95.43011255358043 L 927.6973730428703 95.5290669084566 L 927.7898478015742 95.62844426177223 L 927.880119625705 95.72823467587482 L 927.9681794881553 95.82842817180608 L 928.0540185830124 95.92901473029994 L 928.1376283264384 96.02998429278436 L 928.2190003575283 96.13132676238725 L 928.2981265391472 96.23303200494607 L 928.3749989587427 96.33508985002135 L 928.4496099291368 96.4374900919136 L 928.5219519892948 96.54022249068399 L 928.5920179050711 96.64327677317824 L 928.6598006699321 96.746642634054 L 928.7252935056581 96.85030973681128 L 928.78848986302 96.95426771482623 L 928.8493834224347 97.05850617238767 L 928.9079680945971 97.1630146857367 L 928.9642380210887 97.26778280410907 L 929.0181875749639 97.37280005078027 L 929.0698113613122 97.47805592411314 L 929.1191042177978 97.58353989860805 L 929.1660612151765 97.68924142595546 L 929.2106776577873 97.79514993609072 L 929.2529490840234 97.90125483825108 L 929.2928712667772 98.00754552203473 L 929.3304402138639 98.11401135846187 L 929.3656521684198 98.22064170103758 L 929.3985036092793 98.32742588681647 L 929.4289912513251 98.43435323746894 L 929.4571120458188 98.54141306034904 L 929.4828631807042 98.64859464956368 L 929.5062420808894 98.75588728704328 L 929.5272464085036 98.86328024361347 L 929.5458740631319 98.97076278006811 L 929.5621231820242 99.07832414824313 L 929.5759921402821 99.18595359209134 L 929.5874795510214 99.29364034875802 L 929.5965842655105 99.40137364965727 L 929.6033053732857 99.50914272154878 L 929.6076422022417 99.61693678761516 L 929.6095943186992 99.72474506853963 M 929.6097153087552 134.0630134831 L 929.6085228488515 134.17082402801663 L 929.6049455883855 134.2786237919686 L 929.5989838850802 134.38640199506935 L 929.5906383351008 134.49414785958842 L 929.5799097729956 134.60185061102908 L 929.5667992716118 134.70949947920602 L 929.5513081419886 134.81708369932204 L 929.533437933226 134.92459251304487 L 929.5131904323299 135.03201516958265 L 929.4905676640337 135.1393409267593 L 929.4655718905954 135.24655905208851 L 929.4382056115713 135.35365882384713 L 929.4084715635668 135.46062953214718 L 929.3763727199616 135.56746048000701 L 929.3419122906135 135.67414098442086 L 929.3050937215368 135.78066037742718 L 929.2659206945574 135.88700800717544 L 929.2243971269456 135.99317323899126 L 929.1805271710236 136.09914545643997 L 929.1343152137503 136.2049140623881 L 929.085765876283 136.31046848006324 L 929.0348840135149 136.41579815411154 L 928.98167471359 136.5208925516534 L 928.9261432973938 136.62574116333658 L 928.8682953180218 136.7303335043874 L 928.8081365602236 136.8346591156588 L 928.745673039825 136.9387075646767 L 928.6809110031257 137.0424684466828 L 928.6138569262757 137.14593138567542 L 928.5445175146268 137.24908603544688 L 928.4728997020621 137.35192208061815 L 928.3990106503035 137.4544292376704 L 928.3228577481945 137.5565972559734 L 928.2444486109616 137.6584159188104 L 928.1637910794535 137.7598750444 L 928.0808932193561 137.86096448691416 L 927.9957633203862 137.96167413749288 L 927.9084098954628 138.06199392525505 L 927.8188416798556 138.1619138183055 L 927.7270676303116 138.26142382473813 L 927.6330969241592 138.3605139936353 L 927.5369389583906 138.4591744160626 L 927.4386033487225 138.5573952260601 L 927.3380999286337 138.6551666016286 L 927.2354387483825 138.75247876571203 L 927.1306300740015 138.84932198717507 L 927.0236843862706 138.94568658177627 L 926.9146123796696 139.04156291313652 L 926.8034249613083 139.1369413937025 L 926.6901332498358 139.2318124857057 L 926.5747485743289 139.32616670211596 L 926.4572824731588 139.41999460759027 L 926.3377466928379 139.51328681941624 L 926.2161531868446 139.60603400845048 L 926.0925141144282 139.69822690005134 L 925.9668418393928 139.7898562750065 L 925.8391489288614 139.88091297045483 L 925.7094481520184 139.97138788080267 L 925.5777524788334 140.06127195863436 L 925.4440750787642 140.15055621561703 L 925.3084293194393 140.23923172339937 L 925.1708287653214 140.3272896145045 L 925.0312871763515 140.41472108321673 L 924.8898185065722 140.501517386462 L 924.7464369027324 140.58766984468238 L 924.6011567028733 140.67316984270377 L 924.4539924348934 140.75800883059765 L 924.3049588150973 140.8421783245359 L 924.1540707467224 140.9256699076393 L 924.00134331845 141.00847523081913 L 923.8467918028958 141.09058601361204 L 923.6904316550823 141.17199404500818 L 923.532278510894 141.25269118427227 L 923.3723481855137 141.3326693617576 L 923.2106566718405 141.41192057971313 L 923.0472201388912 141.49043691308304 L 922.8820549301827 141.56821051029945 L 922.7151775620983 141.64523359406746 L 922.5466047222359 141.72149846214288 L 922.3763532677388 141.79699748810242 L 922.2044402236106 141.87172312210643 L 922.0308827810126 141.94566789165378 L 921.8556982955442 142.01882440232913 L 921.6789042855082 142.0911853385424 L 921.5005184301582 142.16274346426022 L 921.3205585679309 142.2334916237297 L 921.1390426946629 142.3034227421938 L 920.9559889617899 142.372529826599 L 920.7714156745329 142.4408059662944 L 920.5853412900667 142.50824433372296 L 920.3977844156748 142.5748381851041 L 920.2087638068881 142.64058086110825 L 920.0182983656102 142.70546578752254 L 919.8264071382264 142.7694864759084 L 919.6331093136996 142.83263652425032 L 919.4384242216511 142.89490961759617 L 919.2423713304279 142.95629952868842 L 919.0449702451557 143.01680011858718 L 918.8462407057787 143.07640533728383 L 918.6462025850849 143.13510922430623 L 918.44487588672 143.19290590931453 L 918.2422807431859 143.24978961268846 L 918.0384374138281 143.30575464610504 L 917.8333662828098 143.36079541310758 L 917.6270878570731 143.41490640966524 L 917.4196227642888 143.46808222472345 L 917.210991750793 143.52031754074505 L 917.0012156795136 143.57160713424193 L 916.7903155278826 143.6219458762975 L 916.5783123857395 143.67132873307952 L 916.3652274532219 143.71975076634342 L 916.1510820386455 143.76720713392626 L 915.9358975563732 143.81369309023083 L 915.719695524674 143.8592039867002 L 915.5024975635708 143.9037352722827 L 915.2843253926789 143.94728249388683 L 915.0652008290333 143.98984129682677 L 914.8451457849079 144.03140742525764 L 914.6241822656239 144.07197672260128 L 914.4023323673489 144.11154513196175 L 914.1796182748878 144.15010869653108 L 913.9560622594644 144.18766355998494 L 913.731686676494 144.2242059668683 L 913.5065139633476 144.2597322629709 L 913.2805666371092 144.29423889569279 L 913.053867292323 144.32772241439937 L 912.8264385987346 144.36017947076672 L 912.5983032990238 144.39160681911628 L 912.3694842065305 144.42200131673934 L 912.1400042029732 144.45135992421152 L 911.9098862361611 144.4796797056965 L 911.679153317699 144.50695782923975 L 911.4478285206867 144.53319156705163 L 911.2159349774108 144.55837829578024 L 910.9834958770327 144.5825154967737 L 910.7505344632687 144.60560075633202 L 910.5170740320657 144.62763176594848 L 910.2831379292727 144.64860632254045 L 910.0487495483047 144.66852232866978 L 909.8139323278048 144.68737779275247 L 909.5787097492992 144.70517082925778 L 909.3431053348495 144.72189965889692 L 909.1071426447012 144.73756260880086 L 908.8708452749265 144.75215811268765 L 908.6342368550655 144.76568471101908 L 908.3973410457629 144.77814105114655 L 908.1601815364024 144.7895258874465 L 907.9227820427373 144.7998380814447 L 907.6851663045188 144.80907660193043 L 907.4473580831232 144.8172405250593 L 907.2093811591741 144.82432903444578 L 906.9712593301657 144.83034142124487 L 906.7330164080826 144.83527708422287 L 906.4946762170182 144.83913552981764 L 906.2562625907932 144.8419163721878 L 906.0177993705714 144.84361933325144 L 905.7793104024763 144.84424424271387 L 905.5408195352057 144.84379103808467 L 905.3023506176479 144.84225976468392 L 905.0639274964957 144.83965057563768 L 904.8255740138627 144.8359637318627 L 904.5873140048983 144.83119960204027 L 904.3491712954051 144.82535866257942 L 904.1111696994554 144.81844149756918 L 903.8733330170106 144.81044879872033 L 903.6356850315407 144.8013813652961 L 903.3982495076461 144.79124010403225 L 903.1610501886814 144.78002602904647 L 902.924110794381 144.7677402617369 L 902.6874550184867 144.75438403067005 L 902.4511065263789 144.73995867145788 L 902.2150889527098 144.72446562662432 L 901.9794258990403 144.7079064454609 L 901.7441409314791 144.69028278387196 L 901.5092575783272 144.671596404209 L 901.2747993277238 144.65184917509436 L 901.040789625299 144.6310430712345 L 900.8072518718276 144.6091801732225 L 900.5742094208907 144.58626266732998 L 900.341685576539 144.56229284528834 L 900.1097035909631 144.53727310405984 L 899.8782866621685 144.5112059455978 L 899.647457931655 144.48409397659628 L 899.4172404821035 144.45593990822962 L 899.1876573350669 144.4267465558812 L 898.9587314486686 144.3965168388619 L 898.7304857153066 144.36525378011828 L 898.502942959364 144.3329605059301 L 898.2761259349267 144.2996402455979 L 898.0500573235082 144.26529633111994 L 897.8247597317812 144.22993219685907 L 897.6002556893171 144.19355137919922 L 897.3765676463332 144.15615751619185 L 897.1537179714473 144.1177543471921 L 896.9317289494412 144.07834571248486 L 896.7106227790322 144.03793555290076 L 896.4904215706528 143.9965279094221 L 896.2711473442406 143.9541269227787 L 896.0528220270354 143.9107368330339 L 895.835467451387 143.8663619791605 L 895.619105352572 143.82100679860693 L 895.4037573666196 143.77467582685347 L 895.1894450281494 143.72737369695864 L 894.9761897682163 143.679105139096 L 894.7640129121688 143.62987498008118 L 894.5529356775155 143.579688142889 L 894.3429791718041 143.52854964616142 L 894.1341643905103 143.4764646037054 L 893.9265122149379 143.4234382239819 L 893.7200434101318 143.36947580958457 L 893.5147786228001 143.31458275671 L 893.3107383792507 143.25876455461767 L 893.1079430833377 143.20202678508127 L 892.9064130144219 143.1443751218305 L 892.7061683253422 143.08581532998366 L 892.5072290404006 143.02635326547107 L 892.3096150533598 142.9659948744497 L 892.113346125454 142.9047461927083 L 891.9184418834121 142.84261334506402 L 891.7249218174962 142.77960254474988 L 891.5328052795514 142.71572009279336 L 891.3421114810717 142.65097237738644 L 891.1528594912777 142.5853658732467 L 890.9650682352108 142.51890714096987 L 890.7787564918401 142.4516028263738 L 890.5939428921847 142.3834596598339 L 890.4106459174507 142.31448445561 L 890.2288838971824 142.24468411116504 L 890.0486750074309 142.17406560647532 L 889.8700372689347 142.10263600333244 L 889.6929885453187 142.03040244463722 L 889.5175465413079 141.9573721536853 L 889.3437288009565 141.88355243344492 L 889.1715527058935 141.80895066582661 L 889.0010354735851 141.73357431094496 L 888.8321941556126 141.65743090637264 L 888.6650456359666 141.58052806638665 L 888.4996066293603 141.5028734812069 L 888.3358936795561 141.42447491622718 L 888.1739231577128 141.34534021123872 L 888.0137112607475 141.265477279646 L 887.8552740097164 141.1848941076757 L 887.6986272482126 141.10359875357778 L 887.5437866407817 141.02159934681995 L 887.3907676713554 140.93890408727458 L 887.2395856417031 140.85552124439866 L 887.0902556699018 140.77145915640702 L 886.9427926888243 140.68672622943842 L 886.7972114446458 140.6013309367149 L 886.6535264953693 140.5152818176946 L 886.5117522093701 140.42858747721772 L 886.3719027639587 140.34125658464606 L 886.233992143963 140.2532978729961 L 886.0980341403299 140.1647201380657 L 885.9640423487468 140.07553223755454 L 885.8320301682811 139.98574309017835 L 885.7020108000407 139.89536167477704 L 885.5739972458542 139.80439702941683 L 885.4480023069704 139.71285825048648 L 885.324038582778 139.62075449178758 L 885.2021184695463 139.52809496361922 L 885.0822541591849 139.43488893185705 L 884.964457638025 139.34114571702654 L 884.8487406856206 139.24687469337107 L 884.7351148735703 139.15208528791445 L 884.6235915643609 139.05678697951822 L 884.5141819102303 138.96098929793382 L 884.4068968520526 138.86470182284955 L 884.3017471182443 138.76793418293272 L 884.1987432236913 138.67069605486665 L 884.097895468697 138.57299716238313 L 883.9992139379528 138.47484727529 L 883.9027084995299 138.37625620849414 L 883.8083888038915 138.27723382102013 L 883.7162642829285 138.17779001502413 L 883.6263441490163 138.07793473480393 L 883.5386373940934 137.9776779658043 L 883.453152788762 137.87702973361863 L 883.3698988814118 137.77600010298625 L 883.2888839973638 137.67459917678602 L 883.210116238039 137.57283709502605 L 883.1336034801477 137.47072403382973 L 883.0593533749019 137.3682702044181 L 882.9873733472504 137.26548585208872 L 882.9176705951356 137.16238125519112 L 882.8502520887752 137.05896672409915 L 882.7851245699632 136.95525260017968 L 882.7222945513972 136.8512492547587 L 882.6617683160271 136.74696708808406 L 882.6035519164255 136.64241652828557 L 882.5476511741844 136.53760803033202 L 882.4940716793309 136.43255207498592 L 882.4428187897701 136.32725916775524 L 882.3938976307483 136.22173983784296 L 882.3473130943404 136.11600463709416 L 882.3030698389615 136.01006413894075 L 882.2611722889001 135.90392893734432 L 882.2216246338763 135.79760964573654 L 882.1844308286227 135.69111689595798 L 882.1495945924888 135.5844613371949 L 882.1171194090691 135.47765363491428 L 882.0870085258551 135.37070446979732 L 882.0592649539099 135.26362453667144 L 882.0338914675675 135.15642454344072 L 882.0108906041555 135.04911521001512 L 881.9902646637411 134.9417072672386 L 881.9720157089009 134.83421145581588 L 881.9561455645155 134.72663852523857 L 881.942655817586 134.61899923271008 L 881.9315478170757 134.5113043420699 L 881.9228226737757 134.40356462271745 L 881.9164812601928 134.2957908485348 L 881.9125242104632 134.1879937968096 L 881.9109519202884 134.08018424715718" stroke-miterlimit="10" stroke-width="2.7769845610000004" stroke-dasharray=""/></g><g><g/><text fill="black" stroke="none" font-family="sans-serif" font-size="11pt" font-style="normal" font-weight="normal" text-decoration="normal" x="865.4167363374349" y="162.371920802" text-anchor="start" dominant-baseline="alphabetic" xml:space="preserve">SpDatabase</text></g></g><g><path fill="white" stroke="black" paint-order="fill stroke markers" d=" M 55.429564540625 175.440083442 L 71.764767840625 175.440083442 L 71.764767840625 536.4480763720001 L 55.429564540625 536.4480763720001 L 55.429564540625 175.440083442" stroke-miterlimit="10" stroke-width="1.3612669416666667" stroke-dasharray=""/><path fill="white" stroke="black" paint-order="fill stroke markers" d=" M 382.16474262571614 221.178652682 L 398.49994592571613 221.178652682 L 398.49994592571613 312.655791162 L 382.16474262571614 312.655791162 L 382.16474262571614 221.178652682" stroke-miterlimit="10" stroke-width="1.3612669416666667" stroke-dasharray=""/><path fill="white" stroke="black" paint-order="fill stroke markers" d=" M 505.61808998776047 266.917221922 L 521.9532932877605 266.917221922 L 521.9532932877605 495.61006812200003 L 505.61808998776047 495.61006812200003 L 505.61808998776047 266.917221922" stroke-miterlimit="10" stroke-width="1.3612669416666667" stroke-dasharray=""/><path fill="white" stroke="black" paint-order="fill stroke markers" d=" M 642.1065020470703 358.394360402 L 658.4417053470704 358.394360402 L 658.4417053470704 495.61006812200003 L 642.1065020470703 495.61006812200003 L 642.1065020470703 358.394360402" stroke-miterlimit="10" stroke-width="1.3612669416666667" stroke-dasharray=""/><path fill="white" stroke="black" paint-order="fill stroke markers" d=" M 897.5927168407552 404.132929642 L 913.9279201407553 404.132929642 L 913.9279201407553 449.871498882 L 897.5927168407552 449.871498882 L 897.5927168407552 404.132929642" stroke-miterlimit="10" stroke-width="1.3612669416666667" stroke-dasharray=""/><g><text fill="black" stroke="none" font-family="sans-serif" font-size="11pt" font-style="normal" font-weight="normal" text-decoration="normal" x="114.51670378053387" y="214.644571362" text-anchor="start" dominant-baseline="alphabetic" xml:space="preserve">User user joined workspace  event</text></g><g><path fill="none" stroke="black" paint-order="fill stroke markers" d=" M 71.764767840625 221.178652682 L 379.44220874238283 221.178652682" stroke-miterlimit="10" stroke-width="1.3612669416666667" stroke-dasharray=""/><g transform="translate(382.16474262571614,221.178652682) translate(-382.16474262571614,-221.178652682)"><path fill="none" stroke="black" paint-order="fill stroke markers" d=" M 368.55207320904947 214.37231797366667 L 380.8034756840495 221.178652682 L 368.55207320904947 227.98498739033334" stroke-miterlimit="10" stroke-width="1.3612669416666667"/></g></g><g><text fill="black" stroke="none" font-family="sans-serif" font-size="11pt" font-style="normal" font-weight="normal" text-decoration="normal" x="420.28021699238286" y="260.383140602" text-anchor="start" dominant-baseline="alphabetic" xml:space="preserve">User data</text></g><g><path fill="none" stroke="black" paint-order="fill stroke markers" d=" M 398.49994592571613 266.917221922 L 502.89555610442716 266.917221922" stroke-miterlimit="10" stroke-width="1.3612669416666667" stroke-dasharray=""/><g transform="translate(505.61808998776047,266.917221922) translate(-505.61808998776047,-266.917221922)"><path fill="none" stroke="black" paint-order="fill stroke markers" d=" M 492.0054205710938 260.1108872136667 L 504.2568230460938 266.917221922 L 492.0054205710938 273.72355663033335" stroke-miterlimit="10" stroke-width="1.3612669416666667"/></g></g><g><text fill="black" stroke="none" font-family="sans-serif" font-size="11pt" font-style="normal" font-weight="normal" text-decoration="normal" x="178.47873991334637" y="306.121709842" text-anchor="start" dominant-baseline="alphabetic" xml:space="preserve">Event received</text></g><g><path fill="none" stroke="black" paint-order="fill stroke markers" d=" M 382.16474262571614 312.655791162 L 74.48730172395832 312.655791162" stroke-miterlimit="10" stroke-width="1.3612669416666667" stroke-dasharray="6.53408132"/><g transform="translate(71.764767840625,312.655791162) translate(-71.764767840625,-312.655791162)"><path fill="none" stroke="black" paint-order="fill stroke markers" d=" M 85.37743725729167 305.8494564536667 L 73.12603478229167 312.655791162 L 85.37743725729167 319.46212587033335" stroke-miterlimit="10" stroke-width="1.3612669416666667"/></g></g><g><text fill="black" stroke="none" font-family="sans-serif" font-size="11pt" font-style="normal" font-weight="normal" text-decoration="normal" x="543.7335643544271" y="351.860279082" text-anchor="start" dominant-baseline="alphabetic" xml:space="preserve">Create user</text></g><g><path fill="none" stroke="black" paint-order="fill stroke markers" d=" M 521.9532932877605 358.394360402 L 639.383968163737 358.394360402" stroke-miterlimit="10" stroke-width="1.3612669416666667" stroke-dasharray=""/><g transform="translate(642.1065020470703,358.394360402) translate(-642.1065020470703,-358.394360402)"><path fill="black" stroke="none" paint-order="stroke fill markers" d=" M 628.4938326304036 351.5880256936667 L 642.1065020470703 358.394360402 L 628.4938326304036 365.20069511033336 Z"/></g></g><g><text fill="black" stroke="none" font-family="sans-serif" font-size="11pt" font-style="normal" font-weight="normal" text-decoration="normal" x="739.7208777809245" y="397.598848322" text-anchor="start" dominant-baseline="alphabetic" xml:space="preserve">Create user</text></g><g><path fill="none" stroke="black" paint-order="fill stroke markers" d=" M 658.4417053470704 404.132929642 L 894.8701829574219 404.132929642" stroke-miterlimit="10" stroke-width="1.3612669416666667" stroke-dasharray=""/><g transform="translate(897.5927168407552,404.132929642) translate(-897.5927168407552,-404.132929642)"><path fill="black" stroke="none" paint-order="stroke fill markers" d=" M 883.9800474240885 397.3265949336667 L 897.5927168407552 404.132929642 L 883.9800474240885 410.93926435033336 Z"/></g></g><g><text fill="black" stroke="none" font-family="sans-serif" font-size="11pt" font-style="normal" font-weight="normal" text-decoration="normal" x="680.221976413737" y="443.337417562" text-anchor="start" dominant-baseline="alphabetic" xml:space="preserve">Return user and load in cache</text></g><g><path fill="none" stroke="black" paint-order="fill stroke markers" d=" M 897.5927168407552 449.871498882 L 661.1642392304037 449.871498882" stroke-miterlimit="10" stroke-width="1.3612669416666667" stroke-dasharray="6.53408132"/><g transform="translate(658.4417053470704,449.871498882) translate(-658.4417053470704,-449.871498882)"><path fill="black" stroke="none" paint-order="stroke fill markers" d=" M 672.0543747637371 443.0651641736667 L 658.4417053470704 449.871498882 L 672.0543747637371 456.67783359033336 Z"/></g></g><g><text fill="black" stroke="none" font-family="sans-serif" font-size="11pt" font-style="normal" font-weight="normal" text-decoration="normal" x="543.7335643544271" y="489.075986802" text-anchor="start" dominant-baseline="alphabetic" xml:space="preserve">Return user</text></g><g><path fill="none" stroke="black" paint-order="fill stroke markers" d=" M 642.1065020470703 495.61006812200003 L 524.6758271710938 495.61006812200003" stroke-miterlimit="10" stroke-width="1.3612669416666667" stroke-dasharray="6.53408132"/><g transform="translate(521.9532932877605,495.61006812200003) translate(-521.9532932877605,-495.61006812200003)"><path fill="black" stroke="none" paint-order="stroke fill markers" d=" M 535.5659627044272 488.8037334136667 L 521.9532932877605 495.61006812200003 L 535.5659627044272 502.41640283033337 Z"/></g></g></g><g/><g/><g/><g/><g/></g></svg>