<svg version="1.1" xmlns="http://www.w3.org/2000/svg" xmlns:xlink="http://www.w3.org/1999/xlink" width="1181" height="552"><defs/><g><g/><g/><g/><g/><g/><g/><g/><g/><g/><g><rect fill="white" stroke="none" x="0" y="0" width="1181" height="552"/></g><g><text fill="black" stroke="none" font-family="sans-serif" font-size="16.5pt" font-style="normal" font-weight="normal" text-decoration="normal" x="487.8889092718424" y="24.50280495" text-anchor="start" dominant-baseline="alphabetic" xml:space="preserve">User Joined Channel</text></g><g><g><path fill="#9F5F9F" stroke="black" paint-order="fill stroke markers" d=" M 8.167601650000003 58.5617038305 L 119.02673073125 58.5617038305 L 119.02673073125 518.4793527420001 L 8.167601650000003 518.4793527420001 L 8.167601650000003 58.5617038305" stroke-miterlimit="10" stroke-width="1.3612669416666667" stroke-dasharray=""/></g><g><text fill="black" stroke="none" font-family="sans-serif" font-size="11pt" font-style="normal" font-weight="bold" text-decoration="normal" x="44.441839347363285" y="81.43098845050001" text-anchor="start" dominant-baseline="alphabetic" xml:space="preserve">Slack</text></g><g><path fill="none" stroke="black" paint-order="fill stroke markers" d=" M 276.67087665891927 50.394102180500006 L 1173.0652950186848 50.394102180500006 L 1173.0652950186848 518.4793527420001 L 276.67087665891927 518.4793527420001 L 276.67087665891927 50.394102180500006" stroke-miterlimit="10" stroke-width="1.3612669416666667" stroke-dasharray=""/></g><g><text fill="black" stroke="none" font-family="sans-serif" font-size="11pt" font-style="normal" font-weight="bold" text-decoration="normal" x="643.7800578847005" y="73.2633868005" text-anchor="start" dominant-baseline="alphabetic" xml:space="preserve">Service Provider Slack </text></g></g><g><path fill="none" stroke="black" paint-order="fill stroke markers" d=" M 63.597166190625 167.272481792 L 63.597166190625 552.783279672" stroke-miterlimit="10" stroke-width="1.3612669416666667" stroke-dasharray="12.565541,5.445067766666667"/><path fill="none" stroke="black" paint-order="fill stroke markers" d=" M 346.7783281624349 167.272481792 L 346.7783281624349 552.783279672" stroke-miterlimit="10" stroke-width="1.3612669416666667" stroke-dasharray="12.565541,5.445067766666667"/><path fill="none" stroke="black" paint-order="fill stroke markers" d=" M 543.5745405147135 167.272481792 L 543.5745405147135 552.783279672" stroke-miterlimit="10" stroke-width="1.3612669416666667" stroke-dasharray="12.565541,5.445067766666667"/><path fill="none" stroke="black" paint-order="fill stroke markers" d=" M 931.8380837996093 167.272481792 L 931.8380837996093 552.783279672" stroke-miterlimit="10" stroke-width="1.3612669416666667" stroke-dasharray="12.565541,5.445067766666667"/><path fill="none" stroke="black" paint-order="fill stroke markers" d=" M 1124.5541112153644 167.272481792 L 1124.5541112153644 552.783279672" stroke-miterlimit="10" stroke-width="1.3612669416666667" stroke-dasharray="12.565541,5.445067766666667"/></g><g><g><path fill="white" stroke="black" paint-order="fill stroke markers" d=" M 96.022544741125 120.39044832100001 A 24.2577769005 24.2577769005 0 1 1 96.02253261223755 120.36619054814246 M 32.560279920625 94.74417914 L 32.560279920625 146.03671750200002 M 31.171787640124997 120.39044832100001 L 47.506990940125 120.39044832100001" stroke-miterlimit="10" stroke-width="2.7769845610000004" stroke-dasharray=""/></g><g><g/><text fill="black" stroke="none" font-family="sans-serif" font-size="11pt" font-style="normal" font-weight="normal" text-decoration="normal" x="16.335203300000003" y="162.371920802" text-anchor="start" dominant-baseline="alphabetic" xml:space="preserve">SlackEventApi</text></g><g><path fill="white" stroke="black" paint-order="fill stroke markers" d=" M 379.2037067129349 120.39044832100001 A 24.2577769005 24.2577769005 0 1 1 379.20369458404747 120.36619054814246 M 315.74144189243486 94.74417914 L 315.74144189243486 146.03671750200002 M 314.3529496119349 120.39044832100001 L 330.6881529119349 120.39044832100001" stroke-miterlimit="10" stroke-width="2.7769845610000004" stroke-dasharray=""/></g><g><g/><text fill="black" stroke="none" font-family="sans-serif" font-size="11pt" font-style="normal" font-weight="normal" text-decoration="normal" x="284.83847830891926" y="162.371920802" text-anchor="start" dominant-baseline="alphabetic" xml:space="preserve">SpChannelHandler</text></g><g><path fill="white" stroke="black" paint-order="fill stroke markers" d=" M 567.8323174152134 120.39044832100001 A 24.2577769005 24.2577769005 0 1 1 567.832305286326 120.36619054814246 M 540.3074998547135 96.1326714205 L 550.1086218347134 87.96506977050001 M 540.3074998547135 96.1326714205 L 550.1086218347134 104.3002730705" stroke-miterlimit="10" stroke-width="2.7769845610000004" stroke-dasharray=""/></g><g><g/><text fill="black" stroke="none" font-family="sans-serif" font-size="11pt" font-style="normal" font-weight="normal" text-decoration="normal" x="482.86232890582676" y="162.371920802" text-anchor="start" dominant-baseline="alphabetic" xml:space="preserve">SpChannelService</text></g><g><path fill="white" stroke="black" paint-order="fill stroke markers" d=" M 956.0958607001093 118.16886067220001 A 24.2577769005 24.2577769005 0 1 1 956.0958485712218 118.14460289934246 M 906.1918146186093 144.6482252215 L 954.7073684196092 144.6482252215" stroke-miterlimit="10" stroke-width="2.7769845610000004" stroke-dasharray=""/></g><g><g/><text fill="black" stroke="none" font-family="sans-serif" font-size="11pt" font-style="normal" font-weight="normal" text-decoration="normal" x="901.6841912825195" y="162.371920802" text-anchor="start" dominant-baseline="alphabetic" xml:space="preserve">SpCache</text></g><g><path fill="white" stroke="black" paint-order="fill stroke markers" d=" M 1100.7047143973643 135.255483324 L 1100.7047143973643 100.95155639400002 L 1148.4035080333645 100.95155639400002 L 1148.4035080333645 135.255483324" stroke-miterlimit="10" stroke-width="2.7769845610000004" stroke-dasharray=""/><path fill="white" stroke="black" paint-order="fill stroke markers" d=" M 1148.4035080333645 99.75908655310002 L 1148.4023155734608 99.86689709801664 L 1148.3987383129947 99.97469686196861 L 1148.3927766096892 100.08247506506937 L 1148.38443105971 100.19022092958842 L 1148.3737024976049 100.2979236810291 L 1148.360591996221 100.40557254920603 L 1148.3451008665977 100.51315676932207 L 1148.3272306578351 100.62066558304487 L 1148.3069831569392 100.72808823958268 L 1148.2843603886429 100.83541399675931 L 1148.2593646152045 100.94263212208854 L 1148.2319983361806 101.04973189384714 L 1148.202264288176 101.1567026021472 L 1148.1701654445708 101.26353355000704 L 1148.1357050152226 101.37021405442088 L 1148.0988864461458 101.4767334474272 L 1148.0597134191667 101.58308107717545 L 1148.0181898515548 101.68924630899127 L 1147.9743198956328 101.79521852643998 L 1147.9281079383595 101.90098713238812 L 1147.879558600892 102.00654155006325 L 1147.8286767381242 102.11187122411154 L 1147.775467438199 102.21696562165339 L 1147.719936022003 102.32181423333661 L 1147.662088042631 102.4264065743874 L 1147.6019292848327 102.53073218565882 L 1147.539465764434 102.63478063467669 L 1147.474703727735 102.7385415166828 L 1147.4076496508849 102.84200445567542 L 1147.3383102392359 102.94515910544688 L 1147.2666924266714 103.04799515061815 L 1147.1928033749127 103.15050230767042 L 1147.1166504728035 103.2526703259734 L 1147.0382413355708 103.3544889888104 L 1146.9575838040628 103.4559481144 L 1146.8746859439652 103.55703755691417 L 1146.7895560449954 103.6577472074929 L 1146.702202620072 103.75806699525508 L 1146.6126344044649 103.8579868883055 L 1146.5208603549206 103.95749689473814 L 1146.4268896487683 104.05658706363529 L 1146.3307316829998 104.15524748606262 L 1146.2323960733315 104.25346829606012 L 1146.1318926532429 104.35123967162862 L 1146.0292314729916 104.44855183571204 L 1145.9244227986105 104.54539505717509 L 1145.8174771108797 104.6417596517763 L 1145.7084051042789 104.73763598313651 L 1145.5972176859175 104.83301446370251 L 1145.483925974445 104.92788555570571 L 1145.368541298938 105.02223977211597 L 1145.251075197768 105.11606767759027 L 1145.1315394174471 105.20935988941625 L 1145.0099459114538 105.30210707845049 L 1144.8863068390374 105.39429997005135 L 1144.760634564002 105.48592934500653 L 1144.6329416534704 105.57698604045486 L 1144.5032408766276 105.66746095080268 L 1144.3715452034426 105.75734502863436 L 1144.2378678033733 105.84662928561703 L 1144.1022220440484 105.93530479339938 L 1143.9646214899306 106.02336268450453 L 1143.8250799009606 106.11079415321676 L 1143.6836112311814 106.19759045646204 L 1143.5402296273417 106.28374291468239 L 1143.3949494274823 106.36924291270377 L 1143.2477851595027 106.45408190059764 L 1143.0987515397064 106.5382513945359 L 1142.9478634713316 106.62174297763931 L 1142.7951360430593 106.70454830081913 L 1142.6405845275049 106.78665908361204 L 1142.4842243796913 106.86806711500819 L 1142.3260712355032 106.94876425427228 L 1142.166140910123 107.02874243175762 L 1142.0044493964497 107.10799364971314 L 1141.8410128635003 107.18650998308306 L 1141.6758476547918 107.26428358029946 L 1141.5089702867076 107.34130666406747 L 1141.3403974468451 107.41757153214289 L 1141.170145992348 107.49307055810243 L 1140.9982329482198 107.56779619210644 L 1140.8246755056218 107.6417409616538 L 1140.6494910201534 107.71489747232916 L 1140.4726970101174 107.7872584085424 L 1140.2943111547672 107.85881653426023 L 1140.11435129254 107.9295646937297 L 1139.932835419272 107.9994958121938 L 1139.749781686399 108.06860289659899 L 1139.565208399142 108.1368790362944 L 1139.3791340146759 108.20431740372297 L 1139.191577140284 108.27091125510412 L 1139.0025565314972 108.33665393110826 L 1138.8120910902194 108.40153885752254 L 1138.6201998628355 108.46555954590839 L 1138.4269020383088 108.52870959425034 L 1138.2322169462602 108.59098268759617 L 1138.036164055037 108.65237259868843 L 1137.838762969765 108.71287318858718 L 1137.6400334303878 108.77247840728386 L 1137.439995309694 108.83118229430623 L 1137.238668611329 108.88897897931456 L 1137.036073467795 108.94586268268847 L 1136.8322301384374 109.00182771610504 L 1136.6271590074189 109.05686848310758 L 1136.4208805816822 109.11097947966525 L 1136.213415488898 109.16415529472346 L 1136.0047844754022 109.21639061074505 L 1135.7950084041227 109.26768020424194 L 1135.5841082524917 109.31801894629751 L 1135.3721051103487 109.36740180307952 L 1135.159020177831 109.41582383634344 L 1134.9448747632546 109.46328020392627 L 1134.7296902809824 109.50976616023082 L 1134.5134882492832 109.55527705670022 L 1134.29629028818 109.5998083422827 L 1134.0781181172879 109.64335556388684 L 1133.8589935536424 109.68591436682678 L 1133.6389385095172 109.72748049525767 L 1133.417974990233 109.7680497926013 L 1133.196125091958 109.80761820196176 L 1132.973410999497 109.84618176653109 L 1132.7498549840736 109.88373662998495 L 1132.525479401103 109.92027903686831 L 1132.3003066879567 109.95580533297093 L 1132.0743593617183 109.99031196569278 L 1131.8476600169322 110.02379548439939 L 1131.6202313233437 110.05625254076675 L 1131.392096023633 110.08767988911629 L 1131.1632769311395 110.11807438673935 L 1130.9337969275823 110.14743299421153 L 1130.7036789607703 110.17575277569651 L 1130.4729460423082 110.20303089923975 L 1130.2416212452958 110.22926463705164 L 1130.00972770202 110.25445136578027 L 1129.7772886016419 110.27858856677372 L 1129.5443271878778 110.30167382633203 L 1129.3108667566748 110.32370483594849 L 1129.0769306538818 110.34467939254047 L 1128.842542272914 110.3645953986698 L 1128.607725052414 110.38345086275248 L 1128.3725024739083 110.40124389925779 L 1128.1368980594586 110.41797272889693 L 1127.9009353693104 110.43363567880087 L 1127.6646379995357 110.44823118268765 L 1127.4280295796746 110.46175778101907 L 1127.191133770372 110.47421412114657 L 1126.9539742610116 110.4855989574465 L 1126.7165747673464 110.49591115144473 L 1126.478959029128 110.50514967193044 L 1126.2411508077323 110.5133135950593 L 1126.0031738837833 110.5204021044458 L 1125.765052054775 110.52641449124488 L 1125.5268091326916 110.53135015422289 L 1125.2884689416273 110.53520859981765 L 1125.0500553154022 110.53798944218781 L 1124.8115920951807 110.53969240325145 L 1124.5731031270855 110.54031731271388 L 1124.334612259815 110.53986410808467 L 1124.0961433422572 110.53833283468393 L 1123.857720221105 110.5357236456377 L 1123.6193667384719 110.53203680186272 L 1123.3811067295076 110.52727267204028 L 1123.1429640200142 110.52143173257942 L 1122.9049624240645 110.5145145675692 L 1122.6671257416197 110.50652186872036 L 1122.4294777561497 110.4974544352961 L 1122.1920422322553 110.48731317403227 L 1121.9548429132906 110.47609909904648 L 1121.7179035189902 110.46381333173692 L 1121.4812477430958 110.45045710067006 L 1121.244899250988 110.4360317414579 L 1121.008881677319 110.42053869662433 L 1120.7732186236494 110.40397951546092 L 1120.5379336560884 110.38635585387198 L 1120.3030503029363 110.367669474209 L 1120.068592052333 110.34792224509437 L 1119.834582349908 110.32711614123453 L 1119.6010445964369 110.30525324322254 L 1119.3680021454998 110.28233573732997 L 1119.1354783011482 110.25836591528834 L 1118.9034963155723 110.23334617405986 L 1118.6720793867776 110.2072790155978 L 1118.4412506562642 110.18016704659628 L 1118.2110332067125 110.15201297822964 L 1117.981450059676 110.1228196258812 L 1117.7525241732778 110.09258990886192 L 1117.5242784399159 110.06132685011828 L 1117.296735683973 110.0290335759301 L 1117.069918659536 109.99571331559791 L 1116.8438500481172 109.96136940111997 L 1116.6185524563903 109.9260052668591 L 1116.3940484139264 109.88962444919923 L 1116.1703603709425 109.85223058619187 L 1115.9475106960565 109.81382741719212 L 1115.7255216740505 109.77441878248487 L 1115.5044155036412 109.73400862290077 L 1115.284214295262 109.6926009794221 L 1115.0649400688496 109.6501999927787 L 1114.8466147516444 109.60680990303389 L 1114.6292601759963 109.56243504916051 L 1114.4128980771811 109.51707986860694 L 1114.1975500912288 109.47074889685346 L 1113.9832377527584 109.42344676695863 L 1113.7699824928254 109.37517820909602 L 1113.5578056367779 109.3259480500812 L 1113.3467284021247 109.27576121288904 L 1113.1367718964134 109.22462271616142 L 1112.9279571151194 109.17253767370543 L 1112.720304939547 109.1195112939819 L 1112.5138361347408 109.0655488795846 L 1112.3085713474093 109.01065582671 L 1112.1045311038597 108.95483762461768 L 1111.9017358079468 108.89809985508128 L 1111.7002057390312 108.84044819183053 L 1111.4999610499513 108.78188839998367 L 1111.3010217650099 108.7224263354711 L 1111.103407777969 108.66206794444972 L 1110.9071388500631 108.60081926270831 L 1110.7122346080214 108.53868641506405 L 1110.5187145421053 108.47567561474989 L 1110.3265980041606 108.41179316279337 L 1110.1359042056808 108.34704544738645 L 1109.9466522158868 108.2814389432467 L 1109.75886095982 108.21498021096988 L 1109.5725492164493 108.14767589637383 L 1109.3877356167939 108.07953272983391 L 1109.2044386420598 108.01055752561001 L 1109.0226766217916 107.94075718116505 L 1108.84246773204 107.87013867647532 L 1108.6638299935437 107.79870907333245 L 1108.4867812699279 107.72647551463722 L 1108.311339265917 107.6534452236853 L 1108.1375215255655 107.57962550344493 L 1107.9653454305026 107.50502373582663 L 1107.7948281981944 107.42964738094497 L 1107.6259868802217 107.35350397637264 L 1107.4588383605758 107.27660113638665 L 1107.2933993539693 107.1989465512069 L 1107.1296864041653 107.12054798622721 L 1106.967715882322 107.04141328123873 L 1106.8075039853566 106.96155034964602 L 1106.6490667343255 106.8809671776757 L 1106.4924199728218 106.7996718235778 L 1106.3375793653909 106.71767241681998 L 1106.1845603959646 106.63497715727459 L 1106.0333783663123 106.55159431439867 L 1105.884048394511 106.46753222640703 L 1105.7365854134334 106.38279929943842 L 1105.591004169255 106.29740400671491 L 1105.4473192199785 106.21135488769461 L 1105.3055449339793 106.12466054721774 L 1105.1656954885677 106.03732965464607 L 1105.027784868572 105.94937094299611 L 1104.891826864939 105.8607932080657 L 1104.757835073356 105.77160530755455 L 1104.6258228928903 105.68181616017836 L 1104.49580352465 105.59143474477705 L 1104.3677899704635 105.50047009941686 L 1104.2417950315796 105.40893132048649 L 1104.1178313073872 105.31682756178758 L 1103.9959111941555 105.22416803361924 L 1103.876046883794 105.13096200185706 L 1103.758250362634 105.03721878702656 L 1103.6425334102296 104.94294776337108 L 1103.5289075981796 104.84815835791446 L 1103.41738428897 104.75286004951823 L 1103.3079746348394 104.65706236793383 L 1103.2006895766617 104.56077489284957 L 1103.0955398428534 104.46400725293273 L 1102.9925359483004 104.36676912486666 L 1102.8916881933062 104.26907023238314 L 1102.793006662562 104.17092034529 L 1102.6965012241392 104.07232927849415 L 1102.6021815285005 103.97330689102013 L 1102.5100570075376 103.87386308502415 L 1102.4201368736253 103.77400780480394 L 1102.3324301187024 103.67375103580433 L 1102.2469455133712 103.57310280361865 L 1102.1636916060208 103.47207317298626 L 1102.082676721973 103.37067224678601 L 1102.0039089626482 103.26891016502606 L 1101.9273962047569 103.16679710382974 L 1101.8531460995112 103.0643432744181 L 1101.7811660718594 102.96155892208871 L 1101.7114633197448 102.85845432519113 L 1101.6440448133842 102.75503979409915 L 1101.5789172945722 102.65132567017969 L 1101.5160872760064 102.5473223247587 L 1101.4555610406362 102.44304015808407 L 1101.3973446410348 102.33848959828556 L 1101.3414438987934 102.23368110033203 L 1101.28786440394 102.12862514498595 L 1101.2366115143793 102.02333223775527 L 1101.1876903553573 101.91781290784299 L 1101.1411058189497 101.81207770709416 L 1101.0968625635705 101.70613720894077 L 1101.0549650135092 101.60000200734433 L 1101.0154173584854 101.49368271573654 L 1100.9782235532318 101.387189965958 L 1100.9433873170979 101.2805344071949 L 1100.9109121336783 101.17372670491429 L 1100.8808012504642 101.06677753979733 L 1100.853057678519 100.95969760667145 L 1100.8276841921765 100.85249761344073 L 1100.8046833287647 100.74518828001514 L 1100.7840573883502 100.63778033723861 L 1100.76580843351 100.5302845258159 L 1100.7499382891247 100.42271159523858 L 1100.7364485421951 100.31507230271008 L 1100.725340541685 100.20737741206993 L 1100.7166153983849 100.09963769271747 L 1100.710273984802 99.99186391853482 L 1100.7063169350722 99.88406686680962 L 1100.7047446448976 99.77625731715719 L 1100.7055572715055 99.66844605044267 L 1100.7087547336341 99.56064384770288 L 1100.7143367115398 99.45286148906825 L 1100.7223026470294 99.34510975268485 L 1100.7326517435163 99.23739941363651 L 1100.745382966099 99.12974124286738 L 1100.7604950416662 99.02214600610482 L 1100.7779864590227 98.91462446278284 L 1100.7978554690415 98.80718736496618 L 1100.8201000848383 98.69984545627509 L 1100.8447180819696 98.59260947081098 L 1100.8717069986567 98.48549013208303 L 1100.90106413603 98.37849815193587 L 1100.9327865584005 98.27164422947833 L 1100.9668710935523 98.16493905001363 L 1101.0033143330604 98.05839328397077 L 1101.0421126326312 97.9520175858376 L 1101.0832621124669 97.84582259309526 L 1101.126758657654 97.73981892515455 L 1101.172597918574 97.6340171822939 L 1101.2207753113391 97.52842794459946 L 1101.2712860182503 97.423061770907 L 1101.324124988279 97.31792919774607 L 1101.379286937572 97.21304073828638 L 1101.4367663499806 97.10840688128647 L 1101.4965574776115 97.00403809004486 L 1101.5586543414015 96.89994480135368 L 1101.623050731716 96.79613742445507 L 1101.6897402089696 96.6926263400002 L 1101.7587161042704 96.58942189901128 L 1101.8299715200862 96.48653442184639 L 1101.903499330935 96.38397419716749 L 1101.9792921840965 96.28175148091161 L 1102.057342500349 96.17987649526519 L 1102.1376424747257 96.07835942764187 L 1102.2201840772962 95.97721042966384 L 1102.304959053969 95.8764396161466 L 1102.3919589273169 95.77605706408754 L 1102.4811749974253 95.67607281165819 L 1102.5725983427612 95.57649685720048 L 1102.6662198210668 95.47733915822688 L 1102.762030070272 95.37860963042466 L 1102.8600195094316 95.28031814666433 L 1102.9601783396834 95.18247453601234 L 1103.0624965452278 95.08508858274823 L 1103.1669638943297 94.98817002538617 L 1103.273569940341 94.89172855570112 L 1103.3823040227464 94.79577381775971 L 1103.4931552682278 94.70031540695574 L 1103.6061125917531 94.60536286905077 L 1103.7211646976841 94.51092569921943 L 1103.8383000809063 94.41701334110004 L 1103.9575070279789 94.32363518585014 L 1104.0787736183063 94.23080057120742 L 1104.2020877253306 94.13851878055601 L 1104.3274370177442 94.04679904199807 L 1104.4548089607217 93.955650527431 L 1104.5841908171756 93.86508235163033 L 1104.7155696490277 93.77510357133815 L 1104.8489323185042 93.68572318435751 L 1104.9842654894496 93.59695012865262 L 1105.1215556286595 93.5087932814551 L 1105.2607890072343 93.42126145837616 L 1105.4019517019522 93.33436341252519 L 1105.5450295966614 93.24810783363438 L 1105.6900083836915 93.1625033471897 L 1105.8368735652848 93.07755851356848 L 1105.9856104550454 92.9932818271833 L 1106.1362041794084 92.90968171563254 L 1106.2886396791266 92.82676653885773 L 1106.4429017107775 92.74454458830742 L 1106.5989748482862 92.66302408610815 L 1106.756843484469 92.58221318424222 L 1106.916491832594 92.50211996373247 L 1107.0779039279591 92.4227524338342 L 1107.2410636294894 92.34411853123427 L 1107.4059546213512 92.26622611925741 L 1107.572560414582 92.1890829870799 L 1107.7408643487418 92.11269684895069 L 1107.910849593577 92.0370753434199 L 1108.0824991507054 91.9622260325751 L 1108.2557958553136 91.888156401285 L 1108.4307223778762 91.81487385645099 L 1108.6072612258863 91.74238572626649 L 1108.7853947456065 91.67069925948411 L 1108.965105123833 91.59982162469079 L 1109.146374389678 91.52975990959095 L 1109.3291844163657 91.4605211202977 L 1109.513516923046 91.3921121806323 L 1109.6993534766216 91.32453993143167 L 1109.886675493592 91.25781112986445 L 1110.0754642419122 91.1919324487552 L 1110.265700842864 91.12691047591709 L 1110.457366272946 91.06275171349324 L 1110.6504413657751 90.99946257730645 L 1110.8449068140028 90.93704939621756 L 1111.0407431712463 90.87551841149269 L 1111.2379308540333 90.81487577617904 L 1111.4364501437594 90.75512755448958 L 1111.6362811886613 90.69627972119672 L 1111.8374040058013 90.63833816103474 L 1112.039798483065 90.58130866811136 L 1112.243444381173 90.52519694532836 L 1112.448321335706 90.47000860381125 L 1112.6544088591386 90.41574916234819 L 1112.8616863428906 90.36242404683813 L 1113.070133059386 90.31003858974816 L 1113.2797281641272 90.25859802958036 L 1113.4904506977782 90.20810751034786 L 1113.7022795882613 90.1585720810605 L 1113.9151936528638 90.10999669521995 L 1114.1291716003568 90.0623862103243 L 1114.344192033124 90.01574538738238 L 1114.5602334493012 89.9700788904376 L 1114.777274244927 89.92539128610161 L 1114.995292716102 89.88168704309761 L 1115.2142670611618 89.83897053181346 L 1115.4341753828535 89.79724602386472 L 1115.6549956905287 89.75651769166738 L 1115.8767059023403 89.71678960802075 L 1116.0992838474522 89.67806574570005 L 1116.3227072682553 89.64034997705929 L 1116.5469538225934 89.60364607364387 L 1116.7720010859985 89.56795770581357 L 1116.9978265539312 89.53328844237541 L 1117.2244076440331 89.49964175022686 L 1117.4517216983843 89.46702099400908 L 1117.6797459857685 89.43542943577052 L 1117.9084577039469 89.40487023464067 L 1118.1378339819385 89.37534644651419 L 1118.3678518823065 89.34686102374526 L 1118.5984884034526 89.31941681485246 L 1118.829720481917 89.29301656423378 L 1119.0615249946845 89.2676629118923 L 1119.293878761497 89.2433583931721 L 1119.526758547171 89.22010543850483 L 1119.7601410639227 89.19790637316656 L 1119.9940029736943 89.17676341704532 L 1120.22832089049 89.15667868441913 L 1120.4630713827137 89.13765418374449 L 1120.6982309755113 89.11969181745562 L 1120.9337761531197 89.10279338177418 L 1121.1696833612173 89.08696056652965 L 1121.40592900928 89.0721949549904 L 1121.6424894729398 89.05849802370521 L 1121.8793410963476 89.04587114235585 L 1122.1164601945381 89.03431557361992 L 1122.3538230557997 89.02383247304465 L 1122.5914059440433 89.01442288893136 L 1122.8291851011788 89.00608776223065 L 1123.067136749488 88.99882792644821 L 1123.305237094005 88.9926441075616 L 1123.543462324893 88.98753692394752 L 1123.781788619828 88.9835068863201 L 1124.020192146379 88.98055439767974 L 1124.2586490643919 88.97867975327284 L 1124.4971355283737 88.97788314056228 L 1124.7356276898768 88.97816463920867 L 1124.9741016998837 88.97952422106238 L 1125.212533711192 88.98196175016635 L 1125.4508998807994 88.98547698276971 L 1125.6891763722879 88.99006956735212 L 1125.9273393582062 88.99573904465896 L 1126.1653650224548 89.00248484774721 L 1126.4032295626653 89.0103063020422 L 1126.640909192582 89.019202625405 L 1126.87838014444 89.0291729282107 L 1127.115618671342 89.04021621343732 L 1127.352601049633 89.05233137676555 L 1127.5893035812726 89.06551720668914 L 1127.8257025962048 89.0797723846361 L 1128.0617744547253 89.0950954851005 L 1128.297495549845 89.11148497578507 L 1128.5328423096507 89.12893921775441 L 1128.7677911996625 89.14745646559885 L 1129.0023187251875 89.16703486760905 L 1129.236401433668 89.18767246596111 L 1129.4700159170288 89.20936719691241 L 1129.703138814016 89.23211689100792 L 1129.935746812534 89.2559192732972 L 1130.167816651977 89.28077196356185 L 1130.3993251255547 89.30667247655354 L 1130.630249082612 89.33361822224259 L 1130.8605654309463 89.36160650607685 L 1131.0902511391141 89.39063452925127 L 1131.3192832387365 89.42069938898774 L 1131.5476388267941 89.45179807882532 L 1131.7752950679187 89.48392748892095 L 1132.0022291966754 89.5170844063604 L 1132.228418519841 89.55126551547954 L 1132.453840418671 89.58646739819596 L 1132.6784723511641 89.62268653435072 L 1132.9022918543137 89.65991930206037 L 1133.1252765463562 89.69816197807918 L 1133.3474041290083 89.73741073817143 L 1133.5686523896968 89.7776616574938 L 1133.78899920378 89.8189107109879 L 1134.0084225367598 89.86115377378276 L 1134.2269004464863 89.9043866216073 L 1134.44441108535 89.94860493121277 L 1134.660932702469 89.99380428080505 L 1134.8764436458614 90.03998015048685 L 1135.0909223646127 90.0871279227097 L 1135.3043474110295 90.13524288273562 L 1135.5166974427855 90.18432021910876 L 1135.727951225054 90.23435502413635 L 1135.9380876326334 90.28534229437957 L 1136.1470856520575 90.33727693115392 L 1136.3549243836985 90.39015374103897 L 1136.561583043857 90.44396743639781 L 1136.7670409668385 90.49871263590576 L 1136.9712776070226 90.55438386508847 L 1137.174272540915 90.6109755568694 L 1137.3760054691916 90.66848205212658 L 1137.5764562187276 90.72689760025837 L 1137.7756047446153 90.78621635975864 L 1137.973431132168 90.84643239880089 L 1138.1699155989115 90.90753969583137 L 1138.365038496563 90.96953214017132 L 1138.5587803129959 91.03240353262795 L 1138.7511216741893 91.09614758611443 L 1138.9420433461678 91.1607579262785 L 1139.131526236923 91.22622809214002 L 1139.319551398324 91.29255153673692 L 1139.506100028011 91.35972162778006 L 1139.6911534712767 91.42773164831627 L 1139.874693222931 91.49657479740019 L 1140.0567009291517 91.56624419077427 L 1140.2371583893196 91.63673286155725 L 1140.4160475578394 91.70803376094076 L 1140.5933505459434 91.78013975889431 L 1140.76904962348 91.85304364487818 L 1140.9431272206884 91.92673812856452 L 1141.1155659299536 92.00121584056639 L 1141.2863485075486 92.07646933317463 L 1141.455457875358 92.15249108110271 L 1141.6228771225856 92.22927348223918 L 1141.7885895074464 92.3068088584079 L 1141.9525784588402 92.3850894561359 L 1142.114827578008 92.4641074474286 L 1142.2753206401737 92.54385493055275 L 1142.4340415961644 92.62432393082648 L 1142.590974574017 92.70550640141681 L 1142.7461038805645 92.78739422414436 L 1142.8994140030052 92.86997921029509 L 1143.050889610455 92.95325310143917 L 1143.2005155554791 93.03720757025692 L 1143.348276875608 93.12183422137142 L 1143.4941587948324 93.20712459218805 L 1143.6381467250824 93.29307015374081 L 1143.7802262676846 93.3796623115452 L 1143.9203832148032 93.46689240645757 L 1144.0586035508604 93.55475171554113 L 1144.1948734539378 93.64323145293818 L 1144.3291792971586 93.73232277074871 L 1144.4615076500504 93.8220167599152 L 1144.591845279888 93.91230445111346 L 1144.7201791530174 94.00317681564962 L 1144.846496436158 94.09462476636294 L 1144.9707844976867 94.18663915853458 L 1145.0930309089013 94.27921079080198 L 1145.213223445262 94.37233040607906 L 1145.3313500876154 94.46598869248189 L 1145.4473990233962 94.56017628425988 L 1145.561358647807 94.65488376273235 L 1145.6732175649806 94.75010165723037 L 1145.7829645891186 94.84582044604385 L 1145.8905887456096 94.94203055737364 L 1145.996079272128 95.03872237028881 L 1146.0994256197093 95.13588621568863 L 1146.2006174538042 95.23351237726953 L 1146.299644655314 95.33159109249674 L 1146.3964973216011 95.43011255358043 L 1146.4911657674795 95.5290669084566 L 1146.5836405261834 95.62844426177223 L 1146.6739123503141 95.72823467587482 L 1146.7619722127645 95.82842817180608 L 1146.8478113076217 95.92901473029994 L 1146.9314210510474 96.02998429278436 L 1147.0127930821375 96.13132676238725 L 1147.0919192637564 96.23303200494607 L 1147.1687916833519 96.33508985002135 L 1147.243402653746 96.4374900919136 L 1147.315744713904 96.54022249068399 L 1147.3858106296802 96.64327677317824 L 1147.4535933945413 96.746642634054 L 1147.5190862302672 96.85030973681128 L 1147.5822825876292 96.95426771482623 L 1147.6431761470437 97.05850617238767 L 1147.7017608192064 97.1630146857367 L 1147.7580307456979 97.26778280410907 L 1147.8119802995732 97.37280005078027 L 1147.8636040859212 97.47805592411314 L 1147.912896942407 97.58353989860805 L 1147.9598539397855 97.68924142595546 L 1148.0044703823964 97.79514993609072 L 1148.0467418086325 97.90125483825108 L 1148.0866639913863 98.00754552203473 L 1148.124232938473 98.11401135846187 L 1148.159444893029 98.22064170103758 L 1148.1922963338884 98.32742588681647 L 1148.2227839759341 98.43435323746894 L 1148.250904770428 98.54141306034904 L 1148.2766559053134 98.64859464956368 L 1148.3000348054984 98.75588728704328 L 1148.321039133113 98.86328024361347 L 1148.339666787741 98.97076278006811 L 1148.3559159066333 99.07832414824313 L 1148.3697848648912 99.18595359209134 L 1148.3812722756304 99.29364034875802 L 1148.3903769901196 99.40137364965727 L 1148.3970980978947 99.50914272154878 L 1148.401434926851 99.61693678761516 L 1148.4033870433084 99.72474506853963 M 1148.4035080333645 134.0630134831 L 1148.4023155734608 134.17082402801663 L 1148.3987383129947 134.2786237919686 L 1148.3927766096892 134.38640199506935 L 1148.38443105971 134.49414785958842 L 1148.3737024976049 134.60185061102908 L 1148.360591996221 134.70949947920602 L 1148.3451008665977 134.81708369932204 L 1148.3272306578351 134.92459251304487 L 1148.3069831569392 135.03201516958265 L 1148.2843603886429 135.1393409267593 L 1148.2593646152045 135.24655905208851 L 1148.2319983361806 135.35365882384713 L 1148.202264288176 135.46062953214718 L 1148.1701654445708 135.56746048000701 L 1148.1357050152226 135.67414098442086 L 1148.0988864461458 135.78066037742718 L 1148.0597134191667 135.88700800717544 L 1148.0181898515548 135.99317323899126 L 1147.9743198956328 136.09914545643997 L 1147.9281079383595 136.2049140623881 L 1147.879558600892 136.31046848006324 L 1147.8286767381242 136.41579815411154 L 1147.775467438199 136.5208925516534 L 1147.719936022003 136.62574116333658 L 1147.662088042631 136.7303335043874 L 1147.6019292848327 136.8346591156588 L 1147.539465764434 136.9387075646767 L 1147.474703727735 137.0424684466828 L 1147.4076496508849 137.14593138567542 L 1147.3383102392359 137.24908603544688 L 1147.2666924266714 137.35192208061815 L 1147.1928033749127 137.4544292376704 L 1147.1166504728035 137.5565972559734 L 1147.0382413355708 137.6584159188104 L 1146.9575838040628 137.7598750444 L 1146.8746859439652 137.86096448691416 L 1146.7895560449954 137.96167413749288 L 1146.702202620072 138.06199392525505 L 1146.6126344044649 138.1619138183055 L 1146.5208603549206 138.26142382473813 L 1146.4268896487683 138.3605139936353 L 1146.3307316829998 138.4591744160626 L 1146.2323960733315 138.5573952260601 L 1146.1318926532429 138.6551666016286 L 1146.0292314729916 138.75247876571203 L 1145.9244227986105 138.84932198717507 L 1145.8174771108797 138.94568658177627 L 1145.7084051042789 139.04156291313652 L 1145.5972176859175 139.1369413937025 L 1145.483925974445 139.2318124857057 L 1145.368541298938 139.32616670211596 L 1145.251075197768 139.41999460759027 L 1145.1315394174471 139.51328681941624 L 1145.0099459114538 139.60603400845048 L 1144.8863068390374 139.69822690005134 L 1144.760634564002 139.7898562750065 L 1144.6329416534704 139.88091297045483 L 1144.5032408766276 139.97138788080267 L 1144.3715452034426 140.06127195863436 L 1144.2378678033733 140.15055621561703 L 1144.1022220440484 140.23923172339937 L 1143.9646214899306 140.3272896145045 L 1143.8250799009606 140.41472108321673 L 1143.6836112311814 140.501517386462 L 1143.5402296273417 140.58766984468238 L 1143.3949494274823 140.67316984270377 L 1143.2477851595027 140.75800883059765 L 1143.0987515397064 140.8421783245359 L 1142.9478634713316 140.9256699076393 L 1142.7951360430593 141.00847523081913 L 1142.6405845275049 141.09058601361204 L 1142.4842243796913 141.17199404500818 L 1142.3260712355032 141.25269118427227 L 1142.166140910123 141.3326693617576 L 1142.0044493964497 141.41192057971313 L 1141.8410128635003 141.49043691308304 L 1141.6758476547918 141.56821051029945 L 1141.5089702867076 141.64523359406746 L 1141.3403974468451 141.72149846214288 L 1141.170145992348 141.79699748810242 L 1140.9982329482198 141.87172312210643 L 1140.8246755056218 141.94566789165378 L 1140.6494910201534 142.01882440232913 L 1140.4726970101174 142.0911853385424 L 1140.2943111547672 142.16274346426022 L 1140.11435129254 142.2334916237297 L 1139.932835419272 142.3034227421938 L 1139.749781686399 142.372529826599 L 1139.565208399142 142.4408059662944 L 1139.3791340146759 142.50824433372296 L 1139.191577140284 142.5748381851041 L 1139.0025565314972 142.64058086110825 L 1138.8120910902194 142.70546578752254 L 1138.6201998628355 142.7694864759084 L 1138.4269020383088 142.83263652425032 L 1138.2322169462602 142.89490961759617 L 1138.036164055037 142.95629952868842 L 1137.838762969765 143.01680011858718 L 1137.6400334303878 143.07640533728383 L 1137.439995309694 143.13510922430623 L 1137.238668611329 143.19290590931453 L 1137.036073467795 143.24978961268846 L 1136.8322301384374 143.30575464610504 L 1136.6271590074189 143.36079541310758 L 1136.4208805816822 143.41490640966524 L 1136.213415488898 143.46808222472345 L 1136.0047844754022 143.52031754074505 L 1135.7950084041227 143.57160713424193 L 1135.5841082524917 143.6219458762975 L 1135.3721051103487 143.67132873307952 L 1135.159020177831 143.71975076634342 L 1134.9448747632546 143.76720713392626 L 1134.7296902809824 143.81369309023083 L 1134.5134882492832 143.8592039867002 L 1134.29629028818 143.9037352722827 L 1134.0781181172879 143.94728249388683 L 1133.8589935536424 143.98984129682677 L 1133.6389385095172 144.03140742525764 L 1133.417974990233 144.07197672260128 L 1133.196125091958 144.11154513196175 L 1132.973410999497 144.15010869653108 L 1132.7498549840736 144.18766355998494 L 1132.525479401103 144.2242059668683 L 1132.3003066879567 144.2597322629709 L 1132.0743593617183 144.29423889569279 L 1131.8476600169322 144.32772241439937 L 1131.6202313233437 144.36017947076672 L 1131.392096023633 144.39160681911628 L 1131.1632769311395 144.42200131673934 L 1130.9337969275823 144.45135992421152 L 1130.7036789607703 144.4796797056965 L 1130.4729460423082 144.50695782923975 L 1130.2416212452958 144.53319156705163 L 1130.00972770202 144.55837829578024 L 1129.7772886016419 144.5825154967737 L 1129.5443271878778 144.60560075633202 L 1129.3108667566748 144.62763176594848 L 1129.0769306538818 144.64860632254045 L 1128.842542272914 144.66852232866978 L 1128.607725052414 144.68737779275247 L 1128.3725024739083 144.70517082925778 L 1128.1368980594586 144.72189965889692 L 1127.9009353693104 144.73756260880086 L 1127.6646379995357 144.75215811268765 L 1127.4280295796746 144.76568471101908 L 1127.191133770372 144.77814105114655 L 1126.9539742610116 144.7895258874465 L 1126.7165747673464 144.7998380814447 L 1126.478959029128 144.80907660193043 L 1126.2411508077323 144.8172405250593 L 1126.0031738837833 144.82432903444578 L 1125.765052054775 144.83034142124487 L 1125.5268091326916 144.83527708422287 L 1125.2884689416273 144.83913552981764 L 1125.0500553154022 144.8419163721878 L 1124.8115920951807 144.84361933325144 L 1124.5731031270855 144.84424424271387 L 1124.334612259815 144.84379103808467 L 1124.0961433422572 144.84225976468392 L 1123.857720221105 144.83965057563768 L 1123.6193667384719 144.8359637318627 L 1123.3811067295076 144.83119960204027 L 1123.1429640200142 144.82535866257942 L 1122.9049624240645 144.81844149756918 L 1122.6671257416197 144.81044879872033 L 1122.4294777561497 144.8013813652961 L 1122.1920422322553 144.79124010403225 L 1121.9548429132906 144.78002602904647 L 1121.7179035189902 144.7677402617369 L 1121.4812477430958 144.75438403067005 L 1121.244899250988 144.73995867145788 L 1121.008881677319 144.72446562662432 L 1120.7732186236494 144.7079064454609 L 1120.5379336560884 144.69028278387196 L 1120.3030503029363 144.671596404209 L 1120.068592052333 144.65184917509436 L 1119.834582349908 144.6310430712345 L 1119.6010445964369 144.6091801732225 L 1119.3680021454998 144.58626266732998 L 1119.1354783011482 144.56229284528834 L 1118.9034963155723 144.53727310405984 L 1118.6720793867776 144.5112059455978 L 1118.4412506562642 144.48409397659628 L 1118.2110332067125 144.45593990822962 L 1117.981450059676 144.4267465558812 L 1117.7525241732778 144.3965168388619 L 1117.5242784399159 144.36525378011828 L 1117.296735683973 144.3329605059301 L 1117.069918659536 144.2996402455979 L 1116.8438500481172 144.26529633111994 L 1116.6185524563903 144.22993219685907 L 1116.3940484139264 144.19355137919922 L 1116.1703603709425 144.15615751619185 L 1115.9475106960565 144.1177543471921 L 1115.7255216740505 144.07834571248486 L 1115.5044155036412 144.03793555290076 L 1115.284214295262 143.9965279094221 L 1115.0649400688496 143.9541269227787 L 1114.8466147516444 143.9107368330339 L 1114.6292601759963 143.8663619791605 L 1114.4128980771811 143.82100679860693 L 1114.1975500912288 143.77467582685347 L 1113.9832377527584 143.72737369695864 L 1113.7699824928254 143.679105139096 L 1113.5578056367779 143.62987498008118 L 1113.3467284021247 143.579688142889 L 1113.1367718964134 143.52854964616142 L 1112.9279571151194 143.4764646037054 L 1112.720304939547 143.4234382239819 L 1112.5138361347408 143.36947580958457 L 1112.3085713474093 143.31458275671 L 1112.1045311038597 143.25876455461767 L 1111.9017358079468 143.20202678508127 L 1111.7002057390312 143.1443751218305 L 1111.4999610499513 143.08581532998366 L 1111.3010217650099 143.02635326547107 L 1111.103407777969 142.9659948744497 L 1110.9071388500631 142.9047461927083 L 1110.7122346080214 142.84261334506402 L 1110.5187145421053 142.77960254474988 L 1110.3265980041606 142.71572009279336 L 1110.1359042056808 142.65097237738644 L 1109.9466522158868 142.5853658732467 L 1109.75886095982 142.51890714096987 L 1109.5725492164493 142.4516028263738 L 1109.3877356167939 142.3834596598339 L 1109.2044386420598 142.31448445561 L 1109.0226766217916 142.24468411116504 L 1108.84246773204 142.17406560647532 L 1108.6638299935437 142.10263600333244 L 1108.4867812699279 142.03040244463722 L 1108.311339265917 141.9573721536853 L 1108.1375215255655 141.88355243344492 L 1107.9653454305026 141.80895066582661 L 1107.7948281981944 141.73357431094496 L 1107.6259868802217 141.65743090637264 L 1107.4588383605758 141.58052806638665 L 1107.2933993539693 141.5028734812069 L 1107.1296864041653 141.42447491622718 L 1106.967715882322 141.34534021123872 L 1106.8075039853566 141.265477279646 L 1106.6490667343255 141.1848941076757 L 1106.4924199728218 141.10359875357778 L 1106.3375793653909 141.02159934681995 L 1106.1845603959646 140.93890408727458 L 1106.0333783663123 140.85552124439866 L 1105.884048394511 140.77145915640702 L 1105.7365854134334 140.68672622943842 L 1105.591004169255 140.6013309367149 L 1105.4473192199785 140.5152818176946 L 1105.3055449339793 140.42858747721772 L 1105.1656954885677 140.34125658464606 L 1105.027784868572 140.2532978729961 L 1104.891826864939 140.1647201380657 L 1104.757835073356 140.07553223755454 L 1104.6258228928903 139.98574309017835 L 1104.49580352465 139.89536167477704 L 1104.3677899704635 139.80439702941683 L 1104.2417950315796 139.71285825048648 L 1104.1178313073872 139.62075449178758 L 1103.9959111941555 139.52809496361922 L 1103.876046883794 139.43488893185705 L 1103.758250362634 139.34114571702654 L 1103.6425334102296 139.24687469337107 L 1103.5289075981796 139.15208528791445 L 1103.41738428897 139.05678697951822 L 1103.3079746348394 138.96098929793382 L 1103.2006895766617 138.86470182284955 L 1103.0955398428534 138.76793418293272 L 1102.9925359483004 138.67069605486665 L 1102.8916881933062 138.57299716238313 L 1102.793006662562 138.47484727529 L 1102.6965012241392 138.37625620849414 L 1102.6021815285005 138.27723382102013 L 1102.5100570075376 138.17779001502413 L 1102.4201368736253 138.07793473480393 L 1102.3324301187024 137.9776779658043 L 1102.2469455133712 137.87702973361863 L 1102.1636916060208 137.77600010298625 L 1102.082676721973 137.67459917678602 L 1102.0039089626482 137.57283709502605 L 1101.9273962047569 137.47072403382973 L 1101.8531460995112 137.3682702044181 L 1101.7811660718594 137.26548585208872 L 1101.7114633197448 137.16238125519112 L 1101.6440448133842 137.05896672409915 L 1101.5789172945722 136.95525260017968 L 1101.5160872760064 136.8512492547587 L 1101.4555610406362 136.74696708808406 L 1101.3973446410348 136.64241652828557 L 1101.3414438987934 136.53760803033202 L 1101.28786440394 136.43255207498592 L 1101.2366115143793 136.32725916775524 L 1101.1876903553573 136.22173983784296 L 1101.1411058189497 136.11600463709416 L 1101.0968625635705 136.01006413894075 L 1101.0549650135092 135.90392893734432 L 1101.0154173584854 135.79760964573654 L 1100.9782235532318 135.69111689595798 L 1100.9433873170979 135.5844613371949 L 1100.9109121336783 135.47765363491428 L 1100.8808012504642 135.37070446979732 L 1100.853057678519 135.26362453667144 L 1100.8276841921765 135.15642454344072 L 1100.8046833287647 135.04911521001512 L 1100.7840573883502 134.9417072672386 L 1100.76580843351 134.83421145581588 L 1100.7499382891247 134.72663852523857 L 1100.7364485421951 134.61899923271008 L 1100.725340541685 134.5113043420699 L 1100.7166153983849 134.40356462271745 L 1100.710273984802 134.2957908485348 L 1100.7063169350722 134.1879937968096 L 1100.7047446448976 134.08018424715718" stroke-miterlimit="10" stroke-width="2.7769845610000004" stroke-dasharray=""/></g><g><g/><text fill="black" stroke="none" font-family="sans-serif" font-size="11pt" font-style="normal" font-weight="normal" text-decoration="normal" x="1084.210529062044" y="162.371920802" text-anchor="start" dominant-baseline="alphabetic" xml:space="preserve">SpDatabase</text></g></g><g><path fill="white" stroke="black" paint-order="fill stroke markers" d=" M 55.429564540625 175.440083442 L 71.764767840625 175.440083442 L 71.764767840625 536.4480763720001 L 55.429564540625 536.4480763720001 L 55.429564540625 175.440083442" stroke-miterlimit="10" stroke-width="1.3612669416666667" stroke-dasharray=""/><path fill="white" stroke="black" paint-order="fill stroke markers" d=" M 338.6107265124349 221.178652682 L 354.9459298124349 221.178652682 L 354.9459298124349 312.655791162 L 338.6107265124349 312.655791162 L 338.6107265124349 221.178652682" stroke-miterlimit="10" stroke-width="1.3612669416666667" stroke-dasharray=""/><path fill="white" stroke="black" paint-order="fill stroke markers" d=" M 535.4069388647134 266.917221922 L 551.7421421647135 266.917221922 L 551.7421421647135 495.61006812200003 L 535.4069388647134 495.61006812200003 L 535.4069388647134 266.917221922" stroke-miterlimit="10" stroke-width="1.3612669416666667" stroke-dasharray=""/><path fill="white" stroke="black" paint-order="fill stroke markers" d=" M 923.6704821496093 358.394360402 L 940.0056854496094 358.394360402 L 940.0056854496094 495.61006812200003 L 923.6704821496093 495.61006812200003 L 923.6704821496093 358.394360402" stroke-miterlimit="10" stroke-width="1.3612669416666667" stroke-dasharray=""/><path fill="white" stroke="black" paint-order="fill stroke markers" d=" M 1116.3865095653643 404.132929642 L 1132.7217128653645 404.132929642 L 1132.7217128653645 449.871498882 L 1116.3865095653643 449.871498882 L 1116.3865095653643 404.132929642" stroke-miterlimit="10" stroke-width="1.3612669416666667" stroke-dasharray=""/><g><text fill="black" stroke="none" font-family="sans-serif" font-size="11pt" font-style="normal" font-weight="normal" text-decoration="normal" x="120.4311630090495" y="214.644571362" text-anchor="start" dominant-baseline="alphabetic" xml:space="preserve">User joined channel event</text></g><g><path fill="none" stroke="black" paint-order="fill stroke markers" d=" M 71.764767840625 221.178652682 L 335.8881926291016 221.178652682" stroke-miterlimit="10" stroke-width="1.3612669416666667" stroke-dasharray=""/><g transform="translate(338.6107265124349,221.178652682) translate(-338.6107265124349,-221.178652682)"><path fill="none" stroke="black" paint-order="fill stroke markers" d=" M 324.9980570957682 214.37231797366667 L 337.24945957076824 221.178652682 L 324.9980570957682 227.98498739033334" stroke-miterlimit="10" stroke-width="1.3612669416666667"/></g></g><g><text fill="black" stroke="none" font-family="sans-serif" font-size="11pt" font-style="normal" font-weight="normal" text-decoration="normal" x="376.7262008791015" y="260.383140602" text-anchor="start" dominant-baseline="alphabetic" xml:space="preserve">User and Channel ID</text></g><g><path fill="none" stroke="black" paint-order="fill stroke markers" d=" M 354.9459298124349 266.917221922 L 532.6844049813801 266.917221922" stroke-miterlimit="10" stroke-width="1.3612669416666667" stroke-dasharray=""/><g transform="translate(535.4069388647134,266.917221922) translate(-535.4069388647134,-266.917221922)"><path fill="none" stroke="black" paint-order="fill stroke markers" d=" M 521.7942694480467 260.1108872136667 L 534.0456719230467 266.917221922 L 521.7942694480467 273.72355663033335" stroke-miterlimit="10" stroke-width="1.3612669416666667"/></g></g><g><text fill="black" stroke="none" font-family="sans-serif" font-size="11pt" font-style="normal" font-weight="normal" text-decoration="normal" x="156.70173185670575" y="306.121709842" text-anchor="start" dominant-baseline="alphabetic" xml:space="preserve">Event received</text></g><g><path fill="none" stroke="black" paint-order="fill stroke markers" d=" M 338.6107265124349 312.655791162 L 74.48730172395832 312.655791162" stroke-miterlimit="10" stroke-width="1.3612669416666667" stroke-dasharray="6.53408132"/><g transform="translate(71.764767840625,312.655791162) translate(-71.764767840625,-312.655791162)"><path fill="none" stroke="black" paint-order="fill stroke markers" d=" M 85.37743725729167 305.8494564536667 L 73.12603478229167 312.655791162 L 85.37743725729167 319.46212587033335" stroke-miterlimit="10" stroke-width="1.3612669416666667"/></g></g><g><text fill="black" stroke="none" font-family="sans-serif" font-size="11pt" font-style="normal" font-weight="normal" text-decoration="normal" x="573.5224132313801" y="351.860279082" text-anchor="start" dominant-baseline="alphabetic" xml:space="preserve">Update channel members by ID (check if in cache)</text></g><g><path fill="none" stroke="black" paint-order="fill stroke markers" d=" M 551.7421421647135 358.394360402 L 920.947948266276 358.394360402" stroke-miterlimit="10" stroke-width="1.3612669416666667" stroke-dasharray=""/><g transform="translate(923.6704821496093,358.394360402) translate(-923.6704821496093,-358.394360402)"><path fill="black" stroke="none" paint-order="stroke fill markers" d=" M 910.0578127329426 351.5880256936667 L 923.6704821496093 358.394360402 L 910.0578127329426 365.20069511033336 Z"/></g></g><g><text fill="black" stroke="none" font-family="sans-serif" font-size="11pt" font-style="normal" font-weight="normal" text-decoration="normal" x="976.8575278663736" y="397.598848322" text-anchor="start" dominant-baseline="alphabetic" xml:space="preserve">Forward update</text></g><g><path fill="none" stroke="black" paint-order="fill stroke markers" d=" M 940.0056854496094 404.132929642 L 1113.663975682031 404.132929642" stroke-miterlimit="10" stroke-width="1.3612669416666667" stroke-dasharray=""/><g transform="translate(1116.3865095653643,404.132929642) translate(-1116.3865095653643,-404.132929642)"><path fill="black" stroke="none" paint-order="stroke fill markers" d=" M 1102.7738401486977 397.3265949336667 L 1116.3865095653643 404.132929642 L 1102.7738401486977 410.93926435033336 Z"/></g></g><g><text fill="black" stroke="none" font-family="sans-serif" font-size="11pt" font-style="normal" font-weight="normal" text-decoration="normal" x="961.785956516276" y="443.337417562" text-anchor="start" dominant-baseline="alphabetic" xml:space="preserve">Return conformation</text></g><g><path fill="none" stroke="black" paint-order="fill stroke markers" d=" M 1116.3865095653643 449.871498882 L 942.7282193329427 449.871498882" stroke-miterlimit="10" stroke-width="1.3612669416666667" stroke-dasharray="6.53408132"/><g transform="translate(940.0056854496094,449.871498882) translate(-940.0056854496094,-449.871498882)"><path fill="black" stroke="none" paint-order="stroke fill markers" d=" M 953.618354866276 443.0651641736667 L 940.0056854496094 449.871498882 L 953.618354866276 456.67783359033336 Z"/></g></g><g><text fill="black" stroke="none" font-family="sans-serif" font-size="11pt" font-style="normal" font-weight="normal" text-decoration="normal" x="671.2961711659505" y="489.075986802" text-anchor="start" dominant-baseline="alphabetic" xml:space="preserve">Return conformation</text></g><g><path fill="none" stroke="black" paint-order="fill stroke markers" d=" M 923.6704821496093 495.61006812200003 L 554.4646760480468 495.61006812200003" stroke-miterlimit="10" stroke-width="1.3612669416666667" stroke-dasharray="6.53408132"/><g transform="translate(551.7421421647135,495.61006812200003) translate(-551.7421421647135,-495.61006812200003)"><path fill="black" stroke="none" paint-order="stroke fill markers" d=" M 565.3548115813802 488.8037334136667 L 551.7421421647135 495.61006812200003 L 565.3548115813802 502.41640283033337 Z"/></g></g></g><g/><g/><g/><g/><g/></g></svg>