<svg version="1.1" xmlns="http://www.w3.org/2000/svg" xmlns:xlink="http://www.w3.org/1999/xlink" width="1161" height="552"><defs/><g><g/><g/><g/><g/><g/><g/><g/><g/><g/><g><rect fill="white" stroke="none" x="0" y="0" width="1161" height="552"/></g><g><text fill="black" stroke="none" font-family="sans-serif" font-size="16.5pt" font-style="normal" font-weight="normal" text-decoration="normal" x="492.17055600035803" y="24.50280495" text-anchor="start" dominant-baseline="alphabetic" xml:space="preserve">User Left Channel</text></g><g><g><path fill="#9F5F9F" stroke="black" paint-order="fill stroke markers" d=" M 8.167601650000003 58.5617038305 L 119.02673073125 58.5617038305 L 119.02673073125 518.4793527420001 L 8.167601650000003 518.4793527420001 L 8.167601650000003 58.5617038305" stroke-miterlimit="10" stroke-width="1.3612669416666667" stroke-dasharray=""/></g><g><text fill="black" stroke="none" font-family="sans-serif" font-size="11pt" font-style="normal" font-weight="bold" text-decoration="normal" x="44.441839347363285" y="81.43098845050001" text-anchor="start" dominant-baseline="alphabetic" xml:space="preserve">Slack</text></g><g><path fill="none" stroke="black" paint-order="fill stroke markers" d=" M 257.1003810534505 50.394102180500006 L 1153.494799413216 50.394102180500006 L 1153.494799413216 518.4793527420001 L 257.1003810534505 518.4793527420001 L 257.1003810534505 50.394102180500006" stroke-miterlimit="10" stroke-width="1.3612669416666667" stroke-dasharray=""/></g><g><text fill="black" stroke="none" font-family="sans-serif" font-size="11pt" font-style="normal" font-weight="bold" text-decoration="normal" x="624.2095622792317" y="73.2633868005" text-anchor="start" dominant-baseline="alphabetic" xml:space="preserve">Service Provider Slack </text></g></g><g><path fill="none" stroke="black" paint-order="fill stroke markers" d=" M 63.597166190625 167.272481792 L 63.597166190625 552.783279672" stroke-miterlimit="10" stroke-width="1.3612669416666667" stroke-dasharray="12.565541,5.445067766666667"/><path fill="none" stroke="black" paint-order="fill stroke markers" d=" M 327.20783255696614 167.272481792 L 327.20783255696614 552.783279672" stroke-miterlimit="10" stroke-width="1.3612669416666667" stroke-dasharray="12.565541,5.445067766666667"/><path fill="none" stroke="black" paint-order="fill stroke markers" d=" M 524.0040449092447 167.272481792 L 524.0040449092447 552.783279672" stroke-miterlimit="10" stroke-width="1.3612669416666667" stroke-dasharray="12.565541,5.445067766666667"/><path fill="none" stroke="black" paint-order="fill stroke markers" d=" M 912.2675881941406 167.272481792 L 912.2675881941406 552.783279672" stroke-miterlimit="10" stroke-width="1.3612669416666667" stroke-dasharray="12.565541,5.445067766666667"/><path fill="none" stroke="black" paint-order="fill stroke markers" d=" M 1104.9836156098957 167.272481792 L 1104.9836156098957 552.783279672" stroke-miterlimit="10" stroke-width="1.3612669416666667" stroke-dasharray="12.565541,5.445067766666667"/></g><g><g><path fill="white" stroke="black" paint-order="fill stroke markers" d=" M 96.022544741125 120.39044832100001 A 24.2577769005 24.2577769005 0 1 1 96.02253261223755 120.36619054814246 M 32.560279920625 94.74417914 L 32.560279920625 146.03671750200002 M 31.171787640124997 120.39044832100001 L 47.506990940125 120.39044832100001" stroke-miterlimit="10" stroke-width="2.7769845610000004" stroke-dasharray=""/></g><g><g/><text fill="black" stroke="none" font-family="sans-serif" font-size="11pt" font-style="normal" font-weight="normal" text-decoration="normal" x="16.335203300000003" y="162.371920802" text-anchor="start" dominant-baseline="alphabetic" xml:space="preserve">SlackEventApi</text></g><g><path fill="white" stroke="black" paint-order="fill stroke markers" d=" M 359.63321110746614 120.39044832100001 A 24.2577769005 24.2577769005 0 1 1 359.6331989785787 120.36619054814246 M 296.1709462869661 94.74417914 L 296.1709462869661 146.03671750200002 M 294.78245400646614 120.39044832100001 L 311.1176573064661 120.39044832100001" stroke-miterlimit="10" stroke-width="2.7769845610000004" stroke-dasharray=""/></g><g><g/><text fill="black" stroke="none" font-family="sans-serif" font-size="11pt" font-style="normal" font-weight="normal" text-decoration="normal" x="265.2679827034505" y="162.371920802" text-anchor="start" dominant-baseline="alphabetic" xml:space="preserve">SpChannelHandler</text></g><g><path fill="white" stroke="black" paint-order="fill stroke markers" d=" M 548.2618218097447 120.39044832100001 A 24.2577769005 24.2577769005 0 1 1 548.2618096808573 120.36619054814246 M 520.7370042492447 96.1326714205 L 530.5381262292447 87.96506977050001 M 520.7370042492447 96.1326714205 L 530.5381262292447 104.3002730705" stroke-miterlimit="10" stroke-width="2.7769845610000004" stroke-dasharray=""/></g><g><g/><text fill="black" stroke="none" font-family="sans-serif" font-size="11pt" font-style="normal" font-weight="normal" text-decoration="normal" x="463.291833300358" y="162.371920802" text-anchor="start" dominant-baseline="alphabetic" xml:space="preserve">SpChannelService</text></g><g><path fill="white" stroke="black" paint-order="fill stroke markers" d=" M 936.5253650946405 118.16886067220001 A 24.2577769005 24.2577769005 0 1 1 936.5253529657531 118.14460289934246 M 886.6213190131406 144.6482252215 L 935.1368728141405 144.6482252215" stroke-miterlimit="10" stroke-width="2.7769845610000004" stroke-dasharray=""/></g><g><g/><text fill="black" stroke="none" font-family="sans-serif" font-size="11pt" font-style="normal" font-weight="normal" text-decoration="normal" x="882.1136956770507" y="162.371920802" text-anchor="start" dominant-baseline="alphabetic" xml:space="preserve">SpCache</text></g><g><path fill="white" stroke="black" paint-order="fill stroke markers" d=" M 1081.1342187918956 135.255483324 L 1081.1342187918956 100.95155639400002 L 1128.8330124278957 100.95155639400002 L 1128.8330124278957 135.255483324" stroke-miterlimit="10" stroke-width="2.7769845610000004" stroke-dasharray=""/><path fill="white" stroke="black" paint-order="fill stroke markers" d=" M 1128.8330124278957 99.75908655310002 L 1128.831819967992 99.86689709801664 L 1128.828242707526 99.97469686196861 L 1128.8222810042205 100.08247506506937 L 1128.8139354542413 100.19022092958842 L 1128.8032068921361 100.2979236810291 L 1128.7900963907523 100.40557254920603 L 1128.774605261129 100.51315676932207 L 1128.7567350523664 100.62066558304487 L 1128.7364875514704 100.72808823958268 L 1128.7138647831741 100.83541399675931 L 1128.6888690097358 100.94263212208854 L 1128.6615027307118 101.04973189384714 L 1128.6317686827072 101.1567026021472 L 1128.599669839102 101.26353355000704 L 1128.5652094097538 101.37021405442088 L 1128.528390840677 101.4767334474272 L 1128.489217813698 101.58308107717545 L 1128.447694246086 101.68924630899127 L 1128.403824290164 101.79521852643998 L 1128.3576123328908 101.90098713238812 L 1128.3090629954233 102.00654155006325 L 1128.2581811326554 102.11187122411154 L 1128.2049718327303 102.21696562165339 L 1128.1494404165342 102.32181423333661 L 1128.0915924371623 102.4264065743874 L 1128.031433679364 102.53073218565882 L 1127.9689701589652 102.63478063467669 L 1127.9042081222663 102.7385415166828 L 1127.8371540454161 102.84200445567542 L 1127.767814633767 102.94515910544688 L 1127.6961968212026 103.04799515061815 L 1127.622307769444 103.15050230767042 L 1127.5461548673347 103.2526703259734 L 1127.467745730102 103.3544889888104 L 1127.387088198594 103.4559481144 L 1127.3041903384965 103.55703755691417 L 1127.2190604395266 103.6577472074929 L 1127.1317070146033 103.75806699525508 L 1127.0421387989961 103.8579868883055 L 1126.9503647494519 103.95749689473814 L 1126.8563940432996 104.05658706363529 L 1126.760236077531 104.15524748606262 L 1126.6619004678628 104.25346829606012 L 1126.561397047774 104.35123967162862 L 1126.4587358675228 104.44855183571204 L 1126.3539271931418 104.54539505717509 L 1126.246981505411 104.6417596517763 L 1126.1379094988101 104.73763598313651 L 1126.0267220804487 104.83301446370251 L 1125.9134303689762 104.92788555570571 L 1125.7980456934692 105.02223977211597 L 1125.6805795922992 105.11606767759027 L 1125.5610438119784 105.20935988941625 L 1125.439450305985 105.30210707845049 L 1125.3158112335686 105.39429997005135 L 1125.1901389585332 105.48592934500653 L 1125.0624460480017 105.57698604045486 L 1124.9327452711589 105.66746095080268 L 1124.8010495979738 105.75734502863436 L 1124.6673721979046 105.84662928561703 L 1124.5317264385797 105.93530479339938 L 1124.3941258844618 106.02336268450453 L 1124.254584295492 106.11079415321676 L 1124.1131156257127 106.19759045646204 L 1123.969734021873 106.28374291468239 L 1123.8244538220135 106.36924291270377 L 1123.677289554034 106.45408190059764 L 1123.5282559342377 106.5382513945359 L 1123.3773678658629 106.62174297763931 L 1123.2246404375906 106.70454830081913 L 1123.0700889220361 106.78665908361204 L 1122.9137287742226 106.86806711500819 L 1122.7555756300344 106.94876425427228 L 1122.5956453046542 107.02874243175762 L 1122.433953790981 107.10799364971314 L 1122.2705172580315 107.18650998308306 L 1122.105352049323 107.26428358029946 L 1121.9384746812389 107.34130666406747 L 1121.7699018413764 107.41757153214289 L 1121.5996503868791 107.49307055810243 L 1121.427737342751 107.56779619210644 L 1121.254179900153 107.6417409616538 L 1121.0789954146846 107.71489747232916 L 1120.9022014046486 107.7872584085424 L 1120.7238155492985 107.85881653426023 L 1120.5438556870713 107.9295646937297 L 1120.3623398138031 107.9994958121938 L 1120.1792860809303 108.06860289659899 L 1119.9947127936732 108.1368790362944 L 1119.808638409207 108.20431740372297 L 1119.6210815348152 108.27091125510412 L 1119.4320609260285 108.33665393110826 L 1119.2415954847506 108.40153885752254 L 1119.0497042573668 108.46555954590839 L 1118.85640643284 108.52870959425034 L 1118.6617213407915 108.59098268759617 L 1118.4656684495683 108.65237259868843 L 1118.2682673642962 108.71287318858718 L 1118.069537824919 108.77247840728386 L 1117.8694997042253 108.83118229430623 L 1117.6681730058604 108.88897897931456 L 1117.4655778623262 108.94586268268847 L 1117.2617345329686 109.00182771610504 L 1117.0566634019501 109.05686848310758 L 1116.8503849762135 109.11097947966525 L 1116.6429198834292 109.16415529472346 L 1116.4342888699334 109.21639061074505 L 1116.224512798654 109.26768020424194 L 1116.013612647023 109.31801894629751 L 1115.80160950488 109.36740180307952 L 1115.5885245723623 109.41582383634344 L 1115.3743791577858 109.46328020392627 L 1115.1591946755136 109.50976616023082 L 1114.9429926438145 109.55527705670022 L 1114.7257946827112 109.5998083422827 L 1114.5076225118191 109.64335556388684 L 1114.2884979481737 109.68591436682678 L 1114.0684429040484 109.72748049525767 L 1113.8474793847643 109.7680497926013 L 1113.6256294864893 109.80761820196176 L 1113.4029153940282 109.84618176653109 L 1113.1793593786049 109.88373662998495 L 1112.9549837956342 109.92027903686831 L 1112.729811082488 109.95580533297093 L 1112.5038637562495 109.99031196569278 L 1112.2771644114634 110.02379548439939 L 1112.049735717875 110.05625254076675 L 1111.8216004181643 110.08767988911629 L 1111.5927813256708 110.11807438673935 L 1111.3633013221136 110.14743299421153 L 1111.1331833553015 110.17575277569651 L 1110.9024504368394 110.20303089923975 L 1110.671125639827 110.22926463705164 L 1110.4392320965512 110.25445136578027 L 1110.2067929961731 110.27858856677372 L 1109.973831582409 110.30167382633203 L 1109.740371151206 110.32370483594849 L 1109.506435048413 110.34467939254047 L 1109.2720466674452 110.3645953986698 L 1109.0372294469453 110.38345086275248 L 1108.8020068684395 110.40124389925779 L 1108.56640245399 110.41797272889693 L 1108.3304397638417 110.43363567880087 L 1108.094142394067 110.44823118268765 L 1107.8575339742058 110.46175778101907 L 1107.6206381649033 110.47421412114657 L 1107.3834786555428 110.4855989574465 L 1107.1460791618777 110.49591115144473 L 1106.9084634236592 110.50514967193044 L 1106.6706552022636 110.5133135950593 L 1106.4326782783146 110.5204021044458 L 1106.1945564493062 110.52641449124488 L 1105.9563135272228 110.53135015422289 L 1105.7179733361586 110.53520859981765 L 1105.4795597099335 110.53798944218781 L 1105.241096489712 110.53969240325145 L 1105.0026075216167 110.54031731271388 L 1104.7641166543463 110.53986410808467 L 1104.5256477367884 110.53833283468393 L 1104.2872246156362 110.5357236456377 L 1104.048871133003 110.53203680186272 L 1103.8106111240388 110.52727267204028 L 1103.5724684145455 110.52143173257942 L 1103.3344668185957 110.5145145675692 L 1103.096630136151 110.50652186872036 L 1102.858982150681 110.4974544352961 L 1102.6215466267865 110.48731317403227 L 1102.3843473078218 110.47609909904648 L 1102.1474079135214 110.46381333173692 L 1101.910752137627 110.45045710067006 L 1101.6744036455193 110.4360317414579 L 1101.4383860718503 110.42053869662433 L 1101.2027230181807 110.40397951546092 L 1100.9674380506196 110.38635585387198 L 1100.7325546974675 110.367669474209 L 1100.4980964468643 110.34792224509437 L 1100.2640867444393 110.32711614123453 L 1100.030548990968 110.30525324322254 L 1099.797506540031 110.28233573732997 L 1099.5649826956794 110.25836591528834 L 1099.3330007101035 110.23334617405986 L 1099.1015837813088 110.2072790155978 L 1098.8707550507954 110.18016704659628 L 1098.6405376012438 110.15201297822964 L 1098.4109544542073 110.1228196258812 L 1098.182028567809 110.09258990886192 L 1097.953782834447 110.06132685011828 L 1097.7262400785044 110.0290335759301 L 1097.4994230540672 109.99571331559791 L 1097.2733544426485 109.96136940111997 L 1097.0480568509215 109.9260052668591 L 1096.8235528084576 109.88962444919923 L 1096.5998647654737 109.85223058619187 L 1096.3770150905877 109.81382741719212 L 1096.1550260685817 109.77441878248487 L 1095.9339198981725 109.73400862290077 L 1095.7137186897933 109.6926009794221 L 1095.494444463381 109.6501999927787 L 1095.2761191461757 109.60680990303389 L 1095.0587645705275 109.56243504916051 L 1094.8424024717124 109.51707986860694 L 1094.62705448576 109.47074889685346 L 1094.4127421472897 109.42344676695863 L 1094.1994868873567 109.37517820909602 L 1093.987310031309 109.3259480500812 L 1093.776232796656 109.27576121288904 L 1093.5662762909446 109.22462271616142 L 1093.3574615096506 109.17253767370543 L 1093.1498093340783 109.1195112939819 L 1092.943340529272 109.0655488795846 L 1092.7380757419405 109.01065582671 L 1092.534035498391 108.95483762461768 L 1092.331240202478 108.89809985508128 L 1092.1297101335624 108.84044819183053 L 1091.9294654444825 108.78188839998367 L 1091.7305261595411 108.7224263354711 L 1091.5329121725003 108.66206794444972 L 1091.3366432445944 108.60081926270831 L 1091.1417390025526 108.53868641506405 L 1090.9482189366365 108.47567561474989 L 1090.7561023986918 108.41179316279337 L 1090.565408600212 108.34704544738645 L 1090.376156610418 108.2814389432467 L 1090.1883653543512 108.21498021096988 L 1090.0020536109805 108.14767589637383 L 1089.817240011325 108.07953272983391 L 1089.633943036591 108.01055752561001 L 1089.4521810163228 107.94075718116505 L 1089.2719721265712 107.87013867647532 L 1089.093334388075 107.79870907333245 L 1088.916285664459 107.72647551463722 L 1088.7408436604483 107.6534452236853 L 1088.5670259200967 107.57962550344493 L 1088.3948498250338 107.50502373582663 L 1088.2243325927257 107.42964738094497 L 1088.055491274753 107.35350397637264 L 1087.888342755107 107.27660113638665 L 1087.7229037485006 107.1989465512069 L 1087.5591907986966 107.12054798622721 L 1087.3972202768532 107.04141328123873 L 1087.2370083798878 106.96155034964602 L 1087.0785711288568 106.8809671776757 L 1086.921924367353 106.7996718235778 L 1086.7670837599221 106.71767241681998 L 1086.6140647904958 106.63497715727459 L 1086.4628827608435 106.55159431439867 L 1086.3135527890422 106.46753222640703 L 1086.1660898079647 106.38279929943842 L 1086.0205085637863 106.29740400671491 L 1085.8768236145097 106.21135488769461 L 1085.7350493285105 106.12466054721774 L 1085.595199883099 106.03732965464607 L 1085.4572892631033 105.94937094299611 L 1085.3213312594703 105.8607932080657 L 1085.1873394678873 105.77160530755455 L 1085.0553272874215 105.68181616017836 L 1084.9253079191813 105.59143474477705 L 1084.7972943649947 105.50047009941686 L 1084.6712994261109 105.40893132048649 L 1084.5473357019184 105.31682756178758 L 1084.4254155886867 105.22416803361924 L 1084.3055512783253 105.13096200185706 L 1084.1877547571653 105.03721878702656 L 1084.0720378047608 104.94294776337108 L 1083.9584119927108 104.84815835791446 L 1083.8468886835012 104.75286004951823 L 1083.7374790293707 104.65706236793383 L 1083.630193971193 104.56077489284957 L 1083.5250442373847 104.46400725293273 L 1083.4220403428317 104.36676912486666 L 1083.3211925878375 104.26907023238314 L 1083.2225110570932 104.17092034529 L 1083.1260056186704 104.07232927849415 L 1083.0316859230318 103.97330689102013 L 1082.9395614020689 103.87386308502415 L 1082.8496412681566 103.77400780480394 L 1082.7619345132337 103.67375103580433 L 1082.6764499079025 103.57310280361865 L 1082.593196000552 103.47207317298626 L 1082.5121811165043 103.37067224678601 L 1082.4334133571795 103.26891016502606 L 1082.356900599288 103.16679710382974 L 1082.2826504940424 103.0643432744181 L 1082.2106704663906 102.96155892208871 L 1082.140967714276 102.85845432519113 L 1082.0735492079154 102.75503979409915 L 1082.0084216891034 102.65132567017969 L 1081.9455916705376 102.5473223247587 L 1081.8850654351675 102.44304015808407 L 1081.826849035566 102.33848959828556 L 1081.7709482933246 102.23368110033203 L 1081.7173687984712 102.12862514498595 L 1081.6661159089106 102.02333223775527 L 1081.6171947498885 101.91781290784299 L 1081.570610213481 101.81207770709416 L 1081.5263669581018 101.70613720894077 L 1081.4844694080405 101.60000200734433 L 1081.4449217530166 101.49368271573654 L 1081.407727947763 101.387189965958 L 1081.372891711629 101.2805344071949 L 1081.3404165282095 101.17372670491429 L 1081.3103056449954 101.06677753979733 L 1081.2825620730503 100.95969760667145 L 1081.2571885867078 100.85249761344073 L 1081.234187723296 100.74518828001514 L 1081.2135617828815 100.63778033723861 L 1081.1953128280413 100.5302845258159 L 1081.179442683656 100.42271159523858 L 1081.1659529367264 100.31507230271008 L 1081.1548449362163 100.20737741206993 L 1081.1461197929161 100.09963769271747 L 1081.1397783793332 99.99186391853482 L 1081.1358213296035 99.88406686680962 L 1081.1342490394288 99.77625731715719 L 1081.1350616660368 99.66844605044267 L 1081.1382591281654 99.56064384770288 L 1081.143841106071 99.45286148906825 L 1081.1518070415607 99.34510975268485 L 1081.1621561380475 99.23739941363651 L 1081.1748873606302 99.12974124286738 L 1081.1899994361975 99.02214600610482 L 1081.207490853554 98.91462446278284 L 1081.2273598635727 98.80718736496618 L 1081.2496044793695 98.69984545627509 L 1081.2742224765009 98.59260947081098 L 1081.301211393188 98.48549013208303 L 1081.3305685305613 98.37849815193587 L 1081.3622909529317 98.27164422947833 L 1081.3963754880835 98.16493905001363 L 1081.4328187275917 98.05839328397077 L 1081.4716170271624 97.9520175858376 L 1081.512766506998 97.84582259309526 L 1081.5562630521852 97.73981892515455 L 1081.6021023131052 97.6340171822939 L 1081.6502797058704 97.52842794459946 L 1081.7007904127815 97.423061770907 L 1081.7536293828102 97.31792919774607 L 1081.8087913321033 97.21304073828638 L 1081.866270744512 97.10840688128647 L 1081.9260618721428 97.00403809004486 L 1081.9881587359328 96.89994480135368 L 1082.0525551262472 96.79613742445507 L 1082.1192446035009 96.6926263400002 L 1082.1882204988017 96.58942189901128 L 1082.2594759146175 96.48653442184639 L 1082.3330037254661 96.38397419716749 L 1082.4087965786277 96.28175148091161 L 1082.4868468948803 96.17987649526519 L 1082.567146869257 96.07835942764187 L 1082.6496884718274 95.97721042966384 L 1082.7344634485003 95.8764396161466 L 1082.8214633218481 95.77605706408754 L 1082.9106793919566 95.67607281165819 L 1083.0021027372925 95.57649685720048 L 1083.095724215598 95.47733915822688 L 1083.1915344648032 95.37860963042466 L 1083.2895239039628 95.28031814666433 L 1083.3896827342146 95.18247453601234 L 1083.492000939759 95.08508858274823 L 1083.596468288861 94.98817002538617 L 1083.7030743348723 94.89172855570112 L 1083.8118084172777 94.79577381775971 L 1083.922659662759 94.70031540695574 L 1084.0356169862844 94.60536286905077 L 1084.1506690922154 94.51092569921943 L 1084.2678044754375 94.41701334110004 L 1084.38701142251 94.32363518585014 L 1084.5082780128375 94.23080057120742 L 1084.6315921198618 94.13851878055601 L 1084.7569414122754 94.04679904199807 L 1084.884313355253 93.955650527431 L 1085.0136952117068 93.86508235163033 L 1085.145074043559 93.77510357133815 L 1085.2784367130355 93.68572318435751 L 1085.4137698839809 93.59695012865262 L 1085.5510600231908 93.5087932814551 L 1085.6902934017655 93.42126145837616 L 1085.8314560964834 93.33436341252519 L 1085.9745339911926 93.24810783363438 L 1086.1195127782228 93.1625033471897 L 1086.266377959816 93.07755851356848 L 1086.4151148495766 92.9932818271833 L 1086.5657085739397 92.90968171563254 L 1086.7181440736579 92.82676653885773 L 1086.8724061053088 92.74454458830742 L 1087.0284792428174 92.66302408610815 L 1087.1863478790003 92.58221318424222 L 1087.3459962271252 92.50211996373247 L 1087.5074083224904 92.4227524338342 L 1087.6705680240207 92.34411853123427 L 1087.8354590158824 92.26622611925741 L 1088.0020648091133 92.1890829870799 L 1088.170368743273 92.11269684895069 L 1088.3403539881083 92.0370753434199 L 1088.5120035452367 91.9622260325751 L 1088.6853002498449 91.888156401285 L 1088.8602267724075 91.81487385645099 L 1089.0367656204176 91.74238572626649 L 1089.2148991401377 91.67069925948411 L 1089.3946095183642 91.59982162469079 L 1089.5758787842092 91.52975990959095 L 1089.758688810897 91.4605211202977 L 1089.9430213175772 91.3921121806323 L 1090.1288578711528 91.32453993143167 L 1090.3161798881233 91.25781112986445 L 1090.5049686364434 91.1919324487552 L 1090.6952052373952 91.12691047591709 L 1090.8868706674773 91.06275171349324 L 1091.0799457603064 90.99946257730645 L 1091.274411208534 90.93704939621756 L 1091.4702475657775 90.87551841149269 L 1091.6674352485645 90.81487577617904 L 1091.8659545382907 90.75512755448958 L 1092.0657855831926 90.69627972119672 L 1092.2669084003326 90.63833816103474 L 1092.4693028775962 90.58130866811136 L 1092.6729487757043 90.52519694532836 L 1092.8778257302372 90.47000860381125 L 1093.0839132536698 90.41574916234819 L 1093.2911907374219 90.36242404683813 L 1093.4996374539173 90.31003858974816 L 1093.7092325586584 90.25859802958036 L 1093.9199550923095 90.20810751034786 L 1094.1317839827925 90.1585720810605 L 1094.344698047395 90.10999669521995 L 1094.558675994888 90.0623862103243 L 1094.7736964276553 90.01574538738238 L 1094.9897378438325 89.9700788904376 L 1095.2067786394582 89.92539128610161 L 1095.4247971106333 89.88168704309761 L 1095.643771455693 89.83897053181346 L 1095.8636797773847 89.79724602386472 L 1096.08450008506 89.75651769166738 L 1096.3062102968715 89.71678960802075 L 1096.5287882419834 89.67806574570005 L 1096.7522116627865 89.64034997705929 L 1096.9764582171247 89.60364607364387 L 1097.2015054805297 89.56795770581357 L 1097.4273309484624 89.53328844237541 L 1097.6539120385644 89.49964175022686 L 1097.8812260929155 89.46702099400908 L 1098.1092503802997 89.43542943577052 L 1098.337962098478 89.40487023464067 L 1098.5673383764697 89.37534644651419 L 1098.7973562768377 89.34686102374526 L 1099.0279927979839 89.31941681485246 L 1099.2592248764483 89.29301656423378 L 1099.4910293892158 89.2676629118923 L 1099.7233831560281 89.2433583931721 L 1099.9562629417023 89.22010543850483 L 1100.189645458454 89.19790637316656 L 1100.4235073682255 89.17676341704532 L 1100.6578252850213 89.15667868441913 L 1100.892575777245 89.13765418374449 L 1101.1277353700425 89.11969181745562 L 1101.363280547651 89.10279338177418 L 1101.5991877557485 89.08696056652965 L 1101.8354334038113 89.0721949549904 L 1102.071993867471 89.05849802370521 L 1102.3088454908789 89.04587114235585 L 1102.5459645890694 89.03431557361992 L 1102.783327450331 89.02383247304465 L 1103.0209103385746 89.01442288893136 L 1103.25868949571 89.00608776223065 L 1103.4966411440193 88.99882792644821 L 1103.7347414885362 88.9926441075616 L 1103.9729667194242 88.98753692394752 L 1104.2112930143592 88.9835068863201 L 1104.4496965409103 88.98055439767974 L 1104.6881534589231 88.97867975327284 L 1104.926639922905 88.97788314056228 L 1105.165132084408 88.97816463920867 L 1105.403606094415 88.97952422106238 L 1105.6420381057233 88.98196175016635 L 1105.8804042753306 88.98547698276971 L 1106.1186807668191 88.99006956735212 L 1106.3568437527374 88.99573904465896 L 1106.594869416986 89.00248484774721 L 1106.8327339571965 89.0103063020422 L 1107.0704135871133 89.019202625405 L 1107.3078845389712 89.0291729282107 L 1107.5451230658732 89.04021621343732 L 1107.7821054441642 89.05233137676555 L 1108.0188079758038 89.06551720668914 L 1108.255206990736 89.0797723846361 L 1108.4912788492566 89.0950954851005 L 1108.7269999443763 89.11148497578507 L 1108.962346704182 89.12893921775441 L 1109.1972955941937 89.14745646559885 L 1109.4318231197187 89.16703486760905 L 1109.6659058281994 89.18767246596111 L 1109.89952031156 89.20936719691241 L 1110.1326432085473 89.23211689100792 L 1110.3652512070653 89.2559192732972 L 1110.5973210465083 89.28077196356185 L 1110.828829520086 89.30667247655354 L 1111.0597534771432 89.33361822224259 L 1111.2900698254775 89.36160650607685 L 1111.5197555336454 89.39063452925127 L 1111.7487876332677 89.42069938898774 L 1111.9771432213254 89.45179807882532 L 1112.20479946245 89.48392748892095 L 1112.4317335912067 89.5170844063604 L 1112.6579229143722 89.55126551547954 L 1112.8833448132023 89.58646739819596 L 1113.1079767456954 89.62268653435072 L 1113.331796248845 89.65991930206037 L 1113.5547809408874 89.69816197807918 L 1113.7769085235395 89.73741073817143 L 1113.998156784228 89.7776616574938 L 1114.2185035983111 89.8189107109879 L 1114.437926931291 89.86115377378276 L 1114.6564048410175 89.9043866216073 L 1114.8739154798814 89.94860493121277 L 1115.0904370970002 89.99380428080505 L 1115.3059480403927 90.03998015048685 L 1115.520426759144 90.0871279227097 L 1115.7338518055608 90.13524288273562 L 1115.9462018373167 90.18432021910876 L 1116.1574556195853 90.23435502413635 L 1116.3675920271646 90.28534229437957 L 1116.5765900465888 90.33727693115392 L 1116.7844287782298 90.39015374103897 L 1116.9910874383881 90.44396743639781 L 1117.1965453613698 90.49871263590576 L 1117.4007820015538 90.55438386508847 L 1117.6037769354461 90.6109755568694 L 1117.8055098637228 90.66848205212658 L 1118.0059606132588 90.72689760025837 L 1118.2051091391465 90.78621635975864 L 1118.4029355266991 90.84643239880089 L 1118.5994199934428 90.90753969583137 L 1118.7945428910944 90.96953214017132 L 1118.988284707527 91.03240353262795 L 1119.1806260687206 91.09614758611443 L 1119.371547740699 91.1607579262785 L 1119.5610306314543 91.22622809214002 L 1119.7490557928552 91.29255153673692 L 1119.9356044225422 91.35972162778006 L 1120.120657865808 91.42773164831627 L 1120.3041976174623 91.49657479740019 L 1120.486205323683 91.56624419077427 L 1120.6666627838508 91.63673286155725 L 1120.8455519523707 91.70803376094076 L 1121.0228549404746 91.78013975889431 L 1121.1985540180112 91.85304364487818 L 1121.3726316152197 91.92673812856452 L 1121.5450703244849 92.00121584056639 L 1121.7158529020799 92.07646933317463 L 1121.8849622698892 92.15249108110271 L 1122.0523815171168 92.22927348223918 L 1122.2180939019777 92.3068088584079 L 1122.3820828533715 92.3850894561359 L 1122.5443319725393 92.4641074474286 L 1122.704825034705 92.54385493055275 L 1122.8635459906957 92.62432393082648 L 1123.0204789685483 92.70550640141681 L 1123.1756082750958 92.78739422414436 L 1123.3289183975364 92.86997921029509 L 1123.4803940049862 92.95325310143917 L 1123.6300199500104 93.03720757025692 L 1123.7777812701393 93.12183422137142 L 1123.9236631893637 93.20712459218805 L 1124.0676511196136 93.29307015374081 L 1124.2097306622159 93.3796623115452 L 1124.3498876093345 93.46689240645757 L 1124.4881079453917 93.55475171554113 L 1124.624377848469 93.64323145293818 L 1124.7586836916898 93.73232277074871 L 1124.8910120445817 93.8220167599152 L 1125.0213496744193 93.91230445111346 L 1125.1496835475486 94.00317681564962 L 1125.2760008306893 94.09462476636294 L 1125.400288892218 94.18663915853458 L 1125.5225353034325 94.27921079080198 L 1125.6427278397932 94.37233040607906 L 1125.7608544821467 94.46598869248189 L 1125.8769034179275 94.56017628425988 L 1125.9908630423383 94.65488376273235 L 1126.1027219595119 94.75010165723037 L 1126.2124689836498 94.84582044604385 L 1126.320093140141 94.94203055737364 L 1126.4255836666593 95.03872237028881 L 1126.5289300142406 95.13588621568863 L 1126.6301218483354 95.23351237726953 L 1126.7291490498453 95.33159109249674 L 1126.8260017161324 95.43011255358043 L 1126.9206701620108 95.5290669084566 L 1127.0131449207147 95.62844426177223 L 1127.1034167448454 95.72823467587482 L 1127.1914766072957 95.82842817180608 L 1127.277315702153 95.92901473029994 L 1127.3609254455787 96.02998429278436 L 1127.4422974766687 96.13132676238725 L 1127.5214236582876 96.23303200494607 L 1127.598296077883 96.33508985002135 L 1127.6729070482772 96.4374900919136 L 1127.7452491084352 96.54022249068399 L 1127.8153150242115 96.64327677317824 L 1127.8830977890725 96.746642634054 L 1127.9485906247985 96.85030973681128 L 1128.0117869821604 96.95426771482623 L 1128.072680541575 97.05850617238767 L 1128.1312652137376 97.1630146857367 L 1128.187535140229 97.26778280410907 L 1128.2414846941044 97.37280005078027 L 1128.2931084804525 97.47805592411314 L 1128.3424013369383 97.58353989860805 L 1128.3893583343167 97.68924142595546 L 1128.4339747769277 97.79514993609072 L 1128.4762462031638 97.90125483825108 L 1128.5161683859176 98.00754552203473 L 1128.5537373330042 98.11401135846187 L 1128.5889492875604 98.22064170103758 L 1128.6218007284197 98.32742588681647 L 1128.6522883704654 98.43435323746894 L 1128.6804091649592 98.54141306034904 L 1128.7061602998447 98.64859464956368 L 1128.7295392000296 98.75588728704328 L 1128.7505435276441 98.86328024361347 L 1128.7691711822722 98.97076278006811 L 1128.7854203011645 99.07832414824313 L 1128.7992892594225 99.18595359209134 L 1128.8107766701617 99.29364034875802 L 1128.819881384651 99.40137364965727 L 1128.826602492426 99.50914272154878 L 1128.8309393213822 99.61693678761516 L 1128.8328914378396 99.72474506853963 M 1128.8330124278957 134.0630134831 L 1128.831819967992 134.17082402801663 L 1128.828242707526 134.2786237919686 L 1128.8222810042205 134.38640199506935 L 1128.8139354542413 134.49414785958842 L 1128.8032068921361 134.60185061102908 L 1128.7900963907523 134.70949947920602 L 1128.774605261129 134.81708369932204 L 1128.7567350523664 134.92459251304487 L 1128.7364875514704 135.03201516958265 L 1128.7138647831741 135.1393409267593 L 1128.6888690097358 135.24655905208851 L 1128.6615027307118 135.35365882384713 L 1128.6317686827072 135.46062953214718 L 1128.599669839102 135.56746048000701 L 1128.5652094097538 135.67414098442086 L 1128.528390840677 135.78066037742718 L 1128.489217813698 135.88700800717544 L 1128.447694246086 135.99317323899126 L 1128.403824290164 136.09914545643997 L 1128.3576123328908 136.2049140623881 L 1128.3090629954233 136.31046848006324 L 1128.2581811326554 136.41579815411154 L 1128.2049718327303 136.5208925516534 L 1128.1494404165342 136.62574116333658 L 1128.0915924371623 136.7303335043874 L 1128.031433679364 136.8346591156588 L 1127.9689701589652 136.9387075646767 L 1127.9042081222663 137.0424684466828 L 1127.8371540454161 137.14593138567542 L 1127.767814633767 137.24908603544688 L 1127.6961968212026 137.35192208061815 L 1127.622307769444 137.4544292376704 L 1127.5461548673347 137.5565972559734 L 1127.467745730102 137.6584159188104 L 1127.387088198594 137.7598750444 L 1127.3041903384965 137.86096448691416 L 1127.2190604395266 137.96167413749288 L 1127.1317070146033 138.06199392525505 L 1127.0421387989961 138.1619138183055 L 1126.9503647494519 138.26142382473813 L 1126.8563940432996 138.3605139936353 L 1126.760236077531 138.4591744160626 L 1126.6619004678628 138.5573952260601 L 1126.561397047774 138.6551666016286 L 1126.4587358675228 138.75247876571203 L 1126.3539271931418 138.84932198717507 L 1126.246981505411 138.94568658177627 L 1126.1379094988101 139.04156291313652 L 1126.0267220804487 139.1369413937025 L 1125.9134303689762 139.2318124857057 L 1125.7980456934692 139.32616670211596 L 1125.6805795922992 139.41999460759027 L 1125.5610438119784 139.51328681941624 L 1125.439450305985 139.60603400845048 L 1125.3158112335686 139.69822690005134 L 1125.1901389585332 139.7898562750065 L 1125.0624460480017 139.88091297045483 L 1124.9327452711589 139.97138788080267 L 1124.8010495979738 140.06127195863436 L 1124.6673721979046 140.15055621561703 L 1124.5317264385797 140.23923172339937 L 1124.3941258844618 140.3272896145045 L 1124.254584295492 140.41472108321673 L 1124.1131156257127 140.501517386462 L 1123.969734021873 140.58766984468238 L 1123.8244538220135 140.67316984270377 L 1123.677289554034 140.75800883059765 L 1123.5282559342377 140.8421783245359 L 1123.3773678658629 140.9256699076393 L 1123.2246404375906 141.00847523081913 L 1123.0700889220361 141.09058601361204 L 1122.9137287742226 141.17199404500818 L 1122.7555756300344 141.25269118427227 L 1122.5956453046542 141.3326693617576 L 1122.433953790981 141.41192057971313 L 1122.2705172580315 141.49043691308304 L 1122.105352049323 141.56821051029945 L 1121.9384746812389 141.64523359406746 L 1121.7699018413764 141.72149846214288 L 1121.5996503868791 141.79699748810242 L 1121.427737342751 141.87172312210643 L 1121.254179900153 141.94566789165378 L 1121.0789954146846 142.01882440232913 L 1120.9022014046486 142.0911853385424 L 1120.7238155492985 142.16274346426022 L 1120.5438556870713 142.2334916237297 L 1120.3623398138031 142.3034227421938 L 1120.1792860809303 142.372529826599 L 1119.9947127936732 142.4408059662944 L 1119.808638409207 142.50824433372296 L 1119.6210815348152 142.5748381851041 L 1119.4320609260285 142.64058086110825 L 1119.2415954847506 142.70546578752254 L 1119.0497042573668 142.7694864759084 L 1118.85640643284 142.83263652425032 L 1118.6617213407915 142.89490961759617 L 1118.4656684495683 142.95629952868842 L 1118.2682673642962 143.01680011858718 L 1118.069537824919 143.07640533728383 L 1117.8694997042253 143.13510922430623 L 1117.6681730058604 143.19290590931453 L 1117.4655778623262 143.24978961268846 L 1117.2617345329686 143.30575464610504 L 1117.0566634019501 143.36079541310758 L 1116.8503849762135 143.41490640966524 L 1116.6429198834292 143.46808222472345 L 1116.4342888699334 143.52031754074505 L 1116.224512798654 143.57160713424193 L 1116.013612647023 143.6219458762975 L 1115.80160950488 143.67132873307952 L 1115.5885245723623 143.71975076634342 L 1115.3743791577858 143.76720713392626 L 1115.1591946755136 143.81369309023083 L 1114.9429926438145 143.8592039867002 L 1114.7257946827112 143.9037352722827 L 1114.5076225118191 143.94728249388683 L 1114.2884979481737 143.98984129682677 L 1114.0684429040484 144.03140742525764 L 1113.8474793847643 144.07197672260128 L 1113.6256294864893 144.11154513196175 L 1113.4029153940282 144.15010869653108 L 1113.1793593786049 144.18766355998494 L 1112.9549837956342 144.2242059668683 L 1112.729811082488 144.2597322629709 L 1112.5038637562495 144.29423889569279 L 1112.2771644114634 144.32772241439937 L 1112.049735717875 144.36017947076672 L 1111.8216004181643 144.39160681911628 L 1111.5927813256708 144.42200131673934 L 1111.3633013221136 144.45135992421152 L 1111.1331833553015 144.4796797056965 L 1110.9024504368394 144.50695782923975 L 1110.671125639827 144.53319156705163 L 1110.4392320965512 144.55837829578024 L 1110.2067929961731 144.5825154967737 L 1109.973831582409 144.60560075633202 L 1109.740371151206 144.62763176594848 L 1109.506435048413 144.64860632254045 L 1109.2720466674452 144.66852232866978 L 1109.0372294469453 144.68737779275247 L 1108.8020068684395 144.70517082925778 L 1108.56640245399 144.72189965889692 L 1108.3304397638417 144.73756260880086 L 1108.094142394067 144.75215811268765 L 1107.8575339742058 144.76568471101908 L 1107.6206381649033 144.77814105114655 L 1107.3834786555428 144.7895258874465 L 1107.1460791618777 144.7998380814447 L 1106.9084634236592 144.80907660193043 L 1106.6706552022636 144.8172405250593 L 1106.4326782783146 144.82432903444578 L 1106.1945564493062 144.83034142124487 L 1105.9563135272228 144.83527708422287 L 1105.7179733361586 144.83913552981764 L 1105.4795597099335 144.8419163721878 L 1105.241096489712 144.84361933325144 L 1105.0026075216167 144.84424424271387 L 1104.7641166543463 144.84379103808467 L 1104.5256477367884 144.84225976468392 L 1104.2872246156362 144.83965057563768 L 1104.048871133003 144.8359637318627 L 1103.8106111240388 144.83119960204027 L 1103.5724684145455 144.82535866257942 L 1103.3344668185957 144.81844149756918 L 1103.096630136151 144.81044879872033 L 1102.858982150681 144.8013813652961 L 1102.6215466267865 144.79124010403225 L 1102.3843473078218 144.78002602904647 L 1102.1474079135214 144.7677402617369 L 1101.910752137627 144.75438403067005 L 1101.6744036455193 144.73995867145788 L 1101.4383860718503 144.72446562662432 L 1101.2027230181807 144.7079064454609 L 1100.9674380506196 144.69028278387196 L 1100.7325546974675 144.671596404209 L 1100.4980964468643 144.65184917509436 L 1100.2640867444393 144.6310430712345 L 1100.030548990968 144.6091801732225 L 1099.797506540031 144.58626266732998 L 1099.5649826956794 144.56229284528834 L 1099.3330007101035 144.53727310405984 L 1099.1015837813088 144.5112059455978 L 1098.8707550507954 144.48409397659628 L 1098.6405376012438 144.45593990822962 L 1098.4109544542073 144.4267465558812 L 1098.182028567809 144.3965168388619 L 1097.953782834447 144.36525378011828 L 1097.7262400785044 144.3329605059301 L 1097.4994230540672 144.2996402455979 L 1097.2733544426485 144.26529633111994 L 1097.0480568509215 144.22993219685907 L 1096.8235528084576 144.19355137919922 L 1096.5998647654737 144.15615751619185 L 1096.3770150905877 144.1177543471921 L 1096.1550260685817 144.07834571248486 L 1095.9339198981725 144.03793555290076 L 1095.7137186897933 143.9965279094221 L 1095.494444463381 143.9541269227787 L 1095.2761191461757 143.9107368330339 L 1095.0587645705275 143.8663619791605 L 1094.8424024717124 143.82100679860693 L 1094.62705448576 143.77467582685347 L 1094.4127421472897 143.72737369695864 L 1094.1994868873567 143.679105139096 L 1093.987310031309 143.62987498008118 L 1093.776232796656 143.579688142889 L 1093.5662762909446 143.52854964616142 L 1093.3574615096506 143.4764646037054 L 1093.1498093340783 143.4234382239819 L 1092.943340529272 143.36947580958457 L 1092.7380757419405 143.31458275671 L 1092.534035498391 143.25876455461767 L 1092.331240202478 143.20202678508127 L 1092.1297101335624 143.1443751218305 L 1091.9294654444825 143.08581532998366 L 1091.7305261595411 143.02635326547107 L 1091.5329121725003 142.9659948744497 L 1091.3366432445944 142.9047461927083 L 1091.1417390025526 142.84261334506402 L 1090.9482189366365 142.77960254474988 L 1090.7561023986918 142.71572009279336 L 1090.565408600212 142.65097237738644 L 1090.376156610418 142.5853658732467 L 1090.1883653543512 142.51890714096987 L 1090.0020536109805 142.4516028263738 L 1089.817240011325 142.3834596598339 L 1089.633943036591 142.31448445561 L 1089.4521810163228 142.24468411116504 L 1089.2719721265712 142.17406560647532 L 1089.093334388075 142.10263600333244 L 1088.916285664459 142.03040244463722 L 1088.7408436604483 141.9573721536853 L 1088.5670259200967 141.88355243344492 L 1088.3948498250338 141.80895066582661 L 1088.2243325927257 141.73357431094496 L 1088.055491274753 141.65743090637264 L 1087.888342755107 141.58052806638665 L 1087.7229037485006 141.5028734812069 L 1087.5591907986966 141.42447491622718 L 1087.3972202768532 141.34534021123872 L 1087.2370083798878 141.265477279646 L 1087.0785711288568 141.1848941076757 L 1086.921924367353 141.10359875357778 L 1086.7670837599221 141.02159934681995 L 1086.6140647904958 140.93890408727458 L 1086.4628827608435 140.85552124439866 L 1086.3135527890422 140.77145915640702 L 1086.1660898079647 140.68672622943842 L 1086.0205085637863 140.6013309367149 L 1085.8768236145097 140.5152818176946 L 1085.7350493285105 140.42858747721772 L 1085.595199883099 140.34125658464606 L 1085.4572892631033 140.2532978729961 L 1085.3213312594703 140.1647201380657 L 1085.1873394678873 140.07553223755454 L 1085.0553272874215 139.98574309017835 L 1084.9253079191813 139.89536167477704 L 1084.7972943649947 139.80439702941683 L 1084.6712994261109 139.71285825048648 L 1084.5473357019184 139.62075449178758 L 1084.4254155886867 139.52809496361922 L 1084.3055512783253 139.43488893185705 L 1084.1877547571653 139.34114571702654 L 1084.0720378047608 139.24687469337107 L 1083.9584119927108 139.15208528791445 L 1083.8468886835012 139.05678697951822 L 1083.7374790293707 138.96098929793382 L 1083.630193971193 138.86470182284955 L 1083.5250442373847 138.76793418293272 L 1083.4220403428317 138.67069605486665 L 1083.3211925878375 138.57299716238313 L 1083.2225110570932 138.47484727529 L 1083.1260056186704 138.37625620849414 L 1083.0316859230318 138.27723382102013 L 1082.9395614020689 138.17779001502413 L 1082.8496412681566 138.07793473480393 L 1082.7619345132337 137.9776779658043 L 1082.6764499079025 137.87702973361863 L 1082.593196000552 137.77600010298625 L 1082.5121811165043 137.67459917678602 L 1082.4334133571795 137.57283709502605 L 1082.356900599288 137.47072403382973 L 1082.2826504940424 137.3682702044181 L 1082.2106704663906 137.26548585208872 L 1082.140967714276 137.16238125519112 L 1082.0735492079154 137.05896672409915 L 1082.0084216891034 136.95525260017968 L 1081.9455916705376 136.8512492547587 L 1081.8850654351675 136.74696708808406 L 1081.826849035566 136.64241652828557 L 1081.7709482933246 136.53760803033202 L 1081.7173687984712 136.43255207498592 L 1081.6661159089106 136.32725916775524 L 1081.6171947498885 136.22173983784296 L 1081.570610213481 136.11600463709416 L 1081.5263669581018 136.01006413894075 L 1081.4844694080405 135.90392893734432 L 1081.4449217530166 135.79760964573654 L 1081.407727947763 135.69111689595798 L 1081.372891711629 135.5844613371949 L 1081.3404165282095 135.47765363491428 L 1081.3103056449954 135.37070446979732 L 1081.2825620730503 135.26362453667144 L 1081.2571885867078 135.15642454344072 L 1081.234187723296 135.04911521001512 L 1081.2135617828815 134.9417072672386 L 1081.1953128280413 134.83421145581588 L 1081.179442683656 134.72663852523857 L 1081.1659529367264 134.61899923271008 L 1081.1548449362163 134.5113043420699 L 1081.1461197929161 134.40356462271745 L 1081.1397783793332 134.2957908485348 L 1081.1358213296035 134.1879937968096 L 1081.1342490394288 134.08018424715718" stroke-miterlimit="10" stroke-width="2.7769845610000004" stroke-dasharray=""/></g><g><g/><text fill="black" stroke="none" font-family="sans-serif" font-size="11pt" font-style="normal" font-weight="normal" text-decoration="normal" x="1064.6400334565753" y="162.371920802" text-anchor="start" dominant-baseline="alphabetic" xml:space="preserve">SpDatabase</text></g></g><g><path fill="white" stroke="black" paint-order="fill stroke markers" d=" M 55.429564540625 175.440083442 L 71.764767840625 175.440083442 L 71.764767840625 536.4480763720001 L 55.429564540625 536.4480763720001 L 55.429564540625 175.440083442" stroke-miterlimit="10" stroke-width="1.3612669416666667" stroke-dasharray=""/><path fill="white" stroke="black" paint-order="fill stroke markers" d=" M 319.04023090696614 221.178652682 L 335.37543420696613 221.178652682 L 335.37543420696613 312.655791162 L 319.04023090696614 312.655791162 L 319.04023090696614 221.178652682" stroke-miterlimit="10" stroke-width="1.3612669416666667" stroke-dasharray=""/><path fill="white" stroke="black" paint-order="fill stroke markers" d=" M 515.8364432592447 266.917221922 L 532.1716465592448 266.917221922 L 532.1716465592448 495.61006812200003 L 515.8364432592447 495.61006812200003 L 515.8364432592447 266.917221922" stroke-miterlimit="10" stroke-width="1.3612669416666667" stroke-dasharray=""/><path fill="white" stroke="black" paint-order="fill stroke markers" d=" M 904.0999865441405 358.394360402 L 920.4351898441406 358.394360402 L 920.4351898441406 495.61006812200003 L 904.0999865441405 495.61006812200003 L 904.0999865441405 358.394360402" stroke-miterlimit="10" stroke-width="1.3612669416666667" stroke-dasharray=""/><path fill="white" stroke="black" paint-order="fill stroke markers" d=" M 1096.8160139598956 404.132929642 L 1113.1512172598957 404.132929642 L 1113.1512172598957 449.871498882 L 1096.8160139598956 449.871498882 L 1096.8160139598956 404.132929642" stroke-miterlimit="10" stroke-width="1.3612669416666667" stroke-dasharray=""/><g><text fill="black" stroke="none" font-family="sans-serif" font-size="11pt" font-style="normal" font-weight="normal" text-decoration="normal" x="120.4311630090495" y="214.644571362" text-anchor="start" dominant-baseline="alphabetic" xml:space="preserve">User left channel event</text></g><g><path fill="none" stroke="black" paint-order="fill stroke markers" d=" M 71.764767840625 221.178652682 L 316.31769702363283 221.178652682" stroke-miterlimit="10" stroke-width="1.3612669416666667" stroke-dasharray=""/><g transform="translate(319.04023090696614,221.178652682) translate(-319.04023090696614,-221.178652682)"><path fill="none" stroke="black" paint-order="fill stroke markers" d=" M 305.42756149029947 214.37231797366667 L 317.6789639652995 221.178652682 L 305.42756149029947 227.98498739033334" stroke-miterlimit="10" stroke-width="1.3612669416666667"/></g></g><g><text fill="black" stroke="none" font-family="sans-serif" font-size="11pt" font-style="normal" font-weight="normal" text-decoration="normal" x="357.15570527363275" y="260.383140602" text-anchor="start" dominant-baseline="alphabetic" xml:space="preserve">User and Channel ID</text></g><g><path fill="none" stroke="black" paint-order="fill stroke markers" d=" M 335.37543420696613 266.917221922 L 513.1139093759114 266.917221922" stroke-miterlimit="10" stroke-width="1.3612669416666667" stroke-dasharray=""/><g transform="translate(515.8364432592447,266.917221922) translate(-515.8364432592447,-266.917221922)"><path fill="none" stroke="black" paint-order="fill stroke markers" d=" M 502.22377384257794 260.1108872136667 L 514.475176317578 266.917221922 L 502.22377384257794 273.72355663033335" stroke-miterlimit="10" stroke-width="1.3612669416666667"/></g></g><g><text fill="black" stroke="none" font-family="sans-serif" font-size="11pt" font-style="normal" font-weight="normal" text-decoration="normal" x="146.91648405397137" y="306.121709842" text-anchor="start" dominant-baseline="alphabetic" xml:space="preserve">Event received</text></g><g><path fill="none" stroke="black" paint-order="fill stroke markers" d=" M 319.04023090696614 312.655791162 L 74.48730172395832 312.655791162" stroke-miterlimit="10" stroke-width="1.3612669416666667" stroke-dasharray="6.53408132"/><g transform="translate(71.764767840625,312.655791162) translate(-71.764767840625,-312.655791162)"><path fill="none" stroke="black" paint-order="fill stroke markers" d=" M 85.37743725729167 305.8494564536667 L 73.12603478229167 312.655791162 L 85.37743725729167 319.46212587033335" stroke-miterlimit="10" stroke-width="1.3612669416666667"/></g></g><g><text fill="black" stroke="none" font-family="sans-serif" font-size="11pt" font-style="normal" font-weight="normal" text-decoration="normal" x="553.9519176259114" y="351.860279082" text-anchor="start" dominant-baseline="alphabetic" xml:space="preserve">Update channel members by ID (check if in cache)</text></g><g><path fill="none" stroke="black" paint-order="fill stroke markers" d=" M 532.1716465592448 358.394360402 L 901.3774526608072 358.394360402" stroke-miterlimit="10" stroke-width="1.3612669416666667" stroke-dasharray=""/><g transform="translate(904.0999865441405,358.394360402) translate(-904.0999865441405,-358.394360402)"><path fill="black" stroke="none" paint-order="stroke fill markers" d=" M 890.4873171274738 351.5880256936667 L 904.0999865441405 358.394360402 L 890.4873171274738 365.20069511033336 Z"/></g></g><g><text fill="black" stroke="none" font-family="sans-serif" font-size="11pt" font-style="normal" font-weight="normal" text-decoration="normal" x="957.2870322609049" y="397.598848322" text-anchor="start" dominant-baseline="alphabetic" xml:space="preserve">Forward update</text></g><g><path fill="none" stroke="black" paint-order="fill stroke markers" d=" M 920.4351898441406 404.132929642 L 1094.0934800765622 404.132929642" stroke-miterlimit="10" stroke-width="1.3612669416666667" stroke-dasharray=""/><g transform="translate(1096.8160139598956,404.132929642) translate(-1096.8160139598956,-404.132929642)"><path fill="black" stroke="none" paint-order="stroke fill markers" d=" M 1083.203344543229 397.3265949336667 L 1096.8160139598956 404.132929642 L 1083.203344543229 410.93926435033336 Z"/></g></g><g><text fill="black" stroke="none" font-family="sans-serif" font-size="11pt" font-style="normal" font-weight="normal" text-decoration="normal" x="942.2154609108072" y="443.337417562" text-anchor="start" dominant-baseline="alphabetic" xml:space="preserve">Return conformation</text></g><g><path fill="none" stroke="black" paint-order="fill stroke markers" d=" M 1096.8160139598956 449.871498882 L 923.1577237274739 449.871498882" stroke-miterlimit="10" stroke-width="1.3612669416666667" stroke-dasharray="6.53408132"/><g transform="translate(920.4351898441406,449.871498882) translate(-920.4351898441406,-449.871498882)"><path fill="black" stroke="none" paint-order="stroke fill markers" d=" M 934.0478592608073 443.0651641736667 L 920.4351898441406 449.871498882 L 934.0478592608073 456.67783359033336 Z"/></g></g><g><text fill="black" stroke="none" font-family="sans-serif" font-size="11pt" font-style="normal" font-weight="normal" text-decoration="normal" x="651.7256755604817" y="489.075986802" text-anchor="start" dominant-baseline="alphabetic" xml:space="preserve">Return conformation</text></g><g><path fill="none" stroke="black" paint-order="fill stroke markers" d=" M 904.0999865441405 495.61006812200003 L 534.8941804425781 495.61006812200003" stroke-miterlimit="10" stroke-width="1.3612669416666667" stroke-dasharray="6.53408132"/><g transform="translate(532.1716465592448,495.61006812200003) translate(-532.1716465592448,-495.61006812200003)"><path fill="black" stroke="none" paint-order="stroke fill markers" d=" M 545.7843159759115 488.8037334136667 L 532.1716465592448 495.61006812200003 L 545.7843159759115 502.41640283033337 Z"/></g></g></g><g/><g/><g/><g/><g/></g></svg>