<svg version="1.1" xmlns="http://www.w3.org/2000/svg" xmlns:xlink="http://www.w3.org/1999/xlink" width="1771" height="1214"><defs/><g><g/><g/><g/><g/><g/><g/><g/><g/><g/><g/><g/><g/><g/><g/><g/><g/><g/><g/><g/><g/><g/><g/><g><rect fill="white" stroke="none" x="0" y="0" width="1771" height="1214"/></g><g><text fill="black" stroke="none" font-family="sans-serif" font-size="16.5pt" font-style="normal" font-weight="normal" text-decoration="normal" x="823.6605450114096" y="24.50280495" text-anchor="start" dominant-baseline="alphabetic" xml:space="preserve">User Log Off</text></g><g><g><path fill="#9F5F9F" stroke="black" paint-order="fill stroke markers" d=" M 8.167601650000003 58.5617038305 L 263.3411491897135 58.5617038305 L 263.3411491897135 1180.0550863919996 L 8.167601650000003 1180.0550863919996 L 8.167601650000003 58.5617038305" stroke-miterlimit="10" stroke-width="1.3612669416666667" stroke-dasharray=""/></g><g><text fill="black" stroke="none" font-family="sans-serif" font-size="11pt" font-style="normal" font-weight="bold" text-decoration="normal" x="116.59904857659504" y="81.43098845050001" text-anchor="start" dominant-baseline="alphabetic" xml:space="preserve">Slack</text></g><g><path fill="none" stroke="black" paint-order="fill stroke markers" d=" M 568.1899154787109 50.394102180500006 L 1652.870553537858 50.394102180500006 L 1652.870553537858 1180.0550863919996 L 568.1899154787109 1180.0550863919996 L 568.1899154787109 50.394102180500006" stroke-miterlimit="10" stroke-width="1.3612669416666667" stroke-dasharray=""/></g><g><text fill="black" stroke="none" font-family="sans-serif" font-size="11pt" font-style="normal" font-weight="bold" text-decoration="normal" x="1029.442206554183" y="73.2633868005" text-anchor="start" dominant-baseline="alphabetic" xml:space="preserve">Service Provider Slack </text></g><g><path fill="#42b983" stroke="black" paint-order="fill stroke markers" d=" M 1677.8677845845377 58.5617038305 L 1763.472824310319 58.5617038305 L 1763.472824310319 1180.0550863919996 L 1677.8677845845377 1180.0550863919996 L 1677.8677845845377 58.5617038305" stroke-miterlimit="10" stroke-width="1.3612669416666667" stroke-dasharray=""/></g><g><text fill="black" stroke="none" font-family="sans-serif" font-size="11pt" font-style="normal" font-weight="bold" text-decoration="normal" x="1695.0153209269206" y="81.43098845050001" text-anchor="start" dominant-baseline="alphabetic" xml:space="preserve">Hopper</text></g></g><g><path fill="none" stroke="black" paint-order="fill stroke markers" d=" M 63.597166190625 167.272481792 L 63.597166190625 1214.3590133219996" stroke-miterlimit="10" stroke-width="1.3612669416666667" stroke-dasharray="12.565541,5.445067766666667"/><path fill="none" stroke="black" paint-order="fill stroke markers" d=" M 211.7161653375651 167.272481792 L 211.7161653375651 1214.3590133219996" stroke-miterlimit="10" stroke-width="1.3612669416666667" stroke-dasharray="12.565541,5.445067766666667"/><path fill="none" stroke="black" paint-order="fill stroke markers" d=" M 651.3288458640625 167.272481792 L 651.3288458640625 1214.3590133219996" stroke-miterlimit="10" stroke-width="1.3612669416666667" stroke-dasharray="12.565541,5.445067766666667"/><path fill="none" stroke="black" paint-order="fill stroke markers" d=" M 791.5186710512695 167.272481792 L 791.5186710512695 1214.3590133219996" stroke-miterlimit="10" stroke-width="1.3612669416666667" stroke-dasharray="12.565541,5.445067766666667"/><path fill="none" stroke="black" paint-order="fill stroke markers" d=" M 930.4808579938476 167.272481792 L 930.4808579938476 1214.3590133219996" stroke-miterlimit="10" stroke-width="1.3612669416666667" stroke-dasharray="12.565541,5.445067766666667"/><path fill="none" stroke="black" paint-order="fill stroke markers" d=" M 1297.5417645599935 167.272481792 L 1297.5417645599935 1214.3590133219996" stroke-miterlimit="10" stroke-width="1.3612669416666667" stroke-dasharray="12.565541,5.445067766666667"/><path fill="none" stroke="black" paint-order="fill stroke markers" d=" M 1604.3593697345377 167.272481792 L 1604.3593697345377 1214.3590133219996" stroke-miterlimit="10" stroke-width="1.3612669416666667" stroke-dasharray="12.565541,5.445067766666667"/><path fill="none" stroke="black" paint-order="fill stroke markers" d=" M 1720.6703044474284 167.272481792 L 1720.6703044474284 1214.3590133219996" stroke-miterlimit="10" stroke-width="1.3612669416666667" stroke-dasharray="12.565541,5.445067766666667"/></g><g><g><path fill="white" stroke="black" paint-order="fill stroke markers" d=" M 96.022544741125 120.39044832100001 A 24.2577769005 24.2577769005 0 1 1 96.02253261223755 120.36619054814246 M 32.560279920625 94.74417914 L 32.560279920625 146.03671750200002 M 31.171787640124997 120.39044832100001 L 47.506990940125 120.39044832100001" stroke-miterlimit="10" stroke-width="2.7769845610000004" stroke-dasharray=""/></g><g><g/><text fill="black" stroke="none" font-family="sans-serif" font-size="11pt" font-style="normal" font-weight="normal" text-decoration="normal" x="16.335203300000003" y="162.371920802" text-anchor="start" dominant-baseline="alphabetic" xml:space="preserve">SlackEventApi</text></g><g><path fill="white" stroke="black" paint-order="fill stroke markers" d=" M 244.1415438880651 120.39044832100001 A 24.2577769005 24.2577769005 0 1 1 244.14153175917764 120.36619054814246 M 180.6792790675651 94.74417914 L 180.6792790675651 146.03671750200002 M 179.2907867870651 120.39044832100001 L 195.62599008706508 120.39044832100001" stroke-miterlimit="10" stroke-width="2.7769845610000004" stroke-dasharray=""/></g><g><g/><text fill="black" stroke="none" font-family="sans-serif" font-size="11pt" font-style="normal" font-weight="normal" text-decoration="normal" x="168.25878313541665" y="162.371920802" text-anchor="start" dominant-baseline="alphabetic" xml:space="preserve">SlackWebApi</text></g><g><path fill="white" stroke="black" paint-order="fill stroke markers" d=" M 683.7542244145625 120.39044832100001 A 24.2577769005 24.2577769005 0 1 1 683.7542122856751 120.36619054814246 M 620.2919595940625 94.74417914 L 620.2919595940625 146.03671750200002 M 618.9034673135625 120.39044832100001 L 635.2386706135626 120.39044832100001" stroke-miterlimit="10" stroke-width="2.7769845610000004" stroke-dasharray=""/></g><g><g/><text fill="black" stroke="none" font-family="sans-serif" font-size="11pt" font-style="normal" font-weight="normal" text-decoration="normal" x="576.3575171287109" y="162.371920802" text-anchor="start" dominant-baseline="alphabetic" xml:space="preserve">SpSubscriptionHandler</text></g><g><path fill="white" stroke="black" paint-order="fill stroke markers" d=" M 815.7764479517695 120.39044832100001 A 24.2577769005 24.2577769005 0 1 1 815.776435822882 120.36619054814246 M 788.2516303912695 96.1326714205 L 798.0527523712694 87.96506977050001 M 788.2516303912695 96.1326714205 L 798.0527523712694 104.3002730705" stroke-miterlimit="10" stroke-width="2.7769845610000004" stroke-dasharray=""/></g><g><g/><text fill="black" stroke="none" font-family="sans-serif" font-size="11pt" font-style="normal" font-weight="normal" text-decoration="normal" x="742.635377899414" y="162.371920802" text-anchor="start" dominant-baseline="alphabetic" xml:space="preserve">SpUserService</text></g><g><path fill="white" stroke="black" paint-order="fill stroke markers" d=" M 954.7386348943476 120.39044832100001 A 24.2577769005 24.2577769005 0 1 1 954.7386227654601 120.36619054814246 M 927.2138173338476 96.1326714205 L 937.0149393138475 87.96506977050001 M 927.2138173338476 96.1326714205 L 937.0149393138475 104.3002730705" stroke-miterlimit="10" stroke-width="2.7769845610000004" stroke-dasharray=""/></g><g><g/><text fill="black" stroke="none" font-family="sans-serif" font-size="11pt" font-style="normal" font-weight="normal" text-decoration="normal" x="856.737167503125" y="162.371920802" text-anchor="start" dominant-baseline="alphabetic" xml:space="preserve">SpSubscriptionService</text></g><g><path fill="white" stroke="black" paint-order="fill stroke markers" d=" M 1321.7995414604934 118.16886067220001 A 24.2577769005 24.2577769005 0 1 1 1321.799529331606 118.14460289934246 M 1271.8954953789935 144.6482252215 L 1320.4110491799934 144.6482252215" stroke-miterlimit="10" stroke-width="2.7769845610000004" stroke-dasharray=""/></g><g><g/><text fill="black" stroke="none" font-family="sans-serif" font-size="11pt" font-style="normal" font-weight="normal" text-decoration="normal" x="1267.3878720429036" y="162.371920802" text-anchor="start" dominant-baseline="alphabetic" xml:space="preserve">SpCache</text></g><g><path fill="white" stroke="black" paint-order="fill stroke markers" d=" M 1580.5099729165377 135.255483324 L 1580.5099729165377 100.95155639400002 L 1628.2087665525378 100.95155639400002 L 1628.2087665525378 135.255483324" stroke-miterlimit="10" stroke-width="2.7769845610000004" stroke-dasharray=""/><path fill="white" stroke="black" paint-order="fill stroke markers" d=" M 1628.2087665525378 99.75908655310002 L 1628.207574092634 99.86689709801664 L 1628.203996832168 99.97469686196861 L 1628.1980351288626 100.08247506506937 L 1628.1896895788834 100.19022092958842 L 1628.1789610167782 100.2979236810291 L 1628.1658505153944 100.40557254920603 L 1628.150359385771 100.51315676932207 L 1628.1324891770084 100.62066558304487 L 1628.1122416761125 100.72808823958268 L 1628.0896189078162 100.83541399675931 L 1628.0646231343778 100.94263212208854 L 1628.037256855354 101.04973189384714 L 1628.0075228073492 101.1567026021472 L 1627.975423963744 101.26353355000704 L 1627.940963534396 101.37021405442088 L 1627.9041449653191 101.4767334474272 L 1627.86497193834 101.58308107717545 L 1627.823448370728 101.68924630899127 L 1627.779578414806 101.79521852643998 L 1627.7333664575328 101.90098713238812 L 1627.6848171200654 102.00654155006325 L 1627.6339352572975 102.11187122411154 L 1627.5807259573724 102.21696562165339 L 1627.5251945411762 102.32181423333661 L 1627.4673465618043 102.4264065743874 L 1627.407187804006 102.53073218565882 L 1627.3447242836073 102.63478063467669 L 1627.2799622469083 102.7385415166828 L 1627.2129081700582 102.84200445567542 L 1627.1435687584092 102.94515910544688 L 1627.0719509458447 103.04799515061815 L 1626.998061894086 103.15050230767042 L 1626.9219089919768 103.2526703259734 L 1626.843499854744 103.3544889888104 L 1626.762842323236 103.4559481144 L 1626.6799444631386 103.55703755691417 L 1626.5948145641687 103.6577472074929 L 1626.5074611392454 103.75806699525508 L 1626.4178929236382 103.8579868883055 L 1626.326118874094 103.95749689473814 L 1626.2321481679417 104.05658706363529 L 1626.1359902021732 104.15524748606262 L 1626.0376545925049 104.25346829606012 L 1625.9371511724162 104.35123967162862 L 1625.834489992165 104.44855183571204 L 1625.7296813177838 104.54539505717509 L 1625.622735630053 104.6417596517763 L 1625.5136636234522 104.73763598313651 L 1625.4024762050908 104.83301446370251 L 1625.2891844936182 104.92788555570571 L 1625.1737998181113 105.02223977211597 L 1625.0563337169413 105.11606767759027 L 1624.9367979366205 105.20935988941625 L 1624.815204430627 105.30210707845049 L 1624.6915653582107 105.39429997005135 L 1624.5658930831753 105.48592934500653 L 1624.4382001726437 105.57698604045486 L 1624.308499395801 105.66746095080268 L 1624.176803722616 105.75734502863436 L 1624.0431263225466 105.84662928561703 L 1623.9074805632217 105.93530479339938 L 1623.7698800091039 106.02336268450453 L 1623.630338420134 106.11079415321676 L 1623.4888697503548 106.19759045646204 L 1623.345488146515 106.28374291468239 L 1623.2002079466556 106.36924291270377 L 1623.053043678676 106.45408190059764 L 1622.9040100588797 106.5382513945359 L 1622.753121990505 106.62174297763931 L 1622.6003945622326 106.70454830081913 L 1622.4458430466782 106.78665908361204 L 1622.2894828988647 106.86806711500819 L 1622.1313297546765 106.94876425427228 L 1621.9713994292963 107.02874243175762 L 1621.809707915623 107.10799364971314 L 1621.6462713826736 107.18650998308306 L 1621.4811061739651 107.26428358029946 L 1621.314228805881 107.34130666406747 L 1621.1456559660185 107.41757153214289 L 1620.9754045115212 107.49307055810243 L 1620.803491467393 107.56779619210644 L 1620.6299340247951 107.6417409616538 L 1620.4547495393267 107.71489747232916 L 1620.2779555292907 107.7872584085424 L 1620.0995696739406 107.85881653426023 L 1619.9196098117134 107.9295646937297 L 1619.7380939384452 107.9994958121938 L 1619.5550402055724 108.06860289659899 L 1619.3704669183153 108.1368790362944 L 1619.1843925338492 108.20431740372297 L 1618.9968356594572 108.27091125510412 L 1618.8078150506706 108.33665393110826 L 1618.6173496093927 108.40153885752254 L 1618.4254583820089 108.46555954590839 L 1618.232160557482 108.52870959425034 L 1618.0374754654335 108.59098268759617 L 1617.8414225742104 108.65237259868843 L 1617.6440214889383 108.71287318858718 L 1617.4452919495611 108.77247840728386 L 1617.2452538288674 108.83118229430623 L 1617.0439271305024 108.88897897931456 L 1616.8413319869683 108.94586268268847 L 1616.6374886576107 109.00182771610504 L 1616.4324175265922 109.05686848310758 L 1616.2261391008556 109.11097947966525 L 1616.0186740080712 109.16415529472346 L 1615.8100429945755 109.21639061074505 L 1615.600266923296 109.26768020424194 L 1615.389366771665 109.31801894629751 L 1615.177363629522 109.36740180307952 L 1614.9642786970044 109.41582383634344 L 1614.750133282428 109.46328020392627 L 1614.5349488001557 109.50976616023082 L 1614.3187467684565 109.55527705670022 L 1614.1015488073533 109.5998083422827 L 1613.8833766364612 109.64335556388684 L 1613.6642520728158 109.68591436682678 L 1613.4441970286905 109.72748049525767 L 1613.2232335094063 109.7680497926013 L 1613.0013836111314 109.80761820196176 L 1612.7786695186703 109.84618176653109 L 1612.555113503247 109.88373662998495 L 1612.3307379202763 109.92027903686831 L 1612.10556520713 109.95580533297093 L 1611.8796178808916 109.99031196569278 L 1611.6529185361055 110.02379548439939 L 1611.425489842517 110.05625254076675 L 1611.1973545428064 110.08767988911629 L 1610.9685354503129 110.11807438673935 L 1610.7390554467556 110.14743299421153 L 1610.5089374799436 110.17575277569651 L 1610.2782045614815 110.20303089923975 L 1610.0468797644692 110.22926463705164 L 1609.8149862211933 110.25445136578027 L 1609.5825471208152 110.27858856677372 L 1609.3495857070511 110.30167382633203 L 1609.1161252758482 110.32370483594849 L 1608.8821891730552 110.34467939254047 L 1608.6478007920873 110.3645953986698 L 1608.4129835715873 110.38345086275248 L 1608.1777609930816 110.40124389925779 L 1607.942156578632 110.41797272889693 L 1607.7061938884838 110.43363567880087 L 1607.469896518709 110.44823118268765 L 1607.2332880988479 110.46175778101907 L 1606.9963922895454 110.47421412114657 L 1606.759232780185 110.4855989574465 L 1606.5218332865197 110.49591115144473 L 1606.2842175483013 110.50514967193044 L 1606.0464093269056 110.5133135950593 L 1605.8084324029567 110.5204021044458 L 1605.5703105739483 110.52641449124488 L 1605.332067651865 110.53135015422289 L 1605.0937274608007 110.53520859981765 L 1604.8553138345756 110.53798944218781 L 1604.616850614354 110.53969240325145 L 1604.3783616462588 110.54031731271388 L 1604.1398707789883 110.53986410808467 L 1603.9014018614305 110.53833283468393 L 1603.6629787402783 110.5357236456377 L 1603.4246252576452 110.53203680186272 L 1603.1863652486809 110.52727267204028 L 1602.9482225391876 110.52143173257942 L 1602.7102209432378 110.5145145675692 L 1602.472384260793 110.50652186872036 L 1602.234736275323 110.4974544352961 L 1601.9973007514286 110.48731317403227 L 1601.760101432464 110.47609909904648 L 1601.5231620381635 110.46381333173692 L 1601.286506262269 110.45045710067006 L 1601.0501577701614 110.4360317414579 L 1600.8141401964924 110.42053869662433 L 1600.5784771428227 110.40397951546092 L 1600.3431921752617 110.38635585387198 L 1600.1083088221096 110.367669474209 L 1599.8738505715064 110.34792224509437 L 1599.6398408690814 110.32711614123453 L 1599.4063031156102 110.30525324322254 L 1599.173260664673 110.28233573732997 L 1598.9407368203215 110.25836591528834 L 1598.7087548347456 110.23334617405986 L 1598.477337905951 110.2072790155978 L 1598.2465091754375 110.18016704659628 L 1598.0162917258858 110.15201297822964 L 1597.7867085788494 110.1228196258812 L 1597.5577826924512 110.09258990886192 L 1597.3295369590892 110.06132685011828 L 1597.1019942031464 110.0290335759301 L 1596.8751771787092 109.99571331559791 L 1596.6491085672906 109.96136940111997 L 1596.4238109755636 109.9260052668591 L 1596.1993069330997 109.88962444919923 L 1595.9756188901158 109.85223058619187 L 1595.7527692152298 109.81382741719212 L 1595.5307801932238 109.77441878248487 L 1595.3096740228145 109.73400862290077 L 1595.0894728144353 109.6926009794221 L 1594.870198588023 109.6501999927787 L 1594.6518732708178 109.60680990303389 L 1594.4345186951696 109.56243504916051 L 1594.2181565963544 109.51707986860694 L 1594.002808610402 109.47074889685346 L 1593.7884962719318 109.42344676695863 L 1593.5752410119987 109.37517820909602 L 1593.3630641559512 109.3259480500812 L 1593.151986921298 109.27576121288904 L 1592.9420304155867 109.22462271616142 L 1592.7332156342927 109.17253767370543 L 1592.5255634587204 109.1195112939819 L 1592.3190946539141 109.0655488795846 L 1592.1138298665826 109.01065582671 L 1591.909789623033 108.95483762461768 L 1591.7069943271201 108.89809985508128 L 1591.5054642582045 108.84044819183053 L 1591.3052195691246 108.78188839998367 L 1591.1062802841832 108.7224263354711 L 1590.9086662971424 108.66206794444972 L 1590.7123973692364 108.60081926270831 L 1590.5174931271947 108.53868641506405 L 1590.3239730612786 108.47567561474989 L 1590.131856523334 108.41179316279337 L 1589.9411627248542 108.34704544738645 L 1589.7519107350602 108.2814389432467 L 1589.5641194789932 108.21498021096988 L 1589.3778077356226 108.14767589637383 L 1589.1929941359672 108.07953272983391 L 1589.0096971612331 108.01055752561001 L 1588.8279351409649 107.94075718116505 L 1588.6477262512133 107.87013867647532 L 1588.469088512717 107.79870907333245 L 1588.2920397891012 107.72647551463722 L 1588.1165977850903 107.6534452236853 L 1587.9427800447388 107.57962550344493 L 1587.770603949676 107.50502373582663 L 1587.6000867173677 107.42964738094497 L 1587.431245399395 107.35350397637264 L 1587.264096879749 107.27660113638665 L 1587.0986578731427 107.1989465512069 L 1586.9349449233387 107.12054798622721 L 1586.7729744014953 107.04141328123873 L 1586.6127625045299 106.96155034964602 L 1586.4543252534988 106.8809671776757 L 1586.2976784919952 106.7996718235778 L 1586.1428378845642 106.71767241681998 L 1585.989818915138 106.63497715727459 L 1585.8386368854856 106.55159431439867 L 1585.6893069136843 106.46753222640703 L 1585.5418439326068 106.38279929943842 L 1585.3962626884284 106.29740400671491 L 1585.2525777391518 106.21135488769461 L 1585.1108034531526 106.12466054721774 L 1584.970954007741 106.03732965464607 L 1584.8330433877454 105.94937094299611 L 1584.6970853841124 105.8607932080657 L 1584.5630935925294 105.77160530755455 L 1584.4310814120636 105.68181616017836 L 1584.3010620438233 105.59143474477705 L 1584.1730484896368 105.50047009941686 L 1584.047053550753 105.40893132048649 L 1583.9230898265605 105.31682756178758 L 1583.8011697133288 105.22416803361924 L 1583.6813054029674 105.13096200185706 L 1583.5635088818074 105.03721878702656 L 1583.447791929403 104.94294776337108 L 1583.3341661173529 104.84815835791446 L 1583.2226428081433 104.75286004951823 L 1583.1132331540127 104.65706236793383 L 1583.005948095835 104.56077489284957 L 1582.9007983620268 104.46400725293273 L 1582.7977944674738 104.36676912486666 L 1582.6969467124795 104.26907023238314 L 1582.5982651817353 104.17092034529 L 1582.5017597433125 104.07232927849415 L 1582.4074400476738 103.97330689102013 L 1582.315315526711 103.87386308502415 L 1582.2253953927989 103.77400780480394 L 1582.1376886378757 103.67375103580433 L 1582.0522040325445 103.57310280361865 L 1581.9689501251942 103.47207317298626 L 1581.8879352411464 103.37067224678601 L 1581.8091674818215 103.26891016502606 L 1581.7326547239302 103.16679710382974 L 1581.6584046186845 103.0643432744181 L 1581.5864245910327 102.96155892208871 L 1581.516721838918 102.85845432519113 L 1581.4493033325575 102.75503979409915 L 1581.3841758137455 102.65132567017969 L 1581.3213457951797 102.5473223247587 L 1581.2608195598095 102.44304015808407 L 1581.2026031602081 102.33848959828556 L 1581.1467024179667 102.23368110033203 L 1581.0931229231132 102.12862514498595 L 1581.0418700335526 102.02333223775527 L 1580.9929488745306 101.91781290784299 L 1580.946364338123 101.81207770709416 L 1580.9021210827439 101.70613720894077 L 1580.8602235326825 101.60000200734433 L 1580.8206758776587 101.49368271573654 L 1580.7834820724051 101.387189965958 L 1580.7486458362712 101.2805344071949 L 1580.7161706528516 101.17372670491429 L 1580.6860597696375 101.06677753979733 L 1580.6583161976923 100.95969760667145 L 1580.6329427113499 100.85249761344073 L 1580.609941847938 100.74518828001514 L 1580.5893159075235 100.63778033723861 L 1580.5710669526834 100.5302845258159 L 1580.555196808298 100.42271159523858 L 1580.5417070613685 100.31507230271008 L 1580.5305990608583 100.20737741206993 L 1580.5218739175582 100.09963769271747 L 1580.5155325039752 99.99186391853482 L 1580.5115754542455 99.88406686680962 L 1580.510003164071 99.77625731715719 L 1580.5108157906789 99.66844605044267 L 1580.5140132528074 99.56064384770288 L 1580.519595230713 99.45286148906825 L 1580.5275611662028 99.34510975268485 L 1580.5379102626896 99.23739941363651 L 1580.5506414852723 99.12974124286738 L 1580.5657535608395 99.02214600610482 L 1580.583244978196 98.91462446278284 L 1580.6031139882148 98.80718736496618 L 1580.6253586040116 98.69984545627509 L 1580.649976601143 98.59260947081098 L 1580.67696551783 98.48549013208303 L 1580.7063226552034 98.37849815193587 L 1580.7380450775738 98.27164422947833 L 1580.7721296127256 98.16493905001363 L 1580.8085728522337 98.05839328397077 L 1580.8473711518045 97.9520175858376 L 1580.8885206316402 97.84582259309526 L 1580.9320171768272 97.73981892515455 L 1580.9778564377473 97.6340171822939 L 1581.0260338305125 97.52842794459946 L 1581.0765445374236 97.423061770907 L 1581.1293835074523 97.31792919774607 L 1581.1845454567454 97.21304073828638 L 1581.242024869154 97.10840688128647 L 1581.3018159967849 97.00403809004486 L 1581.3639128605748 96.89994480135368 L 1581.4283092508892 96.79613742445507 L 1581.494998728143 96.6926263400002 L 1581.5639746234438 96.58942189901128 L 1581.6352300392596 96.48653442184639 L 1581.7087578501082 96.38397419716749 L 1581.7845507032698 96.28175148091161 L 1581.8626010195223 96.17987649526519 L 1581.942900993899 96.07835942764187 L 1582.0254425964695 95.97721042966384 L 1582.1102175731423 95.8764396161466 L 1582.1972174464902 95.77605706408754 L 1582.2864335165987 95.67607281165819 L 1582.3778568619346 95.57649685720048 L 1582.47147834024 95.47733915822688 L 1582.5672885894453 95.37860963042466 L 1582.665278028605 95.28031814666433 L 1582.7654368588567 95.18247453601234 L 1582.867755064401 95.08508858274823 L 1582.972222413503 94.98817002538617 L 1583.0788284595144 94.89172855570112 L 1583.1875625419198 94.79577381775971 L 1583.2984137874012 94.70031540695574 L 1583.4113711109264 94.60536286905077 L 1583.5264232168574 94.51092569921943 L 1583.6435586000796 94.41701334110004 L 1583.7627655471522 94.32363518585014 L 1583.8840321374796 94.23080057120742 L 1584.0073462445039 94.13851878055601 L 1584.1326955369175 94.04679904199807 L 1584.260067479895 93.955650527431 L 1584.389449336349 93.86508235163033 L 1584.520828168201 93.77510357133815 L 1584.6541908376776 93.68572318435751 L 1584.789524008623 93.59695012865262 L 1584.9268141478328 93.5087932814551 L 1585.0660475264076 93.42126145837616 L 1585.2072102211255 93.33436341252519 L 1585.3502881158347 93.24810783363438 L 1585.4952669028648 93.1625033471897 L 1585.6421320844581 93.07755851356848 L 1585.7908689742187 92.9932818271833 L 1585.9414626985817 92.90968171563254 L 1586.0938981983 92.82676653885773 L 1586.2481602299508 92.74454458830742 L 1586.4042333674595 92.66302408610815 L 1586.5621020036424 92.58221318424222 L 1586.7217503517672 92.50211996373247 L 1586.8831624471325 92.4227524338342 L 1587.0463221486627 92.34411853123427 L 1587.2112131405245 92.26622611925741 L 1587.3778189337554 92.1890829870799 L 1587.546122867915 92.11269684895069 L 1587.7161081127504 92.0370753434199 L 1587.8877576698787 91.9622260325751 L 1588.061054374487 91.888156401285 L 1588.2359808970496 91.81487385645099 L 1588.4125197450596 91.74238572626649 L 1588.5906532647798 91.67069925948411 L 1588.7703636430062 91.59982162469079 L 1588.9516329088513 91.52975990959095 L 1589.134442935539 91.4605211202977 L 1589.3187754422192 91.3921121806323 L 1589.504611995795 91.32453993143167 L 1589.6919340127654 91.25781112986445 L 1589.8807227610855 91.1919324487552 L 1590.0709593620372 91.12691047591709 L 1590.2626247921194 91.06275171349324 L 1590.4556998849484 90.99946257730645 L 1590.6501653331761 90.93704939621756 L 1590.8460016904196 90.87551841149269 L 1591.0431893732066 90.81487577617904 L 1591.2417086629328 90.75512755448958 L 1591.4415397078346 90.69627972119672 L 1591.6426625249746 90.63833816103474 L 1591.8450570022383 90.58130866811136 L 1592.0487029003464 90.52519694532836 L 1592.2535798548793 90.47000860381125 L 1592.459667378312 90.41574916234819 L 1592.666944862064 90.36242404683813 L 1592.8753915785594 90.31003858974816 L 1593.0849866833005 90.25859802958036 L 1593.2957092169515 90.20810751034786 L 1593.5075381074346 90.1585720810605 L 1593.720452172037 90.10999669521995 L 1593.9344301195301 90.0623862103243 L 1594.1494505522974 90.01574538738238 L 1594.3654919684745 89.9700788904376 L 1594.5825327641003 89.92539128610161 L 1594.8005512352754 89.88168704309761 L 1595.019525580335 89.83897053181346 L 1595.2394339020268 89.79724602386472 L 1595.460254209702 89.75651769166738 L 1595.6819644215136 89.71678960802075 L 1595.9045423666255 89.67806574570005 L 1596.1279657874286 89.64034997705929 L 1596.3522123417667 89.60364607364387 L 1596.5772596051718 89.56795770581357 L 1596.8030850731045 89.53328844237541 L 1597.0296661632065 89.49964175022686 L 1597.2569802175576 89.46702099400908 L 1597.4850045049418 89.43542943577052 L 1597.7137162231202 89.40487023464067 L 1597.9430925011118 89.37534644651419 L 1598.1731104014798 89.34686102374526 L 1598.403746922626 89.31941681485246 L 1598.6349790010904 89.29301656423378 L 1598.8667835138579 89.2676629118923 L 1599.0991372806702 89.2433583931721 L 1599.3320170663444 89.22010543850483 L 1599.565399583096 89.19790637316656 L 1599.7992614928676 89.17676341704532 L 1600.0335794096634 89.15667868441913 L 1600.268329901887 89.13765418374449 L 1600.5034894946846 89.11969181745562 L 1600.739034672293 89.10279338177418 L 1600.9749418803906 89.08696056652965 L 1601.2111875284534 89.0721949549904 L 1601.4477479921131 89.05849802370521 L 1601.684599615521 89.04587114235585 L 1601.9217187137115 89.03431557361992 L 1602.159081574973 89.02383247304465 L 1602.3966644632167 89.01442288893136 L 1602.6344436203522 89.00608776223065 L 1602.8723952686614 88.99882792644821 L 1603.1104956131783 88.9926441075616 L 1603.3487208440663 88.98753692394752 L 1603.5870471390012 88.9835068863201 L 1603.8254506655524 88.98055439767974 L 1604.0639075835652 88.97867975327284 L 1604.302394047547 88.97788314056228 L 1604.54088620905 88.97816463920867 L 1604.779360219057 88.97952422106238 L 1605.0177922303653 88.98196175016635 L 1605.2561583999727 88.98547698276971 L 1605.4944348914612 88.99006956735212 L 1605.7325978773795 88.99573904465896 L 1605.9706235416281 89.00248484774721 L 1606.2084880818386 89.0103063020422 L 1606.4461677117554 89.019202625405 L 1606.6836386636132 89.0291729282107 L 1606.9208771905153 89.04021621343732 L 1607.1578595688063 89.05233137676555 L 1607.394562100446 89.06551720668914 L 1607.630961115378 89.0797723846361 L 1607.8670329738986 89.0950954851005 L 1608.1027540690184 89.11148497578507 L 1608.338100828824 89.12893921775441 L 1608.5730497188358 89.14745646559885 L 1608.8075772443608 89.16703486760905 L 1609.0416599528414 89.18767246596111 L 1609.2752744362022 89.20936719691241 L 1609.5083973331894 89.23211689100792 L 1609.7410053317074 89.2559192732972 L 1609.9730751711504 89.28077196356185 L 1610.204583644728 89.30667247655354 L 1610.4355076017853 89.33361822224259 L 1610.6658239501196 89.36160650607685 L 1610.8955096582874 89.39063452925127 L 1611.1245417579098 89.42069938898774 L 1611.3528973459674 89.45179807882532 L 1611.580553587092 89.48392748892095 L 1611.8074877158488 89.5170844063604 L 1612.0336770390143 89.55126551547954 L 1612.2590989378443 89.58646739819596 L 1612.4837308703375 89.62268653435072 L 1612.707550373487 89.65991930206037 L 1612.9305350655295 89.69816197807918 L 1613.1526626481816 89.73741073817143 L 1613.3739109088701 89.7776616574938 L 1613.5942577229532 89.8189107109879 L 1613.813681055933 89.86115377378276 L 1614.0321589656596 89.9043866216073 L 1614.2496696045234 89.94860493121277 L 1614.4661912216422 89.99380428080505 L 1614.6817021650347 90.03998015048685 L 1614.896180883786 90.0871279227097 L 1615.1096059302029 90.13524288273562 L 1615.3219559619588 90.18432021910876 L 1615.5332097442274 90.23435502413635 L 1615.7433461518067 90.28534229437957 L 1615.9523441712308 90.33727693115392 L 1616.1601829028718 90.39015374103897 L 1616.3668415630302 90.44396743639781 L 1616.5722994860118 90.49871263590576 L 1616.7765361261959 90.55438386508847 L 1616.9795310600882 90.6109755568694 L 1617.181263988365 90.66848205212658 L 1617.381714737901 90.72689760025837 L 1617.5808632637886 90.78621635975864 L 1617.7786896513412 90.84643239880089 L 1617.9751741180849 90.90753969583137 L 1618.1702970157364 90.96953214017132 L 1618.3640388321692 91.03240353262795 L 1618.5563801933627 91.09614758611443 L 1618.7473018653411 91.1607579262785 L 1618.9367847560964 91.22622809214002 L 1619.1248099174973 91.29255153673692 L 1619.3113585471842 91.35972162778006 L 1619.49641199045 91.42773164831627 L 1619.6799517421043 91.49657479740019 L 1619.861959448325 91.56624419077427 L 1620.042416908493 91.63673286155725 L 1620.2213060770127 91.70803376094076 L 1620.3986090651167 91.78013975889431 L 1620.5743081426533 91.85304364487818 L 1620.7483857398618 91.92673812856452 L 1620.920824449127 92.00121584056639 L 1621.091607026722 92.07646933317463 L 1621.2607163945313 92.15249108110271 L 1621.428135641759 92.22927348223918 L 1621.5938480266198 92.3068088584079 L 1621.7578369780135 92.3850894561359 L 1621.9200860971814 92.4641074474286 L 1622.080579159347 92.54385493055275 L 1622.2393001153378 92.62432393082648 L 1622.3962330931904 92.70550640141681 L 1622.5513623997379 92.78739422414436 L 1622.7046725221785 92.86997921029509 L 1622.8561481296283 92.95325310143917 L 1623.0057740746524 93.03720757025692 L 1623.1535353947813 93.12183422137142 L 1623.2994173140057 93.20712459218805 L 1623.4434052442557 93.29307015374081 L 1623.5854847868577 93.3796623115452 L 1623.7256417339765 93.46689240645757 L 1623.8638620700337 93.55475171554113 L 1624.0001319731111 93.64323145293818 L 1624.134437816332 93.73232277074871 L 1624.2667661692237 93.8220167599152 L 1624.3971037990614 93.91230445111346 L 1624.5254376721907 94.00317681564962 L 1624.6517549553314 94.09462476636294 L 1624.77604301686 94.18663915853458 L 1624.8982894280746 94.27921079080198 L 1625.0184819644353 94.37233040607906 L 1625.1366086067887 94.46598869248189 L 1625.2526575425695 94.56017628425988 L 1625.3666171669804 94.65488376273235 L 1625.478476084154 94.75010165723037 L 1625.588223108292 94.84582044604385 L 1625.695847264783 94.94203055737364 L 1625.8013377913014 95.03872237028881 L 1625.9046841388827 95.13588621568863 L 1626.0058759729775 95.23351237726953 L 1626.1049031744874 95.33159109249674 L 1626.2017558407745 95.43011255358043 L 1626.2964242866528 95.5290669084566 L 1626.3888990453568 95.62844426177223 L 1626.4791708694875 95.72823467587482 L 1626.5672307319378 95.82842817180608 L 1626.653069826795 95.92901473029994 L 1626.7366795702208 96.02998429278436 L 1626.8180516013108 96.13132676238725 L 1626.8971777829297 96.23303200494607 L 1626.9740502025252 96.33508985002135 L 1627.0486611729193 96.4374900919136 L 1627.1210032330773 96.54022249068399 L 1627.1910691488536 96.64327677317824 L 1627.2588519137146 96.746642634054 L 1627.3243447494406 96.85030973681128 L 1627.3875411068025 96.95426771482623 L 1627.448434666217 97.05850617238767 L 1627.5070193383795 97.1630146857367 L 1627.5632892648712 97.26778280410907 L 1627.6172388187465 97.37280005078027 L 1627.6688626050945 97.47805592411314 L 1627.7181554615804 97.58353989860805 L 1627.7651124589588 97.68924142595546 L 1627.8097289015698 97.79514993609072 L 1627.8520003278059 97.90125483825108 L 1627.8919225105597 98.00754552203473 L 1627.9294914576462 98.11401135846187 L 1627.9647034122024 98.22064170103758 L 1627.9975548530617 98.32742588681647 L 1628.0280424951075 98.43435323746894 L 1628.0561632896013 98.54141306034904 L 1628.0819144244867 98.64859464956368 L 1628.1052933246717 98.75588728704328 L 1628.1262976522862 98.86328024361347 L 1628.1449253069143 98.97076278006811 L 1628.1611744258066 99.07832414824313 L 1628.1750433840646 99.18595359209134 L 1628.1865307948037 99.29364034875802 L 1628.195635509293 99.40137364965727 L 1628.202356617068 99.50914272154878 L 1628.2066934460242 99.61693678761516 L 1628.2086455624817 99.72474506853963 M 1628.2087665525378 134.0630134831 L 1628.207574092634 134.17082402801663 L 1628.203996832168 134.2786237919686 L 1628.1980351288626 134.38640199506935 L 1628.1896895788834 134.49414785958842 L 1628.1789610167782 134.60185061102908 L 1628.1658505153944 134.70949947920602 L 1628.150359385771 134.81708369932204 L 1628.1324891770084 134.92459251304487 L 1628.1122416761125 135.03201516958265 L 1628.0896189078162 135.1393409267593 L 1628.0646231343778 135.24655905208851 L 1628.037256855354 135.35365882384713 L 1628.0075228073492 135.46062953214718 L 1627.975423963744 135.56746048000701 L 1627.940963534396 135.67414098442086 L 1627.9041449653191 135.78066037742718 L 1627.86497193834 135.88700800717544 L 1627.823448370728 135.99317323899126 L 1627.779578414806 136.09914545643997 L 1627.7333664575328 136.2049140623881 L 1627.6848171200654 136.31046848006324 L 1627.6339352572975 136.41579815411154 L 1627.5807259573724 136.5208925516534 L 1627.5251945411762 136.62574116333658 L 1627.4673465618043 136.7303335043874 L 1627.407187804006 136.8346591156588 L 1627.3447242836073 136.9387075646767 L 1627.2799622469083 137.0424684466828 L 1627.2129081700582 137.14593138567542 L 1627.1435687584092 137.24908603544688 L 1627.0719509458447 137.35192208061815 L 1626.998061894086 137.4544292376704 L 1626.9219089919768 137.5565972559734 L 1626.843499854744 137.6584159188104 L 1626.762842323236 137.7598750444 L 1626.6799444631386 137.86096448691416 L 1626.5948145641687 137.96167413749288 L 1626.5074611392454 138.06199392525505 L 1626.4178929236382 138.1619138183055 L 1626.326118874094 138.26142382473813 L 1626.2321481679417 138.3605139936353 L 1626.1359902021732 138.4591744160626 L 1626.0376545925049 138.5573952260601 L 1625.9371511724162 138.6551666016286 L 1625.834489992165 138.75247876571203 L 1625.7296813177838 138.84932198717507 L 1625.622735630053 138.94568658177627 L 1625.5136636234522 139.04156291313652 L 1625.4024762050908 139.1369413937025 L 1625.2891844936182 139.2318124857057 L 1625.1737998181113 139.32616670211596 L 1625.0563337169413 139.41999460759027 L 1624.9367979366205 139.51328681941624 L 1624.815204430627 139.60603400845048 L 1624.6915653582107 139.69822690005134 L 1624.5658930831753 139.7898562750065 L 1624.4382001726437 139.88091297045483 L 1624.308499395801 139.97138788080267 L 1624.176803722616 140.06127195863436 L 1624.0431263225466 140.15055621561703 L 1623.9074805632217 140.23923172339937 L 1623.7698800091039 140.3272896145045 L 1623.630338420134 140.41472108321673 L 1623.4888697503548 140.501517386462 L 1623.345488146515 140.58766984468238 L 1623.2002079466556 140.67316984270377 L 1623.053043678676 140.75800883059765 L 1622.9040100588797 140.8421783245359 L 1622.753121990505 140.9256699076393 L 1622.6003945622326 141.00847523081913 L 1622.4458430466782 141.09058601361204 L 1622.2894828988647 141.17199404500818 L 1622.1313297546765 141.25269118427227 L 1621.9713994292963 141.3326693617576 L 1621.809707915623 141.41192057971313 L 1621.6462713826736 141.49043691308304 L 1621.4811061739651 141.56821051029945 L 1621.314228805881 141.64523359406746 L 1621.1456559660185 141.72149846214288 L 1620.9754045115212 141.79699748810242 L 1620.803491467393 141.87172312210643 L 1620.6299340247951 141.94566789165378 L 1620.4547495393267 142.01882440232913 L 1620.2779555292907 142.0911853385424 L 1620.0995696739406 142.16274346426022 L 1619.9196098117134 142.2334916237297 L 1619.7380939384452 142.3034227421938 L 1619.5550402055724 142.372529826599 L 1619.3704669183153 142.4408059662944 L 1619.1843925338492 142.50824433372296 L 1618.9968356594572 142.5748381851041 L 1618.8078150506706 142.64058086110825 L 1618.6173496093927 142.70546578752254 L 1618.4254583820089 142.7694864759084 L 1618.232160557482 142.83263652425032 L 1618.0374754654335 142.89490961759617 L 1617.8414225742104 142.95629952868842 L 1617.6440214889383 143.01680011858718 L 1617.4452919495611 143.07640533728383 L 1617.2452538288674 143.13510922430623 L 1617.0439271305024 143.19290590931453 L 1616.8413319869683 143.24978961268846 L 1616.6374886576107 143.30575464610504 L 1616.4324175265922 143.36079541310758 L 1616.2261391008556 143.41490640966524 L 1616.0186740080712 143.46808222472345 L 1615.8100429945755 143.52031754074505 L 1615.600266923296 143.57160713424193 L 1615.389366771665 143.6219458762975 L 1615.177363629522 143.67132873307952 L 1614.9642786970044 143.71975076634342 L 1614.750133282428 143.76720713392626 L 1614.5349488001557 143.81369309023083 L 1614.3187467684565 143.8592039867002 L 1614.1015488073533 143.9037352722827 L 1613.8833766364612 143.94728249388683 L 1613.6642520728158 143.98984129682677 L 1613.4441970286905 144.03140742525764 L 1613.2232335094063 144.07197672260128 L 1613.0013836111314 144.11154513196175 L 1612.7786695186703 144.15010869653108 L 1612.555113503247 144.18766355998494 L 1612.3307379202763 144.2242059668683 L 1612.10556520713 144.2597322629709 L 1611.8796178808916 144.29423889569279 L 1611.6529185361055 144.32772241439937 L 1611.425489842517 144.36017947076672 L 1611.1973545428064 144.39160681911628 L 1610.9685354503129 144.42200131673934 L 1610.7390554467556 144.45135992421152 L 1610.5089374799436 144.4796797056965 L 1610.2782045614815 144.50695782923975 L 1610.0468797644692 144.53319156705163 L 1609.8149862211933 144.55837829578024 L 1609.5825471208152 144.5825154967737 L 1609.3495857070511 144.60560075633202 L 1609.1161252758482 144.62763176594848 L 1608.8821891730552 144.64860632254045 L 1608.6478007920873 144.66852232866978 L 1608.4129835715873 144.68737779275247 L 1608.1777609930816 144.70517082925778 L 1607.942156578632 144.72189965889692 L 1607.7061938884838 144.73756260880086 L 1607.469896518709 144.75215811268765 L 1607.2332880988479 144.76568471101908 L 1606.9963922895454 144.77814105114655 L 1606.759232780185 144.7895258874465 L 1606.5218332865197 144.7998380814447 L 1606.2842175483013 144.80907660193043 L 1606.0464093269056 144.8172405250593 L 1605.8084324029567 144.82432903444578 L 1605.5703105739483 144.83034142124487 L 1605.332067651865 144.83527708422287 L 1605.0937274608007 144.83913552981764 L 1604.8553138345756 144.8419163721878 L 1604.616850614354 144.84361933325144 L 1604.3783616462588 144.84424424271387 L 1604.1398707789883 144.84379103808467 L 1603.9014018614305 144.84225976468392 L 1603.6629787402783 144.83965057563768 L 1603.4246252576452 144.8359637318627 L 1603.1863652486809 144.83119960204027 L 1602.9482225391876 144.82535866257942 L 1602.7102209432378 144.81844149756918 L 1602.472384260793 144.81044879872033 L 1602.234736275323 144.8013813652961 L 1601.9973007514286 144.79124010403225 L 1601.760101432464 144.78002602904647 L 1601.5231620381635 144.7677402617369 L 1601.286506262269 144.75438403067005 L 1601.0501577701614 144.73995867145788 L 1600.8141401964924 144.72446562662432 L 1600.5784771428227 144.7079064454609 L 1600.3431921752617 144.69028278387196 L 1600.1083088221096 144.671596404209 L 1599.8738505715064 144.65184917509436 L 1599.6398408690814 144.6310430712345 L 1599.4063031156102 144.6091801732225 L 1599.173260664673 144.58626266732998 L 1598.9407368203215 144.56229284528834 L 1598.7087548347456 144.53727310405984 L 1598.477337905951 144.5112059455978 L 1598.2465091754375 144.48409397659628 L 1598.0162917258858 144.45593990822962 L 1597.7867085788494 144.4267465558812 L 1597.5577826924512 144.3965168388619 L 1597.3295369590892 144.36525378011828 L 1597.1019942031464 144.3329605059301 L 1596.8751771787092 144.2996402455979 L 1596.6491085672906 144.26529633111994 L 1596.4238109755636 144.22993219685907 L 1596.1993069330997 144.19355137919922 L 1595.9756188901158 144.15615751619185 L 1595.7527692152298 144.1177543471921 L 1595.5307801932238 144.07834571248486 L 1595.3096740228145 144.03793555290076 L 1595.0894728144353 143.9965279094221 L 1594.870198588023 143.9541269227787 L 1594.6518732708178 143.9107368330339 L 1594.4345186951696 143.8663619791605 L 1594.2181565963544 143.82100679860693 L 1594.002808610402 143.77467582685347 L 1593.7884962719318 143.72737369695864 L 1593.5752410119987 143.679105139096 L 1593.3630641559512 143.62987498008118 L 1593.151986921298 143.579688142889 L 1592.9420304155867 143.52854964616142 L 1592.7332156342927 143.4764646037054 L 1592.5255634587204 143.4234382239819 L 1592.3190946539141 143.36947580958457 L 1592.1138298665826 143.31458275671 L 1591.909789623033 143.25876455461767 L 1591.7069943271201 143.20202678508127 L 1591.5054642582045 143.1443751218305 L 1591.3052195691246 143.08581532998366 L 1591.1062802841832 143.02635326547107 L 1590.9086662971424 142.9659948744497 L 1590.7123973692364 142.9047461927083 L 1590.5174931271947 142.84261334506402 L 1590.3239730612786 142.77960254474988 L 1590.131856523334 142.71572009279336 L 1589.9411627248542 142.65097237738644 L 1589.7519107350602 142.5853658732467 L 1589.5641194789932 142.51890714096987 L 1589.3778077356226 142.4516028263738 L 1589.1929941359672 142.3834596598339 L 1589.0096971612331 142.31448445561 L 1588.8279351409649 142.24468411116504 L 1588.6477262512133 142.17406560647532 L 1588.469088512717 142.10263600333244 L 1588.2920397891012 142.03040244463722 L 1588.1165977850903 141.9573721536853 L 1587.9427800447388 141.88355243344492 L 1587.770603949676 141.80895066582661 L 1587.6000867173677 141.73357431094496 L 1587.431245399395 141.65743090637264 L 1587.264096879749 141.58052806638665 L 1587.0986578731427 141.5028734812069 L 1586.9349449233387 141.42447491622718 L 1586.7729744014953 141.34534021123872 L 1586.6127625045299 141.265477279646 L 1586.4543252534988 141.1848941076757 L 1586.2976784919952 141.10359875357778 L 1586.1428378845642 141.02159934681995 L 1585.989818915138 140.93890408727458 L 1585.8386368854856 140.85552124439866 L 1585.6893069136843 140.77145915640702 L 1585.5418439326068 140.68672622943842 L 1585.3962626884284 140.6013309367149 L 1585.2525777391518 140.5152818176946 L 1585.1108034531526 140.42858747721772 L 1584.970954007741 140.34125658464606 L 1584.8330433877454 140.2532978729961 L 1584.6970853841124 140.1647201380657 L 1584.5630935925294 140.07553223755454 L 1584.4310814120636 139.98574309017835 L 1584.3010620438233 139.89536167477704 L 1584.1730484896368 139.80439702941683 L 1584.047053550753 139.71285825048648 L 1583.9230898265605 139.62075449178758 L 1583.8011697133288 139.52809496361922 L 1583.6813054029674 139.43488893185705 L 1583.5635088818074 139.34114571702654 L 1583.447791929403 139.24687469337107 L 1583.3341661173529 139.15208528791445 L 1583.2226428081433 139.05678697951822 L 1583.1132331540127 138.96098929793382 L 1583.005948095835 138.86470182284955 L 1582.9007983620268 138.76793418293272 L 1582.7977944674738 138.67069605486665 L 1582.6969467124795 138.57299716238313 L 1582.5982651817353 138.47484727529 L 1582.5017597433125 138.37625620849414 L 1582.4074400476738 138.27723382102013 L 1582.315315526711 138.17779001502413 L 1582.2253953927989 138.07793473480393 L 1582.1376886378757 137.9776779658043 L 1582.0522040325445 137.87702973361863 L 1581.9689501251942 137.77600010298625 L 1581.8879352411464 137.67459917678602 L 1581.8091674818215 137.57283709502605 L 1581.7326547239302 137.47072403382973 L 1581.6584046186845 137.3682702044181 L 1581.5864245910327 137.26548585208872 L 1581.516721838918 137.16238125519112 L 1581.4493033325575 137.05896672409915 L 1581.3841758137455 136.95525260017968 L 1581.3213457951797 136.8512492547587 L 1581.2608195598095 136.74696708808406 L 1581.2026031602081 136.64241652828557 L 1581.1467024179667 136.53760803033202 L 1581.0931229231132 136.43255207498592 L 1581.0418700335526 136.32725916775524 L 1580.9929488745306 136.22173983784296 L 1580.946364338123 136.11600463709416 L 1580.9021210827439 136.01006413894075 L 1580.8602235326825 135.90392893734432 L 1580.8206758776587 135.79760964573654 L 1580.7834820724051 135.69111689595798 L 1580.7486458362712 135.5844613371949 L 1580.7161706528516 135.47765363491428 L 1580.6860597696375 135.37070446979732 L 1580.6583161976923 135.26362453667144 L 1580.6329427113499 135.15642454344072 L 1580.609941847938 135.04911521001512 L 1580.5893159075235 134.9417072672386 L 1580.5710669526834 134.83421145581588 L 1580.555196808298 134.72663852523857 L 1580.5417070613685 134.61899923271008 L 1580.5305990608583 134.5113043420699 L 1580.5218739175582 134.40356462271745 L 1580.5155325039752 134.2957908485348 L 1580.5115754542455 134.1879937968096 L 1580.510003164071 134.08018424715718" stroke-miterlimit="10" stroke-width="2.7769845610000004" stroke-dasharray=""/></g><g><g/><text fill="black" stroke="none" font-family="sans-serif" font-size="11pt" font-style="normal" font-weight="normal" text-decoration="normal" x="1564.0157875812174" y="162.371920802" text-anchor="start" dominant-baseline="alphabetic" xml:space="preserve">SpDatabase</text></g><g><path fill="white" stroke="black" paint-order="fill stroke markers" d=" M 1753.0956829979284 120.39044832100001 A 24.2577769005 24.2577769005 0 1 1 1753.095670869041 120.36619054814246 M 1689.6334181774284 94.74417914 L 1689.6334181774284 146.03671750200002 M 1688.2449258969284 120.39044832100001 L 1704.5801291969285 120.39044832100001" stroke-miterlimit="10" stroke-width="2.7769845610000004" stroke-dasharray=""/></g><g><g/><text fill="black" stroke="none" font-family="sans-serif" font-size="11pt" font-style="normal" font-weight="normal" text-decoration="normal" x="1686.0353862345378" y="162.371920802" text-anchor="start" dominant-baseline="alphabetic" xml:space="preserve">HopperApi</text></g></g><g><path fill="white" stroke="black" paint-order="fill stroke markers" d=" M 55.429564540625 175.440083442 L 71.764767840625 175.440083442 L 71.764767840625 1198.0238100219995 L 55.429564540625 1198.0238100219995 L 55.429564540625 175.440083442" stroke-miterlimit="10" stroke-width="1.3612669416666667" stroke-dasharray=""/><path fill="white" stroke="black" paint-order="fill stroke markers" d=" M 203.5485636875651 175.440083442 L 219.88376698756508 175.440083442 L 219.88376698756508 1198.0238100219995 L 203.5485636875651 1198.0238100219995 L 203.5485636875651 175.440083442" stroke-miterlimit="10" stroke-width="1.3612669416666667" stroke-dasharray=""/><path fill="white" stroke="black" paint-order="fill stroke markers" d=" M 1712.5027027974284 175.440083442 L 1728.8379060974285 175.440083442 L 1728.8379060974285 1198.0238100219995 L 1712.5027027974284 1198.0238100219995 L 1712.5027027974284 175.440083442" stroke-miterlimit="10" stroke-width="1.3612669416666667" stroke-dasharray=""/><path fill="white" stroke="black" paint-order="fill stroke markers" d=" M 643.1612442140624 221.178652682 L 659.4964475140625 221.178652682 L 659.4964475140625 1157.1858017719996 L 643.1612442140624 1157.1858017719996 L 643.1612442140624 221.178652682" stroke-miterlimit="10" stroke-width="1.3612669416666667" stroke-dasharray=""/><path fill="white" stroke="black" paint-order="fill stroke markers" d=" M 922.3132563438476 266.917221922 L 938.6484596438477 266.917221922 L 938.6484596438477 699.8001093719998 L 922.3132563438476 699.8001093719998 L 922.3132563438476 266.917221922" stroke-miterlimit="10" stroke-width="1.3612669416666667" stroke-dasharray=""/><path fill="white" stroke="black" paint-order="fill stroke markers" d=" M 1289.3741629099934 358.394360402 L 1305.7093662099935 358.394360402 L 1305.7093662099935 448.237978552 L 1289.3741629099934 448.237978552 L 1289.3741629099934 358.394360402" stroke-miterlimit="10" stroke-width="1.3612669416666667" stroke-dasharray=""/><path fill="white" stroke="black" paint-order="fill stroke markers" d=" M 1289.3741629099934 492.343027462 L 1305.7093662099935 492.343027462 L 1305.7093662099935 629.5587351819999 L 1289.3741629099934 629.5587351819999 L 1289.3741629099934 492.343027462" stroke-miterlimit="10" stroke-width="1.3612669416666667" stroke-dasharray=""/><path fill="white" stroke="black" paint-order="fill stroke markers" d=" M 1596.1917680845377 538.081596702 L 1612.5269713845378 538.081596702 L 1612.5269713845378 583.8201659419999 L 1596.1917680845377 583.8201659419999 L 1596.1917680845377 538.081596702" stroke-miterlimit="10" stroke-width="1.3612669416666667" stroke-dasharray=""/><path fill="white" stroke="black" paint-order="fill stroke markers" d=" M 922.3132563438476 837.0158170919997 L 938.6484596438477 837.0158170919997 L 938.6484596438477 1065.7086632919995 L 922.3132563438476 1065.7086632919995 L 922.3132563438476 837.0158170919997" stroke-miterlimit="10" stroke-width="1.3612669416666667" stroke-dasharray=""/><path fill="white" stroke="black" paint-order="fill stroke markers" d=" M 1289.3741629099934 882.7543863319996 L 1305.7093662099935 882.7543863319996 L 1305.7093662099935 1019.9700940519995 L 1289.3741629099934 1019.9700940519995 L 1289.3741629099934 882.7543863319996" stroke-miterlimit="10" stroke-width="1.3612669416666667" stroke-dasharray=""/><path fill="white" stroke="black" paint-order="fill stroke markers" d=" M 1596.1917680845377 928.4929555719996 L 1612.5269713845378 928.4929555719996 L 1612.5269713845378 974.2315248119995 L 1596.1917680845377 974.2315248119995 L 1596.1917680845377 928.4929555719996" stroke-miterlimit="10" stroke-width="1.3612669416666667" stroke-dasharray=""/><g><text fill="black" stroke="none" font-family="sans-serif" font-size="11pt" font-style="normal" font-weight="normal" text-decoration="normal" x="247.45948124707024" y="214.644571362" text-anchor="start" dominant-baseline="alphabetic" xml:space="preserve">Interactive Message clicked event</text></g><g><path fill="none" stroke="black" paint-order="fill stroke markers" d=" M 71.764767840625 221.178652682 L 640.4387103307291 221.178652682" stroke-miterlimit="10" stroke-width="1.3612669416666667" stroke-dasharray=""/><g transform="translate(643.1612442140624,221.178652682) translate(-643.1612442140624,-221.178652682)"><path fill="none" stroke="black" paint-order="fill stroke markers" d=" M 629.5485747973958 214.37231797366667 L 641.7999772723957 221.178652682 L 629.5485747973958 227.98498739033334" stroke-miterlimit="10" stroke-width="1.3612669416666667"/></g></g><g><text fill="black" stroke="none" font-family="sans-serif" font-size="11pt" font-style="normal" font-weight="normal" text-decoration="normal" x="766.0623378908691" y="260.383140602" text-anchor="start" dominant-baseline="alphabetic" xml:space="preserve">User ID</text></g><g><path fill="none" stroke="black" paint-order="fill stroke markers" d=" M 659.4964475140625 266.917221922 L 919.5907224605143 266.917221922" stroke-miterlimit="10" stroke-width="1.3612669416666667" stroke-dasharray=""/><g transform="translate(922.3132563438476,266.917221922) translate(-922.3132563438476,-266.917221922)"><path fill="black" stroke="none" paint-order="stroke fill markers" d=" M 908.7005869271809 260.1108872136667 L 922.3132563438476 266.917221922 L 908.7005869271809 273.72355663033335 Z"/></g></g><g><text fill="black" stroke="none" font-family="sans-serif" font-size="11pt" font-style="normal" font-weight="normal" text-decoration="normal" x="308.97699070751946" y="306.121709842" text-anchor="start" dominant-baseline="alphabetic" xml:space="preserve">Event received</text></g><g><path fill="none" stroke="black" paint-order="fill stroke markers" d=" M 643.1612442140624 312.655791162 L 74.48730172395832 312.655791162" stroke-miterlimit="10" stroke-width="1.3612669416666667" stroke-dasharray="6.53408132"/><g transform="translate(71.764767840625,312.655791162) translate(-71.764767840625,-312.655791162)"><path fill="none" stroke="black" paint-order="fill stroke markers" d=" M 85.37743725729167 305.8494564536667 L 73.12603478229167 312.655791162 L 85.37743725729167 319.46212587033335" stroke-miterlimit="10" stroke-width="1.3612669416666667"/></g></g><g><text fill="black" stroke="none" font-family="sans-serif" font-size="11pt" font-style="normal" font-weight="normal" text-decoration="normal" x="1030.9082686743814" y="351.860279082" text-anchor="start" dominant-baseline="alphabetic" xml:space="preserve">Get subscriber by user ID</text></g><g><path fill="none" stroke="black" paint-order="fill stroke markers" d=" M 938.6484596438477 358.394360402 L 1286.65162902666 358.394360402" stroke-miterlimit="10" stroke-width="1.3612669416666667" stroke-dasharray=""/><g transform="translate(1289.3741629099934,358.394360402) translate(-1289.3741629099934,-358.394360402)"><path fill="black" stroke="none" paint-order="stroke fill markers" d=" M 1275.7614934933267 351.5880256936667 L 1289.3741629099934 358.394360402 L 1275.7614934933267 365.20069511033336 Z"/></g></g><g><text fill="black" stroke="none" font-family="sans-serif" font-size="11pt" font-style="normal" font-weight="normal" text-decoration="normal" x="1054.9383284888345" y="441.703897232" text-anchor="start" dominant-baseline="alphabetic" xml:space="preserve">Return Subscriber</text></g><g><path fill="none" stroke="black" paint-order="fill stroke markers" d=" M 1289.3741629099934 448.237978552 L 941.370993527181 448.237978552" stroke-miterlimit="10" stroke-width="1.3612669416666667" stroke-dasharray="6.53408132"/><g transform="translate(938.6484596438477,448.237978552) translate(-938.6484596438477,-448.237978552)"><path fill="black" stroke="none" paint-order="stroke fill markers" d=" M 952.2611290605143 441.4316438436667 L 938.6484596438477 448.237978552 L 952.2611290605143 455.04431326033335 Z"/></g></g><g><text fill="black" stroke="none" font-family="sans-serif" font-size="11pt" font-style="normal" font-weight="normal" text-decoration="normal" x="1367.8475245447266" y="531.5475153819999" text-anchor="start" dominant-baseline="alphabetic" xml:space="preserve">Get subscriber by user ID</text></g><g><path fill="none" stroke="black" paint-order="fill stroke markers" d=" M 1305.7093662099935 538.081596702 L 1593.4692342012042 538.081596702" stroke-miterlimit="10" stroke-width="1.3612669416666667" stroke-dasharray=""/><g transform="translate(1596.1917680845377,538.081596702) translate(-1596.1917680845377,-538.081596702)"><path fill="black" stroke="none" paint-order="stroke fill markers" d=" M 1582.579098667871 531.2752619936666 L 1596.1917680845377 538.081596702 L 1582.579098667871 544.8879314103333 Z"/></g></g><g><text fill="black" stroke="none" font-family="sans-serif" font-size="11pt" font-style="normal" font-weight="normal" text-decoration="normal" x="1327.4896372766602" y="577.2860846219999" text-anchor="start" dominant-baseline="alphabetic" xml:space="preserve">Return subscriber and load into cache</text></g><g><path fill="none" stroke="black" paint-order="fill stroke markers" d=" M 1596.1917680845377 583.8201659419999 L 1308.431900093327 583.8201659419999" stroke-miterlimit="10" stroke-width="1.3612669416666667" stroke-dasharray="6.53408132"/><g transform="translate(1305.7093662099935,583.8201659419999) translate(-1305.7093662099935,-583.8201659419999)"><path fill="black" stroke="none" paint-order="stroke fill markers" d=" M 1319.3220356266602 577.0138312336666 L 1305.7093662099935 583.8201659419999 L 1319.3220356266602 590.6265006503332 Z"/></g></g><g><text fill="black" stroke="none" font-family="sans-serif" font-size="11pt" font-style="normal" font-weight="normal" text-decoration="normal" x="1056.1623809180337" y="623.0246538619998" text-anchor="start" dominant-baseline="alphabetic" xml:space="preserve">Return subscriber</text></g><g><path fill="none" stroke="black" paint-order="fill stroke markers" d=" M 1289.3741629099934 629.5587351819999 L 941.370993527181 629.5587351819999" stroke-miterlimit="10" stroke-width="1.3612669416666667" stroke-dasharray="6.53408132"/><g transform="translate(938.6484596438477,629.5587351819999) translate(-938.6484596438477,-629.5587351819999)"><path fill="black" stroke="none" paint-order="stroke fill markers" d=" M 952.2611290605143 622.7524004736665 L 938.6484596438477 629.5587351819999 L 952.2611290605143 636.3650698903332 Z"/></g></g><g><text fill="black" stroke="none" font-family="sans-serif" font-size="11pt" font-style="normal" font-weight="normal" text-decoration="normal" x="733.0559215700683" y="693.2660280519998" text-anchor="start" dominant-baseline="alphabetic" xml:space="preserve">Return subscriber</text></g><g><path fill="none" stroke="black" paint-order="fill stroke markers" d=" M 922.3132563438476 699.8001093719998 L 662.2189813973959 699.8001093719998" stroke-miterlimit="10" stroke-width="1.3612669416666667" stroke-dasharray="6.53408132"/><g transform="translate(659.4964475140625,699.8001093719998) translate(-659.4964475140625,-699.8001093719998)"><path fill="black" stroke="none" paint-order="stroke fill markers" d=" M 673.1091169307292 692.9937746636665 L 659.4964475140625 699.8001093719998 L 673.1091169307292 706.6064440803332 Z"/></g></g><g><text fill="black" stroke="none" font-family="sans-serif" font-size="11pt" font-style="normal" font-weight="normal" text-decoration="normal" x="1123.662455099593" y="739.0045972919997" text-anchor="start" dominant-baseline="alphabetic" xml:space="preserve">Delete subscription</text></g><g><path fill="none" stroke="black" paint-order="fill stroke markers" d=" M 659.4964475140625 745.5386786119998 L 1709.780168914095 745.5386786119998" stroke-miterlimit="10" stroke-width="1.3612669416666667" stroke-dasharray=""/><g transform="translate(1712.5027027974284,745.5386786119998) translate(-1712.5027027974284,-745.5386786119998)"><path fill="black" stroke="none" paint-order="stroke fill markers" d=" M 1698.8900333807617 738.7323439036664 L 1712.5027027974284 745.5386786119998 L 1698.8900333807617 752.3450133203331 Z"/></g></g><g><text fill="black" stroke="none" font-family="sans-serif" font-size="11pt" font-style="normal" font-weight="normal" text-decoration="normal" x="1114.6968102631672" y="784.7431665319997" text-anchor="start" dominant-baseline="alphabetic" xml:space="preserve">Respond confirmation</text></g><g><path fill="none" stroke="black" paint-order="fill stroke markers" d=" M 1712.5027027974284 791.2772478519997 L 662.2189813973959 791.2772478519997" stroke-miterlimit="10" stroke-width="1.3612669416666667" stroke-dasharray="6.53408132"/><g transform="translate(659.4964475140625,791.2772478519997) translate(-659.4964475140625,-791.2772478519997)"><path fill="black" stroke="none" paint-order="stroke fill markers" d=" M 673.1091169307292 784.4709131436664 L 659.4964475140625 791.2772478519997 L 673.1091169307292 798.0835825603331 Z"/></g></g><g><text fill="black" stroke="none" font-family="sans-serif" font-size="11pt" font-style="normal" font-weight="normal" text-decoration="normal" x="733.8683757937011" y="830.4817357719996" text-anchor="start" dominant-baseline="alphabetic" xml:space="preserve">Delete subscriber</text></g><g><path fill="none" stroke="black" paint-order="fill stroke markers" d=" M 659.4964475140625 837.0158170919997 L 919.5907224605143 837.0158170919997" stroke-miterlimit="10" stroke-width="1.3612669416666667" stroke-dasharray=""/><g transform="translate(922.3132563438476,837.0158170919997) translate(-922.3132563438476,-837.0158170919997)"><path fill="black" stroke="none" paint-order="stroke fill markers" d=" M 908.7005869271809 830.2094823836663 L 922.3132563438476 837.0158170919997 L 908.7005869271809 843.822151800333 Z"/></g></g><g><text fill="black" stroke="none" font-family="sans-serif" font-size="11pt" font-style="normal" font-weight="normal" text-decoration="normal" x="960.4287307105142" y="876.2203050119996" text-anchor="start" dominant-baseline="alphabetic" xml:space="preserve">Delete subscriber by user ID (check if in cache)</text></g><g><path fill="none" stroke="black" paint-order="fill stroke markers" d=" M 938.6484596438477 882.7543863319996 L 1286.65162902666 882.7543863319996" stroke-miterlimit="10" stroke-width="1.3612669416666667" stroke-dasharray=""/><g transform="translate(1289.3741629099934,882.7543863319996) translate(-1289.3741629099934,-882.7543863319996)"><path fill="black" stroke="none" paint-order="stroke fill markers" d=" M 1275.7614934933267 875.9480516236663 L 1289.3741629099934 882.7543863319996 L 1275.7614934933267 889.560721040333 Z"/></g></g><g><text fill="black" stroke="none" font-family="sans-serif" font-size="11pt" font-style="normal" font-weight="normal" text-decoration="normal" x="1356.0078639001954" y="921.9588742519995" text-anchor="start" dominant-baseline="alphabetic" xml:space="preserve">Forward deletion to database</text></g><g><path fill="none" stroke="black" paint-order="fill stroke markers" d=" M 1305.7093662099935 928.4929555719996 L 1593.4692342012042 928.4929555719996" stroke-miterlimit="10" stroke-width="1.3612669416666667" stroke-dasharray=""/><g transform="translate(1596.1917680845377,928.4929555719996) translate(-1596.1917680845377,-928.4929555719996)"><path fill="black" stroke="none" paint-order="stroke fill markers" d=" M 1582.579098667871 921.6866208636662 L 1596.1917680845377 928.4929555719996 L 1582.579098667871 935.2992902803329 Z"/></g></g><g><text fill="black" stroke="none" font-family="sans-serif" font-size="11pt" font-style="normal" font-weight="normal" text-decoration="normal" x="1386.9885310144532" y="967.6974434919995" text-anchor="start" dominant-baseline="alphabetic" xml:space="preserve">Return confirmation</text></g><g><path fill="none" stroke="black" paint-order="fill stroke markers" d=" M 1596.1917680845377 974.2315248119995 L 1308.431900093327 974.2315248119995" stroke-miterlimit="10" stroke-width="1.3612669416666667" stroke-dasharray="6.53408132"/><g transform="translate(1305.7093662099935,974.2315248119995) translate(-1305.7093662099935,-974.2315248119995)"><path fill="black" stroke="none" paint-order="stroke fill markers" d=" M 1319.3220356266602 967.4251901036662 L 1305.7093662099935 974.2315248119995 L 1319.3220356266602 981.0378595203329 Z"/></g></g><g><text fill="black" stroke="none" font-family="sans-serif" font-size="11pt" font-style="normal" font-weight="normal" text-decoration="normal" x="1050.049275144108" y="1013.4360127319994" text-anchor="start" dominant-baseline="alphabetic" xml:space="preserve">Return confirmation</text></g><g><path fill="none" stroke="black" paint-order="fill stroke markers" d=" M 1289.3741629099934 1019.9700940519995 L 941.370993527181 1019.9700940519995" stroke-miterlimit="10" stroke-width="1.3612669416666667" stroke-dasharray="6.53408132"/><g transform="translate(938.6484596438477,1019.9700940519995) translate(-938.6484596438477,-1019.9700940519995)"><path fill="black" stroke="none" paint-order="stroke fill markers" d=" M 952.2611290605143 1013.1637593436661 L 938.6484596438477 1019.9700940519995 L 952.2611290605143 1026.7764287603327 Z"/></g></g><g><text fill="black" stroke="none" font-family="sans-serif" font-size="11pt" font-style="normal" font-weight="normal" text-decoration="normal" x="726.9428157961426" y="1059.1745819719997" text-anchor="start" dominant-baseline="alphabetic" xml:space="preserve">Return confirmation</text></g><g><path fill="none" stroke="black" paint-order="fill stroke markers" d=" M 922.3132563438476 1065.7086632919995 L 662.2189813973959 1065.7086632919995" stroke-miterlimit="10" stroke-width="1.3612669416666667" stroke-dasharray="6.53408132"/><g transform="translate(659.4964475140625,1065.7086632919995) translate(-659.4964475140625,-1065.7086632919995)"><path fill="black" stroke="none" paint-order="stroke fill markers" d=" M 673.1091169307292 1058.9023285836663 L 659.4964475140625 1065.7086632919995 L 673.1091169307292 1072.5149980003328 Z"/></g></g><g><text fill="black" stroke="none" font-family="sans-serif" font-size="11pt" font-style="normal" font-weight="normal" text-decoration="normal" x="275.0659015969075" y="1104.9131512119998" text-anchor="start" dominant-baseline="alphabetic" xml:space="preserve">Update slack app home tab (unsubscribed view)</text></g><g><path fill="none" stroke="black" paint-order="fill stroke markers" d=" M 643.1612442140624 1111.4472325319996 L 222.60630087089842 1111.4472325319996" stroke-miterlimit="10" stroke-width="1.3612669416666667" stroke-dasharray=""/><g transform="translate(219.88376698756508,1111.4472325319996) translate(-219.88376698756508,-1111.4472325319996)"><path fill="none" stroke="black" paint-order="fill stroke markers" d=" M 233.49643640423173 1104.6408978236664 L 221.24503392923174 1111.4472325319996 L 233.49643640423173 1118.2535672403328" stroke-miterlimit="10" stroke-width="1.3612669416666667"/></g></g><g><text fill="black" stroke="none" font-family="sans-serif" font-size="11pt" font-style="normal" font-weight="normal" text-decoration="normal" x="380.58837779319657" y="1150.6517204519998" text-anchor="start" dominant-baseline="alphabetic" xml:space="preserve">Respond status</text></g><g><path fill="none" stroke="black" paint-order="fill stroke markers" d=" M 219.88376698756508 1157.1858017719996 L 640.4387103307291 1157.1858017719996" stroke-miterlimit="10" stroke-width="1.3612669416666667" stroke-dasharray="6.53408132"/><g transform="translate(643.1612442140624,1157.1858017719996) translate(-643.1612442140624,-1157.1858017719996)"><path fill="none" stroke="black" paint-order="fill stroke markers" d=" M 629.5485747973958 1150.3794670636664 L 641.7999772723957 1157.1858017719996 L 629.5485747973958 1163.9921364803329" stroke-miterlimit="10" stroke-width="1.3612669416666667"/></g></g><g><g/><path fill="none" stroke="black" paint-order="fill stroke markers" d=" M 865.1400447938476 382.897165352 L 1661.5325812845376 382.897165352 L 1661.5325812845376 654.0615401319999 L 865.1400447938476 654.0615401319999 L 865.1400447938476 382.897165352 Z" stroke-miterlimit="10" stroke-width="2.3336004714285714" stroke-dasharray=""/><path fill="white" stroke="black" paint-order="fill stroke markers" d=" M 865.1400447938476 382.897165352 L 865.1400447938476 402.499409312 L 911.4992483909178 402.499409312 L 921.3003703709178 392.698287332 L 921.3003703709178 382.897165352 L 865.1400447938476 382.897165352" stroke-miterlimit="10" stroke-width="2.3336004714285714" stroke-dasharray=""/><text fill="black" stroke="none" font-family="sans-serif" font-size="8.8pt" font-style="normal" font-weight="bold" text-decoration="normal" x="881.4752480938475" y="395.965327992" text-anchor="start" dominant-baseline="alphabetic" xml:space="preserve">alt</text><text fill="black" stroke="none" font-family="sans-serif" font-size="8.8pt" font-style="normal" font-weight="bold" text-decoration="normal" x="937.6355736709178" y="395.965327992" text-anchor="start" dominant-baseline="alphabetic" xml:space="preserve">[Subscriber in cache]</text><g><path fill="none" stroke="black" paint-order="fill stroke markers" d=" M 865.1400447938476 472.740783502 L 1661.5325812845376 472.740783502" stroke-miterlimit="10" stroke-width="2.3336004714285714" stroke-dasharray="4.083800825"/></g><g/><text fill="black" stroke="none" font-family="sans-serif" font-size="8.8pt" font-style="normal" font-weight="bold" text-decoration="normal" x="937.6355736709178" y="485.808946142" text-anchor="start" dominant-baseline="alphabetic" xml:space="preserve">[Subscriber not in cache]</text></g><g/></g><g/><g/><g/><g/><g/><g/><g/><g/></g></svg>